<svg xmlns="http://www.w3.org/2000/svg" xmlns:xlink="http://www.w3.org/1999/xlink" viewBox="0 0 253.333 253.333" xml:space="preserve">
    <rect width="100%" height="100%" fill="white"/>
    <g clip-path="url(#b)" transform="matrix(1.33333 0 0 1.33333 0 0)">
        <path style="fill:#000;fill-opacity:1;fill-rule:nonzero;stroke:none" d="M0 0a3.199 3.199 0 0 1-.138-.027 1.19 1.19 0 0 1-.452.005c-.15.03-.303.023-.452-.005-.046.01-.091.019-.138.027a1.2 1.2 0 0 1-.527-.008 2.7 2.7 0 0 1-.3-.097 2.856 2.856 0 0 1-.736-.385 2.835 2.835 0 0 1-.686-.435 3.029 3.029 0 0 1-.235-.212 1.227 1.227 0 0 1-.273-.453 3.092 3.092 0 0 1-.047-.137 1.25 1.25 0 0 1-.23-.386 1.2 1.2 0 0 1-.218-.395 2.975 2.975 0 0 1-.091-.105 1.17 1.17 0 0 1-.258-.461 2.712 2.712 0 0 1-.067-.309c-.043-.242-.066-.492-.043-.738l.01-.082a2.753 2.753 0 0 1 .034-.82c.015-.106.038-.207.066-.309a1.17 1.17 0 0 1 .258-.461l.091-.106a1.2 1.2 0 0 1 .219-.394c.05-.14.13-.27.23-.386.013-.046.029-.092.045-.137.063-.168.145-.325.274-.453a3.03 3.03 0 0 1 .234-.211 2.835 2.835 0 0 1 .687-.436l.071-.053c.203-.144.434-.246.664-.332.098-.039.2-.07.301-.097a1.2 1.2 0 0 1 .527-.008c.047.008.092.017.138.027.15-.029.302-.034.452-.005.15-.03.303-.023.452.005.046-.01.092-.02.138-.027a1.2 1.2 0 0 1 .527.008c.102.027.203.058.301.097a2.854 2.854 0 0 1 .736.385l.065.03c.226.1.43.25.621.405.082.067.16.137.234.211.13.13.211.286.274.454.016.045.032.091.046.137.098.115.18.245.23.386a1.2 1.2 0 0 1 .218.394l.092.106c.117.137.21.285.258.461.027.101.05.203.066.309a2.753 2.753 0 0 1 .034.82 2.753 2.753 0 0 1-.034.82c-.016.106-.04.207-.066.309-.047.176-.141.324-.258.46-.03.037-.06.072-.092.106a1.2 1.2 0 0 1-.218.395c-.05.14-.132.27-.23.385-.014.047-.03.093-.046.138a1.227 1.227 0 0 1-.274.453 3.01 3.01 0 0 1-.234.211 2.835 2.835 0 0 1-.686.436 2.854 2.854 0 0 1-.736.385 2.7 2.7 0 0 1-.3.097.994.994 0 0 1-.263.033C.177.025.088.015 0 0Zm-.59-1.645a4 4 0 0 0 .804-.14 5.62 5.62 0 0 0 .438-.172l.014-.007a.391.391 0 0 1 .032-.015.47.47 0 0 1 .007-.005l-.004.004.004-.004a4.573 4.573 0 0 0 .377-.298 3.4 3.4 0 0 0 .32-.348c.077-.096.151-.195.223-.295a4.525 4.525 0 0 0 .274-.745 4.01 4.01 0 0 0 .08-.533 4.014 4.014 0 0 0-.08-.534 4.525 4.525 0 0 0-.274-.745 6.621 6.621 0 0 0-.184-.245 3.728 3.728 0 0 0-.359-.398 4.732 4.732 0 0 0-.348-.277l-.029-.02-.004-.004.004.003.021.016a.427.427 0 0 1-.028-.02l-.003-.002c-.014-.007-.028-.014-.03-.013a5.176 5.176 0 0 0-.451-.178 3.386 3.386 0 0 0-.437-.095A6.082 6.082 0 0 0-.59-6.76a4.021 4.021 0 0 0-.804.14 5.595 5.595 0 0 0-.438.172l-.013.007a.378.378 0 0 1-.033.015.38.38 0 0 1-.028.02l.02-.016c.002 0 .004-.002.005-.003l-.004.003c-.01.007-.02.014-.02.016-.124.09-.246.182-.357.282a3.387 3.387 0 0 0-.32.348c-.076.097-.15.195-.222.295a4.525 4.525 0 0 0-.274.745 3.998 3.998 0 0 0-.08.534c.018.18.037.358.08.534a4.525 4.525 0 0 0 .274.744c.071.1.146.199.183.245a3.742 3.742 0 0 0 .36.399c.11.1.232.192.347.277l.029.02a.081.081 0 0 0 .005.004l-.005-.004a2.74 2.74 0 0 1 .007.005l.003.002.03.013c.148.065.297.127.452.178.164.047.331.08.436.095.122.019.245.034.367.046z" transform="translate(95.59 99.203)"/>
        <path style="fill:#000;fill-opacity:1;fill-rule:nonzero;stroke:none" d="m0 0-.03.029L0 0Z" transform="translate(96.702 96.893)"/>
        <path style="fill:#000;fill-opacity:1;fill-rule:nonzero;stroke:none" d="m0 0-.03-.029A.88.88 0 0 1 0 0Z" transform="translate(93.328 96.922)"/>
        <path style="fill:#000;fill-opacity:1;fill-rule:nonzero;stroke:none" d="m0 0 .03.029A.792.792 0 0 1 0 0Z" transform="translate(96.672 93.078)"/>
        <path style="fill:#000;fill-opacity:1;fill-rule:nonzero;stroke:none" d="M0 0a.88.88 0 0 1-.03.029L0 0Z" transform="translate(93.328 93.078)"/>
        <path style="fill:#000;fill-opacity:1;fill-rule:nonzero;stroke:none" d="m0 0 .062.027.064.018.064.01V.053L.318.047H.317L.438.01l.056-.03H.492l.052-.038a.056.056 0 0 0-.004.004L.587-.1a.112.112 0 0 0-.009.01L.62-.142a.624.624 0 0 0-.046.066L.61-.134a1.094 1.094 0 0 0-.037.07L.6-.126C.579-.078.562-.029.547.021l.018-.064a2.246 2.246 0 0 0-.042.207L.533.1a3.787 3.787 0 0 0-.028.402V.438c0 .242.012.483.04.723l-.007-.063c.033.255.08.506.143.756l-.016-.062c.082.315.178.626.296.93l-.023-.06c.107.271.226.536.365.792l-.03-.057c.09.163.187.322.296.473l-.038-.052c.075.101.154.199.24.29l-.044-.047c.062.065.128.127.198.184l-.052-.041c.062.05.126.095.194.136l-.058-.035c.078.046.159.086.242.122L2.188 4.4c.137.06.278.112.421.153l-.064-.018a.879.879 0 0 0 .095.023l-.065-.01a.57.57 0 0 0 .053.005l-.065-.001c.047 0 .093-.004.139-.009l-.064.008c.083-.012.163-.028.244-.048l-.062.016a3.87 3.87 0 0 0 .377-.114c.244-.098.483-.207.714-.331l-.056.03c.322-.176.635-.368.933-.583l-.052.038c.155-.113.31-.229.45-.36l-.047.045c.13-.124.247-.26.36-.4l-.042.053a5.903 5.903 0 0 0 .403-.56c.086-.147.162-.298.23-.454l-.027.063c.042-.098.079-.198.108-.3l-.018.064c.02-.074.038-.148.052-.223a.504.504 0 0 1 .592-.386c.271.057.437.325.387.592a3.51 3.51 0 0 1-.47 1.16c-.202.332-.442.652-.707.935-.305.325-.677.588-1.05.828-.295.188-.601.365-.918.514-.371.174-.757.326-1.163.396-.175.03-.354.038-.527-.01a3.504 3.504 0 0 1-.3-.095 2.881 2.881 0 0 1-.665-.333c-.333-.235-.594-.564-.81-.906-.488-.77-.795-1.671-.968-2.561A5.842 5.842 0 0 1-.493.64a3.525 3.525 0 0 1 .067-.842c.047-.207.134-.412.274-.572a.516.516 0 0 1 .61-.115c.248.116.337.439.216.674A.507.507 0 0 1 0 0Z" transform="translate(91.534 93.678)"/>
        <path style="fill:#000;fill-opacity:1;fill-rule:nonzero;stroke:none" d="m0 0-.008.067-.016.065-.024.06-.07.107V.298c-.03.029-.062.057-.094.086h.001l-.055.033.002-.001-.059.026a11.432 11.432 0 0 1-.044.014l-.066.01A.634.634 0 0 1-.353.46H-.42l.08.004L-.41.456c.052.006.103.016.154.029L-.32.468c.069.02.135.042.2.067L-.18.511c.125.052.244.113.362.178L.126.657c.21.12.412.251.607.396l-.051-.038a6.638 6.638 0 0 1 .537.457c.232.229.454.468.658.721l-.04-.05c.18.228.35.464.503.712L2.306 2.8c.096.16.185.324.26.494l-.025-.059a3.086 3.086 0 0 1 .113.291c.025.087.046.174.06.263l-.01-.065c.012.078.02.157.021.236l-.001-.068c.001.09-.005.181-.015.27l.008-.067a3.469 3.469 0 0 1-.078.441l.016-.064c-.008.031-.016.063-.028.093l.025-.06a.51.51 0 0 1-.023.047l.032-.056c-.024.04-.05.078-.078.116l.039-.052a2.377 2.377 0 0 1-.119.141c-.107.11-.217.214-.337.31l.05-.04a6.963 6.963 0 0 1-.589.42c-.314.19-.637.366-.972.516l.059-.026a4.72 4.72 0 0 1-.536.21l.062-.019c-.172.05-.348.085-.526.112l.066-.01c-.25.038-.501.065-.754.07l.068-.001a4.1 4.1 0 0 1-.508-.027l.068.007a2.506 2.506 0 0 1-.314-.056l.064.017a2.74 2.74 0 0 1-.218-.067.504.504 0 0 0-.631.32.506.506 0 0 0 .32.63c.396.14.82.183 1.24.173a5.677 5.677 0 0 0 1.163-.144c.433-.102.847-.292 1.241-.496.31-.16.617-.337.904-.537.337-.234.66-.493.924-.809a1.21 1.21 0 0 0 .256-.462c.027-.101.05-.204.067-.308.042-.245.067-.493.044-.741-.037-.407-.192-.797-.38-1.156C2.913 1.78 2.285 1.064 1.602.47a5.841 5.841 0 0 0-.8-.576 3.517 3.517 0 0 0-.763-.362 1.29 1.29 0 0 0-.633-.05.516.516 0 0 0-.404.472c-.024.271.212.51.476.523C-.243.489-.023.27 0 0Z" transform="translate(95.588 91.338)"/>
        <path style="fill:#000;fill-opacity:1;fill-rule:nonzero;stroke:none" d="m0 0 .008.067.016.065.024.06.07.107V.298c.03.029.062.057.094.086H.21l.055.033L.264.416l.059.026a.634.634 0 0 0 .03.018H.42L.34.465.41.456a1.294 1.294 0 0 0-.154.028L.32.468C.25.488.185.51.12.535L.18.511a3.758 3.758 0 0 0-.362.178l.056-.032a5.93 5.93 0 0 0-.607.396l.051-.038a6.638 6.638 0 0 0-.537.457 8.47 8.47 0 0 0-.658.721l.04-.05c-.18.228-.35.464-.503.712l.034-.055c-.096.16-.185.324-.26.494l.025-.059c-.05.115-.095.233-.131.354l.018-.063a2.264 2.264 0 0 0-.06.263l.01-.065c-.012.078-.02.157-.021.236l.001-.068c-.001.09.005.181.015.27l-.008-.067c.018.148.042.297.078.441l-.016-.064c.008.031.016.063.028.093l-.025-.06a.51.51 0 0 0 .023.047l-.032-.056c.024.04.05.078.078.116l-.039-.052a2.377 2.377 0 0 0 .119.141c.107.11.217.213.337.31l-.05-.04a6.963 6.963 0 0 0 .589.42c.314.19.637.366.972.516l-.059-.026c.175.077.353.154.536.21l-.062-.019c.172.05.348.085.526.112l-.066-.01c.25.038.502.065.754.07l-.068-.001a4.1 4.1 0 0 0 .508-.027l-.067.007c.105-.012.21-.03.313-.056l-.064.017a2.74 2.74 0 0 0 .218-.067.504.504 0 0 1 .631.32.506.506 0 0 1-.32.63c-.396.14-.82.183-1.24.173a5.677 5.677 0 0 1-1.163-.144c-.433-.102-.847-.292-1.241-.496a8.078 8.078 0 0 1-.904-.537c-.337-.234-.66-.493-.924-.809a1.21 1.21 0 0 1-.256-.462 3.527 3.527 0 0 1-.067-.308 2.884 2.884 0 0 1-.044-.741c.037-.407.192-.797.38-1.156.422-.807 1.05-1.523 1.733-2.118.248-.215.52-.406.8-.576.241-.146.494-.278.763-.362a1.29 1.29 0 0 1 .633-.05c.23.046.384.246.404.472.023.271-.212.51-.476.523A.507.507 0 0 1 0 0Z" transform="translate(94.412 91.338)"/>
        <path style="fill:#000;fill-opacity:1;fill-rule:nonzero;stroke:none" d="m0 0-.062.027-.064.018a100.1 100.1 0 0 1-.064.01V.053A52.328 52.328 0 0 1-.318.047h.001L-.438.01l-.056-.03h.002l-.052-.038a.056.056 0 0 1 .004.004L-.587-.1a.112.112 0 0 1 .009.01L-.62-.142a.624.624 0 0 1 .046.066L-.61-.134l.037.07a1.273 1.273 0 0 1 .025.085l-.018-.064c.017.069.031.137.042.207L-.533.1c.018.134.025.267.028.402V.438c0 .242-.012.483-.04.723l.007-.063c-.033.255-.08.506-.143.756l.016-.062a8.478 8.478 0 0 1-.296.93l.023-.06c-.107.271-.226.536-.365.792l.03-.057c-.09.163-.187.322-.296.473l.038-.052a3.11 3.11 0 0 1-.24.29l.044-.047a2.238 2.238 0 0 1-.197.185l.051-.042c-.062.05-.126.095-.194.136l.058-.035a2.167 2.167 0 0 1-.242.122l.063-.027a3.472 3.472 0 0 1-.421.153l.064-.018a.879.879 0 0 1-.095.023l.065-.01a.57.57 0 0 1-.053.005l.065-.001c-.047 0-.093-.004-.139-.009l.064.008a2.398 2.398 0 0 1-.182-.032 3.87 3.87 0 0 1-.377-.114 6.944 6.944 0 0 1-.714-.331l.056.03a8.821 8.821 0 0 1-.933-.583l.052.038a4.736 4.736 0 0 1-.403-.315 4.17 4.17 0 0 1-.36-.4l.042.053a5.903 5.903 0 0 1-.403-.56 4.096 4.096 0 0 1-.23-.454l.027.063a2.512 2.512 0 0 1-.108-.3l.018.064a2.743 2.743 0 0 1-.052-.223.504.504 0 0 0-.592-.386.506.506 0 0 0-.387.592c.078.413.253.802.47 1.16.202.332.442.652.707.935.305.325.677.588 1.05.828.295.188.601.365.918.514.371.174.757.326 1.163.396.175.03.354.038.527-.01.102-.027.202-.059.3-.095.234-.087.46-.19.665-.333.333-.235.594-.564.81-.906.488-.77.795-1.671.968-2.561C.456 1.298.486.968.493.64a3.525 3.525 0 0 0-.067-.842 1.294 1.294 0 0 0-.274-.572.516.516 0 0 0-.61-.115c-.248.116-.337.439-.216.674.129.25.427.33.674.215Z" transform="translate(98.466 93.678)"/>
        <path style="fill:#000;fill-opacity:1;fill-rule:nonzero;stroke:none" d="m0 0-.054.04-.048.047-.04.05L-.2.252V.25l-.027.124-.001.063V.436l.007.065-.002-.006.016.063A.137.137 0 0 0-.211.546l.024.062A.637.637 0 0 0-.222.535l.033.06A1.112 1.112 0 0 0-.23.528l.04.054a1.302 1.302 0 0 0-.1-.119l.045.048A2.262 2.262 0 0 0-.404.37l.052.04A3.808 3.808 0 0 0-.688.186l.056.033a5.921 5.921 0 0 0-.646-.327l.058.025c-.237-.1-.479-.183-.726-.254l.061.017a8.454 8.454 0 0 0-.953-.209l.063.01a7.148 7.148 0 0 0-.867-.08l.064.002a4.622 4.622 0 0 0-.494.014c-.125.014-.25.034-.372.063l.064-.015a2.242 2.242 0 0 0-.259.079l.062-.024a1.798 1.798 0 0 0-.156.067 2.15 2.15 0 0 0-.227.148l.055-.04c-.12.09-.236.184-.343.288l.048-.046a.898.898 0 0 0-.067.07l.04-.05a.551.551 0 0 0-.03.042l.033-.055c-.023.04-.043.082-.061.124L-5.26.01a2.37 2.37 0 0 0-.08.234l.017-.061a3.867 3.867 0 0 0-.1.446l.01-.063a6.937 6.937 0 0 0-.07.72c-.007.367.002.735.04 1.1l-.007-.064c.02.19.043.383.086.57l-.015-.064c.043.175.101.344.166.512l-.024-.062c.092.235.195.466.317.688l-.033-.06c.083.148.176.29.277.426l-.04-.054c.063.085.13.167.205.243l-.046-.047c.053.054.109.106.167.156a.504.504 0 0 1 .038.706.506.506 0 0 1-.706.039 3.512 3.512 0 0 1-.77-.988 5.688 5.688 0 0 1-.456-1.08c-.129-.426-.17-.879-.191-1.323a8.088 8.088 0 0 1 .013-1.05c.035-.41.096-.82.238-1.206.062-.167.145-.326.272-.452.075-.074.152-.145.233-.212.192-.159.394-.304.62-.41.371-.17.787-.231 1.19-.248.911-.038 1.845.147 2.702.443.31.107.612.247.9.404.246.136.487.289.695.48.156.143.29.32.359.523A.516.516 0 0 1 .54.842C.317.998-.008.912-.15.69A.507.507 0 0 1 0 0Z" transform="translate(97.878 92.66)"/>
        <path style="fill:#000;fill-opacity:1;fill-rule:nonzero;stroke:none" d="m0 0-.054-.04-.048-.047-.04-.05L-.2-.252v.001l-.027-.124-.001-.063v.002l.007-.065-.002.006.016-.063a.137.137 0 0 1-.004.012l.024-.062a.637.637 0 0 1-.035.073l.033-.06a1.112 1.112 0 0 1-.042.067l.04-.054c-.031.042-.065.08-.1.119l.045-.048c-.05.05-.103.096-.158.14l.052-.04c-.108.082-.22.155-.336.225l.056-.033c-.21.122-.424.231-.646.327l.058-.025c-.237.1-.479.183-.726.254l.061-.017a8.454 8.454 0 0 1-.953.209l.063-.01a7.148 7.148 0 0 1-.867.08l.064-.002a4.622 4.622 0 0 1-.494-.014A3.098 3.098 0 0 1-4.38.535 2.242 2.242 0 0 1-4.64.456l.062.024a1.798 1.798 0 0 1-.156-.067A2.15 2.15 0 0 1-4.96.265l.055.04a3.466 3.466 0 0 1-.343-.288l.048.046a.898.898 0 0 1-.067-.07l.04.05a.551.551 0 0 1-.03-.042l.033.055a1.205 1.205 0 0 1-.061-.124l.025.058a2.37 2.37 0 0 1-.08-.234l.017.061a3.867 3.867 0 0 1-.1-.446l.01.063a6.937 6.937 0 0 1-.07-.72 8.842 8.842 0 0 1 .033-1.036c.02-.19.043-.383.086-.57l-.015.064c.043-.175.101-.344.166-.512l-.024.062c.092-.235.195-.466.317-.688l-.033.06c.083-.148.176-.29.277-.426l-.04.054c.063-.085.13-.167.205-.243l-.046.047c.053-.054.109-.106.167-.156a.504.504 0 0 0 .038-.706.506.506 0 0 0-.706-.039c-.319.274-.568.62-.77.988-.186.34-.344.707-.456 1.08-.129.426-.17.879-.191 1.322-.016.35-.017.703.013 1.052.035.408.096.818.238 1.205.062.167.145.326.272.452.075.074.152.145.233.212.192.159.394.304.62.41.371.17.787.231 1.19.248.912.038 1.845-.147 2.702-.443.31-.107.612-.247.9-.404a3.52 3.52 0 0 0 .695-.48c.156-.143.29-.32.359-.523A.516.516 0 0 0 .54-.84c-.223-.157-.548-.072-.69.15A.507.507 0 0 0 0 0Z" transform="translate(97.878 97.34)"/>
        <path style="fill:#000;fill-opacity:1;fill-rule:nonzero;stroke:none" d="M0 0a.51.51 0 0 0-.54.055L-.587.1A.112.112 0 0 0-.578.09L-.62.142A.624.624 0 0 0-.574.076L-.61.134l.037-.07L-.6.126c.021-.048.038-.097.053-.147l-.018.064c.017-.069.031-.137.042-.207l-.01.064c.018-.134.025-.267.028-.402v.064a5.934 5.934 0 0 0-.04-.723l.007.063a6.633 6.633 0 0 0-.143-.756l.016.062a8.478 8.478 0 0 0-.296-.93l.023.06a7.155 7.155 0 0 0-.365-.792l.03.057a4.613 4.613 0 0 0-.297-.473l.039.052a3.11 3.11 0 0 0-.196-.243 2.238 2.238 0 0 0-.198-.185l.052.042a1.778 1.778 0 0 0-.194-.136l.058.035a2.167 2.167 0 0 0-.18-.095 3.472 3.472 0 0 0-.42-.153l.064.018a.879.879 0 0 0-.095-.023l.064.01a.57.57 0 0 0-.052-.005l.065.001c-.047 0-.093.004-.139.009l.064-.008a2.398 2.398 0 0 0-.182.032 3.87 3.87 0 0 0-.377.114 6.944 6.944 0 0 0-.714.331l.056-.03a8.821 8.821 0 0 0-.933.583l.052-.038c-.155.113-.31.228-.45.36l.047-.045a4.17 4.17 0 0 0-.36.4l.042-.053a5.903 5.903 0 0 0-.403.56 4.096 4.096 0 0 0-.203.391 2.512 2.512 0 0 0-.108.3l.018-.064c-.032.341-.258.693-.644.61a.506.506 0 0 1-.387-.593c.352-1.608 1.709-2.766 3.145-3.437C-.93-6.879.849-2.264.425.202.337 1.133-.937 1.219-.674.215A.507.507 0 0 1 0 0Z" transform="translate(98.466 96.322)"/>
        <path style="fill:#000;fill-opacity:1;fill-rule:nonzero;stroke:none" d="M0 0a4.115 4.115 0 0 1-.531-.363 5.144 5.144 0 0 1-.531-.477A4.901 4.901 0 0 1-1.88-2a6.6 6.6 0 0 1-.535-1.426c-.058-.232-.11-.464-.156-.698-.047.233-.099.466-.157.698A6.6 6.6 0 0 1-3.262-2a4.904 4.904 0 0 1-.816 1.16c-.16.172-.348.328-.531.477A4.115 4.115 0 0 1-5.141 0a2.222 2.222 0 0 1-1.668.219 2.42 2.42 0 0 1-1.25-.825c-.558-.695-.78-1.59-.84-2.464a6.906 6.906 0 0 1 .063-1.45c.07-.507.176-1.007.305-1.503.042-.164.088-.326.136-.488-.117.123-.235.244-.355.363-.363.359-.746.699-1.152 1.011-.38.297-.786.57-1.22.781-.788.387-1.675.641-2.558.504a2.415 2.415 0 0 1-1.34-.671 2.21 2.21 0 0 1-.64-1.551c-.004-.215.015-.43.047-.645.035-.23.078-.468.144-.695.14-.453.336-.89.598-1.29.277-.425.602-.823.969-1.175.171-.166.346-.326.525-.483-.225.076-.452.148-.682.214-.488.14-.992.222-1.504.25-.472.027-.949-.02-1.41-.13-.234-.05-.457-.136-.68-.222a4.175 4.175 0 0 1-.581-.277 2.211 2.211 0 0 1-1.02-1.332 2.42 2.42 0 0 1 .086-1.497c.32-.832.988-1.472 1.715-1.964.402-.27.84-.485 1.289-.664.473-.196.957-.356 1.453-.489.165-.046.331-.088.498-.129-.167-.04-.333-.083-.498-.129-.496-.132-.98-.292-1.453-.488a6.93 6.93 0 0 1-1.29-.664c-.726-.492-1.394-1.133-1.714-1.965a2.42 2.42 0 0 1-.086-1.496 2.211 2.211 0 0 1 1.02-1.332c.187-.11.382-.199.582-.277.222-.086.445-.172.68-.223.46-.11.937-.156 1.41-.129.511.028 1.015.11 1.503.25.23.066.457.137.682.214a14.718 14.718 0 0 1-.525-.483 6.664 6.664 0 0 1-.97-1.176 5.088 5.088 0 0 1-.597-1.29 5.35 5.35 0 0 1-.144-.694 3.983 3.983 0 0 1-.047-.645 2.21 2.21 0 0 1 .64-1.55 2.415 2.415 0 0 1 1.34-.673c.883-.136 1.77.118 2.559.504.434.211.84.485 1.219.782.406.312.789.652 1.152 1.011.12.12.238.24.355.363a14.962 14.962 0 0 1-.136-.488 13.124 13.124 0 0 1-.305-1.504 6.906 6.906 0 0 1-.062-1.449c.058-.875.28-1.77.84-2.465a2.421 2.421 0 0 1 1.25-.824 2.222 2.222 0 0 1 1.667.219c.188.105.364.23.532.363.183.149.37.305.53.477.325.347.606.734.817 1.16.23.453.414.93.535 1.426.058.232.11.464.157.698.046-.234.098-.466.156-.698a6.6 6.6 0 0 1 .535-1.426c.211-.426.492-.813.816-1.16.16-.172.348-.328.532-.477.168-.133.343-.258.531-.363a2.222 2.222 0 0 1 1.668-.219c.496.14.926.418 1.25.824.559.696.781 1.59.84 2.465.035.485.004.973-.063 1.45-.07.507-.176 1.007-.304 1.503-.043.163-.089.326-.137.488.117-.123.235-.244.355-.363.364-.36.746-.699 1.153-1.011a6.88 6.88 0 0 1 1.219-.782c.789-.386 1.675-.64 2.558-.504.512.079.969.309 1.34.672.414.407.633.973.64 1.551.004.215-.015.43-.046.645-.035.23-.078.468-.145.695-.14.453-.336.89-.597 1.289a6.664 6.664 0 0 1-.97 1.176 14.72 14.72 0 0 1-.524.483c.225-.077.452-.148.681-.214.488-.14.992-.222 1.504-.25.473-.027.95.02 1.41.13a4.6 4.6 0 0 1 .68.222c.199.078.394.168.582.277.496.297.875.77 1.02 1.332a2.42 2.42 0 0 1-.087 1.496c-.32.832-.988 1.473-1.714 1.965-.403.27-.84.485-1.29.664-.472.196-.957.356-1.453.488-.165.046-.331.09-.498.13.167.04.333.082.498.128.496.133.98.293 1.453.489.45.18.887.394 1.29.664.726.492 1.394 1.133 1.714 1.965.188.484.215.992.086 1.496a2.212 2.212 0 0 1-1.02 1.332c-.187.109-.382.199-.581.277-.223.086-.446.172-.68.223a4.9 4.9 0 0 1-1.41.129 6.728 6.728 0 0 1-1.504-.25c-.23-.066-.456-.137-.681-.214.178.157.353.317.525.483.367.352.691.75.969 1.176.261.398.457.836.597 1.289.067.227.11.465.145.695.03.215.05.43.047.645a2.21 2.21 0 0 1-.641 1.55 2.415 2.415 0 0 1-1.34.672c-.883.137-1.77-.117-2.558-.504a6.873 6.873 0 0 1-1.22-.78A12.36 12.36 0 0 1 3.61-6.149c-.12-.12-.238-.24-.354-.363.048.162.093.324.136.488.129.496.234.996.304 1.503.067.477.098.965.063 1.45-.059.875-.281 1.77-.84 2.464a2.421 2.421 0 0 1-1.25.825c-.183.05-.37.075-.557.075C.726.294.342.19 0 0Zm1.111-.708c.066-.003.13-.01.198-.018a5.21 5.21 0 0 0 .165-.04c.053-.02.107-.04.159-.062.052-.026.103-.053.153-.081.04-.027.079-.054.112-.08.047-.037.091-.08.135-.123.051-.054.096-.108.143-.165.062-.086.12-.171.171-.26.058-.108.108-.22.157-.335.057-.163.105-.325.147-.49.037-.168.065-.333.087-.482l.003-.033v-.009c.022-.255.032-.51.03-.756a9.297 9.297 0 0 0-.068-.772c-.097-.606-.23-1.2-.383-1.723A24.473 24.473 0 0 0 1.255-8.97a39.022 39.022 0 0 1-1.126-1.635c-.547-.84-1.063-1.707-1.469-2.63l-.047-.109a.51.51 0 0 1 .298-.686.51.51 0 0 1 .749.084l.07.094c.594.809 1.086 1.692 1.54 2.586.3.59.586 1.187.855 1.789l.003.007c.597.813 1.228 1.6 1.872 2.29.426.442.871.852 1.297 1.196.232.178.467.35.714.506a8.316 8.316 0 0 0 .618.326h.002l.027.012c.163.068.33.127.502.183.176.047.352.087.532.12.11.013.22.024.332.028.097-.002.194-.008.291-.018.07-.01.137-.022.203-.035.065-.02.129-.039.193-.061.05-.021.1-.045.149-.07.047-.029.095-.06.14-.09l.126-.102c.044-.045.087-.092.129-.139a3 3 0 0 0 .09-.128c.029-.051.054-.101.08-.15.023-.06.044-.12.063-.183a.975.975 0 0 0 .024-.137c.006-.068.01-.14.01-.211a6.588 6.588 0 0 0-.018-.267 7.16 7.16 0 0 0-.101-.59 4.543 4.543 0 0 0-.134-.434 5.857 5.857 0 0 0-.26-.542 9.41 9.41 0 0 0-.333-.508 7.867 7.867 0 0 0-.462-.538 16.128 16.128 0 0 0-1.07-.968 28.721 28.721 0 0 0-1.863-1.36 51.695 51.695 0 0 0-1.907-1.244A27.704 27.704 0 0 0 .57-14.062c-.25-.114-.336-.442-.214-.676a.49.49 0 0 1 .09-.124A.508.508 0 0 1 .508-15c.14-.223.469-.309.687-.152.883.629 1.797 1.199 2.742 1.718h-.002c.65.35 1.314.678 1.98 1 .684.333 1.373.65 2.084.926.468.173.939.329 1.42.456.225.051.45.092.612.122.22.022.433.034.652.038.193-.007.382-.018.57-.037.18-.03.355-.07.53-.12a6.07 6.07 0 0 0 .514-.193c.078-.036.157-.075.232-.114l.187-.116c.04-.033.08-.067.118-.103.035-.04.07-.078.104-.119.035-.05.068-.102.1-.152.027-.057.053-.112.076-.168.021-.06.037-.12.053-.182.01-.06.02-.121.027-.182l.005-.124c-.004-.07-.011-.14-.021-.21a4.104 4.104 0 0 0-.03-.129 4.285 4.285 0 0 0-.084-.234 3.718 3.718 0 0 0-.146-.282 3.953 3.953 0 0 0-.17-.238 5.47 5.47 0 0 0-.345-.381 5.571 5.571 0 0 0-.45-.375 6.83 6.83 0 0 0-.578-.368 9.07 9.07 0 0 0-.816-.379 14.365 14.365 0 0 0-1.627-.509 25.317 25.317 0 0 0-2.984-.492c-.658.07-1.317.12-1.975.158-1.004.05-2.012.066-3.012-.043-.04-.004-.078-.012-.117-.016a.504.504 0 0 1-.444-.602.504.504 0 0 1 .443-.602c.04-.003.079-.01.118-.015 1-.11 2.008-.093 3.012-.043.658.037 1.317.089 1.975.158h.007a25.474 25.474 0 0 0 2.976-.492 14.365 14.365 0 0 0 1.628-.51c.277-.113.55-.238.757-.343a7.73 7.73 0 0 0 .637-.403c.158-.118.306-.243.45-.375.12-.123.238-.249.346-.38.06-.079.115-.158.169-.24.054-.092.1-.185.146-.28.03-.078.057-.154.084-.235l.03-.13c.01-.07.017-.14.02-.21 0-.04-.002-.082-.004-.123-.006-.06-.017-.121-.027-.182a2.213 2.213 0 0 0-.053-.182c-.023-.056-.049-.111-.076-.168a4.048 4.048 0 0 0-.1-.152c-.034-.041-.069-.08-.104-.12a2.618 2.618 0 0 0-.118-.102 13.652 13.652 0 0 0-.187-.116c-.075-.04-.154-.078-.174-.09a7.065 7.065 0 0 0-.571-.216 4.75 4.75 0 0 0-.53-.121 8.714 8.714 0 0 0-.57-.038c-.22.005-.433.017-.586.035a8.717 8.717 0 0 0-.678.126c-.482.127-.953.283-1.421.456-.711.275-1.4.593-2.085.926-.665.322-1.329.649-1.98 1h.003c-.945.519-1.859 1.09-2.742 1.718-.218.156-.547.07-.687-.152a.508.508 0 0 1-.062-.138.492.492 0 0 1-.09-.124c-.122-.234-.036-.562.214-.676.961-.436 1.896-.933 2.804-1.478.648-.398 1.28-.82 1.907-1.244A28.139 28.139 0 0 0 7.09-23.18c.39-.323.766-.653 1.124-1.011.162-.173.315-.35.462-.538.117-.167.226-.335.332-.508.095-.177.183-.354.26-.542.053-.144.097-.286.135-.435a7.15 7.15 0 0 0 .101-.59c.008-.087.015-.175.019-.266-.001-.072-.005-.143 0-.149a2.621 2.621 0 0 0-.035-.199 2.298 2.298 0 0 0-.064-.182c-.024-.05-.05-.1-.079-.151a3.004 3.004 0 0 0-.09-.128 3.322 3.322 0 0 0-.13-.14l-.125-.1a3.486 3.486 0 0 0-.14-.092 2.892 2.892 0 0 0-.15-.069 4.71 4.71 0 0 0-.192-.061 4.545 4.545 0 0 0-.203-.035 3.19 3.19 0 0 0-.291-.018 4.314 4.314 0 0 0-.332.027c-.18.034-.356.074-.532.12a8.07 8.07 0 0 0-.473.169l-.056.026-.002.001h.002c-.213.1-.417.208-.62.326-.247.157-.482.328-.663.463a14.46 14.46 0 0 0-1.301 1.192 24.774 24.774 0 0 0-1.922 2.344 38.504 38.504 0 0 1-.856 1.788c-.453.895-.945 1.778-1.539 2.586l-.07.094a.51.51 0 0 1-.749.084.51.51 0 0 1-.298-.686l.047-.109c.406-.922.922-1.789 1.469-2.629.361-.554.737-1.1 1.125-1.635.41-.927.774-1.865 1.05-2.77.169-.587.301-1.18.387-1.72.04-.282.067-.557.078-.828a8.543 8.543 0 0 0-.023-.738l-.005-.037-.002-.012a6.174 6.174 0 0 0-.088-.503 5.715 5.715 0 0 0-.147-.49 4.132 4.132 0 0 0-.157-.336 3.257 3.257 0 0 0-.171-.259 3.371 3.371 0 0 0-.143-.166 2.027 2.027 0 0 0-.13-.12c-.038-.028-.078-.055-.117-.082a3.314 3.314 0 0 0-.153-.08 3.467 3.467 0 0 0-.16-.063 5.21 5.21 0 0 0-.164-.04 2.61 2.61 0 0 0-.197-.019 5.673 5.673 0 0 0-.16.007c-.05.007-.1.017-.148.028a.914.914 0 0 0-.167.055c-.078.039-.156.078-.176.09-.07.043-.14.09-.209.137-.16.119-.31.244-.457.372-.128.129-.249.261-.366.4-.118.16-.226.323-.296.434a8.76 8.76 0 0 0-.285.563c-.09.223-.168.45-.235.664-.131.489-.233.985-.308 1.422a28.15 28.15 0 0 0-.242 2.293 59.231 59.231 0 0 0-.125 2.207c-.02 1.082.015 2.16.12 3.234.024.274-.214.512-.476.524a.501.501 0 0 1-.152-.017.502.502 0 0 1-.153.017c-.261-.012-.5-.25-.476-.524.105-1.074.14-2.152.12-3.164-.023-.762-.07-1.52-.124-2.277a26.872 26.872 0 0 0-.235-2.227c-.083-.503-.185-1-.312-1.473a8.941 8.941 0 0 0-.225-.65c-.093-.2-.19-.398-.263-.537a8.053 8.053 0 0 0-.331-.489 6.74 6.74 0 0 0-.367-.4 7.606 7.606 0 0 0-.457-.372c-.068-.047-.138-.094-.15-.106-.078-.043-.156-.082-.176-.098a1.326 1.326 0 0 0-.374-.106 5.68 5.68 0 0 0-.16-.007 2.62 2.62 0 0 0-.197.02 5.205 5.205 0 0 0-.164.039c-.054.02-.108.04-.16.062a3.314 3.314 0 0 0-.153.081c-.04.027-.078.054-.112.08-.047.037-.091.08-.135.122-.05.055-.096.11-.142.166a3.23 3.23 0 0 0-.172.26c-.058.108-.107.22-.156.335a5.644 5.644 0 0 0-.148.49 7.022 7.022 0 0 0-.087.482l-.003.033v.009a8.271 8.271 0 0 0-.03.756c.013.28.04.556.068.772.098.605.23 1.2.383 1.723.292.968.656 1.906 1.066 2.833.388.535.764 1.08 1.125 1.635.547.84 1.063 1.707 1.47 2.63l.046.109a.51.51 0 0 1-.298.686.51.51 0 0 1-.749-.084l-.07-.095c-.594-.808-1.086-1.691-1.54-2.586-.3-.59-.586-1.186-.855-1.788l-.003-.007a25.409 25.409 0 0 0-1.872-2.29 14.452 14.452 0 0 0-1.296-1.196 9.693 9.693 0 0 0-.714-.506 8.3 8.3 0 0 0-.62-.327l.002.001h-.003l-.027-.012a6.434 6.434 0 0 0-.502-.183 6.946 6.946 0 0 0-.531-.12 4.317 4.317 0 0 0-.333-.028 3.19 3.19 0 0 0-.29.018c-.07.01-.137.022-.204.035-.064.019-.128.039-.192.061-.05.021-.1.045-.15.07-.047.029-.094.06-.14.09l-.125.102a3.322 3.322 0 0 0-.13.139 3.004 3.004 0 0 0-.09.128 3.958 3.958 0 0 0-.079.15c-.023.06-.044.12-.063.183a.974.974 0 0 0-.024.137c-.007.068-.01.14-.011.21.004.092.01.18.018.268.026.198.059.394.101.589.039.149.082.291.135.435.077.188.165.365.26.542.106.173.215.34.333.508.146.188.3.365.461.538.358.358.734.688 1.07.968a28.74 28.74 0 0 0 1.863 1.36c.628.425 1.26.846 1.907 1.244a27.714 27.714 0 0 0 2.804 1.478c.25.114.336.442.215.676a.493.493 0 0 1-.09.124.504.504 0 0 1-.062.138c-.141.223-.47.309-.688.152a27.756 27.756 0 0 0-2.742-1.719l.003.002a50.793 50.793 0 0 0-1.98-1.001 27.472 27.472 0 0 0-2.085-.926 15.465 15.465 0 0 0-1.42-.456c-.225-.052-.45-.093-.612-.122a8.216 8.216 0 0 0-.652-.039 8.721 8.721 0 0 0-.57.038c-.18.03-.355.07-.53.12a6.102 6.102 0 0 0-.514.193 4.9 4.9 0 0 0-.232.114l-.187.116c-.04.033-.079.067-.118.103-.035.04-.07.078-.104.119-.035.05-.067.102-.1.152-.027.057-.053.112-.076.168-.02.06-.037.12-.053.182-.01.06-.02.121-.027.182a4.299 4.299 0 0 0-.004.124c.003.07.01.14.02.21l.03.129c.027.08.054.157.085.234a3.7 3.7 0 0 0 .145.282c.054.081.11.16.17.238.107.132.225.258.346.38.143.133.291.258.45.376.205.144.417.279.577.368.266.14.54.265.817.379.532.2 1.074.372 1.627.509a25.32 25.32 0 0 0 2.984.492c.657-.07 1.316-.12 1.975-.158 1.004-.05 2.011-.066 3.011.043.04.004.079.012.118.016a.504.504 0 0 1 .443.601.504.504 0 0 1-.443.602c-.04.004-.079.012-.118.016-1 .109-2.007.093-3.011.043a40.877 40.877 0 0 1-1.975-.158h-.008a25.455 25.455 0 0 0-2.976.492c-.553.137-1.095.308-1.627.51-.278.113-.551.238-.758.343-.22.124-.431.259-.637.403a5.554 5.554 0 0 0-.45.375 5.47 5.47 0 0 0-.345.38 4 4 0 0 0-.17.24c-.054.092-.1.185-.145.28a4.37 4.37 0 0 0-.085.235l-.03.13c-.01.07-.017.14-.02.21 0 .04.002.082.004.123.007.06.017.121.027.182.016.062.032.122.053.182.023.056.05.11.076.168.033.05.065.102.1.152l.104.12c.04.035.078.07.118.102l.187.116c.076.04.154.078.174.09.188.08.377.153.572.216.175.05.35.09.53.12.189.02.378.031.57.039.219-.005.432-.017.586-.035.228-.033.453-.074.678-.126.481-.127.953-.283 1.42-.456.712-.275 1.4-.593 2.085-.926.665-.322 1.33-.65 1.98-1h-.003c.945-.52 1.86-1.09 2.742-1.718.219-.157.547-.07.688.152.028.045.048.09.061.138a.49.49 0 0 1 .09.124c.122.234.036.562-.214.676-.96.436-1.895.933-2.804 1.478-.647.398-1.279.82-1.907 1.244-.637.434-1.262.875-1.808 1.317-.39.322-.767.653-1.125 1.011-.161.173-.315.35-.461.538a9.35 9.35 0 0 0-.333.508 5.857 5.857 0 0 0-.26.542 4.543 4.543 0 0 0-.135.435 7.16 7.16 0 0 0-.101.59 6.774 6.774 0 0 0-.018.266c0 .072.004.143-.001.149.01.066.021.134.036.199.019.063.04.122.063.182.025.05.05.1.079.151a3 3 0 0 0 .09.128c.042.047.086.094.13.14l.125.1c.046.032.093.062.14.092.05.024.1.048.15.069.064.022.128.042.192.061.067.013.134.025.203.035.097.01.194.016.291.018.113-.004.223-.015.333-.028.18-.033.355-.073.531-.12.173-.056.339-.115.473-.168l.056-.026c.213-.1.417-.21.62-.327.247-.157.483-.328.664-.463a14.46 14.46 0 0 0 1.3-1.192 24.774 24.774 0 0 0 1.91-2.328c.005-.005.008-.01.012-.016.27-.602.555-1.199.856-1.789.453-.894.945-1.777 1.539-2.586l.07-.093a.51.51 0 0 1 .749-.085.51.51 0 0 1 .298.686l-.047.11c-.406.922-.922 1.789-1.468 2.629-.362.554-.737 1.1-1.126 1.635-.41.927-.774 1.865-1.05 2.77-.168.587-.301 1.18-.387 1.72-.04.282-.067.557-.078.828-.004.255.007.51.023.738l.005.037.002.012c.024.17.05.335.088.503.042.165.09.327.148.49.049.115.098.227.156.336.052.088.11.173.172.259.046.057.091.111.142.165.044.044.088.086.13.12.039.029.078.056.117.083.05.028.102.055.154.08.051.023.105.043.159.063.055.014.109.028.164.04.068.009.133.015.198.018a5.32 5.32 0 0 0 .159-.006c.05-.007.1-.017.149-.028a.917.917 0 0 0 .167-.055c.078-.039.156-.078.175-.09.07-.043.141-.09.21-.137.159-.119.31-.244.456-.372a6.74 6.74 0 0 0 .367-.4c.118-.16.226-.323.296-.434.108-.194.205-.392.285-.563.09-.223.168-.45.235-.664.13-.489.232-.985.308-1.422.117-.762.187-1.523.242-2.293a59.43 59.43 0 0 0 .125-2.207c.02-1.082-.016-2.16-.121-3.234-.024-.274.215-.512.476-.524a.505.505 0 0 1 .153.017.504.504 0 0 1 .152-.017c.262.012.5.25.477.524a27.294 27.294 0 0 0-.121 3.164c.023.762.07 1.52.125 2.277.054.77.125 1.531.234 2.227.083.503.185.999.312 1.472.07.23.149.457.225.65.093.201.19.399.264.538.105.166.213.33.33.489.118.139.24.271.367.4.147.128.298.253.457.372.068.047.138.094.15.106.079.043.157.082.176.098a1.328 1.328 0 0 0 .375.106l.159.006z" transform="translate(97.57 111.602)"/>
        <path style="fill:#000;fill-opacity:1;fill-rule:nonzero;stroke:none" d="M0 0v.009L-.003.02 0 0Z" transform="translate(100.312 108.716)"/>
        <path style="fill:#000;fill-opacity:1;fill-rule:nonzero;stroke:none" d="M0 0v-.009a.364.364 0 0 1 .002.021L0 0Z" transform="translate(89.689 108.724)"/>
        <path style="fill:#000;fill-opacity:1;fill-rule:nonzero;stroke:none" d="M0 0 .026.01 0 0Z" transform="translate(104.202 106.45)"/>
        <path style="fill:#000;fill-opacity:1;fill-rule:nonzero;stroke:none" d="M0 0Z" transform="translate(85.799 106.45)"/>
        <path style="fill:#000;fill-opacity:1;fill-rule:nonzero;stroke:none" d="m0 0 .027-.011A.632.632 0 0 1 0 0Z" transform="translate(104.202 83.55)"/>
        <path style="fill:#000;fill-opacity:1;fill-rule:nonzero;stroke:none" d="m0 0 .027.011A.632.632 0 0 1 0 0Z" transform="translate(85.772 83.539)"/>
        <path style="fill:#000;fill-opacity:1;fill-rule:nonzero;stroke:none" d="m0 0 .002.012A.364.364 0 0 1 0 0Z" transform="translate(100.31 81.263)"/>
        <path style="fill:#000;fill-opacity:1;fill-rule:nonzero;stroke:none" d="m0 0 .002-.012a.364.364 0 0 1-.003.02L0 0Z" transform="translate(89.689 81.276)"/>
        <path style="fill:#000;fill-opacity:1;fill-rule:nonzero;stroke:none" d="M0 0a28.598 28.598 0 0 1 1.587-1.05 32.923 32.923 0 0 1 2.656-1.442c.855-.424 1.713-.842 2.604-1.189.464-.18.934-.341 1.413-.48.49-.142.995-.223 1.504-.251.474-.026.951.022 1.413.128.23.053.457.137.677.224.2.078.396.168.581.279.497.296.876.768 1.022 1.333.13.5.102 1.011-.086 1.494-.323.832-.989 1.473-1.716 1.963a7.01 7.01 0 0 1-1.287.668c-.474.192-.96.353-1.454.488-.942.258-1.913.425-2.882.546-.902.113-1.81.19-2.717.24-1.002.054-2.012.07-3.01-.042l-.117-.014a.507.507 0 0 1-.455-.541c.023-.266.27-.487.541-.455.437.051.874.08 1.314.09l-.064-.001c1.264.025 2.53-.07 3.787-.2l-.064.006a25.47 25.47 0 0 0 3.034-.497l-.064.015A14.49 14.49 0 0 0 9.964.764l-.062.024a8.89 8.89 0 0 0 .816-.378l-.06.033c.236-.132.462-.275.682-.432l-.054.04c.16-.122.315-.25.463-.387l-.048.046a5.92 5.92 0 0 0 .394-.425l-.04.051a4.414 4.414 0 0 0 .204-.281c.063-.113.12-.227.173-.345l-.025.059a4.94 4.94 0 0 0 .085-.237l-.018.062c.022-.08.04-.158.056-.239l-.01.063c.01-.079.018-.157.023-.237l-.001.065c0-.079-.004-.156-.01-.234l.008.064a4.175 4.175 0 0 0-.038-.233l.015.064a3.523 3.523 0 0 0-.067-.228l.024.062a3.283 3.283 0 0 0-.099-.218l.033.06a3.628 3.628 0 0 0-.13-.205l.041.055a3.162 3.162 0 0 0-.16-.188l.046.048a1.581 1.581 0 0 0-.192-.164l.052.04a4.449 4.449 0 0 0-.17-.11 6.259 6.259 0 0 0-.256-.128l.059.026a7.466 7.466 0 0 0-.617-.23 5.434 5.434 0 0 0-.502-.11l.063.01a7.492 7.492 0 0 0-.573-.044 7.901 7.901 0 0 0-.629.032c-.238.035-.472.08-.708.132l.064-.015c-.508.133-1.003.299-1.496.482l.062-.024c-.717.279-1.413.598-2.105.934-.685.332-1.366.67-2.035 1.032l.06-.033A28.27 28.27 0 0 0 .54.84C.318 1-.009.911-.15.691-.304.453-.223.158 0 0Z" transform="translate(98.227 92.708)"/>
        <path style="fill:#000;fill-opacity:1;fill-rule:nonzero;stroke:none" d="M0 0c.516.368 1.047.718 1.587 1.05.859.529 1.752.994 2.656 1.442.855.424 1.713.842 2.604 1.188.464.181.934.342 1.413.48.49.143.995.223 1.504.252.474.027.951-.022 1.413-.128.23-.053.457-.137.677-.224.2-.078.396-.168.581-.279a2.213 2.213 0 0 0 1.022-1.333c.13-.5.102-1.011-.086-1.494-.323-.832-.989-1.473-1.716-1.963a7.01 7.01 0 0 0-1.287-.668c-.474-.192-.96-.353-1.454-.488a20.586 20.586 0 0 0-2.882-.546 38.553 38.553 0 0 0-2.717-.24c-1.002-.054-2.012-.07-3.01.042l-.117.014a.507.507 0 0 0-.455.541c.023.266.27.487.541.455.437-.051.874-.08 1.314-.09l-.064.001c1.264-.025 2.53.07 3.787.2a25.47 25.47 0 0 1 2.97.49l-.064-.014a14.49 14.49 0 0 1 1.747.548l-.062-.024c.278.113.55.237.816.378l-.06-.033c.236.132.462.275.682.432l-.054-.04c.16.122.315.25.463.387L11.701.29c.139.136.27.276.394.425l-.04-.051a4.414 4.414 0 0 1 .204.281c.063.113.12.227.173.345l-.025-.059c.03.079.058.157.085.237l-.018-.062c.021.08.04.159.056.239l-.01-.063c.01.079.018.157.023.237l-.001-.064c0 .078-.004.155-.01.234l.008-.065c-.011.079-.024.155-.038.233l.015-.064c-.02.078-.042.153-.067.228l.024-.062c-.03.074-.063.146-.099.218l.033-.06c-.041.07-.084.137-.13.205l.041-.055a3.162 3.162 0 0 1-.16.188l.046-.048c-.06.06-.123.115-.192.164l.052-.04c-.074.05-.148.097-.225.143l.056-.033c-.085.045-.17.087-.257.128l.059-.026a7.466 7.466 0 0 1-.617.23c.02-.005.04-.01.061-.017a5.434 5.434 0 0 1-.5.118 7.492 7.492 0 0 1-.637.045l.064-.002a7.901 7.901 0 0 1-.629-.032 9.136 9.136 0 0 1-.707-.132l.063.015A15.471 15.471 0 0 1 7.3 2.786l.062.024a28.439 28.439 0 0 1-2.105-.934A52.436 52.436 0 0 1 3.222.844l.06.033A28.27 28.27 0 0 1 .54-.84C.318-1-.009-.911-.15-.691-.304-.453-.223-.158 0 0Z" transform="translate(98.227 97.292)"/>
        <path style="fill:#000;fill-opacity:1;fill-rule:nonzero;stroke:none" d="M0 0c3.373 1.853 7.764 3.782 9.298 7.538.555 1.47-.069 3.355-1.787 3.566-4.595.182-7.936-5.847-9.878-9.385-.398-.59.534-1.187.86-.532.173.404.367.797.578 1.183l-.03-.056C-.35 3.42.364 4.47 1.106 5.494a25.472 25.472 0 0 0 1.865 2.28c.424.44.872.852 1.348 1.237l-.052-.042a8.899 8.899 0 0 0 .677.483c.233.138.47.262.716.374L5.598 9.8c.187.079.374.148.568.208l-.064-.018c.186.052.373.095.564.128l-.064-.009c.137.018.272.03.41.037l-.064-.001c.13-.001.256-.009.385-.022l-.064.007c.083-.013.165-.027.248-.044l-.062.015a3.7 3.7 0 0 0 .234-.071l-.06.023c.074-.03.146-.063.217-.098l-.056.03c.068-.039.133-.08.198-.124l-.052.038c.063-.048.123-.098.182-.15l-.047.046c.057-.056.111-.113.164-.173a3.302 3.302 0 0 0 .097-.142l-.035.058c.04-.07.077-.14.112-.214l-.027.062c.031-.077.058-.152.083-.232l-.018.064c.022-.082.037-.165.046-.249l-.01.065c.007-.089.011-.177.012-.266v.065a6.216 6.216 0 0 0-.018-.286l.007.063a7.44 7.44 0 0 0-.109-.65l.016.063a5.425 5.425 0 0 0-.149-.493 7.564 7.564 0 0 0-.248-.518 7.91 7.91 0 0 0-.343-.528c-.149-.189-.304-.37-.468-.546l.045.047c-.37-.374-.76-.72-1.165-1.054l.052.041c-.6-.481-1.225-.925-1.862-1.356a52.397 52.397 0 0 0-1.911-1.247l.058.035A28.247 28.247 0 0 0-.459.89C-.707.776-.794.449-.674.215-.544-.035-.248-.113 0 0Z" transform="translate(98.599 96.648)"/>
    </g>
</svg>
