<svg xmlns="http://www.w3.org/2000/svg" xmlns:xlink="http://www.w3.org/1999/xlink" viewBox="0 0 253.333 253.333" xml:space="preserve">
    <rect width="100%" height="100%" fill="white"/>
    <g clip-path="url(#c)" transform="matrix(1.33333 0 0 1.33333 0 0)">
        <path style="fill:#000;fill-opacity:1;fill-rule:nonzero;stroke:none" d="m0 0-.03-.029A.88.88 0 0 1 0 0Z" transform="translate(93.328 96.922)"/>
        <path style="fill:#000;fill-opacity:1;fill-rule:nonzero;stroke:none" d="m0 0 .03.029A.792.792 0 0 1 0 0Z" transform="translate(96.672 93.078)"/>
        <path style="fill:#000;fill-opacity:1;fill-rule:nonzero;stroke:none" d="M0 0v.009L-.003.02 0 0Z" transform="translate(100.312 108.716)"/>
        <path style="fill:#000;fill-opacity:1;fill-rule:nonzero;stroke:none" d="M0 0v-.009a.364.364 0 0 1 .002.021L0 0Z" transform="translate(89.689 108.724)"/>
        <path style="fill:#000;fill-opacity:1;fill-rule:nonzero;stroke:none" d="m0 0 .015.012L0 0Z" transform="translate(101.68 134.207)"/>
        <path style="fill:#000;fill-opacity:1;fill-rule:nonzero;stroke:none" d="M0 0v-.007a.825.825 0 0 1 .002.022L0 0Z" transform="translate(78.79 131.023)"/>
        <path style="fill:#000;fill-opacity:1;fill-rule:nonzero;stroke:none" d="m0 0-.004.01-.006.013A.795.795 0 0 1 0 0Z" transform="translate(91.908 129.447)"/>
        <path style="fill:#000;fill-opacity:1;fill-rule:nonzero;stroke:none" d="m0 0-.016-.008.033.015L0 0Z" transform="translate(118.096 127.053)"/>
        <path style="fill:#000;fill-opacity:1;fill-rule:nonzero;stroke:none" d="m0 0-.016.008-.017.007A.283.283 0 0 1 0 0Z" transform="translate(71.92 127.045)"/>
        <path style="fill:#000;fill-opacity:1;fill-rule:nonzero;stroke:none" d="m0 0 .013.046L0 0Z" transform="translate(96.995 126.404)"/>
        <path style="fill:#000;fill-opacity:1;fill-rule:nonzero;stroke:none" d="m0 0-.013.046A.347.347 0 0 1 0 0Z" transform="translate(93.005 126.404)"/>
        <path style="fill:#000;fill-opacity:1;fill-rule:nonzero;stroke:none" d="m0 0 .025.025L0 0Z" transform="translate(113.18 123.273)"/>
        <path style="fill:#000;fill-opacity:1;fill-rule:nonzero;stroke:none" d="m0 0-.025.025L0 0Z" transform="translate(76.82 123.273)"/>
        <path style="fill:#000;fill-opacity:1;fill-rule:nonzero;stroke:none" d="m0 0 .005.017A1.284 1.284 0 0 0 0 0Z" transform="translate(125.335 118.87)"/>
        <path style="fill:#000;fill-opacity:1;fill-rule:nonzero;stroke:none" d="m0 0 .005-.017A.298.298 0 0 1 0 0Z" transform="translate(64.66 118.888)"/>
        <path style="fill:#000;fill-opacity:1;fill-rule:nonzero;stroke:none" d="m0 0 .002.003.02.038A.247.247 0 0 1 0 0Z" transform="translate(124.505 116.779)"/>
        <path style="fill:#000;fill-opacity:1;fill-rule:nonzero;stroke:none" d="m0 0 .002-.003a.25.25 0 0 1-.022.04L0 0Z" transform="translate(65.493 116.782)"/>
        <path style="fill:#000;fill-opacity:1;fill-rule:nonzero;stroke:none" d="m0 0-.04.024A.26.26 0 0 1 0 0Z" transform="translate(133.797 108.058)"/>
        <path style="fill:#000;fill-opacity:1;fill-rule:nonzero;stroke:none" d="M0 0a.26.26 0 0 1 .04.024L0 0Z" transform="translate(56.203 108.058)"/>
        <path style="fill:#000;fill-opacity:1;fill-rule:nonzero;stroke:none" d="m0 0 .01.016.005.01A.28.28 0 0 1 0 0Z" transform="translate(136.321 101.1)"/>
        <path style="fill:#000;fill-opacity:1;fill-rule:nonzero;stroke:none" d="m0 0 .01-.016A.268.268 0 0 1-.005.01L0 0Z" transform="translate(53.669 101.117)"/>
        <path style="fill:#000;fill-opacity:1;fill-rule:nonzero;stroke:none" d="M0 0a.63.63 0 0 1-.036 0H0Z" transform="translate(114.72 95.718)"/>
        <path style="fill:#000;fill-opacity:1;fill-rule:nonzero;stroke:none" d="M0 0h.036A.63.63 0 0 1 0 0Z" transform="translate(75.28 95.718)"/>
        <path style="fill:#000;fill-opacity:1;fill-rule:nonzero;stroke:none" d="M0 0a.63.63 0 0 1 .036 0H0Z" transform="translate(114.684 94.281)"/>
        <path style="fill:#000;fill-opacity:1;fill-rule:nonzero;stroke:none" d="M0 0h-.036A.63.63 0 0 1 0 0Z" transform="translate(75.316 94.281)"/>
        <path style="fill:#000;fill-opacity:1;fill-rule:nonzero;stroke:none" d="m0 0-.003.004L0 0Z" transform="translate(135.962 89.428)"/>
        <path style="fill:#000;fill-opacity:1;fill-rule:nonzero;stroke:none" d="m0 0-.003-.004.004.005L0 0Z" transform="translate(54.04 89.432)"/>
        <path style="fill:#000;fill-opacity:1;fill-rule:nonzero;stroke:none" d="m0 0-.005.01-.01.016A.248.248 0 0 1 0 0Z" transform="translate(136.336 88.874)"/>
        <path style="fill:#000;fill-opacity:1;fill-rule:nonzero;stroke:none" d="m0 0-.005-.01.015.026L0 0Z" transform="translate(53.669 88.883)"/>
        <path style="fill:#000;fill-opacity:1;fill-rule:nonzero;stroke:none" d="m0 0 .04.024A.255.255 0 0 1 0 0Z" transform="translate(133.758 81.918)"/>
        <path style="fill:#000;fill-opacity:1;fill-rule:nonzero;stroke:none" d="M0 0a.255.255 0 0 1-.04.024L0 0Z" transform="translate(56.242 81.918)"/>
        <path style="fill:#000;fill-opacity:1;fill-rule:nonzero;stroke:none" d="m0 0-.02.037-.002.004A.24.24 0 0 1 0 0Z" transform="translate(124.526 73.18)"/>
        <path style="fill:#000;fill-opacity:1;fill-rule:nonzero;stroke:none" d="m0 0-.02-.037a.25.25 0 0 1 .022.04L0 0Z" transform="translate(65.493 73.218)"/>
        <path style="fill:#000;fill-opacity:1;fill-rule:nonzero;stroke:none" d="M0 0a1.058 1.058 0 0 0-.004.019L-.01.036A.283.283 0 0 1 0 0Z" transform="translate(125.344 71.093)"/>
        <path style="fill:#000;fill-opacity:1;fill-rule:nonzero;stroke:none" d="M0 0a1.058 1.058 0 0 1 .005.017L0 0Z" transform="translate(64.66 71.112)"/>
        <path style="fill:#000;fill-opacity:1;fill-rule:nonzero;stroke:none" d="M0 0a1.002 1.002 0 0 1-.025.025L0 0Z" transform="translate(113.204 66.701)"/>
        <path style="fill:#000;fill-opacity:1;fill-rule:nonzero;stroke:none" d="m0 0 .025.025A1.002 1.002 0 0 1 0 0Z" transform="translate(76.796 66.701)"/>
        <path style="fill:#000;fill-opacity:1;fill-rule:nonzero;stroke:none" d="M0 0a.329.329 0 0 1-.013.046L0 0Z" transform="translate(97.008 63.55)"/>
        <path style="fill:#000;fill-opacity:1;fill-rule:nonzero;stroke:none" d="m0 0 .013.046A.329.329 0 0 1 0 0Z" transform="translate(92.992 63.55)"/>
        <path style="fill:#000;fill-opacity:1;fill-rule:nonzero;stroke:none" d="m0 0 .017-.007a.301.301 0 0 1-.033.015L0 0Z" transform="translate(118.096 62.947)"/>
        <path style="fill:#000;fill-opacity:1;fill-rule:nonzero;stroke:none" d="m0 0 .017.007.016.008A.283.283 0 0 1 0 0Z" transform="translate(71.888 62.94)"/>
        <path style="fill:#000;fill-opacity:1;fill-rule:nonzero;stroke:none" d="m0 0 .006-.014a.59.59 0 0 1-.01.023L0 0Z" transform="translate(98.096 60.544)"/>
        <path style="fill:#000;fill-opacity:1;fill-rule:nonzero;stroke:none" d="m0 0 .006.014A.83.83 0 0 0 0 0Z" transform="translate(91.897 60.53)"/>
        <path style="fill:#000;fill-opacity:1;fill-rule:nonzero;stroke:none" d="m0 0 .002.015v.007A.409.409 0 0 1 0 0Z" transform="translate(111.209 58.963)"/>
        <path style="fill:#000;fill-opacity:1;fill-rule:nonzero;stroke:none" d="m0 0 .002-.015A.825.825 0 0 1 0 0Z" transform="translate(78.79 58.977)"/>
        <path style="fill:#000;fill-opacity:1;fill-rule:nonzero;stroke:none" d="m0 0 .002.008.007.029A.383.383 0 0 1 0 0Z" transform="translate(111.002 57.832)"/>
        <path style="fill:#000;fill-opacity:1;fill-rule:nonzero;stroke:none" d="m0 0 .002-.008a.382.382 0 0 1-.008.037L0 0Z" transform="translate(78.996 57.84)"/>
        <path style="fill:#000;fill-opacity:1;fill-rule:nonzero;stroke:none" d="M0 0a.55.55 0 0 1-.015.012L0 0Z" transform="translate(101.695 55.781)"/>
        <path style="fill:#000;fill-opacity:1;fill-rule:nonzero;stroke:none" d="m0 0 .015.012A.55.55 0 0 1 0 0Z" transform="translate(88.305 55.781)"/>
        <path style="fill:#000;fill-opacity:1;fill-rule:nonzero;stroke:none" d="M0 0v.002A.611.611 0 0 0 0 0Z" transform="translate(107.33 129.858)"/>
        <path style="fill:#000;fill-opacity:1;fill-rule:nonzero;stroke:none" d="M0 0v-.002l.004.015L0 0Z" transform="translate(82.67 129.86)"/>
        <path style="fill:#000;fill-opacity:1;fill-rule:nonzero;stroke:none" d="m0 0-.001-.002.014.018L0 0Z" transform="translate(102.812 128.868)"/>
        <path style="fill:#000;fill-opacity:1;fill-rule:nonzero;stroke:none" d="m0 0-.001.002A.212.212 0 0 1 0 0Z" transform="translate(87.189 128.866)"/>
        <path style="fill:#000;fill-opacity:1;fill-rule:nonzero;stroke:none" d="m0 0 .004.024L0 0Z" transform="translate(107.426 126.671)"/>
        <path style="fill:#000;fill-opacity:1;fill-rule:nonzero;stroke:none" d="m0 0-.004.024L0 0Z" transform="translate(82.574 126.671)"/>
        <path style="fill:#000;fill-opacity:1;fill-rule:nonzero;stroke:none" d="m0 0 .002.014.001.016A.306.306 0 0 1 0 0Z" transform="translate(121.079 121.32)"/>
        <path style="fill:#000;fill-opacity:1;fill-rule:nonzero;stroke:none" d="m0 0 .002-.014c0 .01-.002.02-.004.03L0 0Z" transform="translate(68.92 121.335)"/>
        <path style="fill:#000;fill-opacity:1;fill-rule:nonzero;stroke:none" d="m0 0 .007.015A.242.242 0 0 1 0 0Z" transform="translate(104.922 119.375)"/>
        <path style="fill:#000;fill-opacity:1;fill-rule:nonzero;stroke:none" d="M0 0a.242.242 0 0 1-.007.015L0 0Z" transform="translate(85.078 119.375)"/>
        <path style="fill:#000;fill-opacity:1;fill-rule:nonzero;stroke:none" d="m0 0 .01.018A.31.31 0 0 1 0 0Z" transform="translate(119.486 116.78)"/>
        <path style="fill:#000;fill-opacity:1;fill-rule:nonzero;stroke:none" d="M0 0a.31.31 0 0 1-.01.018L0 0Z" transform="translate(70.514 116.78)"/>
        <path style="fill:#000;fill-opacity:1;fill-rule:nonzero;stroke:none" d="m0 0 .005.035L0 0Z" transform="translate(97.777 115.688)"/>
        <path style="fill:#000;fill-opacity:1;fill-rule:nonzero;stroke:none" d="m0 0-.005.035C-.005.023-.002.012 0 0Z" transform="translate(92.223 115.688)"/>
        <path style="fill:#000;fill-opacity:1;fill-rule:nonzero;stroke:none" d="m0 0 .028.03A.86.86 0 0 1 0 0Z" transform="translate(115.987 111.83)"/>
        <path style="fill:#000;fill-opacity:1;fill-rule:nonzero;stroke:none" d="M0 0a.86.86 0 0 1-.028.03L0 0Z" transform="translate(74.013 111.83)"/>
        <path style="fill:#000;fill-opacity:1;fill-rule:nonzero;stroke:none" d="M0 0Z" transform="translate(101.408 109.608)"/>
        <path style="fill:#000;fill-opacity:1;fill-rule:nonzero;stroke:none" d="M0 0Z" transform="translate(88.592 109.608)"/>
        <path style="fill:#000;fill-opacity:1;fill-rule:nonzero;stroke:none" d="M0 0c.015.007.03.016.044.025L0 0Z" transform="translate(110.983 101.397)"/>
        <path style="fill:#000;fill-opacity:1;fill-rule:nonzero;stroke:none" d="m0 0-.044.025A.563.563 0 0 1 0 0Z" transform="translate(79.017 101.397)"/>
        <path style="fill:#000;fill-opacity:1;fill-rule:nonzero;stroke:none" d="m0 0 .003-.002a.572.572 0 0 1-.026.015L0 0Z" transform="translate(60.251 100.588)"/>
        <path style="fill:#000;fill-opacity:1;fill-rule:nonzero;stroke:none" d="m0 0 .027.016A.555.555 0 0 1 0 0Z" transform="translate(129.738 100.582)"/>
        <path style="fill:#000;fill-opacity:1;fill-rule:nonzero;stroke:none" d="m0 0 .052.005A.304.304 0 0 1 0 0Z" transform="translate(121.085 98.596)"/>
        <path style="fill:#000;fill-opacity:1;fill-rule:nonzero;stroke:none" d="M0 0a.304.304 0 0 1-.052.005L0 0Z" transform="translate(68.915 98.596)"/>
        <path style="fill:#000;fill-opacity:1;fill-rule:nonzero;stroke:none" d="M0 0c.017 0 .036.004.052.004A.475.475 0 0 1 0 0Z" transform="translate(110.846 96.754)"/>
        <path style="fill:#000;fill-opacity:1;fill-rule:nonzero;stroke:none" d="M0 0a.475.475 0 0 1-.052.004C-.036.004-.017 0 0 0Z" transform="translate(79.154 96.754)"/>
        <path style="fill:#000;fill-opacity:1;fill-rule:nonzero;stroke:none" d="M0 0c-.016 0-.035.003-.052.004A.473.473 0 0 1 0 0Z" transform="translate(110.898 93.242)"/>
        <path style="fill:#000;fill-opacity:1;fill-rule:nonzero;stroke:none" d="M0 0c.017 0 .035.002.052.004C.035.003.016 0 0 0Z" transform="translate(79.102 93.242)"/>
        <path style="fill:#000;fill-opacity:1;fill-rule:nonzero;stroke:none" d="m0 0-.052.005A.295.295 0 0 1 0 0Z" transform="translate(121.137 91.398)"/>
        <path style="fill:#000;fill-opacity:1;fill-rule:nonzero;stroke:none" d="M0 0c.018 0 .035.002.052.005L0 0Z" transform="translate(68.863 91.398)"/>
        <path style="fill:#000;fill-opacity:1;fill-rule:nonzero;stroke:none" d="m0 0-.027.016A.666.666 0 0 1 0 0Z" transform="translate(129.766 89.402)"/>
        <path style="fill:#000;fill-opacity:1;fill-rule:nonzero;stroke:none" d="m0 0-.023-.013c.009.004.017.01.026.015L0 0Z" transform="translate(60.251 89.412)"/>
        <path style="fill:#000;fill-opacity:1;fill-rule:nonzero;stroke:none" d="M0 0a.6.6 0 0 1-.044.025L0 0Z" transform="translate(111.027 88.578)"/>
        <path style="fill:#000;fill-opacity:1;fill-rule:nonzero;stroke:none" d="m0 0 .044.025A.6.6 0 0 1 0 0Z" transform="translate(78.973 88.578)"/>
        <path style="fill:#000;fill-opacity:1;fill-rule:nonzero;stroke:none" d="M0 0c-.005.013-.01.027-.018.04A3.23 3.23 0 0 0 0 0Z" transform="translate(101.426 80.352)"/>
        <path style="fill:#000;fill-opacity:1;fill-rule:nonzero;stroke:none" d="m0 0 .018.04C.01.027.005.013 0 0Z" transform="translate(88.574 80.352)"/>
        <path style="fill:#000;fill-opacity:1;fill-rule:nonzero;stroke:none" d="m0 0-.028.03A.86.86 0 0 1 0 0Z" transform="translate(116.016 78.14)"/>
        <path style="fill:#000;fill-opacity:1;fill-rule:nonzero;stroke:none" d="m0 0 .028.03L0 0Z" transform="translate(73.984 78.14)"/>
        <path style="fill:#000;fill-opacity:1;fill-rule:nonzero;stroke:none" d="m0 0-.005.035L0 0Z" transform="translate(97.783 74.278)"/>
        <path style="fill:#000;fill-opacity:1;fill-rule:nonzero;stroke:none" d="m0 0 .005.035L0 0Z" transform="translate(92.217 74.278)"/>
        <path style="fill:#000;fill-opacity:1;fill-rule:nonzero;stroke:none" d="m0 0-.01.018A.31.31 0 0 1 0 0Z" transform="translate(119.496 73.203)"/>
        <path style="fill:#000;fill-opacity:1;fill-rule:nonzero;stroke:none" d="M0 0a.31.31 0 0 1 .01.018L0 0Z" transform="translate(70.504 73.203)"/>
        <path style="fill:#000;fill-opacity:1;fill-rule:nonzero;stroke:none" d="m0 0-.007.015A.272.272 0 0 1 0 0Z" transform="translate(104.928 70.61)"/>
        <path style="fill:#000;fill-opacity:1;fill-rule:nonzero;stroke:none" d="m0 0 .007.015L0 0Z" transform="translate(85.072 70.61)"/>
        <path style="fill:#000;fill-opacity:1;fill-rule:nonzero;stroke:none" d="m0 0-.005.023A1.568 1.568 0 0 1 0 0Z" transform="translate(120.845 69.938)"/>
        <path style="fill:#000;fill-opacity:1;fill-rule:nonzero;stroke:none" d="m0 0-.002.016-.001.014L0 0Z" transform="translate(121.082 68.649)"/>
        <path style="fill:#000;fill-opacity:1;fill-rule:nonzero;stroke:none" d="m0 0-.002-.016.004.03L0 0Z" transform="translate(68.92 68.665)"/>
        <path style="fill:#000;fill-opacity:1;fill-rule:nonzero;stroke:none" d="m0 0-.004.024L0 0Z" transform="translate(107.43 63.305)"/>
        <path style="fill:#000;fill-opacity:1;fill-rule:nonzero;stroke:none" d="m0 0 .004.024L0 0Z" transform="translate(82.57 63.305)"/>
        <path style="fill:#000;fill-opacity:1;fill-rule:nonzero;stroke:none" d="m0 0 .013-.015A.212.212 0 0 1 0 0Z" transform="translate(102.812 61.132)"/>
        <path style="fill:#000;fill-opacity:1;fill-rule:nonzero;stroke:none" d="m0 0 .013.015.001.002A.182.182 0 0 1 0 0Z" transform="translate(87.174 61.117)"/>
        <path style="fill:#000;fill-opacity:1;fill-rule:nonzero;stroke:none" d="M0 0a.611.611 0 0 0 .004.013v.002A.17.17 0 0 1 0 0Z" transform="translate(107.325 60.127)"/>
        <path style="fill:#000;fill-opacity:1;fill-rule:nonzero;stroke:none" d="m0 0 .004-.013A.286.286 0 0 1 0 0Z" transform="translate(82.67 60.14)"/>
        <path style="fill:#000;fill-opacity:1;fill-rule:nonzero;stroke:none" d="M0 0c.547-.297 1.098-.59 1.645-.887-.02 0-.036.004-.055.004a4.844 4.844 0 0 1-1.403-.129.426.426 0 0 1-.136.14c-.02.013-.04.024-.059.032-.195.113-.39.23-.586.344-.402.227-.804.441-1.215.648-.941.473-1.91.883-2.89 1.262a43.78 43.78 0 0 1-5.977 1.828c-.96.223-1.933.363-2.914.445-.547.047-1.094.06-1.644.06-.454 0-.903-.009-1.356-.02-1.023-.024-2.043-.086-3.047-.32-.937-.223-1.883-.524-2.719-1.009a2.556 2.556 0 0 1-.527-.39 2.24 2.24 0 0 1-.355-.41 3.94 3.94 0 0 1-.172-.309c-.059-.125-.086-.266-.117-.402a1.5 1.5 0 0 1-.02-.375c0-.098.012-.196.031-.29.059-.253.141-.488.254-.718.118-.227.27-.438.426-.64.29-.383.664-.704 1.043-.997.399-.304.824-.57 1.266-.804.883-.465 1.828-.793 2.785-1.055a24.88 24.88 0 0 1 3.062-.617c.973-.145 1.95-.25 2.922-.356.965-.105 1.926-.2 2.89-.285 1.75-.156 3.509-.266 5.263-.387a61.69 61.69 0 0 0 2.289-.191c.015 0 .035-.004.05-.004.012 0 .024-.004.035-.004a.592.592 0 0 1 .274.04c.207-.188.43-.356.656-.509.238-.16.488-.297.742-.422-.398-.011-.797-.02-1.195-.03-1.46-.04-2.918-.079-4.348-.11h-.035c-3.355-.078-6.722-.121-10.058.23-.649.07-1.297.16-1.942.274-.644.113-1.281.25-1.918.402a24.91 24.91 0 0 0-2.898.902c-.574.23-1.137.48-1.684.766-.367.207-.722.426-1.066.668-.316.242-.621.504-.867.727-.285.28-.555.57-.797.867-.004.004-.004.004-.008.012l-.004.003a17.74 17.74 0 0 0-.352.512c-.003.008-.007.012-.007.02-.004.007-.012.015-.016.023-.105.195-.2.387-.27.54a8.32 8.32 0 0 0-.21.597c-.059.23-.106.46-.133.637-.02.164-.031.324-.043.421-.004.239.004.473.027.715.027.215.063.43.11.645l.12.387c.055.128.11.25.137.316.137.242.282.473.446.7.113.14.23.276.351.41.309.312.64.6.965.855a12.58 12.58 0 0 0 1.04.71c.01.009.026.016.038.024.227.133.461.262.695.383.262.14.54.254.754.348.465.191.942.363 1.422.507.403.11.801.204 1.211.27.356.039.707.062 1 .07.774.004 1.543-.043 2.297-.117a27.93 27.93 0 0 0 3.203-.574 34.769 34.769 0 0 0 4.184-1.29 62.988 62.988 0 0 0 3.691-1.6l.555-.259c.008-.003.016-.011.023-.015.805-.555 1.606-1.11 2.434-1.63A57.05 57.05 0 0 1 0 0Zm1.59-14.29c.02 0 .035.005.055.005-.547-.297-1.098-.59-1.645-.887a56.965 56.965 0 0 1-2.707-1.59c-.828-.52-1.629-1.074-2.434-1.629-.007-.004-.015-.011-.023-.015-.184-.086-.367-.172-.555-.258a62.461 62.461 0 0 0-3.633-1.578 34.885 34.885 0 0 0-4.246-1.313 28.122 28.122 0 0 0-3.187-.574 22.444 22.444 0 0 0-2.246-.117c-.356.008-.707.031-1.063.07-.41.067-.808.16-1.203.266-.488.148-.965.32-1.371.488-.273.117-.55.23-.813.371-.238.125-.476.254-.695.383l-.039.023c-.355.22-.703.454-1.016.692-.347.273-.68.562-.988.875-.12.133-.238.27-.351.41a6.525 6.525 0 0 0-.41.64 6.411 6.411 0 0 0-.172.376c-.043.132-.082.261-.121.386-.047.215-.082.43-.11.645a5.75 5.75 0 0 0-.027.652l.031.422c.04.238.086.469.145.7.062.202.132.398.195.55.086.2.18.39.277.574.004.004.004.008.008.012.004.008.012.016.016.023.113.18.234.356.34.508a.121.121 0 0 1 .02.024v.004l.003.004c.254.308.52.593.758.828.293.27.598.53.914.773.344.242.7.461 1.066.668.547.285 1.11.535 1.621.742.97.371 1.954.676 2.961.926a32.18 32.18 0 0 0 1.918.402c.645.114 1.293.203 1.934.274 3.344.351 6.71.308 10.039.234 1.469-.035 2.937-.074 4.41-.113.399-.012.797-.02 1.195-.031A6.349 6.349 0 0 1-.3-8.867a5.777 5.777 0 0 1-.656-.508.486.486 0 0 1-.211.043c-.02 0-.043 0-.063-.004-.011 0-.023-.004-.023-.004h-.012c-.015 0-.035-.004-.05-.004a63.645 63.645 0 0 0-2.29-.191c-1.753-.121-3.511-.23-5.261-.387-.965-.086-1.926-.18-2.89-.285-.973-.105-1.95-.211-2.923-.355a24.844 24.844 0 0 1-3.062-.618c-.957-.261-1.902-.59-2.785-1.054a9.107 9.107 0 0 1-1.266-.805c-.379-.293-.754-.613-1.043-.996a4.336 4.336 0 0 1-.426-.64 3.271 3.271 0 0 1-.254-.72 1.42 1.42 0 0 1-.03-.289 1.5 1.5 0 0 1 .019-.375c.03-.136.058-.277.117-.402.055-.11.11-.207.172-.309.097-.156.226-.285.355-.41.156-.152.34-.285.527-.39.837-.485 1.782-.785 2.72-1.008 1.003-.234 2.023-.297 3.046-.32 1-.024 2.004-.043 3 .039.98.082 1.953.222 2.914.445a43.78 43.78 0 0 1 5.977 1.828c.98.379 1.949.79 2.89 1.262.41.207.813.422 1.215.648l.586.344c.02.008.04.02.059.031.058.04.105.086.137.14.457-.108.933-.155 1.402-.128zm2 13.106c.058-.054.12-.109.183-.164-.078.028-.152.051-.23.078.004.02.004.036.004.055.016.008.031.02.043.031zm-.047-12.718c.078.027.152.05.23.078-.062-.055-.125-.11-.183-.164a.174.174 0 0 1-.043.031c0 .02 0 .035-.004.055zM6.195 5.28l.574-1.054a5.37 5.37 0 0 1-.738.433c-.246.121-.504.23-.765.317a.537.537 0 0 1-.106.253l-.016.02c-.46.637-.902 1.29-1.343 1.941-.98 1.457-1.957 2.922-2.969 4.364-.555.793-1.117 1.578-1.688 2.36a73.879 73.879 0 0 1-1.769 2.35 25.594 25.594 0 0 1-2.066 2.348c-.707.696-1.461 1.352-2.305 1.883a8.798 8.798 0 0 1-1.332.692c-.445.183-.906.347-1.387.41-.2.023-.406.047-.61.047-.054 0-.105 0-.156-.004a3.221 3.221 0 0 1-.746-.137 1.37 1.37 0 0 1-.27-.117 1.681 1.681 0 0 1-.316-.203c-.101-.098-.207-.192-.285-.309a2.93 2.93 0 0 1-.183-.3c-.086-.16-.133-.34-.18-.512a2.831 2.831 0 0 1-.074-.653c0-.969.215-1.937.492-2.86.293-.984.75-1.898 1.242-2.796.477-.879.965-1.758 1.535-2.578a20.458 20.458 0 0 1 1.84-2.301 43.668 43.668 0 0 1 4.57-4.262c.82-.66 1.66-1.297 2.54-1.875.386-.25.773-.492 1.172-.726.195-.117.402-.227.601-.34a.491.491 0 0 1 .23-.082A5.137 5.137 0 0 1 2.305.277c-.528.32-1.055.649-1.582.97a53.854 53.854 0 0 1-2.73 1.55c-.864.46-1.747.879-2.63 1.293 0 0-.004 0-.004.004-.175.12-.347.242-.52.363a61.728 61.728 0 0 0-3.183 2.356 34.68 34.68 0 0 0-3.277 3.035 28.762 28.762 0 0 0-2.11 2.507 21.699 21.699 0 0 0-1.19 1.836c-.009.016-.016.032-.024.043-.16.305-.317.61-.453.926-.137.371-.25.746-.352 1.11-.004.003-.004.011-.004.015a16.002 16.002 0 0 0-.277 1.52c-.035.277-.067.558-.082.84-.012.285-.016.57-.012.793.012.421.04.835.09 1.25.062.445.144.886.266 1.324.058.176.12.351.187.527.113.242.234.48.34.648.078.122.16.231.246.344.086.098.172.192.258.282.168.156.344.3.496.418.203.14.406.269.566.359.145.07.29.137.434.2.199.077.402.144.61.202.202.047.41.086.613.117.218.02.43.035.644.04.215-.004.422-.024.633-.043a9.527 9.527 0 0 0 1.125-.247c.37-.113.726-.238 1.074-.378.004 0 .008-.004.012-.008l.035-.012c.371-.176.73-.367 1.086-.578.516-.32 1.008-.68 1.492-1.055a27.056 27.056 0 0 0 2.274-2.09l.023-.023a31.027 31.027 0 0 0 2.488-2.98c1.985-2.731 3.637-5.68 5.223-8.579.703-1.289 1.402-2.582 2.105-3.875zm.574-24.68c-.19-.351-.382-.703-.574-1.054-.703-1.293-1.402-2.586-2.078-3.82-1.613-2.954-3.265-5.903-5.242-8.625a32.393 32.393 0 0 0-1.21-1.547 37.963 37.963 0 0 0-1.263-1.414c-.008-.008-.015-.016-.023-.028A27.318 27.318 0 0 0-5.918-38a17.737 17.737 0 0 0-1.492-1.055 12.938 12.938 0 0 0-1.086-.578c-.008 0-.012-.004-.016-.004-.007-.004-.011-.007-.02-.007-.359-.149-.714-.274-1.023-.372-.39-.109-.785-.199-1.187-.261-.211-.02-.418-.04-.633-.043-.215.004-.426.02-.644.039-.204.031-.41.07-.614.117-.207.059-.41.125-.61.203a8.557 8.557 0 0 0-.374.172 6.344 6.344 0 0 0-.598.367 6.91 6.91 0 0 0-.523.438c-.086.09-.172.183-.258.28a9.43 9.43 0 0 0-.211.286c-.14.227-.262.465-.375.707-.066.176-.129.352-.188.527-.12.438-.203.88-.265 1.325-.05.414-.078.828-.09 1.187-.004.285 0 .57.012.856.015.28.047.562.082.84.066.5.156.992.265 1.472 0 .004.004.008.004.012a14.418 14.418 0 0 0 .363 1.16c.137.316.293.621.446.914 0 .004.004.008.008.012l.023.043c.363.632.766 1.242 1.191 1.836a28.22 28.22 0 0 0 2.083 2.476 35.075 35.075 0 0 0 3.25 3.028A64.693 64.693 0 0 0-5.16-19.63a59.957 59.957 0 0 0 .523.367c.883.414 1.766.832 2.63 1.293a53.93 53.93 0 0 1 2.73 1.551c.527.32 1.054.648 1.582.969l-.024-.035a5.137 5.137 0 0 1-.594-1.278.49.49 0 0 1-.23-.082c-.2-.113-.406-.222-.602-.34a32.544 32.544 0 0 1-1.171-.726 32.946 32.946 0 0 1-2.54-1.875 43.658 43.658 0 0 1-4.57-4.262 20.458 20.458 0 0 1-1.84-2.3c-.57-.821-1.058-1.7-1.535-2.579-.492-.898-.949-1.812-1.242-2.797-.277-.922-.492-1.89-.492-2.859 0-.215.023-.441.074-.652.047-.172.094-.352.18-.512.058-.11.113-.2.183-.3.079-.118.184-.212.286-.31.093-.081.206-.144.316-.203.086-.047.176-.09.27-.117.246-.074.488-.12.746-.136.257-.016.515.011.765.043.48.062.942.226 1.387.41.46.187.906.425 1.332.691.844.531 1.598 1.188 2.305 1.883a25.594 25.594 0 0 1 2.066 2.348 73.77 73.77 0 0 1 1.77 2.351c.57.781 1.132 1.567 1.687 2.36 1.012 1.44 1.988 2.906 2.969 4.363.441.652.883 1.304 1.308 1.886.016.024.035.047.051.075a.536.536 0 0 1 .106.254c.261.086.52.195.765.316.258.125.504.27.739.434zm3.868 13.387a1.163 1.163 0 0 1-.246-.445 2.716 2.716 0 0 1-.086-.453c-.754.039-1.512.023-2.266-.016-.66-.035-1.316-.09-1.976-.156h-.004c-1.004.11-1.996.262-2.977.492-.555.137-1.098.305-1.629.508-.277.113-.55.238-.758.344-.218.125-.43.258-.636.402-.16.117-.305.242-.45.375-.12.125-.238.25-.347.383a5.16 5.16 0 0 0-.168.238 2.403 2.403 0 0 0-.23.516c-.012.043-.02.086-.032.129-.008.07-.016.14-.02.21 0 .04.004.083.004.122.008.062.02.12.028.183a1.385 1.385 0 0 0 .129.348c.035.05.066.105.101.152.035.043.067.082.102.121a1.5 1.5 0 0 0 .12.102c.06.039.122.078.188.117.075.04.153.078.172.09.188.078.38.152.57.215.176.05.352.09.532.12.187.02.379.032.57.04.219-.004.434-.016.586-.035.227-.035.453-.074.68-.125.48-.13.953-.285 1.418-.457a28.379 28.379 0 0 0 2.086-.926c.664-.324 1.328-.648 1.98-1a27.925 27.925 0 0 0 2.559-1.594zm-.246-2.703c.046-.168.132-.312.246-.445a27.18 27.18 0 0 0-2.563-1.594 55.016 55.016 0 0 0-1.976-1 28.463 28.463 0 0 0-2.086-.926 16.183 16.183 0 0 0-1.418-.457c-.227-.05-.453-.09-.614-.12a7.319 7.319 0 0 0-.652-.04c-.191.008-.383.02-.57.04-.18.03-.356.07-.531.12a6.794 6.794 0 0 0-.512.192 4.139 4.139 0 0 0-.23.113 3.862 3.862 0 0 0-.188.117c-.043.031-.082.067-.121.102-.035.039-.067.078-.102.12-.035.048-.066.102-.101.153a1.385 1.385 0 0 0-.129.348c-.008.062-.02.12-.028.183 0 .04-.004.082-.004.121.004.07.012.141.02.211.012.043.02.086.031.13.028.081.055.16.086.234.043.097.09.191.145.281.054.082.11.16.168.238.11.133.226.258.347.383.145.133.29.258.45.375.207.145.418.277.578.367.265.14.539.266.816.38.531.202 1.074.37 1.629.507.98.23 1.973.383 2.961.492h.02c.66-.066 1.316-.12 1.976-.156.754-.04 1.512-.055 2.266-.016a2.707 2.707 0 0 1 .086-.453zm1.468 4.496a3.01 3.01 0 0 1-.352-.3 1.217 1.217 0 0 1-.265-.434A29.16 29.16 0 0 0 8.637-3.57c-.649.398-1.278.82-1.907 1.246-.636.433-1.261.875-1.808 1.316-.39.324-.766.653-1.125 1.012a7.63 7.63 0 0 0-.461.539 7.553 7.553 0 0 0-.332.508 6.255 6.255 0 0 0-.262.539c-.05.144-.094.289-.133.437-.043.196-.074.391-.101.59a5.663 5.663 0 0 0-.02.266c0 .07.004.14 0 .148.008.067.02.133.035.2.02.062.04.12.063.183.027.047.05.098.082.148.027.047.059.086.09.13.039.046.086.093.129.14l.125.102c.047.03.094.058.14.09l.149.07c.062.02.129.039.191.058.067.016.137.028.203.035.098.012.196.016.293.02.114-.004.223-.016.332-.027.18-.035.356-.074.532-.121.171-.055.34-.114.472-.168.012-.004.024-.008.032-.016l.023-.012h.004c.215-.097.414-.207.617-.324.246-.16.484-.328.664-.465.477-.386.922-.797 1.3-1.191A24.465 24.465 0 0 0 9.876-.445l.012-.016c.27-.601.554-1.2.855-1.789.34-.672.703-1.34 1.117-1.969zm-.117-6.644c.04-.031.078-.063.117-.09a19.914 19.914 0 0 1-1.117-1.969c-.3-.59-.586-1.187-.855-1.789l-.004-.008a25.14 25.14 0 0 0-1.871-2.289 14.435 14.435 0 0 0-1.297-1.195c-.23-.18-.469-.348-.715-.508a7.213 7.213 0 0 0-.621-.324l-.023-.012a5.547 5.547 0 0 0-.504-.183 8.131 8.131 0 0 0-.532-.122c-.11-.011-.218-.023-.332-.027a3.695 3.695 0 0 0-.293.02c-.066.007-.136.02-.203.035-.062.02-.129.039-.191.058l-.149.07c-.047.032-.093.06-.14.09l-.125.102c-.043.047-.09.094-.13.14-.03.044-.062.083-.089.13-.031.05-.055.101-.082.148a3.486 3.486 0 0 0-.063.184.65.65 0 0 0-.023.136c-.008.07-.012.141-.012.211.004.09.012.18.02.266.027.2.058.394.101.59.04.148.082.293.133.437.078.188.168.364.262.54.105.175.215.343.332.507.144.188.3.367.46.54.36.359.735.687 1.071.968.602.484 1.227.926 1.863 1.36.63.425 1.258.847 1.907 1.245.847.504 1.715.97 2.605 1.383.063-.16.14-.308.266-.433.074-.075.152-.145.234-.211zm2.332 10.5a27.768 27.768 0 0 0-.101-3.016 1.172 1.172 0 0 1-.508-.012 2.704 2.704 0 0 1-.3-.097c-.048-.016-.09-.035-.138-.051-.343.676-.734 1.32-1.144 1.95A39.27 39.27 0 0 1 10.758.046c-.41.926-.774 1.863-1.051 2.77-.168.585-.3 1.18-.387 1.718a8.81 8.81 0 0 0-.078.828c-.004.254.008.512.024.739l.003.027c0 .008.004.016.004.023.024.168.051.332.086.5.043.168.09.329.149.493.05.113.098.226.156.336.05.085.11.171.172.257.047.059.094.114.14.164.047.047.09.086.133.121l.118.083c.046.03.101.054.152.082.05.023.105.043.16.062.055.016.11.027.164.04.066.007.133.015.195.019.055 0 .106-.004.16-.008a1.63 1.63 0 0 0 .149-.028.806.806 0 0 0 .168-.054 5.31 5.31 0 0 0 .176-.09c.07-.043.14-.09.207-.137a8.94 8.94 0 0 0 .457-.37c.129-.13.25-.263.367-.403.117-.16.227-.32.297-.434.11-.195.207-.39.285-.562.09-.223.168-.45.234-.664.133-.489.235-.985.309-1.422a28.15 28.15 0 0 0 .242-2.293c.055-.758.102-1.516.125-2.207Zm-.101-11.43c.09-1 .12-2.004.101-2.945-.023-.762-.07-1.52-.125-2.278a26.87 26.87 0 0 0-.234-2.226c-.082-.504-.184-1-.313-1.473a9.553 9.553 0 0 0-.222-.648 11.906 11.906 0 0 0-.266-.54 8.237 8.237 0 0 0-.332-.488 5.963 5.963 0 0 0-.367-.402 8.94 8.94 0 0 0-.457-.371c-.067-.047-.137-.094-.149-.105-.078-.043-.156-.083-.175-.098a1.196 1.196 0 0 0-.227-.078c-.047-.012-.098-.02-.148-.028-.055-.004-.106-.007-.16-.007a3.576 3.576 0 0 0-.196.02c-.055.01-.11.023-.164.038-.055.02-.11.04-.16.063-.05.027-.106.05-.152.082l-.114.078a1.94 1.94 0 0 0-.136.125c-.047.05-.094.105-.141.164a3.26 3.26 0 0 0-.172.258c-.059.109-.105.222-.156.336a5.455 5.455 0 0 0-.149.492 9.816 9.816 0 0 0-.086.48v.02c0 .008-.004.015-.004.023-.019.254-.03.512-.027.754.012.281.04.559.067.774.097.605.23 1.199.382 1.722.293.969.657 1.907 1.067 2.832.386.535.765 1.082 1.125 1.637.41.629.8 1.273 1.144 1.95.047-.016.09-.036.137-.052.098-.039.2-.07.3-.097.165-.047.34-.04.509-.012zm.105-18.277v-.02c-.016-.207-.031-.41-.05-.613-.122-1.34-.259-2.676-.45-3.938a35.708 35.708 0 0 0-.984-4.332c-.004-.004-.004-.011-.008-.015l-.012-.047a28.833 28.833 0 0 0-1.078-2.984c0-.004-.004-.008-.008-.012 0-.004 0-.008-.004-.012 0-.004-.004-.008-.004-.012a22.71 22.71 0 0 0-1.007-1.968 10.331 10.331 0 0 0-.594-.887 12.29 12.29 0 0 0-.832-.91 16.589 16.589 0 0 0-1.106-.946c-.011-.007-.027-.02-.039-.027l-.015-.012c-.219-.164-.442-.332-.672-.476-.242-.153-.484-.301-.734-.438a12.621 12.621 0 0 0-1.063-.515c-.418-.168-.84-.317-1.274-.43a7.377 7.377 0 0 0-.558-.105 7.522 7.522 0 0 0-.785-.032c-.125.012-.25.024-.375.04-.137.027-.274.062-.41.093-.211.07-.414.145-.618.23-.199.098-.394.2-.585.317-.125.082-.247.168-.317.215a7.777 7.777 0 0 0-.535.476c-.148.16-.281.317-.414.492a6.952 6.952 0 0 0-.352.532 7.593 7.593 0 0 0-.27.57c-.136.355-.25.711-.343 1.07 0 .004 0 .008-.004.012v.008c-.004.008-.004.02-.008.027-.082.363-.144.727-.195 1.07 0 .012-.004.028-.004.04v.007c-.039.43-.05.86-.047 1.223.024.633.086 1.262.168 1.824a26.38 26.38 0 0 0 .692 3.078c.183.61.382 1.215.597 1.813.23.629.488 1.25.73 1.808 1.372 3.083 3.098 5.989 4.817 8.81.766 1.257 1.535 2.51 2.3 3.765.208.34.419.68.63 1.023a5.747 5.747 0 0 1-.004-.86c.02-.273.05-.546.11-.816a.571.571 0 0 1-.173-.222l-.007-.02c-.004-.008-.004-.012-.012-.02l-.016-.038c-.312-.7-.644-1.387-.98-2.075-.774-1.582-1.555-3.16-2.297-4.754-.406-.878-.805-1.757-1.195-2.644a72.33 72.33 0 0 1-1.157-2.707c-.383-.965-.734-1.953-.996-2.961-.25-.96-.441-1.945-.476-2.941-.02-.5-.004-1 .062-1.497.067-.476.156-.96.34-1.406.098-.234.203-.472.344-.683a3.32 3.32 0 0 1 .492-.579c.074-.066.156-.125.238-.175.106-.063.215-.133.332-.172.133-.04.27-.086.41-.098a3.59 3.59 0 0 1 .356-.004c.18.004.355.051.531.102.207.058.414.152.602.262.836.48 1.57 1.152 2.23 1.851.707.75 1.266 1.602 1.801 2.477.52.851 1.039 1.715 1.465 2.62.422.887.785 1.802 1.074 2.743a43.386 43.386 0 0 1 1.402 6.09c.164 1.039.293 2.086.356 3.137a32 32 0 0 1 .043 1.375c0 .23-.008.464-.004.695v.05a.492.492 0 0 1-.047.192c.324.344.602.727.809 1.148.007.016.015.036.023.051-.016-.625-.039-1.246-.05-1.87a55.98 55.98 0 0 1 .019-3.138c.035-.976.117-1.949.195-2.925zm0 44.988v-.02c-.078-.976-.16-1.949-.195-2.925a55.984 55.984 0 0 1-.02-3.137c.012-.625.035-1.246.051-1.871l-.023.05a4.697 4.697 0 0 1-.809 1.15v.003a.473.473 0 0 1 .047.188v.05c-.004.23.004.465.004.696-.004.46-.02.917-.043 1.375a32.534 32.534 0 0 1-.356 3.136 43.386 43.386 0 0 1-1.402 6.09 20.147 20.147 0 0 1-1.074 2.742c-.426.907-.945 1.77-1.465 2.621-.535.875-1.094 1.727-1.8 2.477-.661.7-1.395 1.371-2.231 1.852-.188.109-.395.203-.602.261-.176.051-.351.098-.531.102-.05 0-.102.004-.149.004-.07 0-.136-.004-.207-.008-.14-.012-.277-.059-.41-.098-.117-.039-.226-.11-.332-.172a1.703 1.703 0 0 1-.238-.175 3.323 3.323 0 0 1-.492-.579 4.005 4.005 0 0 1-.344-.683c-.184-.445-.273-.93-.34-1.406a8.708 8.708 0 0 1-.062-1.496c.035-.997.226-1.98.476-2.942.262-1.008.613-1.996.996-2.96.364-.915.758-1.813 1.157-2.708.39-.887.789-1.765 1.195-2.644.742-1.594 1.523-3.172 2.297-4.754.336-.696.676-1.387.98-2.075l.016-.039c.008-.015.012-.027.02-.039a.571.571 0 0 1 .171-.222 5.766 5.766 0 0 1-.11-.817c-.019-.285-.019-.574.005-.86-.211.345-.422.684-.63 1.024-.765 1.254-1.534 2.508-2.265 3.707-1.754 2.88-3.48 5.786-4.828 8.809a36.425 36.425 0 0 0-.754 1.867 34.693 34.693 0 0 0-.594 1.805 25.634 25.634 0 0 0-.683 3.02 17.57 17.57 0 0 0-.18 1.824c-.004.43.008.859.043 1.265 0 .008.004.016.004.024s0 .015.004.023c.05.367.113.73.191 1.078l.004.016c.004.008.004.02.008.027v.008c.098.371.211.727.348 1.082.082.195.172.379.27.566.109.188.226.364.35.536.134.175.266.332.415.492.172.168.348.324.488.433.117.09.238.176.363.258.192.117.387.219.586.317.204.086.407.16.618.23.136.031.273.066.41.094.125.015.25.027.375.039.261.004.523-.008.785-.031.183-.028.371-.063.558-.106a10.79 10.79 0 0 0 1.258-.422c.367-.156.723-.332 1.079-.523.25-.137.492-.285.734-.438.242-.152.476-.332.672-.476l.015-.012c.399-.309.778-.629 1.137-.969.297-.293.578-.593.84-.914.215-.285.41-.582.582-.867.375-.64.707-1.309 1.008-1.96l.012-.028c.003-.008.003-.016.007-.024.43-1 .79-2.02 1.098-3.043.418-1.425.758-2.879.98-4.28a65.412 65.412 0 0 0 .512-4.618zm.555-9.785a5.46 5.46 0 0 1-.051-.242c-.016.082-.031.16-.05.242l.05.023.05-.023Zm-.051-25.195a5.49 5.49 0 0 1 .05-.243.146.146 0 0 1-.042-.02c-.004 0-.004-.003-.008-.003s-.004.004-.008.004a.144.144 0 0 1-.043.02c.02.081.035.16.051.241zm2.566 12.476a3.529 3.529 0 0 0-.078-.535 3.916 3.916 0 0 0-.132-.414c-.047-.11-.09-.219-.141-.328a4.06 4.06 0 0 0-.184-.246 3.552 3.552 0 0 0-.312-.356l-.016-.015a.192.192 0 0 1-.031-.028c-.11-.098-.234-.191-.348-.277-.008-.008-.02-.012-.027-.02-.004 0-.004-.004-.008-.004l-.004-.004a.106.106 0 0 0-.031-.011 4.889 4.889 0 0 0-.45-.18 3.62 3.62 0 0 0-.437-.094 5.905 5.905 0 0 0-.367-.046 4.28 4.28 0 0 0-.805.14c-.152.05-.3.113-.437.172l-.012.008c-.012.004-.023.012-.035.015h-.004v.004h-.004c0 .004-.004.004-.008.008h-.004v.004s-.003 0-.007.004c-.004 0-.004.004-.008.004-.117.09-.242.183-.348.277l-.02.02a1.154 1.154 0 0 0-.097.097 2.775 2.775 0 0 0-.203.23c-.012.013-.02.028-.031.04a13.91 13.91 0 0 0-.188.25c0 .004-.004.004-.004.008l-.004.004c-.023.054-.047.105-.066.16-.024.047-.043.097-.063.144-.003.008-.003.012-.007.02-.024.066-.051.133-.07.203a1.614 1.614 0 0 0-.06.195l-.003.016c0 .008-.004.015-.004.023-.004.008-.008.016-.008.024a4.08 4.08 0 0 0-.066.488c.015.164.03.328.066.488 0 .008.004.016.008.024 0 .008.004.015.004.023l.004.016c.015.066.035.133.058.195.02.07.047.137.07.203.005.008.005.012.008.02.02.047.04.097.063.144.02.055.043.106.066.16l.004.004c0 .004.004.004.004.008l.102.137a1.957 1.957 0 0 0 .086.113l.07.082a.812.812 0 0 0 .094.11c.043.054.093.105.14.152.004.004.012.008.016.016.012.007.02.015.031.027.11.098.235.191.348.277.004.004.012.008.02.012v.004c.003 0 .003.004.003.004h.008v.004h.004l.004.004c.004 0 .008.003.008.003l.023.008c.074.035.149.067.223.098.07.027.14.05.21.074a.03.03 0 0 0 .016.008h.004c.04.012.078.02.117.031a5.737 5.737 0 0 0 .676.11h.016c.117-.012.234-.028.351-.047.067-.008.133-.02.196-.035.05-.008.101-.02.152-.036.027-.003.05-.011.078-.02.008 0 .012-.003.02-.003a.03.03 0 0 0 .015-.008c.07-.023.141-.047.211-.074.07-.031.14-.063.211-.09l.012-.008c.012-.004.02-.011.031-.011l.004-.004h.004v-.004h.004c.004-.004.004-.004.008-.004v-.004h.007v-.004l.004-.004c.004 0 .004-.004.008-.004.117-.09.242-.183.348-.277l.02-.02c.035-.03.066-.062.097-.097.086-.086.156-.172.203-.23.012-.012.02-.028.031-.04.067-.086.13-.168.192-.258l.004-.004.137-.324c.05-.136.097-.273.132-.414.043-.176.063-.355.078-.535zm2.774-12.95a8.884 8.884 0 0 0-.024-.737l-.003-.028v-.008c0-.003-.004-.011-.004-.015a7.431 7.431 0 0 0-.086-.5 5.52 5.52 0 0 0-.149-.492c-.05-.114-.097-.227-.156-.336a3.29 3.29 0 0 0-.172-.258 3.018 3.018 0 0 0-.14-.164 1.765 1.765 0 0 0-.133-.121l-.117-.082c-.047-.032-.102-.055-.153-.082-.05-.024-.105-.043-.16-.063-.055-.015-.11-.027-.164-.039a3.576 3.576 0 0 0-.195-.02c-.055 0-.106.004-.16.008-.051.008-.102.016-.149.028a.813.813 0 0 0-.168.054 5.106 5.106 0 0 0-.176.09c-.07.043-.14.09-.207.137-.16.121-.312.246-.457.371-.129.129-.25.262-.367.402a7.44 7.44 0 0 0-.297.434c-.11.195-.207.39-.285.563a8.49 8.49 0 0 0-.234.663c-.133.489-.235.985-.309 1.422a28.149 28.149 0 0 0-.242 2.293 59.647 59.647 0 0 0-.125 2.207c-.02 1.008.012 2.012.101 3.016.168-.027.344-.035.508.012.102.027.203.058.301.097.047.016.09.036.137.051a21.04 21.04 0 0 1 1.144-1.949c.36-.555.738-1.102 1.125-1.637.41-.925.774-1.863 1.051-2.77.168-.585.3-1.179.387-1.718.039-.281.066-.559.078-.828zM19.895 6.13a8.23 8.23 0 0 0 .027-.754 9.427 9.427 0 0 0-.067-.773 14.6 14.6 0 0 0-.382-1.723A23.722 23.722 0 0 0 18.465.187a30.309 30.309 0 0 1-.715-1.074c-.008-.011-.02-.027-.023-.039-.153-.219-.301-.441-.446-.664-.41-.629-.8-1.273-1.144-1.95-.047.017-.09.036-.137.052-.098.039-.2.07-.3.097a.981.981 0 0 1-.262.032c-.083 0-.165-.008-.247-.02-.09 1-.12 2.004-.101 2.945.023.762.07 1.52.125 2.278.055.77.125 1.531.234 2.226.082.504.184 1 .313 1.473.07.23.148.457.222.648.094.203.192.399.266.54.105.167.215.328.332.488.117.14.238.273.367.402.145.125.297.25.457.371.067.047.137.094.149.106.078.043.156.082.176.097.074.035.148.059.226.078.047.012.098.02.148.028.055.004.106.008.16.008.063-.004.13-.012.196-.02.055-.012.11-.023.164-.039.055-.02.11-.04.16-.063.05-.027.106-.05.152-.082l.114-.078c.047-.039.09-.078.137-.125a2.98 2.98 0 0 0 .14-.164c.063-.086.121-.172.172-.258.059-.109.105-.222.156-.336a5.51 5.51 0 0 0 .149-.492 9.81 9.81 0 0 0 .09-.515v-.008zm5.722-7.399v-.003c-.062-.02-.12-.04-.183-.059.05.047.097.094.144.144h.004c.004-.007.008-.007.016-.011.004-.008.008-.012.015-.012 0-.02 0-.039.004-.059zm.004-12.632c-.004-.02-.004-.036-.004-.055a.174.174 0 0 1-.043-.031c-.058.05-.12.105-.18.16l.227-.074zm1.055-4.153c0-.07-.004-.14 0-.148a1.755 1.755 0 0 0-.035-.2 3.312 3.312 0 0 0-.063-.183c-.027-.047-.05-.098-.082-.148-.027-.047-.058-.086-.09-.13-.039-.046-.086-.093-.129-.14l-.125-.101c-.047-.032-.093-.06-.14-.09a5.106 5.106 0 0 0-.149-.07l-.191-.06a1.844 1.844 0 0 0-.203-.034c-.098-.012-.196-.016-.293-.02a4.567 4.567 0 0 0-.332.027c-.18.036-.356.075-.531.122-.172.054-.34.113-.473.168-.012.003-.024.007-.031.015l-.024.012a7.198 7.198 0 0 0-.62.324c-.247.16-.485.328-.665.465a14.46 14.46 0 0 0-1.3 1.191 24.477 24.477 0 0 0-1.91 2.328c-.005.004-.009.012-.013.016-.27.602-.554 1.2-.855 1.79-.34.671-.703 1.339-1.117 1.968.039.027.078.059.117.09.082.066.16.136.234.21.125.126.203.274.266.434.89-.414 1.758-.879 2.605-1.383.649-.398 1.278-.82 1.907-1.246a28.156 28.156 0 0 0 1.808-1.316c.39-.324.766-.652 1.125-1.012.16-.172.317-.351.461-.539.117-.164.227-.332.332-.508a6.24 6.24 0 0 0 .262-.539c.05-.144.094-.289.133-.437.043-.195.074-.39.101-.59.008-.086.016-.176.02-.266zm0 20.938v-.02l-.012-.14a.761.761 0 0 0-.008-.098v-.008a9.28 9.28 0 0 0-.097-.574c0-.008 0-.012-.004-.016a5.56 5.56 0 0 0-.133-.433V1.59c-.004-.004-.004-.012-.008-.016 0-.004-.004-.008-.004-.012a5.675 5.675 0 0 0-.27-.546c-.097-.16-.199-.317-.308-.47-.004 0-.004-.003-.004-.003a7.234 7.234 0 0 0-.457-.535l-.004-.004-.02-.02a14.78 14.78 0 0 0-1.05-.949 28.74 28.74 0 0 0-1.863-1.36 51.372 51.372 0 0 0-1.907-1.245 25.718 25.718 0 0 0-1.57-.871c-.34-.18-.684-.352-1.035-.512-.063.16-.14.309-.266.434a3.029 3.029 0 0 1-.351.3c.414.63.777 1.297 1.117 1.969.3.59.586 1.188.855 1.79l.004.007c0 .004.004.004.008.008.121.164.242.328.367.492A23.486 23.486 0 0 0 20.672 1.3l.012.012c.168.19.34.382.515.57.41.426.84.816 1.25 1.148a9.067 9.067 0 0 0 .711.504 7.153 7.153 0 0 0 .621.328h.004l.024.012c.164.07.332.129.504.184l.265.066c.086.02.172.035.258.055h.008c.105.011.207.023.316.027h.016c.047-.004.097-.004.148-.008.047-.004.094-.004.145-.011h.008a1.69 1.69 0 0 0 .195-.036c.055-.015.113-.035.168-.05.004 0 .008-.004.012-.004s.007-.004.011-.004c.004 0 .004-.004.008-.004.047-.02.09-.043.133-.063.004 0 .004-.004.008-.004 0 0 .004 0 .004-.003.043-.028.086-.051.129-.082.003 0 .003-.004.007-.004.04-.032.079-.063.118-.098h.003l.004-.004.004-.004c.04-.043.078-.082.114-.125.003-.004.007-.004.007-.008l.004-.004c.032-.043.063-.082.09-.128a.746.746 0 0 0 .043-.075c.012-.02.02-.039.031-.058l.004-.016h.004V3.41c.004-.004.004-.008.004-.012a.222.222 0 0 0 .024-.066c.011-.031.023-.059.03-.09 0-.004.005-.008.005-.011a.646.646 0 0 0 .023-.137c.008-.07.012-.14.012-.211zm3.676-14.555v-.016c0-.035-.004-.078-.004-.113v-.012l-.004-.003c.004-.004.004-.004 0-.008-.004-.051-.016-.098-.02-.149 0-.004 0-.007-.004-.011V-12a.554.554 0 0 0-.027-.086.322.322 0 0 0-.02-.066c-.004-.008-.004-.012-.007-.02a1.584 1.584 0 0 0-.063-.144c0-.008-.004-.016-.012-.024a.03.03 0 0 1-.007-.016c-.032-.042-.059-.09-.09-.128 0-.004 0-.004-.004-.008a2.52 2.52 0 0 0-.09-.106c0-.004-.004-.004-.008-.007a1.671 1.671 0 0 0-.125-.11c-.004-.004-.008-.008-.012-.008-.054-.035-.113-.074-.175-.109-.02-.012-.04-.02-.055-.027l-.074-.04-.102-.046a6.216 6.216 0 0 0-.512-.192c-.003-.004-.007-.004-.011-.004a3.994 3.994 0 0 0-.477-.109h-.008c-.082-.012-.168-.02-.25-.027a9.685 9.685 0 0 0-.34-.02h-.031l-.289.012a2.657 2.657 0 0 0-.281.023 6.818 6.818 0 0 0-.55.102c-.036.004-.071.012-.106.02l-.024.003c-.008.004-.02.004-.027.008l-.332.094c-.121.035-.238.074-.36.113-.234.074-.468.156-.699.242-.004 0-.004 0-.008.004-.707.278-1.398.59-2.078.922-.5.242-.996.488-1.488.742l-.312.164a27.192 27.192 0 0 0-2.738 1.688c.113.133.199.277.245.445a2.686 2.686 0 0 1 .086.453c.754-.039 1.512-.023 2.266.016a33.527 33.527 0 0 1 1.121.078c.203.016.402.035.606.055l.25.023h.003a25.363 25.363 0 0 0 2.922-.476l.043-.012c.004-.004.008-.004.012-.004a13.8 13.8 0 0 0 1.629-.508c.004 0 .008-.004.012-.004.132-.054.27-.113.394-.172 0 0 .004 0 .008-.003.137-.063.27-.13.402-.2.09-.05.176-.105.266-.16.07-.043.144-.09.215-.144.031-.02.066-.04.097-.063.008-.004.012-.012.02-.016a2.7 2.7 0 0 0 .207-.164c.074-.058.145-.125.215-.191.004 0 .004 0 .008-.004.12-.125.234-.246.343-.379l.004-.004c0-.004.004-.004.004-.008a2.94 2.94 0 0 0 .16-.222c0-.004.004-.004.004-.008.004-.004.004-.008.008-.012l.082-.152c.02-.04.04-.078.055-.117.031-.07.054-.145.082-.223 0-.004.004-.008.004-.012.012-.039.02-.074.027-.113l.004-.016v-.011c.008-.059.016-.125.02-.184zm0 8.188V-3.5a2.931 2.931 0 0 0-.02-.184v-.011l-.004-.016a1.187 1.187 0 0 0-.027-.113c0-.004 0-.004-.004-.008a1.933 1.933 0 0 0-.082-.227c-.016-.039-.035-.078-.055-.117a.454.454 0 0 0-.039-.074.44.44 0 0 1-.031-.059c-.004-.004-.004-.011-.012-.015a.03.03 0 0 0-.008-.016c0-.004-.004-.004-.004-.008a2.94 2.94 0 0 0-.16-.222c0-.004-.004-.004-.004-.008l-.004-.004a6.242 6.242 0 0 0-.343-.379c-.004-.004-.004-.004-.008-.004-.07-.066-.14-.133-.215-.191a2.727 2.727 0 0 0-.207-.164c-.008-.004-.012-.012-.02-.016a7.368 7.368 0 0 0-.578-.367 10.049 10.049 0 0 0-.804-.375c-.004 0-.008-.004-.012-.004a13.781 13.781 0 0 0-1.629-.508c-.004 0-.008 0-.012-.004a5.215 5.215 0 0 0-.355-.074 17.68 17.68 0 0 0-1.254-.234 18.072 18.072 0 0 0-.64-.094 42.735 42.735 0 0 0-.7-.086h-.019l-.25.023c-.204.02-.403.04-.606.055a33.102 33.102 0 0 1-1.121.078c-.754.04-1.512.055-2.266.016a2.695 2.695 0 0 1-.086.453 1.162 1.162 0 0 1-.246.445 27.94 27.94 0 0 0 2.559 1.594 55.19 55.19 0 0 0 1.98 1 28.179 28.179 0 0 0 2.086.926c.23.086.465.168.7.242.12.04.238.078.359.113l.332.094c.008.004.02.004.027.008.008 0 .016.004.024.004.05.011.097.023.144.031.067.016.133.027.192.04.105.015.214.034.32.05.094.012.187.02.281.023.098.008.196.008.293.012h.028c.113-.004.226-.012.34-.02.081-.007.167-.015.25-.027h.007c.16-.027.32-.062.477-.11.004 0 .008-.003.011-.003l.016-.004c.086-.031.172-.059.25-.09.094-.035.18-.07.246-.098.078-.035.156-.074.23-.113.063-.035.122-.074.176-.11.004 0 .008-.003.012-.007.043-.035.086-.07.125-.11.004-.003.008-.003.008-.007.031-.035.059-.067.09-.106.004-.004.004-.004.004-.007.031-.04.058-.086.09-.13a.03.03 0 0 1 .007-.015l.012-.024c.024-.046.043-.093.063-.144.004-.008.004-.012.007-.02a.326.326 0 0 0 .02-.066.555.555 0 0 0 .027-.086v-.015c.004-.004.004-.008.004-.012.004-.051.016-.098.02-.149l.004-.004-.004-.003.004-.004v-.012c0-.035.004-.078.004-.113zm.488-38.828c.004-.43-.008-.86-.043-1.266 0-.008-.004-.016-.004-.024v-.007c0-.004 0-.008-.004-.016-.05-.367-.113-.73-.191-1.078l-.004-.016a10.251 10.251 0 0 0-.355-1.117 7.593 7.593 0 0 0-.27-.57 6.952 6.952 0 0 0-.352-.532 6.364 6.364 0 0 0-.418-.496 6.015 6.015 0 0 0-.484-.43 6.05 6.05 0 0 0-.363-.257 7.09 7.09 0 0 0-.586-.316 8.33 8.33 0 0 0-.618-.231c-.136-.031-.273-.066-.41-.094-.125-.015-.25-.027-.375-.039a7.523 7.523 0 0 0-.785.032 7.377 7.377 0 0 0-.559.105c-.433.113-.855.262-1.257.422-.368.156-.723.332-1.078.523-.25.137-.493.285-.735.438-.242.152-.476.332-.672.476l-.015.012c-.399.309-.778.629-1.137.969a11.56 11.56 0 0 0-.84.914c-.215.285-.41.582-.582.867-.375.64-.707 1.309-1.008 1.961l-.011.027c0 .004-.004.008-.004.012-.004.004-.004.008-.004.012-.43 1-.79 2.02-1.098 3.043a34.76 34.76 0 0 0-.98 4.281 65.322 65.322 0 0 0-.512 4.617v.02c.078.976.16 1.949.195 2.926a55.98 55.98 0 0 1 .02 3.136c-.012.625-.035 1.246-.051 1.871l.023-.05c.207-.422.485-.805.809-1.149a.494.494 0 0 1-.047-.191v-.051c.004-.23-.004-.465-.004-.695.004-.461.02-.918.043-1.375.063-1.051.192-2.098.356-3.137a43.4 43.4 0 0 1 1.402-6.09 20.16 20.16 0 0 1 1.074-2.742c.426-.906.946-1.77 1.465-2.621.535-.875 1.094-1.727 1.8-2.477.661-.7 1.395-1.37 2.231-1.851a2.65 2.65 0 0 1 .602-.262c.176-.05.351-.098.531-.102.125-.004.234-.004.356.004.14.012.277.059.41.098.117.039.226.11.332.172.082.05.164.11.238.176.188.175.348.363.492.578.14.21.246.449.344.683.184.446.273.93.34 1.407.066.496.082.996.062 1.496-.035.996-.226 1.98-.476 2.941-.262 1.008-.614 1.996-.996 2.96a72.329 72.329 0 0 1-1.157 2.708c-.39.887-.789 1.766-1.195 2.645-.742 1.593-1.523 3.171-2.297 4.753-.336.696-.676 1.387-.98 2.075l-.016.039c-.008.015-.012.027-.02.039a.571.571 0 0 1-.171.222c.058.27.09.543.11.817.019.285.019.574-.005.86.211-.345.422-.684.63-1.024.765-1.254 1.534-2.508 2.265-3.707 1.754-2.88 3.48-5.785 4.828-8.809.265-.617.523-1.238.754-1.867.215-.598.414-1.203.594-1.805.292-1.015.527-2.043.683-3.02.094-.628.156-1.257.18-1.823zm-.047 70.742c.039-.43.05-.86.047-1.223a17.264 17.264 0 0 0-.168-1.824 26.401 26.401 0 0 0-.692-3.078 36.335 36.335 0 0 0-.597-1.813c-.23-.629-.488-1.25-.73-1.808-1.372-3.082-3.098-5.989-4.817-8.809-.766-1.258-1.535-2.512-2.3-3.766-.208-.34-.419-.68-.63-1.023.024.285.024.574.004.86a5.78 5.78 0 0 1-.11.816.571.571 0 0 1 .173.222l.008.02c.003.008.003.012.011.02l.016.038c.312.7.644 1.387.98 2.075.774 1.582 1.555 3.16 2.297 4.754.406.878.805 1.757 1.196 2.644.398.895.792 1.793 1.156 2.707.383.965.734 1.953.996 2.961.25.961.441 1.945.476 2.941.02.5.004 1-.062 1.497-.066.476-.156.96-.34 1.406a3.998 3.998 0 0 1-.344.684 3.323 3.323 0 0 1-.492.578 1.704 1.704 0 0 1-.238.175c-.106.063-.215.133-.332.172-.133.04-.27.086-.41.098-.07.004-.137.008-.207.008-.047 0-.098-.004-.149-.004a2.097 2.097 0 0 1-.531-.102 2.65 2.65 0 0 1-.602-.262c-.836-.48-1.57-1.152-2.23-1.851-.707-.75-1.266-1.602-1.8-2.477-.52-.851-1.04-1.714-1.466-2.62a20.16 20.16 0 0 1-1.074-2.743 43.4 43.4 0 0 1-1.402-6.09 32.503 32.503 0 0 1-.356-3.136 32.174 32.174 0 0 1-.043-1.375c0-.23.008-.465.004-.696v-.05a.474.474 0 0 1 .047-.188v-.004a4.7 4.7 0 0 1-.809-1.148l-.023-.051c.016.625.04 1.246.05 1.87a55.984 55.984 0 0 1-.019 3.138c-.035.976-.117 1.949-.195 2.925v.02c.016.207.031.41.05.613.122 1.34.259 2.676.45 3.938a35.73 35.73 0 0 0 1 4.379c0 .004.004.011.004.015.308 1.02.664 2.016 1.078 2.985 0 .004.004.008.008.011 0 .004 0 .008.004.012 0 .004.004.008.004.012.312.68.644 1.348 1.007 1.969.184.304.38.601.594.886.262.32.543.621.832.91.367.344.746.665 1.106.946.011.008.027.02.039.027l.015.012c.22.164.442.332.672.476.242.153.485.301.735.438.355.191.71.367 1.062.516.418.168.84.316 1.274.43.187.042.375.077.558.105.262.023.524.035.785.03.125-.01.25-.022.375-.038.137-.027.274-.063.41-.094.211-.07.415-.144.618-.23.199-.098.394-.2.586-.317.125-.082.246-.168.316-.215.188-.152.36-.304.531-.472.004 0 .004-.004.004-.004.149-.16.281-.317.414-.492.125-.172.242-.348.352-.535.097-.188.187-.372.27-.567.136-.355.25-.71.343-1.07 0-.004 0-.008.004-.012 0-.012.004-.023.008-.035.082-.363.144-.727.195-1.07 0-.012.004-.028.004-.04v-.007zm14.484-62.246c.012-.286.016-.57.012-.793-.012-.422-.039-.836-.09-1.25a10.318 10.318 0 0 0-.265-1.325 14.142 14.142 0 0 0-.188-.527 6.484 6.484 0 0 0-.34-.648 5.516 5.516 0 0 0-.246-.344 9.21 9.21 0 0 0-.258-.281 7.055 7.055 0 0 0-.496-.418 7.488 7.488 0 0 0-.566-.36c-.145-.07-.29-.136-.434-.199a6.545 6.545 0 0 0-.61-.203 8.539 8.539 0 0 0-.612-.117 9.068 9.068 0 0 0-.645-.04c-.215.005-.422.024-.633.044a9.528 9.528 0 0 0-1.125.246 12.87 12.87 0 0 0-1.074.379c-.004 0-.008.004-.012.008-.008 0-.011.003-.02.007-.003 0-.007.004-.015.004-.37.176-.73.367-1.086.578-.515.32-1.008.68-1.492 1.055a27.056 27.056 0 0 0-2.273 2.09l-.024.023a30.968 30.968 0 0 0-2.488 2.98c-1.985 2.731-3.637 5.68-5.223 8.579-.703 1.289-1.402 2.582-2.105 3.875l-.575 1.055c.235-.164.481-.309.739-.434a5.95 5.95 0 0 1 .765-.316.537.537 0 0 1 .106-.254l.015-.02c.461-.637.903-1.289 1.344-1.941.98-1.457 1.957-2.922 2.969-4.364.555-.793 1.117-1.578 1.687-2.359a73.923 73.923 0 0 1 1.77-2.352 25.594 25.594 0 0 1 2.066-2.347c.707-.696 1.461-1.352 2.305-1.883a8.793 8.793 0 0 1 1.332-.691c.445-.184.906-.348 1.387-.41.25-.032.508-.06.765-.044.258.016.5.063.747.137.093.028.183.07.27.117.108.059.222.121.316.203.101.098.207.192.285.31.07.1.125.19.183.3.086.16.133.34.18.512.05.21.074.437.074.652 0 .969-.215 1.937-.492 2.86-.293.984-.75 1.898-1.242 2.796-.477.88-.965 1.758-1.535 2.578a20.459 20.459 0 0 1-1.84 2.301 43.648 43.648 0 0 1-4.57 4.262c-.82.66-1.66 1.297-2.54 1.875-.386.25-.773.492-1.171.726-.196.118-.403.227-.602.34a.49.49 0 0 1-.23.082c-.141.45-.336.883-.594 1.278l-.024.035c.528-.32 1.055-.649 1.582-.969a53.887 53.887 0 0 1 2.73-1.55c.864-.462 1.747-.88 2.63-1.294 0 0 .004 0 .004-.004.175-.12.347-.242.52-.363a61.673 61.673 0 0 0 3.183-2.355 34.691 34.691 0 0 0 3.277-3.036 28.758 28.758 0 0 0 2.11-2.507c.425-.594.828-1.204 1.19-1.836 0-.004.005-.004.005-.004a13.517 13.517 0 0 0 .473-.965c.136-.371.25-.746.351-1.11.004-.003.004-.011.004-.015l.004-.016c0-.008.004-.015.004-.02.113-.491.203-.984.27-1.484.034-.277.066-.558.081-.84zM45.29 19.5c.004-.285 0-.57-.012-.856a11.938 11.938 0 0 0-.082-.84c-.066-.5-.156-.991-.265-1.472 0-.004-.004-.008-.004-.012s-.004-.011-.004-.02c0-.003-.004-.01-.004-.015a14.434 14.434 0 0 0-.356-1.125 14.176 14.176 0 0 0-.445-.914c0-.004-.004-.008-.008-.012a.188.188 0 0 1-.02-.039c-.003 0-.003-.004-.003-.004a21.65 21.65 0 0 0-1.192-1.835 28.204 28.204 0 0 0-2.082-2.477 35.086 35.086 0 0 0-3.25-3.027 64.697 64.697 0 0 0-3.238-2.395c-.172-.121-.343-.242-.52-.363 0-.004-.003-.004-.003-.004a56.447 56.447 0 0 1-2.63-1.293 53.81 53.81 0 0 1-2.73-1.55c-.527-.321-1.054-.65-1.582-.97l.024.035c.258.395.453.829.594 1.278a.491.491 0 0 1 .23.082c.2.113.406.223.602.34.398.234.785.476 1.172.726a32.945 32.945 0 0 1 2.539 1.875 43.658 43.658 0 0 1 4.57 4.262 20.459 20.459 0 0 1 1.84 2.3c.57.821 1.058 1.7 1.535 2.579.492.898.95 1.812 1.242 2.797.277.922.492 1.89.492 2.86 0 .214-.023.44-.074.652-.047.171-.094.351-.18.511-.058.11-.113.2-.183.301-.078.117-.184.21-.285.309a1.684 1.684 0 0 1-.317.203 1.37 1.37 0 0 1-.27.117 3.221 3.221 0 0 1-.746.137c-.05.004-.101.004-.156.004-.203 0-.41-.024-.61-.047-.48-.063-.94-.227-1.386-.41a8.793 8.793 0 0 1-1.332-.692c-.844-.531-1.597-1.187-2.304-1.883a25.594 25.594 0 0 1-2.067-2.347 74.033 74.033 0 0 1-1.77-2.352c-.57-.781-1.132-1.566-1.687-2.36-1.012-1.44-1.988-2.906-2.969-4.363-.441-.652-.883-1.304-1.308-1.886-.016-.024-.035-.047-.051-.074a.537.537 0 0 1-.106-.254 5.979 5.979 0 0 1-.765-.317 5.382 5.382 0 0 1-.738-.433c.19.351.382.703.574 1.054.703 1.293 1.402 2.586 2.078 3.82 1.613 2.954 3.266 5.903 5.242 8.626.387.523.79 1.042 1.211 1.546a38.051 38.051 0 0 0 1.285 1.442c.73.75 1.488 1.453 2.297 2.113.484.375.977.734 1.492 1.055a12.91 12.91 0 0 0 1.086.578l.035.012c.36.148.715.273 1.024.37.39.11.785.2 1.187.262.211.02.418.04.633.043.215-.004.426-.02.645-.039.203-.03.41-.07.613-.117.207-.058.41-.125.61-.203.144-.062.288-.129.374-.172.219-.117.422-.246.598-.367.18-.137.355-.281.523-.438.086-.09.172-.183.258-.28.086-.114.168-.223.211-.286a6.8 6.8 0 0 0 .375-.707c.067-.176.129-.352.188-.527.12-.438.203-.88.265-1.324.051-.415.078-.829.09-1.188zm11.285-35.406a6.293 6.293 0 0 0-.027-.715 7.413 7.413 0 0 0-.11-.645l-.12-.386c-.055-.13-.11-.25-.137-.317a7.312 7.312 0 0 0-.446-.699 8.846 8.846 0 0 0-.351-.41c-.309-.313-.64-.602-.965-.856a12.582 12.582 0 0 0-1.04-.71c-.015-.008-.022-.016-.034-.02 0-.004-.004-.004-.004-.004-.227-.133-.461-.262-.695-.383-.262-.14-.54-.254-.754-.347a15.415 15.415 0 0 0-1.422-.508c-.403-.11-.801-.203-1.211-.27a12.503 12.503 0 0 0-1-.07 22.335 22.335 0 0 0-2.297.117c-1.078.125-2.14.324-3.2.574a34.85 34.85 0 0 0-4.187 1.29 63.053 63.053 0 0 0-3.691 1.6l-.555.259c-.008.004-.015.012-.023.015-.805.555-1.606 1.11-2.434 1.63a57.015 57.015 0 0 1-2.707 1.59c-.547.296-1.098.589-1.644.886.02 0 .035-.004.054-.004.469-.027.946.02 1.403.129a.426.426 0 0 1 .136-.14c.02-.012.04-.024.059-.032.195-.113.39-.23.586-.344.402-.226.805-.441 1.215-.648.941-.473 1.91-.883 2.89-1.262a43.784 43.784 0 0 1 5.977-1.828 20.45 20.45 0 0 1 2.914-.445c.996-.082 2-.063 3-.04 1.023.024 2.043.087 3.047.32.937.224 1.883.524 2.719 1.009.187.105.37.238.527.39.129.125.258.254.355.41.063.102.118.2.172.31.059.124.086.265.117.401a1.5 1.5 0 0 1 .02.375c0 .098-.012.196-.031.29-.059.253-.14.488-.254.718-.117.227-.27.438-.426.64-.29.384-.664.704-1.043.997-.398.305-.824.57-1.266.805-.882.464-1.828.793-2.785 1.054a24.847 24.847 0 0 1-3.062.617c-.973.145-1.95.25-2.922.356-.965.105-1.926.2-2.89.285-1.75.156-3.509.266-5.262.387-.77.054-1.536.11-2.29.191-.015 0-.035 0-.05.004-.012 0-.024.004-.035.004-.02.004-.043.004-.063.004a.485.485 0 0 1-.21-.043 5.77 5.77 0 0 1-.657.508 6.34 6.34 0 0 1-.742.422c.398.011.797.02 1.195.03 1.46.04 2.918.08 4.348.11h.035c3.355.078 6.722.121 10.058-.23a29.72 29.72 0 0 0 1.942-.274c.644-.113 1.281-.25 1.918-.402a24.897 24.897 0 0 0 2.898-.902c.574-.23 1.137-.48 1.684-.766a12.5 12.5 0 0 0 1.066-.668c.317-.242.621-.504.867-.726.286-.282.555-.57.797-.868l.012-.011v-.004c.125-.176.246-.352.352-.512.007-.012.011-.023.02-.035 0-.004.003-.004.003-.008.105-.195.2-.387.27-.539.078-.2.148-.394.21-.598.059-.23.106-.46.133-.636.02-.164.032-.325.043-.422zm-.027 17.355a5.77 5.77 0 0 0 .027-.652l-.031-.422a8.223 8.223 0 0 0-.145-.7 6.684 6.684 0 0 0-.195-.55c-.086-.2-.18-.39-.277-.574-.004-.004-.004-.008-.008-.012 0-.004-.004-.004-.004-.008a14.154 14.154 0 0 0-.352-.523.124.124 0 0 1-.019-.024l-.004-.004v-.003c-.254-.309-.52-.594-.758-.829-.293-.27-.597-.53-.914-.773-.344-.242-.699-.46-1.066-.668a18.828 18.828 0 0 0-1.621-.742 25.258 25.258 0 0 0-2.961-.926 32.135 32.135 0 0 0-1.918-.402 30.252 30.252 0 0 0-1.934-.274c-3.344-.351-6.71-.308-10.039-.234-1.469.035-2.937.074-4.41.113-.399.012-.797.02-1.195.031.254.125.504.262.742.422.226.153.45.32.656.508a.592.592 0 0 1 .274-.039c.011 0 .023.004.023.004h.012a63.889 63.889 0 0 0 2.34.195c1.753.121 3.511.23 5.261.387.965.086 1.926.18 2.89.285.974.106 1.95.211 2.923.356 1.027.148 2.058.34 3.062.617.957.262 1.903.59 2.785 1.055.442.234.868.5 1.266.804.379.293.754.614 1.043.996.156.203.309.414.426.64.113.231.195.466.254.72.02.093.03.191.03.289a1.5 1.5 0 0 1-.019.375c-.03.136-.058.277-.117.402a3.94 3.94 0 0 1-.172.309 2.235 2.235 0 0 1-.355.41c-.156.152-.34.285-.527.39-.836.485-1.782.786-2.72 1.008-1.003.235-2.023.297-3.046.32-.453.012-.902.02-1.356.02-.55 0-1.097-.012-1.644-.058a20.436 20.436 0 0 1-2.914-.446 43.783 43.783 0 0 1-5.977-1.828c-.98-.379-1.949-.789-2.89-1.262-.41-.207-.813-.422-1.215-.648-.195-.113-.39-.23-.586-.344a.433.433 0 0 1-.195-.172c-.457.11-.934.156-1.403.13-.02 0-.035-.005-.055-.005.547.297 1.098.59 1.645.887a57.1 57.1 0 0 1 2.707 1.59c.828.52 1.629 1.074 2.434 1.629.008.004.015.012.023.015.184.086.367.172.555.258a62.39 62.39 0 0 0 3.633 1.578c1.382.532 2.8.961 4.242 1.313 1.058.25 2.125.449 3.191.574.766.074 1.535.121 2.246.117.356-.008.707-.031 1.063-.07.41-.066.808-.16 1.203-.266.488-.148.965-.32 1.371-.488.273-.117.55-.23.813-.371.238-.125.476-.254.695-.383.012-.008.023-.016.039-.023.355-.22.703-.454 1.016-.692.347-.273.68-.562.988-.875.12-.133.238-.27.351-.41.164-.226.309-.457.41-.64a6.51 6.51 0 0 0 .172-.375c.043-.133.082-.262.121-.387.047-.215.083-.43.11-.645zm1.027-17.68a5.453 5.453 0 0 1-.168 1.485 5.701 5.701 0 0 1-.527 1.36 7.568 7.568 0 0 1-.387.628c-.148.219-.328.422-.5.621-.332.387-.715.73-1.101 1.059a9.119 9.119 0 0 1-1.239.863c-.863.512-1.793.899-2.734 1.242-.93.34-1.883.598-2.848.825-.949.226-1.918.402-2.886.523-.11.012-.22.027-.328.04.109.01.218.026.328.038.968.121 1.937.297 2.886.524a24.7 24.7 0 0 1 2.848.824c.941.344 1.871.73 2.734 1.242a9.1 9.1 0 0 1 1.239.863c.386.328.77.672 1.101 1.059.172.2.352.402.5.62.14.208.27.415.387.63.234.426.41.89.527 1.36.121.48.184.991.168 1.484a5.437 5.437 0 0 1-.07.797c-.043.246-.086.5-.168.738a6.111 6.111 0 0 1-.281.683c-.098.204-.223.391-.348.579a6.193 6.193 0 0 1-.875 1.015c-.73.695-1.57 1.258-2.45 1.75-.429.242-.886.438-1.339.625-.48.195-.969.36-1.469.496-.492.133-.992.25-1.5.29-.472.038-.945.054-1.418.042a24.324 24.324 0 0 1-2.965-.281 29.444 29.444 0 0 1-2.91-.625 36.322 36.322 0 0 1-2.804-.86c-.313-.113-.625-.23-.938-.351a33.44 33.44 0 0 1 2.918 2.633c.7.707 1.375 1.437 2 2.21.625.774 1.2 1.583 1.723 2.427.25.402.472.824.676 1.25.218.457.367.953.496 1.445.132.5.234 1.004.304 1.52.067.484.125.976.13 1.468.015 1.008-.052 2.016-.29 3a6.005 6.005 0 0 1-.441 1.266c-.102.199-.203.402-.328.586-.141.207-.29.402-.454.59-.164.187-.359.351-.554.511-.203.172-.426.32-.653.461a5.491 5.491 0 0 1-1.37.598 5.803 5.803 0 0 1-1.442.223 9.233 9.233 0 0 1-.734-.02c-.266-.02-.532-.074-.793-.125a9.52 9.52 0 0 1-1.465-.426 9.242 9.242 0 0 1-1.368-.637c-.874-.492-1.675-1.105-2.44-1.746-.763-.636-1.462-1.335-2.142-2.054a26.413 26.413 0 0 1-1.894-2.239c-.07-.09-.137-.183-.203-.273.043.106.09.207.133.313.383.898.715 1.824.992 2.757.285.95.539 1.907.71 2.883.173.985.305 1.985.29 2.988a9.262 9.262 0 0 1-.13 1.504c-.089.496-.198 1-.362 1.48-.09.25-.176.509-.29.747-.109.223-.226.437-.351.648-.25.414-.566.801-.914 1.137a5.351 5.351 0 0 1-1.203.887 5.512 5.512 0 0 1-.723.336c-.234.09-.476.176-.723.222a6.624 6.624 0 0 1-.734.102 3.406 3.406 0 0 1-.203.008c-.156 0-.313-.012-.469-.02a6.066 6.066 0 0 1-1.32-.25c-.969-.285-1.875-.73-2.742-1.246-.422-.254-.817-.55-1.207-.851-.41-.317-.797-.657-1.164-1.024-.36-.355-.715-.73-1.004-1.152-.266-.387-.52-.793-.742-1.207a22.863 22.863 0 0 1-1.239-2.707 27.891 27.891 0 0 1-.914-2.836 33.995 33.995 0 0 1-.66-2.856c-.059-.328-.113-.66-.164-.992-.05.332-.105.664-.164.992-.176.961-.402 1.914-.66 2.856-.258.957-.555 1.91-.914 2.836-.356.93-.766 1.832-1.239 2.707-.222.414-.476.82-.742 1.207-.289.422-.644.797-1.004 1.152-.367.367-.754.707-1.164 1.024-.39.3-.785.597-1.207.851-.867.516-1.773.961-2.742 1.246-.43.125-.871.223-1.32.25-.223.012-.45.028-.672.012a6.625 6.625 0 0 1-.735-.102 4.287 4.287 0 0 1-.722-.222 5.52 5.52 0 0 1-.723-.336 5.35 5.35 0 0 1-1.203-.887 5.69 5.69 0 0 1-.914-1.137 9.36 9.36 0 0 1-.352-.648c-.113-.238-.199-.496-.289-.746-.164-.48-.273-.985-.363-1.48a9.273 9.273 0 0 1-.129-1.505c-.015-1.003.117-2.003.29-2.988.171-.976.425-1.933.71-2.883.278-.933.61-1.86.992-2.757.043-.106.09-.207.133-.313-.066.09-.133.184-.203.273a26.431 26.431 0 0 1-1.894 2.239c-.68.719-1.38 1.418-2.141 2.054-.766.641-1.567 1.254-2.442 1.747a9.238 9.238 0 0 1-1.367.636 9.515 9.515 0 0 1-1.464.426c-.262.05-.528.105-.794.125a9.23 9.23 0 0 1-.734.02 5.803 5.803 0 0 1-1.441-.223 5.49 5.49 0 0 1-1.371-.598 5.444 5.444 0 0 1-.653-.46 4.613 4.613 0 0 1-.554-.512 6.053 6.053 0 0 1-.453-.59c-.125-.184-.227-.387-.329-.586a6 6 0 0 1-.441-1.266c-.238-.984-.305-1.992-.29-3 .005-.492.063-.984.13-1.469.07-.515.172-1.02.305-1.52.128-.491.277-.987.496-1.444.203-.426.425-.848.675-1.25a23.896 23.896 0 0 1 1.723-2.426c.625-.774 1.3-1.504 2-2.211a33.441 33.441 0 0 1 2.918-2.633c-.313.121-.625.238-.938.352-.917.328-1.859.605-2.804.859a29.45 29.45 0 0 1-2.91.625c-.985.152-1.97.25-2.965.281-.473.012-.945-.004-1.418-.043-.508-.039-1.008-.156-1.5-.289-.5-.136-.988-.3-1.469-.496-.453-.187-.91-.383-1.34-.625-.879-.492-1.718-1.055-2.449-1.75a6.193 6.193 0 0 1-.875-1.016c-.125-.187-.25-.374-.348-.578a6.13 6.13 0 0 1-.28-.683c-.083-.238-.126-.492-.169-.738a5.45 5.45 0 0 1-.07-.797 5.45 5.45 0 0 1 .168-1.485c.117-.468.293-.933.527-1.36.117-.214.246-.421.387-.628.148-.219.328-.422.5-.621a9.72 9.72 0 0 1 1.101-1.059 9.1 9.1 0 0 1 1.239-.863c.863-.512 1.793-.898 2.734-1.242.93-.34 1.887-.598 2.848-.824.949-.227 1.918-.403 2.887-.524.109-.012.218-.027.328-.039-.11-.012-.22-.027-.328-.039a26.788 26.788 0 0 1-2.887-.523c-.961-.227-1.918-.485-2.848-.825-.941-.343-1.871-.73-2.734-1.242a9.119 9.119 0 0 1-1.239-.863 9.721 9.721 0 0 1-1.101-1.059c-.172-.199-.352-.402-.5-.62a7.515 7.515 0 0 1-.387-.63 5.701 5.701 0 0 1-.527-1.36 5.45 5.45 0 0 1-.168-1.484 5.45 5.45 0 0 1 .07-.796c.043-.246.086-.5.168-.739a6.13 6.13 0 0 1 .281-.683c.098-.203.223-.39.348-.578.246-.371.555-.707.875-1.016.73-.695 1.57-1.258 2.45-1.75.429-.242.886-.438 1.34-.625.48-.195.968-.36 1.468-.496.492-.133.992-.25 1.5-.29.473-.038.945-.054 1.418-.042.996.031 1.98.129 2.965.281.98.156 1.953.371 2.91.625.945.254 1.887.531 2.805.86.312.113.624.23.937.351a33.413 33.413 0 0 1-2.918-2.633 29.775 29.775 0 0 1-2-2.21 23.906 23.906 0 0 1-1.723-2.426 12.87 12.87 0 0 1-.675-1.25c-.22-.457-.368-.954-.497-1.446-.132-.5-.234-1.004-.304-1.52a11.523 11.523 0 0 1-.13-1.468c-.015-1.008.052-2.016.29-3a6 6 0 0 1 .441-1.266c.102-.199.203-.402.328-.586.141-.207.29-.402.454-.59.164-.187.359-.351.554-.511.203-.172.426-.32.653-.461.421-.262.894-.461 1.37-.598a5.803 5.803 0 0 1 1.442-.222 9.23 9.23 0 0 1 .734.02c.266.019.532.073.793.124.5.094.989.254 1.465.426.473.168.93.394 1.367.637.875.492 1.676 1.105 2.442 1.746.762.636 1.46 1.336 2.14 2.054.672.711 1.31 1.461 1.895 2.239.07.09.137.183.203.273-.043-.105-.09-.207-.133-.312a25.795 25.795 0 0 1-.992-2.758 25.253 25.253 0 0 1-.71-2.883c-.173-.984-.305-1.984-.29-2.988.008-.5.04-1.008.13-1.504.089-.496.198-1 .362-1.48.09-.25.176-.509.29-.747a9.36 9.36 0 0 1 .351-.648c.25-.414.566-.801.914-1.137a5.347 5.347 0 0 1 1.203-.887 5.52 5.52 0 0 1 .723-.336c.234-.09.476-.175.722-.222.247-.047.485-.082.735-.102.223-.015.45 0 .672.012.449.027.89.125 1.32.25.969.285 1.875.73 2.742 1.246.422.254.817.55 1.207.852.41.316.797.656 1.164 1.023.36.355.715.73 1.004 1.152.266.387.52.793.742 1.207.473.875.883 1.778 1.239 2.707.36.926.656 1.88.914 2.836.258.942.484 1.895.66 2.856.059.328.113.66.164.992.05-.332.105-.664.164-.992.176-.961.402-1.914.66-2.856.258-.957.555-1.91.914-2.836.356-.93.766-1.832 1.239-2.707.222-.414.476-.82.742-1.207.289-.422.644-.797 1.004-1.152.367-.367.754-.707 1.164-1.023.39-.301.785-.598 1.207-.852.867-.516 1.773-.96 2.742-1.246.43-.125.871-.223 1.32-.25.223-.012.45-.027.672-.012.25.02.488.055.734.102.247.047.489.133.723.222.25.09.488.211.723.336.437.23.848.543 1.203.887.348.336.664.723.914 1.137.125.21.242.426.352.648.113.238.199.496.289.746.164.48.273.985.363 1.48.09.497.121 1.005.129 1.505.016 1.004-.117 2.004-.29 2.988a25.233 25.233 0 0 1-.71 2.883c-.277.933-.61 1.86-.992 2.758-.043.105-.09.207-.133.312.066-.09.133-.183.203-.273a26.413 26.413 0 0 1 1.895-2.239c.68-.718 1.378-1.418 2.14-2.054.766-.64 1.567-1.254 2.442-1.746a9.253 9.253 0 0 1 1.367-.637 9.53 9.53 0 0 1 1.465-.426c.261-.05.527-.105.793-.125.246-.015.488-.023.734-.02.484.008.977.094 1.441.223.477.137.95.336 1.371.598.227.14.45.289.653.46.195.161.39.325.554.513.165.187.313.382.454.59.125.183.226.386.328.585.199.399.336.832.441 1.266.238.984.305 1.992.29 3-.005.492-.063.984-.13 1.469-.07.515-.172 1.02-.304 1.52-.13.491-.278.988-.496 1.445-.204.425-.426.847-.676 1.25a23.907 23.907 0 0 1-1.723 2.425c-.625.774-1.3 1.504-2 2.211a33.411 33.411 0 0 1-2.918 2.633c.313-.121.625-.238.938-.351.918-.329 1.859-.606 2.804-.86.957-.254 1.93-.469 2.91-.625.985-.152 1.97-.25 2.965-.281.473-.012.946.004 1.418.043.508.039 1.008.156 1.5.289.5.137.989.3 1.469.496.453.188.91.383 1.34.625.879.492 1.719 1.055 2.449 1.75.32.309.629.645.875 1.016.125.187.25.375.348.578.11.222.199.449.28.683.083.239.126.493.169.739.047.261.062.53.07.797z" transform="translate(80.418 102.586)"/>
    </g>
</svg>
