<?xml version="1.0" encoding="utf-8"?>
<!-- Generator: Adobe Illustrator 23.0.0, SVG Export Plug-In . SVG Version: 6.00 Build 0)  -->
<svg version="1.1" id="Слой_1" xmlns="http://www.w3.org/2000/svg" xmlns:xlink="http://www.w3.org/1999/xlink" x="0px" y="0px"
	 viewBox="0 0 100 21.28" style="enable-background:new 0 0 100 21.28;" xml:space="preserve">
<g>
	<path d="M11.09,7.46c-0.31-0.48-0.71-0.91-1.19-1.23C8.93,5.58,7.58,5.48,6.72,6.39c-1.19,1.27-0.78,3.3,0.04,4.63
		c0.53,0.87,1.03,1.79,1.71,2.55c0.65,0.73,1.43,1.32,2.2,1.92c0.19,0.15,0.41,0.02,0.57-0.11c1.91-1.39,3.69-3.25,4.34-5.59
		C16.35,5.97,13.77,4.97,11.09,7.46z M10.88,15.03c-0.34-0.28-0.69-0.53-1.02-0.82c-0.49-0.43-0.92-0.83-1.31-1.36
		c-0.4-0.54-0.77-1.09-1.11-1.67c-0.84-1.42-1.6-3.46-0.05-4.7c1.04-0.78,2.36,0.13,3.1,0.94c0.22,0.19,0.27,0.93,0.68,0.6
		c1-0.77,3.22-2.58,3.9-0.47C15.88,10.64,13.11,13.36,10.88,15.03z"/>
	<path d="M30.4,7.44c-0.09-0.11-0.18-0.22-0.28-0.32c-0.84-0.87-2.22-1.61-3.42-1.06c-1.46,0.67-1.58,2.82-0.97,4.1
		c0.28,0.59,0.67,1.13,1.04,1.66c0.39,0.56,0.74,1.14,1.14,1.69c0.29,0.39,0.6,0.77,0.97,1.1c0.24,0.21,0.49,0.44,0.77,0.59
		c0.12,0.07,0.24,0.1,0.36,0.12c0.27,0.04,0.57,0.03,0.81-0.14c1.5-1.05,2.51-1.9,3.26-3.2c0.72-1.24,1.37-2.82,1.2-4.29
		C34.84,5.19,31.62,6.01,30.4,7.44z M30.4,14.84c-0.13,0.06-0.28,0.02-0.41-0.05c-0.79-0.39-1.33-1.08-1.86-1.79
		c-0.41-0.55-0.78-1.12-1.15-1.7c-0.33-0.53-0.7-1.06-0.93-1.65c-0.5-1.3,0.11-3.67,1.9-3.28c0.87,0.2,1.62,0.85,2.13,1.57
		c0.11,0.16,0.28,0.28,0.43,0.09c0.09-0.12,0.2-0.22,0.33-0.34c0.86-0.81,2.37-1.64,3.49-0.8C36.07,8.75,33.16,13.56,30.4,14.84z"/>
	<path d="M20.48,9.09c-0.04-0.05-0.08-0.11-0.13-0.16c-0.4-0.43-1.03-0.52-1.57-0.36c-0.63,0.19-1.11,0.68-1.19,1.36
		c-0.11,0.95,0.38,1.98,0.98,2.67c0.41,0.46,0.87,0.86,1.32,1.28c0.18,0.17,0.39,0.5,0.68,0.45c0.33-0.06,0.56-0.35,0.78-0.58
		c0.25-0.27,0.49-0.55,0.71-0.85c0.43-0.59,0.78-1.24,0.98-1.95C23.61,9.02,22.09,7.93,20.48,9.09z"/>
	<path d="M50,7.46c-0.31-0.48-0.71-0.91-1.19-1.23c-0.98-0.65-2.33-0.75-3.18,0.16c-1.19,1.27-0.78,3.3,0.04,4.63
		c0.53,0.87,1.03,1.79,1.71,2.55c0.65,0.73,1.43,1.32,2.2,1.92c0.19,0.15,0.41,0.02,0.57-0.11c1.91-1.39,3.69-3.25,4.34-5.59
		C55.26,5.97,52.67,4.97,50,7.46z M49.78,15.03c-0.34-0.28-0.69-0.53-1.02-0.82c-0.49-0.43-0.92-0.83-1.31-1.36
		c-0.4-0.54-0.77-1.09-1.11-1.67c-0.84-1.42-1.6-3.46-0.05-4.7c1.04-0.78,2.36,0.13,3.1,0.94c0.22,0.19,0.27,0.93,0.68,0.6
		c1-0.77,3.22-2.58,3.9-0.47C54.79,10.64,52.02,13.36,49.78,15.03z"/>
	<path d="M69.3,7.44c-0.09-0.11-0.18-0.22-0.28-0.32c-0.84-0.87-2.22-1.61-3.42-1.06c-1.04,0.48-1.38,1.7-1.31,2.76
		c0.1,1.43,1.1,2.63,1.88,3.77c0.4,0.58,0.8,1.17,1.29,1.69c0.37,0.39,0.9,0.96,1.45,1.03c0.27,0.04,0.58,0.04,0.81-0.14
		c1.91-1.52,2.21-1.76,3.26-3.2c0.85-1.16,1.37-2.82,1.2-4.29C73.75,5.19,70.52,6.01,69.3,7.44z M69.55,14.66
		c-0.29,0.17-0.65,0.16-0.94-0.02c-0.64-0.4-1.11-1.01-1.57-1.62c-0.41-0.55-0.78-1.12-1.15-1.7c-0.33-0.53-0.7-1.06-0.93-1.65
		c-0.5-1.3,0.11-3.67,1.9-3.28c0.87,0.2,1.62,0.85,2.13,1.57c0.11,0.16,0.28,0.28,0.43,0.09c0.09-0.12,0.2-0.22,0.33-0.34
		c0.86-0.81,2.37-1.64,3.49-0.8C74.92,8.68,71.78,13.33,69.55,14.66z"/>
	<path d="M59.39,9.09c-0.04-0.05-0.08-0.11-0.13-0.16c-0.4-0.43-1.03-0.52-1.57-0.36c-0.63,0.19-1.11,0.68-1.19,1.36
		c-0.11,0.95,0.38,1.98,0.98,2.67c0.41,0.46,0.87,0.86,1.32,1.28c0.18,0.17,0.39,0.5,0.68,0.45c0.33-0.06,0.56-0.35,0.78-0.58
		c0.25-0.27,0.49-0.55,0.71-0.85c0.43-0.59,0.78-1.24,0.98-1.95C62.52,9.02,60.99,7.93,59.39,9.09z"/>
	<path d="M94,7.7c-0.43-2.51-3.65-1.69-4.87-0.26c-0.09-0.11-0.18-0.22-0.28-0.32c-0.84-0.87-2.22-1.61-3.42-1.06
		c-1.46,0.67-1.58,2.82-0.97,4.1c0.39,0.82,0.95,1.68,1.44,2.44c0.5,0.77,1.06,1.4,1.73,2.04c0.3,0.28,0.69,0.58,1.11,0.67
		c0.27,0.06,0.55,0.03,0.81-0.14c1.64-1.07,2.51-1.9,3.26-3.2C93.51,10.75,94.17,9.17,94,7.7z M89.4,14.62
		c-0.32,0.2-0.74,0.17-1.05-0.04c-0.59-0.4-1.04-0.98-1.48-1.57c-0.41-0.55-0.78-1.12-1.15-1.7c-0.33-0.53-0.7-1.06-0.93-1.65
		c-0.5-1.3,0.11-3.67,1.9-3.28c0.87,0.2,1.62,0.85,2.13,1.57c0.11,0.16,0.28,0.28,0.43,0.09c0.09-0.12,0.2-0.22,0.33-0.34
		c0.86-0.81,2.37-1.64,3.49-0.8C94.76,8.7,92.11,12.96,89.4,14.62z"/>
	<path d="M79.21,9.09c-0.04-0.05-0.08-0.11-0.13-0.16c-0.4-0.43-1.03-0.52-1.57-0.36c-0.63,0.19-1.11,0.68-1.19,1.36
		c-0.11,0.95,0.38,1.98,0.98,2.67c0.41,0.46,0.87,0.86,1.32,1.28c0.18,0.17,0.39,0.5,0.68,0.45c0.33-0.06,0.56-0.35,0.78-0.58
		c0.25-0.27,0.49-0.55,0.71-0.85c0.43-0.59,0.78-1.24,0.98-1.95C82.34,9.02,80.81,7.93,79.21,9.09z"/>
	<path d="M39.58,9.09c-0.04-0.05-0.08-0.11-0.13-0.16c-0.4-0.43-1.03-0.52-1.57-0.36c-0.63,0.19-1.11,0.68-1.19,1.36
		c-0.11,0.95,0.38,1.98,0.98,2.67c0.41,0.46,0.87,0.86,1.32,1.28c0.18,0.17,0.39,0.5,0.68,0.45c0.33-0.06,0.56-0.35,0.78-0.58
		c0.25-0.27,0.49-0.55,0.71-0.85c0.43-0.59,0.78-1.24,0.98-1.95C42.71,9.02,41.19,7.93,39.58,9.09z"/>
</g>
</svg>
