<?xml version="1.0" encoding="utf-8"?>
<!-- Generator: Adobe Illustrator 23.0.0, SVG Export Plug-In . SVG Version: 6.00 Build 0)  -->
<svg version="1.1" id="Слой_1" xmlns="http://www.w3.org/2000/svg" xmlns:xlink="http://www.w3.org/1999/xlink" x="0px" y="0px"
	 viewBox="0 0 100 21.28" style="enable-background:new 0 0 100 21.28;" xml:space="preserve">
<g>
	<path d="M30.04,11.21c-0.62,0.31-1.23,0.33-1.92,0.33c-2.14,0.08-4.3-0.42-6.3-1.25c-1.56-0.72-3.23-2.04-5.04-1.47
		c-0.75,0.12-2,1.12-1.56,2.31c0.1,0.27,0.56-0.12,0.77-0.39c0.23-0.3,0.43-0.56,0.73-0.8c1.17-0.64,2.48,0.15,3.54,0.69
		c2.11,1.18,4.53,1.81,6.93,1.94c1.21,0,2.99,0.07,3.66-1.06C31.32,10.74,30.54,10.95,30.04,11.21z"/>
	<path d="M53.93,8.39c-1.06-0.08-2.14,0.38-3.1,0.76c-1.3,0.51-2.54,1.18-3.85,1.65c-0.64,0.23-1.3,0.41-1.98,0.48
		c-0.71,0.08-1.34-0.04-2.04-0.13c-0.67-0.08-1.91-0.82-2.17-0.5c-0.12,0.51,0.48,0.86,0.83,1.04c0.49,0.24,1.05,0.49,1.61,0.58
		c1.04,0.17,2.13,0.04,3.14-0.22c1.53-0.4,2.95-1.12,4.4-1.75c1.11-0.48,2.9-1.4,4.07-0.65c0.41,0.27,1.44,1.72,1.67,1.22
		c0.13-0.28,0.07-0.62-0.05-0.88C56.05,9.05,54.92,8.46,53.93,8.39z"/>
	<path d="M83.6,10.9c-1.23,0.6-2.64,0.43-3.97,0.11c-3.14-0.61-7.98-4.62-10.31-0.58c-0.49,0.85,0.3,0.95,1.06,0.07
		c1.15-1.32,2.83-0.86,4.2-0.29c2,0.78,4.02,1.82,6.19,2.06c1.44,0.16,2.78,0.1,3.84-0.99c0.21-0.18,0.57-0.54,0.5-0.93
		C84.99,9.64,84.04,10.69,83.6,10.9z"/>
	<path d="M11.36,7.31c-0.42-0.08-0.87-0.03-1.27,0.11C9.99,7.46,9,7.99,9.11,8.13c-0.92-1.14-2.99-0.78-3.1,0.8
		c-0.14,1.16,0.83,2.05,1.34,3c0.43,0.59,0.62,1.43,1.23,1.83c0.68,0.18,1.25-0.39,1.72-0.8c1.01-0.88,1.99-1.97,2.35-3.28
		c0.12-0.44,0.14-0.88,0.03-1.25C12.53,7.87,12.1,7.44,11.36,7.31z"/>
	<path d="M37.81,7.27c-0.68,0.04-1.09,0.49-1.59,0.88c-0.63-0.65-1.17-0.84-1.48-0.91c-0.62-0.15-1.29-0.03-1.71,0.48
		c-0.69,0.83-0.69,2.21-0.2,3.14c0.54,1.02,1.48,1.84,2.23,2.71c0.15,0.17,0.3,0.34,0.49,0.45c0.66,0.37,1.43-0.35,1.81-0.83
		c0.79-0.98,1.7-1.96,1.93-3.23c0.16-0.69,0.16-1.51-0.27-2.11C38.74,7.45,38.29,7.23,37.81,7.27z"/>
	<path d="M63.56,8.22c-1.23-2.22-4.51-0.34-3.65,1.93c0.37,1.19,2.08,2.66,2.94,3.34c0.29,0.23,0.69,0.21,0.96-0.04
		c0.96-0.9,3.08-3.02,3.15-4.04C66.99,7.32,64.7,6.73,63.56,8.22z"/>
	<path d="M90.41,8.15c-1.24-1.95-4.24-0.55-3.75,1.62c0.41,1.69,1.93,2.54,2.95,3.93c0.32,0.43,0.92,0.25,1.23-0.08
		c1.4-1.5,2.78-2.37,3.1-4.15C94.47,7.44,91.36,6.54,90.41,8.15z"/>
</g>
</svg>
