<?xml version="1.0" encoding="utf-8"?>
<!-- Generator: Adobe Illustrator 23.0.0, SVG Export Plug-In . SVG Version: 6.00 Build 0)  -->
<svg version="1.1" id="Слой_1" xmlns="http://www.w3.org/2000/svg" xmlns:xlink="http://www.w3.org/1999/xlink" x="0px" y="0px"
	 viewBox="5 4 90 13.28" style="enable-background:new 0 0 100 21.28;" xml:space="preserve">
<g>
	<path d="M18.32,12.11c-0.46-1.21-2.02-1.14-2.31,0.16c-0.12,1.1,0.78,2.02,1.19,2.99c0.12,0.11,0.31,0.1,0.45,0.06
		c0.76-0.34,1.58-0.71,2.14-1.36C20.72,12.91,19.45,11.68,18.32,12.11z M19.32,13.71c-0.48,0.45-1.16,0.8-1.78,1.08
		c-0.03-0.06-0.05-0.11-0.08-0.17c-0.05-0.12-0.11-0.24-0.17-0.36c-0.2-0.46-0.54-0.86-0.7-1.35c-0.07-0.22-0.1-0.46-0.01-0.67
		c0.06-0.14,0.15-0.27,0.27-0.36c0.4-0.33,0.96,0.15,1.01,0.58c0-0.03,0.01-0.06,0.01-0.09c-0.09,0.26,0.27,0.55,0.48,0.36
		c0.08-0.08,0.21-0.14,0.3-0.15C19.4,12.52,19.92,13.06,19.32,13.71z"/>
	<path d="M24.54,9.56c-1.15-1.14-3.8-0.93-3.69,1.07c0.16,2.09,2.27,3.05,3.44,4.54c0.56,0.71,1.24-0.4,1.72-0.73
		c1.24-1.26,2.63-2.94,2.21-4.84C27.9,7.6,24.76,7.4,24.54,9.56z M27.05,12.4c-0.32,0.49-0.7,0.93-1.11,1.35
		c-0.09,0.09-1.19,1.14-1.22,1.11c-0.05-0.06-0.11-0.12-0.16-0.18c-0.16-0.18-0.32-0.37-0.48-0.54c-1.09-1.07-2.8-2.08-2.69-3.83
		c0.08-0.54,0.58-0.75,1.05-0.9c0.78-0.1,1.49,0.32,2.07,0.84c0.12,0.27,0.59,0.22,0.56-0.1c-0.01-0.16-0.02-0.32,0-0.48
		c0.03-0.28,0.14-0.55,0.33-0.76c0.32-0.33,0.81-0.41,1.24-0.3C27.1,8.7,27.44,9,27.62,9.44C28.02,10.4,27.59,11.58,27.05,12.4z"/>
	<path d="M33.72,12.49c-0.07-0.05-0.15-0.1-0.23-0.14c-0.48-0.23-1.11-0.25-1.6-0.05c-0.34,0.14-0.63,0.44-0.67,0.83
		c-0.07,0.73,0.75,1.34,1.29,1.68c0.64,0.41,1.36,0.67,2.05,0.96c1.14,0.47,1.45-2.29,1.59-3.05
		C36.17,11.32,34.08,11.26,33.72,12.49z M34.83,15.31c-0.02,0.03-0.89-0.37-0.98-0.41c-0.51-0.22-1.02-0.46-1.47-0.79
		c-0.27-0.2-0.57-0.44-0.64-0.79c-0.07-0.36,0.36-0.56,0.65-0.59c0.2-0.03,0.41-0.01,0.61,0.04c0.1,0.03,0.41,0.1,0.45,0.22
		c0.01,0.03,0.06,0.11,0.1,0.15c-0.01,0.31,0.47,0.36,0.52,0.05c0.06-0.24,0.11-0.45,0.23-0.68c0.2-0.33,0.71-0.44,1.07-0.26
		c0.14,0.09,0.21,0.24,0.25,0.43C35.51,13.55,35.31,14.54,34.83,15.31z"/>
	<path d="M44.08,9.22c-0.17-1.32-1.65-2.11-2.87-1.8c-1.17,0.41-1.67,1.9-1.45,3.06c0.29,1.8,1.89,2.83,2.72,4.32
		c0.08,0.13,0.22,0.19,0.36,0.2c1.91-0.17,5.18-3.1,4.79-5.18C47.23,8.2,45.07,8.03,44.08,9.22z M43.05,14.46
		c-0.05,0.01-0.1,0.01-0.15,0c-0.82-1.53-2.59-2.56-2.66-4.47c-0.08-1.17,0.9-2.6,2.18-1.96c0.55,0.17,0.98,0.56,1.1,1.14
		c0.11,0.24-0.04,0.57,0.07,0.81c-0.01,0.09,0.03,0.19,0.12,0.24c0.42,0.21,0.51-0.47,0.79-0.67C45.05,9,45.92,8.74,46.58,9.2
		C48.61,10.73,44.61,14.08,43.05,14.46z"/>
	<path d="M51.34,11.4c-0.42-1.37-2.57-1.19-2.81,0.21c-0.11,0.63,0.19,1.21,0.56,1.7c0.19,0.26,0.4,0.49,0.61,0.74
		c0.2,0.23,0.36,0.54,0.59,0.74c0.61,0.48,1.58-0.29,2.03-0.66c0.52-0.43,1.25-1.09,1.35-1.81C53.86,11.05,52.12,10.6,51.34,11.4z
		 M53.1,12.37c-0.1,0.33-0.34,0.61-0.58,0.85c-0.3,0.3-0.64,0.56-1,0.78c-0.07,0.04-0.82,0.49-0.87,0.41
		c-0.15-0.23-0.32-0.43-0.49-0.64c-0.2-0.24-0.4-0.48-0.58-0.73c-0.25-0.35-0.51-0.77-0.53-1.21c-0.03-0.87,1.2-1.12,1.67-0.5
		c0.1,0.13,0.16,0.27,0.19,0.44c0.02,0.13,0.02,0.29,0.16,0.35c0.22,0.09,0.38-0.11,0.52-0.25c0.17-0.15,0.35-0.28,0.57-0.33
		C52.7,11.41,53.27,11.78,53.1,12.37z"/>
	<path d="M67.44,8.64c0.4-1.09-0.86-1.76-1.7-1.11c-0.4-1.09-1.96-1.08-2.3,0.04c-0.18,0.83,0.4,1.6,0.72,2.32
		c0.1,0.24,0.19,0.59,0.51,0.6C65.74,10.32,67.09,9.78,67.44,8.64z M66.91,8.57c-0.34,0.83-1.35,1.15-2.15,1.38
		c-0.03-0.06-0.05-0.13-0.07-0.19c-0.05-0.11-0.1-0.22-0.16-0.33c-0.23-0.57-0.82-1.31-0.49-1.89c0.17-0.19,0.44-0.37,0.71-0.3
		c0.26,0.12,0.55,0.37,0.55,0.7c0.02,0.54,0.44,0.38,0.68,0.08C66.47,7.62,67.21,7.8,66.91,8.57z"/>
	<path d="M69.67,10.57c-0.25,0.07-0.49,0.21-0.67,0.39c-0.1,0.1-0.19,0.22-0.26,0.34c-0.02,0.04-0.21,0.41-0.18,0.43
		c-0.93-0.48-2.16,0.59-1.94,1.6c0.07,0.32,0.21,0.62,0.43,0.86c0.08,0.1,0.18,0.18,0.28,0.26c0.31,0.25,0.67,0.42,1.04,0.57
		c0.18,0.07,0.37,0.14,0.56,0.2c0.17,0.06,0.35,0.15,0.53,0.19c0.03,0.01,0.05,0.01,0.08,0.02c0.42,0.08,0.72-0.21,0.93-0.54
		c0.34-0.53,0.54-1.16,0.67-1.77c0.14-0.67,0.23-1.48-0.16-2.09C70.67,10.62,70.15,10.45,69.67,10.57z M70.69,12.49
		c-0.03,0.45-0.14,0.9-0.32,1.31c-0.09,0.21-0.18,0.4-0.29,0.6c-0.03,0.05-0.32,0.56-0.34,0.55c-0.89-0.37-2.11-0.51-2.55-1.51
		c-0.21-0.44,0.07-0.97,0.51-1.17c0.16-0.07,0.41-0.16,0.6-0.04c0.42,0.25,0.49,0.2,0.49,0.2c0.25-0.14,0.19-0.32,0.26-0.52
		c0.15-0.43,0.58-0.98,1.1-0.82c0.12,0.04,0.22,0.11,0.3,0.21C70.7,11.6,70.71,12.1,70.69,12.49z"/>
	<path d="M74.95,12.1c-0.68-0.85-2.16-0.03-1.87,1.01c0.17,0.5,0.42,0.96,0.63,1.46c0.22,0.26,0.6,0.12,0.88,0.05
		c0.65-0.2,1.38-0.54,1.69-1.19C76.56,12.68,75.7,11.79,74.95,12.1z M75.78,13.21c-0.12,0.31-0.43,0.53-0.72,0.67
		c-0.07,0.03-0.95,0.33-0.95,0.3c-0.11-0.57-0.8-1.14-0.38-1.68c0.09-0.12,0.25-0.19,0.39-0.21c0.11-0.01,0.28,0,0.37,0.09
		c0.09,0.1,0.12,0.29,0.17,0.33c0.08,0.07,0.14,0.05,0.23-0.01c0.17-0.13,0.46-0.15,0.64-0.03C75.7,12.78,75.85,13,75.78,13.21z"/>
	<path d="M90.04,9.91c-0.55-1.16-2.1-1.74-3.28-1.3c-0.05,0.02-0.37,0.13-0.37,0.18c0-0.04,0-0.09,0-0.13
		c0.01-0.61-0.13-1.27-0.53-1.75c-0.8-0.95-2.26-0.85-3.14-0.08c-0.47,0.41-0.74,0.94-0.89,1.54c-0.2,0.79-0.18,1.64,0.07,2.42
		c0.13,0.41,0.34,0.8,0.5,1.19c0.19,0.44,0.35,0.89,0.52,1.33c0.16,0.4,0.28,0.85,0.48,1.22c0.1,0.19,0.2,0.39,0.41,0.42
		c0.03,0.01,0.06,0.01,0.09,0.01c0.56,0,1.04-0.31,1.52-0.55c0.8-0.4,1.65-0.69,2.44-1.11C89.03,12.72,90.76,11.45,90.04,9.91z
		 M88.99,11.9c-0.21,0.22-0.45,0.42-0.71,0.59c-0.22,0.15-0.49,0.35-0.74,0.43c-0.71,0.23-1.37,0.59-2.04,0.92
		c-0.38,0.22-0.81,0.37-1.21,0.54c-0.06,0.03-0.12,0.05-0.18,0.05c-0.04,0-0.07-0.01-0.1-0.02c-0.08-0.04-0.12-0.14-0.15-0.23
		c-0.14-0.39-0.28-0.78-0.44-1.17c-0.63-1.45-1.41-2.96-1.1-4.6c0.58-2.51,4.25-2.02,3.47,0.77c0.01,0.84,0.86-0.05,1.31-0.08
		c0.19-0.06,0.39-0.09,0.59-0.09c0.65,0,1.32,0.3,1.71,0.83C89.91,10.54,89.52,11.34,88.99,11.9z"/>
<!--	<path d="M84.27,10.64c0.3,0.02,0.37-0.44,0.09-0.53C83.96,9.98,83.85,10.64,84.27,10.64z"/>-->
<!--	<path d="M86.72,11.36c-0.15,0-0.27,0.11-0.27,0.26c0,0.14,0.11,0.28,0.26,0.28c0.15,0,0.27-0.11,0.27-0.26-->
<!--		C86.98,11.49,86.86,11.36,86.72,11.36z"/>-->
<!--	<path d="M85.18,12.61c-0.26,0.02-0.59-0.03-0.79-0.19c-0.02-0.07-0.06-0.14-0.12-0.17c-0.55-0.21-0.48,0.55-0.07,0.7-->
<!--		c0.34,0.14,1.2,0.47,1.27-0.1C85.46,12.71,85.33,12.6,85.18,12.61z"/>-->
<!--	<path d="M42.54,10.58c-0.29,0.01-0.44,0.48-0.13,0.59C42.79,11.32,43,10.58,42.54,10.58z"/>-->
<!--	<path d="M44.98,11.3c-0.28-0.07-0.55,0.38-0.29,0.57C45.04,12.11,45.44,11.41,44.98,11.3z"/>-->
<!--	<path d="M43.8,12.56c-0.29,0.03-0.68,0.05-0.85-0.23c-0.09-0.31-0.6-0.2-0.53,0.15c0.09,0.25,0.32,0.42,0.55,0.53-->
<!--		c0.33,0.14,0.7,0.1,1.03,0.06C44.43,12.95,44.18,12.41,43.8,12.56z"/>-->
	<path d="M17.86,9.73c0.58,0,1.03-0.57,1-1.13c-0.04-0.61-0.54-1.02-1.12-1.02c-0.58,0-1.03,0.58-1,1.13
		C16.78,9.33,17.29,9.73,17.86,9.73z"/>
	<path d="M36.16,7.81c-0.58,0-1.03,0.58-1,1.13c0.04,0.61,0.54,1.02,1.12,1.02c0.58,0,1.03-0.57,1-1.13
		C37.25,8.22,36.74,7.81,36.16,7.81z"/>
	<path d="M63.32,12.3c-0.58,0-1.03,0.58-1,1.13c0.04,0.61,0.54,1.02,1.12,1.02c0.58,0,1.03-0.57,1-1.13
		C64.4,12.71,63.89,12.3,63.32,12.3z"/>
	<path d="M70.5,6.37c-0.58,0-1.03,0.58-1,1.13c0.04,0.61,0.54,1.02,1.12,1.02c0.58,0,1.03-0.57,1-1.13
		C71.58,6.77,71.07,6.37,70.5,6.37z"/>
	<path d="M92.59,7.68c0.43,0,0.77-0.43,0.75-0.85c-0.02-0.46-0.41-0.76-0.84-0.76c-0.43,0-0.77,0.43-0.75,0.85
		C91.77,7.37,92.15,7.68,92.59,7.68z"/>
	<path d="M78.27,13.84c-0.43,0-0.77,0.43-0.75,0.85c0.02,0.46,0.41,0.76,0.84,0.76c0.43,0,0.77-0.43,0.75-0.85
		C79.09,14.14,78.7,13.84,78.27,13.84z"/>
	<path d="M50.5,9.52c0.43,0,0.79-0.38,0.78-0.82c-0.01-0.44-0.37-0.79-0.81-0.79c-0.43,0-0.79,0.38-0.78,0.82
		C49.7,9.17,50.07,9.52,50.5,9.52z"/>
	<path d="M38.5,11.3c-0.43,0-0.79,0.38-0.78,0.82c0.01,0.44,0.37,0.79,0.81,0.79c0.43,0,0.79-0.38,0.78-0.82
		C39.3,11.65,38.94,11.3,38.5,11.3z"/>
	<path d="M21.48,8.21c0.43,0,0.79-0.38,0.78-0.82c-0.01-0.44-0.37-0.79-0.81-0.79c-0.43,0-0.79,0.38-0.78,0.82
		C20.68,7.86,21.05,8.21,21.48,8.21z"/>
	<path d="M29.11,13.92c-0.29,0-0.53,0.26-0.52,0.55c0,0.29,0.25,0.53,0.54,0.53s0.53-0.26,0.52-0.55
		C29.64,14.15,29.4,13.92,29.11,13.92z"/>
	<path d="M39.59,6.36c-0.48-0.27-1.23,0.27-0.9,0.81C39.16,7.91,40.42,6.88,39.59,6.36z"/>
	<path d="M44.87,7.56c0.29,0,0.53-0.26,0.52-0.55c0-0.29-0.25-0.53-0.54-0.53c-0.29,0-0.53,0.26-0.52,0.55
		C44.34,7.33,44.58,7.56,44.87,7.56z"/>
	<path d="M53.16,7.59c0.29,0,0.51-0.29,0.5-0.57c-0.02-0.31-0.27-0.5-0.56-0.5s-0.51,0.29-0.5,0.57C52.61,7.4,52.87,7.59,53.16,7.59
		z"/>
	<path d="M73.45,9.61c-0.02-0.31-0.27-0.5-0.56-0.5c-0.29,0-0.51,0.29-0.5,0.57c0.02,0.31,0.27,0.5,0.56,0.5S73.46,9.89,73.45,9.61z
		"/>
	<path d="M79.95,11.22c-0.29,0-0.53,0.24-0.54,0.53c0,0.29,0.23,0.55,0.52,0.55c0.29,0,0.53-0.23,0.54-0.53
		C80.47,11.48,80.24,11.22,79.95,11.22z"/>
	<path d="M88.82,7.71c0.29,0,0.53-0.23,0.54-0.53c0-0.29-0.23-0.55-0.52-0.55s-0.53,0.24-0.54,0.53
		C88.29,7.45,88.53,7.71,88.82,7.71z"/>
	<path d="M91.76,9.95c0.29,0,0.53-0.23,0.54-0.53c0-0.29-0.23-0.55-0.52-0.55c-0.29,0-0.53,0.24-0.54,0.53
		C91.23,9.7,91.47,9.95,91.76,9.95z"/>
	<path d="M61.52,7.11c-0.64-1.52-2.58-1.15-3.42-0.06c-0.13,0.17-0.24,0.36-0.32,0.56c-0.04,0.1-0.19,0.49-0.12,0.59
		c-0.24-0.33-0.57-0.59-0.95-0.72C55.96,7.22,55.09,7.45,54.52,8c-1.04,1-0.59,2.87,0.25,3.85c0.67,0.78,1.62,1.23,2.51,1.7
		c0.5,0.26,0.95,0.65,1.46,0.88c0.27,0.12,0.52,0.04,0.74-0.14c0.49-0.4,0.81-1.06,1.06-1.63c0.76-1.69,1.76-3.64,1-5.51
		C61.53,7.14,61.53,7.12,61.52,7.11z"/>
	<path d="M15.08,6.91c-0.19-0.48-0.5-0.9-0.93-1.17c-1-0.63-2.13-0.16-2.89,0.62c-0.64,0.66-1.1,1.53-1.22,2.46
		C7.73,6.7,5,9.08,6.37,11.79c0.49,1.25,1.75,1.89,2.83,2.54c0.97,0.6,1.94,1.25,3.09,1.47c0.67,0.16,0.99-0.63,1.27-1.1
		c0.6-0.99,1.02-2.21,1.32-3.33c0.31-1.12,0.56-2.44,0.42-3.61C15.26,7.47,15.19,7.18,15.08,6.91z"/>
	<path d="M80.34,7.33c-0.02-0.09-0.04-0.17-0.08-0.26c-0.24-0.52-0.83-0.7-1.35-0.66c-0.28,0.02-0.56,0.1-0.82,0.24
		c-0.12,0.07-0.24,0.15-0.34,0.24c-0.03,0.03-0.27,0.25-0.24,0.3c-0.09-0.19-0.22-0.35-0.38-0.48c-0.46-0.36-1.12-0.41-1.65-0.2
		c-0.7,0.28-0.99,1-0.85,1.73c0.09,0.46,0.32,0.89,0.6,1.27c0.31,0.43,0.66,0.82,1,1.23c0.26,0.31,0.54,0.47,0.94,0.39
		c0.88-0.16,1.66-0.83,2.22-1.49c0.46-0.54,0.9-1.18,0.97-1.91C80.37,7.6,80.37,7.46,80.34,7.33z"/>
	<path d="M33.95,7.51c-0.32-0.91-1.34-1.42-2.2-0.91c-0.6-1.34-2.76-1-2.97,0.45c-0.26,1.13,0.65,2.11,0.89,3.19
		c0.06,0.24,0.07,0.63,0.39,0.69C31.79,10.83,34.37,9.62,33.95,7.51z"/>
	<path d="M93.98,12.48c-0.19-1.52-2.41-1.11-2.5,0.26c-0.82-0.27-1.75,0.51-1.55,1.38c0.2,0.88,1.24,1.08,1.97,1.24
		c0.31,0.07,0.61,0.19,0.93,0.22c0.2,0.02,0.31-0.12,0.42-0.27c0.28-0.4,0.39-0.86,0.52-1.31C93.91,13.5,94.05,12.99,93.98,12.48z"
		/>
</g>
</svg>
