<?xml version="1.0" encoding="utf-8"?>
<!-- Generator: Adobe Illustrator 23.0.0, SVG Export Plug-In . SVG Version: 6.00 Build 0)  -->
<svg version="1.1" id="Слой_1" xmlns="http://www.w3.org/2000/svg" xmlns:xlink="http://www.w3.org/1999/xlink" x="0px" y="0px"
	 viewBox="0 0 100 21.28" style="enable-background:new 0 0 100 21.28;" xml:space="preserve">
<g>
	<path d="M13.75,5.18c-0.53-0.49-1.37-0.5-2.02-0.19c-0.65,0.31-1.12,0.89-1.51,1.5C9.55,5.81,8.47,5.58,7.58,5.93
		C7.11,6.11,6.71,6.44,6.43,6.86C5.89,7.65,5.83,8.68,6.4,9.46c0.27,0.37,0.63,0.67,0.98,0.97c0.78,0.66,1.55,1.32,2.33,1.99
		c0.22,0.19,0.46,0.38,0.75,0.41c0.02,0,0.03,0,0.05,0c0.16,0,0.32-0.04,0.47-0.1c0.9-0.33,1.68-0.94,2.25-1.7
		c0.57-0.76,0.94-1.67,1.12-2.6c0.14-0.76,0.16-1.55-0.05-2.29C14.19,5.78,14.02,5.43,13.75,5.18z M13.2,10.06
		c-0.31,0.53-0.7,1-1.14,1.42c-0.4,0.37-0.89,0.86-1.47,0.87c-0.08,0-0.15-0.02-0.22-0.06c-0.64-0.38-1.23-1.02-1.8-1.5
		C7.64,10,6.08,9.06,6.59,7.63c0.19-0.54,0.6-1.01,1.13-1.23c0.55-0.23,1.19-0.18,1.71,0.12c0.27,0.16,0.41,0.33,0.57,0.57
		c0.44,0.66,0.7-0.44,0.92-0.75c0.35-0.49,0.84-0.89,1.43-1.03c0.89-0.21,1.4,0.5,1.53,1.3C14.08,7.8,13.81,9.02,13.2,10.06z"/>
	<path d="M31.43,9.27c-0.25-0.12-0.52-0.22-0.79-0.21c-0.4,0.01-0.74,0.23-1.05,0.46c-0.3,0.22-0.59,0.45-0.87,0.71
		c-0.85,0.78-1.57,1.72-1.99,2.8c-0.17,0.43-0.28,0.91-0.13,1.34c0.2,0.56,0.81,0.87,1.39,0.96c0.97,0.16,2.01-0.15,2.74-0.81
		c0,0,0.13,0.14,0.14,0.15c0.38,0.38,0.92,0.7,1.47,0.8c0.51,0.1,1.04,0,1.45-0.43c0.5-0.52,0.52-1.33,0.38-2.03
		C33.87,11.43,32.87,9.96,31.43,9.27z M33.68,14.21c-0.1,0.46-0.51,0.85-1.02,0.77c-0.48-0.05-0.96-0.18-1.34-0.55
		c-0.13-0.13-0.22-0.29-0.27-0.47c-0.11-0.37-0.53-0.21-0.62,0.08c-0.2,0.39-0.65,0.56-1.06,0.66c-0.63,0.16-1.29,0.27-1.9-0.07
		c-0.26-0.14-0.42-0.39-0.45-0.68c-0.06-0.6,0.31-1.22,0.63-1.7c0.42-0.63,0.94-1.21,1.5-1.72c0.24-0.22,0.49-0.44,0.76-0.63
		c0.1-0.08,0.21-0.15,0.32-0.22c0.05-0.03,0.09-0.05,0.14-0.08c0.11-0.06,0.29-0.08,0.41-0.05c0.93,0.28,1.73,1.04,2.25,1.85
		C33.56,12.22,33.86,13.23,33.68,14.21z"/>
	<path d="M50.1,6.95c-0.71-0.47-1.51-1.21-2.42-1.08c-1.05,0.22-1.62,1.38-1.25,2.37c0.41,1.17,1.37,1.98,2.39,2.61
		c0.55,0.34,1.12,0.62,1.67,0.96c0.19,0.12,0.41,0.26,0.63,0.33c0.28,0.1,0.57,0.1,0.81-0.14c0.23-0.23,0.34-0.56,0.57-0.79
		c0.95-1.42,2.07-3.24,1.43-4.98C53.05,4.71,50.63,5.49,50.1,6.95z M53.09,9.27c-0.11,0.23-1.51,2.59-1.66,2.5
		c-0.99-0.63-2.09-1.08-3.03-1.78c-0.8-0.6-2.01-1.88-1.44-2.98c0.26-0.51,0.79-0.74,1.33-0.57c0.47,0.15,1.12,0.51,1.47,0.88
		c0.32,0.34,0.67,0.27,0.81-0.19c0.32-0.71,1.08-1.29,1.89-1.2c0.78,0.09,1.17,0.46,1.18,1.27C53.65,7.91,53.39,8.63,53.09,9.27z"/>
	<path d="M93.81,6.23c-0.89-1.52-3.31-0.74-3.84,0.73c-0.71-0.47-1.51-1.21-2.42-1.08c-1.05,0.22-1.62,1.38-1.25,2.37
		c0.41,1.17,1.37,1.98,2.39,2.61c0.55,0.34,1.12,0.62,1.67,0.96c0.19,0.12,0.41,0.26,0.63,0.33c0.28,0.1,0.57,0.1,0.81-0.14
		c0.23-0.23,0.34-0.56,0.57-0.79C93.32,9.79,94.45,7.97,93.81,6.23z M92.97,9.27c-0.11,0.23-1.51,2.59-1.66,2.5
		c-0.99-0.63-2.09-1.08-3.03-1.78c-0.8-0.6-2.01-1.88-1.44-2.98c0.26-0.51,0.79-0.74,1.33-0.57c0.47,0.15,1.12,0.51,1.47,0.88
		c0.32,0.34,0.67,0.27,0.81-0.19c0.32-0.71,1.08-1.29,1.89-1.2c0.78,0.09,1.17,0.46,1.18,1.27C93.53,7.91,93.27,8.63,92.97,9.27z"/>
	<path d="M73.9,13.21c-0.12-0.3-0.25-0.6-0.4-0.88c-0.16-0.31-0.34-0.62-0.54-0.92c-0.2-0.3-0.42-0.59-0.66-0.85
		c-0.23-0.26-0.48-0.5-0.76-0.7c-0.31-0.23-0.66-0.41-1.03-0.51c-0.07-0.02-0.14-0.03-0.22-0.03c-0.06,0-0.11,0.02-0.16,0.04
		c-0.18,0.05-0.36,0.13-0.53,0.22c-0.2,0.11-0.39,0.23-0.57,0.37c-1.32,0.98-2.55,2.43-2.8,4.11c-0.1,0.65,0.08,1.28,0.67,1.62
		c0.36,0.21,0.78,0.3,1.19,0.35c0.75,0.09,1.58-0.04,2.17-0.54c0.31,0.53,0.95,0.82,1.52,0.99c1.78,0.29,2.8-1.62,2.18-3.15
		C73.93,13.28,73.91,13.25,73.9,13.21z M73.37,15.3c-0.3,0.46-0.79,0.67-1.3,0.66c-0.35-0.01-0.7-0.11-1-0.31
		c-0.35-0.23-0.38-0.45-0.49-0.83c-0.06-0.2-0.35-0.25-0.46-0.07c-0.21,0.34-0.4,0.57-0.8,0.69c-0.39,0.12-0.81,0.13-1.2,0.13
		c-0.45-0.01-0.92-0.11-1.23-0.46c-0.21-0.23-0.27-0.54-0.25-0.85c0.07-0.98,0.68-1.89,1.3-2.62c0.6-0.71,1.34-1.31,2.14-1.78
		c0.2-0.12,0.24-0.09,0.33-0.05c1.17,0.55,2.13,1.74,2.7,2.88C73.5,13.44,73.87,14.52,73.37,15.3z"/>
</g>
</svg>
