<?xml version="1.0" encoding="utf-8"?>
<!-- Generator: Adobe Illustrator 23.0.0, SVG Export Plug-In . SVG Version: 6.00 Build 0)  -->
<svg version="1.1" id="Слой_1" xmlns="http://www.w3.org/2000/svg" xmlns:xlink="http://www.w3.org/1999/xlink" x="0px" y="0px"
	 viewBox="0 0 100 21.28" style="enable-background:new 0 0 100 21.28;" xml:space="preserve">
<g>
	<path d="M93.72,8.86c-0.07-0.21-0.16-0.4-0.35-0.53c-0.15-0.11-0.34-0.18-0.51-0.25c-0.24-0.1-0.49-0.2-0.74-0.28
		c-0.65-0.21-1.33-0.34-2.01-0.36c-0.62-0.02-1.23,0.06-1.83,0.21c-0.59,0.15-1.16,0.37-1.71,0.63c-0.56,0.27-1.1,0.59-1.63,0.92
		c-0.55,0.34-1.08,0.71-1.61,1.07c-0.54,0.37-1.08,0.74-1.64,1.08c-0.56,0.35-1.13,0.67-1.72,0.96c-0.3,0.14-0.6,0.27-0.91,0.39
		c-0.15,0.06-0.31,0.11-0.47,0.16c-0.15,0.05-0.31,0.12-0.47,0.14c-4.95,0.69-7.44-5.22-11.69-6.78c-4.19-1.84-7.19-0.13-10.29,2.71
		c-2.1,1.92-4.93,3.63-7.69,4.37c-1.05,0.28-2.27,0.44-3.33,0.1c-0.99-0.32-1.81-1.07-2.62-1.69c-1.16-0.9-2.24-1.89-3.37-2.82
		c-0.91-0.75-1.87-1.47-2.9-2.05c-1.48-0.83-3.16-1.47-4.88-1.14c-1.61,0.31-3.01,1.31-4.17,2.42c-1.12,1.07-2.16,2.25-3.44,3.13
		c-1.32,0.91-2.7,1.55-4.1,0.49c-1.23-0.93-1.96-2.38-3.2-3.29c-2.85-2.75-6.75-3.44-9.93-0.81C5.89,8.01,6.46,8.96,7.05,8.6
		c3.95-3.25,7.57-0.74,10.54,2.45c1.44,1.45,2.72,3.08,4.95,2.19c1.64-0.65,2.87-2.06,4.2-3.14c1.17-0.96,2.11-2.22,3.45-2.95
		c1.3-0.71,2.78-0.52,4.13-0.03c2.75,0.99,4.8,3.27,6.99,5.06c1.28,1.05,2.64,2.13,4.29,2.44c0.15,0.03,0.31,0.05,0.47,0.07
		c1.89,0.18,3.74-0.57,5.38-1.37c2.04-0.99,4.14-2.36,5.81-3.9c2.94-2.72,5.57-3.82,9.39-1.89c3.35,1.79,5.53,5.52,9.33,6.54
		c0.25,0.07,0.53,0.08,0.79,0.09c0.55,0.03,1.1-0.02,1.63-0.13c0.53-0.11,1.05-0.28,1.55-0.49c0.51-0.22,1.01-0.47,1.49-0.75
		c0.49-0.29,0.97-0.6,1.44-0.91c0.48-0.32,0.95-0.65,1.42-0.97c0.47-0.32,0.94-0.63,1.43-0.92c0.47-0.28,0.95-0.55,1.45-0.77
		c0.48-0.22,0.98-0.4,1.5-0.52c0.51-0.12,1.04-0.18,1.56-0.16c0.56,0.02,1.12,0.12,1.65,0.3c0.3,0.1,0.58,0.22,0.87,0.35
		c0.26,0.12,0.65,0.37,0.91,0.12C93.79,9.18,93.77,9,93.72,8.86z"/>
	<path d="M7.92,11.62c-0.48,1.42,1.15,2.53,2.45,2.21c-0.47,0.92-0.7,2.28,0.51,2.72c1.47,0.39,3.21-0.47,3.62-1.98
		c0.44-1.61,0.45-3.83-0.74-5.1C11.75,8.5,8.79,9.52,7.92,11.62z M11.56,16.08c-0.32,0.02-0.64-0.04-0.86-0.3
		c-0.07-0.08-0.18-0.19-0.18-0.32c-0.07-0.76,0.43-1.47,0.66-2.19c0.01-0.17-0.13-0.29-0.29-0.29c-0.16,0.01-0.24,0.16-0.38,0.23
		c-0.75,0.29-1.78,0.04-2.07-0.78c-0.33-2.07,3.26-3.25,4.9-2.6c0.01,0.02,0.03,0.03,0.05,0.04c0.03,0.02,0.06,0.03,0.09,0.04
		C14.79,11.84,14.61,16.15,11.56,16.08z"/>
	<path d="M21.79,10.46c0.18,0.05,0.36-0.03,0.48-0.17c1.11-1.43,2.49-3.21,1.93-5.12c-0.72-2.03-4.09-1.33-4.04,0.79
		c-1.83-1.21-3.11,1.41-2.01,2.81C19.13,9.76,20.58,9.86,21.79,10.46z M18.32,7.04c0.08-0.29,0.26-0.56,0.52-0.71
		c0.59-0.34,1.21,0.12,1.5,0.63c0.09,0.15,0.37,1.11,0.67,0.69c0.32-0.45-0.27-1.01-0.32-1.48c-0.06-0.51,0.18-1.06,0.61-1.35
		c0.23-0.15,0.49-0.24,0.76-0.29c0.32-0.05,0.65-0.05,0.94,0.08c1.08,0.5,0.86,2.02,0.47,2.9C23.27,7.97,23,8.4,22.7,8.81
		c-0.07,0.09-0.79,1.12-0.83,1.1c-0.08-0.04-0.16-0.08-0.24-0.11c-0.14-0.07-0.3-0.13-0.45-0.18C20.05,9.17,17.81,8.82,18.32,7.04z"
		/>
	<path d="M34.13,9.32c-0.3-0.51-0.71-0.88-1.18-1.24c-0.24-0.18-0.42-0.21-0.71-0.16c-2.2,0.4-3.87,2.26-4.54,4.32
		c-0.59,2.07,1.75,2.44,3,1.24c-0.16,0.98,0.57,1.9,1.53,2.08c0.27,0.07,0.56,0.11,0.84,0.09c0.9-0.05,1.48-0.72,1.74-1.54
		c0.3-0.97,0.23-2.04,0-3.02C34.66,10.48,34.45,9.87,34.13,9.32z M34.21,14.02c-0.18,0.49-0.49,1.12-1.14,1.1
		c-0.81,0-1.76-0.34-1.84-1.27c-0.01-0.41,0.07-0.82,0.17-1.23c0.07-0.15,0.05-0.34-0.11-0.42c-0.2-0.1-0.37,0.08-0.41,0.26
		c-0.2,0.39-0.58,0.65-0.99,0.89c-0.33,0.25-0.83,0.35-1.22,0.21c-0.42-0.15-0.5-0.54-0.45-0.94c0.27-2.02,2.2-3.83,4.17-4.18
		c0.19-0.03,0.44,0.21,0.57,0.32c0.16,0.15,0.31,0.32,0.43,0.49C34.32,10.63,34.85,12.42,34.21,14.02z"/>
	<path d="M47.35,11.57c0.06,0.03,0.12,0.05,0.18,0.07c0.27,0.06,0.57-0.06,0.81-0.16c0.28-0.12,0.53-0.29,0.78-0.47
		c0.54-0.41,1-0.93,1.38-1.49c0.75-1.11,1.49-2.95,0.48-4.14c-0.78-0.87-2.63-0.73-3.15,0.36c-0.56-0.93-2.24-1-2.88-0.12
		c-0.27,0.37-0.37,0.87-0.36,1.31c0.05,1.52,1.17,2.72,2.04,3.86C46.84,11.07,47.03,11.39,47.35,11.57z M45.82,5.62
		c0.41-0.12,0.88-0.06,1.28,0.1c0.23,0.18,0.32,0.45,0.46,0.69c0.1,0.49,0.55,0.3,0.62-0.17c0.09-0.25,0.25-0.52,0.46-0.68
		c0.21-0.11,0.57-0.18,0.84-0.18c0.58-0.09,1.16,0.22,1.37,0.8c0.2,0.61-0.05,1.31-0.28,1.9c-0.01,0.02-0.01,0.04-0.02,0.06
		c-0.35,0.96-0.97,1.83-1.79,2.44c-0.2,0.15-0.42,0.29-0.65,0.4c-0.3,0.15-0.4,0.22-0.63-0.05c-0.07-0.09-0.15-0.17-0.22-0.26
		c-0.34-0.4-0.68-0.8-1-1.23C45.56,8.46,44.29,6.49,45.82,5.62z"/>
	<path d="M64.31,9.12C64.19,8.95,64,8.87,63.8,8.93c-0.78,0.43-1.66,0.77-2.23,1.49c-0.82,1.06-1.81,2.22-1.81,3.63
		c0.14,1.53,2.03,0.76,2.73,0.07c0.02,0.87,0.3,2.06,1.3,2.23c2.07,0.07,2.16-2.95,1.71-4.39C65.17,10.98,64.82,10.01,64.31,9.12z
		 M64.84,15.2c-0.16,0.33-0.49,0.64-0.91,0.62c-0.61-0.05-0.81-0.81-0.88-1.36c-0.04-0.13-0.02-0.3-0.01-0.46
		c0.1-0.19,0.08-0.49-0.03-0.64c-0.02-0.03-0.05-0.02-0.08-0.04c-0.11-0.16-0.42-0.13-0.57,0.17c-0.41,0.46-0.96,0.74-1.55,0.92
		c-0.45,0.08-0.56-0.31-0.49-0.69c0.43-1.86,1.83-3.46,3.58-4.24C64.78,11.24,65.65,13.22,64.84,15.2z"/>
	<path d="M76.44,10.99c0.33,0.23,0.7-0.15,1-0.27c1.53-0.97,3.38-1.87,4.15-3.61c1.1-2.76-2.11-3.4-3.47-1.37
		c-0.22-0.77-0.42-1.67-1.2-2.06c-0.94-0.5-2.08,0.21-2.34,1.17c-0.37,0.98,0.18,1.96,0.62,2.82C75.75,8.71,76.11,9.88,76.44,10.99z
		 M75.96,4.09c0.52-0.16,1.01,0.15,1.25,0.62c0.22,0.62,0.53,1.3,0.42,1.98c-0.12,0.34,0.38,0.59,0.52,0.22
		c0.22-0.31,0.26-0.74,0.53-1.04c0.51-0.54,1.42-1.12,2.15-0.65c0.18,0.11,0.34,0.25,0.41,0.47c0.2,2.42-2.64,3.62-4.4,4.73
		c-0.26-1.05-0.68-2.06-1.17-3.03C75.05,6.38,74.5,4.65,75.96,4.09z"/>
	<path d="M90.46,11.83c-0.15-0.29-0.34-0.87-0.71-0.93c-0.22-0.04-0.46,0.05-0.66,0.13c-0.44,0.18-0.85,0.44-1.24,0.71
		c-0.68,0.55-1.36,1.14-1.87,1.86c-0.25,0.35-0.47,0.74-0.6,1.16c-0.12,0.38-0.25,0.9,0.05,1.22c0.6,0.64,1.68,0.32,2.34-0.06
		c-0.05,0.03-0.06,0.29-0.06,0.35c0,0.12,0.01,0.24,0.04,0.35c0.06,0.22,0.17,0.43,0.32,0.6c0.36,0.4,0.82,0.57,1.27,0.55
		c0.53-0.02,1.04-0.32,1.39-0.73c0.47-0.55,0.58-1.29,0.58-1.98c0-0.76-0.17-1.52-0.42-2.24C90.76,12.49,90.62,12.16,90.46,11.83z
		 M90.74,15.4c-0.05,0.57-0.22,1.19-0.68,1.57c-0.2,0.16-0.46,0.26-0.71,0.27c-0.41,0.02-0.82-0.16-0.99-0.58
		c-0.16-0.38-0.06-0.83,0.09-1.2c0.07-0.18,0.23-0.47,0.14-0.65c-0.06-0.12-0.23-0.18-0.35-0.11c-0.08,0.05-0.13,0.13-0.17,0.2
		c-0.36,0.57-1.08,0.97-1.76,0.91c-0.2-0.02-0.39-0.09-0.46-0.29c-0.13-0.37,0.19-0.89,0.35-1.2c0.24-0.45,0.55-0.87,0.9-1.24
		c0.35-0.37,0.75-0.71,1.18-0.98c0.12-0.08,1.24-0.75,1.32-0.64c0.64,0.81,0.98,1.91,1.12,2.92C90.75,14.72,90.76,15.06,90.74,15.4z
		"/>
</g>
</svg>
