<?xml version="1.0" encoding="utf-8"?>
<!-- Generator: Adobe Illustrator 23.0.0, SVG Export Plug-In . SVG Version: 6.00 Build 0)  -->
<svg version="1.1" id="Слой_1" xmlns="http://www.w3.org/2000/svg" xmlns:xlink="http://www.w3.org/1999/xlink" x="0px" y="0px"
	 viewBox="0 0 100 21.28" style="enable-background:new 0 0 100 21.28;" xml:space="preserve">
<g>
	<path d="M93.89,16.39c-0.16-0.13-0.42-0.15-0.64-0.15c-2.64,0.02-5.28,0.04-7.93,0.06c0.91-1.1,1.72-2.28,2.42-3.53
		c0.25-0.45,0.49-0.93,0.48-1.44c-0.03-0.94-0.96-1.67-1.9-1.72s-1.83,0.43-2.56,1.02c-0.73-0.75-1.87-1.22-2.85-0.84
		c-1.16,0.45-1.62,1.94-1.34,3.16c0.29,1.22,1.12,2.21,1.93,3.16c-3,0.1-6.01,0.13-9.02,0.1c0.87-0.93,1.74-1.86,2.6-2.79
		c0.78-0.83,1.6-1.77,1.65-2.91c0.07-1.38-1.15-2.61-2.51-2.78s-2.73,0.59-3.53,1.72c-0.46-0.58-1.04-1.1-1.73-1.36
		c-0.7-0.26-1.53-0.22-2.13,0.22c-0.53,0.39-0.82,1.05-0.89,1.71c-0.12,1.16,0.36,2.31,0.98,3.3c0.62,0.99,1.39,1.89,1.94,2.92
		c-3.11,0.08-6.23,0.07-9.34-0.03c0.54-0.68,1.11-1.34,1.71-1.97c0.56-0.59,1.16-1.12,1.64-1.78c0.68-0.92,1.28-2.09,1.28-3.26
		c0.07-1.47-0.67-3.12-2.08-3.76c-1.75-0.79-3.72,0.25-4.95,1.5c-1.64-2.58-5.42-3.17-6.21,0.45c-0.78,3.62,2.14,6.63,4.78,8.77
		c-1.51,0.03-3.02,0.08-4.53,0.1c-1.4,0-5.55,0.03-5.99,0.04c0.94-1.13,1.77-2.36,2.47-3.66c0.25-0.47,0.49-0.98,0.43-1.5
		c-0.11-0.85-0.99-1.4-1.83-1.49c-0.96-0.1-1.97,0.27-2.64,0.97c-0.74-0.75-1.9-1.21-2.88-0.8c-1.13,0.48-1.57,1.95-1.29,3.15
		c0.28,1.2,1.1,2.19,1.9,3.13c-3.01,0.12-6.02,0.15-9.03,0.09c1.22-1.13,2.34-2.37,3.33-3.7c0.43-0.58,0.88-1.23,0.97-1.97
		c0.09-0.77-0.3-1.46-0.84-1.97c-0.63-0.6-1.54-0.96-2.41-0.86c-1.13,0.12-2.13,0.89-2.81,1.77c-1.34-1.92-4.29-2.32-4.71,0.47
		c-0.37,2.44,1.85,4.33,2.9,6.32c-3.07,0.04-6.29,0.1-9.35-0.04c1.29-1.93,3.98-3.33,4.48-5.72c1.04-4.96-3.38-7.08-6.88-3.54
		c-1.64-2.58-5.42-3.17-6.21,0.45c-0.78,3.62,2.14,6.63,4.78,8.77c-3.05,0.07-6.08,0.17-9.2,0.13c-0.51-0.01-0.45,0.59-0.18,0.6
		c1.77,0.03,8.64,0.03,9.36,0c0.33-0.01,0.73-0.07,1.02-0.24c0.14-0.08,0.25-0.19,0.2-0.36c-0.08-0.26-0.42-0.32-0.62-0.45
		c-0.26-0.16-0.51-0.33-0.74-0.51c-0.57-0.44-1.1-0.94-1.56-1.49c-1.56-1.86-3-3.86-2.54-6.42c0.22-1.25,1.26-2.04,2.5-2.04
		c1.24,0.01,1.99,0.91,2.67,1.86c0.19,0.27,0.26,0.82,0.65,0.84c0.38,0.02,0.24-0.4,0.35-0.6c0.55-1.02,1.78-1.91,2.92-1.85
		c2.84,0.15,3.82,2.6,2.81,5.05c-0.74,1.81-2.41,2.94-3.65,4.36c-0.27,0.32-0.56,0.62-0.85,0.93c-0.41,0.44,0.15,0.8,0.59,0.84
		c1.75,0.16,6.51,0.09,7.63,0.08c3.66-0.03,2.38-0.62,1.19-2.67c-0.79-1.35-2.21-3.05-1.55-4.83c0.24-0.64,0.85-1,1.5-0.97
		c0.65,0.03,1.28,0.54,1.68,0.95c0.4,0.41,0.77,1.22,1.27,0.5c0.52-0.75,1.26-1.45,2.18-1.63c0.77-0.15,1.63,0.11,2.21,0.64
		c0.29,0.26,0.53,0.61,0.62,1c0.12,0.51-0.08,1.05-0.31,1.49c-0.51,0.97-1.27,1.78-2.05,2.52c-0.78,0.74-1.46,1.59-2.06,2.47
		c-0.04,0.06-0.07,0.14-0.06,0.22c0.03,0.18,0.27,0.23,0.45,0.22c3.23-0.03,6.46-0.06,9.7-0.09c0.14,0,0.3-0.01,0.4-0.11
		c0.16-0.16,0.06-0.44-0.06-0.63c-0.47-0.75-1.12-1.38-1.6-2.14c-0.47-0.75-0.75-1.72-0.38-2.53c0.27-0.59,0.89-1.01,1.54-1.04
		c0.65-0.03,1.3,0.33,1.63,0.9c0.09,0.15,0.2,0.35,0.38,0.33c0.07-0.01,0.13-0.06,0.19-0.11c0.53-0.44,1.07-0.91,1.73-1.1
		s1.49,0,1.81,0.61c0.38,0.74-0.14,1.61-0.64,2.28c-0.74,1-1.49,1.99-2.23,2.99c-0.11,0.15-0.22,0.36-0.1,0.5
		c0.07,0.09,0.2,0.1,0.32,0.1c2.26,0.09,4.53,0.02,6.78,0.02c1.42,0,2.85,0.08,4.27,0.08c0.32-0.01,0.67-0.05,0.95-0.23
		c0.26-0.16,0.29-0.42,0.01-0.58c-0.2-0.12-0.41-0.24-0.6-0.37c-0.25-0.17-0.5-0.36-0.74-0.55c-0.49-0.4-0.94-0.84-1.35-1.32
		c-1.56-1.86-3-3.86-2.54-6.42c0.22-1.25,1.26-2.04,2.5-2.04s1.99,0.91,2.67,1.86c0.19,0.27,0.26,0.82,0.65,0.84
		c0.38,0.02,0.24-0.4,0.35-0.6c0.55-1.02,1.97-1.77,3.11-1.71c2.84,0.16,3.43,2.67,2.62,4.91c-0.56,1.56-1.87,2.62-3.01,3.75
		c-0.22,0.21-0.43,0.43-0.64,0.65c-0.19,0.2-0.36,0.42-0.58,0.59c-0.22,0.18-0.49,0.47-0.36,0.78c0.12,0.3,0.51,0.36,0.83,0.37
		c3.02,0.13,6.05,0.13,9.07-0.01c0.34-0.02,0.79-0.12,0.82-0.46c0.02-0.16-0.07-0.31-0.15-0.44c-0.59-0.95-1.17-1.9-1.76-2.85
		c-0.49-0.8-1-1.65-1.04-2.59c-0.04-0.94,0.57-1.98,1.51-2.06c0.9-0.08,1.62,0.71,2.22,1.4c0.12,0.14,0.26,0.28,0.44,0.31
		c0.32,0.05,0.54-0.28,0.73-0.55c0.62-0.88,1.7-1.47,2.77-1.33c1.07,0.14,2.01,1.11,1.97,2.19c-0.02,0.7-0.42,1.33-0.86,1.87
		c-1.08,1.33-2.54,2.37-3.41,3.83c-0.15,0.25,0.02,0.58,0.31,0.62c0.53,0.08,1.08,0.07,1.62,0.07c2.65-0.03,5.3-0.07,7.96-0.1
		c0.19,0,0.41-0.02,0.51-0.19c0.09-0.16,0-0.35-0.09-0.51c-0.5-0.83-1.22-1.5-1.71-2.33c-0.49-0.83-0.69-1.96-0.1-2.72
		c0.41-0.54,1.16-0.77,1.83-0.62c0.55,0.12,1.03,0.47,1.36,0.94c0.11,0.15,0.33,0.15,0.46,0.03c0.47-0.44,0.99-0.86,1.61-1.03
		c0.74-0.2,1.68,0.1,1.92,0.83c0.23,0.7-0.23,1.41-0.67,2c-0.76,1.01-1.51,2.03-2.27,3.04c-0.13,0.17-0.25,0.43-0.09,0.57
		c0.08,0.07,0.2,0.08,0.3,0.08c2.88-0.01,5.76-0.01,8.64-0.02c0.22,0,0.48-0.03,0.56-0.23C93.98,16.49,93.94,16.43,93.89,16.39z"/>
	<polygon points="13.1,4.36 13.09,4.36 13.12,4.37 	"/>
</g>
</svg>
