<?xml version="1.0" encoding="utf-8"?>
<!-- Generator: Adobe Illustrator 23.0.0, SVG Export Plug-In . SVG Version: 6.00 Build 0)  -->
<svg version="1.1" id="Слой_1" xmlns="http://www.w3.org/2000/svg" xmlns:xlink="http://www.w3.org/1999/xlink" x="0px" y="0px"
	 viewBox="0 0 100 21.28" style="enable-background:new 0 0 100 21.28;" xml:space="preserve">
<path d="M93.65,12.3c-2.63,0.47-5-1.47-7.39-2.4c-1.94-1.11-4.18-1.06-6.13,0.02c-0.08,0.06-0.2,0.11-0.32,0.16
	c-0.06-0.03-0.12-0.06-0.18-0.09c-2.29-1.23-4.87-0.83-7.22-0.01c-4.02,0.83-7.74,3.25-11.96,2.79c0.93-1.04,1.41-2.37,1.84-3.67
	c0.26-0.79,0.38-1.72-0.1-2.45c-0.93-1.4-3.48-0.87-3.54,0.9c-1.4-1.17-4.3-1.77-4.32,0.83c0.35,2.5,2.54,4.25,4.91,4.77
	c-9.13,6.49-12.5-6.3-23.49-3.52c-0.33,0.07-0.65,0.15-0.97,0.25c-0.25-0.02-0.51-0.01-0.78,0.03c-2.06,0.18-4.07,0.74-6.07,1.26
	c-3.44,1.05-7.04,1.46-10.41-0.04c0.21,0.09,0.96-0.59,1.11-0.73c0.33-0.31,0.6-0.67,0.84-1.05c0.46-0.76,0.81-1.59,1.04-2.46
	c0.19-0.73,0.47-1.74,0.13-2.45c-0.26-0.54-0.8-0.86-1.35-1.03c-1.25-0.4-2.83,0.02-3.16,1.43c-1.75-1.95-4.3-0.54-4.12,1.91
	c0.3,2.19,2.46,3.42,4.24,4.36c-3.2,1.15-6.63,1.2-9.98,1.51c-0.4,0.05-0.28,0.63,0.13,0.55c3.53-0.34,7.17-0.37,10.51-1.72
	c5.58,2.94,11.37-0.31,17.07-0.98c-1.39,0.94-2.66,2.19-2.96,3.91c-0.21,0.78-0.11,1.78,0.72,2.15c1.18,0.63,2.64,0.08,3.49-0.86
	c0.4,0.48,0.86,1.01,1.5,1.13c1.07,0.32,2.2-0.28,2.49-1.37c0.09-0.84-0.18-1.69-0.59-2.41c-0.36-0.64-0.84-1.19-1.33-1.73
	c-0.2-0.22-0.4-0.45-0.63-0.64c-0.13-0.11-0.63-0.55-0.8-0.51c10.82-2.69,14.48,10.6,24.12,3.13c4.57,0.66,8.67-1.97,13.03-2.89
	c2.06-0.72,4.29-0.96,6.3,0.06c-0.01,0.03-0.01,0.05-0.01,0.08c-0.13,0.06-0.26,0.12-0.39,0.19c0,0-0.02,0.01-0.03,0.02
	c-1.01,0.53-1.96,1.24-2.71,2.1c-0.79,0.91-1.53,2.34-0.87,3.52c0.58,1.04,2.24,1.72,3.37,1.32c0.11-0.04,0.83-0.55,0.99-0.8
	c0.7,0.71,1.95,1.44,2.99,1.04c0.98-0.37,1.27-1.57,1.16-2.51c-0.19-1.6-0.99-3.22-2.22-4.27c-0.13-0.11-0.96-0.84-1.12-0.76
	c0.46-0.22,0.92-0.42,1.44-0.56c1.29-0.47,2.63-0.16,3.83,0.44c1.95,0.86,3.82,1.95,5.89,2.53c0.73,0.16,1.71,0.36,2.35-0.07
	C94.1,12.52,93.89,12.24,93.65,12.3z M16.89,10.83c-0.07-0.04-0.15-0.08-0.22-0.12c-1.69-0.92-3.87-1.98-4.13-4.11
	c-0.09-0.98,0.58-1.94,1.53-2.17c0.66-0.05,1.25,0.43,1.73,0.88c0.14,0.25,0.43,0.71,0.71,0.35c0.2-0.26,0.16-0.62,0.24-0.92
	c0.09-0.35,0.32-0.55,0.63-0.71C18,3.7,18.79,3.71,19.4,4.04c1.39,0.76,0.67,2.4,0.25,3.53c-0.35,0.92-0.82,1.81-1.54,2.5
	C17.9,10.27,17.21,10.99,16.89,10.83z M37.37,12.2c0.21,0.26,0.49,0.67,0.72,1.13c0.34,0.66,0.81,1.7,0.38,2.43
	c-0.37,0.63-1.2,0.66-1.81,0.42c-0.32-0.13-0.56-0.32-0.78-0.58c-0.15-0.18-0.51-0.75-0.82-0.52c-0.62,0.45-1.09,1.09-1.91,1.11
	c-0.51,0.01-1.02,0.08-1.41-0.34c-0.77-0.83,0.03-2.41,0.59-3.15c0.4-0.53,0.89-1,1.41-1.42c0.2-0.16,0.84-0.86,1.11-0.84
	c0.3,0.01,0.59,0.04,0.86,0.19C36.32,10.98,36.93,11.66,37.37,12.2z M59.76,12.69c-2.26-0.35-4.33-1.81-4.87-4.13
	c-0.06-0.43,0.1-0.93,0.37-1.29c0.18-0.11,0.39-0.18,0.64-0.2c0.94,0.02,1.83,0.43,2.57,1.04c0.16,0.15,0.42,0.26,0.59,0.05
	c0.22-0.44,0.09-1,0.46-1.36C60,6.27,61.04,6.3,61.56,6.75c0.69,0.72,0.34,1.8,0.03,2.65C61.19,10.6,60.68,11.78,59.76,12.69z
	 M80.87,11.28c0.97,0.74,1.75,1.97,2.18,3.2c0.3,0.85,0.54,2.84-0.91,2.96c-0.76,0.06-1.36-0.36-1.96-0.8
	c-0.29-0.21-0.26-0.47-0.46-0.64c-0.16-0.1-0.4,0.01-0.41,0.2c-0.02,0.44-0.47,0.78-0.84,0.95c-0.77,0.35-1.77-0.15-2.34-0.66
	c-0.22-0.19-0.41-0.43-0.51-0.7c-0.12-0.33-0.08-0.7,0.03-1.04c0.23-0.7,0.7-1.16,1.13-1.72c0.82-1.08,2.07-1.6,3.18-2.28
	C80.08,10.67,80.76,11.2,80.87,11.28z"/>
</svg>
