<?xml version="1.0" encoding="utf-8"?>
<!-- Generator: Adobe Illustrator 23.0.0, SVG Export Plug-In . SVG Version: 6.00 Build 0)  -->
<svg version="1.1" id="Слой_1" xmlns="http://www.w3.org/2000/svg" xmlns:xlink="http://www.w3.org/1999/xlink" x="0px" y="0px"
	 viewBox="0 0 150 90" style="enable-background:new 0 0 150 90;" xml:space="preserve">
<g>
	<path d="M20.46,64.12c-1.79-0.78-3.05-0.64-3.63,0.13c-0.58,0.76-0.46,2.14,0.52,3.58c-0.55,0.22-0.98,0.55-1.35,0.98
		c-0.74,0.87-0.97,2.22-0.14,3.12c1.16,1.26,3.22,0.94,4.62,0.32c0.91-0.41,1.88-0.77,2.69-1.27c0.77-0.48,1.43-1.06,2.08-1.61
		c0.15-0.14,0.07-0.33-0.04-0.48C24.15,67.14,22.63,65.24,20.46,64.12z M23.92,69.88c-0.47,0.36-0.9,0.68-1.46,0.97
		c-0.56,0.29-1.15,0.57-1.75,0.82c-1.48,0.61-3.59,1.24-4.69-0.36c-0.68-1.08,0.35-2.3,1.22-2.88c0.22-0.19,0.93-0.13,0.69-0.56
		c-0.58-1.02-1.94-3.54,0.26-3.74c1.58-0.06,2.91,0.72,4.01,1.73c1.1,1.01,1.98,2.25,2.61,3.29C24.51,69.38,24.23,69.64,23.92,69.88
		z"/>
	<path d="M28.58,49.42c-0.8-1.2-1.75-2.5-3.11-3.15c-2.44-1.02-3.19,2.32-2.47,3.97c-0.14,0.03-0.27,0.06-0.41,0.1
		c-0.57,0.17-1.21,0.46-1.66,0.9c-0.43,0.45-0.72,1.03-0.69,1.68c0.07,1.6,2.03,2.47,3.42,2.45c0.65-0.01,1.27-0.13,1.89-0.22
		c0.64-0.08,1.28-0.16,1.92-0.24c0.46-0.06,0.89-0.16,1.32-0.3c0.29-0.09,0.59-0.17,0.84-0.31c0.11-0.06,0.19-0.13,0.25-0.21
		c0.14-0.18,0.25-0.4,0.19-0.66C29.72,51.84,29.39,50.65,28.58,49.42z M29.39,53.86c-0.66,0.41-1.52,0.51-2.31,0.65
		c-0.63,0.1-1.28,0.17-1.94,0.24c-0.6,0.06-1.21,0.17-1.84,0.13c-1.38-0.07-3.35-1.51-2.31-2.98c0.48-0.72,1.45-1.07,2.32-1.18
		c0.19-0.02,0.38-0.1,0.27-0.32c-0.06-0.13-0.1-0.27-0.15-0.43c-0.34-1.09-0.36-2.81,0.88-3.35c0.59-0.14,1.24,0.1,1.82,0.52
		c0.58,0.43,1.14,1.07,1.65,1.82c1.01,1.49,1.78,3.3,1.81,4.6C29.6,53.69,29.5,53.79,29.39,53.86z"/>
	<path d="M25.02,59.38c-0.45-0.55-0.99-1.07-1.57-1.48c-0.8-0.56-1.62-0.63-2.11-0.3c-0.49,0.33-0.69,1.06-0.36,1.95
		c-0.06,0.02-0.12,0.04-0.18,0.07c-0.52,0.23-0.78,0.78-0.77,1.32c0.01,0.62,0.35,1.18,0.99,1.42c0.89,0.33,2.01,0.17,2.83-0.15
		c0.55-0.22,1.05-0.49,1.56-0.74c0.21-0.1,0.58-0.17,0.6-0.42c0.02-0.29-0.19-0.56-0.36-0.81C25.45,59.94,25.25,59.65,25.02,59.38z"
		/>
	<path d="M35.71,31.87c-0.46,0.13-0.9,0.46-1.2,1.01c-0.28,0.57-0.46,1.32-0.47,2.22c-0.55-0.13-1.13-0.16-1.69-0.04
		c-1.12,0.25-2.2,1.1-2.02,2.37c0.22,1.74,2.05,2.71,3.51,3.02c0.94,0.19,1.95,0.5,2.92,0.6c0.93,0.09,1.82,0.04,2.69,0.01
		c0.21-0.01,0.25-0.23,0.25-0.42c0.08-2.16,0.07-4.5-0.98-6.69C37.75,32.26,36.65,31.62,35.71,31.87z M39.24,40.6
		c-0.39,0.01-0.78,0.04-1.19,0.04c-0.6,0-1.15-0.01-1.78-0.13c-0.64-0.11-1.28-0.25-1.93-0.42c-1.53-0.37-3.56-1.1-3.54-3.1
		c0.13-1.25,1.72-1.57,2.78-1.5c0.29-0.02,0.84,0.47,0.88-0.04c0.06-0.61,0.16-1.63,0.49-2.37c0.37-0.69,0.97-1.1,1.92-0.51
		c1.31,0.91,1.9,2.32,2.16,3.76C39.27,37.75,39.31,39.35,39.24,40.6z"/>
	<path d="M49,24.27c-0.12-0.06-0.25-0.11-0.38-0.15c-1.1-0.39-2.67-0.37-3.43,0.69c-0.65,0.91-0.3,2.11,0.31,2.98
		c0.83,1.18,2.25,1.76,3.4,2.43c0.6,0.34,1.18,0.69,1.79,0.95c0.46,0.2,1.11,0.48,1.54,0.32c0.21-0.08,0.44-0.19,0.53-0.46
		c0.81-2,0.96-2.33,1.24-4.01c0.23-1.36,0.07-3.1-0.63-4.4C52.08,20.45,49.37,22.46,49,24.27z M53.5,26.1
		c-0.1,1.74-0.54,3.53-1.09,4.52c-0.14,0.28-0.41,0.41-0.7,0.37c-0.65-0.1-1.29-0.44-1.94-0.78c-0.57-0.31-1.14-0.65-1.72-0.99
		c-0.53-0.31-1.09-0.61-1.57-1.02c-1.08-0.89-1.79-3.21-0.05-3.72c0.84-0.24,1.79-0.02,2.54,0.39c0.16,0.09,0.36,0.13,0.4-0.11
		c0.02-0.15,0.07-0.29,0.13-0.45c0.39-1.05,1.42-2.41,2.76-2.06C53.34,22.73,53.59,24.37,53.5,26.1z"/>
	<path d="M41.84,30.57c-0.06-0.02-0.12-0.04-0.19-0.06c-0.56-0.13-1.12,0.12-1.42,0.57c-0.34,0.53-0.38,1.21-0.01,1.78
		c0.52,0.8,1.5,1.32,2.33,1.53c0.57,0.12,1.13,0.23,1.69,0.34c0.23,0.05,0.57,0.21,0.74,0.03c0.2-0.21,0.19-0.55,0.21-0.85
		c0.02-0.34,0.03-0.69,0.02-1.04c-0.03-0.7-0.14-1.42-0.37-2.11C44.22,28.85,42.42,28.77,41.84,30.57z"/>
	<path d="M67.12,18.69c-0.1-0.1-0.2-0.19-0.31-0.28c-0.93-0.83-2.41-1.24-3.46-0.45c-1.28,0.96-0.88,3.07-0.07,4.21
		c0.52,0.73,1.19,1.47,1.76,2.12c0.58,0.67,1.16,1.19,1.81,1.7c0.29,0.22,0.67,0.51,1.02,0.55c0.23,0.04,0.46-0.01,0.65-0.21
		c1.23-1.21,1.9-2.12,2.46-3.48c0.53-1.31,1.05-2.95,0.81-4.4C71.25,15.98,68.07,17.14,67.12,18.69z M70.97,21.67
		c-0.6,1.57-1.61,3.17-2.64,4.11c-0.24,0.22-0.59,0.23-0.89,0.05c-0.56-0.36-1.03-0.82-1.5-1.33c-0.44-0.46-0.87-0.96-1.3-1.46
		c-0.39-0.46-0.83-0.91-1.16-1.44c-0.73-1.18-0.66-3.61,1.14-3.59c0.44,0.01,0.86,0.13,1.25,0.35c0.39,0.23,0.74,0.54,1.03,0.87
		c0.13,0.14,0.3,0.25,0.42,0.05c0.07-0.13,0.16-0.24,0.27-0.37c0.7-0.89,2.11-1.88,3.26-1.15C71.73,18.56,71.56,20.1,70.97,21.67z"
		/>
	<path d="M58.32,22.34c-0.05-0.04-0.1-0.08-0.16-0.11c-0.49-0.3-1.08-0.2-1.52,0.11c-0.51,0.36-0.77,0.96-0.61,1.62
		c0.23,0.92,1,1.75,1.73,2.25c0.49,0.33,1,0.59,1.49,0.87c0.2,0.11,0.47,0.38,0.69,0.25c0.25-0.15,0.35-0.48,0.46-0.76
		c0.13-0.32,0.25-0.66,0.35-1c0.2-0.68,0.32-1.42,0.32-2.14C61.11,21.41,59.43,20.76,58.32,22.34z"/>
	<path d="M32.78,44.74c-0.24-0.64-0.56-1.28-1-1.86c-0.6-0.79-1.33-1.09-1.92-0.94c-0.59,0.15-1.07,0.73-0.99,1.7
		c-0.06,0-0.13,0-0.19,0.01c-0.56,0.06-0.96,0.51-1.11,1.03c-0.17,0.6-0.01,1.24,0.52,1.67c0.75,0.59,1.85,0.78,2.72,0.73
		c0.58-0.04,1.14-0.15,1.69-0.23c0.22-0.03,0.6,0.01,0.68-0.23c0.1-0.27-0.02-0.6-0.11-0.89C33,45.39,32.9,45.06,32.78,44.74z"/>
	<path d="M87.42,18.24c-0.76-0.58-2.14-0.46-3.58,0.52c-0.22-0.55-0.55-0.98-0.98-1.35c-0.87-0.74-2.22-0.97-3.12-0.14
		c-1.26,1.16-0.94,3.22-0.32,4.62c0.41,0.91,0.77,1.88,1.27,2.69c0.48,0.77,1.06,1.43,1.61,2.08c0.14,0.15,0.33,0.07,0.48-0.04
		c1.75-1.06,3.65-2.59,4.77-4.76C88.34,20.07,88.2,18.82,87.42,18.24z M85.83,23.6c-1.01,1.1-2.25,1.98-3.29,2.61
		c-0.24-0.3-0.5-0.58-0.74-0.89c-0.36-0.47-0.68-0.9-0.97-1.46c-0.29-0.56-0.57-1.15-0.82-1.75c-0.61-1.48-1.24-3.59,0.36-4.69
		c1.08-0.68,2.3,0.35,2.88,1.22c0.19,0.22,0.13,0.93,0.56,0.69c1.02-0.58,3.54-1.94,3.74,0.26C87.62,21.17,86.84,22.5,85.83,23.6z"
		/>
	<path d="M101.44,24.39c-0.03-0.14-0.06-0.27-0.1-0.41c-0.17-0.57-0.46-1.21-0.9-1.66c-0.45-0.43-1.03-0.72-1.68-0.69
		c-1.6,0.07-2.47,2.03-2.45,3.42c0.01,0.65,0.13,1.27,0.22,1.89c0.08,0.64,0.16,1.28,0.24,1.92c0.06,0.46,0.16,0.89,0.3,1.32
		c0.09,0.29,0.17,0.59,0.31,0.84c0.06,0.11,0.13,0.19,0.21,0.25c0.18,0.14,0.4,0.25,0.66,0.19c1.59-0.35,2.78-0.68,4.01-1.49
		c1.2-0.8,2.5-1.75,3.15-3.11C106.43,24.43,103.09,23.67,101.44,24.39z M104.52,27.54c-0.43,0.58-1.07,1.14-1.82,1.65
		c-1.49,1.01-3.3,1.78-4.6,1.81c-0.12,0-0.22-0.1-0.28-0.2c-0.41-0.66-0.51-1.52-0.65-2.31c-0.1-0.63-0.17-1.28-0.24-1.94
		c-0.06-0.6-0.17-1.22-0.13-1.84c0.07-1.38,1.51-3.35,2.98-2.31c0.72,0.48,1.07,1.45,1.18,2.32c0.02,0.19,0.1,0.38,0.32,0.27
		c0.13-0.06,0.27-0.1,0.43-0.15c1.09-0.34,2.81-0.36,3.35,0.88C105.19,26.3,104.95,26.96,104.52,27.54z"/>
	<path d="M92.13,22.39c-0.02-0.06-0.04-0.12-0.07-0.18c-0.23-0.52-0.78-0.78-1.32-0.77c-0.62,0.01-1.18,0.35-1.42,0.99
		c-0.33,0.89-0.17,2.01,0.15,2.83c0.22,0.55,0.49,1.05,0.74,1.56c0.1,0.21,0.17,0.58,0.42,0.6c0.29,0.02,0.56-0.19,0.81-0.36
		c0.29-0.19,0.58-0.4,0.86-0.63c0.55-0.45,1.07-0.99,1.48-1.57c0.56-0.8,0.63-1.62,0.3-2.11C93.74,22.26,93.02,22.06,92.13,22.39z"
		/>
	<path d="M75.42,20.01c-0.04-0.05-0.08-0.11-0.12-0.16c-0.38-0.43-0.98-0.51-1.49-0.35c-0.59,0.19-1.01,0.69-1.04,1.36
		c-0.04,0.95,0.46,1.97,1.01,2.66c0.38,0.46,0.79,0.86,1.18,1.28c0.16,0.17,0.34,0.5,0.59,0.44c0.28-0.06,0.47-0.35,0.66-0.59
		c0.22-0.27,0.43-0.55,0.62-0.85c0.38-0.59,0.71-1.25,0.92-1.95C78.35,19.92,76.93,18.84,75.42,20.01z"/>
	<path d="M119.81,37.11c-0.13-0.46-0.46-0.9-1.01-1.2c-0.57-0.28-1.32-0.46-2.22-0.47c0.13-0.55,0.16-1.13,0.04-1.69
		c-0.25-1.12-1.1-2.2-2.37-2.02c-1.74,0.22-2.71,2.05-3.02,3.51c-0.19,0.94-0.5,1.95-0.6,2.92c-0.09,0.93-0.04,1.82-0.01,2.69
		c0.01,0.21,0.23,0.25,0.42,0.25c2.16,0.08,4.5,0.07,6.69-0.98C119.41,39.15,120.06,38.05,119.81,37.11z M111.08,40.64
		c-0.01-0.39-0.04-0.78-0.04-1.19c0-0.6,0.01-1.15,0.13-1.78c0.11-0.64,0.25-1.28,0.42-1.93c0.37-1.53,1.1-3.56,3.1-3.54
		c1.25,0.13,1.57,1.72,1.5,2.78c0.02,0.29-0.47,0.84,0.04,0.88c0.61,0.06,1.63,0.16,2.37,0.49c0.69,0.37,1.1,0.97,0.51,1.92
		c-0.91,1.31-2.32,1.9-3.76,2.16C113.93,40.67,112.32,40.71,111.08,40.64z"/>
	<path d="M129.07,54.78c2.16-1.3,0.15-4-1.66-4.38c0.06-0.12,0.11-0.25,0.15-0.38c0.39-1.1,0.37-2.67-0.69-3.43
		c-0.91-0.65-2.11-0.3-2.98,0.31c-1.18,0.83-1.76,2.25-2.43,3.4c-0.34,0.6-0.69,1.18-0.95,1.79c-0.2,0.46-0.48,1.11-0.32,1.55
		c0.08,0.21,0.19,0.44,0.46,0.53c2,0.81,2.33,0.96,4.01,1.24C126.03,55.64,127.76,55.48,129.07,54.78z M120.69,53.11
		c0.1-0.65,0.44-1.29,0.78-1.94c0.31-0.57,0.65-1.14,0.99-1.72c0.31-0.53,0.61-1.09,1.02-1.57c0.89-1.08,3.21-1.79,3.72-0.05
		c0.24,0.84,0.02,1.79-0.39,2.54c-0.09,0.16-0.13,0.36,0.11,0.4c0.15,0.02,0.29,0.07,0.45,0.13c1.05,0.39,2.41,1.42,2.06,2.76
		c-0.49,1.09-2.13,1.35-3.86,1.26c-1.74-0.1-3.53-0.54-4.52-1.09C120.78,53.67,120.65,53.41,120.69,53.11z"/>
	<path d="M121.11,43.24c0.02-0.06,0.04-0.12,0.06-0.19c0.13-0.56-0.12-1.12-0.57-1.42c-0.53-0.34-1.21-0.38-1.78-0.01
		c-0.8,0.52-1.32,1.5-1.53,2.33c-0.12,0.57-0.23,1.13-0.34,1.69c-0.05,0.23-0.21,0.57-0.03,0.74c0.21,0.2,0.55,0.19,0.85,0.21
		c0.34,0.02,0.69,0.03,1.04,0.02c0.7-0.03,1.42-0.14,2.11-0.37C122.83,45.62,122.91,43.82,121.11,43.24z"/>
	<path d="M132.99,68.53c0.1-0.1,0.19-0.2,0.28-0.31c0.83-0.93,1.24-2.41,0.45-3.46c-0.96-1.28-3.07-0.88-4.21-0.07
		c-0.73,0.52-1.47,1.19-2.12,1.76c-0.67,0.58-1.19,1.16-1.7,1.81c-0.22,0.29-0.51,0.67-0.55,1.02c-0.04,0.23,0.01,0.46,0.21,0.65
		c1.21,1.23,2.12,1.9,3.48,2.46c1.31,0.53,2.95,1.05,4.4,0.81C135.7,72.65,134.53,69.47,132.99,68.53z M133.92,72.25
		c-0.81,0.88-2.34,0.72-3.91,0.12c-1.57-0.6-3.17-1.61-4.11-2.64c-0.22-0.24-0.23-0.59-0.05-0.89c0.36-0.56,0.82-1.03,1.33-1.5
		c0.46-0.44,0.96-0.87,1.46-1.3c0.46-0.39,0.91-0.83,1.44-1.16c1.18-0.73,3.61-0.66,3.59,1.14c-0.01,0.44-0.13,0.86-0.35,1.25
		c-0.23,0.39-0.54,0.74-0.87,1.03c-0.14,0.13-0.25,0.3-0.05,0.42c0.13,0.07,0.24,0.16,0.37,0.27
		C133.66,69.69,134.65,71.1,133.92,72.25z"/>
	<path d="M128.26,62.49c2.02,0.03,2.66-1.65,1.08-2.76c0.04-0.05,0.08-0.1,0.11-0.16c0.3-0.49,0.2-1.08-0.11-1.52
		c-0.36-0.51-0.96-0.77-1.62-0.61c-0.92,0.23-1.75,1-2.25,1.73c-0.33,0.49-0.59,1-0.87,1.49c-0.11,0.2-0.38,0.47-0.25,0.69
		c0.15,0.25,0.48,0.35,0.76,0.46c0.32,0.13,0.66,0.25,1,0.35C126.8,62.36,127.53,62.48,128.26,62.49z"/>
	<path d="M108.04,30.27c0-0.06,0-0.13-0.01-0.19c-0.06-0.56-0.51-0.96-1.03-1.11c-0.6-0.17-1.24-0.01-1.67,0.52
		c-0.59,0.75-0.78,1.85-0.73,2.72c0.04,0.58,0.15,1.14,0.23,1.69c0.03,0.22-0.01,0.6,0.22,0.68c0.27,0.1,0.6-0.02,0.89-0.11
		c0.33-0.08,0.65-0.18,0.98-0.3c0.64-0.24,1.28-0.56,1.86-1c0.79-0.6,1.09-1.33,0.94-1.92C109.6,30.67,109.02,30.2,108.04,30.27z"/>
</g>
</svg>
