<?xml version="1.0" encoding="utf-8"?>
<!-- Generator: Adobe Illustrator 23.0.0, SVG Export Plug-In . SVG Version: 6.00 Build 0)  -->
<svg version="1.1" id="Слой_1" xmlns="http://www.w3.org/2000/svg" xmlns:xlink="http://www.w3.org/1999/xlink" x="0px" y="0px"
	 viewBox="0 0 100 21.28" style="enable-background:new 0 0 100 21.28;" xml:space="preserve">
<g>
	<path d="M18.45,10.91c-0.79-1.93-1.97-3.69-3.09-5.42c-0.41-0.63-1.57-2.43-2.48-1.51c-1.48,1.5-2.81,3.23-3.91,5.03
		c-0.76,1.24-1.41,2.54-1.91,3.9c-0.51,1.36-0.86,2.78-1.03,4.22c-0.06,0.49,0.26,0.43,0.39,0.43c0.06,0,0.11,0,0.16,0
		c1.46-0.02,2.92-0.05,4.38-0.08c1.8-0.03,3.61-0.07,5.41-0.1c0.69-0.01,1.38-0.03,2.07-0.04c0.37-0.01,0.73-0.01,1.1-0.02
		c0.42-0.01,0.24-1.05,0.21-1.29C19.53,14.32,19.1,12.49,18.45,10.91z M9.8,16.28c-0.71,1.11-1.87-0.07-1-0.84
		c0.2-0.17,0.46-0.26,0.72-0.15C9.9,15.46,10.01,15.95,9.8,16.28z M8.73,14.47c-0.47-0.41-0.21-1.02,0.22-1.31
		c0.36-0.25,0.85-0.26,1.08,0.29C10.32,14.17,9.37,15.03,8.73,14.47z M9.93,11.05c0.09-0.46,0.39-1.05,0.89-1.15
		c0.6-0.12,1.08,0.47,1.02,1.03c-0.05,0.51-0.46,1.12-0.98,1.24C10.17,12.34,9.82,11.64,9.93,11.05z M13.18,16.96
		c-0.35,0.01-0.71,0.01-1.06,0.02c-0.03,0-0.07,0-0.1,0c0-0.01,0-0.03,0-0.05c0.01-0.69,0.2-1.33,0.39-2.01
		c0.21-0.63,0.42-1.31,0.68-1.94c-0.02,0.89,0.07,2.05,0.07,2.25C13.18,15.8,13.2,16.37,13.18,16.96z M13.64,16.95
		c0.06-1.46-0.13-2.91-0.06-4.36c0.58,1.37,0.84,2.85,0.96,4.34C14.24,16.94,13.95,16.95,13.64,16.95z M15,16.93
		c0-0.06,0.01-0.12,0.01-0.18c0-0.97-0.25-1.96-0.5-2.89c-0.13-0.47-0.27-0.95-0.45-1.4c-0.09-0.23-0.28-0.85-0.62-0.76
		c-0.28,0.08-0.44,0.35-0.57,0.58c-0.45,0.82-0.71,1.75-0.95,2.65c-0.17,0.66-0.38,1.35-0.38,2.03c0,0.01,0,0.02,0,0.03
		c-0.2,0-0.4,0.01-0.6,0.01c-0.03,0,0.04-0.93,0.06-1.01c0.09-0.45,0.18-0.91,0.3-1.35c0.1-0.36,0.21-0.71,0.34-1.06
		c0.13-0.35,0.28-0.68,0.46-1.01c0.17-0.33,0.37-0.65,0.58-0.95c0.11-0.15,0.22-0.3,0.34-0.44c0.06-0.07,0.12-0.14,0.18-0.21
		c0.03-0.04,0.06-0.07,0.09-0.1c0.03-0.04,0.05-0.07,0.08-0.08c0.09-0.04,0.14,0.05,0.19,0.1c0.05,0.06,0.1,0.12,0.15,0.18
		c0.22,0.26,0.41,0.55,0.58,0.85c0.17,0.3,0.31,0.61,0.43,0.93c0.12,0.32,0.23,0.65,0.32,0.98c0.09,0.34,0.17,0.67,0.24,1.02
		c0.07,0.34,0.13,0.68,0.19,1.03c0.03,0.17,0.06,0.34,0.09,0.51c0.01,0.08,0.03,0.17,0.04,0.25c0.01,0.04,0.01,0.08,0.02,0.13
		c0,0.03,0,0.1,0.02,0.12c0.02,0.02,0.04,0.04,0.05,0.06C15.47,16.92,15.23,16.92,15,16.93z M12.29,7.75
		c0.12-0.54,0.54-1.01,1.1-1.1c1.44-0.24,1.25,1.89,0.35,2.4C12.81,9.58,12.1,8.61,12.29,7.75z M15.33,9.5
		c0.69-0.1,1.01,0.7,0.94,1.26c-0.1,0.78-1.07,1.18-1.54,0.44C14.36,10.64,14.57,9.61,15.33,9.5z M15.78,13.32
		c-0.06-0.16-0.05-0.34-0.03-0.51c0.05-0.33,0.21-0.53,0.41-0.62c0.43-0.19,1.03,0.14,0.97,0.81c-0.03,0.33-0.29,0.64-0.62,0.71
		C16.2,13.79,15.88,13.63,15.78,13.32z M17.84,15.46c-0.15,0.8-1.23,0.99-1.43,0.11c-0.07-0.31,0.07-0.63,0.3-0.84
		C17.31,14.2,17.98,14.74,17.84,15.46z M18.98,16.85c0.01-0.03,0.01-0.05,0-0.08c-0.15-0.82-0.27-1.64-0.49-2.45
		c-0.18-0.63-0.38-1.26-0.61-1.88c-0.53-1.45-1.2-2.86-1.96-4.21c-0.38-0.67-0.8-1.33-1.23-1.97c-0.22-0.32-0.44-0.64-0.67-0.95
		c-0.19-0.25-0.34-0.55-0.68-0.33c-0.14,0.09-0.24,0.22-0.36,0.34c-1,1.06-1.93,2.2-2.74,3.41c-0.82,1.22-1.52,2.52-2.05,3.89
		c-0.52,1.36-0.86,2.78-0.96,4.23c-0.01,0.07,0,0.15,0.02,0.22c-0.22,0-0.45,0.01-0.68,0.01c-0.01,0-0.02,0-0.03,0
		c-0.01,0-0.06,0-0.07,0c0-0.04,0-0.04,0.02-0.12c0.05-0.63,0.14-1.25,0.27-1.86c0.15-0.7,0.36-1.4,0.61-2.07
		c0.25-0.68,0.54-1.34,0.87-1.99c0.33-0.65,0.7-1.28,1.09-1.89c0.4-0.62,0.82-1.21,1.27-1.8c0.45-0.58,0.91-1.14,1.4-1.69
		c0.24-0.27,0.48-0.54,0.73-0.81c0.12-0.13,0.25-0.26,0.37-0.39c0.06-0.06,0.12-0.13,0.19-0.19c0.05-0.05,0.13-0.15,0.21-0.1
		c0.93,0.55,1.39,1.63,2.02,2.47c2.21,2.99,3.5,6.5,3.84,10.2C19.23,16.85,19.1,16.85,18.98,16.85z"/>
	<path d="M33.29,10.91c-0.79-1.93-1.97-3.69-3.09-5.42c-0.41-0.63-1.57-2.43-2.48-1.51c-1.48,1.5-2.81,3.23-3.91,5.03
		c-0.76,1.24-1.41,2.54-1.91,3.9c-0.51,1.36-0.86,2.78-1.03,4.22c-0.06,0.49,0.26,0.43,0.39,0.43c0.06,0,0.11,0,0.16,0
		c1.46-0.02,2.92-0.05,4.38-0.08c1.8-0.03,3.61-0.07,5.41-0.1c0.69-0.01,1.38-0.03,2.07-0.04c0.37-0.01,0.73-0.01,1.1-0.02
		c0.42-0.01,0.24-1.05,0.21-1.29C34.37,14.32,33.93,12.49,33.29,10.91z M24.63,16.28c-0.71,1.11-1.87-0.07-1-0.84
		c0.2-0.17,0.46-0.26,0.72-0.15C24.73,15.46,24.84,15.95,24.63,16.28z M23.56,14.47c-0.47-0.41-0.21-1.02,0.22-1.31
		c0.36-0.25,0.85-0.26,1.08,0.29C25.16,14.17,24.2,15.03,23.56,14.47z M24.76,11.05c0.09-0.46,0.39-1.05,0.89-1.15
		c0.6-0.12,1.08,0.47,1.02,1.03c-0.05,0.51-0.46,1.12-0.98,1.24C25.01,12.34,24.65,11.64,24.76,11.05z M28.01,16.96
		c-0.35,0.01-0.71,0.01-1.06,0.02c-0.03,0-0.07,0-0.1,0c0-0.01,0-0.03,0-0.05c0.01-0.69,0.2-1.33,0.39-2.01
		c0.21-0.63,0.42-1.31,0.68-1.94c-0.02,0.89,0.07,2.05,0.07,2.25C28.01,15.8,28.04,16.37,28.01,16.96z M28.48,16.95
		c0.06-1.46-0.13-2.91-0.06-4.36c0.58,1.37,0.84,2.85,0.96,4.34C29.08,16.94,28.78,16.95,28.48,16.95z M29.83,16.93
		c0-0.06,0.01-0.12,0.01-0.18c0-0.97-0.25-1.96-0.5-2.89c-0.13-0.47-0.27-0.95-0.45-1.4c-0.09-0.23-0.28-0.85-0.62-0.76
		c-0.28,0.08-0.44,0.35-0.57,0.58c-0.45,0.82-0.71,1.75-0.95,2.65c-0.17,0.66-0.38,1.35-0.38,2.03c0,0.01,0,0.02,0,0.03
		c-0.2,0-0.4,0.01-0.6,0.01c-0.03,0,0.04-0.93,0.06-1.01c0.09-0.45,0.18-0.91,0.3-1.35c0.1-0.36,0.21-0.71,0.34-1.06
		c0.13-0.35,0.28-0.68,0.46-1.01c0.17-0.33,0.37-0.65,0.58-0.95c0.11-0.15,0.22-0.3,0.34-0.44c0.06-0.07,0.12-0.14,0.18-0.21
		c0.03-0.04,0.06-0.07,0.09-0.1c0.03-0.04,0.05-0.07,0.08-0.08c0.09-0.04,0.14,0.05,0.19,0.1c0.05,0.06,0.1,0.12,0.15,0.18
		c0.22,0.26,0.41,0.55,0.58,0.85c0.17,0.3,0.31,0.61,0.43,0.93c0.12,0.32,0.23,0.65,0.32,0.98c0.09,0.34,0.17,0.67,0.24,1.02
		c0.07,0.34,0.13,0.68,0.19,1.03c0.03,0.17,0.06,0.34,0.09,0.51c0.01,0.08,0.03,0.17,0.04,0.25c0.01,0.04,0.01,0.08,0.02,0.13
		c0,0.03,0,0.1,0.02,0.12c0.02,0.02,0.04,0.04,0.05,0.06C30.3,16.92,30.07,16.92,29.83,16.93z M27.12,7.75
		c0.12-0.54,0.54-1.01,1.1-1.1c1.44-0.24,1.25,1.89,0.35,2.4C27.64,9.58,26.93,8.61,27.12,7.75z M30.16,9.5
		c0.69-0.1,1.01,0.7,0.94,1.26c-0.1,0.78-1.07,1.18-1.54,0.44C29.19,10.64,29.4,9.61,30.16,9.5z M30.61,13.32
		c-0.06-0.16-0.05-0.34-0.03-0.51c0.05-0.33,0.21-0.53,0.41-0.62c0.43-0.19,1.03,0.14,0.97,0.81c-0.03,0.33-0.29,0.64-0.62,0.71
		C31.03,13.79,30.72,13.63,30.61,13.32z M32.68,15.46c-0.15,0.8-1.23,0.99-1.43,0.11c-0.07-0.31,0.07-0.63,0.3-0.84
		C32.15,14.2,32.81,14.74,32.68,15.46z M33.81,16.85c0.01-0.03,0.01-0.05,0-0.08c-0.15-0.82-0.27-1.64-0.49-2.45
		c-0.18-0.63-0.38-1.26-0.61-1.88c-0.53-1.45-1.2-2.86-1.96-4.21c-0.38-0.67-0.8-1.33-1.23-1.97c-0.22-0.32-0.44-0.64-0.67-0.95
		c-0.19-0.25-0.34-0.55-0.68-0.33c-0.14,0.09-0.24,0.22-0.36,0.34c-1,1.06-1.93,2.2-2.74,3.41c-0.82,1.22-1.52,2.52-2.05,3.89
		c-0.52,1.36-0.86,2.78-0.96,4.23c-0.01,0.07,0,0.15,0.02,0.22c-0.22,0-0.45,0.01-0.68,0.01c-0.01,0-0.02,0-0.03,0
		c-0.01,0-0.06,0-0.07,0c0-0.04,0-0.04,0.02-0.12c0.05-0.63,0.14-1.25,0.27-1.86c0.15-0.7,0.36-1.4,0.61-2.07
		c0.25-0.68,0.54-1.34,0.87-1.99c0.33-0.65,0.7-1.28,1.09-1.89c0.4-0.62,0.82-1.21,1.27-1.8c0.45-0.58,0.91-1.14,1.4-1.69
		c0.24-0.27,0.48-0.54,0.73-0.81c0.12-0.13,0.25-0.26,0.37-0.39c0.06-0.06,0.12-0.13,0.19-0.19c0.05-0.05,0.13-0.15,0.21-0.1
		c0.93,0.55,1.39,1.63,2.02,2.47c2.21,2.99,3.5,6.5,3.84,10.2C34.06,16.85,33.93,16.85,33.81,16.85z"/>
	<path d="M48.12,10.91c-0.79-1.93-1.97-3.69-3.09-5.42c-0.41-0.63-1.57-2.43-2.48-1.51c-1.48,1.5-2.81,3.23-3.91,5.03
		c-0.76,1.24-1.41,2.54-1.91,3.9c-0.51,1.36-0.86,2.78-1.03,4.22c-0.06,0.49,0.26,0.43,0.39,0.43c0.06,0,0.11,0,0.16,0
		c1.46-0.02,2.92-0.05,4.38-0.08c1.8-0.03,3.61-0.07,5.41-0.1c0.69-0.01,1.38-0.03,2.07-0.04c0.37-0.01,0.73-0.01,1.1-0.02
		c0.42-0.01,0.24-1.05,0.21-1.29C49.2,14.32,48.77,12.49,48.12,10.91z M39.46,16.28c-0.71,1.11-1.87-0.07-1-0.84
		c0.2-0.17,0.46-0.26,0.72-0.15C39.56,15.46,39.68,15.95,39.46,16.28z M38.39,14.47c-0.47-0.41-0.21-1.02,0.22-1.31
		c0.36-0.25,0.85-0.26,1.08,0.29C39.99,14.17,39.04,15.03,38.39,14.47z M39.59,11.05c0.09-0.46,0.39-1.05,0.89-1.15
		c0.6-0.12,1.08,0.47,1.02,1.03c-0.05,0.51-0.46,1.12-0.98,1.24C39.84,12.34,39.48,11.64,39.59,11.05z M42.84,16.96
		c-0.35,0.01-0.71,0.01-1.06,0.02c-0.03,0-0.07,0-0.1,0c0-0.01,0-0.03,0-0.05c0.01-0.69,0.2-1.33,0.39-2.01
		c0.21-0.63,0.42-1.31,0.68-1.94c-0.02,0.89,0.07,2.05,0.07,2.25C42.84,15.8,42.87,16.37,42.84,16.96z M43.31,16.95
		c0.06-1.46-0.13-2.91-0.06-4.36c0.58,1.37,0.84,2.85,0.96,4.34C43.91,16.94,43.61,16.95,43.31,16.95z M44.67,16.93
		c0-0.06,0.01-0.12,0.01-0.18c0-0.97-0.25-1.96-0.5-2.89c-0.13-0.47-0.27-0.95-0.45-1.4c-0.09-0.23-0.28-0.85-0.62-0.76
		c-0.28,0.08-0.44,0.35-0.57,0.58c-0.45,0.82-0.71,1.75-0.95,2.65c-0.17,0.66-0.38,1.35-0.38,2.03c0,0.01,0,0.02,0,0.03
		c-0.2,0-0.4,0.01-0.6,0.01c-0.03,0,0.04-0.93,0.06-1.01c0.09-0.45,0.18-0.91,0.3-1.35c0.1-0.36,0.21-0.71,0.34-1.06
		c0.13-0.35,0.28-0.68,0.46-1.01c0.17-0.33,0.37-0.65,0.58-0.95c0.11-0.15,0.22-0.3,0.34-0.44c0.06-0.07,0.12-0.14,0.18-0.21
		c0.03-0.04,0.06-0.07,0.09-0.1c0.03-0.04,0.05-0.07,0.08-0.08c0.09-0.04,0.14,0.05,0.19,0.1c0.05,0.06,0.1,0.12,0.15,0.18
		c0.22,0.26,0.41,0.55,0.58,0.85c0.17,0.3,0.31,0.61,0.43,0.93c0.12,0.32,0.23,0.65,0.32,0.98c0.09,0.34,0.17,0.67,0.24,1.02
		c0.07,0.34,0.13,0.68,0.19,1.03c0.03,0.17,0.06,0.34,0.09,0.51c0.01,0.08,0.03,0.17,0.04,0.25c0.01,0.04,0.01,0.08,0.02,0.13
		c0,0.03,0,0.1,0.02,0.12c0.02,0.02,0.04,0.04,0.05,0.06C45.13,16.92,44.9,16.92,44.67,16.93z M41.95,7.75
		c0.12-0.54,0.54-1.01,1.1-1.1c1.44-0.24,1.25,1.89,0.35,2.4C42.47,9.58,41.77,8.61,41.95,7.75z M44.99,9.5
		c0.69-0.1,1.01,0.7,0.94,1.26c-0.1,0.78-1.07,1.18-1.54,0.44C44.03,10.64,44.23,9.61,44.99,9.5z M45.44,13.32
		c-0.06-0.16-0.05-0.34-0.03-0.51c0.05-0.33,0.21-0.53,0.41-0.62c0.43-0.19,1.03,0.14,0.97,0.81c-0.03,0.33-0.29,0.64-0.62,0.71
		C45.86,13.79,45.55,13.63,45.44,13.32z M47.51,15.46c-0.15,0.8-1.23,0.99-1.43,0.11c-0.07-0.31,0.07-0.63,0.3-0.84
		C46.98,14.2,47.65,14.74,47.51,15.46z M48.64,16.85c0.01-0.03,0.01-0.05,0-0.08c-0.15-0.82-0.27-1.64-0.49-2.45
		c-0.18-0.63-0.38-1.26-0.61-1.88c-0.53-1.45-1.2-2.86-1.96-4.21c-0.38-0.67-0.8-1.33-1.23-1.97c-0.22-0.32-0.44-0.64-0.67-0.95
		c-0.19-0.25-0.34-0.55-0.68-0.33c-0.14,0.09-0.24,0.22-0.36,0.34c-1,1.06-1.93,2.2-2.74,3.41c-0.82,1.22-1.52,2.52-2.05,3.89
		c-0.52,1.36-0.86,2.78-0.96,4.23c-0.01,0.07,0,0.15,0.02,0.22c-0.22,0-0.45,0.01-0.68,0.01c-0.01,0-0.02,0-0.03,0
		c-0.01,0-0.06,0-0.07,0c0-0.04,0-0.04,0.02-0.12c0.05-0.63,0.14-1.25,0.27-1.86c0.15-0.7,0.36-1.4,0.61-2.07
		c0.25-0.68,0.54-1.34,0.87-1.99c0.33-0.65,0.7-1.28,1.09-1.89c0.4-0.62,0.82-1.21,1.27-1.8c0.45-0.58,0.91-1.14,1.4-1.69
		c0.24-0.27,0.48-0.54,0.73-0.81c0.12-0.13,0.25-0.26,0.37-0.39c0.06-0.06,0.12-0.13,0.19-0.19c0.05-0.05,0.13-0.15,0.21-0.1
		c0.93,0.55,1.39,1.63,2.02,2.47c2.21,2.99,3.5,6.5,3.84,10.2C48.89,16.85,48.77,16.85,48.64,16.85z"/>
	<path d="M62.95,10.91c-0.79-1.93-1.97-3.69-3.09-5.42c-0.41-0.63-1.57-2.43-2.48-1.51c-1.48,1.5-2.81,3.23-3.91,5.03
		c-0.76,1.24-1.41,2.54-1.91,3.9c-0.51,1.36-0.86,2.78-1.03,4.22c-0.06,0.49,0.26,0.43,0.39,0.43c0.06,0,0.11,0,0.16,0
		c1.46-0.02,2.92-0.05,4.38-0.08c1.8-0.03,3.61-0.07,5.41-0.1c0.69-0.01,1.38-0.03,2.07-0.04c0.37-0.01,0.73-0.01,1.1-0.02
		c0.42-0.01,0.24-1.05,0.21-1.29C64.03,14.32,63.6,12.49,62.95,10.91z M54.29,16.28c-0.71,1.11-1.87-0.07-1-0.84
		c0.2-0.17,0.46-0.26,0.72-0.15C54.4,15.46,54.51,15.95,54.29,16.28z M53.23,14.47c-0.47-0.41-0.21-1.02,0.22-1.31
		c0.36-0.25,0.85-0.26,1.08,0.29C54.82,14.17,53.87,15.03,53.23,14.47z M54.42,11.05c0.09-0.46,0.39-1.05,0.89-1.15
		c0.6-0.12,1.08,0.47,1.02,1.03c-0.05,0.51-0.46,1.12-0.98,1.24C54.67,12.34,54.31,11.64,54.42,11.05z M57.67,16.96
		c-0.35,0.01-0.71,0.01-1.06,0.02c-0.03,0-0.07,0-0.1,0c0-0.01,0-0.03,0-0.05c0.01-0.69,0.2-1.33,0.39-2.01
		c0.21-0.63,0.42-1.31,0.68-1.94c-0.02,0.89,0.07,2.05,0.07,2.25C57.67,15.8,57.7,16.37,57.67,16.96z M58.14,16.95
		c0.06-1.46-0.13-2.91-0.06-4.36c0.58,1.37,0.84,2.85,0.96,4.34C58.74,16.94,58.44,16.95,58.14,16.95z M59.5,16.93
		c0-0.06,0.01-0.12,0.01-0.18c0-0.97-0.25-1.96-0.5-2.89c-0.13-0.47-0.27-0.95-0.45-1.4c-0.09-0.23-0.28-0.85-0.62-0.76
		c-0.28,0.08-0.44,0.35-0.57,0.58c-0.45,0.82-0.71,1.75-0.95,2.65c-0.17,0.66-0.38,1.35-0.38,2.03c0,0.01,0,0.02,0,0.03
		c-0.2,0-0.4,0.01-0.6,0.01c-0.03,0,0.04-0.93,0.06-1.01c0.09-0.45,0.18-0.91,0.3-1.35c0.1-0.36,0.21-0.71,0.34-1.06
		c0.13-0.35,0.28-0.68,0.46-1.01c0.17-0.33,0.37-0.65,0.58-0.95c0.11-0.15,0.22-0.3,0.34-0.44c0.06-0.07,0.12-0.14,0.18-0.21
		c0.03-0.04,0.06-0.07,0.09-0.1c0.03-0.04,0.05-0.07,0.08-0.08c0.09-0.04,0.14,0.05,0.19,0.1c0.05,0.06,0.1,0.12,0.15,0.18
		c0.22,0.26,0.41,0.55,0.58,0.85c0.17,0.3,0.31,0.61,0.43,0.93c0.12,0.32,0.23,0.65,0.32,0.98c0.09,0.34,0.17,0.67,0.24,1.02
		c0.07,0.34,0.13,0.68,0.19,1.03c0.03,0.17,0.06,0.34,0.09,0.51c0.01,0.08,0.03,0.17,0.04,0.25c0.01,0.04,0.01,0.08,0.02,0.13
		c0,0.03,0,0.1,0.02,0.12c0.02,0.02,0.04,0.04,0.05,0.06C59.96,16.92,59.73,16.92,59.5,16.93z M56.78,7.75
		c0.12-0.54,0.54-1.01,1.1-1.1c1.44-0.24,1.25,1.89,0.35,2.4C57.3,9.58,56.6,8.61,56.78,7.75z M59.83,9.5
		c0.69-0.1,1.01,0.7,0.94,1.26c-0.1,0.78-1.07,1.18-1.54,0.44C58.86,10.64,59.07,9.61,59.83,9.5z M60.27,13.32
		c-0.06-0.16-0.05-0.34-0.03-0.51c0.05-0.33,0.21-0.53,0.41-0.62c0.43-0.19,1.03,0.14,0.97,0.81c-0.03,0.33-0.29,0.64-0.62,0.71
		C60.69,13.79,60.38,13.63,60.27,13.32z M62.34,15.46c-0.15,0.8-1.23,0.99-1.43,0.11c-0.07-0.31,0.07-0.63,0.3-0.84
		C61.81,14.2,62.48,14.74,62.34,15.46z M63.47,16.85c0.01-0.03,0.01-0.05,0-0.08c-0.15-0.82-0.27-1.64-0.49-2.45
		c-0.18-0.63-0.38-1.26-0.61-1.88c-0.53-1.45-1.2-2.86-1.96-4.21c-0.38-0.67-0.8-1.33-1.23-1.97c-0.22-0.32-0.44-0.64-0.67-0.95
		c-0.19-0.25-0.34-0.55-0.68-0.33c-0.14,0.09-0.24,0.22-0.36,0.34c-1,1.06-1.93,2.2-2.74,3.41c-0.82,1.22-1.52,2.52-2.05,3.89
		c-0.52,1.36-0.86,2.78-0.96,4.23c-0.01,0.07,0,0.15,0.02,0.22c-0.22,0-0.45,0.01-0.68,0.01c-0.01,0-0.02,0-0.03,0
		c-0.01,0-0.06,0-0.07,0c0-0.04,0-0.04,0.02-0.12c0.05-0.63,0.14-1.25,0.27-1.86c0.15-0.7,0.36-1.4,0.61-2.07
		c0.25-0.68,0.54-1.34,0.87-1.99c0.33-0.65,0.7-1.28,1.09-1.89c0.4-0.62,0.82-1.21,1.27-1.8c0.44-0.58,0.91-1.14,1.4-1.69
		c0.24-0.27,0.48-0.54,0.73-0.81c0.12-0.13,0.25-0.26,0.37-0.39c0.06-0.06,0.12-0.13,0.19-0.19c0.05-0.05,0.13-0.15,0.21-0.1
		c0.93,0.55,1.39,1.63,2.02,2.47c2.21,2.99,3.5,6.5,3.84,10.2C63.73,16.85,63.6,16.85,63.47,16.85z"/>
	<path d="M77.78,10.91C77,8.99,75.82,7.22,74.7,5.49c-0.41-0.63-1.57-2.43-2.48-1.51c-1.48,1.5-2.81,3.23-3.91,5.03
		c-0.76,1.24-1.41,2.54-1.91,3.9c-0.51,1.36-0.86,2.78-1.03,4.22c-0.06,0.49,0.26,0.43,0.39,0.43c0.06,0,0.11,0,0.16,0
		c1.46-0.02,2.92-0.05,4.38-0.08c1.8-0.03,3.61-0.07,5.41-0.1c0.69-0.01,1.38-0.03,2.07-0.04c0.37-0.01,0.73-0.01,1.1-0.02
		c0.42-0.01,0.24-1.05,0.21-1.29C78.86,14.32,78.43,12.49,77.78,10.91z M69.13,16.28c-0.71,1.11-1.87-0.07-1-0.84
		c0.2-0.17,0.46-0.26,0.72-0.15C69.23,15.46,69.34,15.95,69.13,16.28z M68.06,14.47c-0.47-0.41-0.21-1.02,0.22-1.31
		c0.36-0.25,0.85-0.26,1.08,0.29C69.65,14.17,68.7,15.03,68.06,14.47z M69.26,11.05c0.09-0.46,0.39-1.05,0.89-1.15
		c0.6-0.12,1.08,0.47,1.02,1.03c-0.05,0.51-0.46,1.12-0.98,1.24C69.51,12.34,69.15,11.64,69.26,11.05z M72.51,16.96
		c-0.35,0.01-0.71,0.01-1.06,0.02c-0.03,0-0.07,0-0.1,0c0-0.01,0-0.03,0-0.05c0.01-0.69,0.2-1.33,0.39-2.01
		c0.21-0.63,0.42-1.31,0.68-1.94c-0.02,0.89,0.07,2.05,0.07,2.25C72.51,15.8,72.54,16.37,72.51,16.96z M72.97,16.95
		c0.06-1.46-0.13-2.91-0.06-4.36c0.58,1.37,0.84,2.85,0.96,4.34C73.58,16.94,73.28,16.95,72.97,16.95z M74.33,16.93
		c0-0.06,0.01-0.12,0.01-0.18c0-0.97-0.25-1.96-0.5-2.89c-0.13-0.47-0.27-0.95-0.45-1.4c-0.09-0.23-0.28-0.85-0.62-0.76
		c-0.28,0.08-0.44,0.35-0.57,0.58c-0.45,0.82-0.71,1.75-0.95,2.65c-0.17,0.66-0.38,1.35-0.38,2.03c0,0.01,0,0.02,0,0.03
		c-0.2,0-0.4,0.01-0.6,0.01c-0.03,0,0.04-0.93,0.06-1.01c0.09-0.45,0.18-0.91,0.3-1.35c0.1-0.36,0.21-0.71,0.34-1.06
		c0.13-0.35,0.28-0.68,0.46-1.01c0.17-0.33,0.37-0.65,0.58-0.95c0.11-0.15,0.22-0.3,0.34-0.44c0.06-0.07,0.12-0.14,0.18-0.21
		c0.03-0.04,0.06-0.07,0.09-0.1c0.03-0.04,0.05-0.07,0.08-0.08c0.09-0.04,0.14,0.05,0.19,0.1c0.05,0.06,0.1,0.12,0.15,0.18
		c0.22,0.26,0.41,0.55,0.58,0.85c0.17,0.3,0.31,0.61,0.43,0.93c0.12,0.32,0.23,0.65,0.32,0.98c0.09,0.34,0.17,0.67,0.24,1.02
		c0.07,0.34,0.13,0.68,0.19,1.03c0.03,0.17,0.06,0.34,0.09,0.51c0.01,0.08,0.03,0.17,0.04,0.25c0.01,0.04,0.01,0.08,0.02,0.13
		c0,0.03,0,0.1,0.02,0.12c0.02,0.02,0.04,0.04,0.05,0.06C74.8,16.92,74.56,16.92,74.33,16.93z M71.62,7.75
		c0.12-0.54,0.54-1.01,1.1-1.1c1.44-0.24,1.25,1.89,0.35,2.4C72.14,9.58,71.43,8.61,71.62,7.75z M74.66,9.5
		c0.69-0.1,1.01,0.7,0.94,1.26c-0.1,0.78-1.07,1.18-1.54,0.44C73.69,10.64,73.9,9.61,74.66,9.5z M75.11,13.32
		c-0.06-0.16-0.05-0.34-0.03-0.51c0.05-0.33,0.21-0.53,0.41-0.62c0.43-0.19,1.03,0.14,0.97,0.81c-0.03,0.33-0.29,0.64-0.62,0.71
		C75.53,13.79,75.21,13.63,75.11,13.32z M77.17,15.46c-0.15,0.8-1.23,0.99-1.43,0.11c-0.07-0.31,0.07-0.63,0.3-0.84
		C76.64,14.2,77.31,14.74,77.17,15.46z M78.31,16.85c0.01-0.03,0.01-0.05,0-0.08c-0.15-0.82-0.27-1.64-0.49-2.45
		c-0.18-0.63-0.38-1.26-0.61-1.88c-0.53-1.45-1.2-2.86-1.96-4.21c-0.38-0.67-0.8-1.33-1.23-1.97c-0.22-0.32-0.44-0.64-0.67-0.95
		c-0.19-0.25-0.34-0.55-0.68-0.33c-0.14,0.09-0.24,0.22-0.36,0.34c-1,1.06-1.93,2.2-2.74,3.41c-0.82,1.22-1.52,2.52-2.05,3.89
		c-0.52,1.36-0.86,2.78-0.96,4.23c-0.01,0.07,0,0.15,0.02,0.22c-0.22,0-0.45,0.01-0.68,0.01c-0.01,0-0.02,0-0.03,0
		c-0.01,0-0.06,0-0.07,0c0-0.04,0-0.04,0.02-0.12c0.05-0.63,0.14-1.25,0.27-1.86c0.15-0.7,0.36-1.4,0.61-2.07
		c0.25-0.68,0.54-1.34,0.87-1.99c0.33-0.65,0.7-1.28,1.09-1.89c0.4-0.62,0.82-1.21,1.27-1.8c0.44-0.58,0.91-1.14,1.4-1.69
		c0.24-0.27,0.48-0.54,0.73-0.81c0.12-0.13,0.25-0.26,0.37-0.39c0.06-0.06,0.12-0.13,0.19-0.19c0.05-0.05,0.13-0.15,0.21-0.1
		c0.93,0.55,1.39,1.63,2.02,2.47c2.21,2.99,3.5,6.5,3.84,10.2C78.56,16.85,78.43,16.85,78.31,16.85z"/>
	<path d="M93.91,16.02c-0.22-1.69-0.65-3.52-1.3-5.1c-0.79-1.93-1.97-3.69-3.09-5.42c-0.41-0.63-1.57-2.43-2.48-1.51
		c-1.48,1.5-2.81,3.23-3.91,5.03c-0.76,1.24-1.41,2.54-1.91,3.9c-0.51,1.36-0.86,2.78-1.03,4.22c-0.06,0.49,0.26,0.43,0.39,0.43
		c0.06,0,0.11,0,0.16,0c1.46-0.02,2.92-0.05,4.38-0.08c1.8-0.03,3.61-0.07,5.41-0.1c0.69-0.01,1.38-0.03,2.07-0.04
		c0.37-0.01,0.73-0.01,1.1-0.02C94.13,17.3,93.94,16.26,93.91,16.02z M83.96,16.28c-0.71,1.11-1.87-0.07-1-0.84
		c0.2-0.17,0.46-0.26,0.72-0.15C84.06,15.46,84.17,15.95,83.96,16.28z M82.89,14.47c-0.47-0.41-0.21-1.02,0.22-1.31
		c0.36-0.25,0.85-0.26,1.08,0.29C84.49,14.17,83.53,15.03,82.89,14.47z M84.09,11.05c0.09-0.46,0.39-1.05,0.89-1.15
		c0.6-0.12,1.08,0.47,1.02,1.03c-0.05,0.51-0.46,1.12-0.98,1.24C84.34,12.34,83.98,11.64,84.09,11.05z M87.34,16.96
		c-0.35,0.01-0.71,0.01-1.06,0.02c-0.03,0-0.07,0-0.1,0c0-0.01,0-0.03,0-0.05c0.01-0.69,0.2-1.33,0.39-2.01
		c0.21-0.63,0.42-1.31,0.68-1.94c-0.02,0.89,0.07,2.05,0.07,2.25C87.34,15.8,87.37,16.37,87.34,16.96z M87.81,16.95
		c0.06-1.46-0.13-2.91-0.06-4.36c0.58,1.37,0.84,2.85,0.96,4.34C88.41,16.94,88.11,16.95,87.81,16.95z M89.16,16.93
		c0-0.06,0.01-0.12,0.01-0.18c0-0.97-0.25-1.96-0.5-2.89c-0.13-0.47-0.27-0.95-0.45-1.4c-0.09-0.23-0.28-0.85-0.62-0.76
		c-0.28,0.08-0.44,0.35-0.57,0.58c-0.45,0.82-0.71,1.75-0.95,2.65c-0.17,0.66-0.38,1.35-0.38,2.03c0,0.01,0,0.02,0,0.03
		c-0.2,0-0.4,0.01-0.6,0.01c-0.03,0,0.04-0.93,0.06-1.01c0.09-0.45,0.18-0.91,0.3-1.35c0.1-0.36,0.21-0.71,0.34-1.06
		c0.13-0.35,0.28-0.68,0.46-1.01c0.17-0.33,0.37-0.65,0.58-0.95c0.11-0.15,0.22-0.3,0.34-0.44c0.06-0.07,0.12-0.14,0.18-0.21
		c0.03-0.04,0.06-0.07,0.09-0.1c0.03-0.04,0.05-0.07,0.08-0.08c0.09-0.04,0.14,0.05,0.19,0.1c0.05,0.06,0.1,0.12,0.15,0.18
		c0.22,0.26,0.41,0.55,0.58,0.85c0.17,0.3,0.31,0.61,0.43,0.93c0.12,0.32,0.23,0.65,0.32,0.98c0.09,0.34,0.17,0.67,0.24,1.02
		c0.07,0.34,0.13,0.68,0.19,1.03c0.03,0.17,0.06,0.34,0.09,0.51c0.01,0.08,0.03,0.17,0.04,0.25c0.01,0.04,0.01,0.08,0.02,0.13
		c0,0.03,0,0.1,0.02,0.12c0.02,0.02,0.04,0.04,0.05,0.06C89.63,16.92,89.4,16.92,89.16,16.93z M86.45,7.75
		c0.12-0.54,0.54-1.01,1.1-1.1c1.44-0.24,1.25,1.89,0.35,2.4C86.97,9.58,86.26,8.61,86.45,7.75z M89.49,9.5
		c0.69-0.1,1.01,0.7,0.94,1.26c-0.1,0.78-1.07,1.18-1.54,0.44C88.52,10.64,88.73,9.61,89.49,9.5z M89.94,13.32
		c-0.06-0.16-0.05-0.34-0.03-0.51c0.05-0.33,0.21-0.53,0.41-0.62c0.43-0.19,1.03,0.14,0.97,0.81c-0.03,0.33-0.29,0.64-0.62,0.71
		C90.36,13.79,90.05,13.63,89.94,13.32z M92.01,15.46c-0.15,0.8-1.23,0.99-1.43,0.11c-0.07-0.31,0.07-0.63,0.3-0.84
		C91.48,14.2,92.14,14.74,92.01,15.46z M93.14,16.85c0.01-0.03,0.01-0.05,0-0.08c-0.15-0.82-0.27-1.64-0.49-2.45
		c-0.18-0.63-0.38-1.26-0.61-1.88c-0.53-1.45-1.2-2.86-1.96-4.21c-0.38-0.67-0.8-1.33-1.23-1.97c-0.22-0.32-0.44-0.64-0.67-0.95
		c-0.19-0.25-0.34-0.55-0.68-0.33c-0.14,0.09-0.24,0.22-0.36,0.34c-1,1.06-1.93,2.2-2.74,3.41c-0.82,1.22-1.52,2.52-2.05,3.89
		c-0.52,1.36-0.86,2.78-0.96,4.23c-0.01,0.07,0,0.15,0.02,0.22c-0.22,0-0.45,0.01-0.68,0.01c-0.01,0-0.02,0-0.03,0
		c-0.01,0-0.06,0-0.07,0c0-0.04,0-0.04,0.02-0.12c0.05-0.63,0.14-1.25,0.27-1.86c0.15-0.7,0.36-1.4,0.61-2.07
		c0.25-0.68,0.54-1.34,0.87-1.99c0.33-0.65,0.7-1.28,1.09-1.89c0.4-0.62,0.82-1.21,1.27-1.8c0.45-0.58,0.91-1.14,1.4-1.69
		c0.24-0.27,0.48-0.54,0.73-0.81C87,4.73,87.13,4.6,87.25,4.47c0.06-0.06,0.12-0.13,0.19-0.19c0.05-0.05,0.13-0.15,0.21-0.1
		c0.93,0.55,1.39,1.63,2.02,2.47c2.21,2.99,3.5,6.5,3.84,10.2C93.39,16.85,93.27,16.85,93.14,16.85z"/>
</g>
</svg>
