<?xml version="1.0" encoding="utf-8"?>
<!-- Generator: Adobe Illustrator 23.0.0, SVG Export Plug-In . SVG Version: 6.00 Build 0)  -->
<svg version="1.1" id="Слой_1" xmlns="http://www.w3.org/2000/svg" xmlns:xlink="http://www.w3.org/1999/xlink" x="0px" y="0px"
	 viewBox="0 0 100 21.28" style="enable-background:new 0 0 100 21.28;" xml:space="preserve">
<g>
	<path d="M16.36,7.47c-0.88-1.15-1.87-2.21-2.89-3.23c-0.13-0.13-0.26-0.26-0.39-0.38c-0.12-0.12-0.25-0.29-0.43-0.33
		c-0.17-0.04-0.27,0.08-0.4,0.16c-0.14,0.08-0.28,0.17-0.41,0.26c-0.28,0.18-0.54,0.37-0.81,0.57C10.5,4.92,10,5.37,9.53,5.84
		C8.59,6.78,7.78,7.86,7.16,9.04c-0.6,1.15-1.02,2.41-1.15,3.71c-0.13,1.33,0.04,2.67,0.52,3.92c0.1,0.25,0.24,0.84,0.56,0.89
		c0.27,0.04,0.57,0.01,0.85,0.01c0.3,0,0.61,0.01,0.91,0.01c0.61,0.01,1.21,0.02,1.82,0.03c1.35,0.02,2.71,0.04,4.07,0.07
		c0.79,0.01,1.59,0.02,2.38,0.04c0.31,0.01,0.62,0.01,0.93,0.01c0.16,0,0.32,0,0.48,0.01c0.13,0,0.29,0.03,0.42,0.01
		c0.08-0.01,0.15-0.05,0.19-0.12c0.02-0.04,0.03-0.09,0.03-0.14c0.03-0.37,0.11-0.72,0.17-1.09c0.06-0.37,0.08-0.75,0.09-1.13
		c0.02-1.42-0.3-2.82-0.84-4.13C18.01,9.83,17.24,8.6,16.36,7.47z M11.94,6.2c-0.2,3.47,0,6.97-0.17,10.44
		c0.01,0.14-0.05,0.35-0.04,0.52c-0.61-0.01-1.22-0.02-1.82-0.03c-0.54-0.01-1.09-0.02-1.63-0.03c0-0.01,0-0.01,0-0.02
		C6.75,13.02,8.41,8.5,11.75,5.92c0.06-0.05,0.13-0.1,0.2-0.15C11.95,5.93,11.97,6.08,11.94,6.2z M12.63,17.18
		c-0.14,0-0.28,0-0.42-0.01c0.01-0.06,0.01-0.12,0.02-0.18c0.01-0.15,0.01-0.3,0.02-0.46c0.02-0.01,0.05-0.01,0.06-0.04
		c1.14-1.46,2.31-2.9,3.39-4.41c0.06-0.12,0.25-0.35,0.42-0.57c0.11,0.29,0.21,0.58,0.3,0.88c-1.08,1.44-2.04,2.96-3.32,4.25
		C12.98,16.8,12.72,16.98,12.63,17.18z M13.09,8.14c0.07-0.17,0.42-0.51,0.61-0.79c0.19,0.24,0.38,0.5,0.56,0.75
		c-0.22,0.21-0.41,0.67-0.55,0.82c-0.47,0.71-0.95,1.42-1.36,2.17c0-0.58,0-1.17,0.01-1.75C12.54,8.92,12.83,8.53,13.09,8.14z
		 M12.35,8.47c0.01-0.85,0.04-1.71,0.08-2.56c0.34,0.36,0.67,0.72,0.98,1.1c-0.38,0.36-0.65,0.89-0.97,1.3
		C12.42,8.35,12.39,8.41,12.35,8.47z M12.4,12.01c0.52-1.26,1.47-2.37,2.12-3.54c0.25,0.37,0.48,0.76,0.7,1.15
		c-1.02,1.34-1.95,2.77-2.89,4.17c0.01-0.55,0.01-1.09,0.01-1.64C12.36,12.09,12.38,12.05,12.4,12.01z M12.35,14.66
		c0.7-1.24,1.6-2.35,2.37-3.55c0.25-0.34,0.48-0.71,0.74-1.03c0.16,0.31,0.31,0.62,0.44,0.94c-1.08,1.29-3.44,4.49-3.63,4.69
		c0.01-0.34,0.03-0.68,0.04-1.01C12.32,14.68,12.34,14.67,12.35,14.66z M14.39,17.07c-0.04,0.03-0.07,0.08-0.09,0.13
		c-0.15,0-0.3,0-0.45-0.01c-0.2,0-0.41-0.01-0.61-0.01c1.22-1.32,2.3-2.77,3.33-4.24c0.1,0.39,0.19,0.8,0.26,1.21
		C16.03,15.13,15.25,16.14,14.39,17.07z M15.69,17.22c-0.27,0-0.54-0.01-0.81-0.01c0.71-0.79,1.39-1.63,2.06-2.46
		c0.04,0.22,0.07,0.45,0.09,0.67c-0.24,0.27-0.45,0.59-0.68,0.87c-0.2,0.25-0.44,0.56-0.59,0.79C15.72,17.12,15.7,17.17,15.69,17.22
		z M16.23,17.23c0.27-0.38,0.57-0.76,0.86-1.13c0.03,0.38,0.05,0.77,0.06,1.15C16.85,17.24,16.54,17.24,16.23,17.23z M18.81,16.36
		c-0.04,0.28-0.08,0.57-0.14,0.84c-0.01,0.02-0.01,0.05-0.02,0.07c-0.12,0-0.24,0-0.36-0.01c-0.22,0-0.43-0.01-0.65-0.01
		c-0.03-1.37-0.18-2.73-0.52-4.05c-0.36-1.42-0.83-2.75-1.57-4.02c-0.72-1.25-1.62-2.39-2.61-3.44c-0.14-0.15-0.28-0.29-0.42-0.44
		c-0.18-0.2-0.32-0.25-0.58-0.14c-0.25,0.11-0.45,0.31-0.66,0.48c-0.26,0.21-0.5,0.43-0.74,0.66c-0.47,0.46-0.9,0.97-1.29,1.5
		c-0.76,1.07-1.35,2.27-1.69,3.54c-0.34,1.27-0.44,2.6-0.25,3.9c0.04,0.31,0.1,0.62,0.18,0.93c0.02,0.09,0.21,0.92,0.28,0.92
		c-0.18,0-0.37-0.01-0.55-0.01C4.88,12.11,8.19,6.73,12.47,4.13c0.04-0.03,0.08-0.05,0.13-0.08c0.01,0.01,0.02,0.01,0.03,0.02
		C15.87,7.33,19.55,11.47,18.81,16.36z"/>
	<path d="M31.29,7.47c-0.88-1.15-1.87-2.21-2.89-3.23c-0.13-0.13-0.26-0.26-0.39-0.38c-0.12-0.12-0.25-0.29-0.43-0.33
		c-0.17-0.04-0.27,0.08-0.4,0.16c-0.14,0.08-0.28,0.17-0.41,0.26c-0.28,0.18-0.54,0.37-0.81,0.57c-0.53,0.4-1.03,0.84-1.5,1.32
		c-0.94,0.95-1.75,2.02-2.37,3.21c-0.6,1.15-1.02,2.41-1.15,3.71c-0.13,1.33,0.04,2.67,0.52,3.92c0.1,0.25,0.24,0.84,0.56,0.89
		c0.27,0.04,0.57,0.01,0.85,0.01c0.3,0,0.61,0.01,0.91,0.01c0.61,0.01,1.21,0.02,1.82,0.03c1.35,0.02,2.71,0.04,4.07,0.07
		c0.79,0.01,1.59,0.02,2.38,0.04c0.31,0.01,0.62,0.01,0.93,0.01c0.16,0,0.32,0,0.48,0.01c0.13,0,0.29,0.03,0.42,0.01
		c0.08-0.01,0.15-0.05,0.19-0.12c0.02-0.04,0.03-0.09,0.03-0.14c0.03-0.37,0.11-0.72,0.17-1.09c0.06-0.37,0.08-0.75,0.09-1.13
		c0.02-1.42-0.3-2.82-0.84-4.13C32.94,9.83,32.16,8.6,31.29,7.47z M26.87,6.2c-0.2,3.47,0,6.97-0.17,10.44
		c0.01,0.14-0.05,0.35-0.04,0.52c-0.61-0.01-1.22-0.02-1.82-0.03c-0.54-0.01-1.09-0.02-1.63-0.03c0-0.01,0-0.01,0-0.02
		c-1.53-4.06,0.14-8.59,3.47-11.16c0.06-0.05,0.13-0.1,0.2-0.15C26.88,5.93,26.89,6.08,26.87,6.2z M27.56,17.18
		c-0.14,0-0.28,0-0.42-0.01c0.01-0.06,0.01-0.12,0.02-0.18c0.01-0.15,0.01-0.3,0.02-0.46c0.02-0.01,0.05-0.01,0.06-0.04
		c1.14-1.46,2.31-2.9,3.39-4.41c0.06-0.12,0.25-0.35,0.42-0.57c0.11,0.29,0.21,0.58,0.3,0.88c-1.08,1.44-2.04,2.96-3.32,4.25
		C27.91,16.8,27.65,16.98,27.56,17.18z M28.01,8.14c0.07-0.17,0.42-0.51,0.61-0.79c0.19,0.24,0.38,0.5,0.56,0.75
		c-0.22,0.21-0.41,0.67-0.55,0.82c-0.47,0.71-0.95,1.42-1.36,2.17c0-0.58,0-1.17,0.01-1.75C27.47,8.92,27.75,8.53,28.01,8.14z
		 M27.27,8.47c0.01-0.85,0.04-1.71,0.08-2.56c0.34,0.36,0.67,0.72,0.98,1.1c-0.38,0.36-0.65,0.89-0.97,1.3
		C27.34,8.35,27.31,8.41,27.27,8.47z M27.32,12.01c0.52-1.26,1.47-2.37,2.12-3.54c0.25,0.37,0.48,0.76,0.7,1.15
		c-1.02,1.34-1.95,2.77-2.89,4.17c0.01-0.55,0.01-1.09,0.01-1.64C27.28,12.09,27.31,12.05,27.32,12.01z M27.27,14.66
		c0.7-1.24,1.6-2.35,2.37-3.55c0.25-0.34,0.48-0.71,0.74-1.03c0.16,0.31,0.31,0.62,0.44,0.94c-1.08,1.29-3.44,4.49-3.63,4.69
		c0.01-0.34,0.03-0.68,0.04-1.01C27.24,14.68,27.26,14.67,27.27,14.66z M29.32,17.07c-0.04,0.03-0.07,0.08-0.09,0.13
		c-0.15,0-0.3,0-0.45-0.01c-0.2,0-0.41-0.01-0.61-0.01c1.22-1.32,2.3-2.77,3.33-4.24c0.1,0.39,0.19,0.8,0.26,1.21
		C30.95,15.13,30.17,16.14,29.32,17.07z M30.61,17.22c-0.27,0-0.54-0.01-0.81-0.01c0.71-0.79,1.39-1.63,2.06-2.46
		c0.04,0.22,0.07,0.45,0.09,0.67c-0.24,0.27-0.45,0.59-0.68,0.87c-0.2,0.25-0.44,0.56-0.59,0.79
		C30.65,17.12,30.62,17.17,30.61,17.22z M31.16,17.23c0.27-0.38,0.57-0.76,0.86-1.13c0.03,0.38,0.04,0.77,0.06,1.15
		C31.77,17.24,31.46,17.24,31.16,17.23z M33.74,16.36c-0.04,0.28-0.08,0.57-0.14,0.84c-0.01,0.02-0.01,0.05-0.02,0.07
		c-0.12,0-0.24,0-0.36-0.01c-0.22,0-0.43-0.01-0.65-0.01c-0.03-1.37-0.18-2.73-0.52-4.05c-0.36-1.42-0.83-2.75-1.57-4.02
		c-0.72-1.25-1.62-2.39-2.61-3.44c-0.14-0.15-0.28-0.29-0.42-0.44c-0.18-0.2-0.32-0.25-0.58-0.14c-0.25,0.11-0.45,0.31-0.66,0.48
		c-0.26,0.21-0.5,0.43-0.74,0.66c-0.47,0.46-0.9,0.97-1.29,1.5c-0.76,1.07-1.35,2.27-1.69,3.54c-0.34,1.27-0.44,2.6-0.25,3.9
		c0.04,0.31,0.1,0.62,0.18,0.93c0.02,0.09,0.21,0.92,0.28,0.92c-0.18,0-0.37-0.01-0.55-0.01c-2.35-4.98,0.95-10.36,5.24-12.96
		c0.04-0.03,0.08-0.05,0.13-0.08c0.01,0.01,0.02,0.01,0.03,0.02C30.79,7.33,34.47,11.47,33.74,16.36z"/>
	<path d="M46.21,7.47c-0.88-1.15-1.87-2.21-2.89-3.23c-0.13-0.13-0.26-0.26-0.39-0.38c-0.12-0.12-0.25-0.29-0.43-0.33
		c-0.17-0.04-0.27,0.08-0.4,0.16c-0.14,0.08-0.28,0.17-0.41,0.26c-0.28,0.18-0.54,0.37-0.81,0.57c-0.53,0.4-1.03,0.84-1.5,1.32
		c-0.94,0.95-1.75,2.02-2.37,3.21c-0.6,1.15-1.02,2.41-1.15,3.71c-0.13,1.33,0.04,2.67,0.52,3.92c0.1,0.25,0.24,0.84,0.56,0.89
		c0.27,0.04,0.57,0.01,0.85,0.01c0.3,0,0.61,0.01,0.91,0.01c0.61,0.01,1.21,0.02,1.82,0.03c1.35,0.02,2.71,0.04,4.07,0.07
		c0.79,0.01,1.59,0.02,2.38,0.04c0.31,0.01,0.62,0.01,0.93,0.01c0.16,0,0.32,0,0.48,0.01c0.13,0,0.29,0.03,0.42,0.01
		c0.08-0.01,0.15-0.05,0.19-0.12C49,17.59,49,17.55,49,17.5c0.03-0.37,0.11-0.72,0.17-1.09c0.06-0.37,0.08-0.75,0.09-1.13
		c0.02-1.42-0.3-2.82-0.84-4.13C47.86,9.83,47.09,8.6,46.21,7.47z M41.79,6.2c-0.2,3.47,0,6.97-0.17,10.44
		c0.01,0.14-0.05,0.35-0.04,0.52c-0.61-0.01-1.22-0.02-1.82-0.03c-0.54-0.01-1.09-0.02-1.63-0.03c0-0.01,0-0.01,0-0.02
		C36.6,13.02,38.26,8.5,41.6,5.92c0.06-0.05,0.13-0.1,0.2-0.15C41.8,5.93,41.82,6.08,41.79,6.2z M42.48,17.18
		c-0.14,0-0.28,0-0.42-0.01c0.01-0.06,0.01-0.12,0.02-0.18c0.01-0.15,0.01-0.3,0.02-0.46c0.02-0.01,0.05-0.01,0.06-0.04
		c1.14-1.46,2.31-2.9,3.39-4.41c0.06-0.12,0.25-0.35,0.42-0.57c0.11,0.29,0.21,0.58,0.3,0.88c-1.08,1.44-2.04,2.96-3.32,4.25
		C42.83,16.8,42.57,16.98,42.48,17.18z M42.94,8.14c0.07-0.17,0.42-0.51,0.61-0.79c0.19,0.24,0.38,0.5,0.56,0.75
		c-0.22,0.21-0.41,0.67-0.55,0.82c-0.47,0.71-0.95,1.42-1.36,2.17c0-0.58,0-1.17,0.01-1.75C42.39,8.92,42.68,8.53,42.94,8.14z
		 M42.2,8.47c0.01-0.85,0.04-1.71,0.08-2.56c0.34,0.36,0.67,0.72,0.98,1.1c-0.38,0.36-0.65,0.89-0.97,1.3
		C42.27,8.35,42.24,8.41,42.2,8.47z M42.25,12.01c0.52-1.26,1.47-2.37,2.12-3.54c0.25,0.37,0.48,0.76,0.7,1.15
		c-1.02,1.34-1.95,2.77-2.89,4.17c0.01-0.55,0.01-1.09,0.01-1.64C42.21,12.09,42.23,12.05,42.25,12.01z M42.2,14.66
		c0.7-1.24,1.6-2.35,2.37-3.55c0.25-0.34,0.48-0.71,0.74-1.03c0.16,0.31,0.31,0.62,0.44,0.94c-1.08,1.29-3.44,4.49-3.63,4.69
		c0.01-0.34,0.03-0.68,0.04-1.01C42.17,14.68,42.19,14.67,42.2,14.66z M44.24,17.07c-0.04,0.03-0.07,0.08-0.09,0.13
		c-0.15,0-0.3,0-0.45-0.01c-0.2,0-0.41-0.01-0.61-0.01c1.22-1.32,2.3-2.77,3.33-4.24c0.1,0.39,0.19,0.8,0.26,1.21
		C45.88,15.13,45.1,16.14,44.24,17.07z M45.54,17.22c-0.27,0-0.54-0.01-0.81-0.01c0.71-0.79,1.39-1.63,2.06-2.46
		c0.04,0.22,0.07,0.45,0.09,0.67c-0.24,0.27-0.45,0.59-0.68,0.87c-0.2,0.25-0.44,0.56-0.59,0.79
		C45.57,17.12,45.55,17.17,45.54,17.22z M46.08,17.23c0.27-0.38,0.57-0.76,0.86-1.13c0.03,0.38,0.05,0.77,0.06,1.15
		C46.7,17.24,46.39,17.24,46.08,17.23z M48.66,16.36c-0.04,0.28-0.08,0.57-0.14,0.84c-0.01,0.02-0.01,0.05-0.02,0.07
		c-0.12,0-0.24,0-0.36-0.01c-0.22,0-0.43-0.01-0.65-0.01c-0.03-1.37-0.18-2.73-0.52-4.05c-0.36-1.42-0.83-2.75-1.57-4.02
		c-0.72-1.25-1.62-2.39-2.61-3.44c-0.14-0.15-0.28-0.29-0.42-0.44c-0.18-0.2-0.32-0.25-0.58-0.14c-0.25,0.11-0.45,0.31-0.66,0.48
		c-0.26,0.21-0.5,0.43-0.74,0.66c-0.47,0.46-0.9,0.97-1.29,1.5c-0.76,1.07-1.35,2.27-1.69,3.54c-0.34,1.27-0.44,2.6-0.25,3.9
		c0.04,0.31,0.1,0.62,0.18,0.93c0.02,0.09,0.21,0.92,0.28,0.92c-0.18,0-0.37-0.01-0.55-0.01c-2.35-4.98,0.95-10.36,5.24-12.96
		c0.04-0.03,0.08-0.05,0.13-0.08c0.01,0.01,0.02,0.01,0.03,0.02C45.72,7.33,49.4,11.47,48.66,16.36z"/>
	<path d="M61.14,7.47c-0.88-1.15-1.87-2.21-2.89-3.23c-0.13-0.13-0.26-0.26-0.39-0.38c-0.12-0.12-0.25-0.29-0.43-0.33
		c-0.17-0.04-0.27,0.08-0.4,0.16c-0.14,0.08-0.28,0.17-0.41,0.26c-0.28,0.18-0.54,0.37-0.81,0.57c-0.53,0.4-1.03,0.84-1.5,1.32
		c-0.94,0.95-1.75,2.02-2.37,3.21c-0.6,1.15-1.02,2.41-1.15,3.71c-0.13,1.33,0.04,2.67,0.52,3.92c0.1,0.25,0.24,0.84,0.56,0.89
		c0.27,0.04,0.57,0.01,0.85,0.01c0.3,0,0.61,0.01,0.91,0.01c0.61,0.01,1.21,0.02,1.82,0.03c1.35,0.02,2.71,0.04,4.07,0.07
		c0.79,0.01,1.59,0.02,2.38,0.04c0.31,0.01,0.62,0.01,0.93,0.01c0.16,0,0.32,0,0.48,0.01c0.13,0,0.29,0.03,0.42,0.01
		c0.08-0.01,0.15-0.05,0.19-0.12c0.02-0.04,0.03-0.09,0.03-0.14c0.03-0.37,0.11-0.72,0.17-1.09c0.06-0.37,0.08-0.75,0.09-1.13
		c0.02-1.42-0.3-2.82-0.84-4.13C62.79,9.83,62.01,8.6,61.14,7.47z M56.72,6.2c-0.2,3.47,0,6.97-0.17,10.44
		c0.01,0.14-0.05,0.35-0.04,0.52c-0.61-0.01-1.22-0.02-1.82-0.03c-0.54-0.01-1.09-0.02-1.63-0.03c0-0.01,0-0.01,0-0.02
		c-1.53-4.06,0.14-8.59,3.47-11.16c0.06-0.05,0.13-0.1,0.2-0.15C56.73,5.93,56.74,6.08,56.72,6.2z M57.41,17.18
		c-0.14,0-0.28,0-0.42-0.01c0.01-0.06,0.01-0.12,0.02-0.18c0.01-0.15,0.01-0.3,0.02-0.46c0.02-0.01,0.05-0.01,0.06-0.04
		c1.14-1.46,2.31-2.9,3.39-4.41c0.06-0.12,0.25-0.35,0.42-0.57c0.11,0.29,0.21,0.58,0.3,0.88c-1.08,1.44-2.04,2.96-3.32,4.25
		C57.76,16.8,57.5,16.98,57.41,17.18z M57.86,8.14c0.07-0.17,0.42-0.51,0.61-0.79c0.19,0.24,0.38,0.5,0.56,0.75
		c-0.22,0.21-0.41,0.67-0.55,0.82c-0.47,0.71-0.95,1.42-1.36,2.17c0-0.58,0-1.17,0.01-1.75C57.32,8.92,57.6,8.53,57.86,8.14z
		 M57.12,8.47c0.01-0.85,0.04-1.71,0.08-2.56c0.34,0.36,0.67,0.72,0.98,1.1c-0.38,0.36-0.65,0.89-0.97,1.3
		C57.19,8.35,57.16,8.41,57.12,8.47z M57.17,12.01c0.52-1.26,1.47-2.37,2.12-3.54c0.25,0.37,0.48,0.76,0.7,1.15
		c-1.02,1.34-1.95,2.77-2.89,4.17c0.01-0.55,0.01-1.09,0.01-1.64C57.13,12.09,57.16,12.05,57.17,12.01z M57.12,14.66
		c0.7-1.24,1.6-2.35,2.37-3.55c0.25-0.34,0.48-0.71,0.74-1.03c0.16,0.31,0.31,0.62,0.44,0.94c-1.08,1.29-3.44,4.49-3.63,4.69
		c0.01-0.34,0.03-0.68,0.04-1.01C57.09,14.68,57.11,14.67,57.12,14.66z M59.17,17.07c-0.04,0.03-0.07,0.08-0.09,0.13
		c-0.15,0-0.3,0-0.45-0.01c-0.2,0-0.41-0.01-0.61-0.01c1.22-1.32,2.3-2.77,3.33-4.24c0.1,0.39,0.19,0.8,0.26,1.21
		C60.8,15.13,60.02,16.14,59.17,17.07z M60.46,17.22c-0.27,0-0.54-0.01-0.81-0.01c0.71-0.79,1.39-1.63,2.06-2.46
		c0.04,0.22,0.07,0.45,0.09,0.67c-0.24,0.27-0.45,0.59-0.68,0.87c-0.2,0.25-0.44,0.56-0.59,0.79C60.5,17.12,60.47,17.17,60.46,17.22
		z M61.01,17.23c0.27-0.38,0.57-0.76,0.86-1.13c0.03,0.38,0.05,0.77,0.06,1.15C61.62,17.24,61.31,17.24,61.01,17.23z M63.59,16.36
		c-0.04,0.28-0.08,0.57-0.14,0.84c-0.01,0.02-0.01,0.05-0.02,0.07c-0.12,0-0.24,0-0.36-0.01c-0.22,0-0.43-0.01-0.65-0.01
		c-0.03-1.37-0.18-2.73-0.52-4.05c-0.36-1.42-0.83-2.75-1.57-4.02C59.6,7.93,58.7,6.8,57.72,5.74C57.58,5.6,57.44,5.45,57.3,5.3
		c-0.18-0.2-0.32-0.25-0.58-0.14c-0.25,0.11-0.45,0.31-0.66,0.48c-0.26,0.21-0.5,0.43-0.74,0.66c-0.47,0.46-0.9,0.97-1.29,1.5
		c-0.76,1.07-1.35,2.27-1.69,3.54c-0.34,1.27-0.44,2.6-0.25,3.9c0.04,0.31,0.1,0.62,0.18,0.93c0.02,0.09,0.21,0.92,0.28,0.92
		c-0.18,0-0.37-0.01-0.55-0.01c-2.35-4.98,0.95-10.36,5.24-12.96c0.04-0.03,0.08-0.05,0.13-0.08c0.01,0.01,0.02,0.01,0.03,0.02
		C60.64,7.33,64.32,11.47,63.59,16.36z"/>
	<path d="M76.06,7.47c-0.88-1.15-1.87-2.21-2.89-3.23c-0.13-0.13-0.26-0.26-0.39-0.38c-0.12-0.12-0.25-0.29-0.43-0.33
		c-0.17-0.04-0.27,0.08-0.4,0.16c-0.14,0.08-0.28,0.17-0.41,0.26c-0.28,0.18-0.54,0.37-0.81,0.57c-0.53,0.4-1.03,0.84-1.5,1.32
		c-0.94,0.95-1.75,2.02-2.37,3.21c-0.6,1.15-1.02,2.41-1.15,3.71c-0.13,1.33,0.04,2.67,0.52,3.92c0.1,0.25,0.24,0.84,0.56,0.89
		c0.27,0.04,0.57,0.01,0.85,0.01c0.3,0,0.61,0.01,0.91,0.01c0.61,0.01,1.21,0.02,1.82,0.03c1.35,0.02,2.71,0.04,4.07,0.07
		c0.79,0.01,1.59,0.02,2.38,0.04c0.31,0.01,0.62,0.01,0.93,0.01c0.16,0,0.32,0,0.48,0.01c0.13,0,0.29,0.03,0.42,0.01
		c0.08-0.01,0.15-0.05,0.19-0.12c0.02-0.04,0.03-0.09,0.03-0.14c0.03-0.37,0.11-0.72,0.17-1.09c0.06-0.37,0.08-0.75,0.09-1.13
		c0.02-1.42-0.3-2.82-0.84-4.13C77.71,9.83,76.94,8.6,76.06,7.47z M71.64,6.2c-0.2,3.47,0,6.97-0.17,10.44
		c0.01,0.14-0.05,0.35-0.04,0.52c-0.61-0.01-1.22-0.02-1.82-0.03c-0.54-0.01-1.09-0.02-1.63-0.03c0-0.01,0-0.01,0-0.02
		c-1.53-4.06,0.14-8.59,3.47-11.16c0.06-0.05,0.13-0.1,0.2-0.15C71.65,5.93,71.67,6.08,71.64,6.2z M72.33,17.18
		c-0.14,0-0.28,0-0.42-0.01c0.01-0.06,0.01-0.12,0.02-0.18c0.01-0.15,0.01-0.3,0.02-0.46c0.02-0.01,0.05-0.01,0.06-0.04
		c1.14-1.46,2.31-2.9,3.39-4.41c0.06-0.12,0.25-0.35,0.42-0.57c0.11,0.29,0.21,0.58,0.3,0.88c-1.08,1.44-2.04,2.96-3.32,4.25
		C72.68,16.8,72.42,16.98,72.33,17.18z M72.79,8.14c0.07-0.17,0.42-0.51,0.61-0.79c0.19,0.24,0.38,0.5,0.56,0.75
		c-0.22,0.21-0.41,0.67-0.55,0.82c-0.47,0.71-0.95,1.42-1.36,2.17c0-0.58,0-1.17,0.01-1.75C72.24,8.92,72.53,8.53,72.79,8.14z
		 M72.05,8.47c0.01-0.85,0.04-1.71,0.08-2.56c0.34,0.36,0.67,0.72,0.98,1.1c-0.38,0.36-0.65,0.89-0.97,1.3
		C72.12,8.35,72.08,8.41,72.05,8.47z M72.1,12.01c0.52-1.26,1.47-2.37,2.12-3.54c0.25,0.37,0.48,0.76,0.7,1.15
		c-1.02,1.34-1.95,2.77-2.89,4.17c0.01-0.55,0.01-1.09,0.01-1.64C72.06,12.09,72.08,12.05,72.1,12.01z M72.04,14.66
		c0.7-1.24,1.6-2.35,2.37-3.55c0.25-0.34,0.48-0.71,0.74-1.03c0.16,0.31,0.31,0.62,0.44,0.94c-1.08,1.29-3.44,4.49-3.63,4.69
		C71.98,15.37,72,15.04,72,14.7C72.02,14.68,72.04,14.67,72.04,14.66z M74.09,17.07c-0.04,0.03-0.07,0.08-0.09,0.13
		c-0.15,0-0.3,0-0.45-0.01c-0.2,0-0.41-0.01-0.61-0.01c1.22-1.32,2.3-2.77,3.33-4.24c0.1,0.39,0.19,0.8,0.26,1.21
		C75.73,15.13,74.95,16.14,74.09,17.07z M75.39,17.22c-0.27,0-0.54-0.01-0.81-0.01c0.71-0.79,1.39-1.63,2.06-2.46
		c0.04,0.22,0.07,0.45,0.09,0.67c-0.24,0.27-0.45,0.59-0.68,0.87c-0.2,0.25-0.44,0.56-0.59,0.79C75.42,17.12,75.4,17.17,75.39,17.22
		z M75.93,17.23c0.27-0.38,0.57-0.76,0.86-1.13c0.03,0.38,0.05,0.77,0.06,1.15C76.54,17.24,76.24,17.24,75.93,17.23z M78.51,16.36
		c-0.04,0.28-0.08,0.57-0.14,0.84c-0.01,0.02-0.01,0.05-0.02,0.07c-0.12,0-0.24,0-0.36-0.01c-0.22,0-0.43-0.01-0.65-0.01
		c-0.03-1.37-0.18-2.73-0.52-4.05c-0.36-1.42-0.83-2.75-1.57-4.02c-0.72-1.25-1.62-2.39-2.61-3.44C72.5,5.6,72.36,5.45,72.23,5.3
		c-0.18-0.2-0.32-0.25-0.58-0.14c-0.25,0.11-0.45,0.31-0.66,0.48c-0.26,0.21-0.5,0.43-0.74,0.66c-0.47,0.46-0.9,0.97-1.29,1.5
		c-0.76,1.07-1.35,2.27-1.69,3.54c-0.34,1.27-0.44,2.6-0.25,3.9c0.04,0.31,0.1,0.62,0.18,0.93c0.02,0.09,0.21,0.92,0.28,0.92
		c-0.18,0-0.37-0.01-0.55-0.01c-2.35-4.98,0.95-10.36,5.24-12.96c0.04-0.03,0.08-0.05,0.13-0.08c0.01,0.01,0.02,0.01,0.03,0.02
		C75.56,7.33,79.25,11.47,78.51,16.36z"/>
	<path d="M93.19,11.15c-0.55-1.32-1.33-2.55-2.2-3.68c-0.88-1.15-1.87-2.21-2.89-3.23c-0.13-0.13-0.26-0.26-0.39-0.38
		c-0.12-0.12-0.25-0.29-0.43-0.33c-0.17-0.04-0.27,0.08-0.4,0.16c-0.14,0.08-0.28,0.17-0.41,0.26c-0.28,0.18-0.54,0.37-0.81,0.57
		c-0.53,0.4-1.03,0.84-1.5,1.32c-0.94,0.95-1.75,2.02-2.37,3.21c-0.6,1.15-1.02,2.41-1.15,3.71c-0.13,1.33,0.04,2.67,0.52,3.92
		c0.1,0.25,0.24,0.84,0.56,0.89c0.27,0.04,0.57,0.01,0.85,0.01c0.3,0,0.61,0.01,0.91,0.01c0.61,0.01,1.21,0.02,1.82,0.03
		c1.35,0.02,2.71,0.04,4.07,0.07c0.79,0.01,1.59,0.02,2.38,0.04c0.31,0.01,0.62,0.01,0.93,0.01c0.16,0,0.32,0,0.48,0.01
		c0.13,0,0.29,0.03,0.42,0.01c0.08-0.01,0.15-0.05,0.19-0.12c0.02-0.04,0.03-0.09,0.03-0.14c0.03-0.37,0.11-0.72,0.17-1.09
		c0.06-0.37,0.08-0.75,0.09-1.13C94.05,13.86,93.74,12.46,93.19,11.15z M86.57,6.2c-0.2,3.47,0,6.97-0.17,10.44
		c0.01,0.14-0.05,0.35-0.04,0.52c-0.61-0.01-1.22-0.02-1.82-0.03c-0.54-0.01-1.09-0.02-1.63-0.03c0-0.01,0-0.01,0-0.02
		c-1.53-4.06,0.14-8.59,3.47-11.16c0.06-0.05,0.13-0.1,0.2-0.15C86.58,5.93,86.59,6.08,86.57,6.2z M87.26,17.18
		c-0.14,0-0.28,0-0.42-0.01c0.01-0.06,0.01-0.12,0.02-0.18c0.01-0.15,0.01-0.3,0.02-0.46c0.02-0.01,0.05-0.01,0.06-0.04
		c1.14-1.46,2.31-2.9,3.39-4.41c0.06-0.12,0.25-0.35,0.42-0.57c0.11,0.29,0.21,0.58,0.3,0.88c-1.08,1.44-2.04,2.96-3.32,4.25
		C87.61,16.8,87.35,16.98,87.26,17.18z M87.71,8.14c0.07-0.17,0.42-0.51,0.61-0.79c0.19,0.24,0.38,0.5,0.56,0.75
		c-0.22,0.21-0.41,0.67-0.55,0.82c-0.47,0.71-0.95,1.42-1.36,2.17c0-0.58,0-1.17,0.01-1.75C87.17,8.92,87.45,8.53,87.71,8.14z
		 M86.97,8.47c0.01-0.85,0.04-1.71,0.08-2.56c0.34,0.36,0.67,0.72,0.98,1.1c-0.38,0.36-0.65,0.89-0.97,1.3
		C87.04,8.35,87.01,8.41,86.97,8.47z M87.02,12.01c0.52-1.26,1.47-2.37,2.12-3.54c0.25,0.37,0.48,0.76,0.7,1.15
		c-1.02,1.34-1.95,2.77-2.89,4.17c0.01-0.55,0.01-1.09,0.01-1.64C86.98,12.09,87.01,12.05,87.02,12.01z M86.97,14.66
		c0.7-1.24,1.6-2.35,2.37-3.55c0.25-0.34,0.48-0.71,0.74-1.03c0.16,0.31,0.31,0.62,0.44,0.94c-1.08,1.29-3.44,4.49-3.63,4.69
		c0.01-0.34,0.03-0.68,0.04-1.01C86.94,14.68,86.96,14.67,86.97,14.66z M89.02,17.07c-0.04,0.03-0.07,0.08-0.09,0.13
		c-0.15,0-0.3,0-0.45-0.01c-0.2,0-0.41-0.01-0.61-0.01c1.22-1.32,2.3-2.77,3.33-4.24c0.1,0.39,0.19,0.8,0.26,1.21
		C90.65,15.13,89.87,16.14,89.02,17.07z M90.31,17.22c-0.27,0-0.54-0.01-0.81-0.01c0.71-0.79,1.39-1.63,2.06-2.46
		c0.04,0.22,0.07,0.45,0.09,0.67c-0.24,0.27-0.45,0.59-0.68,0.87c-0.2,0.25-0.44,0.56-0.59,0.79
		C90.34,17.12,90.32,17.17,90.31,17.22z M90.86,17.23c0.27-0.38,0.57-0.76,0.86-1.13c0.03,0.38,0.05,0.77,0.06,1.15
		C91.47,17.24,91.16,17.24,90.86,17.23z M93.44,16.36c-0.04,0.28-0.08,0.57-0.14,0.84c-0.01,0.02-0.01,0.05-0.02,0.07
		c-0.12,0-0.24,0-0.36-0.01c-0.22,0-0.43-0.01-0.65-0.01c-0.03-1.37-0.18-2.73-0.52-4.05c-0.36-1.42-0.83-2.75-1.57-4.02
		c-0.72-1.25-1.62-2.39-2.61-3.44c-0.14-0.15-0.28-0.29-0.42-0.44c-0.18-0.2-0.32-0.25-0.58-0.14c-0.25,0.11-0.45,0.31-0.66,0.48
		c-0.26,0.21-0.5,0.43-0.74,0.66c-0.47,0.46-0.9,0.97-1.29,1.5c-0.76,1.07-1.35,2.27-1.69,3.54c-0.34,1.27-0.44,2.6-0.25,3.9
		c0.04,0.31,0.1,0.62,0.18,0.93c0.02,0.09,0.21,0.92,0.28,0.92c-0.18,0-0.37-0.01-0.55-0.01c-2.35-4.98,0.95-10.36,5.24-12.96
		c0.04-0.03,0.08-0.05,0.13-0.08c0.01,0.01,0.02,0.01,0.03,0.02C90.49,7.33,94.17,11.47,93.44,16.36z"/>
</g>
</svg>
