<?xml version="1.0" encoding="utf-8"?>
<!-- Generator: Adobe Illustrator 23.0.0, SVG Export Plug-In . SVG Version: 6.00 Build 0)  -->
<svg version="1.1" id="Слой_1" xmlns="http://www.w3.org/2000/svg" xmlns:xlink="http://www.w3.org/1999/xlink" x="0px" y="0px"
	 viewBox="0 0 100 21.28" style="enable-background:new 0 0 100 21.28;" xml:space="preserve">
<g>
	<path d="M17.7,16.03c-0.14-1.34-0.47-2.69-0.89-3.97c-0.14-0.43-0.29-0.87-0.5-1.28c-0.39-0.86-0.86-1.69-1.34-2.51
		c-0.31-0.54-0.64-1.08-1.01-1.59c-0.17-0.23-0.5-0.79-0.82-0.84c-0.3-0.04-0.55,0.36-0.72,0.54c-0.43,0.47-0.87,0.93-1.28,1.41
		c-0.8,0.95-1.53,1.98-2.07,3.1c-0.47,0.99-0.86,1.99-1.15,3.05c-0.14,0.52-0.26,1.05-0.35,1.59c-0.05,0.3-0.34,1.26-0.19,1.52
		c0.09,0.15,0.32,0.14,0.42,0c0.09-0.16,0.06-0.38,0.1-0.56c0.08-0.42,0.17-0.83,0.26-1.24c0.15,0.08,0.32,0.15,0.41,0.27
		c0.7,0.45,0.95,1.3,1.49,1.88c0.42,0.12,0.4-0.43,0.46-0.7c0.1-0.77,0.25-1.56,0.45-2.33c0.22,0.36,0.4,0.75,0.58,1.13
		c0.17,0.39,0.33,0.78,0.5,1.17c0.06,0.14,0.11,0.29,0.19,0.41c0.07,0.11,0.09,0.24,0.17,0.34c0.07,0.08,0.21,0.12,0.3,0.05
		c0.05-0.04,0.09-0.13,0.12-0.19c0.18-0.35,0.28-0.73,0.41-1.1c0.15-0.42,0.31-0.84,0.49-1.24c0.1-0.21,0.2-0.42,0.3-0.63
		c0.05-0.1,0.11-0.21,0.16-0.31c0.02-0.04,0.17-0.25,0.16-0.28c0.38,1.05,0.65,2.14,0.76,3.24c0.05,0.32,0.56,0.23,0.5-0.09
		c-0.14-1.26-0.46-2.52-0.93-3.72c0.39-0.63,0.83-1.22,1.31-1.77c-0.02,0.03,0.15,0.39,0.17,0.44c0.06,0.15,0.11,0.31,0.17,0.47
		c0.11,0.31,0.21,0.63,0.3,0.94c0.18,0.63,0.33,1.28,0.44,1.93c0.08,0.44,0.13,0.89,0.17,1.34c0.02,0.18-0.01,1.02,0.38,0.91
		c0.13-0.04,0.17-0.24,0.15-0.36C17.74,16.72,17.74,16.37,17.7,16.03z M13.15,6.38c0.4,0.54,0.78,1.09,1.13,1.66
		c-0.6,0.48-1.14,1.02-1.6,1.63c-0.37-0.48-0.77-0.93-1.21-1.35C12.01,7.66,12.58,7.01,13.15,6.38z M10.05,16.51
		c-0.2-0.39-1.12-1.58-1.77-1.76c0.2-0.85,0.43-1.69,0.75-2.5c0.55,0.51,1.09,1,1.58,1.57C10.35,14.71,10.16,15.61,10.05,16.51z
		 M10.78,13.33c-0.46-0.56-0.96-1.09-1.53-1.57c0.16-0.37,0.32-0.73,0.52-1.09c0.42-0.67,0.9-1.32,1.39-1.95
		c0.44,0.43,0.85,0.89,1.23,1.38C11.69,11.08,11.16,12.18,10.78,13.33z M12.57,16.59c-0.32-1.02-0.8-1.95-1.42-2.8
		c0.34-1.13,0.81-2.22,1.47-3.2c0.02-0.03,0.04-0.05,0.06-0.07c0.58,0.82,1.07,1.72,1.45,2.65C13.49,14.24,12.95,15.38,12.57,16.59z
		 M15.29,11.42c-0.3,0.39-0.58,0.79-0.84,1.2c-0.4-0.89-0.87-1.75-1.45-2.54c0.48-0.58,1.04-1.11,1.5-1.68
		c0.47,0.79,0.88,1.6,1.25,2.44C15.58,11.02,15.42,11.29,15.29,11.42z"/>
	<path d="M30.19,16.03c-0.14-1.34-0.47-2.69-0.89-3.97c-0.14-0.43-0.29-0.87-0.5-1.28c-0.39-0.86-0.86-1.69-1.34-2.51
		c-0.31-0.54-0.64-1.08-1.01-1.59c-0.17-0.23-0.5-0.79-0.82-0.84c-0.3-0.04-0.55,0.36-0.72,0.54c-0.43,0.47-0.87,0.93-1.28,1.41
		c-0.8,0.95-1.53,1.98-2.07,3.1c-0.47,0.99-0.86,1.99-1.15,3.05c-0.14,0.52-0.26,1.05-0.35,1.59c-0.05,0.3-0.34,1.26-0.19,1.52
		c0.09,0.15,0.32,0.14,0.42,0c0.09-0.16,0.06-0.38,0.1-0.56c0.08-0.42,0.17-0.83,0.26-1.24c0.15,0.08,0.32,0.15,0.41,0.27
		c0.7,0.45,0.95,1.3,1.49,1.88c0.42,0.12,0.4-0.43,0.46-0.7c0.1-0.77,0.25-1.56,0.45-2.33c0.22,0.36,0.4,0.75,0.58,1.13
		c0.17,0.39,0.33,0.78,0.5,1.17c0.06,0.14,0.11,0.29,0.19,0.41c0.07,0.11,0.09,0.24,0.17,0.34c0.07,0.08,0.21,0.12,0.3,0.05
		c0.05-0.04,0.09-0.13,0.12-0.19c0.18-0.35,0.28-0.73,0.41-1.1c0.15-0.42,0.31-0.84,0.49-1.24c0.1-0.21,0.2-0.42,0.3-0.63
		c0.05-0.1,0.11-0.21,0.16-0.31c0.02-0.04,0.17-0.25,0.16-0.28c0.38,1.05,0.65,2.14,0.76,3.24c0.05,0.32,0.56,0.23,0.5-0.09
		c-0.14-1.26-0.46-2.52-0.93-3.72c0.39-0.63,0.83-1.22,1.31-1.77c-0.02,0.03,0.15,0.39,0.17,0.44c0.06,0.15,0.11,0.31,0.17,0.47
		c0.11,0.31,0.21,0.63,0.3,0.94c0.18,0.63,0.33,1.28,0.44,1.93c0.08,0.44,0.13,0.89,0.17,1.34c0.02,0.18-0.01,1.02,0.38,0.91
		c0.13-0.04,0.17-0.24,0.15-0.36C30.23,16.72,30.23,16.37,30.19,16.03z M25.64,6.38c0.4,0.54,0.78,1.09,1.13,1.66
		c-0.6,0.48-1.14,1.02-1.6,1.63c-0.37-0.48-0.77-0.93-1.21-1.35C24.5,7.66,25.07,7.01,25.64,6.38z M22.54,16.51
		c-0.2-0.39-1.12-1.58-1.77-1.76c0.2-0.85,0.43-1.69,0.75-2.5c0.55,0.51,1.09,1,1.58,1.57C22.84,14.71,22.65,15.61,22.54,16.51z
		 M23.27,13.33c-0.46-0.56-0.96-1.09-1.53-1.57c0.16-0.37,0.32-0.73,0.52-1.09c0.42-0.67,0.9-1.32,1.39-1.95
		c0.44,0.43,0.85,0.89,1.23,1.38C24.19,11.08,23.65,12.18,23.27,13.33z M25.06,16.59c-0.32-1.02-0.8-1.95-1.42-2.8
		c0.34-1.13,0.81-2.22,1.47-3.2c0.02-0.03,0.04-0.05,0.06-0.07c0.58,0.82,1.07,1.72,1.45,2.65C25.98,14.24,25.44,15.38,25.06,16.59z
		 M27.79,11.42c-0.3,0.39-0.58,0.79-0.84,1.2c-0.4-0.89-0.87-1.75-1.45-2.54C25.98,9.5,26.54,8.97,27,8.4
		c0.47,0.79,0.88,1.6,1.25,2.44C28.07,11.02,27.91,11.29,27.79,11.42z"/>
	<path d="M42.68,16.02c-0.14-1.34-0.47-2.69-0.89-3.97c-0.14-0.43-0.29-0.87-0.5-1.28c-0.39-0.86-0.86-1.69-1.34-2.51
		c-0.31-0.54-0.64-1.08-1.01-1.59c-0.17-0.23-0.5-0.79-0.82-0.84c-0.3-0.04-0.55,0.36-0.72,0.54c-0.43,0.47-0.87,0.93-1.28,1.41
		c-0.8,0.95-1.53,1.98-2.07,3.1c-0.47,0.99-0.86,1.99-1.15,3.05c-0.14,0.52-0.26,1.05-0.35,1.59c-0.05,0.3-0.34,1.26-0.19,1.52
		c0.09,0.15,0.32,0.14,0.42,0c0.09-0.16,0.06-0.38,0.1-0.56c0.08-0.42,0.17-0.83,0.26-1.24c0.15,0.08,0.32,0.15,0.41,0.27
		c0.7,0.45,0.95,1.3,1.49,1.88c0.42,0.12,0.4-0.43,0.46-0.7c0.1-0.77,0.25-1.56,0.45-2.33c0.22,0.36,0.4,0.75,0.58,1.13
		c0.17,0.39,0.33,0.78,0.5,1.17c0.06,0.14,0.11,0.29,0.19,0.41c0.07,0.11,0.09,0.24,0.17,0.34c0.07,0.08,0.21,0.12,0.3,0.05
		c0.05-0.04,0.09-0.13,0.12-0.19c0.18-0.35,0.28-0.73,0.41-1.1c0.15-0.42,0.31-0.84,0.49-1.24c0.1-0.21,0.2-0.42,0.3-0.63
		c0.05-0.1,0.11-0.21,0.16-0.31c0.02-0.04,0.17-0.25,0.16-0.28c0.38,1.05,0.65,2.14,0.76,3.24c0.05,0.32,0.56,0.23,0.5-0.09
		c-0.14-1.26-0.46-2.52-0.93-3.72c0.39-0.63,0.83-1.22,1.31-1.77c-0.02,0.03,0.15,0.39,0.17,0.44c0.06,0.15,0.11,0.31,0.17,0.47
		c0.11,0.31,0.21,0.63,0.3,0.94c0.18,0.63,0.33,1.28,0.44,1.93c0.08,0.44,0.13,0.89,0.17,1.34c0.02,0.18-0.01,1.02,0.38,0.91
		c0.13-0.04,0.17-0.24,0.15-0.36C42.72,16.71,42.72,16.37,42.68,16.02z M38.13,6.37c0.4,0.54,0.78,1.09,1.13,1.66
		c-0.6,0.48-1.14,1.02-1.6,1.63c-0.37-0.48-0.77-0.93-1.21-1.35C36.99,7.65,37.56,7,38.13,6.37z M35.03,16.5
		c-0.2-0.39-1.12-1.58-1.77-1.76c0.2-0.85,0.43-1.69,0.75-2.5c0.55,0.51,1.09,1,1.58,1.57C35.33,14.7,35.14,15.61,35.03,16.5z
		 M35.76,13.32c-0.46-0.56-0.96-1.09-1.53-1.57c0.16-0.37,0.32-0.73,0.52-1.09c0.42-0.67,0.9-1.32,1.39-1.95
		c0.44,0.43,0.85,0.89,1.23,1.38C36.68,11.08,36.14,12.17,35.76,13.32z M37.55,16.58c-0.32-1.02-0.8-1.95-1.42-2.8
		c0.34-1.13,0.81-2.22,1.47-3.2c0.02-0.03,0.04-0.05,0.06-0.07c0.58,0.82,1.07,1.72,1.45,2.65C38.47,14.24,37.93,15.38,37.55,16.58z
		 M40.28,11.41c-0.3,0.39-0.58,0.79-0.84,1.2c-0.4-0.89-0.87-1.75-1.45-2.54c0.48-0.58,1.04-1.11,1.5-1.68
		c0.47,0.79,0.88,1.6,1.25,2.44C40.56,11.02,40.4,11.29,40.28,11.41z"/>
	<path d="M55.17,16.02c-0.14-1.34-0.47-2.69-0.89-3.97c-0.14-0.43-0.29-0.87-0.5-1.28c-0.39-0.86-0.86-1.69-1.34-2.51
		c-0.31-0.54-0.64-1.08-1.01-1.59c-0.17-0.23-0.5-0.79-0.82-0.84c-0.3-0.04-0.55,0.36-0.72,0.54c-0.43,0.47-0.87,0.93-1.28,1.41
		c-0.8,0.95-1.53,1.98-2.07,3.1c-0.47,0.99-0.86,1.99-1.15,3.05c-0.14,0.52-0.26,1.05-0.35,1.59c-0.05,0.3-0.34,1.26-0.19,1.52
		c0.09,0.15,0.32,0.14,0.42,0c0.09-0.16,0.06-0.38,0.1-0.56c0.08-0.42,0.17-0.83,0.26-1.24c0.15,0.08,0.32,0.15,0.41,0.27
		c0.7,0.45,0.95,1.3,1.49,1.88c0.42,0.12,0.4-0.43,0.46-0.7c0.1-0.77,0.25-1.56,0.45-2.33c0.22,0.36,0.4,0.75,0.58,1.13
		c0.17,0.39,0.33,0.78,0.5,1.17c0.06,0.14,0.11,0.29,0.19,0.41c0.07,0.11,0.09,0.24,0.17,0.34c0.07,0.08,0.21,0.12,0.3,0.05
		c0.05-0.04,0.09-0.13,0.12-0.19c0.18-0.35,0.28-0.73,0.41-1.1c0.15-0.42,0.31-0.84,0.49-1.24c0.1-0.21,0.2-0.42,0.3-0.63
		c0.05-0.1,0.11-0.21,0.16-0.31c0.02-0.04,0.17-0.25,0.16-0.28c0.38,1.05,0.65,2.14,0.76,3.24c0.05,0.32,0.56,0.23,0.5-0.09
		c-0.14-1.26-0.46-2.52-0.93-3.72c0.39-0.63,0.83-1.22,1.31-1.77c-0.02,0.03,0.15,0.39,0.17,0.44c0.06,0.15,0.11,0.31,0.17,0.47
		c0.11,0.31,0.21,0.63,0.3,0.94c0.18,0.63,0.33,1.28,0.44,1.93c0.08,0.44,0.13,0.89,0.17,1.34c0.02,0.18-0.01,1.02,0.38,0.91
		c0.13-0.04,0.17-0.24,0.15-0.36C55.21,16.71,55.21,16.37,55.17,16.02z M50.62,6.37c0.4,0.54,0.78,1.09,1.13,1.66
		c-0.6,0.48-1.14,1.02-1.6,1.63c-0.37-0.48-0.77-0.93-1.21-1.35C49.48,7.65,50.05,7,50.62,6.37z M47.53,16.5
		c-0.2-0.39-1.12-1.58-1.77-1.76c0.2-0.85,0.43-1.69,0.75-2.5c0.55,0.51,1.09,1,1.58,1.57C47.82,14.7,47.63,15.61,47.53,16.5z
		 M48.25,13.32c-0.46-0.56-0.96-1.09-1.53-1.57c0.16-0.37,0.32-0.73,0.52-1.09c0.42-0.67,0.9-1.32,1.39-1.95
		c0.44,0.43,0.85,0.89,1.23,1.38C49.17,11.08,48.64,12.17,48.25,13.32z M50.04,16.58c-0.32-1.02-0.8-1.95-1.42-2.8
		c0.34-1.13,0.81-2.22,1.47-3.2c0.02-0.03,0.04-0.05,0.06-0.07c0.58,0.82,1.07,1.72,1.45,2.65C50.96,14.24,50.43,15.38,50.04,16.58z
		 M52.77,11.41c-0.3,0.39-0.58,0.79-0.84,1.2c-0.4-0.89-0.87-1.75-1.45-2.54c0.48-0.58,1.04-1.11,1.5-1.68
		c0.47,0.79,0.88,1.6,1.25,2.44C53.05,11.02,52.89,11.29,52.77,11.41z"/>
	<path d="M67.66,16.02c-0.14-1.34-0.47-2.69-0.89-3.97c-0.14-0.43-0.29-0.87-0.5-1.28c-0.39-0.86-0.86-1.69-1.34-2.51
		c-0.31-0.54-0.64-1.08-1.01-1.59c-0.17-0.23-0.5-0.79-0.82-0.84c-0.3-0.04-0.55,0.36-0.72,0.54c-0.43,0.47-0.87,0.93-1.28,1.41
		c-0.8,0.95-1.53,1.98-2.07,3.1c-0.47,0.99-0.86,1.99-1.15,3.05c-0.14,0.52-0.26,1.05-0.35,1.59c-0.05,0.3-0.34,1.26-0.19,1.52
		c0.09,0.15,0.32,0.14,0.42,0c0.09-0.16,0.06-0.38,0.1-0.56c0.08-0.42,0.17-0.83,0.26-1.24c0.15,0.08,0.32,0.15,0.41,0.27
		c0.7,0.45,0.95,1.3,1.49,1.88c0.42,0.12,0.4-0.43,0.46-0.7c0.1-0.77,0.25-1.56,0.45-2.33c0.22,0.36,0.4,0.75,0.58,1.13
		c0.17,0.39,0.33,0.78,0.5,1.17c0.06,0.14,0.11,0.29,0.19,0.41c0.07,0.11,0.09,0.24,0.17,0.34c0.07,0.08,0.21,0.12,0.3,0.05
		c0.05-0.04,0.09-0.13,0.12-0.19c0.18-0.35,0.28-0.73,0.41-1.1c0.15-0.42,0.31-0.84,0.49-1.24c0.1-0.21,0.2-0.42,0.3-0.63
		c0.05-0.1,0.11-0.21,0.16-0.31c0.02-0.04,0.17-0.25,0.16-0.28c0.38,1.05,0.65,2.14,0.76,3.24c0.05,0.32,0.56,0.23,0.5-0.09
		c-0.14-1.26-0.46-2.52-0.93-3.72c0.39-0.63,0.83-1.22,1.31-1.77c-0.02,0.03,0.15,0.39,0.17,0.44c0.06,0.15,0.11,0.31,0.17,0.47
		c0.11,0.31,0.21,0.63,0.3,0.94c0.18,0.63,0.33,1.28,0.44,1.93c0.08,0.44,0.13,0.89,0.17,1.34c0.02,0.18-0.01,1.02,0.38,0.91
		c0.13-0.04,0.17-0.24,0.15-0.36C67.7,16.72,67.7,16.37,67.66,16.02z M63.11,6.37c0.4,0.54,0.78,1.09,1.13,1.66
		c-0.6,0.48-1.14,1.02-1.6,1.63c-0.37-0.48-0.77-0.93-1.21-1.35C61.97,7.65,62.54,7.01,63.11,6.37z M60.02,16.5
		c-0.2-0.39-1.12-1.58-1.77-1.76c0.2-0.85,0.43-1.69,0.75-2.5c0.55,0.51,1.09,1,1.58,1.57C60.32,14.71,60.13,15.61,60.02,16.5z
		 M60.74,13.33c-0.46-0.56-0.96-1.09-1.53-1.57c0.16-0.37,0.32-0.73,0.52-1.09c0.42-0.67,0.9-1.32,1.39-1.95
		c0.44,0.43,0.85,0.89,1.23,1.38C61.66,11.08,61.13,12.18,60.74,13.33z M62.53,16.58c-0.32-1.02-0.8-1.95-1.42-2.8
		c0.34-1.13,0.81-2.22,1.47-3.2c0.02-0.03,0.04-0.05,0.06-0.07c0.58,0.82,1.07,1.72,1.45,2.65C63.46,14.24,62.92,15.38,62.53,16.58z
		 M65.26,11.42c-0.3,0.39-0.58,0.79-0.84,1.2c-0.4-0.89-0.87-1.75-1.45-2.54c0.48-0.58,1.04-1.11,1.5-1.68
		c0.47,0.79,0.88,1.6,1.25,2.44C65.55,11.02,65.39,11.29,65.26,11.42z"/>
	<path d="M80.16,16.02c-0.14-1.34-0.47-2.69-0.89-3.97c-0.14-0.43-0.29-0.87-0.5-1.28c-0.39-0.86-0.86-1.69-1.34-2.51
		c-0.31-0.54-0.64-1.08-1.01-1.59c-0.17-0.23-0.5-0.79-0.82-0.84c-0.3-0.04-0.55,0.36-0.72,0.54c-0.43,0.47-0.87,0.93-1.28,1.41
		c-0.8,0.95-1.53,1.98-2.07,3.1c-0.47,0.99-0.86,1.99-1.15,3.05c-0.14,0.52-0.26,1.05-0.35,1.59c-0.05,0.3-0.34,1.26-0.19,1.52
		c0.09,0.15,0.32,0.14,0.42,0c0.09-0.16,0.06-0.38,0.1-0.56c0.08-0.42,0.17-0.83,0.26-1.24c0.15,0.08,0.32,0.15,0.41,0.27
		c0.7,0.45,0.95,1.3,1.49,1.88c0.42,0.12,0.4-0.43,0.46-0.7c0.1-0.77,0.25-1.56,0.45-2.33c0.22,0.36,0.4,0.75,0.58,1.13
		c0.17,0.39,0.33,0.78,0.5,1.17c0.06,0.14,0.11,0.29,0.19,0.41c0.07,0.11,0.09,0.24,0.17,0.34c0.07,0.08,0.21,0.12,0.3,0.05
		c0.05-0.04,0.09-0.13,0.12-0.19c0.18-0.35,0.28-0.73,0.41-1.1c0.15-0.42,0.31-0.84,0.49-1.24c0.1-0.21,0.2-0.42,0.3-0.63
		c0.05-0.1,0.11-0.21,0.16-0.31c0.02-0.04,0.17-0.25,0.16-0.28c0.38,1.05,0.65,2.14,0.76,3.24c0.05,0.32,0.56,0.23,0.5-0.09
		c-0.14-1.26-0.46-2.52-0.93-3.72c0.39-0.63,0.83-1.22,1.31-1.77c-0.02,0.03,0.15,0.39,0.17,0.44c0.06,0.15,0.11,0.31,0.17,0.47
		c0.11,0.31,0.21,0.63,0.3,0.94c0.18,0.63,0.33,1.28,0.44,1.93c0.08,0.44,0.13,0.89,0.17,1.34c0.02,0.18-0.01,1.02,0.38,0.91
		c0.13-0.04,0.17-0.24,0.15-0.36C80.2,16.72,80.19,16.37,80.16,16.02z M75.61,6.37c0.4,0.54,0.78,1.09,1.13,1.66
		c-0.6,0.48-1.14,1.02-1.6,1.63c-0.37-0.48-0.77-0.93-1.21-1.35C74.47,7.65,75.04,7.01,75.61,6.37z M72.51,16.5
		c-0.2-0.39-1.12-1.58-1.77-1.76c0.2-0.85,0.43-1.69,0.75-2.5c0.55,0.51,1.09,1,1.58,1.57C72.81,14.71,72.62,15.61,72.51,16.5z
		 M73.23,13.33c-0.46-0.56-0.96-1.09-1.53-1.57c0.16-0.37,0.32-0.73,0.52-1.09c0.42-0.67,0.9-1.32,1.39-1.95
		c0.44,0.43,0.85,0.89,1.23,1.38C74.15,11.08,73.62,12.18,73.23,13.33z M75.03,16.58c-0.32-1.02-0.8-1.95-1.42-2.8
		c0.34-1.13,0.81-2.22,1.47-3.2c0.02-0.03,0.04-0.05,0.06-0.07c0.58,0.82,1.07,1.72,1.45,2.65C75.95,14.24,75.41,15.38,75.03,16.58z
		 M77.75,11.42c-0.3,0.39-0.58,0.79-0.84,1.2c-0.4-0.89-0.87-1.75-1.45-2.54c0.48-0.58,1.04-1.11,1.5-1.68
		c0.47,0.79,0.88,1.6,1.25,2.44C78.04,11.02,77.88,11.29,77.75,11.42z"/>
	<path d="M93.72,14.83c-0.44-4.12-2.38-7.95-5.22-10.94c0,0,0,0,0-0.01c-0.01-0.01-0.02-0.01-0.03-0.02
		c-0.02-0.02-0.04-0.05-0.06-0.07c-0.01,0-0.01,0-0.02-0.01c-0.02-0.01-0.04-0.02-0.07-0.02c-0.02,0-0.04,0-0.05,0
		c-0.03,0-0.05-0.01-0.08,0c-0.01,0-0.02,0.01-0.03,0.01c0,0,0,0,0,0c-0.19,0.08-0.38,0.19-0.56,0.3c-0.39,0.25-0.74,0.54-1.07,0.86
		c-0.32,0.3-0.63,0.64-0.93,1c-0.69,0.82-1.29,1.71-1.83,2.63c-0.45,0.77-0.86,1.57-1.23,2.38c-0.28,0.63-0.56,1.3-0.79,1.98
		c-0.21,0.62-0.39,1.25-0.53,1.89c-0.45-4.11-2.38-7.94-5.21-10.92c0,0,0,0,0-0.01C76.01,3.89,76,3.88,75.99,3.87
		c-0.02-0.02-0.04-0.05-0.06-0.07c-0.01,0-0.01,0-0.02-0.01c-0.02-0.01-0.04-0.02-0.07-0.02c-0.02,0-0.04,0-0.05,0
		c-0.03,0-0.05-0.01-0.08,0c-0.01,0-0.02,0.01-0.03,0.01c0,0,0,0,0,0c-0.19,0.08-0.38,0.19-0.56,0.3c-0.39,0.25-0.74,0.54-1.07,0.86
		c-0.32,0.3-0.63,0.64-0.93,1c-0.69,0.82-1.29,1.71-1.83,2.63c-0.45,0.77-0.86,1.57-1.23,2.38c-0.28,0.63-0.56,1.3-0.79,1.98
		c-0.21,0.62-0.39,1.25-0.53,1.89c-0.44-4.11-2.38-7.95-5.22-10.93c0,0,0,0,0-0.01c-0.01-0.01-0.02-0.01-0.03-0.02
		c-0.02-0.02-0.04-0.05-0.06-0.07c-0.01,0-0.01,0-0.02-0.01c-0.02-0.01-0.04-0.02-0.07-0.02c-0.02,0-0.04,0-0.05,0
		c-0.03,0-0.05-0.01-0.08,0c-0.01,0-0.02,0.01-0.03,0.01c0,0,0,0,0,0c-0.19,0.08-0.38,0.19-0.56,0.3c-0.39,0.25-0.74,0.54-1.07,0.86
		c-0.32,0.3-0.63,0.64-0.93,1c-0.69,0.82-1.29,1.71-1.83,2.63c-0.45,0.77-0.86,1.57-1.23,2.38c-0.28,0.63-0.56,1.3-0.79,1.98
		c-0.21,0.62-0.39,1.25-0.53,1.89c-0.44-4.12-2.38-7.95-5.22-10.93c0,0,0,0,0-0.01c-0.01-0.01-0.02-0.01-0.03-0.02
		c-0.02-0.02-0.04-0.05-0.06-0.07c-0.01,0-0.01,0-0.02-0.01c-0.02-0.01-0.04-0.02-0.07-0.02c-0.02,0-0.04,0-0.05,0
		c-0.03,0-0.05-0.01-0.08,0c-0.01,0-0.02,0.01-0.03,0.01c0,0,0,0,0,0c-0.19,0.08-0.38,0.19-0.56,0.3c-0.39,0.25-0.74,0.54-1.07,0.86
		c-0.32,0.3-0.63,0.64-0.93,1c-0.69,0.82-1.29,1.71-1.83,2.63c-0.45,0.77-0.86,1.57-1.23,2.38c-0.28,0.63-0.56,1.3-0.79,1.98
		c-0.21,0.62-0.39,1.25-0.53,1.89c-0.44-4.11-2.38-7.95-5.22-10.93c0,0,0,0,0-0.01c-0.01-0.01-0.02-0.01-0.03-0.02
		c-0.02-0.02-0.04-0.05-0.06-0.07c-0.01,0-0.01,0-0.02-0.01c-0.02-0.01-0.04-0.02-0.07-0.02c-0.02,0-0.04,0-0.05,0
		c-0.03,0-0.05-0.01-0.08,0c-0.01,0-0.02,0.01-0.03,0.01c0,0,0,0,0,0c-0.19,0.08-0.38,0.19-0.56,0.3c-0.39,0.25-0.74,0.54-1.07,0.86
		c-0.32,0.3-0.63,0.64-0.93,1c-0.69,0.82-1.29,1.71-1.83,2.63c-0.45,0.77-0.86,1.57-1.23,2.38c-0.28,0.63-0.56,1.3-0.79,1.98
		c-0.21,0.62-0.39,1.25-0.53,1.89c-0.45-4.11-2.38-7.94-5.21-10.92c0,0,0,0,0-0.01c-0.01-0.01-0.02-0.01-0.03-0.02
		C26,3.85,25.99,3.83,25.96,3.81c-0.01,0-0.01,0-0.02-0.01c-0.02-0.01-0.04-0.02-0.07-0.02c-0.02,0-0.04,0-0.05,0
		c-0.03,0-0.05-0.01-0.08,0c-0.01,0-0.02,0.01-0.03,0.01c0,0,0,0,0,0c-0.19,0.08-0.38,0.19-0.56,0.3c-0.39,0.25-0.74,0.54-1.07,0.86
		c-0.32,0.3-0.63,0.64-0.93,1c-0.69,0.82-1.29,1.71-1.83,2.63c-0.45,0.77-0.86,1.57-1.23,2.38c-0.28,0.63-0.56,1.3-0.79,1.98
		c-0.21,0.62-0.39,1.25-0.53,1.89c-0.44-4.11-2.38-7.95-5.22-10.93c0,0,0,0,0-0.01c-0.01-0.01-0.02-0.01-0.03-0.02
		c-0.02-0.02-0.04-0.05-0.06-0.07c-0.01,0-0.01,0-0.02-0.01c-0.02-0.01-0.04-0.02-0.07-0.02c-0.02,0-0.04,0-0.05,0
		c-0.03,0-0.05-0.01-0.08,0c-0.01,0-0.02,0.01-0.03,0.01c0,0,0,0,0,0c-0.19,0.08-0.38,0.19-0.56,0.3c-0.39,0.25-0.74,0.54-1.07,0.86
		c-0.32,0.3-0.63,0.64-0.93,1C9.98,6.77,9.38,7.66,8.84,8.58c-0.45,0.77-0.86,1.57-1.23,2.38c-0.28,0.63-0.56,1.3-0.79,1.98
		c-0.23,0.68-0.43,1.38-0.58,2.08c-0.13,0.64-0.22,1.3-0.22,1.95c0,0.04,0,0.07,0,0.11c0,0.13,0.12,0.24,0.26,0.24c0,0,0,0,0.01,0
		c0.14-0.01,0.24-0.13,0.24-0.26c0-0.04,0-0.09,0-0.13c0-0.04,0-0.08,0-0.12l0,0c0,0,0-0.01,0-0.01c0,0,0,0,0,0c0,0,0,0,0,0h0
		c0,0,0-0.01,0-0.01c0,0,0,0,0-0.01c0,0,0,0,0-0.01c0,0,0,0,0,0c0,0,0,0,0,0h0c0,0.01,0,0.02,0,0.03c0-0.03,0-0.07,0-0.1
		c0-0.08,0.01-0.17,0.01-0.25c0,0,0,0,0,0c0.02-0.27,0.05-0.54,0.09-0.81c0.09-0.61,0.25-1.24,0.44-1.86
		c0.27-0.89,0.6-1.76,0.99-2.61c0.01-0.01,0.01-0.03,0.02-0.04c0.42-0.93,0.9-1.84,1.44-2.72c0.42-0.67,0.87-1.33,1.38-1.96
		c0.32-0.4,0.67-0.79,1.05-1.15l0.03-0.02c0.21-0.2,0.44-0.4,0.7-0.59c0,0,0,0,0,0c0.15-0.11,0.31-0.21,0.47-0.31c0,0,0,0,0,0
		c0,0,0.01,0,0.01-0.01c0.01,0,0.01-0.01,0.02-0.01c0,0,0,0,0,0c0.05-0.02,0.09-0.05,0.14-0.07c2.13,2.55,4.13,5.46,4.65,8.82
		c0.25,1.29,0.5,2.6,0.57,3.91c0,0.02,0,0.03,0,0.05c0,0,0,0,0,0.01c0,0.02,0,0.04,0,0.06c-0.01,0.13,0.09,0.26,0.23,0.27
		c0.13,0.01,0.27-0.09,0.28-0.23c0-0.04-0.01-0.08-0.01-0.12c0,0,0,0,0,0c0-0.04,0-0.09,0-0.13c0-0.04,0-0.08,0-0.12l0,0
		c0,0,0-0.01,0-0.01c0,0,0,0,0,0c0,0,0,0,0,0h0c0,0,0-0.01,0-0.01c0,0,0,0,0-0.01c0,0,0,0,0-0.01c0,0,0,0,0,0c0,0,0,0,0,0h0
		c0,0.01,0,0.02,0,0.03c0-0.03,0-0.07,0-0.1c0-0.08,0.01-0.17,0.01-0.25c0,0,0,0,0,0c0.02-0.27,0.05-0.54,0.09-0.81
		c0.09-0.61,0.25-1.24,0.44-1.86c0.27-0.89,0.6-1.76,0.99-2.61c0.01-0.01,0.01-0.03,0.02-0.04c0.42-0.93,0.9-1.84,1.44-2.72
		c0.42-0.67,0.87-1.33,1.38-1.96c0.32-0.4,0.67-0.79,1.05-1.15l0.03-0.02c0.21-0.2,0.44-0.4,0.7-0.59c0,0,0,0,0,0
		c0.15-0.11,0.31-0.21,0.47-0.31c0,0,0,0,0,0c0,0,0.01,0,0.01-0.01c0.01,0,0.01-0.01,0.02-0.01c0,0,0,0,0,0
		c0.05-0.02,0.09-0.05,0.14-0.07c2.13,2.55,4.13,5.46,4.65,8.82c0.24,1.28,0.49,2.57,0.57,3.88c0,0.02,0,0.05,0,0.07
		c0,0,0,0.01,0.01,0.01c0,0.02,0,0.04,0,0.06c-0.01,0.13,0.09,0.26,0.23,0.27c0.13,0.01,0.27-0.09,0.28-0.23
		c0-0.04-0.01-0.09-0.01-0.13c0,0,0,0,0,0c0-0.04,0-0.09,0-0.13c0-0.04,0-0.08,0-0.12l0,0c0,0,0-0.01,0-0.01c0,0,0,0,0,0
		c0,0,0,0,0,0h0c0,0,0-0.01,0-0.01c0,0,0,0,0-0.01c0,0,0,0,0-0.01c0,0,0,0,0,0c0,0,0,0,0,0h0c0,0.01,0,0.02,0,0.03
		c0-0.03,0-0.07,0-0.1c0-0.08,0.01-0.17,0.01-0.25c0,0,0,0,0,0c0.02-0.27,0.05-0.54,0.09-0.81c0.09-0.61,0.25-1.24,0.44-1.86
		c0.27-0.89,0.6-1.76,0.99-2.61c0.01-0.01,0.01-0.03,0.02-0.04c0.42-0.93,0.9-1.84,1.44-2.72c0.42-0.67,0.87-1.33,1.38-1.96
		c0.32-0.4,0.67-0.79,1.05-1.15l0.03-0.02c0.21-0.2,0.44-0.4,0.7-0.59c0,0,0,0,0,0c0.15-0.11,0.31-0.21,0.47-0.31c0,0,0,0,0,0
		c0,0,0.01,0,0.01-0.01c0.01,0,0.01-0.01,0.02-0.01c0,0,0,0,0,0c0.05-0.02,0.09-0.05,0.14-0.07c2.13,2.55,4.13,5.46,4.65,8.82
		c0.25,1.29,0.5,2.6,0.57,3.91c0,0.02,0,0.03,0,0.05c0,0,0,0,0,0.01c0,0.02,0,0.04,0,0.06c-0.01,0.13,0.09,0.26,0.23,0.27
		c0.13,0.01,0.27-0.09,0.28-0.23c0-0.04-0.01-0.08-0.01-0.12c0,0,0,0,0,0c0-0.04,0-0.09,0-0.13c0-0.04,0-0.08,0-0.12l0,0
		c0,0,0-0.01,0-0.01c0,0,0,0,0,0c0,0,0,0,0,0h0c0,0,0-0.01,0-0.01c0,0,0,0,0-0.01c0,0,0,0,0-0.01c0,0,0,0,0,0c0,0,0,0,0,0h0
		c0,0.01,0,0.02,0,0.03c0-0.03,0-0.07,0-0.1c0-0.08,0.01-0.17,0.01-0.25c0,0,0,0,0,0c0.02-0.27,0.05-0.54,0.09-0.81
		c0.09-0.61,0.25-1.24,0.44-1.86c0.27-0.89,0.6-1.76,0.99-2.61c0.01-0.01,0.01-0.03,0.02-0.04c0.42-0.93,0.9-1.84,1.44-2.72
		c0.42-0.67,0.87-1.33,1.38-1.96c0.32-0.4,0.67-0.79,1.05-1.15l0.03-0.02c0.21-0.2,0.44-0.4,0.7-0.59c0,0,0,0,0,0
		c0.15-0.11,0.31-0.21,0.47-0.31c0,0,0,0,0,0c0,0,0.01,0,0.01-0.01c0.01,0,0.01-0.01,0.02-0.01c0,0,0,0,0,0
		c0.05-0.02,0.09-0.05,0.14-0.07c2.13,2.55,4.13,5.46,4.65,8.82c0.25,1.29,0.5,2.6,0.57,3.91c0,0.02,0,0.03,0,0.05c0,0,0,0,0,0.01
		c0,0.02,0,0.03,0,0.05c-0.01,0.13,0.09,0.26,0.23,0.27c0.13,0.01,0.27-0.09,0.28-0.23c0-0.04-0.01-0.08-0.01-0.12c0,0,0,0,0,0
		c0-0.04,0-0.09,0-0.13c0-0.04,0-0.08,0-0.12l0,0c0,0,0-0.01,0-0.01c0,0,0,0,0,0c0,0,0,0,0,0h0c0,0,0-0.01,0-0.01c0,0,0,0,0-0.01
		c0,0,0,0,0-0.01c0,0,0,0,0,0c0,0,0,0,0,0h0c0,0.01,0,0.02,0,0.03c0-0.03,0-0.07,0-0.1c0-0.08,0.01-0.17,0.01-0.25c0,0,0,0,0,0
		c0.02-0.27,0.05-0.54,0.09-0.81c0.09-0.61,0.25-1.24,0.44-1.86c0.27-0.89,0.6-1.76,0.99-2.61c0.01-0.01,0.01-0.03,0.02-0.04
		c0.42-0.93,0.9-1.84,1.44-2.72c0.42-0.67,0.87-1.33,1.38-1.96c0.32-0.4,0.67-0.79,1.05-1.15l0.03-0.02c0.21-0.2,0.44-0.4,0.7-0.59
		c0,0,0,0,0,0c0.15-0.11,0.31-0.21,0.47-0.31c0,0,0,0,0,0c0,0,0.01,0,0.01-0.01c0.01,0,0.01-0.01,0.02-0.01c0,0,0,0,0,0
		c0.05-0.02,0.09-0.05,0.14-0.07c2.13,2.55,4.13,5.46,4.65,8.82c0.25,1.29,0.5,2.6,0.57,3.91c0,0.01,0,0.03,0,0.04c0,0,0,0,0,0.01
		c0,0.02,0,0.04,0,0.06c-0.01,0.13,0.09,0.26,0.23,0.27c0.13,0.01,0.27-0.09,0.28-0.23c0-0.04-0.01-0.08-0.01-0.12c0,0,0,0,0-0.01
		c0-0.04,0-0.09,0-0.13c0-0.04,0-0.08,0-0.12l0,0c0,0,0-0.01,0-0.01c0,0,0,0,0,0c0,0,0,0,0,0h0c0,0,0-0.01,0-0.01c0,0,0,0,0-0.01
		c0,0,0,0,0-0.01c0,0,0,0,0,0c0,0,0,0,0,0h0c0,0.01,0,0.02,0,0.03c0-0.03,0-0.07,0-0.1c0-0.08,0.01-0.17,0.01-0.25c0,0,0,0,0,0
		c0.02-0.27,0.05-0.54,0.09-0.81c0.09-0.61,0.25-1.24,0.44-1.86c0.27-0.89,0.6-1.76,0.99-2.61c0.01-0.01,0.01-0.03,0.02-0.04
		c0.42-0.93,0.9-1.84,1.44-2.72c0.42-0.67,0.87-1.33,1.38-1.96c0.32-0.4,0.67-0.79,1.05-1.15l0.03-0.02c0.21-0.2,0.44-0.4,0.7-0.59
		c0,0,0,0,0,0c0.15-0.11,0.31-0.21,0.47-0.31c0,0,0,0,0,0c0,0,0.01,0,0.01-0.01c0.01,0,0.01-0.01,0.02-0.01c0,0,0,0,0,0
		c0.05-0.02,0.09-0.05,0.14-0.07c2.13,2.55,4.13,5.46,4.65,8.82c0.24,1.28,0.49,2.57,0.57,3.88c0,0.02,0,0.05,0,0.07
		c0,0,0,0.01,0.01,0.01c0,0.02,0,0.04,0,0.06c-0.01,0.13,0.09,0.26,0.23,0.27c0.13,0.01,0.27-0.09,0.28-0.23
		c0-0.05-0.01-0.09-0.01-0.13c0,0,0,0,0,0c0-0.04,0-0.09,0-0.13c0-0.04,0-0.08,0-0.12l0,0c0,0,0-0.01,0-0.01c0,0,0,0,0,0
		c0,0,0,0,0,0h0c0,0,0-0.01,0-0.01c0,0,0,0,0-0.01c0,0,0,0,0-0.01c0,0,0,0,0,0c0,0,0,0,0,0h0c0,0.01,0,0.02,0,0.03
		c0-0.03,0-0.07,0-0.1c0-0.08,0.01-0.17,0.01-0.25c0,0,0,0,0,0c0.02-0.27,0.05-0.54,0.09-0.81c0.09-0.61,0.25-1.24,0.44-1.86
		c0.27-0.89,0.6-1.76,0.99-2.61c0.01-0.01,0.01-0.03,0.02-0.04c0.42-0.93,0.9-1.84,1.44-2.72c0.42-0.67,0.87-1.33,1.38-1.96
		c0.32-0.4,0.67-0.79,1.05-1.15l0.03-0.02c0.21-0.2,0.44-0.4,0.7-0.59c0,0,0,0,0,0c0.15-0.11,0.31-0.21,0.47-0.31c0,0,0,0,0,0
		c0,0,0.01,0,0.01-0.01c0.01,0,0.01-0.01,0.02-0.01c0,0,0,0,0,0c0.05-0.02,0.09-0.05,0.14-0.07c2.13,2.55,4.13,5.46,4.65,8.82
		c0.25,1.33,0.51,2.67,0.58,4.02c-0.01,0.13,0.09,0.26,0.23,0.27c0.13,0.01,0.27-0.09,0.28-0.23
		C93.96,16.39,93.83,15.61,93.72,14.83z M6.53,16.78C6.53,16.78,6.53,16.78,6.53,16.78C6.53,16.78,6.53,16.78,6.53,16.78
		C6.53,16.78,6.53,16.78,6.53,16.78z M19.02,16.78C19.02,16.78,19.02,16.78,19.02,16.78C19.02,16.78,19.02,16.78,19.02,16.78
		C19.02,16.78,19.02,16.78,19.02,16.78z M31.51,16.77C31.51,16.77,31.51,16.77,31.51,16.77C31.51,16.77,31.51,16.77,31.51,16.77
		C31.51,16.77,31.51,16.77,31.51,16.77z M44,16.77C44,16.77,44,16.77,44,16.77C44,16.77,44,16.77,44,16.77
		C44,16.77,44,16.77,44,16.77z M56.5,16.78C56.5,16.78,56.5,16.78,56.5,16.78C56.5,16.77,56.5,16.77,56.5,16.78
		C56.5,16.77,56.5,16.78,56.5,16.78z M68.99,16.78C68.99,16.78,68.99,16.78,68.99,16.78C68.99,16.77,68.99,16.77,68.99,16.78
		C68.99,16.77,68.99,16.78,68.99,16.78z M81.48,16.77C81.48,16.77,81.48,16.77,81.48,16.77C81.48,16.77,81.48,16.76,81.48,16.77
		C81.48,16.77,81.48,16.77,81.48,16.77z"/>
	<path d="M92.65,16.02c-0.14-1.34-0.47-2.69-0.89-3.97c-0.14-0.43-0.29-0.87-0.5-1.28c-0.39-0.86-0.86-1.69-1.34-2.51
		c-0.31-0.54-0.64-1.08-1.01-1.59c-0.17-0.23-0.5-0.79-0.82-0.84c-0.3-0.04-0.55,0.36-0.72,0.54c-0.43,0.47-0.87,0.93-1.28,1.41
		c-0.8,0.95-1.53,1.98-2.07,3.1c-0.47,0.99-0.86,1.99-1.15,3.05c-0.14,0.52-0.26,1.05-0.35,1.59c-0.05,0.3-0.34,1.26-0.19,1.52
		c0.09,0.15,0.32,0.14,0.42,0c0.09-0.16,0.06-0.38,0.1-0.56c0.08-0.42,0.17-0.83,0.26-1.24c0.15,0.08,0.32,0.15,0.41,0.27
		c0.7,0.45,0.95,1.3,1.49,1.88c0.42,0.12,0.4-0.43,0.46-0.7c0.1-0.77,0.25-1.56,0.45-2.33c0.22,0.36,0.4,0.75,0.58,1.13
		c0.17,0.39,0.33,0.78,0.5,1.17c0.06,0.14,0.11,0.29,0.19,0.41c0.07,0.11,0.09,0.24,0.17,0.34c0.07,0.08,0.21,0.12,0.3,0.05
		c0.05-0.04,0.09-0.13,0.12-0.19c0.18-0.35,0.28-0.73,0.41-1.1c0.15-0.42,0.31-0.84,0.49-1.24c0.1-0.21,0.2-0.42,0.3-0.63
		c0.05-0.1,0.11-0.21,0.16-0.31c0.02-0.04,0.17-0.25,0.16-0.28c0.38,1.05,0.65,2.14,0.76,3.24c0.05,0.32,0.56,0.23,0.5-0.09
		c-0.14-1.26-0.46-2.52-0.93-3.72c0.39-0.63,0.83-1.22,1.31-1.77c-0.02,0.03,0.15,0.39,0.17,0.44c0.06,0.15,0.11,0.31,0.17,0.47
		c0.11,0.31,0.21,0.63,0.3,0.94c0.18,0.63,0.33,1.28,0.44,1.93c0.08,0.44,0.13,0.89,0.17,1.34c0.02,0.18-0.01,1.02,0.38,0.91
		c0.13-0.04,0.17-0.24,0.15-0.36C92.69,16.71,92.68,16.36,92.65,16.02z M88.1,6.36c0.4,0.54,0.78,1.09,1.13,1.66
		c-0.6,0.48-1.14,1.02-1.6,1.63c-0.37-0.48-0.77-0.93-1.21-1.35C86.96,7.65,87.53,7,88.1,6.36z M85,16.5
		c-0.2-0.39-1.12-1.58-1.77-1.76c0.2-0.85,0.43-1.69,0.75-2.5c0.55,0.51,1.09,1,1.58,1.57C85.3,14.7,85.11,15.6,85,16.5z
		 M85.72,13.32c-0.46-0.56-0.96-1.09-1.53-1.57c0.16-0.37,0.32-0.73,0.52-1.09c0.42-0.67,0.9-1.32,1.39-1.95
		c0.44,0.43,0.85,0.89,1.23,1.38C86.64,11.07,86.11,12.17,85.72,13.32z M87.52,16.58c-0.32-1.02-0.8-1.95-1.42-2.8
		c0.34-1.13,0.81-2.22,1.47-3.2c0.02-0.03,0.04-0.05,0.06-0.07c0.58,0.82,1.07,1.72,1.45,2.65C88.44,14.23,87.9,15.37,87.52,16.58z
		 M90.24,11.41c-0.3,0.39-0.58,0.79-0.84,1.2c-0.4-0.89-0.87-1.75-1.45-2.54c0.48-0.58,1.04-1.11,1.5-1.68
		c0.47,0.79,0.88,1.6,1.25,2.44C90.53,11.01,90.37,11.28,90.24,11.41z"/>
</g>
</svg>
