<?xml version="1.0" encoding="utf-8"?>
<!-- Generator: Adobe Illustrator 23.0.0, SVG Export Plug-In . SVG Version: 6.00 Build 0)  -->
<svg version="1.1" id="Слой_1" xmlns="http://www.w3.org/2000/svg" xmlns:xlink="http://www.w3.org/1999/xlink" x="0px" y="0px"
	 viewBox="0 0 100 21.28" style="enable-background:new 0 0 100 21.28;" xml:space="preserve">
<g>
	<path d="M16.77,11.83c-0.32-0.87-0.66-1.73-1.09-2.55c-0.04-0.07-0.07-0.13-0.11-0.2c-0.43-0.78-0.95-1.5-1.52-2.19
		c-0.32-0.39-0.64-0.83-1.03-1.14c-0.2-0.16-0.36-0.07-0.54,0.09c-0.9,0.77-1.68,1.67-2.35,2.64C9.67,9.17,9.29,9.89,8.9,10.62
		c-0.22,0.42-0.39,0.84-0.54,1.29c-0.16,0.45-0.36,0.9-0.46,1.37c-0.12,0.53-0.24,1.06-0.32,1.6c-0.05,0.34-0.09,0.69-0.13,1.03
		c-0.02,0.23-0.1,0.47-0.05,0.7c0.07,0.31,0.37,0.32,0.64,0.33c1.18,0.05,2.4,0.21,3.58,0.08c0.28-0.03,0.74-0.03,0.83-0.38
		c0.1-0.39,0.11-0.83,0.17-1.23c0.06-0.44,0.12-0.88,0.18-1.32c0.24-1.75,1.34-3.29,2.45-4.61c0.03,0.03,0.26,0.6,0.28,0.66
		c-0.78,0.8-1.32,1.81-1.68,2.87s-0.52,2.17-0.6,3.29c-0.01,0.15,0,0.34,0.14,0.4c0.11,0.05,0.24-0.03,0.3-0.13s0.06-0.23,0.07-0.34
		c0.1-2.01,0.66-4.08,2.01-5.58c0.11,0.28,0.23,0.56,0.34,0.83c0.03,0.07,0.06,0.14,0.06,0.21c0,0.09-0.04,0.17-0.08,0.25
		c-0.69,1.41-1.36,2.87-1.46,4.43c-0.01,0.17,0.02,0.4,0.19,0.43c0.11,0.02,0.21-0.06,0.25-0.16c0.05-0.1,0.05-0.21,0.06-0.31
		c0.08-1.41,0.7-2.72,1.31-3.99c0.16,0.43,0.31,0.86,0.45,1.3c0.02,0.07,0.04,0.13,0.04,0.2c0,0.11-0.06,0.21-0.11,0.3
		c-0.39,0.7-0.63,1.47-0.72,2.26c-0.01,0.1-0.02,0.2,0.02,0.29c0.03,0.09,0.12,0.17,0.21,0.17c0.17,0,0.24-0.22,0.26-0.39
		c0.09-0.65,0.27-1.28,0.55-1.87c0.16,0.61,0.26,1.24,0.31,1.87c0.01,0.16,0.05,0.36,0.21,0.39c0.11,0.03,0.23-0.06,0.27-0.16
		s0.04-0.23,0.03-0.34C17.84,14.78,17.3,13.29,16.77,11.83z M12.14,15.29c-0.47-0.07-0.7-0.09-1.08-0.15
		c-0.27-0.03-0.53-0.05-0.8-0.09c-0.28,0-0.3,0.42-0.06,0.48c0.63,0.11,1.24,0.1,1.87,0.25c-0.01,0.11-0.03,0.23-0.04,0.34
		c-0.02,0.15-0.44,0.24-0.55,0.27c-0.3,0.09-0.59,0.11-0.9,0.12c-0.35,0.02-0.69,0.04-1.04,0.02c-0.31-0.01-0.65-0.03-0.95-0.14
		c-0.55-0.21-0.54-0.74-0.45-1.24c0.05-0.3,0.21-0.58,0.45-0.77c0.87-0.69,2.04-0.21,2.99,0.12c0.17,0.03,0.4,0.1,0.65,0.14
		C12.2,14.86,12.17,15.07,12.14,15.29z M12.9,12.13c-0.03,0.08-0.06,0.15-0.09,0.23c-0.04,0.1-0.07,0.21-0.11,0.31
		c-0.02,0.05-0.03,0.11-0.05,0.16c0,0.01-0.05,0.15-0.05,0.16c-0.08-0.05-0.16-0.1-0.25-0.14c-0.34-0.15-0.65-0.28-1-0.44
		c-0.17-0.11-0.44-0.03-0.43,0.2c0,0.11,0.09,0.2,0.18,0.22c0.43,0.21,0.92,0.36,1.34,0.62c0.01,0.01,0.02,0.01,0.03,0.02
		c-0.05,0.21-0.09,0.42-0.14,0.63c-0.02-0.01-0.04-0.02-0.06-0.02c-1.09-0.42-2.52-0.38-3.22-1.46c-0.14-0.29-0.15-0.63-0.07-0.95
		c0.1-0.25,0.2-0.53,0.38-0.74c0.16-0.2,0.39-0.35,0.63-0.41c0.16-0.04,0.31-0.05,0.46-0.01c0.16,0.03,0.31,0.09,0.45,0.16
		c0.27,0.13,0.54,0.3,0.78,0.47c0.25,0.17,0.43,0.35,0.68,0.53c0.08,0.06,0.21,0.14,0.29,0.19c0.07,0.04,0.13,0.07,0.2,0.11
		c0.02,0.01,0.07,0.03,0.08,0.05C12.96,12.05,12.91,12.1,12.9,12.13z M14.71,9.31c-0.24,0.28-0.49,0.62-0.68,0.91
		c-0.2-0.34-0.46-0.64-0.65-0.96c-0.04-0.12-0.18-0.19-0.3-0.15c-0.13,0.04-0.19,0.18-0.16,0.31c0.03,0.11,0.12,0.22,0.19,0.32
		c0.07,0.1,0.15,0.2,0.22,0.3c0.08,0.1,0.15,0.2,0.22,0.31c0.05,0.07,0.11,0.18,0.21,0.29c-0.02,0.03-0.04,0.06-0.05,0.08
		c-0.2,0.27-0.37,0.56-0.52,0.85c-0.02,0.04-0.62-0.51-0.66-0.54c-0.86-0.67-1.31-1.73-0.98-2.8c0.1-0.31,0.27-0.61,0.55-0.77
		c0.81-0.45,1.65,0.34,2.06,0.96C14.22,8.53,14.82,9.19,14.71,9.31z"/>
	<path d="M10.36,11.48c-0.37-0.13-0.47,0.52-0.12,0.59C10.6,12.15,10.64,11.59,10.36,11.48z"/>
	<path d="M12.62,8.07c-0.15,0.18-0.2,0.56,0.11,0.61c0.13,0.02,0.28-0.08,0.35-0.18c0.07-0.11,0.04-0.26-0.03-0.37
		C12.94,7.98,12.76,7.9,12.62,8.07z"/>
	<path d="M10.19,15.52c0.01,0,0.01,0,0.02,0c0,0,0,0-0.01,0C10.19,15.52,10.19,15.52,10.19,15.52
		C10.18,15.52,10.19,15.52,10.19,15.52z"/>
	<path d="M9.31,14.94c-0.37-0.14-0.54,0.57-0.17,0.66C9.5,15.67,9.61,15.08,9.31,14.94z"/>
	<polygon points="12.44,16.73 12.44,16.72 12.44,16.73 	"/>
	<path d="M29.25,11.83c-0.32-0.87-0.66-1.73-1.09-2.55c-0.04-0.07-0.07-0.13-0.11-0.2c-0.43-0.78-0.95-1.5-1.52-2.19
		c-0.32-0.39-0.64-0.83-1.03-1.14c-0.2-0.16-0.36-0.07-0.54,0.09c-0.9,0.77-1.68,1.67-2.35,2.64c-0.47,0.69-0.85,1.41-1.23,2.14
		c-0.22,0.42-0.39,0.84-0.54,1.29c-0.16,0.45-0.36,0.9-0.46,1.37c-0.12,0.53-0.24,1.06-0.32,1.6c-0.05,0.34-0.09,0.69-0.13,1.03
		c-0.02,0.23-0.1,0.47-0.05,0.7c0.07,0.31,0.37,0.32,0.64,0.33c1.18,0.05,2.4,0.21,3.58,0.08c0.28-0.03,0.74-0.03,0.83-0.38
		c0.1-0.39,0.11-0.83,0.17-1.23c0.06-0.44,0.12-0.88,0.18-1.32c0.24-1.75,1.34-3.29,2.45-4.61c0.03,0.03,0.26,0.6,0.28,0.66
		c-0.78,0.8-1.32,1.81-1.68,2.87s-0.52,2.17-0.6,3.29c-0.01,0.15,0,0.34,0.14,0.4c0.11,0.05,0.24-0.03,0.3-0.13
		c0.06-0.1,0.06-0.23,0.07-0.34c0.1-2.01,0.66-4.08,2.01-5.58c0.11,0.28,0.23,0.56,0.34,0.83c0.03,0.07,0.06,0.14,0.06,0.21
		c0,0.09-0.04,0.17-0.08,0.25c-0.69,1.41-1.36,2.87-1.46,4.43c-0.01,0.17,0.02,0.4,0.19,0.43c0.11,0.02,0.21-0.06,0.25-0.16
		c0.05-0.1,0.05-0.21,0.06-0.31c0.08-1.41,0.7-2.72,1.31-3.99c0.16,0.43,0.31,0.86,0.45,1.3c0.02,0.07,0.04,0.13,0.04,0.2
		c0,0.11-0.06,0.21-0.11,0.3c-0.39,0.7-0.63,1.47-0.72,2.26c-0.01,0.1-0.02,0.2,0.02,0.29s0.12,0.17,0.21,0.17
		c0.17,0,0.24-0.22,0.26-0.39c0.09-0.65,0.27-1.28,0.55-1.87c0.16,0.61,0.26,1.24,0.31,1.87c0.01,0.16,0.05,0.36,0.21,0.39
		c0.11,0.03,0.23-0.06,0.27-0.16s0.04-0.23,0.03-0.34C30.32,14.78,29.78,13.29,29.25,11.83z M24.61,15.29
		c-0.47-0.07-0.7-0.09-1.08-0.15c-0.27-0.03-0.53-0.05-0.8-0.09c-0.28,0-0.3,0.42-0.06,0.48c0.63,0.11,1.24,0.1,1.87,0.25
		c-0.01,0.11-0.03,0.23-0.04,0.34c-0.02,0.15-0.44,0.24-0.55,0.27c-0.3,0.09-0.59,0.11-0.9,0.12c-0.35,0.02-0.69,0.04-1.04,0.02
		c-0.31-0.01-0.65-0.03-0.95-0.14c-0.55-0.21-0.54-0.74-0.45-1.24c0.05-0.3,0.21-0.58,0.45-0.77c0.87-0.69,2.04-0.21,2.99,0.12
		c0.17,0.03,0.4,0.1,0.65,0.14C24.68,14.86,24.64,15.07,24.61,15.29z M25.38,12.13c-0.03,0.08-0.06,0.15-0.09,0.23
		c-0.04,0.1-0.07,0.21-0.11,0.31c-0.02,0.05-0.03,0.11-0.05,0.16c0,0.01-0.05,0.15-0.05,0.16c-0.08-0.05-0.16-0.1-0.25-0.14
		c-0.34-0.15-0.65-0.28-1-0.44c-0.17-0.11-0.44-0.03-0.43,0.2c0,0.11,0.09,0.2,0.18,0.22c0.43,0.21,0.92,0.36,1.34,0.62
		c0.01,0.01,0.02,0.01,0.03,0.02c-0.05,0.21-0.09,0.42-0.14,0.63c-0.02-0.01-0.04-0.02-0.06-0.02c-1.09-0.42-2.52-0.38-3.22-1.46
		c-0.14-0.29-0.15-0.63-0.07-0.95c0.1-0.25,0.2-0.53,0.38-0.74c0.16-0.2,0.39-0.35,0.63-0.41c0.16-0.04,0.31-0.05,0.46-0.01
		c0.16,0.03,0.31,0.09,0.45,0.16c0.27,0.13,0.54,0.3,0.78,0.47c0.25,0.17,0.43,0.35,0.68,0.53c0.08,0.06,0.21,0.14,0.29,0.19
		c0.07,0.04,0.13,0.07,0.2,0.11c0.02,0.01,0.07,0.03,0.08,0.05C25.43,12.05,25.39,12.1,25.38,12.13z M27.19,9.31
		c-0.24,0.28-0.49,0.62-0.68,0.91c-0.2-0.34-0.46-0.64-0.65-0.96c-0.04-0.12-0.18-0.19-0.3-0.15c-0.13,0.04-0.19,0.18-0.16,0.31
		c0.03,0.11,0.12,0.22,0.19,0.32c0.07,0.1,0.15,0.2,0.22,0.3c0.08,0.1,0.15,0.2,0.22,0.31c0.05,0.07,0.11,0.18,0.21,0.29
		c-0.02,0.03-0.04,0.06-0.05,0.08c-0.2,0.27-0.37,0.56-0.52,0.85c-0.02,0.04-0.62-0.51-0.66-0.54c-0.86-0.67-1.31-1.73-0.98-2.8
		c0.1-0.31,0.27-0.61,0.55-0.77c0.81-0.45,1.65,0.34,2.06,0.96C26.69,8.53,27.3,9.19,27.19,9.31z"/>
	<path d="M22.84,11.48c-0.37-0.13-0.47,0.52-0.12,0.59C23.08,12.15,23.12,11.59,22.84,11.48z"/>
	<path d="M25.1,8.07c-0.15,0.18-0.2,0.56,0.11,0.61c0.13,0.02,0.28-0.08,0.35-0.18c0.07-0.11,0.04-0.26-0.03-0.37
		C25.42,7.98,25.23,7.9,25.1,8.07z"/>
	<path d="M22.67,15.52c0.01,0,0.01,0,0.02,0c0,0,0,0-0.01,0C22.67,15.52,22.66,15.52,22.67,15.52
		C22.66,15.52,22.66,15.52,22.67,15.52z"/>
	<path d="M21.79,14.94c-0.37-0.14-0.54,0.57-0.17,0.66C21.98,15.67,22.09,15.08,21.79,14.94z"/>
	<polygon points="24.92,16.73 24.92,16.72 24.92,16.73 	"/>
	<path d="M41.73,11.83c-0.32-0.87-0.66-1.73-1.09-2.55c-0.04-0.07-0.07-0.13-0.11-0.2c-0.43-0.78-0.95-1.5-1.52-2.19
		c-0.32-0.39-0.64-0.83-1.03-1.14c-0.2-0.16-0.36-0.07-0.54,0.09c-0.9,0.77-1.68,1.67-2.35,2.64c-0.47,0.69-0.85,1.41-1.23,2.14
		c-0.22,0.42-0.39,0.84-0.54,1.29c-0.16,0.45-0.36,0.9-0.46,1.37c-0.12,0.53-0.24,1.06-0.32,1.6c-0.05,0.34-0.09,0.69-0.13,1.03
		c-0.02,0.23-0.1,0.47-0.05,0.7c0.07,0.31,0.37,0.32,0.64,0.33c1.18,0.05,2.4,0.21,3.58,0.08c0.28-0.03,0.74-0.03,0.83-0.38
		c0.1-0.39,0.11-0.83,0.17-1.23c0.06-0.44,0.12-0.88,0.18-1.32c0.24-1.75,1.34-3.29,2.45-4.61c0.03,0.03,0.26,0.6,0.28,0.66
		c-0.78,0.8-1.32,1.81-1.68,2.87s-0.52,2.17-0.6,3.29c-0.01,0.15,0,0.34,0.14,0.4c0.11,0.05,0.24-0.03,0.3-0.13
		c0.06-0.1,0.06-0.23,0.07-0.34c0.1-2.01,0.66-4.08,2.01-5.58c0.11,0.28,0.23,0.56,0.34,0.83c0.03,0.07,0.06,0.14,0.06,0.21
		c0,0.09-0.04,0.17-0.08,0.25c-0.69,1.41-1.36,2.87-1.46,4.43c-0.01,0.17,0.02,0.4,0.19,0.43c0.11,0.02,0.21-0.06,0.25-0.16
		c0.05-0.1,0.05-0.21,0.06-0.31c0.08-1.41,0.7-2.72,1.31-3.99c0.16,0.43,0.31,0.86,0.45,1.3c0.02,0.07,0.04,0.13,0.04,0.2
		c0,0.11-0.06,0.21-0.11,0.3c-0.39,0.7-0.63,1.47-0.72,2.26c-0.01,0.1-0.02,0.2,0.02,0.29c0.03,0.09,0.12,0.17,0.21,0.17
		c0.17,0,0.24-0.22,0.26-0.39c0.09-0.65,0.27-1.28,0.55-1.87c0.16,0.61,0.26,1.24,0.31,1.87c0.01,0.16,0.05,0.36,0.21,0.39
		c0.11,0.03,0.23-0.06,0.27-0.16s0.04-0.23,0.03-0.34C42.81,14.78,42.27,13.29,41.73,11.83z M37.1,15.29
		c-0.47-0.07-0.7-0.09-1.08-0.15c-0.27-0.03-0.53-0.05-0.8-0.09c-0.28,0-0.3,0.42-0.06,0.48c0.63,0.11,1.24,0.1,1.87,0.25
		C37.02,15.89,37,16,36.99,16.12c-0.02,0.15-0.44,0.24-0.55,0.27c-0.3,0.09-0.59,0.11-0.9,0.12c-0.35,0.02-0.69,0.04-1.04,0.02
		c-0.31-0.01-0.65-0.03-0.95-0.14c-0.55-0.21-0.54-0.74-0.45-1.24c0.05-0.3,0.21-0.58,0.45-0.77c0.87-0.69,2.04-0.21,2.99,0.12
		c0.17,0.03,0.4,0.1,0.65,0.14C37.16,14.86,37.13,15.07,37.1,15.29z M37.87,12.13c-0.03,0.08-0.06,0.15-0.09,0.23
		c-0.04,0.1-0.07,0.21-0.11,0.31c-0.02,0.05-0.03,0.11-0.05,0.16c0,0.01-0.05,0.15-0.05,0.16c-0.08-0.05-0.16-0.1-0.25-0.14
		c-0.34-0.15-0.65-0.28-1-0.44c-0.17-0.11-0.44-0.03-0.43,0.2c0,0.11,0.09,0.2,0.18,0.22c0.43,0.21,0.92,0.36,1.34,0.62
		c0.01,0.01,0.02,0.01,0.03,0.02c-0.05,0.21-0.1,0.42-0.14,0.63c-0.02-0.01-0.04-0.02-0.06-0.02c-1.09-0.42-2.52-0.38-3.22-1.46
		c-0.14-0.29-0.15-0.63-0.07-0.95c0.1-0.25,0.2-0.53,0.38-0.74c0.16-0.2,0.39-0.35,0.63-0.41c0.16-0.04,0.31-0.05,0.46-0.01
		c0.16,0.03,0.31,0.09,0.45,0.16c0.27,0.13,0.54,0.3,0.78,0.47c0.25,0.17,0.43,0.35,0.68,0.53c0.08,0.06,0.21,0.14,0.29,0.19
		c0.07,0.04,0.13,0.07,0.2,0.11c0.02,0.01,0.07,0.03,0.08,0.05C37.92,12.05,37.88,12.1,37.87,12.13z M39.68,9.31
		c-0.24,0.28-0.49,0.62-0.68,0.91c-0.2-0.34-0.46-0.64-0.65-0.96c-0.04-0.12-0.18-0.19-0.3-0.15c-0.13,0.04-0.19,0.18-0.16,0.31
		C37.9,9.52,38,9.64,38.06,9.73c0.07,0.1,0.15,0.2,0.22,0.3c0.08,0.1,0.15,0.2,0.22,0.31c0.05,0.07,0.11,0.18,0.21,0.29
		c-0.02,0.03-0.04,0.06-0.05,0.08c-0.2,0.27-0.37,0.56-0.52,0.85c-0.02,0.04-0.62-0.51-0.66-0.54c-0.86-0.67-1.31-1.73-0.98-2.8
		c0.1-0.31,0.27-0.61,0.55-0.77c0.81-0.45,1.65,0.34,2.06,0.96C39.18,8.53,39.78,9.19,39.68,9.31z"/>
	<path d="M35.32,11.48c-0.37-0.13-0.47,0.52-0.12,0.59C35.56,12.15,35.6,11.59,35.32,11.48z"/>
	<path d="M37.58,8.07c-0.15,0.18-0.2,0.56,0.11,0.61c0.13,0.02,0.28-0.08,0.35-0.18c0.07-0.11,0.04-0.26-0.03-0.37
		C37.91,7.98,37.72,7.9,37.58,8.07z"/>
	<path d="M35.15,15.52c0.01,0,0.01,0,0.02,0c0,0,0,0-0.01,0C35.16,15.52,35.15,15.52,35.15,15.52
		C35.15,15.52,35.15,15.52,35.15,15.52z"/>
	<path d="M34.28,14.94c-0.37-0.14-0.54,0.57-0.17,0.66C34.46,15.67,34.58,15.08,34.28,14.94z"/>
	<polygon points="37.4,16.73 37.41,16.72 37.4,16.73 	"/>
	<path d="M54.21,11.83c-0.32-0.87-0.66-1.73-1.09-2.55c-0.04-0.07-0.07-0.13-0.11-0.2c-0.43-0.78-0.95-1.5-1.52-2.19
		c-0.32-0.39-0.64-0.83-1.03-1.14c-0.2-0.16-0.36-0.07-0.54,0.09c-0.9,0.77-1.68,1.67-2.35,2.64c-0.47,0.69-0.85,1.41-1.23,2.14
		c-0.22,0.42-0.39,0.84-0.54,1.29c-0.16,0.45-0.36,0.9-0.46,1.37c-0.12,0.53-0.24,1.06-0.32,1.6c-0.05,0.34-0.09,0.69-0.13,1.03
		c-0.02,0.23-0.1,0.47-0.05,0.7c0.07,0.31,0.37,0.32,0.64,0.33c1.18,0.05,2.4,0.21,3.58,0.08c0.28-0.03,0.74-0.03,0.83-0.38
		c0.1-0.39,0.11-0.83,0.17-1.23c0.06-0.44,0.12-0.88,0.18-1.32c0.24-1.75,1.34-3.29,2.45-4.61c0.03,0.03,0.26,0.6,0.28,0.66
		c-0.78,0.8-1.32,1.81-1.68,2.87s-0.52,2.17-0.6,3.29c-0.01,0.15,0,0.34,0.14,0.4c0.11,0.05,0.24-0.03,0.3-0.13
		c0.06-0.1,0.06-0.23,0.07-0.34c0.1-2.01,0.66-4.08,2.01-5.58c0.11,0.28,0.23,0.56,0.34,0.83c0.03,0.07,0.06,0.14,0.06,0.21
		c0,0.09-0.04,0.17-0.08,0.25c-0.69,1.41-1.36,2.87-1.46,4.43c-0.01,0.17,0.02,0.4,0.19,0.43c0.11,0.02,0.21-0.06,0.25-0.16
		c0.05-0.1,0.05-0.21,0.06-0.31c0.08-1.41,0.7-2.72,1.31-3.99c0.16,0.43,0.31,0.86,0.45,1.3c0.02,0.07,0.04,0.13,0.04,0.2
		c0,0.11-0.06,0.21-0.11,0.3c-0.39,0.7-0.63,1.47-0.72,2.26c-0.01,0.1-0.02,0.2,0.02,0.29c0.03,0.09,0.12,0.17,0.21,0.17
		c0.17,0,0.24-0.22,0.26-0.39c0.09-0.65,0.27-1.28,0.55-1.87c0.16,0.61,0.26,1.24,0.31,1.87c0.01,0.16,0.05,0.36,0.21,0.39
		c0.11,0.03,0.23-0.06,0.27-0.16s0.04-0.23,0.03-0.34C55.28,14.78,54.74,13.29,54.21,11.83z M49.58,15.29
		c-0.47-0.07-0.7-0.09-1.08-0.15c-0.27-0.03-0.53-0.05-0.8-0.09c-0.28,0-0.3,0.42-0.06,0.48c0.63,0.11,1.24,0.1,1.87,0.25
		c-0.01,0.11-0.03,0.23-0.04,0.34c-0.02,0.15-0.44,0.24-0.55,0.27c-0.3,0.09-0.59,0.11-0.9,0.12c-0.35,0.02-0.69,0.04-1.04,0.02
		c-0.31-0.01-0.65-0.03-0.95-0.14c-0.55-0.21-0.54-0.74-0.45-1.24c0.05-0.3,0.21-0.58,0.45-0.77c0.87-0.69,2.04-0.21,2.99,0.12
		c0.17,0.03,0.4,0.1,0.65,0.14C49.64,14.86,49.61,15.07,49.58,15.29z M50.34,12.13c-0.03,0.08-0.06,0.15-0.09,0.23
		c-0.04,0.1-0.07,0.21-0.11,0.31c-0.02,0.05-0.03,0.11-0.05,0.16c0,0.01-0.05,0.15-0.05,0.16c-0.08-0.05-0.16-0.1-0.25-0.14
		c-0.34-0.15-0.65-0.28-1-0.44c-0.17-0.11-0.44-0.03-0.43,0.2c0,0.11,0.09,0.2,0.18,0.22c0.43,0.21,0.92,0.36,1.34,0.62
		c0.01,0.01,0.02,0.01,0.03,0.02c-0.05,0.21-0.09,0.42-0.14,0.63c-0.02-0.01-0.04-0.02-0.06-0.02c-1.09-0.42-2.52-0.38-3.22-1.46
		c-0.14-0.29-0.15-0.63-0.07-0.95c0.1-0.25,0.2-0.53,0.38-0.74c0.16-0.2,0.39-0.35,0.63-0.41c0.16-0.04,0.31-0.05,0.46-0.01
		c0.16,0.03,0.31,0.09,0.45,0.16c0.27,0.13,0.54,0.3,0.78,0.47c0.25,0.17,0.43,0.35,0.68,0.53c0.08,0.06,0.21,0.14,0.29,0.19
		c0.07,0.04,0.13,0.07,0.2,0.11c0.02,0.01,0.07,0.03,0.08,0.05C50.4,12.05,50.35,12.1,50.34,12.13z M52.15,9.31
		c-0.24,0.28-0.49,0.62-0.68,0.91c-0.2-0.34-0.46-0.64-0.65-0.96c-0.04-0.12-0.18-0.19-0.3-0.15c-0.13,0.04-0.19,0.18-0.16,0.31
		c0.03,0.11,0.12,0.22,0.19,0.32c0.07,0.1,0.15,0.2,0.22,0.3c0.08,0.1,0.15,0.2,0.22,0.31c0.05,0.07,0.11,0.18,0.21,0.29
		c-0.02,0.03-0.04,0.06-0.05,0.08c-0.2,0.27-0.37,0.56-0.52,0.85c-0.02,0.04-0.62-0.51-0.66-0.54c-0.86-0.67-1.31-1.73-0.98-2.8
		c0.1-0.31,0.27-0.61,0.55-0.77c0.81-0.45,1.65,0.34,2.06,0.96C51.66,8.53,52.26,9.19,52.15,9.31z"/>
	<path d="M47.8,11.48c-0.37-0.13-0.47,0.52-0.12,0.59C48.04,12.15,48.08,11.59,47.8,11.48z"/>
	<path d="M50.06,8.07c-0.15,0.18-0.2,0.56,0.11,0.61C50.3,8.7,50.45,8.6,50.52,8.5c0.07-0.11,0.04-0.26-0.03-0.37
		C50.38,7.98,50.2,7.9,50.06,8.07z"/>
	<path d="M47.63,15.52c0.01,0,0.01,0,0.02,0c0,0,0,0-0.01,0C47.63,15.52,47.63,15.52,47.63,15.52
		C47.62,15.52,47.63,15.52,47.63,15.52z"/>
	<path d="M46.75,14.94c-0.37-0.14-0.54,0.57-0.17,0.66C46.94,15.67,47.05,15.08,46.75,14.94z"/>
	<polygon points="49.88,16.73 49.88,16.72 49.88,16.73 	"/>
	<path d="M66.73,11.83c-0.32-0.87-0.66-1.73-1.09-2.55c-0.04-0.07-0.07-0.13-0.11-0.2c-0.43-0.78-0.95-1.5-1.52-2.19
		c-0.32-0.39-0.64-0.83-1.03-1.14c-0.2-0.16-0.36-0.07-0.54,0.09c-0.9,0.77-1.68,1.67-2.35,2.64c-0.47,0.69-0.85,1.41-1.23,2.14
		c-0.22,0.42-0.39,0.84-0.54,1.29c-0.16,0.45-0.36,0.9-0.46,1.37c-0.12,0.53-0.24,1.06-0.32,1.6c-0.05,0.34-0.09,0.69-0.13,1.03
		c-0.02,0.23-0.1,0.47-0.05,0.7c0.07,0.31,0.37,0.32,0.64,0.33c1.18,0.05,2.4,0.21,3.58,0.08c0.28-0.03,0.74-0.03,0.83-0.38
		c0.1-0.39,0.11-0.83,0.17-1.23c0.06-0.44,0.12-0.88,0.18-1.32c0.24-1.75,1.34-3.29,2.45-4.61c0.03,0.03,0.26,0.6,0.28,0.66
		c-0.78,0.8-1.32,1.81-1.68,2.87c-0.36,1.06-0.52,2.17-0.6,3.29c-0.01,0.15,0,0.34,0.14,0.4c0.11,0.05,0.24-0.03,0.3-0.13
		c0.06-0.1,0.06-0.23,0.07-0.34c0.1-2.01,0.66-4.08,2.01-5.58c0.11,0.28,0.23,0.56,0.34,0.83c0.03,0.07,0.06,0.14,0.06,0.21
		c0,0.09-0.04,0.17-0.08,0.25c-0.69,1.41-1.36,2.87-1.46,4.43c-0.01,0.17,0.02,0.4,0.19,0.43c0.11,0.02,0.21-0.06,0.25-0.16
		c0.05-0.1,0.05-0.21,0.06-0.31c0.08-1.41,0.7-2.72,1.31-3.99c0.16,0.43,0.31,0.86,0.45,1.3c0.02,0.07,0.04,0.13,0.04,0.2
		c0,0.11-0.06,0.21-0.11,0.3c-0.39,0.7-0.63,1.47-0.72,2.26c-0.01,0.1-0.02,0.2,0.02,0.29c0.03,0.09,0.12,0.17,0.21,0.17
		c0.17,0,0.24-0.22,0.26-0.39c0.09-0.65,0.27-1.28,0.55-1.87c0.16,0.61,0.26,1.24,0.31,1.87c0.01,0.16,0.05,0.36,0.21,0.39
		c0.11,0.03,0.23-0.06,0.27-0.16s0.04-0.23,0.03-0.34C67.8,14.78,67.26,13.29,66.73,11.83z M62.1,15.29
		c-0.47-0.07-0.7-0.09-1.08-0.15c-0.27-0.03-0.53-0.05-0.8-0.09c-0.28,0-0.3,0.42-0.06,0.48c0.63,0.11,1.24,0.1,1.87,0.25
		C62.01,15.89,62,16,61.99,16.12c-0.02,0.15-0.44,0.24-0.55,0.27c-0.3,0.09-0.59,0.11-0.9,0.12c-0.35,0.02-0.69,0.04-1.04,0.02
		c-0.31-0.01-0.65-0.03-0.95-0.14c-0.55-0.21-0.54-0.74-0.45-1.24c0.05-0.3,0.21-0.58,0.45-0.77c0.87-0.69,2.04-0.21,2.99,0.12
		c0.17,0.03,0.4,0.1,0.65,0.14C62.16,14.86,62.13,15.07,62.1,15.29z M62.86,12.13c-0.03,0.08-0.06,0.15-0.09,0.23
		c-0.04,0.1-0.07,0.21-0.11,0.31c-0.02,0.05-0.03,0.11-0.05,0.16c0,0.01-0.05,0.15-0.05,0.16c-0.08-0.05-0.16-0.1-0.25-0.14
		c-0.34-0.15-0.65-0.28-1-0.44c-0.17-0.11-0.44-0.03-0.43,0.2c0,0.11,0.09,0.2,0.18,0.22c0.43,0.21,0.92,0.36,1.34,0.62
		c0.01,0.01,0.02,0.01,0.03,0.02c-0.05,0.21-0.1,0.42-0.14,0.63c-0.02-0.01-0.04-0.02-0.06-0.02c-1.09-0.42-2.52-0.38-3.22-1.46
		c-0.14-0.29-0.15-0.63-0.07-0.95c0.1-0.25,0.2-0.53,0.38-0.74c0.16-0.2,0.39-0.35,0.63-0.41c0.16-0.04,0.31-0.05,0.46-0.01
		c0.16,0.03,0.31,0.09,0.45,0.16c0.27,0.13,0.54,0.3,0.78,0.47c0.25,0.17,0.43,0.35,0.68,0.53c0.08,0.06,0.21,0.14,0.29,0.19
		c0.07,0.04,0.13,0.07,0.2,0.11c0.02,0.01,0.07,0.03,0.08,0.05C62.92,12.05,62.87,12.1,62.86,12.13z M64.67,9.31
		c-0.24,0.28-0.49,0.62-0.68,0.91c-0.2-0.34-0.46-0.64-0.65-0.96c-0.04-0.12-0.18-0.19-0.3-0.15c-0.13,0.04-0.19,0.18-0.16,0.31
		C62.9,9.52,63,9.64,63.06,9.73c0.07,0.1,0.15,0.2,0.22,0.3c0.08,0.1,0.15,0.2,0.22,0.31c0.05,0.07,0.11,0.18,0.21,0.29
		c-0.02,0.03-0.04,0.06-0.05,0.08c-0.2,0.27-0.37,0.56-0.52,0.85c-0.02,0.04-0.62-0.51-0.66-0.54c-0.86-0.67-1.31-1.73-0.98-2.8
		c0.1-0.31,0.27-0.61,0.55-0.77c0.81-0.45,1.65,0.34,2.06,0.96C64.18,8.53,64.78,9.19,64.67,9.31z"/>
	<path d="M60.32,11.48c-0.37-0.13-0.47,0.52-0.12,0.59C60.56,12.15,60.6,11.59,60.32,11.48z"/>
	<path d="M62.58,8.07c-0.15,0.18-0.2,0.56,0.11,0.61c0.13,0.02,0.28-0.08,0.35-0.18c0.07-0.11,0.04-0.26-0.03-0.37
		C62.9,7.98,62.72,7.9,62.58,8.07z"/>
	<path d="M60.15,15.52c0.01,0,0.01,0,0.02,0c0,0,0,0-0.01,0C60.15,15.52,60.15,15.52,60.15,15.52
		C60.14,15.52,60.14,15.52,60.15,15.52z"/>
	<path d="M59.27,14.94c-0.37-0.14-0.54,0.57-0.17,0.66C59.46,15.67,59.57,15.08,59.27,14.94z"/>
	<polygon points="62.4,16.73 62.4,16.72 62.4,16.73 	"/>
	<path d="M79.21,11.83c-0.32-0.87-0.66-1.73-1.09-2.55c-0.04-0.07-0.07-0.13-0.11-0.2c-0.43-0.78-0.95-1.5-1.52-2.19
		c-0.32-0.39-0.64-0.83-1.03-1.14c-0.2-0.16-0.36-0.07-0.54,0.09c-0.9,0.77-1.68,1.67-2.35,2.64c-0.47,0.69-0.85,1.41-1.23,2.14
		c-0.22,0.42-0.39,0.84-0.54,1.29c-0.16,0.45-0.36,0.9-0.46,1.37c-0.12,0.53-0.24,1.06-0.32,1.6c-0.05,0.34-0.09,0.69-0.13,1.03
		c-0.02,0.23-0.1,0.47-0.05,0.7c0.07,0.31,0.37,0.32,0.64,0.33c1.18,0.05,2.4,0.21,3.58,0.08c0.28-0.03,0.74-0.03,0.83-0.38
		c0.1-0.39,0.11-0.83,0.17-1.23c0.06-0.44,0.12-0.88,0.18-1.32c0.24-1.75,1.34-3.29,2.45-4.61c0.03,0.03,0.26,0.6,0.28,0.66
		c-0.78,0.8-1.32,1.81-1.68,2.87s-0.52,2.17-0.6,3.29c-0.01,0.15,0,0.34,0.14,0.4c0.11,0.05,0.24-0.03,0.3-0.13
		c0.06-0.1,0.06-0.23,0.07-0.34c0.1-2.01,0.66-4.08,2.01-5.58c0.11,0.28,0.23,0.56,0.34,0.83c0.03,0.07,0.06,0.14,0.06,0.21
		c0,0.09-0.04,0.17-0.08,0.25c-0.69,1.41-1.36,2.87-1.46,4.43c-0.01,0.17,0.02,0.4,0.19,0.43c0.11,0.02,0.21-0.06,0.25-0.16
		c0.05-0.1,0.05-0.21,0.06-0.31c0.08-1.41,0.7-2.72,1.31-3.99c0.16,0.43,0.31,0.86,0.45,1.3c0.02,0.07,0.04,0.13,0.04,0.2
		c0,0.11-0.06,0.21-0.11,0.3c-0.39,0.7-0.63,1.47-0.72,2.26c-0.01,0.1-0.02,0.2,0.02,0.29c0.03,0.09,0.12,0.17,0.21,0.17
		c0.17,0,0.24-0.22,0.26-0.39c0.09-0.65,0.27-1.28,0.55-1.87c0.16,0.61,0.26,1.24,0.31,1.87c0.01,0.16,0.05,0.36,0.21,0.39
		c0.11,0.03,0.23-0.06,0.27-0.16s0.04-0.23,0.03-0.34C80.29,14.78,79.75,13.29,79.21,11.83z M74.58,15.29
		c-0.47-0.07-0.7-0.09-1.08-0.15c-0.27-0.03-0.53-0.05-0.8-0.09c-0.28,0-0.3,0.42-0.06,0.48c0.63,0.11,1.24,0.1,1.87,0.25
		c-0.01,0.11-0.03,0.23-0.04,0.34c-0.02,0.15-0.44,0.24-0.55,0.27c-0.3,0.09-0.59,0.11-0.9,0.12c-0.35,0.02-0.69,0.04-1.04,0.02
		c-0.31-0.01-0.65-0.03-0.95-0.14c-0.55-0.21-0.54-0.74-0.45-1.24c0.05-0.3,0.21-0.58,0.45-0.77c0.87-0.69,2.04-0.21,2.99,0.12
		c0.17,0.03,0.4,0.1,0.65,0.14C74.64,14.86,74.61,15.07,74.58,15.29z M75.35,12.13c-0.03,0.08-0.06,0.15-0.09,0.23
		c-0.04,0.1-0.07,0.21-0.11,0.31c-0.02,0.05-0.03,0.11-0.05,0.16c0,0.01-0.05,0.15-0.05,0.16c-0.08-0.05-0.16-0.1-0.25-0.14
		c-0.34-0.15-0.65-0.28-1-0.44c-0.17-0.11-0.44-0.03-0.43,0.2c0,0.11,0.09,0.2,0.18,0.22c0.43,0.21,0.92,0.36,1.34,0.62
		c0.01,0.01,0.02,0.01,0.03,0.02c-0.05,0.21-0.09,0.42-0.14,0.63c-0.02-0.01-0.04-0.02-0.06-0.02c-1.09-0.42-2.52-0.38-3.22-1.46
		c-0.14-0.29-0.15-0.63-0.07-0.95c0.1-0.25,0.2-0.53,0.38-0.74c0.16-0.2,0.39-0.35,0.63-0.41c0.16-0.04,0.31-0.05,0.46-0.01
		c0.16,0.03,0.31,0.09,0.45,0.16c0.27,0.13,0.54,0.3,0.78,0.47c0.25,0.17,0.43,0.35,0.68,0.53c0.08,0.06,0.21,0.14,0.29,0.19
		c0.07,0.04,0.13,0.07,0.2,0.11c0.02,0.01,0.07,0.03,0.08,0.05C75.4,12.05,75.36,12.1,75.35,12.13z M77.16,9.31
		c-0.24,0.28-0.49,0.62-0.68,0.91c-0.2-0.34-0.46-0.64-0.65-0.96c-0.04-0.12-0.18-0.19-0.3-0.15c-0.13,0.04-0.19,0.18-0.16,0.31
		c0.03,0.11,0.12,0.22,0.19,0.32c0.07,0.1,0.15,0.2,0.22,0.3c0.08,0.1,0.15,0.2,0.22,0.31c0.05,0.07,0.11,0.18,0.21,0.29
		c-0.02,0.03-0.04,0.06-0.05,0.08c-0.2,0.27-0.37,0.56-0.52,0.85c-0.02,0.04-0.62-0.51-0.66-0.54c-0.86-0.67-1.31-1.73-0.98-2.8
		c0.1-0.31,0.27-0.61,0.55-0.77c0.81-0.45,1.65,0.34,2.06,0.96C76.66,8.53,77.26,9.19,77.16,9.31z"/>
	<path d="M72.81,11.48c-0.37-0.13-0.47,0.52-0.12,0.59C73.04,12.15,73.09,11.59,72.81,11.48z"/>
	<path d="M75.06,8.07c-0.15,0.18-0.2,0.56,0.11,0.61C75.3,8.7,75.45,8.6,75.52,8.5c0.07-0.11,0.04-0.26-0.03-0.37
		C75.39,7.98,75.2,7.9,75.06,8.07z"/>
	<path d="M72.63,15.52c0.01,0,0.01,0,0.02,0c0,0,0,0-0.01,0C72.64,15.52,72.63,15.52,72.63,15.52
		C72.63,15.52,72.63,15.52,72.63,15.52z"/>
	<path d="M71.76,14.94c-0.37-0.14-0.54,0.57-0.17,0.66C71.94,15.67,72.06,15.08,71.76,14.94z"/>
	<polygon points="74.88,16.73 74.89,16.72 74.88,16.73 	"/>
	<path d="M93.85,15.45c-0.34-1.93-0.88-3.84-1.72-5.62c-0.07-0.14-0.14-0.28-0.21-0.42c-0.84-1.64-1.95-3.06-3.19-4.41
		c-0.18-0.2-0.37-0.4-0.56-0.59c-0.33-0.33-0.7-0.15-1.01,0.08c-0.38,0.29-0.74,0.6-1.09,0.92c-0.7,0.65-1.33,1.36-1.9,2.12
		c-1.14,1.52-2.01,3.25-2.56,5.07c-0.19,0.63-0.32,1.27-0.43,1.92c-0.34-1.61-0.83-3.2-1.53-4.69c-0.07-0.14-0.14-0.28-0.21-0.42
		c-0.84-1.64-1.95-3.06-3.19-4.41c-0.18-0.2-0.37-0.4-0.56-0.59c-0.33-0.33-0.7-0.15-1.01,0.08c-0.38,0.29-0.74,0.6-1.09,0.92
		c-0.7,0.65-1.33,1.36-1.9,2.12c-1.14,1.52-2.01,3.25-2.56,5.07c-0.19,0.64-0.33,1.29-0.44,1.95c-0.34-1.62-0.83-3.21-1.54-4.71
		c-0.07-0.14-0.14-0.28-0.21-0.42c-0.84-1.64-1.95-3.06-3.19-4.41c-0.18-0.2-0.37-0.4-0.56-0.59c-0.33-0.33-0.7-0.15-1.01,0.08
		c-0.38,0.29-0.74,0.6-1.09,0.92c-0.7,0.65-1.33,1.36-1.9,2.12c-1.14,1.52-2.01,3.25-2.56,5.07c-0.2,0.67-0.34,1.35-0.45,2.04
		c-0.34-1.65-0.83-3.28-1.56-4.81c-0.07-0.14-0.14-0.28-0.21-0.42c-0.84-1.64-1.95-3.06-3.19-4.41c-0.18-0.2-0.37-0.4-0.56-0.59
		c-0.33-0.33-0.7-0.15-1.01,0.08c-0.38,0.29-0.74,0.6-1.09,0.92c-0.7,0.65-1.33,1.36-1.9,2.12c-1.14,1.52-2.01,3.25-2.56,5.07
		c-0.19,0.63-0.33,1.27-0.43,1.92c-0.34-1.61-0.83-3.2-1.53-4.69c-0.07-0.14-0.14-0.28-0.21-0.42c-0.84-1.64-1.95-3.06-3.19-4.41
		c-0.18-0.2-0.37-0.4-0.56-0.59c-0.33-0.33-0.7-0.15-1.01,0.08c-0.38,0.29-0.74,0.6-1.09,0.92c-0.7,0.65-1.33,1.36-1.9,2.12
		c-1.14,1.52-2.01,3.25-2.56,5.07c-0.19,0.64-0.33,1.29-0.44,1.95c-0.34-1.62-0.83-3.21-1.54-4.71c-0.07-0.14-0.14-0.28-0.21-0.42
		c-0.84-1.64-1.95-3.06-3.19-4.41c-0.18-0.2-0.37-0.4-0.56-0.59c-0.33-0.33-0.7-0.15-1.01,0.08c-0.38,0.29-0.74,0.6-1.09,0.92
		c-0.7,0.65-1.33,1.36-1.9,2.12c-1.14,1.52-2.01,3.25-2.56,5.07c-0.19,0.63-0.33,1.27-0.43,1.92c-0.34-1.61-0.83-3.2-1.53-4.69
		C17.14,9.68,17.07,9.54,17,9.4c-0.84-1.64-1.95-3.06-3.19-4.41c-0.18-0.2-0.37-0.4-0.56-0.59c-0.33-0.33-0.7-0.15-1.01,0.08
		c-0.38,0.29-0.74,0.6-1.09,0.92c-0.7,0.65-1.33,1.36-1.9,2.12c-1.14,1.52-2.01,3.25-2.56,5.07c-0.3,1-0.5,2.04-0.6,3.08
		c0,0.39-0.12,1.2,0.08,1.26c0.22,0.1,0.28,0.02,0.31-0.37C6.76,11.94,9,7.45,12.78,4.69c0.01,0.01,0.02,0.02,0.05,0.03
		c0.16,0.05,0.4,0.38,0.52,0.51c0.18,0.18,0.35,0.36,0.52,0.55c0.34,0.37,0.66,0.76,0.97,1.16c0.61,0.8,1.16,1.64,1.63,2.53
		c1,1.87,1.67,3.91,1.95,6.01c0.04,0.31,0.08,0.63,0.1,0.94c0.01,0.14,0.02,0.27,0.05,0.41c0.04,0.16,0.25,0.18,0.33,0.04
		c0.17-0.34,0.1-0.73,0.14-1.1c0.04-0.36,0.09-0.72,0.16-1.08c0.13-0.72,0.3-1.42,0.52-2.12c0.44-1.38,1.05-2.71,1.84-3.93
		c0.79-1.22,1.75-2.33,2.85-3.27c0.27-0.23,0.55-0.46,0.84-0.67c0.01,0.01,0.02,0.02,0.05,0.03c0.16,0.05,0.4,0.38,0.52,0.51
		C26,5.4,26.17,5.58,26.34,5.77c0.34,0.37,0.66,0.76,0.97,1.16c0.61,0.8,1.16,1.64,1.63,2.53c1,1.87,1.67,3.91,1.95,6.01
		c0.03,0.25,0.06,0.51,0.09,0.77c0.01,0.13-0.01,0.64,0.15,0.69c0.17,0.05,0.22,0.02,0.28-0.14c0.13-0.36,0.08-0.75,0.13-1.13
		c0.04-0.36,0.1-0.72,0.16-1.08c0.13-0.72,0.31-1.42,0.53-2.11c0.45-1.38,1.07-2.71,1.87-3.92c0.8-1.22,1.76-2.32,2.88-3.26
		c0.25-0.21,0.5-0.41,0.76-0.6c0.01,0.01,0.02,0.02,0.05,0.03c0.16,0.05,0.4,0.38,0.52,0.51c0.18,0.18,0.35,0.36,0.52,0.55
		c0.34,0.37,0.66,0.76,0.97,1.16c0.61,0.8,1.16,1.64,1.63,2.53c1,1.87,1.67,3.91,1.95,6.01c0.04,0.31,0.07,0.64,0.1,0.95
		c0.01,0.14,0.02,0.69,0.31,0.53c0.03-0.02,0.06-0.06,0.07-0.09c0.17-0.35,0.1-0.73,0.14-1.1c0.04-0.36,0.09-0.72,0.16-1.08
		c0.13-0.72,0.3-1.42,0.52-2.12c0.44-1.38,1.05-2.71,1.84-3.93c0.79-1.22,1.75-2.33,2.85-3.27c0.27-0.23,0.55-0.46,0.84-0.67
		c0.01,0.01,0.02,0.02,0.05,0.03c0.16,0.05,0.4,0.38,0.52,0.51c0.18,0.18,0.35,0.36,0.52,0.55c0.34,0.37,0.66,0.76,0.97,1.16
		c0.61,0.8,1.16,1.64,1.63,2.53c1,1.87,1.67,3.91,1.95,6.01c0.06,0.44,0.05,0.91,0.18,1.33c0.03,0.1,0.15,0.22,0.27,0.16
		c0.16-0.08,0.13-0.39,0.14-0.54c0.33-4.57,2.55-8.99,6.28-11.73c0.01,0.01,0.02,0.02,0.05,0.03c0.16,0.05,0.4,0.38,0.52,0.51
		c0.18,0.18,0.35,0.36,0.52,0.55c0.34,0.37,0.66,0.76,0.97,1.16c0.61,0.8,1.16,1.64,1.63,2.53c1,1.87,1.67,3.91,1.95,6.01
		c0.04,0.26,0.06,0.53,0.09,0.79c0.01,0.13-0.01,0.62,0.15,0.67c0.33,0.11,0.36-0.37,0.37-0.59c0.01-0.21,0-0.41,0.03-0.62
		c0.08-0.72,0.21-1.44,0.39-2.15c0.35-1.41,0.88-2.77,1.59-4.04c0.71-1.27,1.58-2.44,2.62-3.46c0.25-0.25,0.52-0.49,0.79-0.72
		c0.13-0.11,0.27-0.23,0.41-0.33c0.05-0.04,0.37-0.34,0.42-0.32c0.01,0.01,0.02,0.02,0.05,0.03c0.16,0.05,0.4,0.38,0.52,0.51
		c0.18,0.18,0.35,0.36,0.52,0.55c0.34,0.37,0.66,0.76,0.97,1.16c0.61,0.8,1.16,1.64,1.63,2.53c1,1.87,1.67,3.91,1.95,6.01
		c0.06,0.44,0.06,0.89,0.16,1.32c0.03,0.12,0.13,0.25,0.26,0.16c0.14-0.1,0.16-0.33,0.17-0.49c0.03-0.26,0.01-0.52,0.04-0.78
		c0.04-0.36,0.1-0.72,0.16-1.08c0.13-0.72,0.31-1.42,0.53-2.12c0.44-1.38,1.07-2.71,1.86-3.92c0.79-1.22,1.76-2.32,2.87-3.26
		c0.13-0.11,0.26-0.22,0.39-0.32c0.05-0.04,0.34-0.31,0.39-0.29c0.01,0.01,0.02,0.02,0.05,0.03c0.16,0.05,0.4,0.38,0.52,0.51
		c0.18,0.18,0.35,0.36,0.52,0.55c0.34,0.37,0.66,0.76,0.97,1.16c0.61,0.8,1.16,1.64,1.63,2.53c1,1.87,1.67,3.91,1.95,6.01
		c0.04,0.31,0.08,0.63,0.1,0.94c0.01,0.1,0.02,0.21,0.06,0.29s0.15,0.16,0.25,0.13c0.13-0.03,0.17-0.19,0.18-0.32
		C93.96,16.16,93.91,15.8,93.85,15.45z"/>
	<path d="M91.69,11.83c-0.32-0.87-0.66-1.73-1.09-2.55c-0.04-0.07-0.07-0.13-0.11-0.2c-0.43-0.78-0.95-1.5-1.52-2.19
		c-0.32-0.39-0.64-0.83-1.03-1.14c-0.2-0.16-0.36-0.07-0.54,0.09c-0.9,0.77-1.68,1.67-2.35,2.64c-0.47,0.69-0.85,1.41-1.23,2.14
		c-0.22,0.42-0.39,0.84-0.54,1.29c-0.16,0.45-0.36,0.9-0.46,1.37c-0.12,0.53-0.24,1.06-0.32,1.6c-0.05,0.34-0.09,0.69-0.13,1.03
		c-0.02,0.23-0.1,0.47-0.05,0.7c0.07,0.31,0.37,0.32,0.64,0.33c1.18,0.05,2.4,0.21,3.58,0.08c0.28-0.03,0.74-0.03,0.83-0.38
		c0.1-0.39,0.11-0.83,0.17-1.23c0.06-0.44,0.12-0.88,0.18-1.32c0.24-1.75,1.34-3.29,2.45-4.61c0.03,0.03,0.26,0.6,0.28,0.66
		c-0.78,0.8-1.32,1.81-1.68,2.87s-0.52,2.17-0.6,3.29c-0.01,0.15,0,0.34,0.14,0.4c0.11,0.05,0.24-0.03,0.3-0.13s0.06-0.23,0.07-0.34
		c0.1-2.01,0.66-4.08,2.01-5.58c0.11,0.28,0.23,0.56,0.34,0.83c0.03,0.07,0.06,0.14,0.06,0.21c0,0.09-0.04,0.17-0.08,0.25
		c-0.69,1.41-1.36,2.87-1.46,4.43c-0.01,0.17,0.02,0.4,0.19,0.43c0.11,0.02,0.21-0.06,0.25-0.16c0.05-0.1,0.05-0.21,0.06-0.31
		c0.08-1.41,0.7-2.72,1.31-3.99c0.16,0.43,0.31,0.86,0.45,1.3c0.02,0.07,0.04,0.13,0.04,0.2c0,0.11-0.06,0.21-0.11,0.3
		c-0.39,0.7-0.63,1.47-0.72,2.26c-0.01,0.1-0.02,0.2,0.02,0.29c0.03,0.09,0.12,0.17,0.21,0.17c0.17,0,0.24-0.22,0.26-0.39
		c0.09-0.65,0.27-1.28,0.55-1.87c0.16,0.61,0.26,1.24,0.31,1.87c0.01,0.16,0.05,0.36,0.21,0.39c0.11,0.03,0.23-0.06,0.27-0.16
		s0.04-0.23,0.03-0.34C92.77,14.78,92.23,13.29,91.69,11.83z M87.06,15.29c-0.47-0.07-0.7-0.09-1.08-0.15
		c-0.27-0.03-0.53-0.05-0.8-0.09c-0.28,0-0.3,0.42-0.06,0.48c0.63,0.11,1.24,0.1,1.87,0.25c-0.01,0.11-0.03,0.23-0.04,0.34
		c-0.02,0.15-0.44,0.24-0.55,0.27c-0.3,0.09-0.59,0.11-0.9,0.12c-0.35,0.02-0.69,0.04-1.04,0.02c-0.31-0.01-0.65-0.03-0.95-0.14
		c-0.55-0.21-0.54-0.74-0.45-1.24c0.05-0.3,0.21-0.58,0.45-0.77c0.87-0.69,2.04-0.21,2.99,0.12c0.17,0.03,0.4,0.1,0.65,0.14
		C87.12,14.86,87.09,15.07,87.06,15.29z M87.83,12.13c-0.03,0.08-0.06,0.15-0.09,0.23c-0.04,0.1-0.07,0.21-0.11,0.31
		c-0.02,0.05-0.03,0.11-0.05,0.16c0,0.01-0.05,0.15-0.05,0.16c-0.08-0.05-0.16-0.1-0.25-0.14c-0.34-0.15-0.65-0.28-1-0.44
		c-0.17-0.11-0.44-0.03-0.43,0.2c0,0.11,0.09,0.2,0.18,0.22c0.43,0.21,0.92,0.36,1.34,0.62c0.01,0.01,0.02,0.01,0.03,0.02
		c-0.05,0.21-0.09,0.42-0.14,0.63c-0.02-0.01-0.04-0.02-0.06-0.02c-1.09-0.42-2.52-0.38-3.22-1.46c-0.14-0.29-0.15-0.63-0.07-0.95
		c0.1-0.25,0.2-0.53,0.38-0.74c0.16-0.2,0.39-0.35,0.63-0.41c0.16-0.04,0.31-0.05,0.46-0.01c0.16,0.03,0.31,0.09,0.45,0.16
		c0.27,0.13,0.54,0.3,0.78,0.47c0.25,0.17,0.43,0.35,0.68,0.53c0.08,0.06,0.21,0.14,0.29,0.19c0.07,0.04,0.13,0.07,0.2,0.11
		c0.02,0.01,0.07,0.03,0.08,0.05C87.88,12.05,87.84,12.1,87.83,12.13z M89.64,9.31c-0.24,0.28-0.49,0.62-0.68,0.91
		c-0.2-0.34-0.46-0.64-0.65-0.96c-0.04-0.12-0.18-0.19-0.3-0.15c-0.13,0.04-0.19,0.18-0.16,0.31c0.03,0.11,0.12,0.22,0.19,0.32
		c0.07,0.1,0.15,0.2,0.22,0.3c0.08,0.1,0.15,0.2,0.22,0.31c0.05,0.07,0.11,0.18,0.21,0.29c-0.02,0.03-0.04,0.06-0.05,0.08
		c-0.2,0.27-0.37,0.56-0.52,0.85c-0.02,0.04-0.62-0.51-0.66-0.54c-0.86-0.67-1.31-1.73-0.98-2.8c0.1-0.31,0.27-0.61,0.55-0.77
		c0.81-0.45,1.65,0.34,2.06,0.96C89.14,8.53,89.74,9.19,89.64,9.31z"/>
	<path d="M85.28,11.48c-0.37-0.13-0.47,0.52-0.12,0.59C85.52,12.15,85.56,11.59,85.28,11.48z"/>
	<path d="M87.54,8.07c-0.15,0.18-0.2,0.56,0.11,0.61C87.78,8.7,87.93,8.6,88,8.5c0.07-0.11,0.04-0.26-0.03-0.37
		C87.87,7.98,87.68,7.9,87.54,8.07z"/>
	<path d="M85.11,15.52c0.01,0,0.01,0,0.02,0c0,0,0,0-0.01,0C85.12,15.52,85.11,15.52,85.11,15.52
		C85.1,15.52,85.11,15.52,85.11,15.52z"/>
	<path d="M84.23,14.94c-0.37-0.14-0.54,0.57-0.17,0.66C84.42,15.67,84.54,15.08,84.23,14.94z"/>
	<polygon points="87.36,16.73 87.37,16.72 87.36,16.73 	"/>
</g>
</svg>
