<?xml version="1.0" encoding="utf-8"?>
<!-- Generator: Adobe Illustrator 23.0.0, SVG Export Plug-In . SVG Version: 6.00 Build 0)  -->
<svg version="1.1" id="Слой_1" xmlns="http://www.w3.org/2000/svg" xmlns:xlink="http://www.w3.org/1999/xlink" x="0px" y="0px"
	 viewBox="0 0 100 21.28" style="enable-background:new 0 0 100 21.28;" xml:space="preserve">
<g>
	<path d="M13.32,6.62c-0.14-0.12-0.26-0.25-0.51-0.21c-0.26,0.04-0.72,0.67-0.87,0.84c-0.87,0.98-1.56,1.98-2.16,3.08
		c-0.86,1.55-1.47,3.24-2.05,4.85c-0.18,0.5-0.44,1.06-0.19,1.43c0.25,0.37,0.41,0.23,0.83,0.24c2.42,0.06,4.95,0.01,7.46-0.02
		c0.33,0,1.61,0.03,1.63-0.47c0.04-1.27-0.22-2.44-0.52-3.64C16.33,10.23,15.23,8.35,13.32,6.62z M15.73,11.61
		c0.5,0.37,0.54,1.75,0.07,2.15c-0.47,0.4-0.83,0.35-1.2,0.62c-0.37,0.26-1,0.53-1.09,0.11c-0.09-0.41,0.28-0.68,0.41-0.92
		c0.29-0.54,0.62-1.25,0.91-1.67C15.13,11.47,15.23,11.23,15.73,11.61z M10.83,11.78c0.44,0.52,0.51,1.45,0.69,2.06
		c0.18,0.61-0.25,0.7-0.67,0.62c-0.42-0.08-0.84-0.28-1.13-0.44c-0.29-0.17-0.41-0.32-0.43-0.6C9.21,12.5,9.77,10.52,10.83,11.78z
		 M9.92,16.29c-0.53,0.03-1.37,0.17-1.43-0.57c-0.02-0.24,0.1-0.55,0.22-0.73s0.07-0.2,0.37-0.27c0.3-0.07,0.94,0.03,1.31,0.17
		c0.37,0.14,1.28,0.16,1.24,0.78C11.6,16.29,10.45,16.27,9.92,16.29z M12.89,15.62c-0.04,0.25-0.4,0.58-0.64,0.35
		c-0.25-0.23-0.15-0.54-0.06-0.71c0.09-0.17,0.19-0.16,0.31-0.17c0.12-0.01,0.15-0.02,0.26,0.08
		C12.86,15.27,12.93,15.37,12.89,15.62z M12.63,14.15c-0.32,0.16-0.45-0.19-0.51-0.35s-0.06-0.26-0.08-0.37
		c-0.13-1.01-0.28-1.98-0.33-2.99c-0.02-0.36-0.04-0.72,0.07-1.07c0.23-0.74,0.97-1.03,1.63-0.72s0.81,0.99,0.83,1.59
		c0.02,0.6-0.2,1.1-0.39,1.59s-0.47,1.06-0.63,1.47C13.07,13.71,12.95,13.99,12.63,14.15z M16.39,16.04c-0.3,0.27-0.62,0.13-1,0.16
		c-0.38,0.03-0.84,0.06-1.25,0.06c-0.41,0-1.02-0.17-0.57-0.66c0.22-0.24,0.68-0.36,1.01-0.53c0.33-0.17,0.69-0.37,1.05-0.53
		s0.71-0.13,0.88,0.26S16.69,15.77,16.39,16.04z"/>
	<polygon points="10.35,11.79 10.35,11.79 10.35,11.79 	"/>
	<path d="M25.81,6.62c-0.14-0.12-0.26-0.25-0.51-0.21c-0.26,0.04-0.72,0.67-0.87,0.84c-0.87,0.98-1.56,1.98-2.16,3.08
		c-0.86,1.55-1.47,3.24-2.05,4.85c-0.18,0.5-0.44,1.06-0.19,1.43c0.25,0.37,0.41,0.23,0.83,0.24c2.42,0.06,4.95,0.01,7.46-0.02
		c0.33,0,1.61,0.03,1.63-0.47c0.04-1.27-0.22-2.44-0.52-3.64C28.82,10.23,27.72,8.35,25.81,6.62z M28.22,11.61
		c0.5,0.37,0.54,1.75,0.07,2.15c-0.47,0.4-0.83,0.35-1.2,0.62c-0.37,0.26-1,0.53-1.09,0.11c-0.09-0.41,0.28-0.68,0.41-0.92
		c0.29-0.54,0.62-1.25,0.91-1.67C27.62,11.47,27.72,11.23,28.22,11.61z M23.32,11.78c0.44,0.52,0.51,1.45,0.69,2.06
		c0.18,0.61-0.25,0.7-0.67,0.62c-0.42-0.08-0.84-0.28-1.13-0.44c-0.29-0.17-0.41-0.32-0.43-0.6C21.7,12.5,22.26,10.52,23.32,11.78z
		 M22.41,16.29c-0.53,0.03-1.37,0.17-1.43-0.57c-0.02-0.24,0.1-0.55,0.22-0.73s0.07-0.2,0.37-0.27c0.3-0.07,0.94,0.03,1.31,0.17
		c0.37,0.14,1.28,0.16,1.24,0.78C24.09,16.29,22.94,16.27,22.41,16.29z M25.38,15.62c-0.04,0.25-0.4,0.58-0.64,0.35
		c-0.25-0.23-0.15-0.54-0.06-0.71c0.09-0.17,0.19-0.16,0.31-0.17c0.12-0.01,0.15-0.02,0.26,0.08S25.42,15.37,25.38,15.62z
		 M25.12,14.15c-0.32,0.16-0.45-0.19-0.51-0.35s-0.06-0.26-0.08-0.37c-0.13-1.01-0.28-1.98-0.33-2.99
		c-0.02-0.36-0.04-0.72,0.07-1.07c0.23-0.74,0.97-1.03,1.63-0.72s0.81,0.99,0.83,1.59c0.02,0.6-0.2,1.1-0.39,1.59
		s-0.47,1.06-0.63,1.47C25.56,13.71,25.44,13.99,25.12,14.15z M28.88,16.04c-0.3,0.27-0.62,0.13-1,0.16
		c-0.38,0.03-0.84,0.06-1.25,0.06c-0.41,0-1.02-0.17-0.57-0.66c0.22-0.24,0.68-0.36,1.01-0.53c0.33-0.17,0.69-0.37,1.05-0.53
		s0.71-0.13,0.88,0.26S29.18,15.77,28.88,16.04z"/>
	<polygon points="22.85,11.79 22.84,11.79 22.84,11.79 	"/>
	<path d="M38.33,6.62c-0.14-0.12-0.26-0.25-0.51-0.21s-0.72,0.67-0.87,0.84c-0.87,0.98-1.56,1.98-2.16,3.08
		c-0.86,1.55-1.47,3.24-2.05,4.85c-0.18,0.5-0.44,1.06-0.19,1.43s0.41,0.23,0.83,0.24c2.42,0.06,4.95,0.01,7.46-0.02
		c0.33,0,1.61,0.03,1.63-0.47c0.04-1.27-0.22-2.44-0.52-3.64C41.33,10.23,40.23,8.35,38.33,6.62z M40.74,11.61
		c0.5,0.37,0.54,1.75,0.07,2.15c-0.47,0.4-0.83,0.35-1.2,0.62s-1,0.53-1.09,0.11c-0.09-0.41,0.28-0.68,0.41-0.92
		c0.29-0.54,0.62-1.25,0.91-1.67C40.13,11.47,40.24,11.23,40.74,11.61z M35.83,11.78c0.44,0.52,0.51,1.45,0.69,2.06
		c0.18,0.61-0.25,0.7-0.67,0.62c-0.42-0.08-0.84-0.28-1.13-0.44c-0.29-0.17-0.41-0.32-0.43-0.6C34.21,12.5,34.77,10.52,35.83,11.78z
		 M34.92,16.29c-0.53,0.03-1.37,0.17-1.43-0.57c-0.02-0.24,0.1-0.55,0.22-0.73c0.13-0.18,0.07-0.2,0.37-0.27
		c0.3-0.07,0.94,0.03,1.31,0.17c0.37,0.14,1.28,0.16,1.24,0.78C36.6,16.29,35.46,16.27,34.92,16.29z M37.89,15.62
		c-0.04,0.25-0.4,0.58-0.64,0.35c-0.25-0.23-0.15-0.54-0.06-0.71c0.09-0.17,0.19-0.16,0.31-0.17c0.12-0.01,0.15-0.02,0.26,0.08
		C37.86,15.27,37.93,15.37,37.89,15.62z M37.64,14.15c-0.32,0.16-0.45-0.19-0.51-0.35s-0.06-0.26-0.08-0.37
		c-0.13-1.01-0.28-1.98-0.33-2.99c-0.02-0.36-0.04-0.72,0.07-1.07c0.23-0.74,0.97-1.03,1.63-0.72c0.66,0.3,0.81,0.99,0.83,1.59
		c0.02,0.6-0.2,1.1-0.39,1.59c-0.19,0.49-0.47,1.06-0.63,1.47C38.07,13.71,37.96,13.99,37.64,14.15z M41.4,16.04
		c-0.3,0.27-0.62,0.13-1,0.16c-0.38,0.03-0.84,0.06-1.25,0.06c-0.41,0-1.02-0.17-0.57-0.66c0.22-0.24,0.68-0.36,1.01-0.53
		c0.33-0.17,0.69-0.37,1.05-0.53s0.71-0.13,0.88,0.26C41.68,15.18,41.7,15.77,41.4,16.04z"/>
	<polygon points="35.36,11.79 35.35,11.79 35.36,11.79 	"/>
	<path d="M50.82,6.62c-0.14-0.12-0.26-0.25-0.51-0.21s-0.72,0.67-0.87,0.84c-0.87,0.98-1.56,1.98-2.16,3.08
		c-0.86,1.55-1.47,3.24-2.05,4.85c-0.18,0.5-0.44,1.06-0.19,1.43s0.41,0.23,0.83,0.24c2.42,0.06,4.95,0.01,7.46-0.02
		c0.33,0,1.61,0.03,1.63-0.47c0.04-1.27-0.22-2.44-0.52-3.64C53.82,10.23,52.72,8.35,50.82,6.62z M53.23,11.61
		c0.5,0.37,0.54,1.75,0.07,2.15c-0.47,0.4-0.83,0.35-1.2,0.62c-0.37,0.26-1,0.53-1.09,0.11c-0.09-0.41,0.28-0.68,0.41-0.92
		c0.29-0.54,0.62-1.25,0.91-1.67C52.62,11.47,52.73,11.23,53.23,11.61z M48.32,11.78c0.44,0.52,0.51,1.45,0.69,2.06
		c0.18,0.61-0.25,0.7-0.67,0.62c-0.42-0.08-0.84-0.28-1.13-0.44c-0.29-0.17-0.41-0.32-0.43-0.6C46.7,12.5,47.26,10.52,48.32,11.78z
		 M47.42,16.29c-0.53,0.03-1.37,0.17-1.43-0.57c-0.02-0.24,0.1-0.55,0.22-0.73c0.13-0.18,0.07-0.2,0.37-0.27
		c0.3-0.07,0.94,0.03,1.31,0.17c0.37,0.14,1.28,0.16,1.24,0.78C49.09,16.29,47.95,16.27,47.42,16.29z M50.38,15.62
		c-0.04,0.25-0.4,0.58-0.64,0.35c-0.25-0.23-0.15-0.54-0.06-0.71c0.09-0.17,0.19-0.16,0.31-0.17c0.12-0.01,0.15-0.02,0.26,0.08
		C50.35,15.27,50.42,15.37,50.38,15.62z M50.13,14.15c-0.32,0.16-0.45-0.19-0.51-0.35s-0.06-0.26-0.08-0.37
		c-0.13-1.01-0.28-1.98-0.33-2.99c-0.02-0.36-0.04-0.72,0.07-1.07c0.23-0.74,0.97-1.03,1.63-0.72c0.66,0.3,0.81,0.99,0.83,1.59
		c0.02,0.6-0.2,1.1-0.39,1.59c-0.19,0.49-0.47,1.06-0.63,1.47C50.56,13.71,50.45,13.99,50.13,14.15z M53.89,16.04
		c-0.3,0.27-0.62,0.13-1,0.16c-0.38,0.03-0.84,0.06-1.25,0.06c-0.41,0-1.02-0.17-0.57-0.66c0.22-0.24,0.68-0.36,1.01-0.53
		c0.33-0.17,0.69-0.37,1.05-0.53c0.36-0.16,0.71-0.13,0.88,0.26C54.17,15.18,54.19,15.77,53.89,16.04z"/>
	<polygon points="47.85,11.79 47.85,11.79 47.85,11.79 	"/>
	<path d="M63.34,6.62c-0.14-0.12-0.26-0.25-0.51-0.21c-0.26,0.04-0.72,0.67-0.87,0.84c-0.87,0.98-1.56,1.98-2.16,3.08
		c-0.86,1.55-1.47,3.24-2.05,4.85c-0.18,0.5-0.44,1.06-0.19,1.43c0.25,0.37,0.41,0.23,0.83,0.24c2.42,0.06,4.95,0.01,7.46-0.02
		c0.33,0,1.61,0.03,1.63-0.47c0.04-1.27-0.22-2.44-0.52-3.64C66.34,10.23,65.24,8.35,63.34,6.62z M65.75,11.61
		c0.5,0.37,0.54,1.75,0.07,2.15c-0.47,0.4-0.83,0.35-1.2,0.62c-0.37,0.26-1,0.53-1.09,0.11c-0.09-0.41,0.28-0.68,0.41-0.92
		c0.29-0.54,0.62-1.25,0.91-1.67C65.14,11.47,65.25,11.23,65.75,11.61z M60.84,11.78c0.44,0.52,0.51,1.45,0.69,2.06
		c0.18,0.61-0.25,0.7-0.67,0.62c-0.42-0.08-0.84-0.28-1.13-0.44c-0.29-0.17-0.41-0.32-0.43-0.6C59.23,12.5,59.78,10.52,60.84,11.78z
		 M59.94,16.29c-0.53,0.03-1.37,0.17-1.43-0.57c-0.02-0.24,0.1-0.55,0.22-0.73s0.07-0.2,0.37-0.27c0.3-0.07,0.94,0.03,1.31,0.17
		c0.37,0.14,1.28,0.16,1.24,0.78C61.61,16.29,60.47,16.27,59.94,16.29z M62.9,15.62c-0.04,0.25-0.4,0.58-0.64,0.35
		c-0.25-0.23-0.15-0.54-0.06-0.71c0.09-0.17,0.19-0.16,0.31-0.17c0.12-0.01,0.15-0.02,0.26,0.08C62.87,15.27,62.94,15.37,62.9,15.62
		z M62.65,14.15c-0.32,0.16-0.45-0.19-0.51-0.35c-0.07-0.16-0.06-0.26-0.08-0.37c-0.13-1.01-0.28-1.98-0.33-2.99
		c-0.02-0.36-0.04-0.72,0.07-1.07c0.23-0.74,0.97-1.03,1.63-0.72c0.66,0.3,0.81,0.99,0.83,1.59c0.02,0.6-0.2,1.1-0.39,1.59
		c-0.19,0.49-0.47,1.06-0.63,1.47C63.08,13.71,62.97,13.99,62.65,14.15z M66.41,16.04c-0.3,0.27-0.62,0.13-1,0.16
		c-0.38,0.03-0.84,0.06-1.25,0.06c-0.41,0-1.02-0.17-0.57-0.66c0.22-0.24,0.68-0.36,1.01-0.53c0.33-0.17,0.69-0.37,1.05-0.53
		c0.36-0.16,0.71-0.13,0.88,0.26S66.71,15.77,66.41,16.04z"/>
	<polygon points="60.37,11.79 60.37,11.79 60.37,11.79 	"/>
	<path d="M75.83,6.62c-0.14-0.12-0.26-0.25-0.51-0.21c-0.26,0.04-0.72,0.67-0.87,0.84c-0.87,0.98-1.56,1.98-2.16,3.08
		c-0.86,1.55-1.47,3.24-2.05,4.85c-0.18,0.5-0.44,1.06-0.19,1.43c0.25,0.37,0.41,0.23,0.83,0.24c2.42,0.06,4.95,0.01,7.46-0.02
		c0.33,0,1.61,0.03,1.63-0.47c0.04-1.27-0.22-2.44-0.52-3.64C78.83,10.23,77.73,8.35,75.83,6.62z M78.24,11.61
		c0.5,0.37,0.54,1.75,0.07,2.15c-0.47,0.4-0.83,0.35-1.2,0.62c-0.37,0.26-1,0.53-1.09,0.11c-0.09-0.41,0.28-0.68,0.41-0.92
		c0.29-0.54,0.62-1.25,0.91-1.67C77.63,11.47,77.74,11.23,78.24,11.61z M73.33,11.78c0.44,0.52,0.51,1.45,0.69,2.06
		c0.18,0.61-0.25,0.7-0.67,0.62c-0.42-0.08-0.84-0.28-1.13-0.44c-0.29-0.17-0.41-0.32-0.43-0.6C71.72,12.5,72.27,10.52,73.33,11.78z
		 M72.43,16.29c-0.53,0.03-1.37,0.17-1.43-0.57c-0.02-0.24,0.1-0.55,0.22-0.73s0.07-0.2,0.37-0.27c0.3-0.07,0.94,0.03,1.31,0.17
		c0.37,0.14,1.28,0.16,1.24,0.78C74.1,16.29,72.96,16.27,72.43,16.29z M75.39,15.62c-0.04,0.25-0.4,0.58-0.64,0.35
		c-0.25-0.23-0.15-0.54-0.06-0.71c0.09-0.17,0.19-0.16,0.31-0.17c0.12-0.01,0.15-0.02,0.26,0.08
		C75.36,15.27,75.43,15.37,75.39,15.62z M75.14,14.15c-0.32,0.16-0.45-0.19-0.51-0.35c-0.07-0.16-0.06-0.26-0.08-0.37
		c-0.13-1.01-0.28-1.98-0.33-2.99c-0.02-0.36-0.04-0.72,0.07-1.07c0.23-0.74,0.97-1.03,1.63-0.72c0.66,0.3,0.81,0.99,0.83,1.59
		c0.02,0.6-0.2,1.1-0.39,1.59c-0.19,0.49-0.47,1.06-0.63,1.47C75.57,13.71,75.46,13.99,75.14,14.15z M78.9,16.04
		c-0.3,0.27-0.62,0.13-1,0.16c-0.38,0.03-0.84,0.06-1.25,0.06c-0.41,0-1.02-0.17-0.57-0.66c0.22-0.24,0.68-0.36,1.01-0.53
		c0.33-0.17,0.69-0.37,1.05-0.53c0.36-0.16,0.71-0.13,0.88,0.26S79.2,15.77,78.9,16.04z"/>
	<path d="M93.08,11.67c-0.6-1.54-1.41-3.02-2.34-4.4c-0.75-1.11-1.72-1.99-2.66-2.94C88.04,4.28,88,4.24,87.87,4.25
		s-0.25-0.02-0.43,0.16c-0.18,0.18-0.48,0.58-0.7,0.85c-1.17,1.44-2.4,2.85-3.35,4.45c-0.94,1.59-1.67,3.27-2.07,5.09
		c-0.14-1.06-0.36-2.1-0.77-3.13c-0.6-1.54-1.41-3.02-2.34-4.4c-0.75-1.11-1.72-1.99-2.66-2.94c-0.04-0.04-0.08-0.08-0.21-0.08
		c-0.13,0.01-0.25-0.02-0.43,0.16c-0.18,0.18-0.48,0.58-0.7,0.85c-1.17,1.44-2.4,2.85-3.35,4.45c-0.95,1.59-1.63,3.34-2.04,5.14
		c-0.14-1.08-0.36-2.13-0.77-3.18c-0.6-1.54-1.41-3.02-2.34-4.4c-0.75-1.11-1.72-1.99-2.66-2.94c-0.04-0.04-0.08-0.08-0.21-0.08
		c-0.13,0.01-0.25-0.02-0.43,0.16c-0.18,0.18-0.48,0.58-0.7,0.85c-1.17,1.44-2.4,2.85-3.35,4.45c-0.84,1.41-1.66,3.41-2.08,5.01
		c-0.14-1.03-0.36-2.05-0.75-3.05c-0.6-1.54-1.41-3.02-2.34-4.4c-0.75-1.11-1.72-1.99-2.66-2.94c-0.04-0.04-0.08-0.08-0.21-0.08
		c-0.13,0.01-0.25-0.02-0.43,0.16c-0.18,0.18-0.48,0.58-0.7,0.85c-1.17,1.44-2.4,2.85-3.35,4.45c-0.95,1.59-1.63,3.34-2.04,5.14
		c-0.14-1.08-0.36-2.13-0.77-3.18c-0.6-1.54-1.41-3.02-2.34-4.4C39.98,6.17,39,5.28,38.07,4.33c-0.04-0.04-0.08-0.08-0.21-0.08
		c-0.13,0.01-0.25-0.02-0.43,0.16c-0.18,0.18-0.48,0.58-0.7,0.85c-1.17,1.44-2.4,2.85-3.35,4.45c-0.94,1.59-1.67,3.27-2.07,5.09
		c-0.14-1.06-0.36-2.1-0.77-3.13c-0.6-1.54-1.41-3.02-2.34-4.4c-0.75-1.11-1.72-1.99-2.66-2.94c-0.04-0.04-0.08-0.08-0.21-0.08
		c-0.13,0.01-0.25-0.02-0.43,0.16c-0.18,0.18-0.48,0.58-0.7,0.85c-1.17,1.44-2.4,2.85-3.35,4.45c-0.95,1.59-1.63,3.34-2.04,5.14
		c-0.14-1.08-0.36-2.13-0.77-3.18c-0.6-1.54-1.41-3.02-2.34-4.4C14.97,6.17,14,5.28,13.06,4.33c-0.04-0.04-0.08-0.08-0.21-0.08
		c-0.13,0.01-0.25-0.02-0.43,0.16c-0.18,0.18-0.48,0.58-0.7,0.85c-1.17,1.44-2.4,2.85-3.35,4.45c-1.28,2.15-2.08,4.58-2.37,7.06
		C6,16.84,5.99,16.92,6.03,16.98c0.07,0.09,0.23,0.06,0.3-0.03c0.07-0.09,0.07-0.22,0.09-0.33c0.38-2.13,0.74-3.38,1.52-4.97
		c0.64-1.3,1.22-2.39,2.07-3.56c0.43-0.59,0.9-1.13,1.37-1.69c0.23-0.28,0.49-0.55,0.72-0.83c0.23-0.27,0.44-0.55,0.69-0.8
		c0.76,0.86,1.69,1.72,2.33,2.66c0.64,0.93,1.18,1.82,1.66,2.81c0.97,1.98,1.54,4.1,1.74,6.3c-0.01,0.08-0.03,0.16-0.04,0.24
		c-0.01,0.07-0.01,0.15,0.03,0.21c0.07,0.09,0.23,0.06,0.3-0.03c0.07-0.09,0.14-0.35,0.16-0.46c0.38-2.13,0.67-3.25,1.45-4.84
		c0.64-1.3,1.22-2.39,2.07-3.56c0.43-0.59,0.9-1.13,1.37-1.69c0.23-0.28,0.49-0.55,0.72-0.83c0.23-0.27,0.44-0.55,0.69-0.8
		c0.76,0.86,1.69,1.72,2.33,2.66c0.64,0.93,1.18,1.82,1.66,2.81c0.97,1.98,1.55,4.12,1.75,6.31c-0.01,0.08-0.02,0.15-0.03,0.23
		C31,16.84,31,16.92,31.04,16.98c0.07,0.09,0.23,0.06,0.3-0.03c0.07-0.09,0.07-0.22,0.09-0.33c0.01-0.07,0.03-0.14,0.04-0.24
		c0.37-1.98,0.72-3.2,1.48-4.74c0.64-1.3,1.22-2.39,2.07-3.56c0.43-0.59,0.9-1.13,1.37-1.69c0.23-0.28,0.49-0.55,0.72-0.83
		c0.23-0.27,0.44-0.55,0.69-0.8c0.76,0.86,1.69,1.72,2.33,2.66c0.64,0.93,1.18,1.82,1.66,2.81c0.97,1.98,1.54,4.1,1.74,6.3
		c-0.01,0.08-0.03,0.16-0.04,0.24c-0.01,0.07-0.01,0.15,0.03,0.21c0.07,0.09,0.23,0.06,0.3-0.03c0.07-0.09,0.14-0.35,0.16-0.46
		c0.38-2.13,0.67-3.25,1.45-4.84c0.64-1.3,1.22-2.39,2.07-3.56c0.43-0.59,0.9-1.13,1.37-1.69c0.23-0.28,0.49-0.55,0.72-0.83
		c0.23-0.27,0.44-0.55,0.69-0.8c0.76,0.86,1.69,1.72,2.33,2.66c0.64,0.93,1.18,1.82,1.66,2.81c0.37,0.76,0.69,1.54,0.95,2.35
		c0.25,0.8,0.45,1.62,0.58,2.44c0.04,0.24,0.07,0.49,0.1,0.73c0.02,0.17,0.03,0.34,0.05,0.52c0.03,0.18,0.04,0.37,0.04,0.55
		c0,0.08,0.02,0.17,0.1,0.2c0.08,0.03,0.18-0.01,0.23-0.08c0.07-0.09,0.07-0.22,0.09-0.33c0.38-2.13,0.74-3.38,1.52-4.97
		c0.64-1.3,1.22-2.39,2.07-3.56c0.43-0.59,0.9-1.13,1.37-1.69c0.23-0.28,0.49-0.55,0.72-0.83c0.23-0.27,0.44-0.55,0.69-0.8
		c0.76,0.86,1.69,1.72,2.33,2.66c0.64,0.93,1.18,1.82,1.66,2.81c0.97,1.98,1.54,4.1,1.74,6.3c-0.01,0.08-0.03,0.16-0.04,0.24
		c-0.01,0.07-0.01,0.15,0.03,0.21c0.07,0.09,0.23,0.06,0.3-0.03c0.07-0.09,0.14-0.35,0.16-0.46c0.38-2.13,0.67-3.25,1.45-4.84
		c0.64-1.3,1.22-2.39,2.07-3.56c0.43-0.59,0.9-1.13,1.37-1.69c0.23-0.28,0.49-0.55,0.72-0.83c0.23-0.27,0.44-0.55,0.69-0.8
		c0.76,0.86,1.69,1.72,2.33,2.66c0.64,0.93,1.18,1.82,1.66,2.81c0.97,1.98,1.55,4.12,1.75,6.31c-0.01,0.08-0.02,0.15-0.03,0.23
		c-0.01,0.07-0.01,0.15,0.03,0.21c0.07,0.09,0.23,0.06,0.3-0.03c0.07-0.09,0.07-0.22,0.09-0.33c0.01-0.07,0.03-0.14,0.04-0.24
		c0.37-1.98,0.72-3.2,1.48-4.74c0.64-1.3,1.22-2.39,2.07-3.56c0.43-0.59,0.9-1.13,1.37-1.69c0.23-0.28,0.49-0.55,0.72-0.83
		c0.23-0.27,0.44-0.55,0.69-0.8c0.76,0.86,1.69,1.72,2.33,2.66c0.64,0.93,1.18,1.82,1.66,2.81c0.97,1.98,1.54,4.1,1.73,6.28
		c0.03,0.33,0.47,0.19,0.45-0.13C93.9,14.76,93.68,13.21,93.08,11.67z"/>
	<path d="M88.34,6.62c-0.14-0.12-0.26-0.25-0.51-0.21c-0.26,0.04-0.72,0.67-0.87,0.84c-0.87,0.98-1.56,1.98-2.16,3.08
		c-0.86,1.55-1.47,3.24-2.05,4.85c-0.18,0.5-0.44,1.06-0.19,1.43c0.25,0.37,0.41,0.23,0.83,0.24c2.42,0.06,4.95,0.01,7.46-0.02
		c0.33,0,1.61,0.03,1.63-0.47c0.04-1.27-0.22-2.44-0.52-3.64C91.35,10.23,90.25,8.35,88.34,6.62z M90.75,11.61
		c0.5,0.37,0.54,1.75,0.07,2.15c-0.47,0.4-0.83,0.35-1.2,0.62c-0.37,0.26-1,0.53-1.09,0.11c-0.09-0.41,0.28-0.68,0.41-0.92
		c0.29-0.54,0.62-1.25,0.91-1.67C90.15,11.47,90.25,11.23,90.75,11.61z M85.85,11.78c0.44,0.52,0.51,1.45,0.69,2.06
		c0.18,0.61-0.25,0.7-0.67,0.62c-0.42-0.08-0.84-0.28-1.13-0.44c-0.29-0.17-0.41-0.32-0.43-0.6C84.23,12.5,84.79,10.52,85.85,11.78z
		 M84.94,16.29c-0.53,0.03-1.37,0.17-1.43-0.57c-0.02-0.24,0.1-0.55,0.22-0.73s0.07-0.2,0.37-0.27c0.3-0.07,0.94,0.03,1.31,0.17
		c0.37,0.14,1.28,0.16,1.24,0.78C86.62,16.29,85.47,16.27,84.94,16.29z M87.91,15.62c-0.04,0.25-0.4,0.58-0.64,0.35
		c-0.25-0.23-0.15-0.54-0.06-0.71c0.09-0.17,0.19-0.16,0.31-0.17c0.12-0.01,0.15-0.02,0.26,0.08S87.95,15.37,87.91,15.62z
		 M87.65,14.15c-0.32,0.16-0.45-0.19-0.51-0.35s-0.06-0.26-0.08-0.37c-0.13-1.01-0.28-1.98-0.33-2.99
		c-0.02-0.36-0.04-0.72,0.07-1.07c0.23-0.74,0.97-1.03,1.63-0.72s0.81,0.99,0.83,1.59c0.02,0.6-0.2,1.1-0.39,1.59
		c-0.19,0.49-0.47,1.06-0.63,1.47C88.09,13.71,87.97,13.99,87.65,14.15z M91.41,16.04c-0.3,0.27-0.62,0.13-1,0.16
		c-0.38,0.03-0.84,0.06-1.25,0.06c-0.41,0-1.02-0.17-0.57-0.66c0.22-0.24,0.68-0.36,1.01-0.53c0.33-0.17,0.69-0.37,1.05-0.53
		s0.71-0.13,0.88,0.26S91.71,15.77,91.41,16.04z"/>
</g>
</svg>
