<?xml version="1.0" encoding="utf-8"?>
<!-- Generator: Adobe Illustrator 23.0.0, SVG Export Plug-In . SVG Version: 6.00 Build 0)  -->
<svg version="1.1" id="Слой_1" xmlns="http://www.w3.org/2000/svg" xmlns:xlink="http://www.w3.org/1999/xlink" x="0px" y="0px"
	 viewBox="0 0 100 21.28" style="enable-background:new 0 0 100 21.28;" xml:space="preserve">
<path d="M93.97,16.04c-0.02-0.42-0.07-0.83-0.13-1.25c-0.3-2.21-1.27-4.28-2.52-6.11c-0.57-0.84-1.21-1.63-1.88-2.39
	c-0.34-0.38-0.68-0.75-1.04-1.11C88.23,5,88.04,4.83,87.87,4.64c-0.12-0.13-0.23-0.27-0.36-0.39c-0.11-0.1-0.25-0.25-0.4-0.18
	c-0.19,0.1-0.16,0.09-0.38,0.27c-0.25,0.21-0.45,0.43-0.68,0.64c-0.37,0.35-0.74,0.7-1.07,1.08c-1.32,1.5-2.38,3.22-3.08,5.08
	c-0.33,0.86-0.56,1.76-0.72,2.67c-0.42-1.84-1.27-3.57-2.34-5.13c-0.57-0.84-1.21-1.63-1.88-2.39c-0.34-0.38-0.68-0.75-1.04-1.11
	C75.74,5,75.56,4.83,75.38,4.64c-0.12-0.13-0.23-0.27-0.36-0.39c-0.11-0.1-0.25-0.25-0.4-0.18c-0.19,0.1-0.16,0.09-0.38,0.27
	C74,4.55,73.79,4.77,73.57,4.98c-0.37,0.35-0.74,0.7-1.07,1.08c-1.32,1.5-2.38,3.22-3.08,5.08c-0.33,0.88-0.57,1.79-0.73,2.72
	c-0.41-1.86-1.28-3.61-2.36-5.19c-0.57-0.84-1.21-1.63-1.88-2.39c-0.34-0.38-0.68-0.75-1.04-1.11C63.23,5,63.05,4.83,62.88,4.64
	c-0.12-0.13-0.23-0.27-0.36-0.39c-0.11-0.1-0.25-0.25-0.4-0.18c-0.19,0.1-0.16,0.09-0.38,0.27c-0.25,0.21-0.45,0.43-0.68,0.64
	c-0.37,0.35-0.74,0.7-1.07,1.08c-1.32,1.5-2.38,3.22-3.08,5.08c-0.33,0.86-0.56,1.76-0.72,2.67c-0.42-1.84-1.27-3.57-2.34-5.13
	c-0.57-0.84-1.21-1.63-1.88-2.39c-0.34-0.38-0.68-0.75-1.04-1.11C50.75,5,50.56,4.83,50.39,4.64c-0.12-0.13-0.23-0.27-0.36-0.39
	c-0.11-0.1-0.25-0.25-0.4-0.18c-0.19,0.1-0.16,0.09-0.38,0.27c-0.25,0.21-0.45,0.43-0.68,0.64c-0.37,0.35-0.74,0.7-1.07,1.08
	c-1.32,1.5-2.38,3.22-3.08,5.08c-0.33,0.88-0.57,1.79-0.73,2.72c-0.41-1.86-1.28-3.61-2.36-5.19c-0.57-0.84-1.21-1.63-1.88-2.39
	c-0.34-0.38-0.68-0.75-1.04-1.11C38.24,5,38.05,4.83,37.88,4.64c-0.12-0.13-0.23-0.27-0.36-0.39c-0.11-0.1-0.25-0.25-0.4-0.18
	c-0.19,0.1-0.16,0.09-0.38,0.27c-0.25,0.21-0.45,0.43-0.68,0.64c-0.37,0.35-0.74,0.7-1.07,1.08c-1.32,1.5-2.38,3.22-3.08,5.08
	c-0.33,0.86-0.56,1.76-0.72,2.67c-0.42-1.84-1.27-3.57-2.34-5.13c-0.57-0.84-1.21-1.63-1.88-2.39c-0.34-0.38-0.68-0.75-1.04-1.11
	C25.75,5,25.57,4.83,25.4,4.64c-0.12-0.13-0.23-0.27-0.36-0.39c-0.11-0.1-0.25-0.25-0.4-0.18c-0.19,0.1-0.16,0.09-0.38,0.27
	c-0.25,0.21-0.45,0.43-0.68,0.64c-0.37,0.35-0.74,0.7-1.07,1.08c-1.32,1.5-2.38,3.22-3.08,5.08c-0.33,0.88-0.57,1.79-0.73,2.72
	c-0.41-1.86-1.28-3.61-2.36-5.19c-0.57-0.84-1.21-1.63-1.88-2.39c-0.34-0.38-0.68-0.75-1.04-1.11C13.25,5,13.06,4.83,12.89,4.64
	c-0.12-0.13-0.23-0.27-0.36-0.39c-0.11-0.1-0.25-0.25-0.4-0.18c-0.19,0.1-0.16,0.09-0.38,0.27c-0.25,0.21-0.45,0.43-0.68,0.64
	C10.7,5.33,10.34,5.68,10,6.06c-1.32,1.5-2.38,3.22-3.08,5.08c-0.35,0.93-0.61,1.89-0.76,2.86c-0.08,0.49-0.13,0.98-0.15,1.48
	C6,15.74,6,15.98,6,16.23c0,0.34-0.05,0.97,0.45,0.99c0.42,0.01,0.84,0,1.26,0c1.49,0,2.98,0,4.47,0c1.42,0,2.85,0,4.27,0
	c0.6,0,1.2,0,1.8,0c0.19,0,0.38,0.02,0.53-0.05c0.05,0.02,0.11,0.04,0.18,0.05c0.42,0.01,0.84,0,1.26,0c1.49,0,2.98,0,4.47,0
	c1.42,0,2.85,0,4.27,0c0.6,0,1.2,0,1.8,0c0.18,0,0.37,0.02,0.51-0.04c0.05,0.02,0.1,0.04,0.17,0.04c0.42,0.01,0.84,0,1.26,0
	c1.49,0,2.98,0,4.47,0c1.42,0,2.85,0,4.27,0c0.6,0,1.2,0,1.8,0c0.19,0,0.38,0.02,0.53-0.05c0.05,0.02,0.11,0.04,0.18,0.05
	c0.42,0.01,0.84,0,1.26,0c1.49,0,2.98,0,4.47,0c1.42,0,2.85,0,4.27,0c0.6,0,1.2,0,1.8,0c0.18,0,0.37,0.02,0.51-0.04
	c0.05,0.02,0.1,0.04,0.17,0.04c0.42,0.01,0.84,0,1.26,0c1.49,0,2.98,0,4.47,0c1.42,0,2.85,0,4.27,0c0.6,0,1.2,0,1.8,0
	c0.19,0,0.38,0.02,0.53-0.05c0.05,0.02,0.11,0.04,0.18,0.05c0.42,0.01,0.84,0,1.26,0c1.49,0,2.98,0,4.47,0c1.42,0,2.85,0,4.27,0
	c0.6,0,1.2,0,1.8,0c0.18,0,0.37,0.02,0.51-0.04c0.05,0.02,0.1,0.04,0.17,0.04c0.42,0.01,0.84,0,1.26,0c1.49,0,2.98,0,4.47,0
	c1.42,0,2.85,0,4.27,0c0.6,0,1.2,0,1.8,0c0.28,0,0.6,0.07,0.71-0.26c0.01-0.04,0.02-0.09,0.03-0.13
	C94.02,16.58,93.99,16.31,93.97,16.04z M12.07,7.05c0.01,0,0.03,0.01,0.04,0.01c0.05,0.02,0.12,0.06,0.19,0.1
	c0.09,0.06,0.18,0.12,0.27,0.19C12.71,7.47,12.86,7.6,13,7.74c0.04,0.04,0.08,0.08,0.12,0.13c-0.01,0.01-0.02,0.02-0.03,0.04
	c-0.27,0.52-0.59,1.02-0.86,1.54C12.15,8.65,12.05,7.86,12.07,7.05z M12.33,10.43c0.23-0.61,0.59-1.16,0.9-1.73
	c0.06-0.15,0.17-0.28,0.25-0.42c0.07,0.08,0.14,0.17,0.2,0.26c0.13,0.17,0.26,0.35,0.39,0.54c-0.47,0.56-0.83,1.71-1.25,2.28
	c-0.14,0.25-0.3,0.51-0.45,0.76c-0.03-0.64-0.06-1.23-0.08-1.63C12.31,10.47,12.32,10.45,12.33,10.43z M14.36,9.53
	c0.1,0.15,0.19,0.31,0.28,0.47c0,0,0,0,0,0.01c0,0,0,0,0,0.01c0.12,0.21,0.24,0.43,0.36,0.65c-0.02,0.03-0.03,0.06-0.04,0.1
	c-0.81,1.5-1.75,2.93-2.52,4.45c0.01-0.63-0.01-1.37-0.04-2.09C13.05,11.92,13.74,10.74,14.36,9.53z M12.33,16.73
	c0.01-0.04,0.02-0.1,0.03-0.15c0,0,0,0,0,0c0.8-1.87,1.93-3.57,2.92-5.34c0.16,0.33,0.31,0.66,0.45,0.99
	c0.04,0.08,0.07,0.16,0.1,0.25c-0.01,0-0.02,0-0.03,0.01c-0.68,1.48-1.59,2.82-2.38,4.25C13.07,16.73,12.7,16.73,12.33,16.73z
	 M15.18,16.65c-0.02,0.02-0.04,0.05-0.05,0.08c-0.06,0-0.11,0-0.17,0c-0.32,0-0.64,0-0.95,0c0.41-0.76,0.92-1.49,1.33-2.26
	c0.09-0.17,0.51-0.84,0.74-1.36c0.12,0.33,0.23,0.66,0.32,1C16.05,14.97,15.66,15.83,15.18,16.65
	C15.19,16.64,15.19,16.64,15.18,16.65z M16.73,16.73c-0.34,0-0.68,0-1.02,0c0.33-0.58,0.62-1.18,0.88-1.79
	c0.05,0.23,0.09,0.46,0.12,0.69c0.03,0.23,0.05,0.49,0.04,0.75C16.75,16.48,16.75,16.61,16.73,16.73z M18.46,16.73
	c-0.41,0-0.81,0-1.22,0c0-0.01,0.01-0.02,0.01-0.04c0.06-0.57-0.01-1.16-0.12-1.72c-0.16-0.82-0.4-1.62-0.7-2.4
	c-0.46-1.21-1.03-2.39-1.74-3.49c-0.38-0.59-0.8-1.16-1.3-1.65c-0.41-0.41-1.17-1.18-1.82-0.95c-0.24,0.08-0.38,0.33-0.57,0.48
	c-1.77,1.97-2.87,4.54-3.3,7.13c-0.13,0.83-0.3,1.67-0.36,2.52c0,0.04,0,0.08,0.01,0.11c-0.05,0-0.1,0-0.15,0c-0.22,0-0.44,0-0.66,0
	c-0.07-0.88,0.02-1.77,0.15-2.63c0.08-0.56,0.2-1.12,0.35-1.66c0.15-0.55,0.34-1.08,0.56-1.61C7.8,10.3,8.05,9.78,8.33,9.29
	c0.28-0.5,0.59-0.98,0.92-1.45c0.33-0.47,0.69-0.92,1.06-1.35c0.38-0.43,0.77-0.84,1.19-1.24c0.14-0.13,0.28-0.26,0.43-0.39
	c0.07-0.06,0.14-0.13,0.22-0.19c0.07-0.06,0.09-0.01,0.14,0.04C15.48,7.99,18.68,11.9,18.46,16.73z M24.58,7.05
	c0.01,0,0.03,0.01,0.04,0.01c0.05,0.02,0.12,0.06,0.19,0.1c0.09,0.06,0.18,0.12,0.27,0.19c0.14,0.11,0.29,0.25,0.44,0.39
	c0.04,0.04,0.08,0.08,0.12,0.13c-0.01,0.01-0.02,0.02-0.03,0.04c-0.27,0.52-0.59,1.02-0.86,1.54C24.66,8.65,24.56,7.86,24.58,7.05z
	 M24.84,10.43c0.23-0.61,0.59-1.16,0.9-1.73c0.06-0.15,0.17-0.28,0.25-0.42c0.07,0.08,0.14,0.17,0.2,0.26
	c0.13,0.17,0.26,0.35,0.39,0.54c-0.47,0.56-0.83,1.71-1.25,2.28c-0.14,0.25-0.3,0.51-0.45,0.76c-0.03-0.64-0.06-1.23-0.08-1.63
	C24.81,10.47,24.83,10.45,24.84,10.43z M26.87,9.53c0.1,0.15,0.19,0.31,0.28,0.47c0,0,0,0,0,0.01c0,0,0,0,0,0.01
	c0.12,0.21,0.24,0.43,0.36,0.65c-0.02,0.03-0.03,0.06-0.04,0.1c-0.81,1.5-1.75,2.93-2.52,4.45c0.01-0.63-0.01-1.37-0.04-2.09
	C25.56,11.92,26.25,10.74,26.87,9.53z M24.84,16.73c0.01-0.04,0.02-0.1,0.03-0.15c0,0,0,0,0,0c0.8-1.87,1.93-3.57,2.92-5.34
	c0.16,0.33,0.31,0.66,0.45,0.99c0.04,0.08,0.07,0.16,0.1,0.25c-0.01,0-0.02,0-0.03,0.01c-0.68,1.48-1.59,2.82-2.38,4.25
	C25.57,16.73,25.21,16.73,24.84,16.73z M27.69,16.65c-0.02,0.02-0.04,0.05-0.05,0.08c-0.06,0-0.11,0-0.17,0c-0.32,0-0.64,0-0.95,0
	c0.41-0.76,0.92-1.49,1.33-2.26c0.09-0.17,0.51-0.84,0.74-1.36c0.12,0.33,0.23,0.66,0.32,1C28.56,14.97,28.17,15.83,27.69,16.65
	C27.7,16.64,27.7,16.64,27.69,16.65z M29.24,16.73c-0.34,0-0.68,0-1.02,0c0.33-0.58,0.62-1.18,0.88-1.79
	c0.05,0.23,0.09,0.46,0.12,0.69c0.03,0.23,0.05,0.49,0.04,0.75C29.26,16.48,29.26,16.61,29.24,16.73z M30.97,16.73
	c-0.41,0-0.81,0-1.22,0c0-0.01,0.01-0.02,0.01-0.04c0.06-0.57-0.01-1.16-0.12-1.72c-0.16-0.82-0.4-1.62-0.7-2.4
	c-0.46-1.21-1.03-2.39-1.74-3.49c-0.38-0.59-0.8-1.16-1.3-1.65c-0.41-0.41-1.17-1.18-1.82-0.95c-0.24,0.08-0.38,0.33-0.57,0.48
	c-1.77,1.97-2.87,4.54-3.3,7.13c-0.13,0.83-0.36,2.6-0.35,2.63c-0.05,0-0.1,0-0.15,0c-0.22,0-0.44,0-0.66,0
	c-0.07-0.88,0.02-1.77,0.15-2.63c0.08-0.56,0.2-1.12,0.35-1.66c0.15-0.55,0.34-1.08,0.56-1.61c0.22-0.53,0.47-1.04,0.75-1.54
	c0.28-0.5,0.59-0.98,0.92-1.45c0.33-0.47,0.69-0.92,1.06-1.35c0.38-0.43,0.77-0.84,1.19-1.24c0.14-0.13,0.28-0.26,0.43-0.39
	c0.07-0.06,0.14-0.13,0.22-0.19c0.07-0.06,0.09-0.01,0.14,0.04C27.99,7.99,31.19,11.9,30.97,16.73z M37.06,7.05
	c0.01,0,0.03,0.01,0.04,0.01c0.05,0.02,0.12,0.06,0.19,0.1c0.09,0.06,0.18,0.12,0.27,0.19c0.14,0.11,0.29,0.25,0.44,0.39
	c0.04,0.04,0.08,0.08,0.12,0.13c-0.01,0.01-0.02,0.02-0.03,0.04c-0.27,0.52-0.59,1.02-0.86,1.54C37.14,8.65,37.04,7.86,37.06,7.05z
	 M37.32,10.43c0.23-0.61,0.59-1.16,0.9-1.73c0.06-0.15,0.17-0.28,0.25-0.42c0.07,0.08,0.14,0.17,0.2,0.26
	c0.13,0.17,0.26,0.35,0.39,0.54c-0.47,0.56-0.83,1.71-1.25,2.28c-0.14,0.25-0.3,0.51-0.45,0.76c-0.03-0.64-0.06-1.23-0.08-1.63
	C37.3,10.47,37.31,10.45,37.32,10.43z M39.35,9.53c0.1,0.15,0.19,0.31,0.28,0.47c0,0,0,0,0,0.01c0,0,0,0,0,0.01
	c0.12,0.21,0.24,0.43,0.36,0.65c-0.02,0.03-0.03,0.06-0.04,0.1c-0.81,1.5-1.75,2.93-2.52,4.45c0.01-0.63-0.01-1.37-0.04-2.09
	C38.05,11.92,38.73,10.74,39.35,9.53z M37.33,16.73c0.01-0.04,0.02-0.1,0.03-0.15c0,0,0,0,0,0c0.8-1.87,1.93-3.57,2.92-5.34
	c0.16,0.33,0.31,0.66,0.45,0.99c0.04,0.08,0.07,0.16,0.1,0.25c-0.01,0-0.02,0-0.03,0.01c-0.68,1.48-1.59,2.82-2.38,4.25
	C38.06,16.73,37.7,16.73,37.33,16.73z M40.18,16.65c-0.02,0.02-0.04,0.05-0.05,0.08c-0.06,0-0.11,0-0.17,0c-0.32,0-0.64,0-0.95,0
	c0.41-0.76,0.92-1.49,1.33-2.26c0.09-0.17,0.51-0.84,0.74-1.36c0.12,0.33,0.23,0.66,0.32,1C41.04,14.97,40.65,15.83,40.18,16.65
	C40.18,16.64,40.18,16.64,40.18,16.65z M41.72,16.73c-0.34,0-0.68,0-1.02,0c0.33-0.58,0.62-1.18,0.88-1.79
	c0.05,0.23,0.09,0.46,0.12,0.69c0.03,0.23,0.05,0.49,0.04,0.75C41.75,16.48,41.74,16.61,41.72,16.73z M43.45,16.73
	c-0.41,0-0.81,0-1.22,0c0-0.01,0.01-0.02,0.01-0.04c0.06-0.57-0.01-1.16-0.12-1.72c-0.16-0.82-0.4-1.62-0.7-2.4
	c-0.46-1.21-1.03-2.39-1.74-3.49c-0.38-0.59-0.8-1.16-1.3-1.65c-0.41-0.41-1.17-1.18-1.82-0.95c-0.24,0.08-0.38,0.33-0.57,0.48
	c-1.77,1.97-2.87,4.54-3.3,7.13c-0.13,0.83-0.3,1.67-0.36,2.52c0,0.04,0,0.08,0.01,0.11c-0.05,0-0.1,0-0.15,0c-0.22,0-0.44,0-0.66,0
	c0-0.02,0-0.04,0-0.06c0.01-0.21,0-0.42-0.01-0.62c0-0.02,0-0.04-0.01-0.06c0.01-0.63,0.08-1.27,0.17-1.89
	c0.08-0.56,0.2-1.12,0.35-1.66c0.15-0.55,0.34-1.08,0.56-1.61c0.22-0.53,0.47-1.04,0.75-1.54c0.28-0.5,0.59-0.98,0.92-1.45
	c0.33-0.47,0.69-0.92,1.06-1.35c0.38-0.43,0.77-0.84,1.19-1.24c0.14-0.13,0.28-0.26,0.43-0.39c0.07-0.06,0.14-0.13,0.22-0.19
	c0.07-0.06,0.09-0.01,0.14,0.04C40.47,7.99,43.67,11.9,43.45,16.73z M49.57,7.05c0.01,0,0.03,0.01,0.04,0.01
	c0.05,0.02,0.12,0.06,0.19,0.1c0.09,0.06,0.18,0.12,0.27,0.19c0.14,0.11,0.29,0.25,0.44,0.39c0.04,0.04,0.08,0.08,0.12,0.13
	c-0.01,0.01-0.02,0.02-0.03,0.04c-0.27,0.52-0.59,1.02-0.86,1.54C49.65,8.65,49.55,7.86,49.57,7.05z M49.83,10.43
	c0.23-0.61,0.59-1.16,0.9-1.73c0.06-0.15,0.17-0.28,0.25-0.42c0.07,0.08,0.14,0.17,0.2,0.26c0.13,0.17,0.26,0.35,0.39,0.54
	c-0.47,0.56-0.83,1.71-1.25,2.28c-0.14,0.25-0.3,0.51-0.45,0.76c-0.03-0.64-0.06-1.23-0.08-1.63
	C49.81,10.47,49.82,10.45,49.83,10.43z M51.86,9.53c0.1,0.15,0.19,0.31,0.28,0.47c0,0,0,0,0,0.01c0,0,0,0,0,0.01
	c0.12,0.21,0.24,0.43,0.36,0.65c-0.02,0.03-0.03,0.06-0.04,0.1c-0.81,1.5-1.75,2.93-2.52,4.45c0.01-0.63-0.01-1.37-0.04-2.09
	C50.55,11.92,51.24,10.74,51.86,9.53z M49.84,16.73c0.01-0.04,0.02-0.1,0.03-0.15c0,0,0,0,0,0c0.8-1.87,1.93-3.57,2.92-5.34
	c0.16,0.33,0.31,0.66,0.45,0.99c0.04,0.08,0.07,0.16,0.1,0.25c-0.01,0-0.02,0-0.03,0.01c-0.68,1.48-1.59,2.82-2.38,4.25
	C50.57,16.73,50.2,16.73,49.84,16.73z M52.68,16.65c-0.02,0.02-0.04,0.05-0.06,0.08c-0.06,0-0.11,0-0.17,0c-0.32,0-0.64,0-0.95,0
	c0.41-0.76,0.92-1.49,1.33-2.26c0.09-0.17,0.51-0.84,0.74-1.36c0.12,0.33,0.23,0.66,0.32,1C53.55,14.97,53.16,15.83,52.68,16.65
	C52.69,16.64,52.69,16.64,52.68,16.65z M54.23,16.73c-0.34,0-0.68,0-1.02,0c0.33-0.58,0.62-1.18,0.88-1.79
	c0.05,0.23,0.09,0.46,0.12,0.69c0.03,0.23,0.05,0.49,0.04,0.75C54.26,16.48,54.25,16.61,54.23,16.73z M55.96,16.73
	c-0.41,0-0.81,0-1.22,0c0-0.01,0.01-0.02,0.01-0.04c0.06-0.57-0.01-1.16-0.12-1.72c-0.16-0.82-0.4-1.62-0.7-2.4
	c-0.46-1.21-1.03-2.39-1.74-3.49c-0.38-0.59-0.8-1.16-1.3-1.65c-0.41-0.41-1.17-1.18-1.82-0.95c-0.24,0.08-0.38,0.33-0.57,0.48
	c-1.77,1.97-2.87,4.54-3.3,7.13c-0.13,0.83-0.36,2.6-0.35,2.63c-0.05,0-0.1,0-0.15,0c-0.22,0-0.44,0-0.66,0
	c-0.07-0.88,0.02-1.77,0.15-2.63c0.08-0.56,0.2-1.12,0.35-1.66c0.15-0.55,0.34-1.08,0.56-1.61c0.22-0.53,0.47-1.04,0.75-1.54
	c0.28-0.5,0.59-0.98,0.92-1.45c0.33-0.47,0.69-0.92,1.06-1.35c0.38-0.43,0.77-0.84,1.19-1.24c0.14-0.13,0.28-0.26,0.43-0.39
	c0.07-0.06,0.14-0.13,0.22-0.19c0.07-0.06,0.09-0.01,0.14,0.04C52.98,7.99,56.18,11.9,55.96,16.73z M62.05,7.05
	c0.01,0,0.03,0.01,0.04,0.01c0.05,0.02,0.12,0.06,0.19,0.1c0.09,0.06,0.18,0.12,0.27,0.19c0.14,0.11,0.29,0.25,0.44,0.39
	c0.04,0.04,0.08,0.08,0.12,0.13c-0.01,0.01-0.02,0.02-0.03,0.04c-0.27,0.52-0.59,1.02-0.86,1.54C62.13,8.65,62.03,7.86,62.05,7.05z
	 M62.31,10.43c0.23-0.61,0.59-1.16,0.9-1.73c0.06-0.15,0.17-0.28,0.25-0.42c0.07,0.08,0.14,0.17,0.2,0.26
	c0.13,0.17,0.26,0.35,0.39,0.54c-0.47,0.56-0.83,1.71-1.25,2.28c-0.14,0.25-0.3,0.51-0.45,0.76c-0.03-0.64-0.06-1.23-0.08-1.63
	C62.29,10.47,62.3,10.45,62.31,10.43z M64.35,9.53c0.1,0.15,0.19,0.31,0.28,0.47c0,0,0,0,0,0.01c0,0,0,0,0,0.01
	c0.12,0.21,0.24,0.43,0.36,0.65c-0.02,0.03-0.03,0.06-0.04,0.1c-0.81,1.5-1.75,2.93-2.52,4.45c0.01-0.63-0.01-1.37-0.04-2.09
	C63.04,11.92,63.72,10.74,64.35,9.53z M62.32,16.73c0.01-0.04,0.02-0.1,0.03-0.15c0,0,0,0,0,0c0.8-1.87,1.93-3.57,2.92-5.34
	c0.16,0.33,0.31,0.66,0.45,0.99c0.04,0.08,0.07,0.16,0.1,0.25c-0.01,0-0.02,0-0.03,0.01c-0.68,1.48-1.59,2.82-2.38,4.25
	C63.05,16.73,62.69,16.73,62.32,16.73z M65.17,16.65c-0.02,0.02-0.04,0.05-0.06,0.08c-0.06,0-0.11,0-0.17,0c-0.32,0-0.64,0-0.95,0
	c0.41-0.76,0.92-1.49,1.33-2.26c0.09-0.17,0.51-0.84,0.74-1.36c0.12,0.33,0.23,0.66,0.32,1C66.04,14.97,65.65,15.83,65.17,16.65
	C65.17,16.64,65.17,16.64,65.17,16.65z M66.72,16.73c-0.34,0-0.68,0-1.02,0c0.33-0.58,0.62-1.18,0.88-1.79
	c0.05,0.23,0.09,0.46,0.12,0.69c0.03,0.23,0.05,0.49,0.04,0.75C66.74,16.48,66.73,16.61,66.72,16.73z M68.44,16.73
	c-0.41,0-0.81,0-1.22,0c0-0.01,0.01-0.02,0.01-0.04c0.06-0.57-0.01-1.16-0.12-1.72c-0.16-0.82-0.4-1.62-0.7-2.4
	c-0.46-1.21-1.03-2.39-1.74-3.49c-0.38-0.59-0.8-1.16-1.3-1.65c-0.41-0.41-1.17-1.18-1.82-0.95c-0.24,0.08-0.38,0.33-0.57,0.48
	c-1.77,1.97-2.87,4.54-3.3,7.13c-0.13,0.83-0.3,1.67-0.36,2.52c0,0.04,0,0.08,0.01,0.11c-0.05,0-0.1,0-0.15,0c-0.22,0-0.44,0-0.66,0
	c0-0.02,0-0.04,0-0.06c0.01-0.21,0-0.42-0.01-0.62c0-0.02-0.01-0.04-0.01-0.06c0.01-0.63,0.08-1.27,0.17-1.89
	c0.08-0.56,0.2-1.12,0.35-1.66c0.15-0.55,0.34-1.08,0.56-1.61c0.22-0.53,0.47-1.04,0.75-1.54c0.28-0.5,0.59-0.98,0.92-1.45
	c0.33-0.47,0.69-0.92,1.06-1.35c0.38-0.43,0.77-0.84,1.19-1.24c0.14-0.13,0.28-0.26,0.43-0.39c0.07-0.06,0.14-0.13,0.22-0.19
	c0.07-0.06,0.09-0.01,0.14,0.04C65.47,7.99,68.67,11.9,68.44,16.73z M74.56,7.05c0.01,0,0.03,0.01,0.04,0.01
	c0.05,0.02,0.12,0.06,0.19,0.1c0.09,0.06,0.18,0.12,0.27,0.19c0.14,0.11,0.29,0.25,0.44,0.39c0.04,0.04,0.08,0.08,0.12,0.13
	c-0.01,0.01-0.02,0.02-0.03,0.04C75.31,8.43,75,8.92,74.73,9.44C74.64,8.65,74.54,7.86,74.56,7.05z M74.82,10.43
	c0.23-0.61,0.59-1.16,0.9-1.73c0.06-0.15,0.17-0.28,0.25-0.42c0.07,0.08,0.14,0.17,0.2,0.26c0.13,0.17,0.26,0.35,0.39,0.54
	c-0.47,0.56-0.83,1.71-1.25,2.28c-0.14,0.25-0.3,0.51-0.45,0.76c-0.03-0.64-0.06-1.23-0.08-1.63C74.8,10.47,74.81,10.45,74.82,10.43
	z M76.86,9.53c0.1,0.15,0.19,0.31,0.28,0.47c0,0,0,0,0,0.01c0,0,0,0,0,0.01c0.12,0.21,0.24,0.43,0.36,0.65
	c-0.02,0.03-0.03,0.06-0.04,0.1c-0.81,1.5-1.75,2.93-2.52,4.45c0.01-0.63-0.01-1.37-0.04-2.09C75.55,11.92,76.23,10.74,76.86,9.53z
	 M74.83,16.73c0.01-0.04,0.02-0.1,0.03-0.15c0,0,0,0,0,0c0.8-1.87,1.93-3.57,2.92-5.34c0.16,0.33,0.31,0.66,0.45,0.99
	c0.04,0.08,0.07,0.16,0.1,0.25c-0.01,0-0.02,0-0.03,0.01c-0.68,1.48-1.59,2.82-2.38,4.25C75.56,16.73,75.2,16.73,74.83,16.73z
	 M77.68,16.65c-0.02,0.02-0.04,0.05-0.06,0.08c-0.06,0-0.11,0-0.17,0c-0.32,0-0.64,0-0.95,0c0.41-0.76,0.92-1.49,1.33-2.26
	c0.09-0.17,0.51-0.84,0.74-1.36c0.12,0.33,0.23,0.66,0.32,1C78.55,14.97,78.16,15.83,77.68,16.65
	C77.68,16.64,77.68,16.64,77.68,16.65z M79.23,16.73c-0.34,0-0.68,0-1.02,0c0.33-0.58,0.62-1.18,0.88-1.79
	c0.05,0.23,0.09,0.46,0.12,0.69c0.03,0.23,0.05,0.49,0.04,0.75C79.25,16.48,79.24,16.61,79.23,16.73z M80.95,16.73
	c-0.41,0-0.81,0-1.22,0c0-0.01,0.01-0.02,0.01-0.04c0.06-0.57-0.01-1.16-0.12-1.72c-0.16-0.82-0.4-1.62-0.7-2.4
	c-0.46-1.21-1.03-2.39-1.74-3.49c-0.38-0.59-0.8-1.16-1.3-1.65c-0.41-0.41-1.17-1.18-1.82-0.95c-0.24,0.08-0.38,0.33-0.57,0.48
	c-1.77,1.97-2.87,4.54-3.3,7.13c-0.13,0.83-0.36,2.6-0.35,2.63c-0.05,0-0.1,0-0.15,0c-0.22,0-0.44,0-0.66,0
	c-0.07-0.88,0.02-1.77,0.15-2.63c0.08-0.56,0.2-1.12,0.35-1.66c0.15-0.55,0.34-1.08,0.56-1.61c0.22-0.53,0.47-1.04,0.75-1.54
	c0.28-0.5,0.59-0.98,0.92-1.45c0.33-0.47,0.69-0.92,1.06-1.35c0.38-0.43,0.77-0.84,1.19-1.24c0.14-0.13,0.28-0.26,0.43-0.39
	c0.07-0.06,0.14-0.13,0.22-0.19c0.07-0.06,0.09-0.01,0.14,0.04C77.98,7.99,81.17,11.9,80.95,16.73z M87.05,7.05
	c0.01,0,0.03,0.01,0.04,0.01c0.05,0.02,0.12,0.06,0.19,0.1c0.09,0.06,0.18,0.12,0.27,0.19c0.14,0.11,0.29,0.25,0.44,0.39
	c0.04,0.04,0.08,0.08,0.12,0.13c-0.01,0.01-0.02,0.02-0.03,0.04c-0.27,0.52-0.59,1.02-0.86,1.54C87.13,8.65,87.03,7.86,87.05,7.05z
	 M87.31,10.43c0.23-0.61,0.59-1.16,0.9-1.73c0.06-0.15,0.17-0.28,0.25-0.42c0.07,0.08,0.14,0.17,0.2,0.26
	c0.13,0.17,0.26,0.35,0.39,0.54c-0.47,0.56-0.83,1.71-1.25,2.28c-0.14,0.25-0.3,0.51-0.45,0.76c-0.03-0.64-0.06-1.23-0.08-1.63
	C87.29,10.47,87.3,10.45,87.31,10.43z M89.34,9.53c0.1,0.15,0.19,0.31,0.28,0.47c0,0,0,0,0,0.01c0,0,0,0,0,0.01
	c0.12,0.21,0.24,0.43,0.36,0.65c-0.02,0.03-0.03,0.06-0.04,0.1c-0.81,1.5-1.75,2.93-2.52,4.45c0.01-0.63-0.01-1.37-0.04-2.09
	C88.03,11.92,88.72,10.74,89.34,9.53z M87.31,16.73c0.01-0.04,0.02-0.1,0.03-0.15c0,0,0,0,0,0c0.8-1.87,1.93-3.57,2.92-5.34
	c0.16,0.33,0.31,0.66,0.45,0.99c0.04,0.08,0.07,0.16,0.1,0.25c-0.01,0-0.02,0-0.03,0.01c-0.68,1.48-1.59,2.82-2.38,4.25
	C88.05,16.73,87.68,16.73,87.31,16.73z M90.16,16.65c-0.02,0.02-0.04,0.05-0.06,0.08c-0.06,0-0.11,0-0.17,0c-0.32,0-0.64,0-0.95,0
	c0.41-0.76,0.92-1.49,1.33-2.26c0.09-0.17,0.51-0.84,0.74-1.36c0.12,0.33,0.23,0.66,0.32,1C91.03,14.97,90.64,15.83,90.16,16.65
	C90.17,16.64,90.17,16.64,90.16,16.65z M91.71,16.73c-0.34,0-0.68,0-1.02,0c0.33-0.58,0.62-1.18,0.88-1.79
	c0.05,0.23,0.09,0.46,0.12,0.69c0.03,0.23,0.05,0.49,0.04,0.75C91.73,16.48,91.73,16.61,91.71,16.73z M93.44,16.73
	c-0.41,0-0.81,0-1.22,0c0-0.01,0.01-0.02,0.01-0.04c0.06-0.57-0.01-1.16-0.12-1.72c-0.16-0.82-0.4-1.62-0.7-2.4
	c-0.46-1.21-1.03-2.39-1.74-3.49c-0.38-0.59-0.8-1.16-1.3-1.65c-0.41-0.41-1.17-1.18-1.82-0.95c-0.24,0.08-0.38,0.33-0.57,0.48
	c-1.77,1.97-2.87,4.54-3.3,7.13c-0.13,0.83-0.3,1.67-0.36,2.52c0,0.04,0,0.08,0.01,0.11c-0.05,0-0.1,0-0.15,0c-0.22,0-0.44,0-0.66,0
	c0-0.02,0-0.04,0-0.06c0.01-0.21,0-0.42-0.01-0.62c0-0.02-0.01-0.04-0.01-0.06c0.01-0.63,0.08-1.27,0.17-1.89
	c0.08-0.56,0.2-1.12,0.35-1.66c0.15-0.55,0.34-1.08,0.56-1.61c0.22-0.53,0.47-1.04,0.75-1.54c0.28-0.5,0.59-0.98,0.92-1.45
	c0.33-0.47,0.69-0.92,1.06-1.35c0.38-0.43,0.77-0.84,1.19-1.24c0.14-0.13,0.28-0.26,0.43-0.39c0.07-0.06,0.14-0.13,0.22-0.19
	c0.07-0.06,0.09-0.01,0.14,0.04C90.46,7.99,93.66,11.9,93.44,16.73z"/>
</svg>
