<?xml version="1.0" encoding="utf-8"?>
<!-- Generator: Adobe Illustrator 23.0.0, SVG Export Plug-In . SVG Version: 6.00 Build 0)  -->
<svg version="1.1" id="Слой_1" xmlns="http://www.w3.org/2000/svg" xmlns:xlink="http://www.w3.org/1999/xlink" x="0px" y="0px"
	 viewBox="0 0 150 90" style="enable-background:new 0 0 150 90;" xml:space="preserve">
<g>
	<path d="M26.44,65.56c-1.24-0.3-2.43-0.3-3.64-0.25c-2.53,0.1-4.55,0.84-6.57,2.61c-0.14,0.13-0.28,0.24-0.28,0.51
		c0,0.28,0.55,0.83,0.7,1c0.89,1.01,1.88,1.79,2.93,2.46c1.51,0.95,3.16,1.6,4.75,2.17c0.49,0.18,1.04,0.42,1.42,0.21
		c0.38-0.21,0.25-0.35,0.28-0.72c0.1-1.06,0.11-2.14,0.21-3.23c0.15-1.08,0.3-2.17,0.45-3.26C26.73,66.78,26.92,65.68,26.44,65.56z
		 M21.53,66.26c0.44-0.42,1.8-0.19,2.12,0.31c0.33,0.5,0.23,0.82,0.44,1.19c0.21,0.37,0.38,0.97-0.04,1
		c-0.42,0.03-0.63-0.35-0.85-0.5c-0.5-0.35-1.15-0.76-1.52-1.1C21.3,66.82,21.09,66.67,21.53,66.26z M18.72,69.81
		c-0.7-0.31-0.87-1.1-0.47-1.72c0.4-0.63,1.11-0.67,1.7-0.61c0.59,0.06,1.06,0.36,1.52,0.6c0.45,0.26,0.99,0.57,1.36,0.79
		c0.38,0.2,0.65,0.34,0.76,0.65c0.11,0.31-0.26,0.38-0.42,0.43c-0.17,0.04-0.27,0.03-0.38,0.03c-1.03,0.01-2.02,0.05-3.02,0.01
		C19.42,69.97,19.06,69.95,18.72,69.81z M23.75,71.19c-0.1,0.38-0.32,0.75-0.49,1.01c-0.18,0.26-0.34,0.36-0.62,0.37
		c-0.93,0.02-2.88-0.65-1.56-1.59c0.54-0.38,1.47-0.36,2.09-0.46C23.78,70.41,23.85,70.81,23.75,71.19z M24.9,73.41
		c-0.24,0.01-0.54-0.11-0.72-0.24c-0.18-0.12-0.19-0.08-0.25-0.35c-0.06-0.27,0.07-0.86,0.23-1.18c0.16-0.33,0.22-1.15,0.83-1.05
		c0.61,0.1,0.55,1.11,0.55,1.58C25.53,72.64,25.63,73.38,24.9,73.41z M24.5,69.75c0.01-0.11,0-0.14,0.12-0.22
		c0.12-0.08,0.23-0.13,0.47-0.07c0.24,0.07,0.52,0.42,0.25,0.61c-0.27,0.19-0.55,0.08-0.72-0.02C24.47,69.95,24.49,69.86,24.5,69.75
		z M26.01,67.34c-0.02,0.34-0.06,0.75-0.11,1.11c-0.05,0.36-0.3,0.88-0.73,0.41c-0.21-0.23-0.26-0.65-0.39-0.97
		c-0.13-0.32-0.27-0.68-0.38-1.03c-0.11-0.35-0.03-0.67,0.37-0.75c0.4-0.08,0.98,0.02,1.21,0.33C26.2,66.76,26.02,67.01,26.01,67.34
		z"/>
	<polygon points="21.06,71.43 21.06,71.44 21.06,71.44 	"/>
	<path d="M29.91,55.12c-1.14-0.56-2.3-0.83-3.52-1.07c-1.26-0.24-2.48-0.32-3.6-0.14c-1.13,0.17-2.23,0.57-3.39,1.21
		c-0.17,0.09-0.32,0.17-0.38,0.44c-0.06,0.27,0.37,0.94,0.48,1.14c0.62,1.18,1.31,2.12,2.24,3.03C23,61,24.48,62,25.92,62.91
		c0.44,0.28,0.93,0.64,1.34,0.52c0.41-0.12,0.31-0.29,0.41-0.65c0.14-0.51,0.28-1.03,0.42-1.55c0.15-0.52,0.37-1.02,0.54-1.53
		c0.36-1.03,0.72-2.07,1.08-3.1C29.83,56.33,30.36,55.34,29.91,55.12z M24.87,54.66c0.53-0.3,1.81,0.22,2,0.77
		c0.22,0.56,0.06,0.86,0.19,1.27c0.13,0.41,0.18,1.04-0.24,0.98c-0.41-0.07-0.54-0.48-0.73-0.68c-0.41-0.45-0.96-1-1.26-1.42
		C24.54,55.16,24.36,54.97,24.87,54.66z M21.44,57.53c-0.62-0.46-0.63-1.27-0.11-1.8c0.52-0.53,1.21-0.42,1.77-0.22
		c0.56,0.19,0.96,0.58,1.36,0.93c0.39,0.36,0.85,0.78,1.17,1.08c0.33,0.29,0.56,0.48,0.61,0.81c0.05,0.33-0.32,0.32-0.49,0.33
		c-0.17,0.01-0.27-0.03-0.37-0.05c-1-0.22-1.97-0.39-2.94-0.66C22.07,57.84,21.73,57.75,21.44,57.53z M24.57,61.06
		c-0.89-0.18-2.71-1.29-1.17-1.89c0.64-0.24,1.55-0.01,2.19,0.03c0.64,0.04,0.58,0.44,0.38,0.77c-0.22,0.33-0.49,0.66-0.72,0.87
		C25.03,61.06,24.85,61.12,24.57,61.06z M27.47,61.31c-0.09,0.46-0.14,1.22-0.86,1.08c-0.24-0.05-0.5-0.23-0.65-0.39
		c-0.15-0.16-0.17-0.12-0.17-0.4c0-0.28,0.24-0.83,0.46-1.11c0.25-0.28,0.55-1.04,1.12-0.81C27.95,59.91,27.52,60.84,27.47,61.31z
		 M27.83,59.26c-0.3,0.13-0.55-0.05-0.69-0.18c-0.14-0.13-0.1-0.21-0.07-0.32c0.03-0.1,0.03-0.14,0.16-0.19
		c0.13-0.05,0.24-0.08,0.47,0.04C27.92,58.72,28.12,59.13,27.83,59.26z M29.01,56.72c-0.08,0.33-0.2,0.72-0.32,1.06
		c-0.12,0.34-0.47,0.79-0.79,0.24c-0.16-0.27-0.13-0.7-0.19-1.04c-0.06-0.34-0.13-0.73-0.17-1.1c-0.05-0.38,0.15-0.65,0.56-0.64
		c0.42,0.01,0.97,0.24,1.1,0.59C29.32,56.19,29.08,56.39,29.01,56.72z"/>
	<polygon points="23.26,59.61 23.26,59.61 23.26,59.61 	"/>
	<path d="M32.4,43.85c-1.17-0.51-2.3-0.83-3.47-0.93c-1.16-0.1-2.41-0.02-3.63,0.39c-0.18,0.06-0.35,0.1-0.46,0.35
		c-0.11,0.26,0.17,1.01,0.23,1.23c0.36,1.29,0.86,2.4,1.51,3.45c0.89,1.48,2.13,2.8,3.35,4.02c0.37,0.38,0.77,0.84,1.2,0.81
		c0.42-0.03,0.36-0.21,0.53-0.55c0.51-0.93,1.13-1.82,1.67-2.77l0.83-1.42c0.28-0.47,0.64-0.89,0.95-1.34
		c0.17-0.23,0.87-1.11,0.48-1.43C34.6,44.86,33.53,44.35,32.4,43.85z M30.81,44.12c0.6-0.17,1.72,0.62,1.78,1.2
		c0.06,0.58-0.17,0.82-0.16,1.24c0,0.41-0.06,1.06-0.45,0.9c-0.39-0.16-0.43-0.6-0.57-0.83c-0.32-0.54-0.7-1.18-0.89-1.65
		C30.34,44.51,30.21,44.29,30.81,44.12z M27.05,44.33c0.61-0.41,1.25-0.15,1.76,0.17c0.5,0.31,0.81,0.78,1.12,1.21
		c0.3,0.44,0.66,0.96,0.91,1.32c0.27,0.35,0.45,0.6,0.43,0.93c-0.02,0.33-0.38,0.25-0.54,0.22c-0.17-0.03-0.26-0.09-0.35-0.13
		c-0.92-0.43-1.83-0.82-2.71-1.3c-0.32-0.17-0.63-0.34-0.87-0.62C26.29,45.55,26.44,44.74,27.05,44.33z M29.77,50.21
		c-0.28,0.15-0.48,0.17-0.73,0.05c-0.85-0.38-2.29-1.82-0.66-2.07c0.67-0.09,1.5,0.33,2.11,0.5c0.61,0.18,0.48,0.56,0.21,0.85
		C30.43,49.83,30.05,50.07,29.77,50.21z M31.84,51.17c-0.23,0.41-0.49,1.11-1.14,0.83c-0.22-0.1-0.44-0.34-0.56-0.53
		c-0.11-0.19-0.15-0.16-0.07-0.42c0.08-0.26,0.47-0.72,0.77-0.94c0.3-0.22,0.74-0.91,1.25-0.56C32.6,49.9,32.06,50.76,31.84,51.17z
		 M32.63,49.24c-0.31,0.06-0.53-0.17-0.63-0.33c-0.11-0.16-0.05-0.23,0-0.33c0.05-0.1,0.05-0.13,0.19-0.15
		c0.14-0.02,0.25-0.03,0.45,0.14C32.83,48.73,32.94,49.17,32.63,49.24z M34.36,47.03c-0.17,0.29-0.41,0.63-0.61,0.93
		c-0.18,0.31-0.61,0.69-0.81,0.07c-0.1-0.3,0-0.73,0.05-1.06c0.04-0.33,0.08-0.71,0.14-1.07c0.06-0.36,0.29-0.6,0.69-0.5
		c0.41,0.1,0.88,0.44,0.94,0.82C34.81,46.6,34.53,46.75,34.36,47.03z"/>
	<polygon points="28.14,48.58 28.14,48.59 28.14,48.59 	"/>
	<path d="M40.47,35.21c-2.05-1.5-4.1-2.18-6.79-2.07c-0.19,0.01-0.37,0.01-0.55,0.22c-0.19,0.2-0.06,1.02-0.04,1.25
		c0.09,1.36,0.35,2.56,0.76,3.74c0.58,1.67,1.46,3.2,2.35,4.63c0.27,0.44,0.55,0.97,0.98,1.05c0.43,0.08,0.42-0.11,0.68-0.38
		c0.74-0.76,1.47-1.56,2.19-2.38c0.75-0.79,1.6-1.51,2.38-2.27c0.21-0.2,1.06-0.93,0.75-1.33C42.38,36.67,41.46,35.93,40.47,35.21z
		 M34.41,35.18c0.13-0.3,0.4-0.53,0.75-0.65c0.71-0.24,1.29,0.17,1.72,0.59c0.43,0.42,0.61,0.93,0.81,1.41
		c0.19,0.48,0.41,1.06,0.57,1.46c0.17,0.4,0.29,0.67,0.19,0.98c-0.1,0.31-0.42,0.16-0.57,0.1c-0.15-0.06-0.23-0.14-0.31-0.21
		c-0.8-0.62-1.6-1.19-2.35-1.86c-0.27-0.24-0.54-0.47-0.71-0.8C34.31,35.86,34.29,35.49,34.41,35.18z M35.82,40.77
		c-0.74-0.56-1.85-2.29-0.22-2.2c0.66,0.05,1.38,0.64,1.93,0.94c0.55,0.3,0.35,0.66,0.03,0.89c-0.32,0.23-0.73,0.38-1.03,0.47
		C36.23,40.96,36.04,40.94,35.82,40.77z M38.34,42.26c-0.3,0.37-0.69,1.01-1.28,0.56c-0.2-0.15-0.35-0.42-0.41-0.63
		c-0.06-0.21-0.1-0.18,0.03-0.43c0.13-0.25,0.6-0.62,0.93-0.77c0.33-0.15,0.9-0.75,1.31-0.3C39.33,41.16,38.64,41.9,38.34,42.26z
		 M39.49,40.5c-0.31,0-0.47-0.28-0.54-0.46c-0.07-0.18,0-0.24,0.07-0.33c0.07-0.08,0.09-0.11,0.23-0.1
		c0.15,0.01,0.26,0.04,0.41,0.24C39.8,40.06,39.79,40.49,39.49,40.5z M39.95,37.91c-0.07,0.42-0.31,0.99-0.66,0.75
		c-0.35-0.24-0.27-0.66-0.35-0.92c-0.17-0.58-0.42-1.3-0.5-1.8c-0.08-0.5-0.16-0.74,0.45-0.79c0.61-0.05,1.53,0.97,1.47,1.56
		C40.29,37.3,40.02,37.49,39.95,37.91z M41.71,38.78c-0.22,0.25-0.52,0.55-0.78,0.79c-0.26,0.24-0.79,0.49-0.84-0.14
		c-0.02-0.31,0.21-0.67,0.31-1c0.1-0.33,0.22-0.69,0.35-1.03c0.13-0.34,0.4-0.54,0.77-0.35c0.37,0.19,0.76,0.62,0.74,1.01
		C42.23,38.45,41.93,38.53,41.71,38.78z"/>
	<polygon points="35.29,38.91 35.3,38.92 35.29,38.92 	"/>
	<path d="M50.28,28.56c-1.71-1.99-3.52-3.05-6.15-3.49c-0.19-0.03-0.36-0.07-0.57,0.11c-0.21,0.18-0.29,0.97-0.33,1.18
		c-0.12,0.65-0.19,1.27-0.22,1.88c-0.01,0.64,0.03,1.26,0.1,1.89c0.21,1.78,0.75,3.48,1.3,5.09c0.17,0.5,0.33,1.08,0.73,1.24
		c0.4,0.16,0.42-0.03,0.73-0.24c1.67-1.31,3.62-2.37,5.45-3.58c0.23-0.18,1.28-0.59,1.06-1.06C51.84,30.44,51.09,29.5,50.28,28.56z
		 M44.51,32.95c-0.6-0.7-1.31-2.66,0.25-2.22c0.65,0.21,1.22,0.95,1.7,1.38c0.48,0.43,0.19,0.7-0.19,0.84
		c-0.36,0.15-0.78,0.23-1.09,0.25C44.87,33.23,44.69,33.17,44.51,32.95z M46.63,34.95c-0.36,0.3-0.87,0.86-1.35,0.3
		c-0.16-0.19-0.25-0.49-0.27-0.71c-0.02-0.22-0.06-0.2,0.11-0.42c0.17-0.22,0.7-0.49,1.05-0.58c0.33-0.11,1.07-0.48,1.37,0.04
		C47.85,34.11,46.97,34.61,46.63,34.95z M47.51,31.82c-0.17,0.28-0.46,0.05-0.59-0.05c-0.14-0.1-0.19-0.19-0.26-0.27
		c-0.65-0.79-1.3-1.53-1.9-2.35c-0.21-0.29-0.42-0.58-0.52-0.93c-0.2-0.74,0.3-1.38,1.03-1.47c0.73-0.09,1.21,0.43,1.53,0.93
		c0.32,0.5,0.39,1.05,0.49,1.57c0.08,0.52,0.18,1.14,0.25,1.57C47.62,31.25,47.68,31.54,47.51,31.82z M48.18,33.54
		c-0.31-0.08-0.41-0.38-0.43-0.57c-0.02-0.19,0.06-0.23,0.15-0.29c0.09-0.06,0.11-0.09,0.24-0.05c0.14,0.04,0.24,0.09,0.34,0.32
		C48.59,33.18,48.49,33.63,48.18,33.54z M48.38,31.69c-0.28-0.31-0.13-0.71-0.14-0.99c-0.04-0.61-0.14-1.38-0.11-1.89
		c0.03-0.51,0-0.77,0.6-0.7c0.6,0.07,1.27,1.27,1.09,1.85c-0.18,0.58-0.48,0.71-0.64,1.11C49.02,31.48,48.66,32,48.38,31.69z
		 M51.38,31.7c-0.12,0.34-0.41,0.39-0.69,0.59c-0.27,0.2-0.61,0.44-0.92,0.63c-0.31,0.19-0.86,0.33-0.78-0.3
		c0.04-0.31,0.34-0.62,0.5-0.93c0.17-0.3,0.35-0.64,0.55-0.96c0.2-0.32,0.5-0.45,0.83-0.17C51.21,30.84,51.49,31.35,51.38,31.7z"/>
	<polygon points="44.39,31.01 44.39,31 44.39,31 	"/>
	<path d="M59.15,21.41c-0.43-0.4-0.89-0.77-1.41-1.11c-0.51-0.31-1.06-0.57-1.67-0.81c-0.17-0.07-0.34-0.14-0.58-0.01
		c-0.24,0.13-0.49,0.9-0.58,1.1c-0.52,1.24-0.81,2.41-0.96,3.63c-0.22,1.7-0.04,3.56,0.15,5.24c0.06,0.53,0.09,1.14,0.44,1.38
		c0.35,0.24,0.41,0.06,0.76-0.1c0.47-0.24,0.98-0.41,1.49-0.58c0.51-0.19,1.02-0.37,1.53-0.56c1.03-0.37,2.03-0.84,3.1-1.07
		c0.28-0.07,1.37-0.32,1.27-0.81c-0.28-1.24-0.8-2.31-1.38-3.4C60.7,23.17,60,22.22,59.15,21.41z M54.68,27.23
		c-0.43-0.83-0.67-2.85,0.77-2.02c0.58,0.34,0.97,1.19,1.35,1.7c0.37,0.52,0.03,0.73-0.36,0.79c-0.39,0.06-0.83,0.01-1.15-0.06
		C54.97,27.59,54.81,27.49,54.68,27.23z M56.32,29.69c-0.21,0.09-0.49,0.23-0.74,0.27c-0.25,0.06-0.48,0.01-0.66-0.31
		c-0.11-0.22-0.14-0.54-0.11-0.76c0.03-0.22-0.02-0.21,0.2-0.39c0.22-0.16,0.82-0.27,1.19-0.25c0.37,0.02,1.15-0.25,1.33,0.34
		C57.71,29.17,56.75,29.5,56.32,29.69z M57.31,26.67c-0.11-0.13-0.15-0.23-0.19-0.32c-0.46-0.91-0.93-1.77-1.33-2.7
		c-0.14-0.33-0.28-0.66-0.3-1.03c-0.04-0.77,0.59-1.31,1.32-1.25c0.73,0.06,1.08,0.66,1.28,1.22c0.2,0.56,0.15,1.12,0.13,1.65
		c-0.03,0.53-0.07,1.16-0.1,1.6c-0.01,0.44-0.02,0.75-0.24,0.99C57.64,27.09,57.42,26.8,57.31,26.67z M58.14,28.67
		c-0.29-0.15-0.31-0.46-0.29-0.65c0.02-0.19,0.11-0.21,0.2-0.26c0.1-0.05,0.12-0.07,0.25,0c0.12,0.07,0.21,0.14,0.26,0.39
		C58.62,28.4,58.43,28.82,58.14,28.67z M58.74,26.88c-0.21-0.36,0.03-0.73,0.07-1c0.09-0.61,0.16-1.41,0.31-1.87
		c0.14-0.48,0.18-0.73,0.75-0.49c0.58,0.24,0.97,1.56,0.65,2.05c-0.31,0.49-0.64,0.53-0.89,0.86C59.4,26.79,58.95,27.24,58.74,26.88
		z M61.67,27.63c-0.19,0.33-0.5,0.26-0.81,0.38c-0.31,0.12-0.71,0.22-1.04,0.37c-0.34,0.13-0.9,0.16-0.68-0.45
		c0.11-0.3,0.46-0.55,0.69-0.82c0.24-0.24,0.5-0.5,0.77-0.74c0.27-0.24,0.6-0.29,0.85,0.05C61.7,26.74,61.87,27.3,61.67,27.63z"/>
	<path d="M71.54,17.18c-0.84-1.06-1.96-1.91-3.08-2.76c-0.05-0.04-0.1-0.07-0.24-0.04c-0.14,0.03-0.27,0.02-0.45,0.23
		c-0.18,0.21-0.45,0.65-0.65,0.95c-1.07,1.62-2.11,3.2-2.75,4.92c-0.65,1.67-0.93,3.56-0.89,5.4c-0.36-1-0.79-1.96-1.42-2.87
		c-0.93-1.35-2.09-2.58-3.41-3.66c-0.53-0.43-1.12-0.81-1.73-1.12c-0.6-0.29-1.23-0.55-1.87-0.83c-0.06-0.03-0.11-0.05-0.24,0.01
		c-0.13,0.06-0.27,0.07-0.39,0.31c-0.13,0.24-0.3,0.72-0.43,1.06c-0.34,0.89-0.68,1.78-0.97,2.66c-0.14,0.44-0.27,0.89-0.38,1.33
		c-0.1,0.46-0.18,0.93-0.23,1.4c-0.22,1.87-0.05,3.73,0.4,5.52c-0.58-0.92-1.23-1.78-2.06-2.54c-1.21-1.11-2.65-2.12-4.15-2.83
		c-1.2-0.56-2.54-0.79-3.92-1.06c-0.06-0.01-0.12-0.03-0.24,0.05c-0.12,0.08-0.25,0.12-0.32,0.38c-0.07,0.26-0.14,0.76-0.19,1.11
		c-0.32,1.82-0.48,3.83-0.31,5.66c0.16,1.65,0.76,3.69,1.45,5.17c-0.75-0.73-1.55-1.4-2.49-1.95c-1.43-0.82-2.97-1.39-4.61-1.77
		c-1.31-0.3-2.69-0.25-4.11-0.23c-0.07,0-0.13,0-0.22,0.1c-0.09,0.1-0.22,0.16-0.23,0.44c0,0.28,0.06,0.79,0.09,1.15
		c0.18,1.94,0.36,3.84,0.93,5.59c0.28,0.87,0.65,1.7,1.1,2.49c0.47,0.81,1.01,1.57,1.6,2.29c-0.92-0.57-1.87-1.07-2.93-1.39
		c-1.57-0.48-3.23-0.72-4.93-0.74c-0.68-0.01-1.36,0.07-2.05,0.19c-0.69,0.12-1.31,0.33-1.99,0.5c-0.06,0.02-0.12,0.03-0.18,0.15
		c-0.07,0.12-0.16,0.22-0.11,0.49c0.05,0.27,0.22,0.75,0.32,1.09c0.59,1.84,1.1,3.61,2.09,5.21c0.99,1.6,2.2,2.97,3.68,4.09
		c-1.01-0.35-2.03-0.62-3.14-0.7c-1.64-0.13-3.36-0.01-5.02,0.35c-1.29,0.31-2.48,0.96-3.72,1.6c-0.06,0.03-0.11,0.06-0.15,0.19
		c-0.04,0.13-0.12,0.25-0.01,0.5c0.11,0.25,0.37,0.68,0.54,0.99c0.89,1.63,1.95,3.29,3.26,4.63c1.3,1.33,2.84,2.37,4.5,3.14
		c-1.08-0.12-2.16-0.16-3.29,0c-1.68,0.23-3.23,0.74-4.74,1.47c-1.21,0.58-2.24,1.48-3.34,2.38c-0.05,0.04-0.1,0.08-0.11,0.22
		c-0.01,0.14-0.06,0.27,0.09,0.49c0.15,0.22,0.5,0.58,0.73,0.84c1.37,1.41,2.71,2.78,4.26,3.8c2.08,1.37,4.48,2.12,6.95,2.37
		c0.07,0.01,0.15,0.01,0.21-0.02c0.1-0.06,0.07-0.2-0.02-0.26s-0.21-0.06-0.32-0.08c-2.11-0.36-3.34-0.7-4.9-1.51
		c-1.27-0.67-2.33-1.3-3.45-2.25c-0.57-0.48-1.08-1.02-1.61-1.57c-0.27-0.27-0.52-0.57-0.74-0.85c-0.23-0.28-0.47-0.53-0.69-0.83
		c0.98-0.72,1.98-1.58,3-2.09c1.02-0.51,1.98-0.89,3.03-1.18c2.07-0.58,4.35-0.6,6.52-0.29l0.22,0.09c0.07,0.02,0.14,0.04,0.21,0.02
		c0.11-0.04,0.11-0.18,0.04-0.26c-0.07-0.08-0.31-0.2-0.42-0.24c-1.98-0.82-3.01-1.33-4.36-2.47c-1.11-0.94-2.01-1.79-2.91-2.97
		c-0.47-0.61-0.79-1.22-1.16-1.87c-0.17-0.33-0.35-0.66-0.52-0.99c-0.17-0.33-0.35-0.63-0.5-0.97c1.1-0.49,2.24-1.11,3.34-1.39
		c1.08-0.29,2.13-0.43,3.25-0.46c2.23-0.07,4.39,0.37,6.45,1.16l0.19,0.12c0.06,0.04,0.13,0.08,0.2,0.07
		c0.11-0.01,0.14-0.15,0.08-0.25c-0.06-0.1-0.17-0.15-0.26-0.21c-0.06-0.04-0.11-0.08-0.2-0.14c-1.64-1.16-2.59-2.01-3.63-3.37
		c-0.44-0.58-0.85-1.14-1.2-1.71c-0.34-0.56-0.64-1.15-0.93-1.81c-0.28-0.67-0.49-1.37-0.71-2.08c-0.1-0.36-0.21-0.73-0.31-1.09
		c-0.1-0.36-0.22-0.7-0.29-1.07c1.15-0.25,2.39-0.61,3.58-0.6c1.16,0,2.21,0.08,3.3,0.29c2.16,0.41,4.14,1.31,5.97,2.53l0.16,0.17
		c0.05,0.05,0.11,0.1,0.18,0.11c0.11,0.01,0.16-0.12,0.13-0.23c-0.03-0.11-0.2-0.32-0.28-0.4c-1.45-1.61-2.17-2.54-2.87-4.12
		c-0.57-1.31-1-2.45-1.28-3.89c-0.14-0.73-0.2-1.46-0.27-2.21c-0.02-0.38-0.05-0.77-0.07-1.14c-0.03-0.38-0.07-0.74-0.04-1.1
		c1.22,0.05,2.54,0.01,3.67,0.25c1.12,0.24,2.11,0.54,3.12,0.97c0.77,0.33,1.5,0.72,2.2,1.18c0.69,0.45,1.36,0.99,1.98,1.55
		l0.54,0.51l0.36,0.37c0.13,0.13,0.26,0.27,0.37,0.41c0.05,0.06,0.12,0.12,0.2,0.1c0.08-0.02,0.12-0.1,0.12-0.18
		c-0.01-0.11-0.09-0.2-0.14-0.3c-1.05-1.87-1.56-3.05-1.91-4.78c-0.28-1.42-0.46-2.64-0.43-4.13c0.01-0.76,0.11-1.49,0.24-2.2
		c0.07-0.36,0.14-0.74,0.21-1.09c0.07-0.36,0.11-0.71,0.21-1.07c1.17,0.3,2.45,0.53,3.49,0.99c1.03,0.46,1.92,0.96,2.83,1.64
		c1.79,1.33,3.2,3.01,4.33,4.91l0.07,0.23c0.02,0.07,0.05,0.14,0.11,0.17c0.1,0.06,0.2-0.03,0.22-0.14
		c0.02-0.11-0.04-0.37-0.08-0.48c-0.61-2.07-0.85-3.19-0.82-4.98c0.03-1.46,0.11-2.73,0.51-4.09c0.19-0.7,0.46-1.37,0.73-2.07
		c0.14-0.34,0.29-0.7,0.44-1.04c0.14-0.34,0.26-0.68,0.44-1.01c1.07,0.55,2.25,0.96,3.17,1.73c0.92,0.72,1.68,1.44,2.41,2.28
		c1.45,1.67,2.46,3.62,3.13,5.71l0.03,0.23c0.01,0.07,0.02,0.15,0.07,0.19c0.08,0.07,0.2,0.01,0.24-0.1c0.04-0.1,0.01-0.23,0-0.34
		c0-0.07-0.01-0.14-0.01-0.24c-0.12-2-0.07-3.32,0.35-4.94c0.36-1.37,0.74-2.53,1.42-3.82c0.34-0.65,0.75-1.26,1.17-1.88
		c0.22-0.31,0.44-0.63,0.65-0.93c0.22-0.31,0.41-0.61,0.65-0.91c0.91,0.72,1.98,1.59,2.71,2.47c0.73,0.9,1.32,1.75,1.84,2.72
		c1.04,1.93,1.58,4.02,1.77,6.2c0.03,0.33,0.41,0.16,0.4-0.15c-0.09-1.62-0.28-3.16-0.89-4.68C73.45,19.95,72.59,18.51,71.54,17.18z
		"/>
	<path d="M68.97,16.67c-0.16-0.12-0.3-0.21-0.56-0.13c-0.27,0.08-0.68,0.78-0.81,0.97c-0.78,1.11-1.32,2.21-1.74,3.38
		c-0.59,1.66-0.85,3.4-1.04,5.06c-0.06,0.51-0.17,1.13,0.12,1.43c0.29,0.32,0.4,0.17,0.77,0.12c2.11-0.23,4.27-0.74,6.47-0.78
		c0.29-0.02,1.41-0.04,1.42-0.55c0.01-1.27-0.27-2.43-0.59-3.61C72.34,20.11,71.15,18.28,68.97,16.67z M67.11,22.16
		c0.49,0.45,0.68,1.36,0.93,1.94c0.24,0.58-0.13,0.73-0.53,0.71c-0.39-0.02-0.81-0.16-1.1-0.28c-0.29-0.12-0.43-0.26-0.5-0.53
		C65.67,23.1,65.89,21.06,67.11,22.16z M66.96,26.74c-0.46,0.1-1.17,0.34-1.36-0.37c-0.06-0.24-0.01-0.55,0.07-0.75
		c0.08-0.2,0.03-0.2,0.29-0.31c0.25-0.11,0.85-0.1,1.21-0.01c0.36,0.09,1.17-0.02,1.21,0.6C68.42,26.51,67.42,26.65,66.96,26.74z
		 M68.96,26.1c-0.25-0.2-0.2-0.51-0.14-0.7c0.06-0.19,0.15-0.19,0.26-0.21c0.11-0.02,0.13-0.04,0.24,0.05
		c0.11,0.09,0.18,0.18,0.17,0.43C69.48,25.93,69.2,26.3,68.96,26.1z M69.09,24.24c-0.27,0.2-0.43-0.13-0.51-0.28
		c-0.08-0.15-0.09-0.25-0.12-0.36c-0.24-0.99-0.51-1.93-0.69-2.92c-0.06-0.35-0.13-0.7-0.06-1.07c0.14-0.76,0.86-1.19,1.56-0.95
		c0.7,0.27,0.91,0.95,0.98,1.54c0.07,0.59-0.11,1.11-0.24,1.61c-0.14,0.5-0.35,1.07-0.46,1.49C69.44,23.75,69.37,24.04,69.09,24.24z
		 M70.23,23.55c0.23-0.55,0.48-1.27,0.73-1.71c0.25-0.44,0.34-0.68,0.84-0.33c0.51,0.35,0.6,1.72,0.18,2.14
		c-0.41,0.42-0.75,0.39-1.06,0.67c-0.32,0.28-0.86,0.57-0.99,0.16C69.81,24.08,70.13,23.8,70.23,23.55z M72.64,25.9
		c-0.26,0.28-0.55,0.16-0.88,0.21c-0.33,0.05-0.74,0.09-1.11,0.11c-0.36,0.02-0.93-0.13-0.57-0.64c0.18-0.25,0.58-0.39,0.86-0.57
		c0.28-0.19,0.6-0.4,0.92-0.58c0.32-0.18,0.65-0.16,0.82,0.21C72.86,25.03,72.9,25.62,72.64,25.9z"/>
	<path d="M82.66,16.92c-0.13-0.14-0.24-0.28-0.51-0.28c-0.28,0-0.83,0.55-1,0.7c-1.01,0.89-1.79,1.88-2.46,2.93
		c-0.95,1.51-1.6,3.16-2.17,4.75c-0.18,0.49-0.42,1.04-0.21,1.42c0.21,0.38,0.35,0.25,0.72,0.28c1.06,0.1,2.14,0.11,3.23,0.21
		c1.08,0.15,2.17,0.3,3.26,0.45c0.29,0.04,1.39,0.23,1.51-0.25c0.3-1.24,0.3-2.43,0.25-3.64C85.17,20.95,84.42,18.94,82.66,16.92z
		 M78.41,26.22c-0.47,0-1.22,0.11-1.24-0.63c-0.01-0.24,0.11-0.54,0.24-0.72c0.12-0.18,0.08-0.19,0.35-0.25
		c0.27-0.06,0.86,0.07,1.18,0.23c0.33,0.16,1.15,0.22,1.05,0.83C79.9,26.28,78.89,26.22,78.41,26.22z M79.39,24.44
		c-0.38-0.1-0.75-0.32-1.01-0.49c-0.26-0.18-0.36-0.34-0.37-0.62c-0.02-0.93,0.65-2.88,1.59-1.56c0.38,0.54,0.36,1.47,0.46,2.09
		C80.17,24.47,79.77,24.54,79.39,24.44z M81.11,25.78c-0.07,0.24-0.42,0.52-0.61,0.25c-0.19-0.27-0.08-0.55,0.02-0.72
		c0.1-0.16,0.19-0.14,0.3-0.13c0.11,0.01,0.14,0,0.22,0.12C81.13,25.43,81.18,25.54,81.11,25.78z M81.06,24.29
		c-0.31,0.11-0.38-0.26-0.43-0.42c-0.04-0.17-0.03-0.27-0.03-0.38c-0.01-1.03-0.05-2.02-0.01-3.02c0.02-0.36,0.04-0.72,0.18-1.05
		c0.31-0.7,1.1-0.87,1.72-0.47c0.63,0.4,0.67,1.11,0.61,1.7c-0.06,0.59-0.36,1.06-0.6,1.52c-0.26,0.45-0.57,0.99-0.79,1.36
		C81.51,23.91,81.37,24.18,81.06,24.29z M84.14,26.67c-0.32,0.23-0.57,0.05-0.91,0.03c-0.34-0.02-0.75-0.06-1.11-0.11
		c-0.36-0.05-0.88-0.3-0.41-0.73c0.23-0.21,0.65-0.26,0.97-0.39c0.32-0.13,0.68-0.27,1.03-0.38c0.35-0.11,0.67-0.03,0.75,0.37
		C84.56,25.86,84.46,26.44,84.14,26.67z M84.01,24.34c-0.5,0.33-0.82,0.23-1.19,0.44c-0.37,0.21-0.97,0.38-1-0.04
		c-0.03-0.42,0.35-0.63,0.5-0.85c0.35-0.5,0.76-1.15,1.1-1.52c0.34-0.38,0.48-0.59,0.9-0.15C84.74,22.66,84.51,24.02,84.01,24.34z"
		/>
	<polygon points="79.14,21.75 79.15,21.74 79.14,21.75 	"/>
	<path d="M96.67,23.47c-0.17-1.13-0.57-2.23-1.21-3.39c-0.09-0.17-0.17-0.32-0.44-0.38c-0.27-0.06-0.94,0.37-1.14,0.48
		c-1.18,0.62-2.12,1.31-3.03,2.24c-1.27,1.28-2.27,2.76-3.18,4.19c-0.28,0.44-0.64,0.93-0.52,1.34c0.12,0.41,0.29,0.31,0.65,0.41
		c0.51,0.14,1.03,0.28,1.55,0.42c0.52,0.15,1.02,0.37,1.53,0.54c1.03,0.36,2.07,0.72,3.1,1.08c0.27,0.11,1.26,0.64,1.48,0.19
		c0.56-1.14,0.83-2.3,1.07-3.52C96.77,25.82,96.84,24.6,96.67,23.47z M90.9,28.05c-0.24,0.59-1.16,0.16-1.63,0.11
		c-0.46-0.09-1.22-0.14-1.08-0.86c0.05-0.24,0.23-0.5,0.39-0.65s0.12-0.17,0.4-0.17c0.28,0,0.83,0.24,1.11,0.46
		C90.37,27.17,91.13,27.48,90.9,28.05z M90.6,26.66c-0.33-0.22-0.66-0.49-0.87-0.72c-0.21-0.22-0.28-0.4-0.22-0.68
		c0.18-0.89,1.29-2.71,1.89-1.17c0.24,0.64,0.01,1.55-0.03,2.19C91.34,26.92,90.94,26.87,90.6,26.66z M91.97,28.39
		c-0.12,0.22-0.53,0.42-0.65,0.13c-0.13-0.3,0.05-0.55,0.18-0.69c0.13-0.14,0.21-0.1,0.32-0.07c0.1,0.03,0.14,0.03,0.19,0.16
		C92.06,28.05,92.09,28.16,91.97,28.39z M91.92,26.43c-0.01-0.17,0.03-0.27,0.05-0.37c0.22-1,0.39-1.97,0.66-2.94
		c0.1-0.35,0.19-0.69,0.41-0.98c0.46-0.62,1.27-0.63,1.8-0.11c0.53,0.52,0.42,1.21,0.22,1.77c-0.19,0.56-0.58,0.96-0.93,1.36
		c-0.36,0.39-0.78,0.85-1.08,1.17c-0.29,0.33-0.48,0.56-0.81,0.61C91.92,26.97,91.93,26.6,91.92,26.43z M94.74,29.89
		c-0.35,0.12-0.55-0.12-0.88-0.19c-0.33-0.08-0.72-0.2-1.06-0.32c-0.34-0.12-0.79-0.47-0.24-0.79c0.27-0.16,0.7-0.13,1.04-0.19
		c0.34-0.06,0.73-0.13,1.1-0.17c0.38-0.05,0.65,0.15,0.64,0.56C95.32,29.21,95.09,29.76,94.74,29.89z M95.15,27.56
		c-0.56,0.22-0.86,0.06-1.27,0.19c-0.41,0.13-1.04,0.18-0.98-0.24c0.07-0.41,0.48-0.54,0.68-0.73c0.45-0.41,1-0.96,1.42-1.26
		c0.42-0.3,0.61-0.48,0.92,0.03C96.22,26.09,95.7,27.37,95.15,27.56z"/>
	<polygon points="90.97,23.95 90.97,23.95 90.97,23.95 	"/>
	<path d="M107.66,29.62c0.1-1.16,0.02-2.41-0.39-3.63c-0.06-0.18-0.1-0.35-0.35-0.46c-0.26-0.11-1.01,0.17-1.23,0.23
		c-1.29,0.36-2.4,0.86-3.45,1.51c-1.48,0.89-2.8,2.13-4.02,3.35c-0.38,0.37-0.84,0.77-0.81,1.2c0.03,0.42,0.21,0.36,0.55,0.53
		c0.93,0.51,1.82,1.13,2.77,1.67l1.42,0.83c0.47,0.28,0.89,0.64,1.34,0.95c0.23,0.17,1.11,0.87,1.43,0.48
		c0.8-0.98,1.32-2.06,1.81-3.19C107.24,31.92,107.55,30.78,107.66,29.62z M102.53,31.07c0.43-0.92,0.82-1.83,1.3-2.71
		c0.17-0.32,0.34-0.63,0.62-0.87c0.59-0.51,1.39-0.35,1.8,0.25c0.41,0.61,0.15,1.25-0.17,1.76c-0.31,0.5-0.78,0.81-1.21,1.12
		c-0.44,0.3-0.96,0.66-1.32,0.91c-0.35,0.27-0.6,0.45-0.93,0.43c-0.33-0.02-0.25-0.38-0.22-0.54
		C102.42,31.25,102.48,31.17,102.53,31.07z M100.32,29.72c0.38-0.85,1.82-2.29,2.07-0.66c0.09,0.67-0.33,1.5-0.5,2.11
		c-0.18,0.61-0.56,0.48-0.85,0.21c-0.29-0.27-0.52-0.65-0.67-0.93C100.22,30.17,100.2,29.98,100.32,29.72z M101.03,32.79
		c-0.35,0.51-1.21-0.04-1.62-0.26c-0.41-0.23-1.11-0.49-0.83-1.14c0.1-0.22,0.34-0.44,0.53-0.56c0.19-0.11,0.16-0.15,0.42-0.07
		c0.26,0.08,0.72,0.47,0.94,0.77C100.69,31.84,101.38,32.28,101.03,32.79z M102.02,33.32c-0.17,0.19-0.61,0.31-0.68-0.01
		c-0.06-0.31,0.17-0.53,0.33-0.63c0.16-0.11,0.23-0.05,0.33,0c0.1,0.05,0.13,0.05,0.15,0.19C102.18,33.02,102.18,33.13,102.02,33.32
		z M105.17,34.51c-0.1,0.41-0.44,0.88-0.82,0.94c-0.38,0.06-0.52-0.23-0.81-0.4c-0.29-0.17-0.63-0.41-0.93-0.61
		c-0.31-0.18-0.69-0.61-0.07-0.81c0.3-0.1,0.73,0,1.06,0.05c0.33,0.04,0.71,0.08,1.07,0.14C105.03,33.88,105.27,34.1,105.17,34.51z
		 M105.26,33.28c-0.58,0.06-0.82-0.17-1.24-0.16c-0.41,0-1.06-0.06-0.9-0.45c0.16-0.39,0.6-0.43,0.83-0.57
		c0.54-0.32,1.18-0.7,1.65-0.89c0.46-0.18,0.68-0.31,0.85,0.28C106.63,32.09,105.84,33.22,105.26,33.28z"/>
	<polygon points="101.99,28.83 101.99,28.83 101.99,28.83 	"/>
	<path d="M115.37,41.16c1.5-2.05,2.18-4.1,2.07-6.79c-0.01-0.19-0.01-0.37-0.22-0.55c-0.2-0.19-1.02-0.06-1.25-0.04
		c-1.36,0.09-2.56,0.35-3.74,0.76c-1.67,0.58-3.2,1.46-4.63,2.35c-0.44,0.27-0.97,0.55-1.05,0.98c-0.08,0.43,0.11,0.42,0.38,0.68
		c0.76,0.74,1.56,1.47,2.38,2.19c0.79,0.75,1.51,1.6,2.27,2.38c0.2,0.21,0.93,1.06,1.33,0.75
		C113.91,43.07,114.65,42.14,115.37,41.16z M113.87,41.04c-0.59-0.06-0.78-0.33-1.2-0.4c-0.42-0.07-0.99-0.31-0.75-0.66
		c0.24-0.35,0.66-0.27,0.92-0.35c0.58-0.17,1.3-0.42,1.8-0.5c0.5-0.08,0.74-0.16,0.79,0.45C115.48,40.17,114.46,41.1,113.87,41.04z
		 M113.58,35.89c0.24-0.27,0.47-0.54,0.8-0.71c0.35-0.19,0.71-0.2,1.02-0.09c0.3,0.13,0.53,0.4,0.65,0.75
		c0.24,0.71-0.17,1.29-0.59,1.72c-0.42,0.43-0.93,0.61-1.41,0.81c-0.48,0.19-1.06,0.41-1.46,0.57c-0.4,0.17-0.67,0.29-0.98,0.19
		c-0.31-0.1-0.16-0.42-0.1-0.57c0.06-0.15,0.14-0.23,0.21-0.31C112.35,37.45,112.92,36.65,113.58,35.89z M109.81,36.51
		c0.56-0.74,2.29-1.85,2.2-0.22c-0.05,0.66-0.64,1.38-0.94,1.93c-0.3,0.55-0.66,0.35-0.89,0.03c-0.23-0.32-0.38-0.73-0.47-1.03
		C109.62,36.92,109.64,36.73,109.81,36.51z M109.88,39.6c-0.46,0.42-1.19-0.28-1.56-0.57c-0.37-0.3-1.01-0.69-0.56-1.28
		c0.15-0.2,0.42-0.35,0.63-0.41c0.21-0.06,0.18-0.1,0.43,0.03c0.25,0.13,0.62,0.6,0.77,0.93C109.74,38.62,110.33,39.18,109.88,39.6z
		 M110.08,40.18c0-0.31,0.28-0.47,0.46-0.54c0.18-0.07,0.24,0,0.33,0.07c0.08,0.07,0.11,0.09,0.1,0.23
		c-0.01,0.15-0.04,0.26-0.24,0.41C110.52,40.49,110.09,40.48,110.08,40.18z M113.53,42.21c-0.19,0.37-0.62,0.76-1.01,0.74
		c-0.39-0.02-0.47-0.32-0.72-0.55c-0.25-0.22-0.55-0.52-0.79-0.78c-0.24-0.26-0.49-0.79,0.14-0.84c0.31-0.02,0.67,0.21,1,0.31
		c0.33,0.1,0.69,0.22,1.03,0.35C113.52,41.57,113.71,41.84,113.53,42.21z"/>
	<polygon points="111.66,35.98 111.66,35.98 111.66,35.98 	"/>
	<path d="M122.02,50.97c1.99-1.71,3.05-3.52,3.49-6.15c0.03-0.19,0.07-0.36-0.11-0.57c-0.18-0.21-0.97-0.29-1.18-0.33
		c-0.65-0.12-1.27-0.19-1.88-0.22c-0.64-0.01-1.26,0.03-1.89,0.1c-1.78,0.21-3.48,0.75-5.09,1.3c-0.5,0.17-1.08,0.33-1.24,0.73
		c-0.16,0.4,0.03,0.42,0.24,0.73c1.31,1.67,2.37,3.62,3.58,5.45c0.18,0.23,0.59,1.28,1.06,1.06
		C120.14,52.53,121.08,51.78,122.02,50.97z M122.46,49.41c-0.07,0.6-1.27,1.27-1.85,1.09c-0.58-0.18-0.71-0.48-1.11-0.64
		c-0.4-0.16-0.93-0.51-0.62-0.79c0.31-0.28,0.71-0.13,0.99-0.14c0.61-0.04,1.38-0.14,1.89-0.11
		C122.28,48.84,122.54,48.81,122.46,49.41z M121.43,45.44c0.29-0.21,0.58-0.42,0.93-0.52c0.74-0.2,1.38,0.3,1.47,1.03
		c0.09,0.73-0.43,1.21-0.93,1.53c-0.5,0.32-1.05,0.39-1.57,0.49c-0.52,0.08-1.14,0.18-1.57,0.25c-0.43,0.08-0.72,0.14-1.01-0.03
		c-0.28-0.17-0.05-0.46,0.05-0.59c0.1-0.14,0.19-0.19,0.27-0.26C119.87,46.69,120.61,46.04,121.43,45.44z M117.63,45.2
		c0.7-0.6,2.66-1.31,2.22,0.25c-0.21,0.65-0.95,1.22-1.38,1.7c-0.43,0.48-0.7,0.19-0.84-0.19c-0.15-0.36-0.23-0.78-0.25-1.09
		C117.35,45.56,117.41,45.38,117.63,45.2z M115.63,47.32c-0.3-0.36-0.86-0.87-0.3-1.35c0.19-0.16,0.49-0.25,0.71-0.27
		c0.22-0.02,0.2-0.06,0.42,0.11c0.22,0.17,0.49,0.7,0.58,1.05c0.11,0.33,0.48,1.07-0.04,1.37
		C116.47,48.54,115.97,47.66,115.63,47.32z M117.04,48.87c0.08-0.31,0.38-0.41,0.57-0.43c0.19-0.02,0.23,0.06,0.29,0.15
		c0.06,0.09,0.09,0.11,0.05,0.24c-0.04,0.14-0.09,0.24-0.32,0.34C117.4,49.27,116.95,49.18,117.04,48.87z M118.29,51.38
		c-0.2-0.27-0.44-0.61-0.63-0.92c-0.19-0.31-0.33-0.86,0.3-0.78c0.31,0.04,0.62,0.34,0.93,0.5c0.3,0.17,0.64,0.35,0.96,0.55
		c0.32,0.2,0.45,0.5,0.17,0.83c-0.27,0.32-0.79,0.61-1.14,0.49C118.53,51.94,118.48,51.65,118.29,51.38z"/>
	<polygon points="119.58,45.08 119.57,45.08 119.58,45.08 	"/>
	<path d="M122.87,63.37c1.24-0.28,2.31-0.8,3.4-1.38c1.13-0.6,2.08-1.3,2.89-2.15c0.4-0.43,0.77-0.89,1.11-1.41
		c0.31-0.51,0.57-1.06,0.81-1.67c0.07-0.17,0.14-0.34,0.01-0.58c-0.13-0.24-0.9-0.49-1.1-0.58c-1.24-0.52-2.41-0.81-3.63-0.96
		c-1.7-0.22-3.56-0.04-5.24,0.15c-0.53,0.06-1.14,0.09-1.38,0.44c-0.24,0.35-0.06,0.41,0.1,0.76c0.24,0.47,0.41,0.98,0.58,1.49
		c0.19,0.51,0.37,1.02,0.56,1.53c0.37,1.03,0.84,2.03,1.07,3.1C122.14,62.38,122.38,63.47,122.87,63.37z M127.06,60.57
		c-0.24,0.58-1.56,0.97-2.05,0.65c-0.49-0.31-0.53-0.64-0.86-0.89c-0.37-0.24-0.81-0.69-0.45-0.9c0.36-0.21,0.73,0.03,1,0.07
		c0.61,0.09,1.41,0.16,1.87,0.31C127.05,59.96,127.3,59.99,127.06,60.57z M126.93,56.47c0.33-0.14,0.66-0.28,1.03-0.3
		c0.77-0.04,1.31,0.59,1.25,1.32c-0.06,0.73-0.66,1.08-1.22,1.28c-0.56,0.2-1.12,0.15-1.65,0.13c-0.53-0.03-1.16-0.07-1.6-0.1
		c-0.44-0.01-0.75-0.02-0.99-0.24c-0.25-0.22,0.04-0.45,0.17-0.56c0.13-0.11,0.23-0.15,0.32-0.19
		C125.14,57.35,126,56.87,126.93,56.47z M122.93,55.98c0.06-0.31,0.17-0.48,0.42-0.61c0.83-0.43,2.85-0.67,2.02,0.77
		c-0.34,0.58-1.19,0.97-1.7,1.35c-0.52,0.37-0.73,0.03-0.79-0.36C122.81,56.73,122.87,56.29,122.93,55.98z M120.89,57.01
		c-0.09-0.21-0.23-0.49-0.27-0.74c-0.06-0.25-0.01-0.48,0.31-0.66c0.22-0.11,0.54-0.14,0.76-0.11c0.22,0.03,0.21-0.02,0.39,0.2
		c0.16,0.22,0.27,0.82,0.25,1.19c-0.02,0.37,0.25,1.15-0.34,1.33C121.4,58.4,121.08,57.44,120.89,57.01z M121.91,58.83
		c0.15-0.29,0.46-0.31,0.65-0.29c0.19,0.02,0.21,0.11,0.26,0.2c0.05,0.1,0.07,0.12,0,0.25c-0.07,0.12-0.14,0.21-0.39,0.26
		C122.18,59.31,121.76,59.12,121.91,58.83z M122.66,59.82c0.3,0.11,0.55,0.46,0.82,0.69c0.24,0.24,0.5,0.5,0.74,0.77
		c0.24,0.27,0.29,0.6-0.05,0.85c-0.33,0.25-0.9,0.42-1.23,0.23c-0.33-0.19-0.26-0.5-0.38-0.81c-0.12-0.31-0.22-0.71-0.37-1.04
		C122.08,60.17,122.05,59.6,122.66,59.82z"/>
	<path d="M136.2,68.91c-0.03-0.14-0.02-0.27-0.23-0.45c-0.21-0.18-0.65-0.45-0.95-0.65c-1.62-1.07-3.2-2.11-4.92-2.75
		c-1.67-0.65-3.56-0.93-5.4-0.89c1-0.36,1.96-0.79,2.87-1.42c1.35-0.93,2.58-2.09,3.66-3.41c0.43-0.53,0.81-1.12,1.12-1.73
		c0.29-0.6,0.55-1.23,0.83-1.87c0.03-0.06,0.05-0.11-0.01-0.24c-0.06-0.13-0.07-0.27-0.31-0.39c-0.24-0.13-0.72-0.3-1.06-0.43
		c-0.89-0.34-1.78-0.68-2.66-0.97c-0.44-0.14-0.89-0.27-1.33-0.38c-0.46-0.1-0.93-0.18-1.4-0.23c-1.87-0.22-3.73-0.05-5.52,0.4
		c0.92-0.58,1.78-1.23,2.54-2.06c1.11-1.21,2.12-2.65,2.83-4.15c0.56-1.2,0.79-2.54,1.06-3.92c0.01-0.06,0.03-0.12-0.05-0.24
		c-0.08-0.12-0.12-0.25-0.38-0.32c-0.26-0.07-0.76-0.14-1.11-0.19c-1.82-0.32-3.83-0.48-5.66-0.31c-1.65,0.16-3.69,0.76-5.17,1.45
		c0.73-0.75,1.4-1.55,1.95-2.49c0.82-1.43,1.39-2.97,1.77-4.61c0.3-1.31,0.25-2.69,0.23-4.11c0-0.07,0-0.13-0.1-0.22
		c-0.1-0.09-0.16-0.22-0.44-0.23c-0.28,0-0.79,0.06-1.15,0.09c-1.94,0.18-3.84,0.36-5.59,0.93c-0.87,0.28-1.7,0.65-2.49,1.1
		c-0.81,0.47-1.57,1.01-2.29,1.6c0.57-0.92,1.07-1.87,1.39-2.93c0.48-1.57,0.72-3.23,0.74-4.93c0.01-0.68-0.07-1.36-0.19-2.05
		c-0.12-0.69-0.33-1.31-0.5-1.99c-0.02-0.06-0.03-0.12-0.15-0.18c-0.12-0.07-0.22-0.16-0.49-0.11c-0.27,0.05-0.75,0.22-1.09,0.32
		c-1.84,0.59-3.61,1.1-5.21,2.09c-1.6,0.99-2.97,2.2-4.09,3.68c0.35-1.01,0.62-2.03,0.7-3.14c0.13-1.64,0.01-3.36-0.35-5.02
		c-0.31-1.29-0.96-2.48-1.6-3.72c-0.03-0.06-0.06-0.11-0.19-0.15c-0.13-0.04-0.25-0.12-0.5-0.01c-0.25,0.11-0.68,0.37-0.99,0.54
		c-1.63,0.89-3.29,1.95-4.63,3.26c-1.33,1.3-2.37,2.84-3.14,4.5c0.12-1.08,0.16-2.16,0-3.29c-0.23-1.68-0.74-3.23-1.47-4.74
		c-0.58-1.21-1.48-2.24-2.38-3.34c-0.04-0.05-0.08-0.1-0.22-0.11c-0.14-0.01-0.27-0.06-0.49,0.09c-0.22,0.15-0.58,0.5-0.84,0.73
		c-1.41,1.37-2.78,2.71-3.8,4.26c-1.37,2.08-2.12,4.48-2.37,6.95c-0.01,0.07-0.01,0.15,0.02,0.21c0.06,0.1,0.2,0.07,0.26-0.02
		s0.06-0.21,0.08-0.32c0.36-2.11,0.7-3.34,1.51-4.9c0.67-1.27,1.3-2.33,2.25-3.45c0.48-0.57,1.02-1.08,1.57-1.61
		c0.27-0.27,0.57-0.52,0.85-0.74c0.28-0.23,0.53-0.47,0.83-0.69c0.72,0.98,1.58,1.98,2.09,3c0.51,1.02,0.89,1.98,1.18,3.03
		c0.58,2.07,0.6,4.35,0.29,6.52l-0.09,0.22c-0.02,0.07-0.04,0.14-0.02,0.21c0.04,0.11,0.18,0.11,0.26,0.04
		c0.08-0.07,0.2-0.31,0.24-0.42c0.82-1.98,1.33-3.01,2.47-4.36c0.94-1.11,1.79-2.01,2.97-2.91c0.61-0.47,1.22-0.79,1.87-1.16
		c0.33-0.17,0.66-0.35,0.99-0.52c0.33-0.17,0.63-0.35,0.97-0.5c0.49,1.1,1.11,2.24,1.39,3.34c0.29,1.08,0.43,2.13,0.46,3.25
		c0.07,2.23-0.37,4.39-1.16,6.45l-0.12,0.19c-0.04,0.06-0.08,0.13-0.07,0.2c0.01,0.11,0.15,0.14,0.25,0.08
		c0.1-0.06,0.15-0.17,0.21-0.26c0.04-0.06,0.08-0.11,0.14-0.2c1.16-1.64,2.01-2.59,3.37-3.63c0.58-0.44,1.14-0.85,1.71-1.2
		c0.56-0.34,1.15-0.64,1.81-0.93c0.67-0.28,1.37-0.49,2.08-0.71c0.36-0.1,0.73-0.21,1.09-0.31c0.36-0.1,0.7-0.22,1.07-0.29
		c0.25,1.15,0.61,2.39,0.6,3.58c0,1.16-0.08,2.21-0.29,3.3c-0.41,2.16-1.31,4.14-2.53,5.97l-0.17,0.16
		c-0.05,0.05-0.1,0.11-0.11,0.18c-0.01,0.11,0.12,0.16,0.23,0.13c0.11-0.03,0.32-0.2,0.4-0.28c1.61-1.45,2.54-2.17,4.12-2.87
		c1.31-0.57,2.45-1,3.89-1.28c0.73-0.14,1.46-0.2,2.21-0.27c0.38-0.02,0.77-0.05,1.14-0.07c0.38-0.03,0.74-0.07,1.1-0.04
		c-0.05,1.22-0.01,2.54-0.25,3.67c-0.24,1.12-0.54,2.11-0.97,3.12c-0.33,0.77-0.72,1.5-1.18,2.2c-0.45,0.69-0.99,1.36-1.55,1.98
		l-0.51,0.54l-0.37,0.36c-0.13,0.13-0.27,0.26-0.41,0.37c-0.06,0.05-0.12,0.12-0.1,0.2c0.02,0.08,0.1,0.12,0.18,0.12
		c0.11-0.01,0.2-0.09,0.3-0.14c1.87-1.05,3.05-1.56,4.78-1.91c1.42-0.28,2.64-0.46,4.13-0.43c0.76,0.01,1.49,0.11,2.2,0.24
		c0.36,0.07,0.74,0.14,1.09,0.21c0.36,0.07,0.71,0.11,1.07,0.21c-0.3,1.17-0.53,2.45-0.99,3.49c-0.46,1.03-0.96,1.92-1.64,2.83
		c-1.33,1.79-3.01,3.2-4.91,4.33l-0.23,0.07c-0.07,0.02-0.14,0.05-0.17,0.11c-0.06,0.1,0.03,0.2,0.14,0.22
		c0.11,0.02,0.37-0.04,0.48-0.08c2.07-0.61,3.19-0.85,4.98-0.82c1.46,0.03,2.73,0.11,4.09,0.51c0.7,0.19,1.37,0.46,2.07,0.73
		c0.34,0.14,0.7,0.29,1.04,0.44c0.34,0.14,0.68,0.26,1.01,0.44c-0.55,1.07-0.96,2.25-1.73,3.17c-0.72,0.92-1.44,1.68-2.28,2.41
		c-1.67,1.45-3.62,2.46-5.71,3.13l-0.23,0.03c-0.07,0.01-0.15,0.02-0.19,0.07c-0.07,0.08-0.01,0.2,0.1,0.24
		c0.1,0.04,0.23,0.01,0.34,0c0.07,0,0.14-0.01,0.24-0.01c2-0.12,3.32-0.07,4.94,0.35c1.37,0.36,2.53,0.74,3.82,1.42
		c0.65,0.34,1.26,0.75,1.88,1.17c0.31,0.22,0.63,0.44,0.93,0.65c0.31,0.22,0.61,0.41,0.91,0.65c-0.72,0.91-1.59,1.98-2.47,2.71
		c-0.9,0.73-1.75,1.32-2.72,1.84c-1.93,1.04-4.02,1.58-6.2,1.77c-0.33,0.03-0.16,0.41,0.15,0.4c1.62-0.09,3.16-0.28,4.68-0.89
		c1.51-0.61,2.95-1.46,4.27-2.52c1.06-0.84,1.91-1.96,2.76-3.08C136.2,69.1,136.23,69.05,136.2,68.91z"/>
	<path d="M124.4,74.29c1.27,0.01,2.43-0.27,3.61-0.59c2.46-0.67,4.29-1.86,5.9-4.04c0.12-0.16,0.21-0.3,0.13-0.56
		c-0.08-0.27-0.78-0.68-0.97-0.81c-1.11-0.78-2.21-1.32-3.38-1.74c-1.66-0.59-3.4-0.85-5.06-1.04c-0.51-0.06-1.13-0.17-1.43,0.12
		c-0.32,0.29-0.17,0.4-0.12,0.77c0.23,2.11,0.74,4.27,0.78,6.47C123.87,73.17,123.9,74.29,124.4,74.29z M129.07,72.49
		c-0.35,0.51-1.72,0.6-2.14,0.18c-0.42-0.41-0.39-0.75-0.67-1.06c-0.28-0.32-0.57-0.86-0.16-0.99c0.41-0.12,0.68,0.2,0.93,0.3
		c0.55,0.23,1.27,0.48,1.71,0.73C129.17,71.89,129.42,71.98,129.07,72.49z M129.89,68.47c0.35-0.06,0.7-0.13,1.07-0.06
		c0.76,0.14,1.19,0.86,0.95,1.56c-0.27,0.7-0.95,0.91-1.54,0.98c-0.59,0.07-1.11-0.11-1.61-0.24c-0.5-0.14-1.07-0.35-1.49-0.46
		c-0.43-0.11-0.73-0.18-0.93-0.46c-0.2-0.27,0.13-0.43,0.28-0.51c0.15-0.08,0.25-0.09,0.36-0.12
		C127.95,68.92,128.9,68.65,129.89,68.47z M126.05,67.1c0.12-0.29,0.26-0.43,0.53-0.5c0.9-0.24,2.94-0.02,1.84,1.2
		c-0.45,0.49-1.36,0.68-1.94,0.93c-0.58,0.24-0.73-0.13-0.71-0.53C125.78,67.81,125.92,67.39,126.05,67.1z M126.14,72.56
		c0.18,0.32,0.16,0.65-0.21,0.82c-0.38,0.17-0.96,0.21-1.25-0.05c-0.28-0.26-0.16-0.55-0.21-0.88c-0.05-0.33-0.09-0.74-0.11-1.11
		c-0.02-0.36,0.13-0.93,0.64-0.57c0.25,0.18,0.39,0.58,0.57,0.86C125.75,71.92,125.96,72.24,126.14,72.56z M125.34,70
		c-0.09,0.11-0.18,0.18-0.43,0.17c-0.26-0.01-0.63-0.28-0.43-0.53c0.2-0.25,0.51-0.2,0.7-0.14c0.19,0.06,0.19,0.15,0.21,0.26
		C125.41,69.87,125.43,69.9,125.34,70z M123.84,67.65c-0.1-0.46-0.34-1.17,0.37-1.36c0.24-0.06,0.55-0.01,0.75,0.07
		c0.2,0.08,0.2,0.03,0.31,0.29c0.11,0.25,0.1,0.85,0.01,1.21c-0.09,0.36,0.02,1.17-0.6,1.21C124.07,69.11,123.93,68.11,123.84,67.65
		z"/>
</g>
</svg>
