<svg xmlns="http://www.w3.org/2000/svg" xmlns:xlink="http://www.w3.org/1999/xlink" viewBox="0 0 253.333 253.333"
     xml:space="preserve">
  <rect width="100%" height="100%" fill="white"/>
  <g clip-path="url(#b)" transform="matrix(1.33333 0 0 1.33333 0 0)"><path style="fill:#000;fill-opacity:1;fill-rule:nonzero;stroke:none" d="M0 0a.083.083 0 0 1-.023.004L0 0z" transform="translate(95.316 102.25)"/>
    <path style="fill:#000;fill-opacity:1;fill-rule:nonzero;stroke:none" d="m0 0 .023.004A.083.083 0 0 1 0 0z"
          transform="translate(94.684 102.25)"/>
    <path style="fill:#000;fill-opacity:1;fill-rule:nonzero;stroke:none" d="M0 0z"
          transform="translate(97.163 101.916)"/>
    <path style="fill:#000;fill-opacity:1;fill-rule:nonzero;stroke:none" d="m0 0 .015.005L0 0z"
          transform="translate(92.837 101.916)"/>
    <path style="fill:#000;fill-opacity:1;fill-rule:nonzero;stroke:none" d="m0 0-.028.014-.005.002A.308.308 0 0 1 0 0z"
          transform="translate(99.155 100.86)"/>
    <path style="fill:#000;fill-opacity:1;fill-rule:nonzero;stroke:none" d="M0 0a2.45 2.45 0 0 1 .005.002L0 0z"
          transform="translate(90.874 100.874)"/>
    <path style="fill:#000;fill-opacity:1;fill-rule:nonzero;stroke:none" d="m0 0-.023.027A.31.31 0 0 1 0 0z"
          transform="translate(101.117 98.903)"/>
    <path style="fill:#000;fill-opacity:1;fill-rule:nonzero;stroke:none" d="M0 0a.31.31 0 0 1 .023.027L0 0z"
          transform="translate(88.883 98.903)"/>
    <path style="fill:#000;fill-opacity:1;fill-rule:nonzero;stroke:none" d="m0 0 .023.027A.31.31 0 0 1 0 0z"
          transform="translate(101.094 91.07)"/>
    <path style="fill:#000;fill-opacity:1;fill-rule:nonzero;stroke:none"
          d="M0 0a.31.31 0 0 1-.023.027C-.016.017-.008.009 0 0z" transform="translate(88.906 91.07)"/>
    <path style="fill:#000;fill-opacity:1;fill-rule:nonzero;stroke:none" d="m0 0 .005.002A2.45 2.45 0 0 1 0 0z"
          transform="translate(99.121 89.123)"/>
    <path style="fill:#000;fill-opacity:1;fill-rule:nonzero;stroke:none" d="m0 0 .005-.002A.328.328 0 0 1 0 0z"
          transform="translate(90.874 89.126)"/>
    <path style="fill:#000;fill-opacity:1;fill-rule:nonzero;stroke:none" d="M0 0z"
          transform="translate(97.148 88.078)"/>
    <path style="fill:#000;fill-opacity:1;fill-rule:nonzero;stroke:none" d="M0 0a.206.206 0 0 1-.015.005L0 0z"
          transform="translate(92.852 88.078)"/>
    <path style="fill:#000;fill-opacity:1;fill-rule:nonzero;stroke:none" d="M0 0c.008 0 .015.002.023.004L0 0z"
          transform="translate(95.293 87.746)"/>
    <path style="fill:#000;fill-opacity:1;fill-rule:nonzero;stroke:none" d="m0 0-.023.004A.083.083 0 0 1 0 0z"
          transform="translate(94.707 87.746)"/>
    <path style="fill:#000;fill-opacity:1;fill-rule:nonzero;stroke:none" d="m0 0-.022.001A.13.13 0 0 1 0 0z"
          transform="translate(97.055 118.973)"/>
    <path style="fill:#000;fill-opacity:1;fill-rule:nonzero;stroke:none" d="M0 0a.13.13 0 0 1 .022.001L0 0z"
          transform="translate(92.945 118.973)"/>
    <path style="fill:#000;fill-opacity:1;fill-rule:nonzero;stroke:none" d="m0 0 .006.003A.013.013 0 0 1 0 0z"
          transform="translate(95.25 118.856)"/>
    <path style="fill:#000;fill-opacity:1;fill-rule:nonzero;stroke:none" d="M0 0a.013.013 0 0 1-.006.003L0 0z"
          transform="translate(94.75 118.856)"/>
    <path style="fill:#000;fill-opacity:1;fill-rule:nonzero;stroke:none" d="m0 0-.018.012L0 0z"
          transform="translate(109.93 113.246)"/>
    <path style="fill:#000;fill-opacity:1;fill-rule:nonzero;stroke:none" d="m0 0 .018.012L0 0z"
          transform="translate(80.07 113.246)"/>
    <path style="fill:#000;fill-opacity:1;fill-rule:nonzero;stroke:none" d="m0 0-.023.02A.19.19 0 0 1 0 0z"
          transform="translate(112.09 111.66)"/>
    <path style="fill:#000;fill-opacity:1;fill-rule:nonzero;stroke:none" d="M0 0a.19.19 0 0 1 .023.02L0 0z"
          transform="translate(77.91 111.66)"/>
    <path style="fill:#000;fill-opacity:1;fill-rule:nonzero;stroke:none" d="m0 0-.02.021A.195.195 0 0 1 0 0z"
          transform="translate(113.781 109.984)"/>
    <path style="fill:#000;fill-opacity:1;fill-rule:nonzero;stroke:none" d="M0 0z"
          transform="translate(76.219 109.984)"/>
    <path style="fill:#000;fill-opacity:1;fill-rule:nonzero;stroke:none" d="m0 0-.012.019A.124.124 0 0 1 0 0z"
          transform="translate(114.746 108.747)"/>
    <path style="fill:#000;fill-opacity:1;fill-rule:nonzero;stroke:none" d="M0 0c.005.006.01.013.012.019L0 0z"
          transform="translate(75.254 108.747)"/>
    <path style="fill:#000;fill-opacity:1;fill-rule:nonzero;stroke:none" d="m0 0-.001.001h-.002L0 0z"
          transform="translate(115.788 106.71)"/>
    <path style="fill:#000;fill-opacity:1;fill-rule:nonzero;stroke:none" d="M0 0h-.001v-.001A.119.119 0 0 0 0 0z"
          transform="translate(74.213 106.71)"/>
    <path style="fill:#000;fill-opacity:1;fill-rule:nonzero;stroke:none"
          d="M0 0a.33.33 0 0 0-.004.009l-.003.006A.159.159 0 0 1 0 0z" transform="translate(116.783 105.219)"/>
    <path style="fill:#000;fill-opacity:1;fill-rule:nonzero;stroke:none" d="M0 0a.33.33 0 0 1 .003.006L0 0z"
          transform="translate(73.222 105.227)"/>
    <path style="fill:#000;fill-opacity:1;fill-rule:nonzero;stroke:none" d="m0 0 .003.006A.33.33 0 0 0 0 0z"
          transform="translate(116.775 84.766)"/>
    <path style="fill:#000;fill-opacity:1;fill-rule:nonzero;stroke:none" d="m0 0 .003-.006A.159.159 0 0 1 0 0z"
          transform="translate(73.222 84.773)"/>
    <path style="fill:#000;fill-opacity:1;fill-rule:nonzero;stroke:none" d="M0 0h.002l.001.002L0 0z"
          transform="translate(115.785 83.29)"/>
    <path style="fill:#000;fill-opacity:1;fill-rule:nonzero;stroke:none" d="M0 0h.001l.002-.002L0 0z"
          transform="translate(74.212 83.29)"/>
    <path style="fill:#000;fill-opacity:1;fill-rule:nonzero;stroke:none" d="m0 0 .012.019A.12.12 0 0 1 0 0z"
          transform="translate(114.734 81.234)"/>
    <path style="fill:#000;fill-opacity:1;fill-rule:nonzero;stroke:none" d="M0 0a.12.12 0 0 1-.012.019L0 0z"
          transform="translate(75.266 81.234)"/>
    <path style="fill:#000;fill-opacity:1;fill-rule:nonzero;stroke:none" d="m0 0 .02.021A.186.186 0 0 1 0 0z"
          transform="translate(113.762 79.994)"/>
    <path style="fill:#000;fill-opacity:1;fill-rule:nonzero;stroke:none" d="M0 0a.186.186 0 0 1-.02.021L0 0z"
          transform="translate(76.238 79.994)"/>
    <path style="fill:#000;fill-opacity:1;fill-rule:nonzero;stroke:none" d="m0 0 .023.02A.19.19 0 0 1 0 0z"
          transform="translate(112.066 78.32)"/>
    <path style="fill:#000;fill-opacity:1;fill-rule:nonzero;stroke:none" d="M0 0a.19.19 0 0 1-.023.02L0 0z"
          transform="translate(77.934 78.32)"/>
    <path style="fill:#000;fill-opacity:1;fill-rule:nonzero;stroke:none" d="m0 0 .018.012L0 0z"
          transform="translate(109.912 76.742)"/>
    <path style="fill:#000;fill-opacity:1;fill-rule:nonzero;stroke:none" d="m0 0-.018.012L0 0z"
          transform="translate(80.088 76.742)"/>
    <path style="fill:#000;fill-opacity:1;fill-rule:nonzero;stroke:none" d="m0 0-.006.003A.012.012 0 0 1 0 0z"
          transform="translate(95.256 71.141)"/>
    <path style="fill:#000;fill-opacity:1;fill-rule:nonzero;stroke:none" d="m0 0-.006-.003L0 0z"
          transform="translate(94.75 71.144)"/>
    <path style="fill:#000;fill-opacity:1;fill-rule:nonzero;stroke:none" d="m0 0 .022.001A.13.13 0 0 1 0 0z"
          transform="translate(97.032 71.026)"/>
    <path style="fill:#000;fill-opacity:1;fill-rule:nonzero;stroke:none" d="M0 0a.13.13 0 0 1-.022.001L0 0z"
          transform="translate(92.968 71.026)"/>
    <path style="fill:#000;fill-opacity:1;fill-rule:nonzero;stroke:none" d="M0 0s.004 0 .004.004C0 .004 0 0 0 0z"
          transform="translate(91.063 75.767)"/>
    <path style="fill:#000;fill-opacity:1;fill-rule:nonzero;stroke:none" d="M0 0s0 .004-.004.004C-.004 0 0 0 0 0z"
          transform="translate(98.938 75.767)"/>
    <path style="fill:#000;fill-opacity:1;fill-rule:nonzero;stroke:none" d="m0 0 .038.024C.024.017.01.007 0 0z"
          transform="translate(90.285 76.756)"/>
    <path style="fill:#000;fill-opacity:1;fill-rule:nonzero;stroke:none" d="M0 0c-.01.007-.024.017-.038.024L0 0z"
          transform="translate(99.715 76.756)"/>
    <path style="fill:#000;fill-opacity:1;fill-rule:nonzero;stroke:none" d="M0 0z"
          transform="translate(90.331 76.785)"/>
    <path style="fill:#000;fill-opacity:1;fill-rule:nonzero;stroke:none" d="M0 0z"
          transform="translate(99.669 76.785)"/>
    <path style="fill:#000;fill-opacity:1;fill-rule:nonzero;stroke:none" d="M0 0v.003V0z"
          transform="translate(75.938 89.057)"/>
    <path style="fill:#000;fill-opacity:1;fill-rule:nonzero;stroke:none" d="M0 0v.003V0z"
          transform="translate(114.062 89.057)"/>
    <path style="fill:#000;fill-opacity:1;fill-rule:nonzero;stroke:none" d="m0 0-.01.02C-.007.016-.005.008 0 0z"
          transform="translate(75.936 89.059)"/>
    <path style="fill:#000;fill-opacity:1;fill-rule:nonzero;stroke:none" d="M0 0c.005.007.007.015.01.02L0 0z"
          transform="translate(114.064 89.059)"/>
    <path style="fill:#000;fill-opacity:1;fill-rule:nonzero;stroke:none"
          d="M0 0c.004-.004.008-.004.012-.004l-.028.012C-.012.004-.004.004 0 0z" transform="translate(76.91 89.927)"/>
    <path style="fill:#000;fill-opacity:1;fill-rule:nonzero;stroke:none"
          d="M0 0c.004 0 .008 0 .012.004s.011.004.015.008L0 0z" transform="translate(113.078 89.924)"/>
    <path style="fill:#000;fill-opacity:1;fill-rule:nonzero;stroke:none"
          d="M0 0a.17.17 0 0 1 .013.007A.033.033 0 0 1 0 0z" transform="translate(76.894 100.064)"/>
    <path style="fill:#000;fill-opacity:1;fill-rule:nonzero;stroke:none"
          d="M0 0a.033.033 0 0 1-.013.007A.17.17 0 0 1 0 0z" transform="translate(113.106 100.064)"/>
    <path style="fill:#000;fill-opacity:1;fill-rule:nonzero;stroke:none" d="m0 0 .011.022A.072.072 0 0 1 0 0z"
          transform="translate(75.926 100.92)"/>
    <path style="fill:#000;fill-opacity:1;fill-rule:nonzero;stroke:none" d="M0 0a.072.072 0 0 1-.011.022L0 0z"
          transform="translate(114.074 100.92)"/>
    <path style="fill:#000;fill-opacity:1;fill-rule:nonzero;stroke:none"
          d="M0 0c.004-.004.008-.004.012-.004-.02.012-.035.02-.055.035A.176.176 0 0 1 0 0z"
          transform="translate(90.328 113.216)"/>
    <path style="fill:#000;fill-opacity:1;fill-rule:nonzero;stroke:none"
          d="M0 0c.004 0 .008 0 .012.004.015.008.031.02.043.031C.035.02.02.012 0 0z"
          transform="translate(99.66 113.213)"/>
    <path style="fill:#000;fill-opacity:1;fill-rule:nonzero;stroke:none"
          d="M0 0c-.02.004-.043.004-.063.004C-.042.004-.02 0 0 0z" transform="translate(90.617 114.478)"/>
    <path style="fill:#000;fill-opacity:1;fill-rule:nonzero;stroke:none"
          d="M0 0c.02 0 .043.004.063.004C.042.004.02.004 0 0z" transform="translate(99.383 114.478)"/>
    <path style="fill:#000;fill-opacity:1;fill-rule:nonzero;stroke:none"
          d="M0 0c-.25-.02-.5-.043-.738-.117a.395.395 0 0 1-.13-.063.394.394 0 0 1-.128.063A3.345 3.345 0 0 1-1.734 0a8.61 8.61 0 0 1-1.188.012 11.228 11.228 0 0 1-1.305-.164 17.537 17.537 0 0 1-3.84-1.157c-.43-.191-.851-.398-1.273-.609a32.09 32.09 0 0 1-2.527-1.367c-.301-.188-.598-.383-.883-.59a13.579 13.579 0 0 1-.957-.473c-.84-.457-1.649-.976-2.445-1.504-.391-.257-.785-.523-1.164-.8a15.055 15.055 0 0 1-1.102-.891 17.34 17.34 0 0 1-1.82-1.851 11.621 11.621 0 0 1-.797-1.051 8.68 8.68 0 0 1-.582-1.035 2.966 2.966 0 0 1-.266-.7.35.35 0 0 1-.012-.14.361.361 0 0 1-.117-.078c-.187-.168-.332-.38-.472-.582a8.687 8.687 0 0 1-.606-1.024c-.195-.394-.36-.8-.512-1.215a18.286 18.286 0 0 1-.695-2.504c-.094-.46-.172-.925-.219-1.398-.05-.469-.082-.938-.109-1.406-.059-.957-.106-1.914-.078-2.871.008-.352.027-.711.066-1.063-.039-.351-.058-.71-.066-1.062-.028-.957.02-1.914.078-2.871.027-.47.059-.938.11-1.407.046-.472.124-.937.218-1.398a18.28 18.28 0 0 1 .695-2.504c.153-.414.317-.82.512-1.215.18-.355.38-.695.606-1.023.14-.203.285-.414.472-.582a.362.362 0 0 1 .117-.079.35.35 0 0 1 .012-.14c.051-.246.156-.477.266-.7.172-.359.363-.702.582-1.035.242-.367.515-.714.797-1.05a17.332 17.332 0 0 1 1.82-1.852c.355-.312.719-.613 1.102-.89.378-.278.773-.543 1.164-.801.797-.528 1.605-1.047 2.445-1.504.313-.168.629-.328.957-.473.285-.207.582-.402.883-.59.816-.5 1.668-.941 2.527-1.367.422-.21.844-.418 1.274-.61a17.536 17.536 0 0 1 3.84-1.156c.43-.078.867-.136 1.304-.164.395-.023.79-.02 1.188.012.25.02.5.043.738.117.05.016.094.035.129.063a.397.397 0 0 1 .129-.063c.238-.074.488-.097.738-.117a8.626 8.626 0 0 1 1.188-.012c.437.028.875.086 1.304.164a17.533 17.533 0 0 1 3.84 1.157c.43.191.852.398 1.273.61.86.425 1.711.866 2.528 1.366.3.188.598.383.883.59.328.145.644.305.957.473.84.457 1.648.976 2.445 1.504.39.258.785.523 1.164.8.383.278.746.579 1.102.891a17.332 17.332 0 0 1 1.82 1.852c.281.336.555.683.797 1.05.219.332.41.676.582 1.036.11.222.215.453.265.699.012.05.02.094.012.14a.362.362 0 0 1 .117.079c.188.168.332.379.473.582.227.328.426.668.606 1.023.195.395.359.8.511 1.215.293.812.52 1.652.695 2.504.094.46.172.926.22 1.398.05.469.081.938.109 1.407.058.957.105 1.914.078 2.87-.008.352-.028.712-.067 1.063.04.352.059.711.067 1.063.027.957-.02 1.914-.078 2.87-.028.47-.059.938-.11 1.407-.047.473-.125.937-.218 1.398a18.271 18.271 0 0 1-.696 2.504c-.152.414-.316.82-.512 1.215-.18.356-.378.695-.605 1.024-.14.203-.285.414-.473.582a.362.362 0 0 1-.117.078c.008.047 0 .09-.012.14-.05.246-.156.477-.265.7a8.68 8.68 0 0 1-.582 1.035c-.242.367-.516.715-.797 1.05a17.34 17.34 0 0 1-1.82 1.852c-.356.313-.72.613-1.102.89-.379.278-.773.544-1.164.801-.797.528-1.605 1.047-2.445 1.504-.313.168-.63.329-.957.473-.286.207-.582.402-.883.59-.817.5-1.668.941-2.527 1.367-.422.211-.844.418-1.274.61a17.533 17.533 0 0 1-3.84 1.156c-.43.078-.867.136-1.304.164A7.92 7.92 0 0 1 0 0zm6.637-3.914c.02.426.375.723.785.723.41 0 .738-.391.719-.786-.016-.421-.375-.718-.786-.718-.41 0-.734.386-.718.78zm-16.512-.063c-.02.395.309.786.719.786s.765-.297.785-.723c.016-.395-.309-.781-.719-.781s-.77.297-.785.718zm9.098.11c.406 0 .761-.293.78-.711C.02-4.973-.3-5.36-.71-5.36a.998.998 0 0 0-.156.015.998.998 0 0 0-.156-.015c-.41 0-.73.386-.715.78.02.419.375.712.781.712.031 0 .059 0 .09-.004.031.004.058.004.09.004zm3.633-2.34c-.2.21-.254.555-.094.805a.88.88 0 0 0 .664.41.72.72 0 0 0 .183.027.682.682 0 0 0 .672-.688.68.68 0 0 0-.594-.663c-.035-.016-.07-.036-.109-.047a.618.618 0 0 0-.238-.047.69.69 0 0 0-.484.203zm-8.168-.156c-.04.011-.075.031-.11.047a.68.68 0 0 0-.098 1.328.681.681 0 0 0 .176.023.72.72 0 0 0 .184-.027.88.88 0 0 0 .664-.41c.16-.25.105-.594-.094-.805a.69.69 0 0 0-.484-.203.618.618 0 0 0-.238.047zM12.14-7.457c-.207.355-.125.813.23 1.039a.738.738 0 0 0 .402.113c.254 0 .508-.117.637-.347a.764.764 0 0 0-.23-1.04.774.774 0 0 0-.403-.113.726.726 0 0 0-.636.348zm-27.055-.234a.764.764 0 0 0-.23 1.039c.128.23.382.347.636.347.14 0 .281-.035.402-.113.356-.227.438-.684.231-1.039a.726.726 0 0 0-.637-.348c-.14 0-.281.04-.402.114zm23.496-.407a.702.702 0 0 0-.414.32.742.742 0 0 0 .242 1.009.744.744 0 0 0 .887-.09.748.748 0 0 0 .52-.723.74.74 0 0 0-.754-.711.7.7 0 0 0-.481.195zm-20.133.516a.748.748 0 0 0 .52.723c.137.129.32.195.504.195a.744.744 0 0 0 .383-.106.742.742 0 0 0 .242-1.007.702.702 0 0 0-.414-.32.7.7 0 0 0-.48-.196.74.74 0 0 0-.755.711zM.08-8.668c-.017.355.276.703.648.703.367 0 .687-.265.703-.648.015-.356-.278-.703-.649-.703-.367 0-.687.27-.703.648zm-3.243.055c.016.383.336.648.703.648.371 0 .664-.347.648-.703-.015-.379-.335-.648-.703-.648-.37 0-.664.347-.648.703zm8-1.606a.716.716 0 0 0 .719.703.72.72 0 0 0 .703-.722.725.725 0 0 0-.723-.703.716.716 0 0 0-.7.722zm-12.828-.02a.72.72 0 0 0 .703.723.716.716 0 0 0 .719-.703.716.716 0 0 0-.7-.722.725.725 0 0 0-.722.703zm21.07-1.87a.68.68 0 0 0-.496.547c-.004.039-.008.074-.008.113a.642.642 0 0 0-.05.168c-.04.27.09.547.324.683a.683.683 0 0 0 .82-.097.662.662 0 0 0 .172-.293.878.878 0 0 0-.016-.801.664.664 0 0 0-.746-.32zm-28.637.32c-.14.262-.129.531-.02.793.032.11.09.215.177.3a.681.681 0 0 0 .82.098.685.685 0 0 0 .324-.683.642.642 0 0 0-.05-.168c0-.04-.005-.074-.008-.113a.68.68 0 0 0-.497-.547.662.662 0 0 0-.746.32zm23.2-.367a.724.724 0 0 0 .246.976c.11.067.234.098.36.098a.708.708 0 0 0 .616-.344.724.724 0 0 0-.246-.976.691.691 0 0 0-.36-.098.708.708 0 0 0-.616.344zm-17.993-.246a.724.724 0 0 0-.246.976.709.709 0 0 0 .617.344c.125 0 .25-.031.36-.098a.724.724 0 0 0 .246-.976.708.708 0 0 0-.617-.344.691.691 0 0 0-.36.098zM.23-12.551c.016.492.43.852.91.852.481 0 .868-.446.852-.914-.02-.493-.433-.848-.914-.848-.48 0-.867.445-.848.91zm-3.957-.062c-.015.468.371.914.852.914.48 0 .894-.36.91-.852.02-.465-.367-.91-.848-.91-.48 0-.894.355-.914.848zm19.485-2.438a.97.97 0 0 0-.067.145.77.77 0 0 0-.093.129c-.204.355-.028.828.32 1.007.11.06.223.086.336.086a.79.79 0 0 0 .707-.48c.02-.023.039-.05.055-.078.203-.352.129-.805-.227-1.035a.738.738 0 0 0-.402-.114.72.72 0 0 0-.63.34zm-34.281-.226c-.356.23-.43.683-.227 1.035a.553.553 0 0 0 .055.078.79.79 0 0 0 .707.48.705.705 0 0 0 .336-.086c.347-.18.523-.652.32-1.007a.775.775 0 0 0-.094-.13.96.96 0 0 0-.066-.144.72.72 0 0 0-.63-.34.738.738 0 0 0-.401.114zm29.949-.184c-.188.32-.031.75.285.914.102.05.203.074.309.074a.71.71 0 0 0 .605-.359c.184-.32.031-.75-.285-.914a.694.694 0 0 0-.309-.078.7.7 0 0 0-.605.363zm-25.5-.285c-.317.164-.469.594-.285.914a.71.71 0 0 0 .605.36.677.677 0 0 0 .309-.075c.316-.164.472-.594.285-.914a.7.7 0 0 0-.606-.363.694.694 0 0 0-.308.078zm12.922-.414a.543.543 0 0 0-.293.457c-.02.297.222.605.535.605h.086c.312 0 .555-.308.535-.605a.544.544 0 0 0-.293-.457.514.514 0 0 0-.262-.078H-.89a.513.513 0 0 0-.261.078zm4.449-1.117a1.013 1.013 0 0 0-.54.855c-.019.547.43 1.07.99 1.07a1.105 1.105 0 0 0 .969-.559c.28-.484.05-1.136-.43-1.39a.985.985 0 0 0-.473-.117c-.18 0-.36.047-.516.14zm-9.316-.024c-.481.254-.711.906-.43 1.39.125.216.308.376.52.466.136.062.288.093.449.093.558 0 1.007-.523.988-1.07a1.013 1.013 0 0 0-.54-.855 1.004 1.004 0 0 0-.987-.024zm13.703.024c-.239.418-.137.957.28 1.215a.87.87 0 0 0 .47.132c.297-.004.593-.144.746-.41.242-.418.14-.957-.282-1.215a.867.867 0 0 0-.464-.133.867.867 0 0 0-.75.41zm-18.317-.278c-.422.258-.523.797-.281 1.215.152.266.45.406.746.41a.87.87 0 0 0 .469-.133c.418-.257.52-.796.281-1.214a.867.867 0 0 0-.75-.41.867.867 0 0 0-.465.132zm23.707-.761c-.187.32-.113.73.207.933.11.067.239.102.364.102a.65.65 0 0 0 .57-.309c.187-.32.113-.73-.207-.937a.663.663 0 0 0-.363-.102.646.646 0 0 0-.57.313zm-28.816-.211c-.32.207-.395.617-.207.937a.65.65 0 0 0 .57.309.709.709 0 0 0 .363-.102c.32-.203.395-.613.207-.933a.646.646 0 0 0-.57-.313.663.663 0 0 0-.363.102zm15.62-.453c-.026.457.349.921.825.921.48 0 .899-.328.926-.824.023-.457-.352-.926-.828-.926-.477 0-.895.332-.922.829zm-3.241.097c.027.496.445.824.925.824.477 0 .852-.464.825-.921-.028-.497-.446-.829-.922-.829-.477 0-.852.47-.828.926zm20.605-.57a.688.688 0 0 0-.117.121.724.724 0 0 0-.094.07.665.665 0 0 0 .398 1.188h.024a.899.899 0 0 0 .695-.38.677.677 0 0 0-.906-1zm-36.973-.063a.677.677 0 0 0-.152 1.063.899.899 0 0 0 .695.379h.024a.665.665 0 0 0 .398-1.188.725.725 0 0 0-.093-.07.68.68 0 0 0-.871-.184zm29.364-1.132c-.242.418-.051.972.363 1.195a.89.89 0 0 0 .402.101.918.918 0 0 0 .79-.468c.242-.414.05-.973-.364-1.192a.843.843 0 0 0-.402-.101.923.923 0 0 0-.79.465zm-22.192-.364c-.414.219-.605.778-.363 1.192a.918.918 0 0 0 .79.468.89.89 0 0 0 .401-.101c.415-.223.606-.777.364-1.195a.922.922 0 0 0-.79-.465.843.843 0 0 0-.402.101zm14.887.325c-.238.41-.02.968.387 1.175a.864.864 0 0 0 .383.094c.32 0 .62-.184.793-.48.238-.414.023-.97-.387-1.176a.864.864 0 0 0-.383-.094.928.928 0 0 0-.793.48zm-7.566-.387c-.41.207-.625.762-.387 1.176.172.296.473.48.793.48a.864.864 0 0 0 .383-.094c.406-.207.625-.765.386-1.175a.928.928 0 0 0-.793-.481.864.864 0 0 0-.382.094zm11.683.527a.506.506 0 0 0-.176.176c-.003.004-.003.008-.007.012-.004.011-.012.02-.016.027a.442.442 0 0 0-.062.25.544.544 0 0 0 .25.5c.09.063.203.094.312.094a.537.537 0 0 0 .477-.258c.004-.008.011-.016.015-.023.008-.016.02-.032.028-.047.156-.274.011-.633-.254-.77a.552.552 0 0 0-.567.04zm-15.191-.039c-.266.137-.41.496-.254.77.008.015.02.03.027.047.004.007.012.015.016.023a.536.536 0 0 0 .476.258c.11 0 .223-.031.313-.094a.544.544 0 0 0 .25-.5.442.442 0 0 0-.063-.25c-.003-.008-.011-.016-.015-.027-.004-.004-.004-.008-.008-.012a.506.506 0 0 0-.176-.176.553.553 0 0 0-.566-.039zm29.11-1.117c-.204.355-.032.832.32 1.016a.72.72 0 0 0 .34.085.783.783 0 0 0 .675-.406c.207-.355.031-.832-.32-1.015a.72.72 0 0 0-.34-.086.796.796 0 0 0-.676.406zm-43.477-.32c-.352.183-.528.66-.32 1.015a.783.783 0 0 0 .675.406c.113 0 .23-.027.34-.086.352-.183.523-.66.32-1.015a.796.796 0 0 0-.675-.406.72.72 0 0 0-.34.086zm37.156-1.223a.72.72 0 0 0 .277.969c.11.058.223.09.34.09.25 0 .496-.133.625-.364a.716.716 0 0 0-.273-.968.685.685 0 0 0-.344-.09.723.723 0 0 0-.625.363zm-30.79-.273a.716.716 0 0 0-.273.968c.13.23.375.363.625.363.118 0 .23-.03.34-.09a.72.72 0 0 0 .278-.968.723.723 0 0 0-.625-.363.686.686 0 0 0-.344.09zm20.743-.06c-.238.411-.16.938.254 1.212.14.094.312.137.484.137.29 0 .582-.13.73-.391.24-.414.161-.941-.253-1.211a.877.877 0 0 0-.484-.14c-.29 0-.583.132-.73.394zm-10.941-.253c-.414.27-.492.797-.254 1.21.148.263.441.391.73.391a.873.873 0 0 0 .485-.136c.414-.274.492-.801.254-1.211-.149-.262-.442-.395-.73-.395a.877.877 0 0 0-.485.141zM7.91-25.34c-.316.2-.473.527-.473.867v.02a1.013 1.013 0 0 0 1.024 1.027c.344 0 .687-.164.867-.476.09-.153.137-.32.149-.485.003-.023.003-.05.003-.074 0-.027 0-.05-.003-.074a1.094 1.094 0 0 0-.149-.485c-.18-.312-.523-.476-.867-.476-.195 0-.387.05-.55.156zm-18.973.32c-.09.153-.136.317-.148.485-.004.023-.004.047-.004.074a1.11 1.11 0 0 0 .152.559c.18.312.524.476.868.476a1.015 1.015 0 0 0 1.023-1.027v-.02a1.014 1.014 0 0 0-1.023-1.023c-.344 0-.688.164-.867.477zm29.16.043a.68.68 0 0 0-.066.516.685.685 0 0 0 .067.516.76.76 0 0 0 .652.382.723.723 0 0 0 .344-.085.758.758 0 0 0 .367-.813.753.753 0 0 0-.367-.812.728.728 0 0 0-.344-.09.755.755 0 0 0-.652.386zm-38.925-.296a.753.753 0 0 0-.367.812.758.758 0 0 0 .367.813c.11.058.226.085.344.085a.76.76 0 0 0 .652-.382.686.686 0 0 0 .066-.516.681.681 0 0 0-.066-.516.756.756 0 0 0-.652-.386.728.728 0 0 0-.344.09zM4.25-26.555c-.414.274-.492.801-.254 1.211.149.262.442.39.73.39a.874.874 0 0 0 .485-.136c.414-.27.492-.797.254-1.21-.149-.263-.442-.395-.73-.395a.878.878 0 0 0-.485.14zM-7.2-26.3c-.237.414-.16.942.255 1.211.14.094.312.137.484.137.29 0 .582-.129.73-.39.239-.41.16-.938-.253-1.212a.878.878 0 0 0-.485-.14c-.289 0-.582.133-.73.394zm21.52-.344a.72.72 0 0 0-.277.97c.133.23.375.363.625.363a.729.729 0 0 0 .344-.09.716.716 0 0 0 .273-.97.718.718 0 0 0-.625-.362.672.672 0 0 0-.34.09zm-31.34.274a.716.716 0 0 0 .274.969.73.73 0 0 0 .344.09c.25 0 .492-.133.625-.364a.72.72 0 0 0-.278-.968.671.671 0 0 0-.34-.09.718.718 0 0 0-.625.363zm37.704-1.871c-.352.183-.524.66-.32 1.015a.787.787 0 0 0 .675.407.72.72 0 0 0 .34-.086c.351-.184.527-.66.32-1.016a.79.79 0 0 0-.676-.406.72.72 0 0 0-.34.086zm-44.118.32c-.207.356-.03.832.32 1.016a.72.72 0 0 0 .34.086c.27 0 .532-.153.676-.407.203-.355.032-.832-.32-1.015a.719.719 0 0 0-.34-.086.79.79 0 0 0-.676.406zM2.715-29.41c-.406.207-.625.766-.387 1.176.172.297.473.48.793.48a.864.864 0 0 0 .383-.094c.41-.207.625-.761.387-1.175a.928.928 0 0 0-.793-.48.864.864 0 0 0-.383.093zm-8.34.387c-.238.414-.023.968.387 1.175a.864.864 0 0 0 .383.094c.32 0 .62-.183.793-.48.238-.41.019-.97-.387-1.176a.864.864 0 0 0-.383-.094.928.928 0 0 0-.793.48zm15.621-.446c-.414.223-.605.778-.363 1.196a.923.923 0 0 0 .789.464.842.842 0 0 0 .402-.101c.414-.219.606-.777.363-1.192a.918.918 0 0 0-.789-.468.843.843 0 0 0-.402.101zm-22.918.367c-.242.415-.05.973.363 1.192.13.07.27.101.403.101a.922.922 0 0 0 .789-.464c.242-.418.05-.973-.363-1.196a.843.843 0 0 0-.403-.101.918.918 0 0 0-.789.468zm19.356-.246a.55.55 0 0 0-.25.504.437.437 0 0 0 .062.246c.004.012.012.02.016.028.004.004.004.008.008.011a.486.486 0 0 0 .175.18.58.58 0 0 0 .317.098c.082 0 .168-.02.25-.063.265-.136.41-.496.254-.77-.008-.015-.02-.027-.028-.042-.004-.008-.011-.016-.015-.028a.542.542 0 0 0-.475-.255.568.568 0 0 0-.314.091zm-15.391.164c-.004.012-.012.02-.016.028-.007.015-.02.027-.027.043-.156.273-.012.633.254.77a.538.538 0 0 0 .25.062.58.58 0 0 0 .316-.098.486.486 0 0 0 .176-.18c.004-.003.004-.007.008-.011.004-.008.012-.016.016-.028a.437.437 0 0 0 .062-.246.55.55 0 0 0-.25-.504.568.568 0 0 0-.314-.09.542.542 0 0 0-.475.254zm8.836-.757c.027.496.445.828.922.828.476 0 .851-.469.828-.926-.027-.496-.445-.824-.926-.824-.476 0-.851.465-.824.922zm-3.242-.098c-.024.457.351.926.828.926.476 0 .894-.332.922-.828.027-.457-.348-.922-.824-.922-.481 0-.899.328-.926.824zm20.168-.324c-.07.25.015.543.226.703.032.023.063.047.094.066a.884.884 0 0 0 .117.125.676.676 0 0 0 .426.145.693.693 0 0 0 .328-.082.677.677 0 0 0 .152-1.067.884.884 0 0 0-.695-.375h-.023c-.29 0-.551.211-.625.485zm-36.688-.11a.677.677 0 0 0 .152 1.066.693.693 0 0 0 .329.083.676.676 0 0 0 .425-.145.879.879 0 0 0 .118-.125c.03-.02.062-.043.093-.066a.665.665 0 0 0-.398-1.188h-.023a.884.884 0 0 0-.696.375zm33.164-1.066c-.32.203-.394.613-.207.934a.654.654 0 0 0 .57.312.698.698 0 0 0 .364-.101c.32-.208.394-.618.207-.938a.65.65 0 0 0-.57-.309.673.673 0 0 0-.364.102zm-29.23.207c-.188.32-.113.73.207.938.11.066.234.101.363.101.227 0 .453-.11.57-.312.188-.32.114-.73-.207-.934a.673.673 0 0 0-.363-.102.65.65 0 0 0-.57.309zm23.914-1.527c-.418.257-.52.797-.281 1.215.156.265.453.406.75.41.16 0 .324-.043.464-.133.422-.258.524-.797.282-1.215a.856.856 0 0 0-.746-.41.87.87 0 0 0-.47.133zm-18.88.277c-.241.418-.14.957.282 1.215.14.09.305.133.465.133.297-.004.594-.145.75-.41.238-.418.137-.958-.281-1.215a.87.87 0 0 0-.469-.133.856.856 0 0 0-.746.41zm13.673.082c.015.379.23.688.539.856.16.09.336.14.52.14.156 0 .316-.039.468-.117.48-.254.711-.906.43-1.39a1.134 1.134 0 0 0-.52-.47 1.139 1.139 0 0 0-.449-.09c-.559 0-1.008.524-.988 1.071zm-8.688-.98c-.21.093-.394.253-.52.468-.28.485-.05 1.137.43 1.39.153.079.313.118.47.118.183 0 .359-.05.519-.14.308-.168.523-.477.539-.856.02-.547-.43-1.07-.989-1.07-.16 0-.312.03-.449.09zm4.485.253a.55.55 0 0 0 .293.461.51.51 0 0 0 .261.075h.047a.51.51 0 0 0 .262-.075.55.55 0 0 0 .293-.46c.02-.297-.223-.606-.535-.606-.016 0-.028 0-.043.004-.016-.004-.028-.004-.043-.004-.313 0-.555.309-.535.605zm13.156-1.148c-.317.164-.473.594-.285.914.129.223.36.36.605.36a.688.688 0 0 0 .309-.075c.316-.164.469-.594.285-.914a.705.705 0 0 0-.606-.363.682.682 0 0 0-.308.078zm-26.07.285c-.184.32-.032.75.285.914.101.051.207.074.308.074a.705.705 0 0 0 .606-.359c.187-.32.031-.75-.285-.914a.682.682 0 0 0-.309-.078.705.705 0 0 0-.605.363zm30.277-1.07c-.348.18-.523.652-.32 1.008.027.05.058.093.093.133a.715.715 0 0 0 .695.484c.141 0 .282-.04.403-.117.355-.23.43-.684.227-1.035-.016-.028-.035-.051-.055-.079a.786.786 0 0 0-.707-.477.7.7 0 0 0-.336.083zm-34.578.32a.413.413 0 0 0-.035.074c-.02.028-.04.051-.055.078-.203.352-.129.805.227 1.036a.743.743 0 0 0 .402.117.715.715 0 0 0 .695-.484.677.677 0 0 0 .094-.133c.203-.356.027-.828-.32-1.008a.7.7 0 0 0-.336-.082.786.786 0 0 0-.672.402zM.23-36.37c-.02.465.368.91.848.91s.895-.355.914-.848c.016-.468-.37-.914-.851-.914-.48 0-.895.36-.91.852zm-3.957.062c.02.493.434.848.914.848.481 0 .868-.445.848-.91-.016-.492-.43-.852-.91-.852-.48 0-.867.446-.852.914zm11.614-1.433a.724.724 0 0 0-.246.976.709.709 0 0 0 .617.344c.125 0 .25-.031.36-.098a.724.724 0 0 0 .245-.976.708.708 0 0 0-.617-.344.691.691 0 0 0-.36.098zm-18.485.246a.724.724 0 0 0 .246.977c.11.066.235.097.36.097a.709.709 0 0 0 .617-.344.724.724 0 0 0-.246-.976.691.691 0 0 0-.36-.098.708.708 0 0 0-.617.344zm23.446-.828a.685.685 0 0 0-.325.683c.008.055.028.11.051.164a.68.68 0 0 0 .504.664c.05.012.106.016.156.016a.668.668 0 0 0 .59-.336.886.886 0 0 0 .016-.805.665.665 0 0 0-.644-.48.683.683 0 0 0-.348.094zm-28.25.097a.683.683 0 0 0-.176.297c-.11.262-.121.536.02.797.113.211.347.336.585.336a.72.72 0 0 0 .16-.015.68.68 0 0 0 .504-.665.662.662 0 0 0 .051-.164.685.685 0 0 0-.324-.683.683.683 0 0 0-.82.097zm20.238-.476a.716.716 0 0 0 .7.723.725.725 0 0 0 .722-.704.72.72 0 0 0-.703-.722.716.716 0 0 0-.72.703zm-12.828.02c.008.39.336.703.722.703.387 0 .707-.34.7-.723a.716.716 0 0 0-.72-.703.72.72 0 0 0-.702.722zm8.07-1.57c.016.378.336.647.703.647.371 0 .664-.347.649-.703-.016-.382-.336-.648-.703-.648-.372 0-.665.348-.649.703zm-3.242-.056c-.016.356.277.703.648.703.368 0 .688-.269.703-.648.016-.355-.277-.703-.648-.703-.367 0-.687.266-.703.648zM8.41-42.152a.742.742 0 0 0-.242 1.008.71.71 0 0 0 .414.316c.129.121.297.2.48.2a.74.74 0 0 0 .754-.712.75.75 0 0 0-.52-.726.736.736 0 0 0-.886-.086zm-19.441.086a.75.75 0 0 0-.52.726.74.74 0 0 0 .754.711.704.704 0 0 0 .48-.2.711.711 0 0 0 .415-.315.742.742 0 0 0-.243-1.008.736.736 0 0 0-.887.086zm23.402-.446c-.355.227-.437.684-.23 1.04.128.23.382.347.636.347.141 0 .282-.035.403-.113a.764.764 0 0 0 .23-1.04.727.727 0 0 0-.637-.347c-.14 0-.28.04-.402.113zm-27.516.235a.764.764 0 0 0 .23 1.039.74.74 0 0 0 .403.113c.254 0 .508-.117.637-.348.207-.355.125-.812-.23-1.039a.773.773 0 0 0-.403-.113.726.726 0 0 0-.637.348zm18.57-1.657a.875.875 0 0 0-.663.414c-.16.25-.106.594.093.805a.686.686 0 0 0 .723.156c.04-.015.074-.035.11-.05a.835.835 0 0 0 .164-.04.68.68 0 0 0-.067-1.285.68.68 0 0 0-.36 0zm-8.945 0a.687.687 0 0 0-.496.664.68.68 0 0 0 .43.622c.055.02.11.03.164.039.035.015.07.035.11.05a.686.686 0 0 0 .723-.156c.198-.21.253-.555.093-.805a.875.875 0 0 0-.664-.414.717.717 0 0 0-.36 0zm4.81.364c.41 0 .73-.387.714-.782-.02-.418-.375-.71-.781-.71-.032 0-.059.003-.09.007-.031-.004-.059-.007-.09-.007-.406 0-.762.292-.781.71-.016.395.304.782.715.782.054 0 .105-.004.156-.012.05.008.101.012.156.012zm7.347-1.446c-.016.395.308.782.718.782s.77-.297.786-.72c.02-.394-.309-.784-.72-.784-.41 0-.765.297-.784.722zm-16.512.063c.016.422.375.719.785.719.41 0 .734-.387.719-.782-.02-.425-.375-.722-.785-.722-.41 0-.739.39-.719.785z"
          transform="translate(95.867 119.464)"/></g>
</svg>
