<svg xmlns="http://www.w3.org/2000/svg" xmlns:xlink="http://www.w3.org/1999/xlink" viewBox="0 0 253.333 253.333"
     xml:space="preserve">
  <rect width="100%" height="100%" fill="white"/>
  <g clip-path="url(#c)" transform="matrix(1.33333 0 0 1.33333 0 0)"><path style="fill:#000;fill-opacity:1;fill-rule:nonzero;stroke:none" d="M0 0a.083.083 0 0 1-.023.004L0 0z" transform="translate(95.316 102.25)"/>
    <path style="fill:#000;fill-opacity:1;fill-rule:nonzero;stroke:none" d="m0 0 .023.004A.083.083 0 0 1 0 0z"
          transform="translate(94.684 102.25)"/>
    <path style="fill:#000;fill-opacity:1;fill-rule:nonzero;stroke:none" d="M0 0z"
          transform="translate(97.163 101.916)"/>
    <path style="fill:#000;fill-opacity:1;fill-rule:nonzero;stroke:none" d="m0 0 .015.005L0 0z"
          transform="translate(92.837 101.916)"/>
    <path style="fill:#000;fill-opacity:1;fill-rule:nonzero;stroke:none" d="m0 0-.028.014-.005.002A.308.308 0 0 1 0 0z"
          transform="translate(99.155 100.86)"/>
    <path style="fill:#000;fill-opacity:1;fill-rule:nonzero;stroke:none" d="M0 0a2.45 2.45 0 0 1 .005.002L0 0z"
          transform="translate(90.874 100.874)"/>
    <path style="fill:#000;fill-opacity:1;fill-rule:nonzero;stroke:none" d="m0 0-.023.027A.31.31 0 0 1 0 0z"
          transform="translate(101.117 98.903)"/>
    <path style="fill:#000;fill-opacity:1;fill-rule:nonzero;stroke:none" d="M0 0a.31.31 0 0 1 .023.027L0 0z"
          transform="translate(88.883 98.903)"/>
    <path style="fill:#000;fill-opacity:1;fill-rule:nonzero;stroke:none" d="m0 0 .023.027A.31.31 0 0 1 0 0z"
          transform="translate(101.094 91.07)"/>
    <path style="fill:#000;fill-opacity:1;fill-rule:nonzero;stroke:none"
          d="M0 0a.31.31 0 0 1-.023.027C-.016.017-.008.009 0 0z" transform="translate(88.906 91.07)"/>
    <path style="fill:#000;fill-opacity:1;fill-rule:nonzero;stroke:none" d="m0 0 .005.002A2.45 2.45 0 0 1 0 0z"
          transform="translate(99.121 89.123)"/>
    <path style="fill:#000;fill-opacity:1;fill-rule:nonzero;stroke:none" d="m0 0 .005-.002A.328.328 0 0 1 0 0z"
          transform="translate(90.874 89.126)"/>
    <path style="fill:#000;fill-opacity:1;fill-rule:nonzero;stroke:none" d="M0 0z"
          transform="translate(97.148 88.078)"/>
    <path style="fill:#000;fill-opacity:1;fill-rule:nonzero;stroke:none" d="M0 0a.206.206 0 0 1-.015.005L0 0z"
          transform="translate(92.852 88.078)"/>
    <path style="fill:#000;fill-opacity:1;fill-rule:nonzero;stroke:none" d="M0 0c.008 0 .015.002.023.004L0 0z"
          transform="translate(95.293 87.746)"/>
    <path style="fill:#000;fill-opacity:1;fill-rule:nonzero;stroke:none" d="m0 0-.023.004A.083.083 0 0 1 0 0z"
          transform="translate(94.707 87.746)"/>
    <path style="fill:#000;fill-opacity:1;fill-rule:nonzero;stroke:none" d="m0 0-.022.001A.13.13 0 0 1 0 0z"
          transform="translate(97.055 118.973)"/>
    <path style="fill:#000;fill-opacity:1;fill-rule:nonzero;stroke:none" d="M0 0a.13.13 0 0 1 .022.001L0 0z"
          transform="translate(92.945 118.973)"/>
    <path style="fill:#000;fill-opacity:1;fill-rule:nonzero;stroke:none" d="m0 0 .006.003A.013.013 0 0 1 0 0z"
          transform="translate(95.25 118.856)"/>
    <path style="fill:#000;fill-opacity:1;fill-rule:nonzero;stroke:none" d="M0 0a.013.013 0 0 1-.006.003L0 0z"
          transform="translate(94.75 118.856)"/>
    <path style="fill:#000;fill-opacity:1;fill-rule:nonzero;stroke:none" d="m0 0-.018.012L0 0z"
          transform="translate(109.93 113.246)"/>
    <path style="fill:#000;fill-opacity:1;fill-rule:nonzero;stroke:none" d="m0 0 .018.012L0 0z"
          transform="translate(80.07 113.246)"/>
    <path style="fill:#000;fill-opacity:1;fill-rule:nonzero;stroke:none" d="m0 0-.023.02A.19.19 0 0 1 0 0z"
          transform="translate(112.09 111.66)"/>
    <path style="fill:#000;fill-opacity:1;fill-rule:nonzero;stroke:none" d="M0 0a.19.19 0 0 1 .023.02L0 0z"
          transform="translate(77.91 111.66)"/>
    <path style="fill:#000;fill-opacity:1;fill-rule:nonzero;stroke:none" d="m0 0-.02.021A.195.195 0 0 1 0 0z"
          transform="translate(113.781 109.984)"/>
    <path style="fill:#000;fill-opacity:1;fill-rule:nonzero;stroke:none" d="M0 0z"
          transform="translate(76.219 109.984)"/>
    <path style="fill:#000;fill-opacity:1;fill-rule:nonzero;stroke:none" d="m0 0-.012.019A.124.124 0 0 1 0 0z"
          transform="translate(114.746 108.747)"/>
    <path style="fill:#000;fill-opacity:1;fill-rule:nonzero;stroke:none" d="M0 0c.005.006.01.013.012.019L0 0z"
          transform="translate(75.254 108.747)"/>
    <path style="fill:#000;fill-opacity:1;fill-rule:nonzero;stroke:none" d="m0 0-.001.001h-.002L0 0z"
          transform="translate(115.788 106.71)"/>
    <path style="fill:#000;fill-opacity:1;fill-rule:nonzero;stroke:none" d="M0 0h-.001v-.001A.119.119 0 0 0 0 0z"
          transform="translate(74.213 106.71)"/>
    <path style="fill:#000;fill-opacity:1;fill-rule:nonzero;stroke:none"
          d="M0 0a.33.33 0 0 0-.004.009l-.003.006A.159.159 0 0 1 0 0z" transform="translate(116.783 105.219)"/>
    <path style="fill:#000;fill-opacity:1;fill-rule:nonzero;stroke:none" d="M0 0a.33.33 0 0 1 .003.006L0 0z"
          transform="translate(73.222 105.227)"/>
    <path style="fill:#000;fill-opacity:1;fill-rule:nonzero;stroke:none" d="m0 0 .003.006A.33.33 0 0 0 0 0z"
          transform="translate(116.775 84.766)"/>
    <path style="fill:#000;fill-opacity:1;fill-rule:nonzero;stroke:none" d="m0 0 .003-.006A.159.159 0 0 1 0 0z"
          transform="translate(73.222 84.773)"/>
    <path style="fill:#000;fill-opacity:1;fill-rule:nonzero;stroke:none" d="M0 0h.002l.001.002L0 0z"
          transform="translate(115.785 83.29)"/>
    <path style="fill:#000;fill-opacity:1;fill-rule:nonzero;stroke:none" d="M0 0h.001l.002-.002L0 0z"
          transform="translate(74.212 83.29)"/>
    <path style="fill:#000;fill-opacity:1;fill-rule:nonzero;stroke:none" d="m0 0 .012.019A.12.12 0 0 1 0 0z"
          transform="translate(114.734 81.234)"/>
    <path style="fill:#000;fill-opacity:1;fill-rule:nonzero;stroke:none" d="M0 0a.12.12 0 0 1-.012.019L0 0z"
          transform="translate(75.266 81.234)"/>
    <path style="fill:#000;fill-opacity:1;fill-rule:nonzero;stroke:none" d="m0 0 .02.021A.186.186 0 0 1 0 0z"
          transform="translate(113.762 79.994)"/>
    <path style="fill:#000;fill-opacity:1;fill-rule:nonzero;stroke:none" d="M0 0a.186.186 0 0 1-.02.021L0 0z"
          transform="translate(76.238 79.994)"/>
    <path style="fill:#000;fill-opacity:1;fill-rule:nonzero;stroke:none" d="m0 0 .023.02A.19.19 0 0 1 0 0z"
          transform="translate(112.066 78.32)"/>
    <path style="fill:#000;fill-opacity:1;fill-rule:nonzero;stroke:none" d="M0 0a.19.19 0 0 1-.023.02L0 0z"
          transform="translate(77.934 78.32)"/>
    <path style="fill:#000;fill-opacity:1;fill-rule:nonzero;stroke:none" d="m0 0 .018.012L0 0z"
          transform="translate(109.912 76.742)"/>
    <path style="fill:#000;fill-opacity:1;fill-rule:nonzero;stroke:none" d="m0 0-.018.012L0 0z"
          transform="translate(80.088 76.742)"/>
    <path style="fill:#000;fill-opacity:1;fill-rule:nonzero;stroke:none" d="m0 0-.006.003A.012.012 0 0 1 0 0z"
          transform="translate(95.256 71.141)"/>
    <path style="fill:#000;fill-opacity:1;fill-rule:nonzero;stroke:none" d="m0 0-.006-.003L0 0z"
          transform="translate(94.75 71.144)"/>
    <path style="fill:#000;fill-opacity:1;fill-rule:nonzero;stroke:none" d="m0 0 .022.001A.13.13 0 0 1 0 0z"
          transform="translate(97.032 71.026)"/>
    <path style="fill:#000;fill-opacity:1;fill-rule:nonzero;stroke:none" d="M0 0a.13.13 0 0 1-.022.001L0 0z"
          transform="translate(92.968 71.026)"/>
    <path style="fill:#000;fill-opacity:1;fill-rule:nonzero;stroke:none" d="M0 0s.004 0 .004.004C0 .004 0 0 0 0z"
          transform="translate(91.063 75.767)"/>
    <path style="fill:#000;fill-opacity:1;fill-rule:nonzero;stroke:none" d="M0 0s0 .004-.004.004C-.004 0 0 0 0 0z"
          transform="translate(98.938 75.767)"/>
    <path style="fill:#000;fill-opacity:1;fill-rule:nonzero;stroke:none" d="m0 0 .038.024C.024.017.01.007 0 0z"
          transform="translate(90.285 76.756)"/>
    <path style="fill:#000;fill-opacity:1;fill-rule:nonzero;stroke:none" d="M0 0c-.01.007-.024.017-.038.024L0 0z"
          transform="translate(99.715 76.756)"/>
    <path style="fill:#000;fill-opacity:1;fill-rule:nonzero;stroke:none" d="M0 0z"
          transform="translate(90.331 76.785)"/>
    <path style="fill:#000;fill-opacity:1;fill-rule:nonzero;stroke:none" d="M0 0z"
          transform="translate(99.669 76.785)"/>
    <path style="fill:#000;fill-opacity:1;fill-rule:nonzero;stroke:none" d="M0 0v.003V0z"
          transform="translate(75.938 89.057)"/>
    <path style="fill:#000;fill-opacity:1;fill-rule:nonzero;stroke:none" d="M0 0v.003V0z"
          transform="translate(114.062 89.057)"/>
    <path style="fill:#000;fill-opacity:1;fill-rule:nonzero;stroke:none" d="m0 0-.01.02C-.007.016-.005.008 0 0z"
          transform="translate(75.936 89.059)"/>
    <path style="fill:#000;fill-opacity:1;fill-rule:nonzero;stroke:none" d="M0 0c.005.007.007.015.01.02L0 0z"
          transform="translate(114.064 89.059)"/>
    <path style="fill:#000;fill-opacity:1;fill-rule:nonzero;stroke:none"
          d="M0 0c.004-.004.008-.004.012-.004l-.028.012C-.012.004-.004.004 0 0z" transform="translate(76.91 89.927)"/>
    <path style="fill:#000;fill-opacity:1;fill-rule:nonzero;stroke:none"
          d="M0 0c.004 0 .008 0 .012.004s.011.004.015.008L0 0z" transform="translate(113.078 89.924)"/>
    <path style="fill:#000;fill-opacity:1;fill-rule:nonzero;stroke:none"
          d="M0 0a.17.17 0 0 1 .013.007A.033.033 0 0 1 0 0z" transform="translate(76.894 100.064)"/>
    <path style="fill:#000;fill-opacity:1;fill-rule:nonzero;stroke:none"
          d="M0 0a.033.033 0 0 1-.013.007A.17.17 0 0 1 0 0z" transform="translate(113.106 100.064)"/>
    <path style="fill:#000;fill-opacity:1;fill-rule:nonzero;stroke:none" d="m0 0 .011.022A.072.072 0 0 1 0 0z"
          transform="translate(75.926 100.92)"/>
    <path style="fill:#000;fill-opacity:1;fill-rule:nonzero;stroke:none" d="M0 0a.072.072 0 0 1-.011.022L0 0z"
          transform="translate(114.074 100.92)"/>
    <path style="fill:#000;fill-opacity:1;fill-rule:nonzero;stroke:none"
          d="M0 0c.004-.004.008-.004.012-.004-.02.012-.035.02-.055.035A.176.176 0 0 1 0 0z"
          transform="translate(90.328 113.216)"/>
    <path style="fill:#000;fill-opacity:1;fill-rule:nonzero;stroke:none"
          d="M0 0c.004 0 .008 0 .012.004.015.008.031.02.043.031C.035.02.02.012 0 0z"
          transform="translate(99.66 113.213)"/>
    <path style="fill:#000;fill-opacity:1;fill-rule:nonzero;stroke:none"
          d="M0 0c-.02.004-.043.004-.063.004C-.042.004-.02 0 0 0z" transform="translate(90.617 114.478)"/>
    <path style="fill:#000;fill-opacity:1;fill-rule:nonzero;stroke:none"
          d="M0 0c.02 0 .043.004.063.004C.042.004.02.004 0 0z" transform="translate(99.383 114.478)"/>
    <path style="fill:#000;fill-opacity:1;fill-rule:nonzero;stroke:none"
          d="M0 0c-.25-.02-.5-.043-.738-.117a.395.395 0 0 1-.13-.063.394.394 0 0 1-.128.063A3.345 3.345 0 0 1-1.734 0a8.61 8.61 0 0 1-1.188.012 11.228 11.228 0 0 1-1.305-.164 17.537 17.537 0 0 1-3.84-1.157c-.43-.191-.851-.398-1.273-.609a32.09 32.09 0 0 1-2.527-1.367c-.301-.188-.598-.383-.883-.59a13.579 13.579 0 0 1-.957-.473c-.84-.457-1.649-.976-2.445-1.504-.391-.257-.785-.523-1.164-.8a15.055 15.055 0 0 1-1.102-.891 17.34 17.34 0 0 1-1.82-1.851 11.621 11.621 0 0 1-.797-1.051 8.68 8.68 0 0 1-.582-1.035 2.966 2.966 0 0 1-.266-.7.35.35 0 0 1-.012-.14.361.361 0 0 1-.117-.078c-.187-.168-.332-.38-.472-.582a8.687 8.687 0 0 1-.606-1.024c-.195-.394-.36-.8-.512-1.215a18.286 18.286 0 0 1-.695-2.504c-.094-.46-.172-.925-.219-1.398-.05-.469-.082-.938-.109-1.406-.059-.957-.106-1.914-.078-2.871.008-.352.027-.711.066-1.063-.039-.351-.058-.71-.066-1.062-.028-.957.02-1.914.078-2.871.027-.47.059-.938.11-1.407.046-.472.124-.937.218-1.398a18.28 18.28 0 0 1 .695-2.504c.153-.414.317-.82.512-1.215.18-.355.38-.695.606-1.023.14-.203.285-.414.472-.582a.362.362 0 0 1 .117-.079.35.35 0 0 1 .012-.14c.051-.246.156-.477.266-.7.172-.359.363-.702.582-1.035.242-.367.515-.714.797-1.05a17.332 17.332 0 0 1 1.82-1.852c.355-.312.719-.613 1.102-.89.378-.278.773-.543 1.164-.801.797-.528 1.605-1.047 2.445-1.504.313-.168.629-.328.957-.473.285-.207.582-.402.883-.59.816-.5 1.668-.941 2.527-1.367.422-.21.844-.418 1.274-.61a17.536 17.536 0 0 1 3.84-1.156c.43-.078.867-.136 1.304-.164.395-.023.79-.02 1.188.012.25.02.5.043.738.117.05.016.094.035.129.063a.397.397 0 0 1 .129-.063c.238-.074.488-.097.738-.117a8.626 8.626 0 0 1 1.188-.012c.437.028.875.086 1.304.164a17.533 17.533 0 0 1 3.84 1.157c.43.191.852.398 1.273.61.86.425 1.711.866 2.528 1.366.3.188.598.383.883.59.328.145.644.305.957.473.84.457 1.648.976 2.445 1.504.39.258.785.523 1.164.8.383.278.746.579 1.102.891a17.332 17.332 0 0 1 1.82 1.852c.281.336.555.683.797 1.05.219.332.41.676.582 1.036.11.222.215.453.265.699.012.05.02.094.012.14a.362.362 0 0 1 .117.079c.188.168.332.379.473.582.227.328.426.668.606 1.023.195.395.359.8.511 1.215.293.812.52 1.652.695 2.504.094.46.172.926.22 1.398.05.469.081.938.109 1.407.058.957.105 1.914.078 2.87-.008.352-.028.712-.067 1.063.04.352.059.711.067 1.063.027.957-.02 1.914-.078 2.87-.028.47-.059.938-.11 1.407-.047.473-.125.937-.218 1.398a18.271 18.271 0 0 1-.696 2.504c-.152.414-.316.82-.512 1.215-.18.356-.378.695-.605 1.024-.14.203-.285.414-.473.582a.362.362 0 0 1-.117.078c.008.047 0 .09-.012.14-.05.246-.156.477-.265.7a8.68 8.68 0 0 1-.582 1.035c-.242.367-.516.715-.797 1.05a17.34 17.34 0 0 1-1.82 1.852c-.356.313-.72.613-1.102.89-.379.278-.773.544-1.164.801-.797.528-1.605 1.047-2.445 1.504-.313.168-.63.329-.957.473-.286.207-.582.402-.883.59-.817.5-1.668.941-2.527 1.367-.422.211-.844.418-1.274.61a17.533 17.533 0 0 1-3.84 1.156c-.43.078-.867.136-1.304.164A7.92 7.92 0 0 1 0 0zm6.637-3.914c.02.426.375.723.785.723.41 0 .738-.391.719-.786-.016-.421-.375-.718-.786-.718-.41 0-.734.386-.718.78zm-16.512-.063c-.02.395.309.786.719.786s.765-.297.785-.723c.016-.395-.309-.781-.719-.781s-.77.297-.785.718zm9.098.11c.406 0 .761-.293.78-.711C.02-4.973-.3-5.36-.71-5.36a.998.998 0 0 0-.156.015.998.998 0 0 0-.156-.015c-.41 0-.73.386-.715.78.02.419.375.712.781.712.031 0 .059 0 .09-.004.031.004.058.004.09.004zm3.633-2.34c-.2.21-.254.555-.094.805a.88.88 0 0 0 .664.41.72.72 0 0 0 .183.027.682.682 0 0 0 .672-.688.68.68 0 0 0-.594-.663c-.035-.016-.07-.036-.109-.047a.618.618 0 0 0-.238-.047.69.69 0 0 0-.484.203zm-8.168-.156c-.04.011-.075.031-.11.047a.68.68 0 0 0-.098 1.328.681.681 0 0 0 .176.023.72.72 0 0 0 .184-.027.88.88 0 0 0 .664-.41c.16-.25.105-.594-.094-.805a.69.69 0 0 0-.484-.203.618.618 0 0 0-.238.047zM12.14-7.457c-.207.355-.125.813.23 1.039a.738.738 0 0 0 .402.113c.254 0 .508-.117.637-.347a.764.764 0 0 0-.23-1.04.774.774 0 0 0-.403-.113.726.726 0 0 0-.636.348zm-27.055-.234a.764.764 0 0 0-.23 1.039c.128.23.382.347.636.347.14 0 .281-.035.402-.113.356-.227.438-.684.231-1.039a.726.726 0 0 0-.637-.348c-.14 0-.281.04-.402.114zm23.496-.407a.702.702 0 0 0-.414.32.742.742 0 0 0 .242 1.009.744.744 0 0 0 .887-.09.748.748 0 0 0 .52-.723.74.74 0 0 0-.754-.711.7.7 0 0 0-.481.195zm-20.133.516a.748.748 0 0 0 .52.723c.137.129.32.195.504.195a.744.744 0 0 0 .383-.106.742.742 0 0 0 .242-1.007.702.702 0 0 0-.414-.32.7.7 0 0 0-.48-.196.74.74 0 0 0-.755.711zM.08-8.668c-.017.355.276.703.648.703.367 0 .687-.265.703-.648.015-.356-.278-.703-.649-.703-.367 0-.687.27-.703.648zm-3.243.055c.016.383.336.648.703.648.371 0 .664-.347.648-.703-.015-.379-.335-.648-.703-.648-.37 0-.664.347-.648.703zm8-1.606a.716.716 0 0 0 .719.703.72.72 0 0 0 .703-.722.725.725 0 0 0-.723-.703.716.716 0 0 0-.7.722zm-12.828-.02a.72.72 0 0 0 .703.723.716.716 0 0 0 .719-.703.716.716 0 0 0-.7-.722.725.725 0 0 0-.722.703zm21.07-1.87a.68.68 0 0 0-.496.547c-.004.039-.008.074-.008.113a.642.642 0 0 0-.05.168c-.04.27.09.547.324.683a.683.683 0 0 0 .82-.097.662.662 0 0 0 .172-.293.878.878 0 0 0-.016-.801.664.664 0 0 0-.746-.32zm-28.637.32c-.14.262-.129.531-.02.793.032.11.09.215.177.3a.681.681 0 0 0 .82.098.685.685 0 0 0 .324-.683.642.642 0 0 0-.05-.168c0-.04-.005-.074-.008-.113a.68.68 0 0 0-.497-.547.662.662 0 0 0-.746.32zm23.2-.367a.724.724 0 0 0 .246.976c.11.067.234.098.36.098a.708.708 0 0 0 .616-.344.724.724 0 0 0-.246-.976.691.691 0 0 0-.36-.098.708.708 0 0 0-.616.344zm-17.993-.246a.724.724 0 0 0-.246.976.709.709 0 0 0 .617.344c.125 0 .25-.031.36-.098a.724.724 0 0 0 .246-.976.708.708 0 0 0-.617-.344.691.691 0 0 0-.36.098zM.23-12.551c.016.492.43.852.91.852.481 0 .868-.446.852-.914-.02-.493-.433-.848-.914-.848-.48 0-.867.445-.848.91zm-3.957-.062c-.015.468.371.914.852.914.48 0 .894-.36.91-.852.02-.465-.367-.91-.848-.91-.48 0-.894.355-.914.848zm19.485-2.438a.97.97 0 0 0-.067.145.77.77 0 0 0-.093.129c-.204.355-.028.828.32 1.007.11.06.223.086.336.086a.79.79 0 0 0 .707-.48c.02-.023.039-.05.055-.078.203-.352.129-.805-.227-1.035a.738.738 0 0 0-.402-.114.72.72 0 0 0-.63.34zm-34.281-.226c-.356.23-.43.683-.227 1.035a.553.553 0 0 0 .055.078.79.79 0 0 0 .707.48.705.705 0 0 0 .336-.086c.347-.18.523-.652.32-1.007a.775.775 0 0 0-.094-.13.96.96 0 0 0-.066-.144.72.72 0 0 0-.63-.34.738.738 0 0 0-.401.114zm29.949-.184c-.188.32-.031.75.285.914.102.05.203.074.309.074a.71.71 0 0 0 .605-.359c.184-.32.031-.75-.285-.914a.694.694 0 0 0-.309-.078.7.7 0 0 0-.605.363zm-25.5-.285c-.317.164-.469.594-.285.914a.71.71 0 0 0 .605.36.677.677 0 0 0 .309-.075c.316-.164.472-.594.285-.914a.7.7 0 0 0-.606-.363.694.694 0 0 0-.308.078zm12.922-.414a.543.543 0 0 0-.293.457c-.02.297.222.605.535.605h.086c.312 0 .555-.308.535-.605a.544.544 0 0 0-.293-.457.514.514 0 0 0-.262-.078H-.89a.513.513 0 0 0-.261.078zm4.449-1.117a1.013 1.013 0 0 0-.54.855c-.019.547.43 1.07.99 1.07a1.105 1.105 0 0 0 .969-.559c.28-.484.05-1.136-.43-1.39a.985.985 0 0 0-.473-.117c-.18 0-.36.047-.516.14zm-9.316-.024c-.481.254-.711.906-.43 1.39.125.216.308.376.52.466.136.062.288.093.449.093.558 0 1.007-.523.988-1.07a1.013 1.013 0 0 0-.54-.855 1.004 1.004 0 0 0-.987-.024zm13.703.024c-.239.418-.137.957.28 1.215a.87.87 0 0 0 .47.132c.297-.004.593-.144.746-.41.242-.418.14-.957-.282-1.215a.867.867 0 0 0-.464-.133.867.867 0 0 0-.75.41zm-18.317-.278c-.422.258-.523.797-.281 1.215.152.266.45.406.746.41a.87.87 0 0 0 .469-.133c.418-.257.52-.796.281-1.214a.867.867 0 0 0-.75-.41.867.867 0 0 0-.465.132zm23.707-.761c-.187.32-.113.73.207.933.11.067.239.102.364.102a.65.65 0 0 0 .57-.309c.187-.32.113-.73-.207-.937a.663.663 0 0 0-.363-.102.646.646 0 0 0-.57.313zm-28.816-.211c-.32.207-.395.617-.207.937a.65.65 0 0 0 .57.309.709.709 0 0 0 .363-.102c.32-.203.395-.613.207-.933a.646.646 0 0 0-.57-.313.663.663 0 0 0-.363.102zm15.62-.453c-.026.457.349.921.825.921.48 0 .899-.328.926-.824.023-.457-.352-.926-.828-.926-.477 0-.895.332-.922.829zm-3.241.097c.027.496.445.824.925.824.477 0 .852-.464.825-.921-.028-.497-.446-.829-.922-.829-.477 0-.852.47-.828.926zm20.605-.57a.688.688 0 0 0-.117.121.724.724 0 0 0-.094.07.665.665 0 0 0 .398 1.188h.024a.899.899 0 0 0 .695-.38.677.677 0 0 0-.906-1zm-36.973-.063a.677.677 0 0 0-.152 1.063.899.899 0 0 0 .695.379h.024a.665.665 0 0 0 .398-1.188.725.725 0 0 0-.093-.07.68.68 0 0 0-.871-.184zm29.364-1.132c-.242.418-.051.972.363 1.195a.89.89 0 0 0 .402.101.918.918 0 0 0 .79-.468c.242-.414.05-.973-.364-1.192a.843.843 0 0 0-.402-.101.923.923 0 0 0-.79.465zm-22.192-.364c-.414.219-.605.778-.363 1.192a.918.918 0 0 0 .79.468.89.89 0 0 0 .401-.101c.415-.223.606-.777.364-1.195a.922.922 0 0 0-.79-.465.843.843 0 0 0-.402.101zm14.887.325c-.238.41-.02.968.387 1.175a.864.864 0 0 0 .383.094c.32 0 .62-.184.793-.48.238-.414.023-.97-.387-1.176a.864.864 0 0 0-.383-.094.928.928 0 0 0-.793.48zm-7.566-.387c-.41.207-.625.762-.387 1.176.172.296.473.48.793.48a.864.864 0 0 0 .383-.094c.406-.207.625-.765.386-1.175a.928.928 0 0 0-.793-.481.864.864 0 0 0-.382.094zm11.683.527a.506.506 0 0 0-.176.176c-.003.004-.003.008-.007.012-.004.011-.012.02-.016.027a.442.442 0 0 0-.062.25.544.544 0 0 0 .25.5c.09.063.203.094.312.094a.537.537 0 0 0 .477-.258c.004-.008.011-.016.015-.023.008-.016.02-.032.028-.047.156-.274.011-.633-.254-.77a.552.552 0 0 0-.567.04zm-15.191-.039c-.266.137-.41.496-.254.77.008.015.02.03.027.047.004.007.012.015.016.023a.536.536 0 0 0 .476.258c.11 0 .223-.031.313-.094a.544.544 0 0 0 .25-.5.442.442 0 0 0-.063-.25c-.003-.008-.011-.016-.015-.027-.004-.004-.004-.008-.008-.012a.506.506 0 0 0-.176-.176.553.553 0 0 0-.566-.039zm29.11-1.117c-.204.355-.032.832.32 1.016a.72.72 0 0 0 .34.085.783.783 0 0 0 .675-.406c.207-.355.031-.832-.32-1.015a.72.72 0 0 0-.34-.086.796.796 0 0 0-.676.406zm-43.477-.32c-.352.183-.528.66-.32 1.015a.783.783 0 0 0 .675.406c.113 0 .23-.027.34-.086.352-.183.523-.66.32-1.015a.796.796 0 0 0-.675-.406.72.72 0 0 0-.34.086zm37.156-1.223a.72.72 0 0 0 .277.969c.11.058.223.09.34.09.25 0 .496-.133.625-.364a.716.716 0 0 0-.273-.968.685.685 0 0 0-.344-.09.723.723 0 0 0-.625.363zm-30.79-.273a.716.716 0 0 0-.273.968c.13.23.375.363.625.363.118 0 .23-.03.34-.09a.72.72 0 0 0 .278-.968.723.723 0 0 0-.625-.363.686.686 0 0 0-.344.09zm20.743-.06c-.238.411-.16.938.254 1.212.14.094.312.137.484.137.29 0 .582-.13.73-.391.24-.414.161-.941-.253-1.211a.877.877 0 0 0-.484-.14c-.29 0-.583.132-.73.394zm-10.941-.253c-.414.27-.492.797-.254 1.21.148.263.441.391.73.391a.873.873 0 0 0 .485-.136c.414-.274.492-.801.254-1.211-.149-.262-.442-.395-.73-.395a.877.877 0 0 0-.485.141zM7.91-25.34c-.316.2-.473.527-.473.867v.02a1.013 1.013 0 0 0 1.024 1.027c.344 0 .687-.164.867-.476.09-.153.137-.32.149-.485.003-.023.003-.05.003-.074 0-.027 0-.05-.003-.074a1.094 1.094 0 0 0-.149-.485c-.18-.312-.523-.476-.867-.476-.195 0-.387.05-.55.156zm-18.973.32c-.09.153-.136.317-.148.485-.004.023-.004.047-.004.074a1.11 1.11 0 0 0 .152.559c.18.312.524.476.868.476a1.015 1.015 0 0 0 1.023-1.027v-.02a1.014 1.014 0 0 0-1.023-1.023c-.344 0-.688.164-.867.477zm29.16.043a.68.68 0 0 0-.066.516.685.685 0 0 0 .067.516.76.76 0 0 0 .652.382.723.723 0 0 0 .344-.085.758.758 0 0 0 .367-.813.753.753 0 0 0-.367-.812.728.728 0 0 0-.344-.09.755.755 0 0 0-.652.386zm-38.925-.296a.753.753 0 0 0-.367.812.758.758 0 0 0 .367.813c.11.058.226.085.344.085a.76.76 0 0 0 .652-.382.686.686 0 0 0 .066-.516.681.681 0 0 0-.066-.516.756.756 0 0 0-.652-.386.728.728 0 0 0-.344.09zM4.25-26.555c-.414.274-.492.801-.254 1.211.149.262.442.39.73.39a.874.874 0 0 0 .485-.136c.414-.27.492-.797.254-1.21-.149-.263-.442-.395-.73-.395a.878.878 0 0 0-.485.14zM-7.2-26.3c-.237.414-.16.942.255 1.211.14.094.312.137.484.137.29 0 .582-.129.73-.39.239-.41.16-.938-.253-1.212a.878.878 0 0 0-.485-.14c-.289 0-.582.133-.73.394zm21.52-.344a.72.72 0 0 0-.277.97c.133.23.375.363.625.363a.729.729 0 0 0 .344-.09.716.716 0 0 0 .273-.97.718.718 0 0 0-.625-.362.672.672 0 0 0-.34.09zm-31.34.274a.716.716 0 0 0 .274.969.73.73 0 0 0 .344.09c.25 0 .492-.133.625-.364a.72.72 0 0 0-.278-.968.671.671 0 0 0-.34-.09.718.718 0 0 0-.625.363zm37.704-1.871c-.352.183-.524.66-.32 1.015a.787.787 0 0 0 .675.407.72.72 0 0 0 .34-.086c.351-.184.527-.66.32-1.016a.79.79 0 0 0-.676-.406.72.72 0 0 0-.34.086zm-44.118.32c-.207.356-.03.832.32 1.016a.72.72 0 0 0 .34.086c.27 0 .532-.153.676-.407.203-.355.032-.832-.32-1.015a.719.719 0 0 0-.34-.086.79.79 0 0 0-.676.406zM2.715-29.41c-.406.207-.625.766-.387 1.176.172.297.473.48.793.48a.864.864 0 0 0 .383-.094c.41-.207.625-.761.387-1.175a.928.928 0 0 0-.793-.48.864.864 0 0 0-.383.093zm-8.34.387c-.238.414-.023.968.387 1.175a.864.864 0 0 0 .383.094c.32 0 .62-.183.793-.48.238-.41.019-.97-.387-1.176a.864.864 0 0 0-.383-.094.928.928 0 0 0-.793.48zm15.621-.446c-.414.223-.605.778-.363 1.196a.923.923 0 0 0 .789.464.842.842 0 0 0 .402-.101c.414-.219.606-.777.363-1.192a.918.918 0 0 0-.789-.468.843.843 0 0 0-.402.101zm-22.918.367c-.242.415-.05.973.363 1.192.13.07.27.101.403.101a.922.922 0 0 0 .789-.464c.242-.418.05-.973-.363-1.196a.843.843 0 0 0-.403-.101.918.918 0 0 0-.789.468zm19.356-.246a.55.55 0 0 0-.25.504.437.437 0 0 0 .062.246c.004.012.012.02.016.028.004.004.004.008.008.011a.486.486 0 0 0 .175.18.58.58 0 0 0 .317.098c.082 0 .168-.02.25-.063.265-.136.41-.496.254-.77-.008-.015-.02-.027-.028-.042-.004-.008-.011-.016-.015-.028a.542.542 0 0 0-.475-.255.568.568 0 0 0-.314.091zm-15.391.164c-.004.012-.012.02-.016.028-.007.015-.02.027-.027.043-.156.273-.012.633.254.77a.538.538 0 0 0 .25.062.58.58 0 0 0 .316-.098.486.486 0 0 0 .176-.18c.004-.003.004-.007.008-.011.004-.008.012-.016.016-.028a.437.437 0 0 0 .062-.246.55.55 0 0 0-.25-.504.568.568 0 0 0-.314-.09.542.542 0 0 0-.475.254zm8.836-.757c.027.496.445.828.922.828.476 0 .851-.469.828-.926-.027-.496-.445-.824-.926-.824-.476 0-.851.465-.824.922zm-3.242-.098c-.024.457.351.926.828.926.476 0 .894-.332.922-.828.027-.457-.348-.922-.824-.922-.481 0-.899.328-.926.824zm20.168-.324c-.07.25.015.543.226.703.032.023.063.047.094.066a.884.884 0 0 0 .117.125.676.676 0 0 0 .426.145.693.693 0 0 0 .328-.082.677.677 0 0 0 .152-1.067.884.884 0 0 0-.695-.375h-.023c-.29 0-.551.211-.625.485zm-36.688-.11a.677.677 0 0 0 .152 1.066.693.693 0 0 0 .329.083.676.676 0 0 0 .425-.145.879.879 0 0 0 .118-.125c.03-.02.062-.043.093-.066a.665.665 0 0 0-.398-1.188h-.023a.884.884 0 0 0-.696.375zm33.164-1.066c-.32.203-.394.613-.207.934a.654.654 0 0 0 .57.312.698.698 0 0 0 .364-.101c.32-.208.394-.618.207-.938a.65.65 0 0 0-.57-.309.673.673 0 0 0-.364.102zm-29.23.207c-.188.32-.113.73.207.938.11.066.234.101.363.101.227 0 .453-.11.57-.312.188-.32.114-.73-.207-.934a.673.673 0 0 0-.363-.102.65.65 0 0 0-.57.309zm23.914-1.527c-.418.257-.52.797-.281 1.215.156.265.453.406.75.41.16 0 .324-.043.464-.133.422-.258.524-.797.282-1.215a.856.856 0 0 0-.746-.41.87.87 0 0 0-.47.133zm-18.88.277c-.241.418-.14.957.282 1.215.14.09.305.133.465.133.297-.004.594-.145.75-.41.238-.418.137-.958-.281-1.215a.87.87 0 0 0-.469-.133.856.856 0 0 0-.746.41zm13.673.082c.015.379.23.688.539.856.16.09.336.14.52.14.156 0 .316-.039.468-.117.48-.254.711-.906.43-1.39a1.134 1.134 0 0 0-.52-.47 1.139 1.139 0 0 0-.449-.09c-.559 0-1.008.524-.988 1.071zm-8.688-.98c-.21.093-.394.253-.52.468-.28.485-.05 1.137.43 1.39.153.079.313.118.47.118.183 0 .359-.05.519-.14.308-.168.523-.477.539-.856.02-.547-.43-1.07-.989-1.07-.16 0-.312.03-.449.09zm4.485.253a.55.55 0 0 0 .293.461.51.51 0 0 0 .261.075h.047a.51.51 0 0 0 .262-.075.55.55 0 0 0 .293-.46c.02-.297-.223-.606-.535-.606-.016 0-.028 0-.043.004-.016-.004-.028-.004-.043-.004-.313 0-.555.309-.535.605zm13.156-1.148c-.317.164-.473.594-.285.914.129.223.36.36.605.36a.688.688 0 0 0 .309-.075c.316-.164.469-.594.285-.914a.705.705 0 0 0-.606-.363.682.682 0 0 0-.308.078zm-26.07.285c-.184.32-.032.75.285.914.101.051.207.074.308.074a.705.705 0 0 0 .606-.359c.187-.32.031-.75-.285-.914a.682.682 0 0 0-.309-.078.705.705 0 0 0-.605.363zm30.277-1.07c-.348.18-.523.652-.32 1.008.027.05.058.093.093.133a.715.715 0 0 0 .695.484c.141 0 .282-.04.403-.117.355-.23.43-.684.227-1.035-.016-.028-.035-.051-.055-.079a.786.786 0 0 0-.707-.477.7.7 0 0 0-.336.083zm-34.578.32a.413.413 0 0 0-.035.074c-.02.028-.04.051-.055.078-.203.352-.129.805.227 1.036a.743.743 0 0 0 .402.117.715.715 0 0 0 .695-.484.677.677 0 0 0 .094-.133c.203-.356.027-.828-.32-1.008a.7.7 0 0 0-.336-.082.786.786 0 0 0-.672.402zM.23-36.37c-.02.465.368.91.848.91s.895-.355.914-.848c.016-.468-.37-.914-.851-.914-.48 0-.895.36-.91.852zm-3.957.062c.02.493.434.848.914.848.481 0 .868-.445.848-.91-.016-.492-.43-.852-.91-.852-.48 0-.867.446-.852.914zm11.614-1.433a.724.724 0 0 0-.246.976.709.709 0 0 0 .617.344c.125 0 .25-.031.36-.098a.724.724 0 0 0 .245-.976.708.708 0 0 0-.617-.344.691.691 0 0 0-.36.098zm-18.485.246a.724.724 0 0 0 .246.977c.11.066.235.097.36.097a.709.709 0 0 0 .617-.344.724.724 0 0 0-.246-.976.691.691 0 0 0-.36-.098.708.708 0 0 0-.617.344zm23.446-.828a.685.685 0 0 0-.325.683c.008.055.028.11.051.164a.68.68 0 0 0 .504.664c.05.012.106.016.156.016a.668.668 0 0 0 .59-.336.886.886 0 0 0 .016-.805.665.665 0 0 0-.644-.48.683.683 0 0 0-.348.094zm-28.25.097a.683.683 0 0 0-.176.297c-.11.262-.121.536.02.797.113.211.347.336.585.336a.72.72 0 0 0 .16-.015.68.68 0 0 0 .504-.665.662.662 0 0 0 .051-.164.685.685 0 0 0-.324-.683.683.683 0 0 0-.82.097zm20.238-.476a.716.716 0 0 0 .7.723.725.725 0 0 0 .722-.704.72.72 0 0 0-.703-.722.716.716 0 0 0-.72.703zm-12.828.02c.008.39.336.703.722.703.387 0 .707-.34.7-.723a.716.716 0 0 0-.72-.703.72.72 0 0 0-.702.722zm8.07-1.57c.016.378.336.647.703.647.371 0 .664-.347.649-.703-.016-.382-.336-.648-.703-.648-.372 0-.665.348-.649.703zm-3.242-.056c-.016.356.277.703.648.703.368 0 .688-.269.703-.648.016-.355-.277-.703-.648-.703-.367 0-.687.266-.703.648zM8.41-42.152a.742.742 0 0 0-.242 1.008.71.71 0 0 0 .414.316c.129.121.297.2.48.2a.74.74 0 0 0 .754-.712.75.75 0 0 0-.52-.726.736.736 0 0 0-.886-.086zm-19.441.086a.75.75 0 0 0-.52.726.74.74 0 0 0 .754.711.704.704 0 0 0 .48-.2.711.711 0 0 0 .415-.315.742.742 0 0 0-.243-1.008.736.736 0 0 0-.887.086zm23.402-.446c-.355.227-.437.684-.23 1.04.128.23.382.347.636.347.141 0 .282-.035.403-.113a.764.764 0 0 0 .23-1.04.727.727 0 0 0-.637-.347c-.14 0-.28.04-.402.113zm-27.516.235a.764.764 0 0 0 .23 1.039.74.74 0 0 0 .403.113c.254 0 .508-.117.637-.348.207-.355.125-.812-.23-1.039a.773.773 0 0 0-.403-.113.726.726 0 0 0-.637.348zm18.57-1.657a.875.875 0 0 0-.663.414c-.16.25-.106.594.093.805a.686.686 0 0 0 .723.156c.04-.015.074-.035.11-.05a.835.835 0 0 0 .164-.04.68.68 0 0 0-.067-1.285.68.68 0 0 0-.36 0zm-8.945 0a.687.687 0 0 0-.496.664.68.68 0 0 0 .43.622c.055.02.11.03.164.039.035.015.07.035.11.05a.686.686 0 0 0 .723-.156c.198-.21.253-.555.093-.805a.875.875 0 0 0-.664-.414.717.717 0 0 0-.36 0zm4.81.364c.41 0 .73-.387.714-.782-.02-.418-.375-.71-.781-.71-.032 0-.059.003-.09.007-.031-.004-.059-.007-.09-.007-.406 0-.762.292-.781.71-.016.395.304.782.715.782.054 0 .105-.004.156-.012.05.008.101.012.156.012zm7.347-1.446c-.016.395.308.782.718.782s.77-.297.786-.72c.02-.394-.309-.784-.72-.784-.41 0-.765.297-.784.722zm-16.512.063c.016.422.375.719.785.719.41 0 .734-.387.719-.782-.02-.425-.375-.722-.785-.722-.41 0-.739.39-.719.785z"
          transform="translate(95.867 119.464)"/>
    <path style="fill:#000;fill-opacity:1;fill-rule:nonzero;stroke:none"
          d="M0 0a8.084 8.084 0 0 1-3.129-1.281c-.86-.59-1.586-1.325-2.219-2.149-.475-.62-.843-1.317-1.152-2.036-.309.719-.677 1.416-1.152 2.036-.633.825-1.36 1.559-2.22 2.149A8.084 8.084 0 0 1-13 0c-1.023.188-2.086.125-3.102-.074-.964-.192-1.867-.613-2.691-1.137a7.89 7.89 0 0 1-2.316-2.246c-.598-.899-.985-1.902-1.207-2.957-.345-1.61-.238-3.285.106-4.895-1.221 1.103-2.618 2.032-4.188 2.54-1.024.331-2.083.503-3.16.433a7.83 7.83 0 0 1-3.102-.883c-.871-.453-1.684-1.023-2.332-1.765-.684-.778-1.266-1.668-1.614-2.645a8.026 8.026 0 0 1-.457-3.352c.079-1.039.352-2.035.75-2.996.301-.723.721-1.39 1.19-2.016-.778.092-1.566.122-2.342.02-1.031-.136-2.031-.398-2.973-.847a8.08 8.08 0 0 1-2.671-2.07c-.672-.794-1.149-1.743-1.485-2.72-.316-.933-.406-1.925-.363-2.902a7.829 7.829 0 0 1 .789-3.129c.477-.968 1.156-1.8 1.953-2.523 1.227-1.103 2.733-1.848 4.301-2.355-1.568-.508-3.074-1.253-4.3-2.356-.798-.723-1.477-1.555-1.954-2.523a7.83 7.83 0 0 1-.789-3.13c-.043-.976.047-1.968.363-2.902.336-.976.813-1.926 1.485-2.718a8.08 8.08 0 0 1 2.671-2.07c.942-.45 1.942-.712 2.973-.848.776-.102 1.564-.072 2.342.02-.469-.626-.889-1.293-1.19-2.017-.398-.96-.671-1.956-.75-2.996-.09-1.14.07-2.273.457-3.351.348-.977.93-1.867 1.614-2.645.648-.742 1.46-1.312 2.332-1.765a7.83 7.83 0 0 1 3.101-.883c1.078-.07 2.137.101 3.16.433 1.57.508 2.968 1.437 4.189 2.54-.344-1.61-.45-3.285-.106-4.895.222-1.055.609-2.059 1.207-2.957a7.887 7.887 0 0 1 2.316-2.246c.824-.524 1.727-.945 2.691-1.137 1.016-.2 2.079-.262 3.102-.074a8.085 8.085 0 0 1 3.129 1.281c.86.59 1.586 1.324 2.219 2.149.475.62.843 1.317 1.152 2.036.309-.719.677-1.416 1.152-2.036.633-.825 1.36-1.559 2.22-2.149A8.085 8.085 0 0 1 0-77.039c1.023-.188 2.086-.125 3.102.074.964.192 1.867.613 2.691 1.137a7.887 7.887 0 0 1 2.316 2.246c.598.898.985 1.902 1.207 2.957.345 1.61.238 3.285-.106 4.895 1.221-1.103 2.619-2.032 4.188-2.54 1.024-.332 2.083-.503 3.16-.433a7.83 7.83 0 0 1 3.102.883c.871.453 1.684 1.023 2.332 1.765.684.778 1.266 1.668 1.614 2.645a8.027 8.027 0 0 1 .457 3.351c-.079 1.04-.352 2.036-.75 2.996-.301.724-.721 1.39-1.19 2.017.778-.092 1.566-.122 2.342-.02 1.031.136 2.031.398 2.973.847a8.08 8.08 0 0 1 2.671 2.07c.672.794 1.149 1.743 1.485 2.72.316.933.406 1.925.363 2.902a7.83 7.83 0 0 1-.789 3.129c-.477.968-1.156 1.8-1.953 2.523-1.227 1.103-2.733 1.849-4.301 2.356 1.568.507 3.074 1.252 4.3 2.355.798.723 1.477 1.555 1.954 2.523.484.973.738 2.043.789 3.13.043.976-.047 1.968-.363 2.902-.336.976-.813 1.925-1.485 2.718a8.08 8.08 0 0 1-2.671 2.07c-.942.45-1.942.712-2.973.848-.776.102-1.564.072-2.342-.02.469.626.889 1.293 1.19 2.016.398.961.671 1.958.75 2.997a8.026 8.026 0 0 1-.457 3.351c-.348.977-.93 1.867-1.614 2.645-.648.742-1.46 1.312-2.332 1.765a7.83 7.83 0 0 1-3.101.883c-1.078.07-2.137-.101-3.16-.433-1.57-.508-2.968-1.437-4.189-2.54.344 1.61.45 3.285.106 4.895-.222 1.055-.609 2.058-1.207 2.957a7.89 7.89 0 0 1-2.316 2.246c-.824.524-1.727.945-2.691 1.137a9.472 9.472 0 0 1-1.818.186C.854.112.424.078 0 0zm2.075-1.933c.29-.041.577-.092.868-.16a8.67 8.67 0 0 0 .696-.228c.206-.09.404-.185.6-.29.31-.18.612-.372.904-.582.172-.133.335-.269.494-.413.198-.197.383-.401.558-.614.142-.189.278-.382.404-.58a7.14 7.14 0 0 0 .319-.618c.103-.244.194-.489.276-.739.088-.314.158-.629.219-.946.063-.416.101-.835.114-1.258-.005-.47-.035-.938-.084-1.408a15.062 15.062 0 0 0-.279-1.534 20.734 20.734 0 0 0-.8-2.45 21.305 21.305 0 0 0-1.118-2.313 18.07 18.07 0 0 0-.973-1.57c-.316-.446-.148-1.095.297-1.384a.996.996 0 0 1 .138-.074.987.987 0 0 1 .144-.09c.472-.238 1.12-.058 1.347.438.258.558.559 1.098.809 1.515.46.778.953 1.524 1.426 2.133.57.723 1.175 1.41 1.742 1.961.395.377.81.728 1.245 1.061.386.285.784.55 1.198.79.353.19.717.36 1.094.51.295.104.592.2.895.279.255.057.513.103.773.139.266.026.526.04.791.041a9.54 9.54 0 0 0 .745-.068c.245-.043.486-.096.728-.16.209-.068.41-.14.61-.224.318-.14.628-.297.932-.47.21-.13.41-.267.608-.413.187-.156.365-.317.54-.486.194-.209.375-.424.552-.647.18-.257.346-.514.503-.785.116-.23.224-.463.325-.7.087-.256.163-.51.23-.772.051-.261.093-.52.126-.785.012-.19.019-.377.022-.564-.014-.36-.052-.716-.103-1.076a13.067 13.067 0 0 0-.14-.651 12.37 12.37 0 0 0-.402-1.138 11.46 11.46 0 0 0-.406-.777c-.246-.38-.503-.744-.777-1.102a17.84 17.84 0 0 0-1.082-1.178c-.202-.19-.408-.375-.616-.558a19.108 19.108 0 0 1-3.032-1.38c-.433-.237-.863-.499-1.27-.788-.433-.305-.93-.719-.769-1.328.05-.184.133-.339.247-.463.05-.162.143-.313.28-.447.446-.442 1.055-.22 1.536 0 .453.207.89.449 1.32.707a19.22 19.22 0 0 1 2.711 1.938c.223.075.446.148.66.214l.012.003.023.007c.548.153 1.1.282 1.662.377.427.055.855.094 1.285.117.319.002.634-.01.953-.037a11.82 11.82 0 0 0 1.165-.219c.216-.064.426-.133.521-.158.382-.15.75-.316 1.112-.505.166-.101.326-.206.486-.313.22-.167.43-.344.64-.529.18-.18.356-.367.523-.565.147-.198.288-.398.422-.605.152-.265.29-.533.418-.809.109-.265.205-.529.287-.8.06-.238.112-.473.155-.716a8.96 8.96 0 0 0 .054-.763 11.16 11.16 0 0 0-.055-1.022 8.96 8.96 0 0 0-.116-.651 7.73 7.73 0 0 0-.221-.7c-.1-.24-.208-.47-.295-.647l-.034-.058-.002-.004a9.11 9.11 0 0 0-.372-.578 8.672 8.672 0 0 0-.538-.643 12.954 12.954 0 0 0-.655-.616 10.59 10.59 0 0 0-1.01-.711c-.414-.241-.838-.452-1.274-.645-.511-.213-1.03-.4-1.559-.557a20.86 20.86 0 0 0-2.458-.512 20.603 20.603 0 0 0-2.559-.188c-.617-.008-1.234 0-1.847.055-.543.05-1.024-.418-1.051-.946a1.002 1.002 0 0 1 .004-.164 1.003 1.003 0 0 1-.004-.164c.027-.527.508-.996 1.05-.945.614.055 1.231.063 1.81.057.872-.014 1.733-.069 2.575-.186a21.044 21.044 0 0 0 2.48-.517c.53-.156 1.048-.343 1.559-.556.436-.193.86-.404 1.275-.645.349-.216.684-.453.903-.63.265-.22.52-.452.76-.697.19-.206.37-.42.539-.643.131-.19.255-.38.346-.527a9.47 9.47 0 0 0 .028-.055l.004-.007c.117-.228.225-.459.325-.699.084-.23.159-.462.221-.699.048-.216.084-.432.116-.651.035-.343.052-.68.055-1.022a8.959 8.959 0 0 0-.054-.763 10.438 10.438 0 0 0-.155-.716 8.644 8.644 0 0 0-.287-.8 10.084 10.084 0 0 0-.418-.81 10.939 10.939 0 0 0-.422-.604 8.94 8.94 0 0 0-.523-.565c-.21-.185-.42-.362-.64-.53-.16-.107-.32-.21-.486-.312-.362-.19-.73-.356-.995-.458a18.74 18.74 0 0 0-.638-.205 11.79 11.79 0 0 0-1.165-.219c-.319-.028-.634-.04-.953-.037-.43.023-.858.062-1.285.117-.562.095-1.114.224-1.568.348l-.117.036c-.226.07-.45.142-.672.217l-.18.153a19.211 19.211 0 0 1-2.531 1.785c-.43.258-.867.5-1.32.707-.48.219-1.09.442-1.536 0a1.055 1.055 0 0 1-.28-.447 1.085 1.085 0 0 1-.247-.463c-.16-.61.336-1.023.77-1.328.406-.29.836-.55 1.27-.79a19.097 19.097 0 0 1 3.031-1.378c.208-.183.414-.368.616-.558.377-.378.739-.766 1.082-1.178.274-.358.531-.723.777-1.102.145-.254.28-.512.406-.777.152-.375.287-.752.402-1.138.053-.214.098-.433.14-.651.051-.36.089-.716.104-1.076-.004-.187-.01-.374-.023-.564a11.224 11.224 0 0 0-.127-.785 9.661 9.661 0 0 0-.23-.772c-.1-.238-.207-.47-.324-.7-.156-.271-.323-.529-.503-.785a11.05 11.05 0 0 0-.551-.647 10.3 10.3 0 0 0-.54-.486 8.501 8.501 0 0 0-.61-.412c-.303-.174-.613-.33-.931-.471a8.347 8.347 0 0 0-.61-.225 9.086 9.086 0 0 0-.728-.16 9.54 9.54 0 0 0-.745-.067 8.34 8.34 0 0 0-.79.04c-.261.037-.519.083-.774.14-.303.08-.6.175-.895.28-.377.15-.74.319-1.094.508-.414.241-.812.506-1.198.79-.436.334-.85.685-1.151.968a20.465 20.465 0 0 0-1.754 1.953 21.373 21.373 0 0 0-1.446 2.121c-.312.531-.613 1.07-.87 1.629-.227.496-.876.676-1.348.438a.987.987 0 0 1-.144-.09.995.995 0 0 1-.138-.074c-.445-.29-.613-.938-.297-1.383.356-.504.672-1.035.956-1.538.423-.763.806-1.538 1.12-2.306.32-.814.597-1.64.815-2.49.12-.507.212-1.017.279-1.534.049-.47.08-.938.084-1.408-.013-.423-.05-.842-.114-1.258a11.44 11.44 0 0 0-.219-.946c-.082-.25-.173-.495-.221-.622a8.31 8.31 0 0 0-.374-.734 9.202 9.202 0 0 0-.404-.58 8.561 8.561 0 0 0-.558-.615 8.35 8.35 0 0 0-.494-.413c-.292-.21-.593-.403-.904-.582a8.708 8.708 0 0 0-.6-.29 8.67 8.67 0 0 0-.696-.228 9.911 9.911 0 0 0-.868-.16 8.153 8.153 0 0 0-.864-.042 9.133 9.133 0 0 0-.848.075c-.242.048-.483.106-.723.173-.263.089-.521.185-.779.295-.17.084-.338.173-.396.195-.375.234-.727.488-.969.683-.164.14-.322.285-.48.431-.285.297-.55.607-.803.934-.173.253-.334.507-.486.771-.202.393-.384.789-.553 1.194-.2.545-.368 1.096-.479 1.53-.063.269-.122.538-.175.809l.043.234c.18 1.02.261 2.055.277 3.086.008.496 0 1-.047 1.496-.05.527-.16 1.164-.766 1.328a1.068 1.068 0 0 1-.527.018 1.068 1.068 0 0 1-.527-.018c-.606-.164-.715-.8-.766-1.328-.047-.496-.055-1-.047-1.496a19.484 19.484 0 0 1 .32-3.32c-.053-.27-.111-.54-.14-.68a17.77 17.77 0 0 0-.514-1.659c-.169-.405-.35-.801-.553-1.194a11.564 11.564 0 0 0-.486-.77 11.284 11.284 0 0 0-.804-.935c-.157-.146-.315-.292-.377-.352a10.734 10.734 0 0 0-.961-.692 12.137 12.137 0 0 0-.506-.265 10.73 10.73 0 0 0-.78-.295c-.24-.067-.48-.125-.722-.173a13.882 13.882 0 0 0-.711-.075 9.053 9.053 0 0 0-1 .043c-.29.04-.578.091-.869.159a8.67 8.67 0 0 0-.696.228c-.206.09-.404.185-.6.29-.31.18-.612.372-.904.582a8.35 8.35 0 0 0-.494.413 8.561 8.561 0 0 0-.558.614 9.202 9.202 0 0 0-.404.58 7.14 7.14 0 0 0-.319.618 9.426 9.426 0 0 0-.276.739c-.088.314-.158.629-.219.946-.063.416-.101.835-.113 1.258.004.47.034.938.083 1.408.067.517.16 1.027.279 1.534.218.85.495 1.676.8 2.45.329.808.712 1.583 1.118 2.313.3.536.617 1.067.973 1.57.316.446.148 1.094-.297 1.384a.995.995 0 0 1-.138.074.987.987 0 0 1-.144.09c-.472.238-1.12.058-1.347-.438a16.547 16.547 0 0 0-.809-1.516 21.28 21.28 0 0 0-1.426-2.132 20.593 20.593 0 0 0-1.742-1.961c-.395-.377-.81-.728-1.245-1.061-.385-.285-.784-.55-1.198-.79-.353-.19-.717-.36-1.094-.51-.294-.104-.592-.2-.895-.279a9.342 9.342 0 0 0-.773-.14 8.34 8.34 0 0 0-.791-.04 9.54 9.54 0 0 0-.745.067 9.086 9.086 0 0 0-.728.16c-.208.07-.41.141-.61.225-.318.14-.628.297-.932.47-.21.13-.41.267-.608.413a10.3 10.3 0 0 0-.54.486 11.05 11.05 0 0 0-.552.647c-.18.256-.346.514-.503.784-.117.232-.224.463-.325.7-.087.257-.163.51-.23.773-.051.261-.093.52-.126.785-.012.19-.019.377-.023.564.015.36.053.716.104 1.076.042.218.087.437.14.651.115.386.25.763.402 1.138.126.265.26.523.406.777.246.38.503.744.777 1.102.343.412.705.8 1.082 1.178.202.19.408.375.616.558l.22.078c.972.352 1.91.797 2.812 1.3.433.24.863.5 1.27.79.433.305.93.719.769 1.328a1.085 1.085 0 0 1-.247.463c-.05.162-.143.313-.28.447-.446.442-1.055.219-1.536 0-.453-.207-.89-.449-1.32-.707a19.211 19.211 0 0 1-2.711-1.938 24.206 24.206 0 0 0-.66-.214l-.012-.003-.023-.007c-.548-.153-1.1-.282-1.662-.377a17.062 17.062 0 0 0-1.285-.117c-.319-.002-.634.01-.953.037a11.79 11.79 0 0 0-1.165.219c-.216.064-.426.133-.521.158-.382.15-.75.316-1.112.505-.166.101-.326.206-.486.313-.22.167-.43.344-.64.529a8.94 8.94 0 0 0-.523.565c-.147.198-.288.398-.422.605-.152.265-.29.533-.418.809a8.644 8.644 0 0 0-.287.8c-.06.237-.111.473-.155.716-.03.255-.047.507-.054.763.003.342.02.68.055 1.022.032.219.068.435.116.651.062.237.137.47.221.7.1.24.208.47.295.647l.034.058.002.003c.117.2.241.39.372.579.17.223.349.437.538.643.242.245.496.476.655.615.325.259.66.496 1.01.712.414.241.838.452 1.275.645.51.213 1.029.4 1.558.556.814.225 1.643.391 2.458.513.864.121 1.725.176 2.559.188.617.008 1.234 0 1.847-.055.543-.05 1.024.418 1.051.945.003.056.002.111-.004.164.006.054.007.108.004.164-.027.528-.508.997-1.05.946a18.565 18.565 0 0 0-1.81-.057c-.872.014-1.733.069-2.575.186-.837.126-1.666.292-2.48.516-.53.157-1.048.344-1.558.557-.437.193-.861.404-1.276.645a9.764 9.764 0 0 0-.903.63c-.265.22-.52.452-.76.697-.19.206-.37.42-.539.643-.131.189-.255.38-.346.527l-.028.055-.004.007c-.117.227-.225.459-.325.699a7.73 7.73 0 0 0-.221.699 8.96 8.96 0 0 0-.116.65c-.034.344-.052.681-.055 1.023.007.256.025.508.054.763.044.243.095.479.155.716.082.271.178.535.287.8.127.276.266.544.418.81.134.206.275.406.422.604.167.198.342.385.523.565.21.185.42.362.64.529.16.107.32.212.486.313.362.19.73.356.995.458.212.072.422.14.638.205.387.093.772.166 1.165.219.319.028.634.04.953.037.43-.023.858-.062 1.285-.117a16.556 16.556 0 0 0 1.568-.348l.117-.036c.226-.07.45-.142.672-.217l.18-.153a19.22 19.22 0 0 1 2.531-1.785c.43-.258.867-.5 1.32-.707.48-.22 1.09-.442 1.536 0 .137.134.23.285.28.447.114.124.198.279.247.463.16.61-.336 1.023-.77 1.328-.406.289-.836.55-1.27.789a19.108 19.108 0 0 1-3.031 1.38c-.208.182-.414.367-.616.557a17.84 17.84 0 0 0-1.082 1.178c-.274.358-.531.723-.777 1.102-.145.254-.28.512-.406.777a12.37 12.37 0 0 0-.402 1.138c-.053.214-.098.433-.14.65-.051.361-.089.717-.104 1.077.004.187.01.374.023.564.033.264.075.524.127.785.066.262.142.516.23.772.1.237.207.47.324.7.156.271.323.528.503.785.177.223.358.438.551.647.176.169.354.33.54.486.199.146.399.283.61.412.303.174.613.33.931.471.2.084.401.156.61.224.242.064.483.117.728.16.247.032.495.056.745.068a8.34 8.34 0 0 0 .79-.041c.261-.036.519-.082.774-.14.303-.079.6-.174.895-.279.377-.15.74-.319 1.094-.508.414-.241.813-.506 1.198-.79.436-.334.85-.685 1.152-.968a20.465 20.465 0 0 0 1.753-1.953 21.366 21.366 0 0 0 1.446-2.121c.312-.531.613-1.07.87-1.63.227-.495.876-.675 1.348-.437.052.027.1.057.144.09.047.02.093.045.138.074.445.29.613.938.297 1.383a17.977 17.977 0 0 0-.955 1.538 21.69 21.69 0 0 0-1.12 2.306c-.321.814-.598 1.64-.816 2.49-.12.507-.212 1.017-.279 1.534-.049.47-.08.938-.084 1.408.013.423.05.842.114 1.258.06.317.131.632.219.946.082.25.173.495.221.622.113.251.237.496.374.734.126.199.262.392.404.58.175.214.36.418.558.615.16.144.322.28.494.413.292.21.593.403.904.582.196.104.394.2.6.29.23.087.461.161.696.228.29.068.578.119.868.16.333.033.664.046.864.042.286-.011.565-.038.848-.075.242-.048.483-.106.723-.173.263-.089.521-.185.779-.295.17-.084.338-.173.396-.195.375-.234.727-.488.969-.684.164-.138.322-.284.48-.43.285-.297.55-.607.803-.934.173-.253.334-.507.486-.771.202-.393.384-.789.553-1.194.2-.545.368-1.096.479-1.53.063-.269.122-.539.175-.809a19.486 19.486 0 0 1-.32-3.32c-.008-.496 0-1 .047-1.496.05-.527.16-1.164.766-1.328.185-.051.361-.056.527-.018.165-.038.342-.033.527.018.606.164.715.8.766 1.328.047.496.055 1 .047 1.496a19.486 19.486 0 0 1-.32 3.32c.053.27.111.54.14.68.146.563.315 1.114.514 1.659.169.405.35.801.553 1.194.152.264.313.518.486.77.253.328.518.638.804.935.157.146.315.292.377.352.344.274.696.528.961.692.168.092.336.181.506.265.258.11.516.206.78.295.24.067.48.125.722.173.283.037.562.064.711.075.337.004.668-.01 1-.043z"
          transform="translate(101.5 133.52)"/>
    <path style="fill:#000;fill-opacity:1;fill-rule:nonzero;stroke:none" d="M0 0z"
          transform="translate(95.98 119.992)"/>
    <path style="fill:#000;fill-opacity:1;fill-rule:nonzero;stroke:none" d="M0 0z"
          transform="translate(94.02 119.993)"/>
    <path style="fill:#000;fill-opacity:1;fill-rule:nonzero;stroke:none" d="M0 0z"
          transform="translate(95.98 119.992)"/>
    <path style="fill:#000;fill-opacity:1;fill-rule:nonzero;stroke:none" d="M0 0z"
          transform="translate(94.02 119.993)"/>
    <path style="fill:#000;fill-opacity:1;fill-rule:nonzero;stroke:none" d="m0 0 .024.006L0 0z"
          transform="translate(121.762 109.105)"/>
    <path style="fill:#000;fill-opacity:1;fill-rule:nonzero;stroke:none" d="m0 0-.024.007L0 0z"
          transform="translate(68.239 109.105)"/>
    <path style="fill:#000;fill-opacity:1;fill-rule:nonzero;stroke:none" d="m0 0 .01-.001L0 0z"
          transform="translate(116.145 108.345)"/>
    <path style="fill:#000;fill-opacity:1;fill-rule:nonzero;stroke:none" d="m0 0 .01.001h.001L0 0z"
          transform="translate(73.844 108.344)"/>
    <path style="fill:#000;fill-opacity:1;fill-rule:nonzero;stroke:none" d="m0 0 .002.003.003.007L0 0z"
          transform="translate(130.745 100.505)"/>
    <path style="fill:#000;fill-opacity:1;fill-rule:nonzero;stroke:none" d="m0 0 .002-.003-.006.01L0 0z"
          transform="translate(59.253 100.508)"/>
    <path style="fill:#000;fill-opacity:1;fill-rule:nonzero;stroke:none" d="m0 0-.004.007-.001.003L0 0z"
          transform="translate(130.75 89.485)"/>
    <path style="fill:#000;fill-opacity:1;fill-rule:nonzero;stroke:none" d="m0 0-.004-.007.006.01A.054.054 0 0 1 0 0z"
          transform="translate(59.253 89.492)"/>
    <path style="fill:#000;fill-opacity:1;fill-rule:nonzero;stroke:none" d="m0 0 .01.001L0 0zM0 0l.01.001L0 0z"
          transform="translate(116.145 81.655)"/>
    <path style="fill:#000;fill-opacity:1;fill-rule:nonzero;stroke:none" d="m0 0 .01-.001L0 0zM0 0l.011-.001L0 0z"
          transform="translate(73.844 81.656)"/>
    <path style="fill:#000;fill-opacity:1;fill-rule:nonzero;stroke:none" d="m0 0 .024-.006L0 0z"
          transform="translate(121.762 80.895)"/>
    <path style="fill:#000;fill-opacity:1;fill-rule:nonzero;stroke:none" d="m0 0 .024.006L0 0z"
          transform="translate(68.215 80.889)"/>
    <path style="fill:#000;fill-opacity:1;fill-rule:nonzero;stroke:none" d="M0 0z" transform="translate(95.98 70.008)"/>
    <path style="fill:#000;fill-opacity:1;fill-rule:nonzero;stroke:none" d="M0 0z" transform="translate(94.02 70.008)"/>
    <path style="fill:#000;fill-opacity:1;fill-rule:nonzero;stroke:none"
          d="M0 0c-.144-.129-.184-.328-.23-.504-.075-.273-.141-.55-.204-.828-.148-.633-.289-1.27-.433-1.906-.149-.664-.293-1.324-.445-1.985-.06-.265.144-.535.402-.586a.506.506 0 0 1 .582.403c.117.515.23 1.027.347 1.543.215.969.422 1.941.665 2.902L.682-.965c.03.12.06.243.1.362a.436.436 0 0 1 .054.209c0 .023-.004.046-.004.07A.495.495 0 0 1 .335.13.49.49 0 0 1 0 0z"
          transform="translate(101.71 123.121)"/>
    <path style="fill:#000;fill-opacity:1;fill-rule:nonzero;stroke:none"
          d="M0 0a.495.495 0 0 1-.344-.43c0-.023-.004-.047-.004-.07 0-.075.02-.146.054-.209.04-.118.07-.242.1-.362l-.001.005C.047-2.027.254-3 .469-3.97c.117-.515.23-1.027.347-1.543a.506.506 0 0 1 .582-.402c.258.05.461.32.403.586-.153.66-.297 1.32-.446 1.984-.144.637-.285 1.274-.433 1.906-.063.278-.129.555-.203.829-.047.175-.086.375-.23.503A.49.49 0 0 1 0 0z"
          transform="translate(87.8 123.227)"/>
    <path style="fill:#000;fill-opacity:1;fill-rule:nonzero;stroke:none"
          d="M0 0a.467.467 0 0 1-.21-.175 3.872 3.872 0 0 0-.267-.27c-.71-.692-1.449-1.356-2.183-2.028-.387-.359-.774-.71-1.16-1.07-.2-.188-.239-.492-.055-.707.168-.2.504-.242.703-.055.496.461.996.918 1.496 1.38.48.44.961.882 1.438 1.327.207.192.414.387.613.59.129.13.281.262.324.45a.515.515 0 0 1-.156.48.523.523 0 0 1-.34.128A.422.422 0 0 1 0 0z"
          transform="translate(115.3 115.43)"/>
    <path style="fill:#000;fill-opacity:1;fill-rule:nonzero;stroke:none"
          d="M0 0a.515.515 0 0 1-.156-.48c.043-.188.195-.32.324-.45.2-.203.406-.398.613-.59.477-.445.957-.886 1.438-1.328.5-.46 1-.918 1.496-1.379.2-.187.535-.144.703.055.184.215.144.52-.055.707-.386.36-.773.711-1.16 1.07-.734.672-1.472 1.336-2.137 1.98C.96-.31.85-.207.754-.096a.438.438 0 0 1-.211.175.422.422 0 0 1-.203.05A.523.523 0 0 1 0 0z"
          transform="translate(74.156 115.352)"/>
    <path style="fill:#000;fill-opacity:1;fill-rule:nonzero;stroke:none"
          d="M0 0a27.74 27.74 0 0 1-.816-.234c-.625-.192-1.247-.387-1.872-.582-.644-.204-1.292-.407-1.94-.606-.259-.082-.391-.39-.302-.64.094-.266.375-.383.637-.305.504.156 1.004.316 1.508.473.95.296 1.894.605 2.785.859.137.037.276.079.416.11.074.001.147.02.213.058l.059.035a.508.508 0 0 1 .203.516.51.51 0 0 1-.494.394C.263.078.127.034 0 0z"
          transform="translate(122.156 103.195)"/>
    <path style="fill:#000;fill-opacity:1;fill-rule:nonzero;stroke:none"
          d="M0 0a.51.51 0 0 1-.34-.371.508.508 0 0 1 .203-.516l.059-.035A.434.434 0 0 1 .135-.98c.14-.03.28-.073.353-.09.953-.274 1.899-.582 2.848-.88.504-.156 1.004-.316 1.508-.472.261-.078.543.04.636.305.09.25-.043.558-.3.64-.649.2-1.297.403-1.942.606-.625.195-1.246.39-1.87.582-.27.082-.544.16-.817.234C.424-.02.287.023.154.023A.491.491 0 0 1 0 0z"
          transform="translate(67.293 103.25)"/>
    <path style="fill:#000;fill-opacity:1;fill-rule:nonzero;stroke:none"
          d="M0 0c-.09-.25.043-.559.3-.64.65-.2 1.298-.403 1.942-.606.625-.195 1.246-.39 1.871-.582.27-.082.543-.16.817-.234.175-.047.37-.114.55-.055.172.055.301.199.34.37.04.188-.039.411-.203.517l-.058.035a.434.434 0 0 1-.213.058c-.14.03-.28.073-.354.09-.953.274-1.898.582-2.848.879-.503.156-1.003.316-1.507.473a.565.565 0 0 1-.162.024A.493.493 0 0 1 0 0z"
          transform="translate(117.227 88.867)"/>
    <path style="fill:#000;fill-opacity:1;fill-rule:nonzero;stroke:none"
          d="M0 0c-.504-.156-1.004-.316-1.508-.473-.949-.296-1.894-.605-2.785-.859-.137-.037-.276-.079-.416-.11a.434.434 0 0 1-.213-.058l-.059-.035a.508.508 0 0 1-.203-.516.51.51 0 0 1 .34-.37c.18-.06.375.007.551.054.274.074.547.152.816.234.625.192 1.246.387 1.871.582.645.203 1.293.406 1.942.606.258.082.39.39.3.64a.493.493 0 0 1-.474.329A.566.566 0 0 1 0 0z"
          transform="translate(72.137 89.172)"/>
    <path style="fill:#000;fill-opacity:1;fill-rule:nonzero;stroke:none"
          d="M0 0c-.184-.215-.144-.52.055-.707.386-.36.773-.711 1.16-1.07.734-.672 1.472-1.336 2.137-1.98.106-.104.216-.207.312-.318a.437.437 0 0 1 .211-.175c.172-.094.402-.047.543.078a.515.515 0 0 1 .156.48c-.043.188-.195.32-.324.45-.2.203-.406.398-.613.59-.477.445-.957.886-1.438 1.328-.5.46-1 .918-1.496 1.379a.454.454 0 0 1-.314.12A.513.513 0 0 1 0 0z"
          transform="translate(111.426 78.82)"/>
    <path style="fill:#000;fill-opacity:1;fill-rule:nonzero;stroke:none"
          d="M0 0c-.496-.46-.996-.918-1.496-1.379-.48-.441-.961-.883-1.438-1.328a17.353 17.353 0 0 1-.613-.59c-.129-.129-.281-.262-.324-.45a.515.515 0 0 1 .156-.48c.14-.125.371-.171.543-.078a.45.45 0 0 1 .211.175c.097.111.206.214.266.27.71.692 1.449 1.356 2.183 2.028.387.36.774.71 1.16 1.07.2.188.239.493.055.707A.513.513 0 0 1 .315.12.454.454 0 0 1 0 0z"
          transform="translate(77.871 78.875)"/>
    <path style="fill:#000;fill-opacity:1;fill-rule:nonzero;stroke:none"
          d="M0 0c-.258-.05-.46-.32-.402-.586.152-.66.297-1.32.445-1.984.144-.637.285-1.274.434-1.907.062-.277.128-.554.203-.828.047-.176.086-.375.23-.504a.496.496 0 0 1 .488-.105.495.495 0 0 1 .344.43c0 .023.004.047.004.07 0 .075-.02.146-.054.209-.04.118-.07.241-.1.362l.002-.005c-.242.961-.45 1.934-.664 2.903C.812-1.43.7-.918.582-.402A.51.51 0 0 1 0 0z"
          transform="translate(100.8 72.688)"/>
    <path style="fill:#000;fill-opacity:1;fill-rule:nonzero;stroke:none"
          d="M0 0c-.388-1.67-.72-3.374-1.164-5.012-.035-.428.528-.697.836-.394C.37-3.791.505-1.896.984-.184 1.106.446.12.646 0 0z"
          transform="translate(88.617 72.285)"/></g>
</svg>
