<?xml version="1.0" encoding="utf-8"?>
<!-- Generator: Adobe Illustrator 23.0.0, SVG Export Plug-In . SVG Version: 6.00 Build 0)  -->
<svg version="1.1" id="Слой_1" xmlns="http://www.w3.org/2000/svg" xmlns:xlink="http://www.w3.org/1999/xlink" x="0px" y="0px"
	 viewBox="0 0 100 21.28" style="enable-background:new 0 0 100 21.28;" xml:space="preserve">
<path d="M96.3,18.86c-0.13-0.2-0.19-0.32-0.29-0.5c-0.74-1.3-1.39-2.48-2.14-3.82c-0.75-1.34-1.5-2.68-2.29-4.1
	s-1.76-3.04-2.52-4.52c-0.45-0.87-0.8-1.65-1.24-2.55c-0.27-0.56-0.74-1.94-1.55-1.16c-0.52,0.49-0.85,1.27-1.28,1.88
	c-0.01,0.02-0.13,0.31-0.19,0.29c-0.06-0.03-0.15-0.15-0.28-0.28c-0.67-0.67-1.5-1.54-2.21-2.17c-0.25-0.23-0.51-0.2-0.69,0.01
	c-0.18,0.21-0.32,0.39,0.02,0.73c0.34,0.34,1.16,1.19,1.55,1.6c0.38,0.41,0.65,0.68,1,1.07C83.79,5.86,83.4,6.46,83,6.95
	c-0.06,0.07-0.11,0.27-0.16,0.21c-0.61-0.62-1.12-1.25-1.77-1.95c-0.65-0.69-1.56-1.67-2.24-2.32c-0.3-0.28-0.47-0.46-0.67-0.64
	c-0.2-0.19-0.11-0.14-0.31-0.29c-0.2-0.15-0.52-0.12-0.7,0.1c-0.19,0.22-0.11,0.52,0.05,0.69s0.2,0.2,0.34,0.35
	c1.27,1.27,2.57,2.66,3.76,3.98c0.35,0.4,0.55,0.62,0.88,0.99c-0.46,0.59-0.91,1.19-1.36,1.79c-0.42-0.49-0.8-0.94-1.22-1.44
	c-1-1.16-1.85-2.13-2.96-3.33c-0.53-0.58-1.51-1.68-2.12-2.26c-0.33-0.32-0.6-0.59-0.85-0.83c-0.25-0.24-0.51-0.18-0.71,0
	S72.7,2.44,72.92,2.7s0.28,0.28,0.64,0.66c0.36,0.38,1.35,1.45,1.76,1.89c1.07,1.15,2,2.16,2.99,3.29c0.64,0.74,1.24,1.44,1.87,2.17
	c-0.52,0.64-1.03,1.41-1.54,2c-0.06,0.07-0.11-0.12-0.17-0.19c-0.87-1.03-1.63-2.02-2.53-3.11s-1.92-2.3-2.87-3.4
	c-0.51-0.59-1.07-1.26-1.56-1.85c-0.49-0.59-1.29-1.66-1.66-2.1c-0.37-0.44-0.49-0.23-0.74-0.1c-0.25,0.14-0.23,0.44-0.04,0.7
	c0.56,0.74,1.58,2.03,2.11,2.68c1.1,1.35,2.08,2.47,3.08,3.68c1.01,1.21,1.85,2.24,2.81,3.42c0.32,0.4,0.62,0.76,0.94,1.15
	c-0.49,0.65-0.97,1.31-1.45,1.97c-0.63-0.77-1.22-1.5-1.85-2.28c-0.95-1.16-1.77-2.16-2.78-3.36c-1.01-1.2-2.15-2.6-3.17-3.9
	c-1.03-1.3-2.1-2.67-3.15-3.98c-0.01-0.01,0,0-0.02-0.03c-0.04-0.04,0.07,0.06-0.04-0.05c-0.11-0.11-0.47-0.21-0.68-0.02
	s-0.17,0.52-0.05,0.68c0.12,0.16,0.15,0.19,0.24,0.3c1.19,1.49,2.65,3.36,3.75,4.75c1.1,1.39,2,2.46,3.02,3.69s1.86,2.27,2.83,3.46
	c0.44,0.54,0.84,1.05,1.28,1.59c-0.43,0.56-0.85,1.15-1.28,1.69c-0.02,0.02-0.03-0.04-0.05-0.06c-0.72-0.94-1.44-1.91-2.16-2.86
	c-0.92-1.2-1.82-2.38-2.75-3.58c-1.39-1.78-2.74-3.59-4.11-5.4c-0.49-0.65-0.98-1.3-1.49-1.96c-0.24-0.31-0.43-0.58-0.71-0.93
	c-0.28-0.35-0.54-0.85-1.11-0.46c-0.1,0.07-0.61,0.51-0.61,0.7c-0.32-0.59-1.73-2.45-2.37-2.02c-0.64,0.43,0.61,1.4,0.88,1.74
	c0.26,0.33,0.66,0.77,0.91,1.13c-0.28,0.41-0.57,0.81-0.85,1.21c-0.37-0.45-0.73-0.88-1.1-1.33c-0.81-0.97-1.59-1.95-2.43-2.91
	c-0.17-0.2-0.49-0.21-0.7-0.02c-0.2,0.19-0.2,0.48-0.03,0.69c0.73,0.89,1.46,1.76,2.19,2.65c0.48,0.59,0.97,1.18,1.46,1.77
	c-0.37,0.52-0.73,1.04-1.1,1.55c-0.01,0.02-0.02,0.06-0.04,0.05c-0.69-0.84-1.37-1.71-2.06-2.57c-0.11-0.13-0.22-0.28-0.33-0.42
	c-0.11-0.14-0.22-0.28-0.34-0.42c-0.51-0.64-1.01-1.25-1.52-1.9c-0.25-0.32-0.48-0.58-0.76-0.94c-0.28-0.36-0.69-1.13-1.26-0.71
	c-0.18,0.13-0.21,0.41-0.12,0.61c0.09,0.2,0.21,0.26,0.38,0.44c0.16,0.18,0.22,0.25,0.45,0.53c0.22,0.28,0.59,0.76,0.88,1.13
	c0.49,0.62,1.02,1.29,1.55,1.93c0.09,0.11,0.21,0.26,0.33,0.42c0.72,0.9,1.48,1.85,2.2,2.76c-0.5,0.7-0.99,1.41-1.49,2.09
	c-0.01,0.01-0.02-0.03-0.03-0.04c-0.84-1.1-1.76-2.31-2.57-3.4c-0.82-1.08-1.6-2.1-2.38-3.14c-0.44-0.58-0.94-1.22-1.32-1.73
	c-0.38-0.51-0.72-1.02-1-1.43c-0.29-0.41-0.63-0.7-0.97-0.48s-0.34,0.37-0.1,0.75c0.23,0.38,0.8,1.12,1.13,1.56
	c0.83,1.12,1.63,2.15,2.48,3.27c0.85,1.13,1.77,2.33,2.63,3.47c0.5,0.67,1.02,1.36,1.53,2.02c-0.54,0.76-1.08,1.52-1.61,2.27
	c-0.01,0.01-0.02,0.05-0.03,0.04c-0.7-0.96-1.23-1.72-1.96-2.74c-0.73-1.02-1.59-2.22-2.37-3.32c-0.79-1.1-1.54-2.16-2.38-3.33
	c-0.84-1.17-1.81-2.58-2.68-3.8c-0.17-0.23-0.45-0.28-0.69-0.13C43.79,1,43.78,1.35,43.89,1.53c0.11,0.18,0.19,0.28,0.29,0.41
	c0.92,1.29,1.99,2.83,2.86,4.05s1.52,2.12,2.33,3.27s1.63,2.28,2.45,3.43c0.57,0.79,1.12,1.58,1.69,2.37
	c-0.63,0.88-1.25,1.77-1.88,2.65c-0.52-0.75-1.04-1.49-1.56-2.24c-1.19-1.71-2.33-3.36-3.53-5.09c-1.2-1.73-2.49-3.59-3.69-5.32
	c-0.37-0.54-0.82-1.19-1.14-1.64c-0.31-0.44-0.47-0.64-0.72-1c-0.25-0.36-0.28-0.69-0.62-0.97c-0.34-0.28-0.61-0.04-0.88,0.3
	s-0.66,0.83-0.95,1.19c-0.08,0.1-0.22,0.29-0.27,0.34c-0.05,0.04-0.04-0.03-0.06-0.05c-0.62-0.74-1.19-1.53-1.82-2.28
	C36.2,0.74,35.9,0.7,35.69,0.88c-0.21,0.18-0.24,0.46-0.07,0.69c0.17,0.23,0.37,0.47,0.55,0.7c0.47,0.6,0.96,1.21,1.44,1.82
	c-0.54,0.68-1.08,1.36-1.63,2.03c-0.36-0.51-0.76-1.06-1.12-1.55c-0.8-1.1-1.54-2.15-2.35-3.27c-0.01-0.02,0.02,0-0.09-0.11
	c-0.1-0.11-0.46-0.23-0.68-0.05s-0.16,0.55-0.09,0.67s0.04,0.06,0.05,0.08c0.47,0.67,0.85,1.19,1.34,1.86
	c0.69,0.96,1.47,2.02,2.16,3c0.04,0.06,0.14,0.08,0.14,0.13s-0.11,0.14-0.16,0.22c-0.57,0.72-1.16,1.45-1.74,2.17
	c-0.41-0.54-0.84-1.09-1.26-1.63c-0.93-1.21-1.92-2.49-2.84-3.67c-0.46-0.59-1.04-1.36-1.41-1.83c-0.37-0.47-0.56-0.78-0.83-1.1
	s-0.47-0.23-0.71-0.08c-0.24,0.15-0.23,0.48-0.07,0.69c0.61,0.79,1.13,1.49,1.76,2.3c0.89,1.17,1.87,2.41,2.79,3.61
	c0.64,0.82,1.29,1.68,1.93,2.51c-0.66,0.83-1.32,1.65-1.99,2.48c-0.54-0.77-1.1-1.57-1.64-2.33c-0.77-1.1-1.6-2.27-2.36-3.34
	c-0.76-1.07-1.56-2.21-2.26-3.2s-1.2-1.72-1.89-2.65c-0.16-0.22-0.45-0.29-0.68-0.13s-0.29,0.46-0.14,0.69
	c0.66,0.96,1.22,1.71,1.93,2.71c0.7,1,1.5,2.14,2.26,3.21s1.59,2.25,2.37,3.35c0.58,0.82,1.18,1.67,1.76,2.5
	c-0.16,0.2-0.31,0.39-0.47,0.59c-0.38,0.47-0.77,0.96-1.15,1.43c-0.01,0.01-0.02-0.02-0.03-0.04c-0.79-1.18-1.58-2.38-2.37-3.56
	c-0.78-1.18-1.5-2.26-2.3-3.46c-0.8-1.2-1.72-2.59-2.52-3.79s-1.51-2.3-2.31-3.47c-0.15-0.21-0.46-0.32-0.68-0.14
	c-0.22,0.17-0.34,0.38-0.14,0.7c0.19,0.32,0.41,0.62,0.68,1.03c0.81,1.22,1.79,2.69,2.61,3.93s1.72,2.58,2.48,3.72
	c0.76,1.15,1.51,2.26,2.18,3.28c0.67,1.02,1.12,1.67,1.75,2.63c-0.24,0.28-0.47,0.58-0.71,0.88c-0.45,0.56-0.9,1.12-1.35,1.68
	c-0.25-0.41-0.51-0.81-0.77-1.21c-0.81-1.29-1.63-2.57-2.44-3.86c-1.39-2.21-2.81-4.4-4.18-6.63c-0.09-0.14-0.1-0.27-0.26-0.41
	c-0.16-0.15-0.28-0.42-0.42-0.64c-0.57-0.87-1.15-1.79-1.7-2.68C15.79,2.91,15.46,2.44,15.22,2s-0.56-1.06-1.04-1.01
	c-0.48,0.05-0.53,0.25-0.74,0.55c-0.21,0.29-0.2,0.37-0.42,0.75s-0.53,0.96-0.8,1.45c-0.97,1.77-1.93,3.5-2.93,5.32
	c-1,1.82-2.07,3.76-3.09,5.62c-0.83,1.5-1.67,3.03-2.5,4.54c-0.13,0.24-0.01,0.56,0.16,0.67c0.17,0.1,0.12,0.07,0.28,0.08
	c0.16,0.01,0.34-0.08,0.42-0.24c0.57-1.03,1.11-2.01,1.68-3.06c0.99-1.8,1.88-3.42,2.91-5.29c1.03-1.87,2.21-4.01,3.28-5.96
	c0.57-1.04,1.18-2.14,1.75-3.18c0.24,0.37,0.55,0.86,0.77,1.21c0.22,0.35,0.37,0.58,0.54,0.93c0.01,0.01-0.01,0.02-0.02,0.03
	c-0.46,0.92-0.93,1.83-1.39,2.75c-1.09,2.15-2.18,4.31-3.27,6.47c-0.55,1.08-1.11,2.19-1.65,3.26c-0.27,0.54-0.56,1.13-0.82,1.62
	s-0.55,0.9-0.05,1.27c0.05,0.04,0.13,0.04,0.19,0.04c0.41-0.04,0.54-0.45,0.7-0.75c0.56-1.1,1.1-2.19,1.65-3.28
	c1.04-2.06,2.08-4.12,3.12-6.18c0.72-1.43,1.45-2.86,2.17-4.29c0.4,0.64,0.81,1.27,1.21,1.91c-0.18,0.39-0.36,0.78-0.54,1.17
	c-0.64,1.39-1.28,2.79-1.92,4.19c-0.64,1.39-1.27,2.78-1.91,4.18c-0.4,0.86-0.78,1.73-1.19,2.59c-0.12,0.25,0.07,0.56,0.25,0.64
	c0.18,0.08,0.06,0.04,0.23,0.05c0.16,0.01,0.37-0.13,0.45-0.3c0.08-0.17,0.14-0.31,0.22-0.47c0.61-1.32,1.11-2.44,1.74-3.82
	s1.37-2.98,2.03-4.42c0.3-0.66,0.63-1.37,0.93-2.04c0.12-0.25,0.23-0.52,0.35-0.77c0.45,0.73,0.94,1.45,1.37,2.18
	c0.06,0.11,0.23,0.22,0.19,0.34c-0.3,0.79-0.74,1.65-1.08,2.43c-0.51,1.15-1.13,2.5-1.61,3.56s-0.82,1.81-1.27,2.8
	c-0.12,0.27,0.07,0.55,0.24,0.64c0.17,0.09,0.06,0.04,0.22,0.05c0.16,0.01,0.37-0.12,0.45-0.3c0.23-0.49,0.47-1.03,0.69-1.53
	c0.53-1.16,1.11-2.44,1.61-3.55c0.51-1.11,0.92-2.03,1.41-3.1c0.5,0.83,1.07,1.64,1.54,2.47c0.04,0.06-0.09,0.11-0.12,0.19
	c-0.15,0.43-0.33,0.83-0.51,1.27c-0.5,1.23-1,2.49-1.5,3.73c-0.1,0.25,0.08,0.56,0.24,0.64s0.14,0.06,0.22,0.05
	c0.57-0.06,0.66-0.77,0.82-1.16c0.33-0.81,0.65-1.62,0.96-2.38c0.13-0.32,0.31-0.8,0.4-0.98c0.09-0.17,0.08-0.38,0.14-0.32
	c0.21,0.2,0.44,0.67,0.64,0.97c0.43,0.64,0.99,1.51,1.36,2.12c0.37,0.6,0.53,0.96,0.82,1.54c0.06,0.12,0.06,0.2,0.19,0.31
	c0.13,0.11,0.35,0.15,0.54,0.01c0.19-0.14,0.27-0.28,0.45-0.51s0.29-0.36,0.55-0.68c0.26-0.33,0.67-0.83,1.01-1.25
	c1.8-2.25,3.64-4.55,5.45-6.81c1.48-1.85,2.98-3.72,4.46-5.57C38.58,4.49,39.29,3.6,40,2.72c0.44,0.63,0.87,1.26,1.3,1.88
	c-0.6,0.81-1.19,1.63-1.79,2.44c-0.87,1.18-1.75,2.39-2.61,3.56c-0.86,1.17-1.68,2.3-2.53,3.46c-0.85,1.16-1.7,2.32-2.56,3.49
	c-0.45,0.61-0.89,1.23-1.35,1.85c-0.16,0.22-0.04,0.56,0.12,0.68c0.16,0.12,0.15,0.07,0.29,0.1c0.15,0.03,0.36-0.15,0.41-0.21
	c0.05-0.06,0.03-0.04,0.03-0.05c0.25-0.34,0.5-0.68,0.74-1.01c0.87-1.19,1.79-2.45,2.65-3.62c0.86-1.17,1.68-2.3,2.51-3.44
	c0.84-1.14,1.78-2.43,2.57-3.5c0.78-1.07,1.36-1.86,2.11-2.88c0.62,0.92,1.26,1.82,1.89,2.73c-0.32,0.42-0.54,0.93-0.84,1.35
	c-2.18,3.04-4.45,5.94-6.75,8.91c-0.35,0.46-1.11,1.17-0.57,1.75c0.17,0.18,0.52,0.1,0.67-0.12c2.65-3.71,5.62-7.18,8.1-11.01
	c0.65,0.93,1.29,1.87,1.94,2.79c-0.76,0.95-1.5,1.82-2.26,2.8c-1.2,1.54-2.39,3.17-3.55,4.77c-0.21,0.29-0.4,0.7-0.05,0.94
	c0.35,0.24,0.62,0,0.81-0.28c1.79-2.54,3.72-4.96,5.63-7.4c0.37,0.54,0.75,1.08,1.12,1.62c0.1,0.15,0.2,0.29,0.31,0.44
	c-0.86,1.21-1.61,2.47-2.5,3.67c-0.22,0.3-0.42,0.75-0.16,1s0.54,0.19,0.7-0.03c0.91-1.21,1.69-2.53,2.56-3.77
	c0.34,0.49,0.82,1.18,1.13,1.63c0.32,0.46,0.63,1.01,0.92,1.31s0.33,0.39,0.68,0.4c0.34,0.01,0.47-0.27,0.67-0.57
	c0.2-0.3,0.46-0.67,0.7-1.01c1.19-1.66,2.27-3.2,3.5-4.92c1.22-1.72,2.59-3.64,3.85-5.42c0.72-1.01,1.47-2.07,2.19-3.09
	c0.08,0.1,0.16,0.21,0.24,0.32c0.46,0.61,0.93,1.21,1.38,1.82c0.01,0.01-0.02,0.02-0.03,0.04c-0.65,0.96-1.29,1.91-1.94,2.88
	c-0.85,1.26-1.66,2.46-2.53,3.74c-0.86,1.28-1.78,2.64-2.66,3.94c-0.34,0.5-0.68,1-1.02,1.51c-0.11,0.16-0.19,0.31-0.33,0.49
	s-0.04,0.57,0.13,0.67c0.17,0.1,0.13,0.09,0.29,0.09c0.16,0,0.3-0.07,0.42-0.22c0.11-0.15,0.09-0.13,0.25-0.36
	c0.16-0.23,0.46-0.68,0.68-1.01c0.86-1.27,1.85-2.74,2.69-3.99s1.63-2.41,2.42-3.58c0.8-1.17,1.49-2.22,2.27-3.36
	c0.29,0.4,0.7,0.93,0.97,1.3s0.42,0.55,0.62,0.92c0.01,0.02,0-0.01-0.04,0.06c-0.04,0.08-0.16,0.25-0.25,0.38
	c-0.76,1.18-1.53,2.38-2.3,3.57c-0.77,1.19-1.54,2.39-2.32,3.59c-0.5,0.77-0.98,1.54-1.49,2.31c-0.15,0.23-0.04,0.55,0.12,0.68
	c0.16,0.12,0.15,0.07,0.3,0.1c0.15,0.03,0.34-0.12,0.4-0.2c0.06-0.08,0.05-0.08,0.08-0.12c0.65-1,1.16-1.8,1.83-2.84
	c0.68-1.04,1.49-2.3,2.2-3.4s1.43-2.22,2.14-3.32c0.48,0.64,0.98,1.27,1.45,1.91c0.01,0.02-0.03,0.03-0.04,0.05
	c-0.2,0.34-0.39,0.64-0.59,0.99c-0.8,1.32-1.61,2.66-2.42,3.98c-0.57,0.93-1.13,1.87-1.71,2.8c-0.14,0.23-0.06,0.56,0.11,0.68
	c0.17,0.12,0.15,0.09,0.31,0.1c0.16,0.01,0.3-0.05,0.41-0.21c0.11-0.16,0.24-0.38,0.36-0.58c0.78-1.27,1.56-2.56,2.34-3.84
	c0.43-0.7,0.85-1.41,1.27-2.11c0.21-0.34,0.41-0.68,0.61-1.02c0.15,0.2,0.3,0.4,0.45,0.59c0.49,0.64,0.99,1.28,1.46,1.92
	c0.02,0.02-0.04,0.04-0.06,0.06c-0.57,0.94-1.15,1.88-1.73,2.82c-0.34,0.55-0.67,1.06-1.02,1.63c-0.01,0.01,0.02-0.03-0.05,0.09
	c-0.08,0.11-0.06,0.56,0.13,0.65c0.18,0.09,0.16,0.08,0.31,0.1s0.34-0.13,0.4-0.2s0.01-0.02,0.03-0.05
	c0.02-0.03,0.02-0.03,0.02-0.04c0.19-0.3,0.38-0.6,0.57-0.9c0.68-1.1,1.36-2.21,2.04-3.32c0.15,0.19,0.29,0.38,0.43,0.57
	c0.67,0.88,1.31,1.76,1.99,2.64c0.09,0.12,0.22,0.18,0.41,0.17c0.02,0-0.14,0.05,0.08-0.01s0.61-0.41,0.83-0.82
	c0.22-0.41,0.69-0.94,1.03-1.39c0.74-1.02,1.55-2.1,2.3-3.15c0.16-0.22,0.32-0.44,0.48-0.66c1.66-2.25,3.37-4.43,5.01-6.72
	c0.77-1.06,1.54-2.25,2.33-3.31c0.41,0.76,0.78,1.55,1.13,2.34c-0.18,0.23-0.38,0.47-0.55,0.71c-1.1,1.5-2.36,3.22-3.47,4.62
	c-1.12,1.4-2.15,2.85-3.09,4.18c-0.94,1.33-1.72,2.28-2.61,3.53c-0.17,0.25-0.24,0.47,0.1,0.72c0.34,0.25,0.78-0.21,1.02-0.56
	c0.99-1.37,1.96-2.61,2.94-4.01s2.12-2.89,3.17-4.24C86.37,9.31,87.3,8,88.29,6.62c0.13,0.25,0.26,0.48,0.4,0.72
	c0.32,0.57,0.65,1.15,0.97,1.72c-0.88,1.2-1.77,2.44-2.63,3.64c-0.87,1.2-1.7,2.39-2.53,3.59c-0.39,0.57-0.8,1.15-1.19,1.69
	c-0.19,0.26-0.44,0.6-0.56,0.77c-0.13,0.17,0.06-0.07-0.06,0.08s-0.08,0.58,0.09,0.71c0.17,0.13,0.18,0.11,0.33,0.14
	s0.31-0.09,0.37-0.17s0.03-0.04,0.08-0.1c0.73-0.96,1.27-1.71,2.01-2.76c0.74-1.05,1.66-2.39,2.47-3.5
	c0.45-0.63,0.98-1.36,1.42-1.97c0.18-0.25,0.45-0.66,0.57-0.78c0.13-0.12,0.14-0.33,0.2-0.25c0.36,0.49,0.7,1.24,1.04,1.8
	c0.09,0.15,0.21,0.39,0.24,0.49c0.03,0.1,0,0-0.02,0.05c-0.02,0.06-0.08,0.12-0.13,0.18c-1,1.4-2,2.8-2.97,4.22
	c-0.43,0.63-0.85,1.27-1.31,1.88c-0.17,0.23-0.09,0.58,0.06,0.74c0.15,0.16,0.19,0.13,0.34,0.17c0.15,0.04,0.31-0.1,0.36-0.17
	c0.06-0.07,0.06-0.08,0.09-0.12c0.56-0.78,1.09-1.57,1.63-2.34c0.84-1.21,1.69-2.39,2.55-3.58c0.43,0.76,0.85,1.52,1.27,2.29
	c-0.17,0.2-0.33,0.4-0.5,0.6c-0.57,0.69-1.14,1.39-1.72,2.08c-0.18,0.21-0.1,0.58,0.05,0.72s0.18,0.11,0.33,0.13
	c0.15,0.03,0.32-0.11,0.39-0.18s-0.01,0,0.05-0.05s0.13-0.15,0.2-0.23c0.59-0.69,1.18-1.38,1.76-2.08c0.49,0.87,0.99,1.76,1.49,2.62
	c0.1,0.16,0.27,0.26,0.43,0.26c0.16,0,0.11,0.02,0.28-0.08S96.43,19.06,96.3,18.86z"/>
</svg>
