<?xml version="1.0" encoding="utf-8"?>
<!-- Generator: Adobe Illustrator 23.0.0, SVG Export Plug-In . SVG Version: 6.00 Build 0)  -->
<svg version="1.1" id="Слой_1" xmlns="http://www.w3.org/2000/svg" xmlns:xlink="http://www.w3.org/1999/xlink" x="0px" y="0px"
	 viewBox="0 0 100 21.28" style="enable-background:new 0 0 100 21.28;" xml:space="preserve">
<g>
	<path d="M6.57,16.07C6.56,16.07,6.56,16.07,6.57,16.07C6.56,16.08,6.56,16.08,6.57,16.07c-0.01,0.01-0.01,0.01-0.01,0.02
		c0,0,0,0,0,0.01c0,0,0,0,0,0c0,0,0,0.01-0.01,0.01c0,0,0,0,0,0c0-0.01,0.01-0.02,0.01-0.02c0.01-0.01,0.01-0.02,0.02-0.03
		C6.57,16.06,6.57,16.07,6.57,16.07C6.56,16.07,6.56,16.07,6.57,16.07z"/>
	<polygon points="6.32,16.57 6.32,16.56 6.32,16.56 	"/>
	<path d="M90.83,17.07c-0.88-1.45-1.73-2.89-2.6-4.33c-1.17-1.96-2.34-3.9-3.51-5.86c-0.64-1.07-1.28-2.11-1.92-3.2
		c-0.01-0.02,0.03,0.02-0.06-0.1c-0.48-0.62-1.18,0.37-1.5,0.73C80.81,4.78,80.42,5.24,80,5.73c-1.11,1.29-2.23,2.58-3.36,3.89
		c-1.13,1.31-2.59,3-3.67,4.25c-0.75,0.87-1.98,2.29-2.64,3.05c-0.71-1.16-1.4-2.31-2.1-3.47c-1.05-1.74-2.11-3.49-3.16-5.23
		c-0.47-0.77-0.94-1.55-1.4-2.31c-0.3-0.5-0.58-1-0.9-1.49c-0.14-0.22-0.23-0.38-0.51-0.37c-0.19,0.01-0.4,0.12-0.52,0.26
		c-1.08,1.25-10.08,12.44-10.17,12.55c-2.23-2.71-4.58-5.34-6.81-8.06c-1.42-1.73-2.84-3.47-4.25-5.2
		c-0.09-0.11-0.18-0.22-0.32-0.27c-0.28-0.1-0.57,0.14-0.77,0.36c-4.22,4.47-8.44,8.94-12.66,13.41c-3.18-4.52-6.36-9.04-9.55-13.57
		c-0.05-0.06-0.1-0.13-0.15-0.19C17.05,3.33,17.02,3.3,17,3.27c0.01,0.01,0,0-0.01-0.01c-0.03-0.04-0.04-0.06-0.01,0c0,0,0,0,0,0
		c0,0,0,0,0,0c0,0.01,0.01,0.02,0.02,0.02c0.01,0.01,0.02,0.03,0.05,0.07c-0.13-0.14-0.28-0.26-0.46-0.25
		c-0.2,0.01-0.36,0.16-0.5,0.3C11.6,7.9,7.13,12.47,3.45,17.66c-0.21,0.29-0.4,0.74-0.12,0.96c0.3,0.24,0.72-0.11,0.94-0.42
		c3.62-5,7.93-9.45,12.22-13.87c3.18,4.5,6.37,9,9.55,13.51c0.19,0.27,0.45,0.57,0.77,0.5c0.17-0.03,0.3-0.17,0.42-0.29
		c4.23-4.47,8.46-8.95,12.69-13.42c0.01-0.01,3.19,3.76,3.46,4.09c1.18,1.43,2.36,2.87,3.54,4.31c0.15,0.19,0.31,0.37,0.46,0.56
		c1.15,1.4,2.31,2.8,3.46,4.2c0.01,0.01,0.01,0.01,0.02,0.02c0.01,0.01,0.01,0.03,0.04,0.04c0.21,0.24,0.51,0.46,0.77,0.31
		c0.22-0.12,3.9-5.09,4.89-6.23c0.99-1.14,1.96-2.29,2.94-3.45c0.92-1.09,1.76-2.06,2.64-3.11C63,6.74,63.77,8,64.64,9.45
		c0.96,1.59,2.04,3.38,3.03,5.02c0.73,1.21,1.5,2.48,2.24,3.7c0.1,0.16,0.28,0.26,0.44,0.26c0.16,0,0.08,0,0.26-0.07
		c0.14-0.05,3.6-4.39,4.77-5.75c1.17-1.36,2.56-2.97,3.8-4.4c0.93-1.07,1.91-2.21,2.85-3.3c0.06-0.07,0.14-0.16,0.21-0.24
		c0.01,0.02,0.02,0.04,0.03,0.06c0.88,1.47,1.76,2.95,2.65,4.42c1.15,1.91,2.3,3.83,3.45,5.74c0.61,1.03,1.23,2.06,1.85,3.08
		c0.1,0.16,0.27,0.25,0.43,0.25c0.16,0,0.09,0.01,0.27-0.07s0.29-0.47,0.18-0.65C90.97,17.31,90.91,17.2,90.83,17.07z"/>
	<path d="M4,2.71c-0.03,0-0.06,0.01-0.1,0.01c0.09,0,0.17,0,0.26,0C4.11,2.71,4.06,2.71,4,2.71z"/>
	<path d="M4.24,15.01c0.28-0.45,0.56-0.9,0.85-1.34c1.22-1.86,2.59-3.64,4.08-5.29c1.18-1.3,2.45-2.54,3.77-3.7
		c0.44-0.38,1.39-0.93,1.07-1.66C13.9,2.79,13.42,2.8,13.2,2.77c-2.59-0.28-4.86,0.01-8.81-0.05c-0.06,0-0.12,0-0.18,0
		c-0.11,0-0.2,0-0.31,0C3.75,2.72,3.6,2.74,3.47,2.82C3.16,3.02,3.25,3.49,3.25,3.8C3.24,4.26,3.24,4.73,3.23,5.2
		C3.21,6.13,3.18,7.06,3.15,8C3.1,9.86,3.03,11.73,3,13.6C3,13.92,2.99,14.25,2.99,14.57c0,0.23-0.1,0.9,0.23,0.99
		C3.68,15.7,4.02,15.37,4.24,15.01z"/>
	<path d="M4.39,2.72c0.05,0,0.11,0,0.16,0c-0.13,0-0.26,0-0.38,0c0.02,0,0.03,0,0.05,0C4.27,2.72,4.33,2.72,4.39,2.72z"/>
	<path d="M3.76,2.71c0.05,0,0.09,0,0.13,0c0,0,0.01,0,0.01,0C3.86,2.72,3.81,2.72,3.76,2.71z"/>
	<path d="M24.13,17.47c-0.34-0.4-0.62-0.85-0.93-1.27c-0.63-0.86-1.26-1.73-1.89-2.59c-0.91-1.25-1.73-2.35-2.63-3.57
		c-0.37-0.49-0.69-0.92-1.07-1.45c-0.39-0.53-0.85-1.13-1.25-1.69c-0.4-0.56-0.86,0.16-1.08,0.47c-0.26,0.36-0.59,0.67-0.87,1.01
		c-0.42,0.49-0.84,0.99-1.27,1.48c-0.86,0.99-1.72,1.98-2.57,2.98C9.3,14.31,8.01,16,6.78,17.57c-0.27,0.35-0.28,0.8-0.01,1
		s0.25,0.2,0.47,0.21s0.38-0.03,0.57-0.04c1.56-0.1,3.16-0.19,4.71-0.21c2.33-0.02,4.65,0.04,6.96,0.11
		c0.89,0.03,1.84,0.06,2.66,0.09s1.37,0.04,2.16,0.07c0.01,0-0.07,0.01,0.06,0c0.13-0.01,0.45-0.23,0.44-0.48
		c-0.01-0.22-0.16-0.39-0.33-0.54C24.35,17.67,24.22,17.57,24.13,17.47z"/>
	<path d="M20.06,5.24c1.17,1.28,2.22,2.66,3.27,4.04c0.52,0.69,1.04,1.38,1.56,2.07c0.52,0.67,1.02,1.43,1.63,2.02
		c0.64,0.63,1.27-0.27,1.7-0.69c0.62-0.61,1.24-1.21,1.86-1.82c1.4-1.36,2.83-2.73,4.24-4.09c1.1-1.06,2.2-2.1,3.3-3.16
		c0.16-0.16,0.2-0.39,0.1-0.59c-0.16-0.31-0.51-0.27-0.8-0.25c-1.3,0.09-2.63-0.02-3.93-0.05c-1.89-0.05-3.79-0.11-5.7-0.13
		c-1.55-0.02-3.13-0.01-4.69,0.01c-1.1,0.01-2.2,0.03-3.3,0.05c-0.29,0.01-0.53,0.13-0.6,0.43C18.26,3.77,19.64,4.78,20.06,5.24z"/>
	<path d="M46.88,15.26c-1.74-1.84-3.16-3.89-4.68-5.91c-0.65-0.86-1.52-1.53-2.17-2.38c-0.43-0.56-0.98,0.18-1.31,0.55
		c-2.09,2.28-4.16,4.59-6.22,6.93c-1,1.13-2.05,2.2-3.18,3.26c-0.3,0.28-0.13,0.65,0.13,0.89c0.25,0.23,0.4,0.32,0.67,0.29
		c3.72-0.46,7.38-0.08,11.07-0.03c2.55,0.04,4.99,0.09,7.54-0.01c0.57-0.02,0.6-0.6,0.25-1.01C48.25,17.02,47.64,16.06,46.88,15.26z
		"/>
	<path d="M43.59,5.57c0.99,1.1,2,2.21,2.98,3.3c0.99,1.09,1.95,2.16,2.92,3.24c0.5,0.56,1,1.1,1.5,1.66
		c0.5,0.57,0.93,0.23,1.31-0.24c2.53-3.18,5.54-5.84,7.99-9.08c0.31-0.41-0.1-0.76-0.6-0.78c-2.76-0.07-5.42-0.24-8.24-0.27
		c-1.53-0.02-3.06-0.01-4.6-0.08c-0.77-0.04-1.54-0.16-2.31-0.18c-2.92-0.08-2.71,0.47-2.52,0.72C42.51,4.48,43.08,5,43.59,5.57z"/>
	<path d="M62.57,8.82c-0.52-0.71-0.73-0.96-1.3-0.36c-1.37,1.45-2.62,2.95-3.88,4.52c-1.26,1.57-2.55,3.16-4.02,4.59
		c-0.42,0.4-0.12,1.05,0.52,1.06c2.29,0.04,4.03,0,6.03,0.14c2.5,0.18,4.92-0.05,7.39,0.02c1.08,0.03,1.71-0.32,0.89-1.3
		C66.37,14.56,64.19,11.88,62.57,8.82z"/>
	<path d="M65.07,5.65c1.67,2.75,3.58,5.34,5.44,7.96c0.21,0.29,0.6,0.02,0.82-0.21c2.2-2.42,4.51-4.93,6.75-7.3
		c0.59-0.63,1.4-1.25,1.85-1.83c0.45-0.57-0.03-0.9-0.57-0.86c-4.79,0.39-9.64,0.37-14.47,0.43c-0.44-0.15-0.85,0.25-0.66,0.69
		C64.43,4.95,64.82,5.24,65.07,5.65z"/>
	<path d="M85.55,13.09c-0.51-0.85-2.87-5.75-3.45-5.85c-0.24-0.04-0.42,0.14-0.56,0.31c-1.76,2.11-3.46,4.27-5.28,6.31
		c-1.11,1.24-2.2,2.45-3.37,3.64c-0.18,0.18-0.35,0.47-0.24,0.73c0.2,0.49,0.88,0.42,1.3,0.38c0.88-0.08,1.75-0.17,2.63-0.21
		c1.13-0.06,2.25-0.08,3.38-0.08c2.44,0,4.9,0.04,7.33,0.28c0.15,0.01,0.29,0.03,0.44,0.05c0.32,0.04,1.11-0.06,1.06-0.49
		c-0.05-0.43-0.17-0.58-0.4-0.86C87.29,15.99,86.41,14.55,85.55,13.09z"/>
	<path d="M92.5,4.08c-0.01-0.15-0.19-0.39-0.35-0.43c-0.16-0.04-0.17-0.03-0.33-0.03c-0.16,0-0.37-0.01-0.56-0.01
		c-0.77-0.01-1.55-0.01-2.32-0.02c-1.34-0.02-2.67-0.03-4.02-0.04c-0.27,0-0.49,0.27-0.51,0.45c-0.02,0.19,0.01,0.14,0.04,0.24
		c0.01,0.02,0.01,0.03,0.01,0.03c0,0,0.01,0.01,0.03,0.06c0.07,0.13,0.23,0.4,0.35,0.6c0.4,0.68,0.8,1.37,1.22,2.07
		c0.42,0.7,0.88,1.42,1.32,2.13c0.72,1.14,1.44,2.29,2.16,3.44c0.38,0.61,0.77,1.23,1.16,1.85c0.03,0.05,0.13,0.2,0.16,0.25
		c0.03,0.05,0.02,0.05,0.05,0.08c0.01,0.01,0,0,0,0s0,0,0,0.01s0.03,0.04,0.03,0.06s0.01,0.02,0.02,0.02c0,0,0,0,0,0c0,0,0,0,0,0.01
		c0,0.01,0,0.01,0.01,0.01c0,0.01,0.01,0.02,0.02,0.03c0.01,0.01,0,0.01,0.01,0.02c0.06,0.08,0.09,0.16,0.18,0.23
		c0.08,0.06,0.21,0.13,0.32,0.11s0.13,0.03,0.25-0.07c0.13-0.1,0.25-0.18,0.26-0.46c0.01-0.28,0.03-0.72,0.05-1.08
		c0.07-1.49,0.14-3.08,0.21-4.56c0.07-1.49,0.13-2.91,0.2-4.38c0.01-0.13,0.01-0.25,0.02-0.36C92.5,4.22,92.51,4.23,92.5,4.08z"/>
</g>
</svg>
