<?xml version="1.0" encoding="utf-8"?>
<!-- Generator: Adobe Illustrator 23.0.0, SVG Export Plug-In . SVG Version: 6.00 Build 0)  -->
<svg version="1.1" id="Слой_1" xmlns="http://www.w3.org/2000/svg" xmlns:xlink="http://www.w3.org/1999/xlink" x="0px" y="0px"
	 viewBox="0 0 100 21.28" style="enable-background:new 0 0 100 21.28;" xml:space="preserve">
<g>
	<path d="M23.65,14.28c-0.55-1.03-1.1-2.06-1.65-3.09c-1.13-2.15-2.25-4.32-3.36-6.49c-0.31-0.6-0.85-2.02-1.77-1.88
		c-0.66,0.1-1.06,1.11-1.32,1.6c-0.54,1.01-1.24,1.96-1.84,2.94c-0.62,1-1.23,2.01-1.82,3.04c-1.16,2.01-2.21,4.06-3.21,6.15
		C8.58,16.78,8.48,17,8.41,17.25c-0.2,0.77,0.21,1.18,0.96,1.23c1.14,0.09,2.29-0.02,3.42-0.06c2.41-0.07,4.81-0.21,7.22-0.27
		c1.16-0.03,2.31-0.05,3.47-0.03c0.57,0.01,1.8,0.25,1.96-0.56c0.05-0.27-0.61-1.1-0.77-1.4C24.33,15.54,23.99,14.91,23.65,14.28z
		 M9.32,17.57c1.26-2.3,2.23-4.72,3.58-6.98c1.34-2.24,2.8-4.41,4.12-6.67c2.65,4.26,4.35,9.04,7.15,13.21
		C19.22,17.14,14.26,17.25,9.32,17.57z"/>
	<path d="M15.85,7.94c-1.29,2.1-2.43,4.25-3.77,6.31c-0.27,0.41-1.01,1.36-0.6,1.86c0.33,0.4,7.35-0.09,9.05-0.03
		c1.66,0.05,1.15-0.86,0.46-1.97c-0.85-1.37-1.64-2.72-2.41-4.14C18.14,9.15,16.88,6.15,15.85,7.94z M20.4,15.07
		c-2.58,0.06-4.94,0.06-7.64,0.06c1.39-2.11,2.5-4.39,3.85-6.53C17.95,10.72,18.99,13,20.4,15.07z"/>
	<path d="M16.47,10.99c-0.5,0-0.91,1.32-1.06,1.65c-0.41,1.01-1,1.34,0.62,1.29c0.34-0.01,1.51,0.05,1.68-0.05
		c0.3-0.17-0.09-0.85-0.22-1.15C17.33,12.36,16.75,10.99,16.47,10.99z"/>
	<path d="M42.36,8.96c-0.58-1.12-1.17-2.24-1.75-3.36c-0.33-0.64-0.95-2.65-1.74-2.62c-0.55,0.02-0.73,0.55-1.01,0.96
		c-0.62,0.93-1.24,1.87-1.86,2.8c-1.37,2.06-2.74,4.11-4.11,6.17c-0.71,1.07-1.41,2.14-2.13,3.21c-0.3,0.45-1.12,1.45-0.59,2.01
		c0.47,0.5,16.89,0.21,17.25-0.17c0.58-0.62-0.29-1.6-0.61-2.21C44.67,13.53,43.52,11.18,42.36,8.96z M42.15,17.17
		c-4.25,0.34-7.87-0.1-11.96,0.12c2.88-4.32,5.75-8.65,8.63-12.97c2.18,4.19,4.36,8.52,6.55,12.72
		C44.35,17.04,43.57,17.13,42.15,17.17z"/>
	<path d="M37.11,9.19c-0.9,1.3-1.82,2.59-2.72,3.9c-0.43,0.62-2.1,2.12-1.03,2.63c0.31,0.15,1.97,0.17,2.5,0.15
		c1.67-0.07,3.1,0,4.77,0.05c0.55,0.02,3.24,0.44,2.42-0.84c-1.65-2.06-2.21-4.77-3.81-6.87C38.18,6.82,37.79,8.22,37.11,9.19z
		 M41.67,14.93c-2.45,0.05-4.94,0.01-7.35,0.01c1.41-1.98,2.87-3.97,4.17-6.03C39.85,10.75,40.32,13.08,41.67,14.93z"/>
	<path d="M37,13.73c0.19,0.2,1.38,0.04,1.69,0.06c1.02,0.07,0.68-0.32,0.3-1.15c-0.12-0.27-0.5-1.76-0.99-1.04
		C37.74,12,36.75,13.47,37,13.73z"/>
	<path d="M31.37,4.93c0.98-1.39-0.41-1.3-1.51-1.34C28.9,3.56,27.95,3.5,27,3.46c-0.93-0.04-2.94-0.49-3.01,0.8
		c-0.05,1.02,1.14,2.39,1.57,3.27c0.39,0.8,0.85,1.94,1.67,2.4c1.01,0.57,1.47-1.07,1.96-1.79C29.92,7.08,30.66,6.02,31.37,4.93z
		 M27.54,8.87c-1.07-1.32-1.62-2.97-2.48-4.42c1.78-0.1,3.55,0.13,5.32,0.17C29.45,6.05,28.41,7.4,27.54,8.87z"/>
	<path d="M28.06,5.22c-0.68-0.56-1.6,0.6-1.02,1.18C27.78,7.1,28.87,5.84,28.06,5.22z"/>
	<path d="M65.11,14.41c-0.54-1.04-1.07-2.08-1.59-3.12c-1.09-2.17-2.17-4.36-3.23-6.55c-0.29-0.6-0.82-2.03-1.73-1.91
		c-0.66,0.09-1.08,1.09-1.35,1.58c-2.53,3.83-5.02,7.68-7.01,11.83c-0.21,0.43-0.56,1.07-0.44,1.54c0.16,0.61,0.02,0.39,0.72,0.54
		c1.11,0.24,2.57,0.04,3.71,0.03c2.41-0.03,4.82-0.12,7.22-0.14c1.16-0.01,2.31,0,3.47,0.04c0.57,0.02,1.79,0.29,1.97-0.52
		c0.06-0.27-0.59-1.11-0.75-1.41C65.76,15.68,65.43,15.04,65.11,14.41z M50.71,17.43c1.3-2.27,2.32-4.68,3.71-6.91
		c1.38-2.22,2.89-4.36,4.25-6.59c2.57,4.31,4.18,9.12,6.91,13.34C60.62,17.19,55.67,17.2,50.71,17.43z"/>
	<path d="M57.43,7.93c-1.33,2.07-2.51,4.21-3.89,6.24c-0.27,0.4-1.04,1.34-0.63,1.84c0.32,0.4,7.35,0.05,9.05,0.14
		c1.66,0.08,1.17-0.84,0.5-1.96c-0.83-1.38-1.59-2.75-2.33-4.19C59.69,9.17,58.49,6.15,57.43,7.93z M61.84,15.14
		c-2.55,0-3.69,0-7.64-0.08c1.43-2.08,2.58-4.34,3.97-6.46C59.47,10.74,60.47,13.04,61.84,15.14z"/>
	<path d="M56.89,12.62c-0.43,1.07-1.03,1.32,0.6,1.3c0.34,0,1.39,0.17,1.68-0.02c0.28-0.18,0.03-0.77-0.09-1.07
		c-0.15-0.38-0.37-1.28-0.93-1.9C57.81,10.56,57.05,12.28,56.89,12.62z"/>
	<path d="M83.94,9.1c-0.55-1.14-1.1-2.28-1.64-3.42c-0.31-0.65-0.87-2.68-1.66-2.68c-0.55,0-0.75,0.53-1.04,0.93
		c-0.65,0.91-1.3,1.83-1.95,2.74c-1.43,2.01-2.87,4.03-4.3,6.04c-0.74,1.05-1.48,2.1-2.23,3.14c-0.32,0.44-1.16,1.41-0.65,1.99
		c0.46,0.52,16.88,0.6,17.25,0.23c0.6-0.6-0.24-1.61-0.54-2.23C86.11,13.61,85.02,11.36,83.94,9.1z M80.28,17.19
		c-0.43,0.01-7.05-0.19-7.48-0.18c-0.17,0-1.2-0.08-1.28,0.03c3.01-4.23,6.01-8.47,9.03-12.69c2.05,4.26,4.1,8.52,6.15,12.78
		C81.51,17.14,82.12,17.14,80.28,17.19z"/>
	<path d="M78.68,9.17c-0.94,1.27-1.9,2.54-2.84,3.81c-0.45,0.61-2,2.16-0.97,2.74c0.21,0.12,1.73,0.24,2.26,0.23
		c1.67-0.02,3.2-0.05,4.86,0.05c0.31,0.02,1.11,0.13,1.7,0.01c0.53-0.1,0.74-0.74,0.44-1.19c-1.36-2.05-1.87-4.56-3.3-6.57
		C79.82,6.83,79.39,8.22,78.68,9.17z M83.06,15.04c-2.45-0.03-4.73-0.14-7.34-0.22c1.47-1.93,2.99-3.88,4.35-5.89
		C81.37,10.81,81.77,13.15,83.06,15.04z"/>
	<path d="M79.5,11.6c-0.28,0.4-1.39,1.57-1.07,2.1c0.14,0.23,1.38,0.14,1.69,0.11c0.94-0.09,0.68-0.3,0.34-1.14
		C80.34,12.4,80.01,10.91,79.5,11.6z"/>
	<path d="M72.89,4.93c0.98-1.39-0.41-1.3-1.51-1.34c-0.95-0.03-1.9-0.09-2.85-0.13c-0.93-0.04-2.94-0.49-3.01,0.8
		c-0.05,1.02,1.14,2.39,1.57,3.27c0.39,0.8,0.85,1.94,1.67,2.4c1.01,0.57,1.47-1.07,1.96-1.79C71.45,7.08,72.18,6.02,72.89,4.93z
		 M69.07,8.87c-1.07-1.32-1.62-2.97-2.48-4.42c1.78-0.1,3.55,0.13,5.32,0.17C70.97,6.05,69.94,7.4,69.07,8.87z"/>
	<path d="M69.58,5.22c-0.68-0.56-1.6,0.6-1.02,1.18C69.3,7.1,70.39,5.84,69.58,5.22z"/>
	<path d="M93.62,3.65c-1.91-0.09-3.85-0.26-5.77-0.26c-0.46,0-1.34-0.06-1.65,0.39c-0.44,0.65,0.58,2.01,0.88,2.54
		c0.52,0.92,0.9,1.96,1.54,2.82c0.8,1.06,1.34,1.27,2.01,0.1C91.06,8.49,94.66,4.14,93.62,3.65z M89.71,8.87
		c-1.07-1.32-1.62-2.97-2.48-4.42c1.78-0.1,3.55,0.13,5.32,0.17C91.61,6.05,90.58,7.4,89.71,8.87z"/>
	<path d="M90.23,5.22c-0.68-0.56-1.6,0.6-1.02,1.18C89.94,7.1,91.03,5.84,90.23,5.22z"/>
</g>
</svg>
