<?xml version="1.0" encoding="utf-8"?>
<!-- Generator: Adobe Illustrator 23.0.0, SVG Export Plug-In . SVG Version: 6.00 Build 0)  -->
<svg version="1.1" id="Слой_1" xmlns="http://www.w3.org/2000/svg" xmlns:xlink="http://www.w3.org/1999/xlink" x="0px" y="0px"
	 viewBox="0 0 100 21.28" style="enable-background:new 0 0 100 21.28;" xml:space="preserve">
<path d="M94.01,13.93c-2.27-2.57-4.08-5.24-6.26-7.94c0.44-0.27,0.74-0.74,0.74-1.27c0-0.82-0.7-1.5-1.54-1.5
	c-0.84,0-1.54,0.68-1.54,1.5c0,0.62,0.4,1.15,0.95,1.38c-0.01,0.03-0.03,0.06-0.04,0.08c-1.93,2.76-4.55,5.09-6.81,7.62
	c-2.22-2.5-4.22-5.18-6.33-7.76c0.4-0.27,0.67-0.73,0.67-1.23c0-0.82-0.7-1.5-1.54-1.5c-0.84,0-1.54,0.68-1.54,1.5
	c0,0.49,0.26,0.93,0.64,1.2c-0.32,0.37-0.58,0.83-0.8,1.13c-1.92,2.75-2.78,4.91-4.99,6.68c-4.42-4.01-6.22-6.27-7.24-7.13
	c0.37-0.28,0.61-0.71,0.61-1.18c0-0.82-0.7-1.5-1.54-1.5s-1.54,0.68-1.54,1.5c0,0.58,0.36,1.09,0.87,1.34
	c-0.89,1.06-2.37,3.59-7.01,7.11c-2.25-1.96-4.55-5.24-6.92-7.32c0.4-0.27,0.66-0.72,0.66-1.22c0-0.82-0.7-1.5-1.54-1.5
	c-0.84,0-1.54,0.68-1.54,1.5c0,0.5,0.26,0.95,0.66,1.22c-0.05,0.09-0.11,0.17-0.16,0.25c-1.58,2.41-3.53,4.69-5.18,7.09
	c-4.49-4.58-6.21-7.2-7.33-7.99c0.36-0.28,0.59-0.7,0.59-1.17c0-0.82-0.7-1.5-1.54-1.5s-1.54,0.68-1.54,1.5
	c0,0.6,0.39,1.13,0.92,1.37c-1.06,1-2.62,3.65-6.67,7.83c-3.91-4.02-5.54-6.68-6.58-7.77c0.36-0.28,0.6-0.7,0.6-1.17
	c0-0.82-0.7-1.5-1.54-1.5s-1.54,0.68-1.54,1.5c0,0.49,0.25,0.92,0.63,1.2c-0.96,1.07-2.42,3.64-5.75,7.91
	c-0.05,0.04-0.1,0.08-0.14,0.13c0,0,0.07,3.74,0.07,3.74c0,0,86.43,0.02,88.11,0C94.09,18.06,94.07,13.99,94.01,13.93z"/>
</svg>
