<?xml version="1.0" encoding="utf-8"?>
<!-- Generator: Adobe Illustrator 23.0.0, SVG Export Plug-In . SVG Version: 6.00 Build 0)  -->
<svg version="1.1" id="Слой_1" xmlns="http://www.w3.org/2000/svg" xmlns:xlink="http://www.w3.org/1999/xlink" x="0px" y="0px"
	 viewBox="0 0 100 21.28" style="enable-background:new 0 0 100 21.28;" xml:space="preserve">
<g>
	<path d="M94.58,18.41c-1.82-2.26-3.56-4.51-5.65-6.77c-2.67-2.9-5.24-5.78-7.82-8.72c-0.36-0.44-0.75-1.46-1.53-1.24
		c-1.9,1.35-3.4,3.24-4.97,4.93c-3.54,4.03-7.11,8-10.84,11.83c-4.23-4.32-7.28-9.56-10.88-14.33c-1.04-1.16-1.84-4.32-3.54-1.88
		c-4.91,5.25-8.44,11.62-13.74,16.45c-5.54-5.45-9.72-12.04-15.25-17.4C20.16,0.96,19.74,0.71,19.4,1
		c-1.27,1.45-2.45,2.97-3.65,4.47c-3.31,4.44-6.66,8.82-9.9,13.27c-0.27,0.41-0.9,1.15-0.16,1.44c0.24,0.08,0.51-0.07,0.59-0.29
		c4.29-6.02,8.78-12.02,13.5-17.83c5.45,5.33,9.59,11.82,15.06,17.23c1.36,1.45,3.16-1.79,4.12-2.59c4.13-4.53,7.34-9.8,11.59-14.28
		c3.3,4.7,6.47,9.51,10.13,14.01c0.79,0.91,1.46,2.18,2.54,2.81c0.32,0.19,0.73,0.15,1.01-0.08c5.68-4.76,9.96-11.31,15.54-16.41
		c1.92,2.67,4.35,5.08,6.42,7.69c1.95,1.97,6.81,7.69,7.5,8.46c0.11,0.12,0.48,0.32,0.72,0.19C94.64,18.96,94.76,18.63,94.58,18.41z
		"/>
	<path d="M29.25,20.41c0.01-0.01,0.01-0.02,0.02-0.03C29.26,20.39,29.26,20.4,29.25,20.41C29.25,20.41,29.25,20.41,29.25,20.41z"/>
	<path d="M31.68,20.29C31.68,20.29,31.68,20.29,31.68,20.29c-0.01,0-0.02-0.01-0.03-0.01C31.66,20.28,31.67,20.29,31.68,20.29z"/>
	<path d="M31.26,18.93c-0.17-0.17-0.35-0.33-0.52-0.51c-0.37-0.38-0.71-0.79-1.03-1.21c-1.37-1.8-2.78-3.55-4.3-5.23
		c-0.77-0.85-1.55-1.68-2.33-2.51C22.31,8.64,21.56,7.79,20.76,7c-0.36-0.35-0.75-0.98-1.34-0.75c-2.13,2.37-3.96,5.12-5.97,7.61
		c-0.69,0.85-1.38,1.68-2.11,2.5c-0.64,0.72-1.23,1.48-1.86,2.22c-0.19,0.22-0.37,0.44-0.51,0.69c-0.06,0.11-0.11,0.23-0.11,0.35
		c0,0.44,0.57,0.35,0.8,0.17c0.13-0.1,0.23-0.23,0.34-0.36c0.33-0.4,0.69-0.77,1.03-1.17c1.5-1.77,2.98-3.57,4.43-5.39
		c0.01,1.45,0.01,2.93-0.05,4.38c-0.02,0.65-0.07,1.25-0.14,1.9c0,0.26,0.2,0.5,0.47,0.51c0.26,0.01,0.51-0.19,0.52-0.46
		c0.25-2.32,0.19-4.69,0.19-7.03c0.01-0.16,0.01-0.35-0.05-0.5c0.97-1.24,1.93-2.5,2.86-3.77c-0.19,3.84,0.17,7.66,0.09,11.52
		c0.11,0.72,1.15,0.47,0.98-0.21c0.11-3.76-0.25-7.52-0.08-11.28C20.69,8.4,21.29,9,21.37,9.09c0.92,0.97,1.85,1.94,2.77,2.92
		c0,0.03-0.01,0.05,0,0.08c0.21,1.44,0.37,2.86,0.35,4.32c0.03,0.9,0.08,1.94,0.02,2.9c0,0.26,0.2,0.5,0.48,0.51
		c0.26,0.01,0.51-0.2,0.52-0.46c0.06-1.12-0.01-2.2-0.04-3.32c0.05-0.93-0.08-1.86-0.18-2.78c0.3,0.34,0.6,0.67,0.89,1.02
		c1.43,1.69,2.61,3.6,4.19,5.17c0.17,0.17,0.34,0.33,0.51,0.48c0.11,0.09,0.24,0.22,0.38,0.3c0.27,0.14,0.6,0.05,0.68-0.26
		c0.05-0.17,0-0.33-0.1-0.48C31.71,19.29,31.44,19.11,31.26,18.93z"/>
	<polygon points="9.57,20 9.58,20 9.57,20 	"/>
	<path d="M30.32,19.42c0.01,0.01,0.02,0.01,0.03,0.02C30.33,19.43,30.33,19.43,30.32,19.42C30.32,19.42,30.32,19.42,30.32,19.42z"/>
	<path d="M58.83,18.91c-0.16-0.24-0.31-0.48-0.47-0.73c-0.32-0.48-0.63-0.97-0.95-1.45c-0.76-1.15-1.53-2.3-2.3-3.44
		c-0.77-1.15-1.54-2.29-2.31-3.44c-0.77-1.14-1.53-2.28-2.28-3.43c-0.3-0.29-0.8-0.25-1.08,0.05c-1.36,1.7-2.62,3.48-3.86,5.26
		c-1.71,2.36-5.59,7.07-5.65,7.5c-0.02,0.16,0.02,0.36,0.15,0.46c0.15,0.11,0.38,0.05,0.54,0c0.18-0.05,0.64-0.54,0.64-0.55
		c0.06-0.09,0.13-0.18,0.2-0.26c0.08-0.1,0.16-0.2,0.24-0.3c0.15-0.19,0.3-0.39,0.46-0.59c0.55-0.69,1.08-1.39,1.61-2.1
		c0.53-0.71,1.05-1.42,1.56-2.13c0.05-0.07,0.11-0.15,0.16-0.22c-0.11,1.89-0.11,3.74-0.12,5.67c0,0.27,0.27,0.48,0.54,0.46
		c0.48-0.03,0.5-0.53,0.47-0.89c-0.11-2.15,0.31-4.43,0.04-6.53c0.15-0.21,0.31-0.42,0.46-0.64c0.52-0.72,1.03-1.44,1.55-2.15
		c0.26-0.36,0.52-0.72,0.79-1.07c0.06-0.08,0.12-0.16,0.17-0.23c0,0.17-0.01,0.35-0.03,0.52c-0.21,3.47-0.09,6.95-0.15,10.43
		c0,0.27,0.27,0.48,0.54,0.46c0.29-0.02,0.48-0.25,0.47-0.52c0-0.93,0.01-1.88,0.02-2.81c-0.05-2.76,0.11-5.56,0.14-8.31
		c0.56,0.94,1.14,1.87,1.74,2.78c0.38,0.58,0.78,1.16,1.17,1.73c-0.01,0.1,0,0.21,0.03,0.31c0.35,2.11,0.44,4.26,0.54,6.4
		c0.02,0.27,0.27,0.48,0.54,0.46c0.28-0.01,0.49-0.25,0.48-0.52c-0.04-0.68-0.06-1.36-0.1-2.04c-0.03-0.93-0.13-1.84-0.24-2.75
		c0.69,1.01,1.38,2.01,2.06,3.02c0.33,0.49,0.66,0.99,0.98,1.49c0.09,0.14,0.17,0.28,0.25,0.42c0.14,0.24,0.29,0.48,0.5,0.67
		c0.14,0.13,0.34,0.2,0.53,0.13c0.17-0.07,0.35-0.26,0.35-0.45c0-0.12-0.09-0.22-0.15-0.31C58.99,19.15,58.91,19.03,58.83,18.91z"/>
	<path d="M40.92,19.6c-0.01,0-0.01,0.01-0.02,0.01C40.91,19.6,40.92,19.6,40.92,19.6C40.93,19.59,40.92,19.6,40.92,19.6
		C40.92,19.6,40.92,19.6,40.92,19.6z"/>
	<path d="M55.51,19.35C55.52,19.35,55.52,19.34,55.51,19.35L55.51,19.35C55.51,19.35,55.51,19.35,55.51,19.35z"/>
	<path d="M89.66,17.84c-3.28-2.97-6.01-6.45-9.18-9.51c-0.4-0.4-0.9-1.38-1.64-0.97c-1.51,1.39-2.76,3.05-4.16,4.55
		c-2.15,2.33-4.48,4.58-6.61,6.93c-0.18,0.19-0.42,0.41-0.47,0.68c-0.06,0.3,0.2,0.53,0.5,0.42c0.3-0.1,0.55-0.41,0.8-0.6
		c0.25-0.25,0.51-0.51,0.77-0.78c0.65-0.67,1.3-1.34,1.95-2.02c0.81-0.84,1.61-1.69,2.42-2.54c-0.01,1.8-0.18,3.6-0.21,5.39
		c0.04,0.64,1.09,0.58,1.04-0.05c0.06-2.07,0.26-4.12,0.22-6.2c0-0.08-0.02-0.14-0.05-0.2c0.63-0.67,1.26-1.34,1.88-2.01
		c0.55-0.6,1.1-1.2,1.64-1.81c-0.18,3.42-0.11,6.81-0.12,10.27c0.08,0.72,1.17,0.54,1.04-0.16c-0.01-3.47-0.05-6.97,0.12-10.45
		c1.17,1.17,2.64,2.67,4.1,4.17c-0.08,0.14-0.11,0.32-0.06,0.5c0.11,1.98,0.32,3.92,0.53,5.89c0.05,0.64,1.1,0.58,1.05-0.06
		c-0.27-1.74-0.3-3.55-0.5-5.28c2.67,2.75,5.03,5.22,5.05,5.24c0.03,0.01,0.7,0.91,1.4,0.71c0.1-0.03,0.21-0.12,0.21-0.23
		C91.35,19.28,90.19,18.46,89.66,17.84z"/>
	<path d="M69.54,19.1C69.54,19.1,69.54,19.1,69.54,19.1C69.54,19.1,69.54,19.1,69.54,19.1L69.54,19.1z"/>
</g>
</svg>
