<?xml version="1.0" encoding="utf-8"?>
<!-- Generator: Adobe Illustrator 23.0.0, SVG Export Plug-In . SVG Version: 6.00 Build 0)  -->
<svg version="1.1" id="Слой_1" xmlns="http://www.w3.org/2000/svg" xmlns:xlink="http://www.w3.org/1999/xlink" x="0px" y="0px"
	 viewBox="0 0 100 21.28" style="enable-background:new 0 0 100 21.28;" xml:space="preserve">
<path d="M94.35,18.55c-0.31-0.39-6.81-8.8-9.78-12.58c-0.84-1.22-1.7-2.56-2.53-3.79c-0.53-0.96-1.54-1.35-2.25-0.31
	c-4.82,5.4-9.62,10.96-14.49,16.11c-0.4-0.35-0.84-0.67-1.26-1C63.49,16.54,52.52,4.45,51.61,3.46c-0.4-0.45-0.82-0.96-1.24-1.48
	c-0.25-0.31-0.5-0.75-0.98-0.69c-0.44,0.05-0.68,0.49-0.92,0.79c-0.26,0.35-0.54,0.67-0.81,1c-0.56,0.67-1.13,1.32-1.71,1.96
	c-1.04,1.14-2.15,2.28-3.24,3.45c-1.03,1.11-2,2.28-3.01,3.4c-0.54,0.59-1.1,1.19-1.65,1.8c-0.53,0.57-1.05,1.16-1.58,1.73
	c-0.52,0.57-1.05,1.13-1.61,1.67c-0.28,0.27-0.56,0.53-0.84,0.8c-0.18,0.17-0.36,0.35-0.54,0.52c-0.12-0.1-0.23-0.19-0.35-0.29
	c-0.52-0.45-1.02-1-1.51-1.56c-0.78-1.15-1.89-2.2-2.78-3.27c-1-1.21-2-2.41-3-3.61c-0.73-0.88-5.9-8.34-6.26-8.6
	c-0.15-0.11-0.36-0.15-0.54-0.06c-0.22,0.1-0.36,0.31-0.5,0.5c-0.14,0.2-0.28,0.4-0.41,0.59c-0.89,1.27-1.8,2.51-2.69,3.77
	c-0.56,0.8-1.13,1.6-1.71,2.39c-0.57,0.79-1.17,1.55-1.75,2.33c-0.61,0.82-1.22,1.64-1.82,2.47c-0.59,0.81-1.21,1.59-1.83,2.38
	c-0.59,0.75-1.14,1.52-1.68,2.3c-0.26,0.38-0.53,0.76-0.76,1.16c-0.12,0.2-0.24,0.4-0.32,0.62c-0.04,0.11-0.05,0.21-0.04,0.32
	c0.02,0.25,0.22,0.45,0.47,0.45c0.09,0,0.18-0.04,0.25-0.09c0.91-0.25,1.83-0.51,2.78-0.6c0.58-0.01,1.2-0.04,1.71-0.2
	c0.38-0.12,0.66-0.43,0.7-0.83c0.1-0.97-0.21-1.99-0.47-2.99c-0.15-0.59,0.29-1.16,0.9-1.15c1.38,0.02,3.28,0.03,3.35-0.88
	c-0.25-1.35-0.58-2.77-0.6-4.18c-0.01-0.49,0.34-0.9,0.83-0.96c0.58-0.07,1.18-0.1,1.79-0.1c0.81,0.11,2.28,0.26,2.24-0.96
	c0.24-1.47,0.07-2.99,0.05-4.49c1.46,1.59,4.11,5.57,4.98,6.66c2.09,2.61,4.19,5.23,6.44,7.73c0.42,0.47,0.84,0.94,1.31,1.37
	c0.25,0.23,0.51,0.44,0.76,0.66c0.04,0.04,0.09,0.08,0.14,0.12c0.19,0.14,0.44,0.14,0.64,0.02c0.09-0.06,0.16-0.13,0.24-0.2
	c0.36-0.11,0.88-0.18,1.22-0.38c1.73-0.28,3.74-0.12,5.24-1.09c0.33-1.27,0.16-2.68-0.16-3.96c6.38-0.41,5.05,0.11,4.89-5.67
	c0,0,0,0,0,0c0,0,0,0,0,0c0,0,0,0,0,0c1.16-0.03,2.43,0,3.6-0.24c0.25-0.02,0.48-0.18,0.54-0.41c0.24-1.54,0.31-3.1,0.4-4.66
	c0.32,0.39,0.63,0.79,0.97,1.16c0.77,0.86,3.45,3.73,3.93,4.42c0.5,0.72,8.04,8.79,8.57,9.21c0.22,0.17,0.43,0.34,0.65,0.51
	c0.18,0.14,0.36,0.27,0.54,0.41c0.02,0.02,0.03,0.03,0.05,0.04c0.04,0.04,0.1,0.09,0.15,0.14c0.04,0.03,0.08,0.05,0.12,0.07
	c0.05,0.2,0.21,0.37,0.48,0.38c0.33,0.05,0.67,0.04,1,0.01c0.04-0.01,0.07-0.02,0.11-0.04c1.21-0.09,2.43-0.16,3.6-0.46
	c0.29-0.1,0.57-0.31,0.63-0.61c0.02-1.1-0.33-2.18-0.37-3.28c6.61-1.46,6.24,1.14,5.51-6.32c0,0,0,0,0,0
	c1.02-0.28,2.16,0.03,3.21-0.02c0.67-0.03,1.22-0.47,1.39-1.09c0.4-1.51,0.51-3.13,0.78-4.67c1.19,1.62,2.16,3.44,3.48,4.98
	c3.23,3.63,5.69,7.4,8.92,11.5C93.93,19.68,94.76,19.06,94.35,18.55z M10.55,18.5c-0.52,0.23-2.17,0.11-3.39,0.22
	c0.02-0.04,0.05-0.07,0.07-0.11c0.05-0.08,0.14-0.21,0.23-0.34c0.56-0.81,1.14-1.6,1.75-2.38c0.23-0.29,0.45-0.59,0.68-0.89
	c0.07,0.29,0.16,0.58,0.21,0.8C10.34,16.68,10.46,17.58,10.55,18.5C10.55,18.5,10.55,18.5,10.55,18.5z M13.22,13.47
	c-0.73,0.06-1.47,0.04-2.21,0.07c0,0,0,0,0.01-0.01c0.58-0.79,1.16-1.59,1.76-2.38c0.38-0.5,0.76-1.01,1.14-1.52
	c-0.09,0.9-0.05,1.77,0.13,2.74C14.14,12.92,13.76,13.43,13.22,13.47z M18.61,6.54c-0.04,0.5-0.45,0.89-0.96,0.88
	c-0.72-0.01-1.44-0.03-2.16,0.05c0.25-0.35,0.5-0.69,0.74-1.04c0.53-0.75,1.06-1.49,1.6-2.23c0.25-0.35,0.49-0.7,0.74-1.04
	C18.62,4.28,18.7,5.41,18.61,6.54z M39.63,17.14c-1.27,0.58-2.71,0.53-4.08,0.72c-0.03,0-0.07,0.01-0.11,0.01
	c0.5-0.48,1-0.96,1.47-1.47c0.69-0.74,1.36-1.5,2.05-2.25c0.12-0.13,0.24-0.26,0.36-0.39C39.59,14.86,39.81,15.97,39.63,17.14z
	 M40.93,12.8c-0.21,0.03-0.49,0.03-0.76,0.05c0.27-0.3,0.54-0.59,0.81-0.89c0.63-0.7,1.24-1.43,1.87-2.14
	c0.24-0.27,0.5-0.55,0.77-0.83c0.21-0.22,0.42-0.45,0.63-0.67c-0.14,1.31,0.31,2.81,0.22,4.12C43.33,12.7,42.15,12.72,40.93,12.8z
	 M48.43,6.98c-0.97,0.26-2.1,0.06-3.09,0.18c0.74-0.79,1.48-1.58,2.2-2.4c0.41-0.47,0.81-0.94,1.2-1.42
	C48.67,4.55,48.61,5.77,48.43,6.98z M66.48,18.15c0.94-0.91,1.85-1.86,2.74-2.82c0.08,0.81,0.25,1.62,0.35,2.43
	C68.56,17.99,67.51,18.08,66.48,18.15z M75,13.16c-1.46,0.01-2.89,0.24-4.31,0.53c0.32-0.37,0.65-0.73,0.97-1.1
	c0.98-1.19,2-2.35,3.04-3.49C74.81,10.01,75.15,11.33,75,13.16z M79.26,7.43c-1.37-0.08-2.34-0.1-3.03-0.03
	c1.25-1.37,2.5-2.76,3.73-4.16C79.74,4.63,79.5,6.03,79.26,7.43z"/>
</svg>
