<?xml version="1.0" encoding="utf-8"?>
<!-- Generator: Adobe Illustrator 23.0.0, SVG Export Plug-In . SVG Version: 6.00 Build 0)  -->
<svg version="1.1" id="Слой_1" xmlns="http://www.w3.org/2000/svg" xmlns:xlink="http://www.w3.org/1999/xlink" x="0px" y="0px"
	 viewBox="0 0 100 21.28" style="enable-background:new 0 0 100 21.28;" xml:space="preserve">
<path d="M94.62,18.75c-0.97-2.8-12.69-16.61-12.86-16.72c-0.67-0.44-1.25,0.7-1.59,1.12c-0.52,0.65-1.08,1.28-1.65,1.89
	c-1.14,1.23-2.36,2.38-3.55,3.56c-1.01,1-1.98,2.04-2.99,3.04c-0.88,0.87-1.8,1.69-2.71,2.53c-0.67,0.62-1.33,1.24-1.99,1.87
	c-0.64,0.61-1.26,1.25-1.94,1.83c-0.25,0.22-0.57,0.47-0.9,0.69c-0.04,0.03-0.09,0.05-0.13,0.08c-1.09-1.02-1.9-2.33-2.76-3.54
	c-0.45-0.63-0.88-1.27-1.36-1.89c-2.2-2.85-4.31-5.77-6.53-8.6c-0.32-0.4-0.63-0.81-0.97-1.2c-0.31-0.36-0.64-0.71-0.99-1.04
	c-0.31-0.3-0.62-0.61-0.98-0.85c-0.16-0.11-0.34-0.2-0.54-0.2c-0.16,0-0.3,0.06-0.43,0.14c-0.18,0.13-0.32,0.3-0.45,0.47
	c-0.27,0.36-0.55,0.72-0.83,1.08c-0.57,0.71-1.15,1.39-1.75,2.08c-1.3,1.49-2.65,2.93-3.94,4.42c-1.43,1.64-2.79,3.34-4.16,5.03
	c-0.65,0.8-1.31,1.59-1.94,2.4c-0.31,0.4-0.61,0.8-0.91,1.2c-0.23,0.32-0.46,0.64-0.71,0.95c-0.06-0.04-0.13-0.06-0.19-0.11
	c-0.07-0.07-0.15-0.14-0.22-0.21c-2.49-2.44-5.03-4.85-7.31-7.47c-1.15-1.32-2.21-2.71-3.31-4.07c-1.14-1.4-2.27-2.81-3.37-4.24
	c-0.51-0.66-1.01-1.75-1.89-2.03c-0.62-0.19-1.17,0.41-1.51,0.94c-3.9,5.98-7.81,11.96-11.71,17.94c-0.16,0.24-0.32,0.54-0.18,0.79
	c0.14,0.24,0.48,0.28,0.78,0.29c1.13,0.03,2.25,0.03,3.38,0.01c0.89-0.02,1.76,0.11,2.26-0.71c3.1-5.04,6.2-10.07,9.3-15.11
	c-0.14,0.22,2.15,2.77,2.4,3.08c0.81,1.02,1.62,2.04,2.47,3.03c2.28,2.67,4.48,5.38,7.17,7.68c0.44,0.37,1.4,1.35,2.07,1.35
	c0.05,0,0.1,0,0.15,0c0.64,0,1.26-0.01,1.89-0.02c1.2-0.01,2.39-0.03,3.58-0.03c0.5,0,0.86,0.06,0.99-0.17
	c2.11-3.32,4.8-6,6.95-9.31c1.36-1.8,2.72-3.73,4.05-5.55c0.24,0.3,0.48,0.6,0.71,0.92c0.05,0.07,0.1,0.14,0.15,0.21
	c2.11,2.93,4.45,5.69,6.51,8.65c0.61,0.88,1.24,1.74,1.87,2.6c0.31,0.42,0.63,0.84,0.95,1.25c0.17,0.21,0.34,0.43,0.5,0.64
	c0.11,0.14,0.21,0.36,0.37,0.45c0.23,0.18,0.58,0.13,0.86,0.14c1.47,0.03,2.92-0.1,4.38-0.17c0.69,0.01,0.87-0.01,0.96-0.09
	c4.46-4.57,9.23-8.91,13.81-13.39c0.06-0.01,0.12-0.03,0.17-0.06c1.1,1.33,7.73,9.96,10.11,12.85
	C94.5,19.54,94.77,19.19,94.62,18.75z"/>
</svg>
