<?xml version="1.0" encoding="utf-8"?>
<!-- Generator: Adobe Illustrator 23.0.0, SVG Export Plug-In . SVG Version: 6.00 Build 0)  -->
<svg version="1.1" id="Слой_1" xmlns="http://www.w3.org/2000/svg" xmlns:xlink="http://www.w3.org/1999/xlink" x="0px" y="0px"
	 viewBox="0 0 100 21.28" style="enable-background:new 0 0 100 21.28;" xml:space="preserve">
<path d="M94.06,19.07c-0.56-0.75-0.73-0.91-1.29-1.67c-1.24-1.67-2.48-3.33-3.71-5c-1.74-2.35-3.48-4.7-5.23-7.05
	c-0.66-0.89-1.32-1.79-1.98-2.67c-0.35-0.48-0.7-0.96-1.06-1.43c-0.01-0.01-0.01-0.02-0.02-0.02c0-0.01-0.01-0.02-0.02-0.02
	C80.65,1.05,80.48,0.98,80.31,1c-0.15-0.02-0.3,0.02-0.41,0.14c-0.3,0.34-0.6,0.68-0.9,1.03c-1.5,1.71-2.99,3.42-4.49,5.13
	c-2.04,2.33-4.09,4.67-6.13,7c-1.33,1.52-2.65,3.05-3.99,4.57c-0.01,0-0.01,0.01-0.01,0.02c-0.1-0.08-0.21-0.16-0.32-0.23
	c-0.65-0.45-1.15-1.08-1.63-1.7c-0.75-0.98-1.46-1.99-2.15-3.01c-2.64-3.91-5-7.99-7.78-11.8c-0.09-0.13-0.18-0.25-0.27-0.38
	c-0.11-0.15-0.21-0.3-0.35-0.42C51.72,1.2,51.55,1.1,51.34,1.1c-0.29,0-0.51,0.21-0.67,0.43c-1.27,1.65-2.49,3.32-3.85,4.91
	c-3.08,3.61-6.41,7-9.63,10.5c-0.55,0.59-1.06,1.22-1.6,1.83c-0.12,0.14-0.25,0.28-0.39,0.42c-0.05-0.04-0.11-0.07-0.16-0.11
	c-0.27-0.18-1.85-1.74-2.31-2.22c-0.61-0.64-1.21-1.28-1.8-1.94c-1.18-1.32-2.31-2.67-3.39-4.07c-2.37-3.06-4.66-6.22-6.91-9.36
	c-0.3-0.42-0.65-0.94-1.23-0.84c-0.55,0.09-0.95,0.69-1.23,1.11c-2.56,3.8-5.13,7.6-7.68,11.4c-0.8,1.19-1.64,2.35-2.45,3.54
	c-0.72,1.06-1.16,1.66-2.12,3.04c-0.18,0.26-0.07,0.61,0.24,0.75c0.68,0.33,1.4-1.13,1.64-1.54c0.53-0.9,1.08-1.78,1.65-2.66
	c1.1-1.73,2.25-3.43,3.39-5.14c1.22-1.83,2.45-3.66,3.69-5.48c0.72-1.04,1.4-2.17,2.24-3.12c0.15-0.18,0.33-0.37,0.51-0.57
	c0.08-0.09,0.17-0.19,0.26-0.28c0.03,0.03,0.05,0.05,0.07,0.08c0.27,0.31,0.48,0.67,0.72,1.01c0.22,0.31,0.45,0.61,0.68,0.91
	c-3.28,4.53-6.11,9.4-9.35,13.99c-0.34,0.61-1.95,2.55-1.47,2.85c0.58,0.31,0.94-0.1,1.15-0.5c2.68-3.95,5.23-8.06,7.94-12.02
	c0.24,0.3,0.53,0.59,0.72,0.83c0.34,0.41,0.67,0.82,1.05,1.19c0.02,0.02,0.04,0.04,0.06,0.06c-0.09,0.07-0.16,0.16-0.19,0.28
	c-1.95,3.21-4.39,6.12-6.32,9.36c-0.15,0.23-0.05,0.55,0.18,0.69c0.24,0.14,0.53,0.05,0.68-0.18c1.08-1.84,2.41-3.54,3.59-5.33
	c0.05-0.12,0.17-0.31,0.34-0.54c0.41,0.72,1.51,1.68,1.83,1.94c1.49,1.3,2.89,2.7,4.31,4.09c0.21,0.18,0.54,0.12,0.7-0.09
	c0.35-0.5-0.28-0.84-0.57-1.17c-1.83-1.93-3.95-3.55-5.69-5.54c0.7-0.9,1.57-2.02,1.82-2.77c1.65,1.77,3.11,3.7,4.65,5.58
	c0.98,1.2,2.05,2.3,3.13,3.41c0.1,0.1,0.2,0.21,0.32,0.29c0.05,0.04,0.11,0.07,0.17,0.09c0.19,0.08,0.44,0.05,0.57-0.11
	c0.12-0.15,0.11-0.37,0.02-0.54c-0.08-0.17-0.23-0.3-0.37-0.43c-2-1.81-3.6-4.04-5.3-6.13c-1.09-1.34-2.3-2.59-3.44-3.89
	c-0.56-0.64-1.07-1.36-1.66-1.98c0.24-0.34,0.47-0.7,0.71-1.04c0.3-0.53,0.7-1.03,1.02-1.55c1.71,2.27,3.33,4.62,5.11,6.85
	c1.81,2.26,3.72,4.44,5.65,6.6c0.34,0.38,0.7,0.77,1.07,1.11c0.29,0.27,0.6,0.5,0.92,0.73c0.16,0.11,0.31,0.22,0.48,0.32
	c0.12,0.07,0.24,0.12,0.38,0.12c0.18,0,0.34-0.09,0.47-0.2c0.35-0.3,0.64-0.66,0.95-1.01c0.32-0.37,0.64-0.75,0.97-1.12
	c1.98-2.22,4.18-4.25,6.18-6.47c1.99-2.21,3.91-4.48,5.77-6.8c0.43-0.54,0.86-1.09,1.27-1.66c0.11-0.16,0.23-0.33,0.34-0.49
	c0.06-0.08,0.12-0.17,0.17-0.25c0.17,0.23,0.35,0.46,0.52,0.7c0.43,0.59,0.83,1.21,1.24,1.82c-0.46,0.37-0.92,0.99-1.24,1.2
	c-4.3,4.15-8.05,8.73-12.06,13.16c-0.31,0.27-0.78,0.68-0.39,1.09c0.64,0.5,1.13-0.52,1.59-0.87c3.2-3.65,6.33-7.38,9.77-10.84
	c0.5,0.69,1,1.4,1.49,2.1c-0.8,0.93-1.73,1.84-2.52,2.82c-1.43,1.6-2.84,3.23-4.29,4.84c-0.31,0.5-1.43,1.17-0.74,1.77
	c0.22,0.15,0.55,0.08,0.69-0.15c0.56-0.72,1.2-1.38,1.81-2.06c0.86-1.12,1.85-2.17,2.83-3.23c0.07,0.08,0.14,0.16,0.2,0.24
	c1.58,1.72,2.87,3.74,4.46,5.48c0.44,0.47,1.17-0.23,0.72-0.7c-1.67-1.82-3.03-3.95-4.72-5.74c0.74-0.8,1.45-1.62,2.09-2.48
	c2.05,2.97,4.06,5.99,6.36,8.77c0.16,0.22,0.5,0.24,0.7,0.07c0.21-0.18,0.24-0.49,0.07-0.7c-0.69-0.99-1.46-1.91-2.22-2.86
	c-2.31-2.77-3.98-6.07-6.26-8.88c0.73-0.74,1.45-1.47,2.22-2.16c1.96,3.02,3.76,6.16,5.85,9.1c1.19,1.67,2.36,3.54,3.99,4.83
	c0.17,0.13,0.35,0.26,0.56,0.31c0.08,0.02,0.15,0,0.23-0.01c0.08,0.04,0.16,0.07,0.25,0.07c0.13,0,0.26-0.05,0.35-0.15
	c0.41-0.47,0.82-0.94,1.23-1.41c1.53-1.74,3.05-3.49,4.58-5.23c2.16-2.47,4.32-4.94,6.48-7.4c1.02-1.17,2.05-2.34,3.07-3.51
	c0.16,0.22,0.32,0.44,0.48,0.65c0.34,0.45,0.67,0.91,1.01,1.36c0.08,0.11,0.16,0.22,0.25,0.33c-0.77,0.7-1.26,1.74-1.98,2.51
	c-3.28,4.19-7.22,7.83-10.57,11.98c-0.31,0.24-0.53,0.7-0.15,0.99c0.22,0.15,0.53,0.11,0.7-0.11c0.4-0.42,0.82-0.88,1.21-1.33
	c2.87-3.64,6.31-6.77,9.21-10.38c0.43,0.65,0.88,1.28,1.33,1.92c-0.03,0.03-0.06,0.07-0.08,0.11c-0.2,0.19-0.38,0.43-0.53,0.58
	c-2.56,2.79-5.43,5.28-7.71,8.32c-0.22,0.23-0.27,0.68,0.05,0.86c0.3,0.19,0.65-0.04,0.78-0.31c1.65-2.17,3.59-4.06,5.5-5.99
	c0.03,0.03,0.05,0.06,0.09,0.09c1.99,1.94,3.68,4.16,5.51,6.25c0.42,0.49,1.18-0.16,0.76-0.65c-1.88-2.13-3.61-4.44-5.67-6.39
	c0.25-0.26,0.5-0.51,0.75-0.77c0.33-0.34,0.64-0.7,0.96-1.04c0.05-0.06,0.11-0.13,0.18-0.19c2.25,3.13,4.7,6.13,7.44,8.84
	c0.42,0.5,1.18-0.16,0.77-0.64c-0.99-0.94-1.86-1.87-2.75-2.96c-2.55-2.73-4.65-5.76-6.76-8.84c0.18-0.24,0.37-0.47,0.55-0.72
	c0.3-0.46,0.68-0.88,0.97-1.35c1.45,1.96,2.91,3.92,4.36,5.88c1.41,1.91,2.83,3.81,4.24,5.72c0.82,1.12,1.25,1.63,2.08,2.74
	c0.1,0.13,0.25,0.2,0.41,0.2c0.1,0,0.21-0.03,0.3-0.1C94.18,19.62,94.23,19.29,94.06,19.07z"/>
</svg>
