<?xml version="1.0" encoding="utf-8"?>
<!-- Generator: Adobe Illustrator 23.0.0, SVG Export Plug-In . SVG Version: 6.00 Build 0)  -->
<svg version="1.1" id="Слой_1" xmlns="http://www.w3.org/2000/svg" xmlns:xlink="http://www.w3.org/1999/xlink" x="0px" y="0px"
	 viewBox="0 0 100 21.28" style="enable-background:new 0 0 100 21.28;" xml:space="preserve">
<path d="M93.63,17.15c-1.1-2.13-5.07-11.11-6.8-13.36c-0.25-0.31-0.62-0.67-1.08-0.61c-0.63,0.14-0.78,0.85-1.16,1.28
	c-3.43,4.13-6.53,8.45-9.86,12.41c0.16-0.19-0.49-1.07-0.59-1.26c-1.7-3.55-3.94-6.77-6.06-10.07c-0.26-0.41-0.53-0.82-0.92-1.12
	c-0.03-0.05-0.07-0.1-0.13-0.14c-0.03-0.01-0.05-0.01-0.08-0.01c-0.05-0.03-0.1-0.05-0.16-0.05c-0.01,0-0.02,0.01-0.03,0.02
	c-0.64,0.02-0.87,1.06-1.4,1.46c-3.66,3.68-6.11,7.12-9.12,10.95c-2.49-3.22-4.09-7.85-6.19-11.41c-0.62-0.98-1.98-2.47-2.83-0.9
	c-2.95,4.12-5.68,8.29-8.65,12.16c-2.15-3.67-3.95-7.58-6.02-11.19c-0.27-0.51-0.53-1.34-1.15-1.34c-0.26,0.03-0.43,0.27-0.58,0.48
	c-0.81,1.11-1.63,2.2-2.42,3.32c-2.17,3.31-4.34,6.49-6.79,9.37c-0.02,0-0.05,0-0.07,0c-1.98-3.4-3.53-7.04-5.47-10.35
	c-0.65-0.9-2.22-4.68-3.15-2.36c-1.95,3.97-4.05,7.76-5.85,11.7c-0.03,0.06-0.07,0.12-0.09,0.18c-0.19,0.32-0.42,0.63-0.63,0.94
	c-0.07,0.09-0.11,0.22-0.09,0.36c0.05,0.24,0.15,0.35,0.25,0.39c0.09,0.09,0.18,0.11,0.27,0.09c0.03,0.01,0.06,0.02,0.09,0.03
	c0,0,0.01,0,0.01,0c1.01,0,2.02,0,3.05,0c2.63,0,5.31-0.01,8.04-0.01c3.26,0,6.59-0.01,9.99-0.01c3.36,0,6.79-0.01,10.3-0.01
	c3.53-0.01,7.14-0.01,10.83-0.01c4.01-0.01,8.12-0.01,12.33-0.01c3.91,0,7.91-0.01,12.01-0.02c0.33,0,0.66,0,0.99,0
	c0.16,0.05,0.33,0.04,0.5,0c3.2,0,6.45-0.01,9.76-0.01c2.73,0,5.52,0.02,8.33-0.01c0.18,0,0.33-0.07,0.44-0.19l0,0
	C93.75,17.62,93.83,17.42,93.63,17.15z M86.84,16.85c1.32-0.77,2.61-1.65,4.09-2.23c0.16,0.3,0.31,0.58,0.46,0.85
	c-0.34,0.16-0.75,0.39-1.24,0.67c-0.41,0.23-0.95,0.45-1.3,0.71C88.18,16.85,87.51,16.85,86.84,16.85z M79.35,16.89
	c-0.56-0.32-1.38-0.91-2.08-1.22c0.28-0.41,0.55-0.79,0.78-1.09c0.17,0.13,0.35,0.27,0.47,0.32c1.66,0.73,2.91,1.33,4.17,1.97
	C81.57,16.88,80.45,16.88,79.35,16.89z M67.51,16.94c-0.49,0-0.96,0-1.44,0.01c0-0.07,0.01-0.14,0.01-0.2
	c0.94-0.34,1.79-1.32,2.58-1.86c0.92-0.63,1.79-1.19,2.75-1.78c0.17,0.32,0.35,0.64,0.52,0.96c-1.31,0.86-2.9,2.09-4.24,2.88
	C67.63,16.94,67.57,16.94,67.51,16.94z M63.22,16.95c-1.35-0.56-2.96-1.61-3.98-2.37c-0.01-0.01-0.01-0.01-0.02-0.02
	c0.23-0.3,0.45-0.6,0.68-0.9c0.04,0.03,0.09,0.05,0.15,0.07c1.58,1.04,3.22,2.15,4.94,3.07c0,0.05-0.01,0.1-0.01,0.15
	C64.4,16.95,63.81,16.95,63.22,16.95z M61,16.96c-1.22,0.01-2.43,0.01-3.63,0.02c0.4-0.52,0.81-1.04,1.21-1.56
	C59.01,15.98,60.04,16.54,61,16.96z M62.83,10.06c0.69,0.55,1.65,1.39,2.45,1.83c0.01,0,0.02,0,0.02,0.01
	c-0.04,0.4-0.07,0.8-0.1,1.2c-1.06-0.65-2.1-1.43-2.91-2.29c-0.02-0.03-0.04-0.04-0.07-0.06C62.43,10.52,62.63,10.29,62.83,10.06z
	 M66.7,9.17c0.35-0.25,0.7-0.64,1.16-1.04c0.1-0.12,0.28-0.23,0.45-0.35c0.18,0.28,0.35,0.56,0.52,0.85
	c-0.75,0.49-1.49,1.03-2.25,1.54C66.63,9.83,66.67,9.5,66.7,9.17z M69.97,10.52c-0.02,0.01-0.05,0.01-0.07,0.03
	c-1.27,0.74-2.47,1.56-3.61,2.44c0.04-0.46,0.09-0.93,0.14-1.39c1.01-0.66,1.98-1.34,3-2.02C69.62,9.89,69.79,10.2,69.97,10.52z
	 M70.87,12.08c-0.36,0.22-0.71,0.55-1.01,0.66c-1.28,0.8-2.49,1.69-3.72,2.54c0.01-0.29,0.01-0.58,0.03-0.87
	c1.22-1.07,2.84-2.08,4.3-2.92c0.02-0.01,0.03-0.03,0.05-0.05C70.63,11.67,70.75,11.87,70.87,12.08z M64.85,14.17
	c0.09,0.07,0.17,0.13,0.26,0.2c-0.03,0.41-0.04,0.82-0.06,1.24c-1.57-0.83-2.98-1.95-4.52-2.74c0.34-0.44,0.68-0.87,1.03-1.31
	C62.18,12.54,64.34,13.78,64.85,14.17z M72.44,15.06c0.2,0.39,0.41,0.79,0.61,1.18c0.1,0.2,0.22,0.44,0.35,0.67
	c-1.34,0.01-2.65,0.01-3.97,0.02C70.43,16.32,71.44,15.7,72.44,15.06z M76.6,16.59c0.19,0.09,0.37,0.2,0.56,0.31
	c-0.27,0-0.54,0-0.81,0C76.43,16.8,76.51,16.69,76.6,16.59z M79.96,12.16c0.01,0,0.01,0.01,0.02,0.01c1.23,1.08,2.56,2.13,3.96,3.09
	c0.17,0.16,0.34,0.26,0.51,0.32c-0.02,0.3-0.05,0.6-0.06,0.9c-1.67-0.93-2.9-1.72-5.23-2.7c-0.18-0.07-0.22-0.15-0.28-0.21
	C79.23,13.09,79.59,12.63,79.96,12.16z M81.84,9.81c0.97,0.88,1.57,2.43,2.78,3.05c0,0,0.01,0,0.01,0c-0.04,0.47-0.07,0.94-0.1,1.41
	c-0.78-0.61-1.65-1.1-2.39-1.74c-0.48-0.37-0.92-0.95-1.47-1.27C81.06,10.78,81.45,10.3,81.84,9.81z M87.45,7.79
	c0.03-0.05,0.08-0.1,0.12-0.16c0.17,0.35,0.34,0.71,0.52,1.09c-0.61,0.43-1.4,1.26-2.1,1.93c0.01-0.24,0.03-0.48,0.06-0.71
	C86.58,9.5,87.02,8.41,87.45,7.79z M89.25,11.2c-1.19,0.79-2.33,1.6-3.46,2.44c0.04-0.45,0.08-0.91,0.11-1.36
	c0.97-0.66,1.75-1.68,2.72-2.41C88.83,10.31,89.04,10.75,89.25,11.2z M90.42,13.63c-1.67,0.67-3.25,1.73-4.84,2.55
	c0.02-0.26,0.03-0.51,0.05-0.77c0.77-0.41,1.52-1.25,2.13-1.62c0.61-0.47,1.36-0.93,2.06-1.4C90.02,12.82,90.22,13.23,90.42,13.63z
	 M84.72,11.52c-0.49-0.49-1.45-1.96-2.14-2.64c0.33-0.41,0.66-0.82,0.99-1.24c0.29,0.56,0.76,1.14,0.93,1.45
	c0.13,0.24,0.25,0.41,0.37,0.56C84.83,10.28,84.77,10.9,84.72,11.52z M91.93,16.39c0.1,0.16,0.2,0.31,0.29,0.44
	c-0.42,0-0.83,0-1.25,0.01C91.27,16.69,91.63,16.54,91.93,16.39z M87.04,6.56c-0.31,0.35-0.51,0.75-0.76,1.12
	c0.08-0.78,0.14-1.55,0.15-2.3C86.62,5.71,86.82,6.11,87.04,6.56z M85.21,5.56c0,0.09,0,0.19-0.02,0.28
	c-0.05,0.57-0.09,1.14-0.14,1.71c-0.19-0.34-0.4-0.69-0.67-0.91C84.66,6.27,84.94,5.91,85.21,5.56z M67.7,6.82
	C67.43,7,67.16,7.25,66.89,7.51c0.06-0.59,0.12-1.19,0.17-1.79C67.26,6.1,67.48,6.46,67.7,6.82z M65.87,6.81
	c-0.06,0.48-0.12,0.96-0.18,1.44c-0.21-0.19-0.42-0.42-0.66-0.58C65.31,7.4,65.6,7.11,65.87,6.81z M64.29,8.41
	c0.09,0.1,0.19,0.21,0.32,0.32c0.37,0.33,0.68,0.52,0.96,0.62c-0.05,0.47-0.11,0.95-0.16,1.42c-0.48-0.26-1.25-1.17-1.87-1.53
	c0,0,0,0,0,0C63.64,9.07,63.93,8.77,64.29,8.41z M55.15,16.99c-0.77,0-1.52,0.01-2.28,0.01c0.51-0.34,1.01-0.73,1.53-1.05
	C54.64,16.35,54.89,16.7,55.15,16.99z M43.35,11.6c0.07,0.06,0.15,0.11,0.24,0.12c0.96,0.58,2.14,1.49,3.27,1.84
	c-0.03,0.37-0.05,0.74-0.07,1.11c-0.94-0.43-1.84-0.96-2.75-1.56c-0.33-0.22-0.76-0.67-1.21-0.8C43.01,12.07,43.18,11.84,43.35,11.6
	z M44.82,9.48C44.83,9.48,44.83,9.48,44.82,9.48c0.68,0.43,1.51,1.2,2.24,1.56l0,0c-0.04,0.53-0.08,1.06-0.12,1.59
	c-0.41-0.01-0.86-0.57-2.26-1.38c-0.23-0.13-0.48-0.37-0.74-0.49C44.23,10.33,44.53,9.9,44.82,9.48z M45.97,7.83
	c0.31,0.33,0.69,0.59,1.02,0.88c0.09,0.08,0.17,0.14,0.25,0.18c-0.03,0.37-0.06,0.74-0.09,1.11c-0.65-0.31-1.13-1-1.76-1.35
	C45.58,8.38,45.77,8.1,45.97,7.83z M49.99,7.28c0.11,0.24,0.23,0.47,0.35,0.71c-0.71,0.47-1.45,0.9-2.17,1.36
	c0.02-0.2,0.04-0.41,0.06-0.61c0.19-0.14,0.39-0.33,0.6-0.49C49.2,7.96,49.66,7.61,49.99,7.28z M51.31,9.82
	C51.31,9.82,51.31,9.82,51.31,9.82c-1.13,0.71-2.26,1.39-3.36,2.1c0.03-0.33,0.05-0.65,0.08-0.98c0.56-0.32,1.08-0.97,1.64-1.2
	c0.29-0.25,0.83-0.46,1.2-0.75C51.01,9.27,51.16,9.54,51.31,9.82z M52.38,11.84c-0.08,0-0.16,0.01-0.24,0.06
	c-1.5,0.82-2.95,1.71-4.35,2.66c0.02-0.44,0.03-0.87,0.06-1.31c0.01,0,0.01-0.01,0.01-0.01c1.24-0.89,2.63-1.65,3.94-2.49
	C52,11.1,52.19,11.47,52.38,11.84z M42.61,13.31c1.33,0.89,2.66,1.82,4.13,2.47c-0.02,0.35-0.04,0.69-0.05,1.04
	c-0.01,0-0.02,0-0.03,0c-1.44-0.35-3.63-1.58-5.14-2.63c0.27-0.37,0.53-0.75,0.8-1.13C42.4,13.14,42.5,13.23,42.61,13.31z
	 M47.74,15.82c0.06-0.03,0.13-0.06,0.18-0.11c0.76-0.55,1.55-1.05,2.37-1.54c0.76-0.48,1.57-0.9,2.36-1.35
	c0.05-0.03,0.09-0.07,0.13-0.11c0.11,0.25,0.23,0.52,0.37,0.82c-1.77,1.15-3.29,1.94-5.44,2.9C47.72,16.22,47.73,16.02,47.74,15.82z
	 M49.55,6.39c-0.04,0.03-0.07,0.06-0.1,0.09c-0.38,0.24-0.73,0.53-1.08,0.84c0.07-0.78,0.11-1.56,0.15-2.35
	C48.95,5.36,49.27,5.86,49.55,6.39z M47.47,5.74c-0.04,0.66-0.08,1.32-0.13,1.97c-0.27-0.23-0.53-0.52-0.77-0.72
	C46.87,6.57,47.17,6.15,47.47,5.74z M30.87,17.09c1.71-1.01,3.38-2.14,5.1-3.23c0.03-0.02,0.05-0.05,0.08-0.07
	c0.15,0.32,0.31,0.67,0.48,1.04c-1.08,0.68-2.48,1.67-3.55,2.26C32.27,17.09,31.58,17.09,30.87,17.09z M27.28,11.03
	c0.07,0.08,0.15,0.15,0.23,0.22c0.78,0.7,1.6,1.44,2.54,1.88c-0.03,0.37-0.07,0.75-0.1,1.13c-1.22-0.52-2.34-1.31-3.41-2.16
	C26.79,11.75,27.03,11.39,27.28,11.03z M29.34,8.02c0.28,0.3,0.71,0.6,1.07,0.78c-0.02,0.35-0.05,0.7-0.08,1.05
	c-0.5-0.29-1.02-0.6-1.49-0.94c-0.02-0.02-0.05-0.04-0.08-0.05C28.96,8.57,29.16,8.29,29.34,8.02z M32.97,7.99
	c-0.59,0.44-1.17,0.89-1.74,1.34c0.02-0.26,0.03-0.52,0.05-0.78c0.46-0.39,0.88-0.77,1.39-1.1C32.77,7.63,32.87,7.81,32.97,7.99z
	 M34.07,9.97c-1.01,0.67-2.02,1.32-3.05,1.93c0.04-0.43,0.07-0.86,0.11-1.29c0.78-0.57,1.53-1.2,2.31-1.77
	C33.65,9.21,33.86,9.59,34.07,9.97z M34.86,11.47c-1.39,0.69-2.7,1.64-4.01,2.49c0.02-0.3,0.05-0.59,0.07-0.89
	c0.92-0.38,1.76-1.13,2.64-1.61c0.23-0.23,0.69-0.39,0.98-0.63C34.65,11.04,34.75,11.25,34.86,11.47z M35.49,12.73
	c0.04,0.06,0.09,0.13,0.14,0.22c-0.04,0.01-0.08,0.02-0.12,0.04c-1.63,1.02-3.2,2.12-4.82,3.07c0.03-0.29,0.04-0.58,0.07-0.87
	c0.55-0.26,1.06-0.78,1.58-1.06c0.94-0.69,1.95-1.23,2.97-1.78C35.36,12.47,35.43,12.6,35.49,12.73z M30.47,7.71
	c-0.21-0.14-0.41-0.28-0.62-0.42c0.24-0.35,0.47-0.67,0.67-0.96C30.51,6.79,30.49,7.25,30.47,7.71z M30.15,10.85
	c0.03,0.02,0.07,0.02,0.1,0.03c-0.04,0.41-0.07,0.82-0.11,1.23c-0.53-0.31-1.05-0.66-1.53-1.11c-0.27-0.16-0.52-0.55-0.81-0.72
	c0.15-0.22,0.3-0.44,0.45-0.66C28.67,10.13,29.83,10.58,30.15,10.85z M29.86,15.27c-0.03,0.35-0.06,0.71-0.08,1.07
	c-1.58-0.68-3.05-1.58-4.54-2.42c0.26-0.36,0.53-0.73,0.79-1.1C26.73,13.71,29.07,14.92,29.86,15.27z M35.78,16.52
	c0.36-0.24,0.86-0.5,1.19-0.8c0.27,0.52,0.56,1,0.86,1.35c-0.93,0-1.85,0.01-2.77,0.01C35.36,16.85,35.62,16.63,35.78,16.52z
	 M39.95,16.25c0.29,0.29,0.6,0.53,0.9,0.8c-0.51,0-1.02,0-1.52,0.01C39.54,16.79,39.74,16.52,39.95,16.25z M40.52,15.5
	C40.52,15.5,40.53,15.5,40.52,15.5c0.01,0.01,0.02,0.02,0.04,0.03C40.55,15.52,40.54,15.51,40.52,15.5z M32.14,6.46
	c-0.25,0.16-0.52,0.43-0.77,0.69c0.03-0.66,0.05-1.32,0.06-1.99c0.01-0.01,0.02-0.02,0.03-0.03C31.67,5.59,31.91,6.02,32.14,6.46z
	 M11.07,17.18c-0.03-0.03-0.07-0.06-0.12-0.07c-0.67-0.24-1.31-0.63-1.99-0.84c-0.3-0.09-0.59-0.26-0.89-0.39
	c0.12-0.24,0.23-0.48,0.35-0.72c0.02,0.01,0.04,0.02,0.07,0.02c1.39,0.75,2.84,1.35,4.3,1.99C12.22,17.18,11.64,17.18,11.07,17.18z
	 M7.64,16.82c0.03-0.04,0.05-0.08,0.07-0.12c0.39,0.16,0.78,0.33,1.16,0.5c-0.47,0-0.94,0-1.41,0.01
	C7.53,17.07,7.59,16.94,7.64,16.82z M11.22,9.54c0.02,0.01,0.03,0.04,0.06,0.04c0.63,0.36,1.22,0.92,1.9,1.25
	c0.01,0.43,0.02,0.86,0.04,1.3c-0.88-0.44-1.69-1.06-2.54-1.56C10.86,10.22,11.04,9.88,11.22,9.54z M11.97,8.16
	C11.96,8.16,11.96,8.16,11.97,8.16C11.96,8.16,11.96,8.15,11.97,8.16C11.96,8.15,11.96,8.16,11.97,8.16z M11.95,8.17
	c0.42,0.18,0.76,0.59,1.21,0.77c0,0.3,0.01,0.6,0.01,0.9c-0.42-0.27-1.05-0.87-1.53-1.07C11.74,8.57,11.84,8.37,11.95,8.17z
	 M15.81,8.07c-0.65,0.45-1.26,0.95-1.87,1.46c0-0.33,0-0.67,0-1c0.04-0.04,0.08-0.08,0.11-0.12c0.41-0.41,0.85-0.77,1.3-1.14
	C15.51,7.54,15.66,7.8,15.81,8.07z M16.65,9.68c-0.93,0.65-1.81,1.36-2.66,2.11c-0.01-0.38-0.02-0.76-0.02-1.14
	c0.74-0.62,1.48-1.22,2.26-1.79C16.37,9.14,16.51,9.41,16.65,9.68z M17.51,11.43c-1.22,0.68-2.35,1.58-3.45,2.47
	c-0.01-0.33-0.03-0.66-0.04-0.98c0.61-0.44,1.14-1.11,1.78-1.52c0.41-0.3,0.83-0.6,1.25-0.9C17.2,10.81,17.36,11.12,17.51,11.43z
	 M18.45,13.32c-1.44,1.01-2.89,2.04-4.32,3.04c-0.01-0.45-0.02-0.9-0.04-1.35c1.23-0.98,2.46-1.96,3.82-2.75
	C18.09,12.61,18.27,12.96,18.45,13.32z M13.06,13.06c0.06,0.03,0.12,0.07,0.19,0.1c0.01,0.38,0.02,0.76,0.03,1.14
	c-1.2-0.43-2.41-0.96-3.53-1.63c-0.04-0.02-0.08-0.03-0.11-0.05c0.22-0.45,0.44-0.91,0.67-1.35C10.93,11.98,12.73,12.84,13.06,13.06
	z M13.31,15.28c0.01,0.39,0.02,0.78,0.04,1.16c-1.53-0.68-3.05-1.38-4.54-2.06c0.17-0.35,0.33-0.7,0.49-1.06
	C10.01,14.16,12.85,15.07,13.31,15.28z M18.88,14.13c0.24,0.45,0.5,0.9,0.75,1.34c-0.73,0.46-1.49,0.95-2.19,1.47
	c-0.09,0.04-0.15,0.11-0.2,0.21c-0.92,0-1.83,0.01-2.73,0.01C15.96,16.36,17.47,14.98,18.88,14.13z M20.08,16.28
	c0.01,0,0.01-0.01,0.02-0.01c0.19,0.3,0.4,0.58,0.59,0.87c-0.64,0-1.28,0.01-1.91,0.01C19.22,16.86,19.64,16.56,20.08,16.28z
	 M14.91,6.5c-0.33,0.27-0.65,0.55-0.96,0.83c0.01-0.73,0.03-1.46,0.06-2.18C14.32,5.59,14.63,6.04,14.91,6.5z M13.21,5.71
	c-0.03,0.73-0.06,1.46-0.06,2.2c-0.25-0.19-0.51-0.39-0.78-0.53C12.66,6.83,12.93,6.27,13.21,5.71z M22.66,17.13
	c0.33-0.34,0.7-0.76,1.09-1.24c0.02,0.06,0.05,0.13,0.1,0.18c0.41,0.39,0.86,0.73,1.32,1.05c-0.71,0-1.43,0.01-2.13,0.01
	C22.91,17.13,22.79,17.13,22.66,17.13z M26.9,17.11c-0.74-0.39-1.96-1.38-2.67-1.84c0.16-0.21,0.33-0.43,0.5-0.65
	c0.05,0.08,0.12,0.15,0.23,0.19c1.32,0.85,2.74,1.63,4.19,2.3C28.39,17.1,27.64,17.11,26.9,17.11z M42.22,17.04
	c-0.46-0.46-1.3-1.25-1.69-1.55c0.13-0.18,0.27-0.35,0.41-0.53c0.02,0.02,0.04,0.04,0.07,0.06c0.89,0.63,1.92,1.45,2.98,2.01
	c-0.06,0-0.12,0-0.18,0C43.27,17.04,42.75,17.04,42.22,17.04z M48.68,17.02c1.77-0.67,3.3-1.53,4.91-2.55
	c0.09,0.19,0.19,0.38,0.29,0.56c-0.88,0.58-2.04,1.48-2.9,1.97c0,0,0,0,0,0C50.22,17.01,49.45,17.01,48.68,17.02z"/>
</svg>
