<?xml version="1.0" encoding="utf-8"?>
<!-- Generator: Adobe Illustrator 23.0.0, SVG Export Plug-In . SVG Version: 6.00 Build 0)  -->
<svg version="1.1" id="Слой_1" xmlns="http://www.w3.org/2000/svg" xmlns:xlink="http://www.w3.org/1999/xlink" x="0px" y="0px"
	 viewBox="0 0 150 90" style="enable-background:new 0 0 150 90;" xml:space="preserve">
<g>
	<g>
		<path d="M14.52,65.01c2.44-0.93,5.09-1.68,7.64-2.31c1.28-0.32,2.54-0.6,3.78-0.85c1.25-0.25,2.44-0.48,3.73-0.65
			c0.31,0.14,0.37,0.38,0.34,0.63c-0.02,0.26-0.1,0.54-0.17,0.74c-0.3,1.08-0.58,2.18-0.83,3.28c-0.15,0.55-0.2,1.11-0.26,1.68
			l-0.17,1.69l-0.18,1.68c-0.08,0.56-0.02,1.13-0.05,1.69c-0.02,1.12-0.06,2.24-0.15,3.34c-0.2,0.22-0.55,0.22-0.8,0.09
			c-0.28,0.18-0.56,0.04-0.8-0.1c-2.15-0.86-4.19-1.99-6.18-3.32c-0.99-0.67-1.98-1.39-2.95-2.16c-0.96-0.77-1.82-1.57-2.72-2.42
			C13.52,67.04,12.55,66.1,14.52,65.01z M28.93,62.16c-4.55,1.26-9.91,1.88-14.42,4.16c1.76,1.6,3.37,3.18,5.22,4.59
			c1.87,1.41,3.79,2.62,5.85,3.5c0.6,0.28,1.2,0.56,1.78,0.86l-0.04-3.31l0-0.83l0.09-0.82l0.2-1.65
			C27.77,66.44,28.4,64.31,28.93,62.16z"/>
		<path d="M18.12,66.8c1.54-0.85,3.14-1.31,4.77-1.77c1.32-0.42,2.59-0.97,3.91-1.18c0.68,0.1,0.47,0.83,0.29,1.23
			c-0.44,1.07-0.58,2.15-0.81,3.27c-0.1,0.56-0.21,1.14-0.28,1.72c-0.04,0.29-0.06,0.58-0.07,0.87c0.01,0.29,0.05,0.58,0.11,0.85
			c0.03,0.42,0.28,0.83,0.11,1.21c-0.16,0.64-0.93,0.3-1.75-0.26c-0.82-0.56-1.7-1.35-2.1-1.49c-1.49-0.92-2.71-1.95-4.02-3.08
			C17.88,67.85,17.5,67.17,18.12,66.8z M19.06,67.49l0.54,0.45c1.75,1.54,3.58,2.74,5.49,4.08c-0.27-1.2-0.04-2.38,0.15-3.56
			c0.11-0.59,0.23-1.18,0.36-1.76l0.2-0.87l0.28-0.85c-1.18,0.39-2.35,0.78-3.53,1.16C21.38,66.54,20.21,66.95,19.06,67.49z"/>
		<path d="M22.88,69.26c0.33,0.14,0.99,0.98,1.29,0.48c0.05-0.74,0.17-1.51,0.29-2.26c0.04-0.15-0.02-0.34-0.19-0.4
			c-0.47,0.05-0.9,0.33-1.41,0.37C20.4,67.68,21.49,68.4,22.88,69.26z"/>
		<path d="M38.44,44.64c0.26,0.07,0.45,0.31,0.41,0.56c-0.01,0.05-0.04,0.1-0.07,0.14c-0.03,0.12-0.09,0.22-0.2,0.28
			c0.03-0.01,0.05-0.03,0.08-0.05c-3.09,3.7-5.71,7.91-7.06,12.5c-0.13,0.36-0.6,0.3-0.83,0.06c-0.17,0-0.35-0.07-0.46-0.22
			c-1.14-1.45-2.08-2.89-3.04-4.44c-1.08-1.78-2.17-3.68-3.11-5.64c-0.65-1.41-1.27-2.88-1.86-4.4l-0.03-0.07l-0.01-0.01l-0.02-0.06
			c-0.07-0.2-0.01-0.43,0.13-0.59c0.1-0.2,0.3-0.36,0.51-0.36c1.47,0.04,2.88,0.1,4.38,0.27c1.68,0.18,3.33,0.39,4.93,0.67
			c1.57,0.27,3.1,0.57,4.59,0.92C37.33,44.34,37.89,44.49,38.44,44.64z M37.53,45.35l-1.83-0.41c-1.56-0.33-3.17-0.61-4.8-0.85
			c-1.52-0.21-3.13-0.42-4.65-0.5c-0.91-0.06-1.84-0.1-2.77-0.12l0.5,1.26c0.3,0.7,0.6,1.41,0.9,2.12c0.42,0.93,0.82,1.82,1.29,2.72
			c0.48,0.91,0.98,1.79,1.49,2.65c1.03,1.74,2.1,3.39,3.2,4.94c0.04-0.09,0.07-0.18,0.1-0.25c0.29-0.84,0.59-1.67,0.92-2.5
			c0.33-0.83,0.63-1.68,1.11-2.43c0.44-0.77,0.9-1.54,1.37-2.3c0.24-0.37,0.46-0.77,0.74-1.12l0.86-1.03
			C36.28,47.29,36.91,46.1,37.53,45.35z"/>
		<path d="M34.82,45.95c0.56-0.04,0.83,0.64,0.42,0.96l-1,1.22c-0.3,0.43-0.58,0.88-0.86,1.32c-0.57,0.89-1.13,1.78-1.66,2.68
			c-0.36,0.51-0.44,2.28-1.42,1.68c-0.39,0.07-0.61-0.34-0.77-0.63c-0.47-0.8-0.92-1.61-1.36-2.43c-0.45-0.83-0.8-1.62-1.18-2.47
			c-0.27-0.64-0.48-1.17-0.8-1.76c-0.21-0.32-0.44-0.78-0.09-1.13c0.19-0.19,0.46-0.19,0.7-0.2c0.88-0.04,1.79-0.07,2.6,0.1
			C31.22,45.36,33.03,46.09,34.82,45.95L34.82,45.95C34.82,45.95,34.83,45.95,34.82,45.95z M33.92,46.89
			c-2.27-0.07-4.44-0.89-6.74-0.67c0.93,1.97,1.59,3.82,2.68,5.62l0.51,0.92c0.33-1.11,1.02-2.04,1.63-3.02l0.94-1.44l0.46-0.72
			L33.92,46.89z"/>
		<path d="M29.23,48.04c0.29,0.59,0.61,1.17,0.92,1.75c0.05,0.08,0.13,0.16,0.24,0.16c0.01,0.01,0.04,0.03,0.06,0.04
			c0.49,0.1,0.52-0.87,0.86-1.14c0.11-0.29,0.63-0.6,0.34-0.94c-0.42-0.16-0.92-0.08-1.36-0.22C29.89,47.6,28.92,47.36,29.23,48.04z
			"/>
		<path d="M21.85,54.2c0.39,0.63,0.77,1.32,1.27,1.81c0.26,0.22,0.45,0.6,0.22,0.91c-0.83,0.74-2.13,0.94-3.17,1.09
			c-0.61,0.06-1.25,0.24-1.85,0.41c-0.59,0.17-1.19,0.32-1.79,0.27c-0.36,0.02-0.52-0.19-0.57-0.53c-0.06-0.34,0.03-0.81,0.21-1.29
			c0.33-0.97,0.87-2.04,0.98-2.44c0.6-1.3,1.06-2.69,1.77-3.91c0.55-0.49,0.91,0.21,1.13,0.62C20.65,52.2,21.14,53.19,21.85,54.2z
			 M19.3,52.02c-0.78,1.84-1.65,3.64-2.25,5.56c1.72-0.47,3.5-0.52,5.11-1.11C21.1,55.11,20.19,53.54,19.3,52.02z"/>
		<path d="M18.93,54.67c-0.79,0.52-0.05,1.87,0.72,1.46C20.58,55.63,19.81,54.05,18.93,54.67z"/>
		<path d="M39.11,25.9c1.22,0.53,2.42,1.09,3.59,1.67c1.19,0.6,2.38,1.26,3.52,1.92c2.29,1.32,4.44,2.68,6.46,4.09
			c0.24,0.61-0.42,0.94-0.8,1.15c-0.98,0.56-1.94,1.16-2.89,1.76c-0.89,0.7-1.76,1.44-2.64,2.15c-0.91,0.68-1.67,1.52-2.48,2.29
			l-1.22,1.15c-0.2,0.19-0.42,0.37-0.61,0.56l-0.56,0.61c-0.28,0.03-0.54-0.21-0.64-0.48c-0.31-0.05-0.43-0.36-0.51-0.63
			c-1.04-2.19-1.7-4.37-2.2-6.7c-0.25-1.16-0.45-2.35-0.61-3.57c-0.16-1.22-0.3-2.47-0.34-3.67C36.97,26.65,36.92,25.31,39.11,25.9z
			 M51.51,33.79c-2.09-1.15-4.21-2.5-6.43-3.79c-2.2-1.28-4.42-2.38-6.89-3.18c0.07,1.16,0.14,2.31,0.22,3.47
			c0.07,1.13,0.24,2.34,0.42,3.47c0.36,2.29,0.9,4.47,1.76,6.52c0.23,0.62,0.47,1.24,0.7,1.86c0.72-0.83,1.52-1.59,2.29-2.38
			l1.17-1.17l1.3-1.03c0.88-0.67,1.72-1.4,2.63-2.03L51.51,33.79z"/>
		<path d="M40.47,29.67c1.7,0.46,3.21,1.26,4.68,2.03c1.2,0.54,2.54,1.08,3.63,1.83c0.42,0.54-0.24,0.92-0.65,1.08
			c-1.02,0.54-1.89,1.18-2.84,1.82c-0.46,0.33-0.95,0.67-1.41,1.03c-0.43,0.4-0.82,0.85-1.13,1.31c-0.28,0.31-0.38,0.78-0.77,0.93
			c-0.57,0.34-0.88-0.43-1.08-1.39c-0.2-0.96-0.28-2.13-0.47-2.51c-0.4-1.65-0.69-3.37-0.81-5.04
			C39.56,30.24,39.77,29.5,40.47,29.67z M40.67,30.8l0.07,0.69c0.1,1.16,0.25,2.24,0.49,3.39c0.23,1.14,0.48,2.26,0.68,3.38
			c0.34-0.49,0.73-0.95,1.14-1.38c0.43-0.42,0.92-0.76,1.41-1.11c0.99-0.68,1.99-1.34,3.01-1.94C45.23,32.85,43.08,31.64,40.67,30.8
			z"/>
		<path d="M42.2,34.71c0.14,0.33,0.03,1.38,0.59,1.23c0.55-0.49,1.18-0.96,1.79-1.41c0.13-0.08,0.23-0.25,0.14-0.41
			c-0.37-0.3-0.89-0.39-1.28-0.72C41.51,31.87,41.79,33.14,42.2,34.71z"/>
		<path d="M70.46,27.65c0.14,0.22,0.11,0.53-0.09,0.71c-0.04,0.04-0.09,0.05-0.15,0.07c-0.1,0.08-0.21,0.12-0.33,0.09
			c0.03,0.02,0.06,0.01,0.09,0.02l-3.59,0.49c-1.19,0.2-2.35,0.57-3.52,0.86c-0.58,0.17-1.17,0.29-1.74,0.51l-1.67,0.7l-1.64,0.73
			c-0.27,0.13-0.55,0.24-0.81,0.38l-0.76,0.48c-0.34,0.17-0.64-0.2-0.64-0.53c-0.13-0.12-0.2-0.29-0.18-0.48
			c0.1-0.89,0.21-1.8,0.34-2.7c0.15-0.87,0.32-1.74,0.51-2.62c0.44-2.04,0.99-4.11,1.64-6.23c0.49-1.51,1.07-2.96,1.69-4.47
			l0.03-0.07l0.01-0.01l0.03-0.06c0.08-0.19,0.29-0.31,0.51-0.33c0.21-0.08,0.46-0.05,0.62,0.09c1.04,1.05,2.03,2.1,2.97,3.17
			c1.1,1.3,2.14,2.61,3.11,3.92c0.95,1.29,1.85,2.58,2.68,3.87L70.46,27.65z M69.32,27.58L68.28,26c-0.9-1.33-1.87-2.65-2.89-3.96
			c-0.96-1.26-1.96-2.4-3.01-3.53c-0.62-0.68-1.27-1.35-1.93-2.01l-0.51,1.25c-0.27,0.71-0.54,1.43-0.81,2.14l-0.49,1.41
			c-0.15,0.48-0.3,0.99-0.43,1.48c-0.28,0.98-0.53,1.96-0.76,2.93c-0.46,1.98-0.84,3.84-1.08,5.79c0.08-0.05,0.17-0.09,0.24-0.14
			c1.57-0.8,3.18-1.59,4.86-2.18c0.86-0.24,1.72-0.47,2.59-0.68c0.87-0.2,1.73-0.44,2.63-0.48C67.08,28.08,68.36,27.68,69.32,27.58z
			"/>
		<path d="M66.94,26.11c0.43,0.37,0.15,1.03-0.36,0.97c-1.05,0.06-2.06,0.35-3.09,0.57c-1.02,0.25-2.06,0.45-3.05,0.78
			c-0.6,0.15-1.9,1.34-2.19,0.23c-0.33-0.22-0.21-0.67-0.12-0.98c0.21-0.9,0.44-1.79,0.7-2.69c0.25-0.91,0.52-1.8,0.84-2.64
			c0.25-0.64,0.46-1.17,0.64-1.82c0.07-0.37,0.22-0.87,0.72-0.87c0.27,0,0.47,0.18,0.64,0.34c0.67,0.58,1.34,1.19,1.82,1.88
			C64.75,23.18,65.55,24.95,66.94,26.11L66.94,26.11C66.94,26.11,66.95,26.11,66.94,26.11z M65.65,26.15
			c-1.58-1.53-2.58-3.68-4.4-5.11c-0.69,2.06-1.51,3.81-1.94,5.93l-0.27,1.02c0.52-0.25,1.03-0.5,1.58-0.67
			c0.55-0.15,1.11-0.28,1.67-0.4C63.41,26.66,64.53,26.4,65.65,26.15z"/>
		<path d="M61.45,23.76c-0.2,0.62-0.37,1.26-0.54,1.89c-0.02,0.09-0.01,0.2,0.07,0.28c0,0.02,0.01,0.05,0.02,0.07
			c0.29,0.41,0.98-0.26,1.41-0.22c0.28-0.13,0.87,0.01,0.89-0.43c-0.19-0.41-0.61-0.69-0.83-1.1C62.24,23.91,61.7,23.06,61.45,23.76
			z"/>
		<path d="M51.87,23.14c-0.15,0.73-0.36,1.48-0.33,2.18c0.03,0.33-0.09,0.74-0.47,0.8c-1.12-0.05-2.2-0.8-3.05-1.41
			c-0.96-0.77-2.27-1.08-3.08-1.98c-0.54-0.46,0.09-1.06,0.97-1.59c0.91-0.46,2.04-0.85,2.4-1.07c0.67-0.26,1.33-0.55,1.98-0.84
			l0.98-0.44c0.33-0.13,0.67-0.23,1.01-0.35c0.74,0.03,0.52,0.78,0.39,1.23C52.36,20.8,52.07,21.95,51.87,23.14z M51.53,19.78
			c-1.81,0.83-3.73,1.45-5.46,2.48c1.54,0.8,2.89,2.04,4.46,2.72C50.69,23.26,51.14,21.54,51.53,19.78z"/>
		<path d="M49.43,21.46c-0.93-0.17-1.33,1.31-0.49,1.55C49.96,23.28,50.5,21.63,49.43,21.46z"/>
		<path d="M75.19,15.18c-0.71,1.02-1.41,1.95-2.03,2.96c-0.41,0.61-0.88,1.22-1.12,1.88c-0.09,0.32-0.36,0.65-0.73,0.56
			c-1.02-0.49-1.74-1.59-2.31-2.42c-0.6-1.03-1.7-1.86-2.12-2.99c-0.33-0.63,0.49-0.94,1.5-1.11c1.01-0.21,2.21-0.05,2.61-0.14
			c1.43,0.03,2.88-0.04,4.29-0.04C75.96,14.14,75.48,14.8,75.19,15.18z M74.08,14.92c-1,0.03-2,0.01-2.99,0.01
			c-0.5,0-1,0.01-1.5,0.03c-0.5,0.02-0.99,0.13-1.49,0.22c0.57,0.65,1.04,1.36,1.53,2.07c0.49,0.73,0.99,1.45,1.59,2.07
			C72.02,17.8,73.07,16.39,74.08,14.92z"/>
		<path d="M71.52,15.65c-0.8-0.52-1.72,0.69-1.03,1.24C71.33,17.54,72.45,16.22,71.52,15.65z"/>
		<path d="M32.91,32.76c0.14,1.17,0.33,2.35,0.57,3.5c0.13,0.72,0.22,1.49,0.5,2.12c0.15,0.29,0.19,0.71-0.14,0.91
			c-1.05,0.39-2.34,0.09-3.33-0.12c-1.14-0.31-2.49-0.12-3.56-0.63c-0.67-0.22-0.3-1.01,0.3-1.83c0.62-0.81,1.56-1.57,1.79-1.91
			c1.05-0.97,1.98-2.09,3.04-3.02C32.79,31.53,32.87,32.3,32.91,32.76z M31.92,33.32c-0.69,0.72-1.41,1.41-2.11,2.12
			c-0.35,0.35-0.7,0.71-1.04,1.07l-0.5,0.56l-0.43,0.61c1.67,0.11,3.4,0.75,5.09,0.77C32.44,36.82,32.21,35.08,31.92,33.32z"/>
		<path d="M30.6,35.65c-0.93,0.2-0.75,1.71,0.12,1.6C31.77,37.12,31.65,35.4,30.6,35.65z"/>
	</g>
	<g>
		<path d="M86.73,15.01c0.93,2.44,1.68,5.09,2.31,7.64c0.32,1.28,0.6,2.54,0.85,3.78c0.25,1.25,0.48,2.44,0.65,3.73
			c-0.14,0.31-0.38,0.37-0.63,0.34c-0.26-0.02-0.54-0.1-0.74-0.17c-1.08-0.3-2.18-0.58-3.28-0.83c-0.55-0.15-1.11-0.2-1.68-0.26
			l-1.69-0.17l-1.68-0.18c-0.56-0.08-1.13-0.02-1.69-0.05c-1.12-0.02-2.24-0.06-3.34-0.15c-0.22-0.2-0.22-0.55-0.09-0.8
			c-0.18-0.28-0.04-0.56,0.1-0.8c0.86-2.15,1.99-4.19,3.32-6.18c0.67-0.99,1.39-1.98,2.16-2.95c0.77-0.96,1.57-1.82,2.42-2.72
			C84.7,14.01,85.64,13.04,86.73,15.01z M89.58,29.42c-1.26-4.55-1.88-9.91-4.16-14.42c-1.6,1.76-3.18,3.37-4.59,5.22
			c-1.41,1.87-2.62,3.79-3.5,5.85c-0.28,0.6-0.56,1.2-0.86,1.78l3.31-0.04l0.83,0l0.82,0.09l1.65,0.2
			C85.3,28.26,87.43,28.89,89.58,29.42z"/>
		<path d="M84.94,18.61c0.85,1.54,1.31,3.14,1.77,4.77c0.42,1.32,0.97,2.59,1.18,3.91c-0.1,0.68-0.83,0.47-1.23,0.29
			c-1.07-0.44-2.15-0.58-3.27-0.81c-0.56-0.1-1.14-0.21-1.72-0.28c-0.29-0.04-0.58-0.06-0.87-0.07c-0.29,0.01-0.58,0.05-0.85,0.11
			c-0.42,0.03-0.83,0.28-1.21,0.11c-0.64-0.16-0.3-0.93,0.26-1.75c0.56-0.82,1.35-1.7,1.49-2.1c0.92-1.49,1.95-2.71,3.08-4.02
			C83.89,18.36,84.58,17.99,84.94,18.61z M84.26,19.55l-0.45,0.54c-1.54,1.75-2.74,3.58-4.08,5.49c1.2-0.27,2.38-0.04,3.56,0.15
			c0.59,0.11,1.18,0.23,1.76,0.36l0.87,0.2l0.85,0.28c-0.39-1.18-0.78-2.35-1.16-3.53C85.21,21.87,84.79,20.69,84.26,19.55z"/>
		<path d="M82.49,23.37c-0.14,0.33-0.98,0.99-0.48,1.29c0.74,0.05,1.51,0.17,2.26,0.29c0.15,0.04,0.34-0.02,0.4-0.19
			c-0.05-0.47-0.33-0.9-0.37-1.41C84.07,20.89,83.34,21.98,82.49,23.37z"/>
		<path d="M107.1,38.93c-0.07,0.26-0.31,0.45-0.56,0.41c-0.05-0.01-0.1-0.04-0.14-0.07c-0.12-0.03-0.22-0.09-0.28-0.2
			c0.01,0.03,0.03,0.05,0.05,0.08c-3.7-3.09-7.91-5.71-12.5-7.06c-0.36-0.13-0.3-0.6-0.06-0.83c0-0.17,0.07-0.35,0.22-0.46
			c1.45-1.14,2.89-2.08,4.44-3.04c1.78-1.08,3.68-2.17,5.64-3.11c1.41-0.65,2.88-1.27,4.4-1.86l0.07-0.03l0.01-0.01l0.06-0.02
			c0.2-0.07,0.43-0.01,0.59,0.13c0.2,0.1,0.36,0.3,0.36,0.51c-0.04,1.47-0.1,2.88-0.27,4.38c-0.18,1.68-0.39,3.33-0.67,4.93
			c-0.27,1.57-0.57,3.1-0.92,4.59C107.41,37.81,107.25,38.38,107.1,38.93z M106.39,38.02l0.41-1.83c0.33-1.56,0.61-3.17,0.85-4.8
			c0.21-1.52,0.42-3.13,0.5-4.65c0.06-0.91,0.1-1.84,0.12-2.77l-1.26,0.5c-0.7,0.3-1.41,0.6-2.12,0.9
			c-0.93,0.42-1.82,0.82-2.72,1.29c-0.91,0.48-1.79,0.98-2.65,1.49c-1.74,1.03-3.39,2.1-4.94,3.2c0.09,0.04,0.18,0.07,0.25,0.1
			c0.84,0.29,1.67,0.59,2.5,0.92c0.83,0.33,1.68,0.63,2.43,1.11c0.77,0.44,1.54,0.9,2.3,1.37c0.37,0.24,0.77,0.46,1.12,0.74
			l1.03,0.86C104.46,36.77,105.65,37.4,106.39,38.02z"/>
		<path d="M105.8,35.3c0.04,0.56-0.64,0.83-0.96,0.42l-1.22-1c-0.43-0.3-0.88-0.58-1.32-0.86c-0.89-0.57-1.78-1.13-2.68-1.66
			c-0.51-0.36-2.28-0.44-1.68-1.42c-0.07-0.39,0.34-0.61,0.63-0.77c0.8-0.47,1.61-0.92,2.43-1.36c0.83-0.45,1.62-0.8,2.47-1.18
			c0.64-0.27,1.17-0.48,1.76-0.8c0.32-0.21,0.78-0.44,1.13-0.09c0.19,0.19,0.19,0.46,0.2,0.7c0.04,0.88,0.07,1.79-0.1,2.6
			C106.38,31.71,105.65,33.52,105.8,35.3L105.8,35.3C105.79,35.31,105.79,35.31,105.8,35.3z M104.86,34.41
			c0.07-2.27,0.89-4.44,0.67-6.74c-1.97,0.93-3.82,1.59-5.62,2.68l-0.92,0.51c1.11,0.33,2.04,1.02,3.02,1.63l1.44,0.94l0.72,0.46
			L104.86,34.41z"/>
		<path d="M103.7,29.71c-0.59,0.29-1.17,0.61-1.75,0.92c-0.08,0.05-0.16,0.13-0.16,0.24c-0.01,0.01-0.03,0.04-0.04,0.06
			c-0.1,0.49,0.87,0.52,1.14,0.86c0.29,0.11,0.6,0.63,0.94,0.34c0.16-0.42,0.08-0.92,0.22-1.36
			C104.15,30.38,104.38,29.41,103.7,29.71z"/>
		<path d="M97.55,22.34c-0.63,0.39-1.32,0.77-1.81,1.27c-0.22,0.26-0.6,0.45-0.91,0.22c-0.74-0.83-0.94-2.13-1.09-3.17
			c-0.06-0.61-0.24-1.25-0.41-1.85c-0.17-0.59-0.32-1.19-0.27-1.79c-0.02-0.36,0.19-0.52,0.53-0.57c0.34-0.06,0.81,0.03,1.29,0.21
			c0.97,0.33,2.04,0.87,2.44,0.98c1.3,0.6,2.69,1.06,3.91,1.77c0.49,0.55-0.21,0.91-0.62,1.13C99.55,21.14,98.56,21.63,97.55,22.34z
			 M99.73,19.78c-1.84-0.78-3.64-1.65-5.56-2.25c0.47,1.72,0.52,3.5,1.11,5.11C96.64,21.58,98.2,20.68,99.73,19.78z"/>
		<path d="M97.07,19.42c-0.52-0.79-1.87-0.05-1.46,0.72C96.12,21.07,97.69,20.3,97.07,19.42z"/>
		<path d="M125.85,39.6c-0.53,1.22-1.09,2.42-1.67,3.59c-0.6,1.19-1.26,2.38-1.92,3.52c-1.32,2.29-2.68,4.44-4.09,6.46
			c-0.61,0.24-0.94-0.42-1.15-0.8c-0.56-0.98-1.16-1.94-1.76-2.89c-0.7-0.89-1.44-1.76-2.15-2.64c-0.68-0.91-1.52-1.67-2.29-2.48
			l-1.15-1.22c-0.19-0.2-0.37-0.42-0.56-0.61l-0.61-0.56c-0.03-0.28,0.21-0.54,0.48-0.64c0.05-0.31,0.36-0.43,0.63-0.51
			c2.19-1.04,4.37-1.7,6.7-2.2c1.16-0.25,2.35-0.45,3.57-0.61c1.22-0.16,2.47-0.3,3.67-0.34C125.1,37.46,126.44,37.41,125.85,39.6z
			 M117.95,51.99c1.15-2.09,2.5-4.21,3.79-6.43c1.28-2.2,2.38-4.42,3.18-6.89c-1.16,0.07-2.31,0.14-3.47,0.22
			c-1.13,0.07-2.34,0.24-3.47,0.42c-2.29,0.36-4.47,0.9-6.52,1.76c-0.62,0.23-1.24,0.47-1.86,0.7c0.83,0.72,1.59,1.52,2.38,2.29
			l1.17,1.17l1.03,1.3c0.67,0.88,1.4,1.72,2.03,2.63L117.95,51.99z"/>
		<path d="M122.08,40.96c-0.46,1.7-1.26,3.21-2.03,4.68c-0.54,1.2-1.08,2.54-1.83,3.63c-0.54,0.42-0.92-0.24-1.08-0.65
			c-0.54-1.02-1.18-1.89-1.82-2.84c-0.33-0.46-0.67-0.95-1.03-1.41c-0.4-0.43-0.85-0.82-1.31-1.13c-0.31-0.28-0.78-0.38-0.93-0.77
			c-0.34-0.57,0.43-0.88,1.39-1.08c0.96-0.2,2.13-0.28,2.51-0.47c1.65-0.4,3.37-0.69,5.04-0.81
			C121.5,40.05,122.25,40.26,122.08,40.96z M120.94,41.16l-0.69,0.07c-1.16,0.1-2.24,0.25-3.39,0.49c-1.14,0.23-2.26,0.48-3.38,0.68
			c0.49,0.34,0.95,0.73,1.38,1.14c0.42,0.43,0.76,0.92,1.11,1.41c0.68,0.99,1.34,1.99,1.94,3.01
			C118.9,45.71,120.1,43.57,120.94,41.16z"/>
		<path d="M117.04,42.68c-0.33,0.14-1.38,0.03-1.23,0.59c0.49,0.55,0.96,1.18,1.41,1.79c0.08,0.13,0.25,0.23,0.41,0.14
			c0.3-0.37,0.39-0.89,0.72-1.28C119.88,42,118.61,42.28,117.04,42.68z"/>
		<path d="M124.1,70.95c-0.22,0.14-0.53,0.11-0.71-0.09c-0.04-0.04-0.05-0.09-0.07-0.15c-0.08-0.1-0.12-0.21-0.09-0.33
			c-0.02,0.03-0.01,0.06-0.02,0.09l-0.49-3.59c-0.2-1.19-0.57-2.35-0.86-3.52c-0.17-0.58-0.29-1.17-0.51-1.74l-0.7-1.67l-0.73-1.64
			c-0.13-0.27-0.24-0.55-0.38-0.81l-0.48-0.76c-0.17-0.34,0.2-0.64,0.53-0.64c0.12-0.13,0.29-0.2,0.48-0.18
			c0.89,0.1,1.8,0.21,2.7,0.34c0.87,0.15,1.74,0.32,2.62,0.51c2.04,0.44,4.11,0.99,6.23,1.64c1.51,0.49,2.96,1.07,4.47,1.69
			l0.07,0.03l0.01,0.01l0.06,0.03c0.19,0.08,0.31,0.29,0.33,0.51c0.08,0.21,0.05,0.46-0.09,0.62c-1.05,1.04-2.1,2.03-3.17,2.97
			c-1.3,1.1-2.61,2.14-3.92,3.11c-1.29,0.95-2.58,1.85-3.87,2.68L124.1,70.95z M124.17,69.81l1.58-1.04
			c1.33-0.9,2.65-1.87,3.96-2.89c1.26-0.96,2.4-1.96,3.53-3.01c0.68-0.62,1.35-1.27,2.01-1.93L134,60.43
			c-0.71-0.27-1.43-0.54-2.14-0.81l-1.41-0.49c-0.48-0.15-0.99-0.3-1.48-0.43c-0.98-0.28-1.96-0.53-2.93-0.76
			c-1.98-0.46-3.84-0.84-5.79-1.08c0.05,0.08,0.09,0.17,0.14,0.24c0.8,1.57,1.59,3.18,2.18,4.86c0.24,0.86,0.47,1.72,0.68,2.59
			c0.2,0.87,0.44,1.73,0.48,2.63C123.66,67.57,124.06,68.85,124.17,69.81z"/>
		<path d="M125.64,67.43c-0.37,0.43-1.03,0.15-0.97-0.36c-0.06-1.05-0.35-2.06-0.57-3.09c-0.25-1.02-0.45-2.06-0.78-3.05
			c-0.15-0.6-1.34-1.9-0.23-2.19c0.22-0.33,0.67-0.21,0.98-0.12c0.9,0.21,1.79,0.44,2.69,0.7c0.91,0.25,1.8,0.52,2.64,0.84
			c0.64,0.25,1.17,0.46,1.82,0.64c0.37,0.07,0.87,0.22,0.87,0.72c0,0.27-0.18,0.47-0.34,0.64c-0.58,0.67-1.19,1.34-1.88,1.82
			C128.57,65.23,126.8,66.04,125.64,67.43L125.64,67.43C125.64,67.43,125.63,67.43,125.64,67.43z M125.6,66.14
			c1.53-1.58,3.68-2.58,5.11-4.4c-2.06-0.69-3.81-1.51-5.93-1.94l-1.02-0.27c0.25,0.52,0.5,1.03,0.67,1.58
			c0.15,0.55,0.28,1.11,0.4,1.67C125.09,63.9,125.35,65.02,125.6,66.14z"/>
		<path d="M127.98,61.94c-0.62-0.2-1.26-0.37-1.89-0.54c-0.09-0.02-0.2-0.01-0.28,0.07c-0.02,0-0.05,0.01-0.07,0.02
			c-0.41,0.29,0.26,0.98,0.22,1.41c0.13,0.28-0.01,0.87,0.43,0.89c0.41-0.19,0.69-0.61,1.1-0.83
			C127.84,62.73,128.68,62.19,127.98,61.94z"/>
		<path d="M128.61,52.36c-0.73-0.15-1.48-0.36-2.18-0.33c-0.33,0.03-0.74-0.09-0.8-0.47c0.05-1.12,0.8-2.2,1.41-3.05
			c0.77-0.96,1.08-2.27,1.98-3.08c0.46-0.54,1.06,0.09,1.59,0.97c0.46,0.91,0.85,2.04,1.07,2.4c0.26,0.67,0.55,1.33,0.84,1.98
			l0.44,0.98c0.13,0.33,0.23,0.67,0.35,1.01c-0.03,0.74-0.78,0.52-1.23,0.39C130.94,52.85,129.79,52.56,128.61,52.36z M131.96,52.02
			c-0.83-1.81-1.45-3.73-2.48-5.46c-0.8,1.54-2.04,2.89-2.72,4.46C128.49,51.18,130.2,51.63,131.96,52.02z"/>
		<path d="M130.29,49.92c0.17-0.93-1.31-1.33-1.55-0.49C128.46,50.45,130.12,50.99,130.29,49.92z"/>
		<path d="M118.99,33.4c-1.17,0.14-2.35,0.33-3.5,0.57c-0.72,0.13-1.49,0.22-2.12,0.5c-0.29,0.15-0.71,0.19-0.91-0.14
			c-0.39-1.05-0.09-2.34,0.12-3.33c0.31-1.14,0.12-2.49,0.63-3.56c0.22-0.67,1.01-0.3,1.83,0.3c0.81,0.62,1.57,1.56,1.91,1.79
			c0.97,1.05,2.09,1.98,3.02,3.04C120.22,33.28,119.45,33.36,118.99,33.4z M118.42,32.41c-0.72-0.69-1.41-1.41-2.12-2.11
			c-0.35-0.35-0.71-0.7-1.07-1.04l-0.56-0.5l-0.61-0.43c-0.11,1.67-0.75,3.4-0.77,5.09C114.93,32.93,116.67,32.7,118.42,32.41z"/>
		<path d="M116.1,31.09c-0.2-0.93-1.71-0.75-1.6,0.12C114.63,32.26,116.35,32.14,116.1,31.09z"/>
	</g>
</g>
</svg>
