<?xml version="1.0" ?><!DOCTYPE svg  PUBLIC '-//W3C//DTD SVG 1.1//EN'  'http://www.w3.org/Graphics/SVG/1.1/DTD/svg11.dtd'>
<svg enable-background="new 0 0 128 128" height="128px" id="Layer_1" version="1.1" viewBox="0 0 128 128" width="128px" xml:space="preserve" xmlns="http://www.w3.org/2000/svg" xmlns:xlink="http://www.w3.org/1999/xlink">
  <g fill="white">
    <path d="M127.913,121.961c-1.588-8.968-7.907-37.264-9.479-46.14c-0.537-2.992-3.157-5.336-5.966-5.336h-1.933   c-0.158-0.896-0.316-1.787-0.476-2.717c-0.078-0.451-0.308-0.862-0.651-1.165C105.76,63.4,96,57.341,85.168,57.341   c-9.454,0-17.17,4.544-21.167,8.011c-3.998-3.466-11.713-8.012-21.169-8.012c-0.749,0-1.491,0.035-2.229,0.09   c0.6-3.005,1.656-7.051,3.216-8.612v-0.001C46.428,46.211,56,45,56,45s-9.573-1.211-12.181-3.817   C41.211,38.574,40.001,29,40.001,29s-1.209,9.573-3.817,12.181v0.001C33.576,43.789,24.001,45,24.001,45s9.574,1.211,12.182,3.817   c1.581,1.582,2.645,5.714,3.24,8.73c-9.426,1.061-17.572,6.192-20.832,9.054c-0.344,0.303-0.574,0.714-0.651,1.165   c-0.16,0.931-0.318,1.822-0.476,2.719h-1.933c-2.81,0-5.43,2.345-5.965,5.341c-1.573,8.877-7.893,37.172-9.48,46.131   c-0.272,1.521,0.106,2.992,1.066,4.14C2.164,127.307,3.727,128,5.44,128h117.12c1.713,0,3.276-0.694,4.288-1.904   C127.808,124.947,128.186,123.478,127.913,121.961z M21.759,69.161c3.599-2.939,11.914-7.821,21.072-7.821   c8.865,0,15.952,4.534,19.168,7.589c0,0,0,0.001,0.001,0.001v46.271c0,0,0,0-0.001,0c-9.274-4.509-17.937-6.706-26.393-6.706   c-9.162,0-17.159,3.396-22.901,6.336C14.02,107.93,21.681,69.614,21.759,69.161z M115.296,114.832   c-5.742-2.939-13.739-6.334-22.904-6.334c-8.452,0-17.113,2.197-26.392,6.705V68.929c3.216-3.054,10.305-7.588,19.168-7.588   c9.158,0,17.473,4.882,21.072,7.822C106.318,69.615,113.98,107.932,115.296,114.832z M35.607,112.495   c6.292,0,12.747,1.338,19.558,4.056H18.351C23.223,114.38,29.079,112.495,35.607,112.495z M92.392,112.498   c6.529,0,12.385,1.883,17.255,4.053H72.842C79.653,113.836,86.104,112.498,92.392,112.498z M123.78,123.529   c-0.25,0.3-0.695,0.471-1.221,0.471H5.44c-0.525,0-0.97-0.171-1.22-0.47c-0.193-0.23-0.259-0.522-0.196-0.872   c1.572-8.875,7.893-37.17,9.48-46.132c0.209-1.168,1.242-2.041,2.027-2.041h1.212c-1.383,7.503-7.134,34.994-8.735,43.703   c-0.14,0.758,0.169,1.528,0.793,1.98c0.253,0.184,0.544,0.278,0.841,0.329c0.077,0.032,0.18,0.053,0.333,0.053h108.051   c0.004,0,0.012,0,0.02,0c1.105,0,2-0.896,2-2c0-0.223-0.036-0.438-0.104-0.638c-1.583-8.586-7.303-35.923-8.687-43.428h1.212   c0.784,0,1.818,0.874,2.027,2.038c1.587,8.959,7.907,37.255,9.479,46.141C124.037,123.009,123.971,123.3,123.78,123.529z"/>
    <path d="M72,44c0,0,1.667-13.164,5.25-16.75h0.001C80.835,23.665,93.999,22,93.999,22s-13.164-1.665-16.748-5.25H77.25   C73.665,13.165,72,0,72,0s-1.664,13.163-5.25,16.749C63.165,20.335,50.001,22,50.001,22s13.164,1.665,16.749,5.25   C70.336,30.836,72,44,72,44z"/>
    <path d="M84,36c0,0,7.181,0.908,9.136,2.864C95.091,40.819,95.999,48,95.999,48s0.909-7.18,2.864-9.137   c1.954-1.956,9.136-2.864,9.136-2.864s-7.182-0.908-9.136-2.863C96.908,31.181,95.999,24,95.999,24s-0.908,7.18-2.863,9.136   C91.181,35.092,84,36,84,36z"/>
    <path d="M84.862,74.137c-0.717-0.718-1.291-2.14-1.733-3.651C82.365,67.877,82,65,82,65s-0.365,2.877-1.129,5.485   c-0.442,1.512-1.018,2.934-1.734,3.651c-0.12,0.12-0.262,0.236-0.418,0.349C76.324,76.199,70,77,70,77s7.182,0.909,9.137,2.863   C81.092,81.819,82,89,82,89s0.909-7.18,2.862-9.137h0.001C86.817,77.909,93.999,77,93.999,77s-6.325-0.8-8.718-2.515   C85.124,74.373,84.983,74.257,84.862,74.137L84.862,74.137z"/>
  </g>
</svg>
