<svg version="1.2" xmlns="http://www.w3.org/2000/svg" viewBox="-10 0 360 340" width="338" height="340">
  <title>symmetrical</title>
  <style>
    .s0 { fill: none;stroke: #000000;stroke-linecap: round;stroke-linejoin: round;stroke-width: 30 }
  </style>
  <g id="figure_1" transform="rotate(-2, 169 184)">
    <path id="sprite_1" class="s0" d="m165 179.3c0 0-64.5-78.3 9.4-165.9"/>
    <path id="sprite_2" class="s0" d="m165 179.3c0 0-64.5-78.3 9.4-165.9" transform="rotate(180, 173 99)"/>
  </g>
  <g id="figure_2" transform="rotate(70, 169 184)">
    <path id="sprite_3" class="s0" d="m165 179.3c0 0-64.5-78.3 9.4-165.9"/>
    <path id="sprite_4" class="s0" d="m165 179.3c0 0-64.5-78.3 9.4-165.9" transform="rotate(180, 173 99)"/>
  </g>
  <g id="figure_3" transform="rotate(142, 169 184)">
    <path id="sprite_5" class="s0" d="m165 179.3c0 0-64.5-78.3 9.4-165.9"/>
    <path id="sprite_6" class="s0" d="m165 179.3c0 0-64.5-78.3 9.4-165.9" transform="rotate(180, 173 99)"/>
  </g>
  <g id="figure_4" transform="rotate(214, 169 184)">
    <path id="sprite_7" class="s0" d="m165 179.3c0 0-64.5-78.3 9.4-165.9"/>
    <path id="sprite_8" class="s0" d="m165 179.3c0 0-64.5-78.3 9.4-165.9" transform="rotate(180, 173 99)"/>
  </g>
  <g id="figure_5" transform="rotate(286, 169 184)">
    <path id="sprite_9" class="s0" d="m165 179.3c0 0-64.5-78.3 9.4-165.9"/>
    <path id="sprite_10" class="s0" d="m165 179.3c0 0-64.5-78.3 9.4-165.9" transform="rotate(180, 173 99)"/>
  </g>
</svg>
