<?xml version="1.0" ?><!DOCTYPE svg  PUBLIC '-//W3C//DTD SVG 1.1//EN'
  'http://www.w3.org/Graphics/SVG/1.1/DTD/svg11.dtd'>
<svg enable-background="new 0 0 64 64" id="Layer_1" version="1.1" viewBox="0 0 64 64" xml:space="preserve"
     xmlns="http://www.w3.org/2000/svg" xmlns:xlink="http://www.w3.org/1999/xlink"><path d="  M54,54.4l-2.7-5.8c0,0,1.4-3.3,1-4.7c-0.5-2.1-1.1-5.9-2.7-10.1c-1.7-4.4-2.7-6.2-5.3-6.2c-0.7,0-9.9,2.1-10.2,2.1  c-1.1,0-1.9-0.5-2.2-1.2c-1.5-3.3-4.3-9.2-4.3-9.2s-1.3-2-3-2c-0.2,0-0.5,0-0.8,0.1c-2.1,0.7-1.4,3.7-1.4,3.7l7.7,22.1  c0,0-1.3-0.2-3-0.2c-1.7,0-3.8,0.2-5.8,0.9c-4,1.4-4.3,3.1-3.8,4.5c0.2,0.7,0.9,0.9,1.8,0.9c10.8-0.7,19.5,3.4,19.8,3.7  c0.4,0.4,3,6.1,3,6.1" fill="none" stroke="#000000" stroke-linecap="round" stroke-linejoin="round" stroke-miterlimit="10" stroke-width="2"/>
  <path d="  M20.9,27.9c-2.8-1.4-4.6-4.3-4.6-7.6c0-4.7,3.8-8.6,8.6-8.6s8.6,3.8,8.6,8.6c0,1-0.2,2-0.5,3" fill="none"
        stroke="#000000" stroke-linecap="round" stroke-linejoin="round" stroke-miterlimit="10" stroke-width="2"/>
  <path d="  M23.7,35.2c-7.7-0.6-13.8-7-13.8-14.9c0-8.2,6.7-14.9,14.9-14.9S39.8,12,39.8,20.3c0,1.6-0.2,3.1-0.7,4.5"
        fill="none" stroke="#000000" stroke-linecap="round" stroke-linejoin="round" stroke-miterlimit="10"
        stroke-width="2"/></svg>
