<?xml version="1.0" encoding="UTF-8" standalone="no"?>
<svg
   viewBox="0 0 253.33333 253.33333"
   height="253.33333"
   width="253.33333"
   xml:space="preserve"
   id="svg2"
   version="1.1"
   xmlns="http://www.w3.org/2000/svg"
   xmlns:svg="http://www.w3.org/2000/svg"
   xmlns:rdf="http://www.w3.org/1999/02/22-rdf-syntax-ns#"
   xmlns:cc="http://creativecommons.org/ns#"
   xmlns:dc="http://purl.org/dc/elements/1.1/"><metadata
     id="metadata8"><rdf:RDF><cc:Work
         rdf:about=""><dc:format>image/svg+xml</dc:format><dc:type
           rdf:resource="http://purl.org/dc/dcmitype/StillImage" /></cc:Work></rdf:RDF></metadata><defs
     id="defs6"><clipPath
       id="clipPath18"
       clipPathUnits="userSpaceOnUse"><path
         id="path16"
         d="M 0,190 H 190 V 0 H 0 Z" /></clipPath></defs><g
     transform="matrix(1.3333333,0,0,-1.3333333,0,253.33333)"
     id="g10"><g
       id="g12"><g
         clip-path="url(#clipPath18)"
         id="g14"><g
           transform="translate(158.0117,96.981902)"
           id="g1"
           style="display:none"><path
             id="path1"
             style="fill:#000000;fill-opacity:1;fill-rule:nonzero;stroke:none"
             d="m -62.830545,28.289583 c -1.763991,-0.155 -1.111938,-5.060904 -0.960938,-6.191895 0.359,-2.701973 -1.648748,-4.921463 -3.32373,-6.981445 -1.083494,-1.518092 -5.18649,-6.9128128 -11.427247,-10.8984379 -2.008982,-1.1829901 -4.03821,-2.362327 -6.388183,-2.6323243 -1.593991,-0.1819982 -3.027077,0.032226 -4.560059,0.032226 -1.162991,0 -1.206991,-1.83691407 0,-1.83691407 1.543982,0 2.985224,0.2123654 4.595215,0.0263672 2.337973,-0.27199757 4.362905,-1.45272963 6.358887,-2.63671883 2.154761,-1.3598498 3.432986,-2.3125091 4.592285,-3.4511716 1.717982,-1.6519847 3.346349,-3.4219991 4.92334,-5.2089845 l 1.907225,-2.230956 c 1.680991,-2.062982 3.681266,-4.273999 3.322266,-6.979981 -0.148,-1.112982 -0.796677,-6.114359 0.987305,-6.193359 1.647982,-0.072 1.054726,4.768294 0.969726,5.717285 -0.143991,1.624991 -0.291479,2.014041 0.499512,3.457032 0.783991,1.430982 1.760607,2.737962 2.787598,4.001953 l 2.526855,2.923828 c 1.675991,1.8359827 3.37601,3.7889636 5.250001,5.3979492 l 3.65039,2.5766602 c 2.009982,1.1819892 4.036746,2.36086189 6.386719,2.63085946 1.593991,0.18199838 3.029533,-0.0307617 4.561524,-0.0307617 1.163991,0 1.204991,1.83691404 0,1.83691404 -1.543991,0 -2.985233,-0.213367 -4.595215,-0.026367 -2.336982,0.2709973 -4.362905,1.4537296 -6.358887,2.6367188 -0.997581,0.6423552 -2.014942,1.2056282 -2.913574,1.9775391 -1.376991,1.0769901 -2.599533,2.3718672 -3.811524,3.6518555 -0.838991,0.8859914 -1.670849,1.7789974 -2.48584,2.6879884 l -2.211914,2.573731 c -1.682982,2.065973 -3.669792,4.269542 -3.320801,6.978515 0.124,0.965991 0.724045,6.339895 -0.960937,6.191895 z m 0,-9.199219 c 0.496991,-0.962991 1.057246,-1.881564 1.677246,-2.768555 l 2.767094,-3.439453 c 0.449991,-0.518991 0.888524,-1.049208 1.353515,-1.554199 2.341982,-2.5569784 4.651703,-5.1295262 7.492676,-7.1455082 l 2.749512,-1.710938 c 1.188991,-0.6449946 2.406889,-1.3434646 3.692871,-1.77246101 -1.744982,-0.57999478 -3.515377,-1.5709074 -5.068359,-2.54589849 l -1.374034,-0.9389606 c -0.738991,-0.5239955 -1.489118,-1.0467437 -2.162109,-1.6567383 -2.405982,-2.1539811 -4.5711,-4.6049933 -6.684082,-7.0429684 l -1.665532,-1.967286 c -0.877991,-1.454982 -1.989817,-2.71374 -2.778808,-4.240722 -0.499,0.962991 -1.05872,1.881028 -1.678711,2.770019 l -2.76709,3.437989 c -0.451,0.519991 -0.889981,1.049664 -1.354981,1.555664 -2.341973,2.5549766 -4.650238,5.1290611 -7.491211,7.1440431 -1.162169,0.7934412 -4.38e-4,-0.00441 -1.161624,0.7968747 -1.586982,1.05399082 -3.465236,2.08399379 -5.282227,2.68798839 1.290991,0.42999641 2.500881,1.12546641 3.692872,1.77246101 l 4.913086,3.3691407 c 2.405973,2.1539802 4.5711,4.6035221 6.684082,7.0415041 0.497233,0.587322 3.227479,3.856087 4.445797,6.208009 z" /></g><g
           transform="translate(158.0117,96.9819)"
           id="g20"
           style="display:none"><path
             id="path22"
             style="fill:#000000;fill-opacity:1;fill-rule:nonzero;stroke:none"
             d="m 0,0 c -7.892,-3.327 -15.349,-7.821 -23.809,-9.733 -8.102,-1.831 -16.733,2.707 -23.311,6.913 2.01,1.182 4.037,2.362 6.387,2.632 1.594,0.182 3.029,-0.031 4.561,-0.031 1.164,0 1.205,1.836 0,1.836 -1.544,0 -2.985,-0.212 -4.595,-0.025 -2.337,0.271 -4.363,1.453 -6.359,2.636 6.986,4.487 16.09,9.056 24.602,6.56 4.279,-1.256 8.723,-2.81 12.764,-4.705 C -5.877,4.263 -2.205,1.889 1.954,0.699 1.29,0.509 0.639,0.263 0,0 m -48.166,-1.846 c -0.321,-0.207 -3.108,1.668 -3.204,2.217 -0.135,0.777 0.242,0.868 0.879,1.42 1.696,1.472 1.819,1.703 3.701,0.681 1.189,-0.645 2.406,-1.344 3.692,-1.773 -1.745,-0.58 -3.515,-1.57 -5.068,-2.545 m -3.536,-2.597 c -2.406,-2.154 -4.571,-4.604 -6.684,-7.042 -0.476,0.712 -3.615,3.659 -3.527,4.402 0.098,0.835 2.381,2.464 2.909,2.929 1.298,1.143 2.676,2.41 4.267,3.142 1.278,0.589 1.758,0.69 2.879,0.032 0.805,-0.474 1.549,-1.252 2.318,-1.805 -0.739,-0.524 -1.489,-1.048 -2.162,-1.658 m -5.216,-11.901 c 3.794,-6.384 5.587,-13.27 3.3,-20.568 -2.181,-6.962 -7.197,-12.656 -9.213,-19.733 -2.124,7.456 -7.609,13.45 -9.55,20.926 -2.148,8.272 1.011,15.098 5.267,21.998 1.681,-2.063 3.681,-4.273 3.322,-6.979 -0.148,-1.113 -0.796,-6.115 0.988,-6.194 1.648,-0.072 1.054,4.769 0.969,5.718 -0.144,1.625 -0.291,2.013 0.5,3.456 0.784,1.431 1.76,2.738 2.787,4.002 0.54,-0.878 1.091,-1.748 1.63,-2.626 m -11.713,6.415 c -2.342,2.555 -4.651,5.129 -7.492,7.144 0.767,0.552 1.513,1.335 2.319,1.805 1.129,0.658 1.637,0.553 2.902,-0.049 1.589,-0.756 2.94,-1.976 4.247,-3.127 0.501,-0.441 2.809,-2.122 2.905,-2.927 0.089,-0.74 -3.052,-3.692 -3.527,-4.402 -0.451,0.52 -0.889,1.05 -1.354,1.556 M -82.566,0.699 c 1.291,0.43 2.501,1.126 3.693,1.773 1.77,0.961 1.678,0.949 3.368,-0.415 2.341,-1.892 0.344,-2.571 -1.779,-4.046 -1.587,1.054 -3.465,2.084 -5.282,2.688 m 2.17,-4.694 c -6.994,-4.197 -15.427,-7.744 -23.58,-5.132 -4.245,1.36 -8.627,2.826 -12.637,4.783 -3.616,1.765 -7.103,3.927 -11.004,5.043 4.036,1.156 7.616,3.432 11.373,5.222 4.144,1.974 8.711,3.579 13.113,4.869 8.532,2.502 17.584,-2.095 24.588,-6.572 -2.009,-1.183 -4.037,-2.362 -6.387,-2.632 -1.594,-0.182 -3.028,0.031 -4.561,0.031 -1.163,0 -1.207,-1.836 0,-1.836 1.544,0 2.985,0.212 4.595,0.026 2.338,-0.272 4.363,-1.453 6.359,-2.637 -0.615,-0.395 -1.235,-0.783 -1.859,-1.165 m 6.435,9.836 c 2.406,2.154 4.571,4.604 6.684,7.042 0.477,-0.713 3.615,-3.659 3.527,-4.403 -0.098,-0.834 -2.381,-2.464 -2.909,-2.928 -1.298,-1.143 -2.676,-2.41 -4.266,-3.143 -1.279,-0.588 -1.759,-0.689 -2.879,-0.031 -0.806,0.474 -1.551,1.252 -2.319,1.805 0.739,0.524 1.489,1.048 2.162,1.658 m 5.216,11.901 c -3.794,6.384 -5.587,13.27 -3.3,20.568 2.182,6.961 7.198,12.656 9.214,19.733 2.123,-7.457 7.608,-13.451 9.55,-20.925 2.148,-8.278 -1.017,-15.095 -5.268,-21.999 -1.683,2.066 -3.67,4.27 -3.321,6.979 0.124,0.966 0.724,6.34 -0.961,6.192 -1.764,-0.155 -1.112,-5.061 -0.961,-6.192 0.359,-2.702 -1.648,-4.922 -3.323,-6.982 -0.54,0.878 -1.091,1.748 -1.63,2.626 m 4.224,-6.248 c -0.327,0.396 -1.601,1.655 -1.682,2.174 -0.115,0.735 -0.045,0.126 0.592,1.182 0.877,1.455 1.989,2.714 2.78,4.241 0.497,-0.963 1.057,-1.882 1.677,-2.769 0.265,-0.38 1.885,-2.001 1.853,-2.386 -0.103,-1.229 -2.695,-3.559 -3.53,-4.478 -0.594,0.653 -1.126,1.358 -1.69,2.036 m 3.379,-21.59 c 0.328,-0.396 1.6,-1.655 1.682,-2.175 0.115,-0.734 0.045,-0.125 -0.592,-1.181 -0.878,-1.455 -1.99,-2.714 -2.779,-4.241 -0.499,0.963 -1.058,1.881 -1.678,2.77 -0.265,0.379 -1.886,2.001 -1.853,2.385 0.104,1.23 2.695,3.559 3.531,4.478 0.593,-0.653 1.125,-1.358 1.689,-2.036 M -71.703,0.699 c 3.552,0.951 6.451,4.25 8.872,6.815 2.422,-2.565 5.319,-5.864 8.871,-6.815 -3.551,-0.951 -6.452,-4.25 -8.871,-6.815 -2.42,2.566 -5.321,5.864 -8.872,6.815 m 14.671,10.629 c 2.342,-2.557 4.651,-5.129 7.492,-7.145 -0.766,-0.552 -1.513,-1.335 -2.318,-1.805 -1.129,-0.658 -1.638,-0.554 -2.903,0.049 -1.589,0.756 -2.939,1.976 -4.247,3.127 -0.501,0.441 -2.809,2.122 -2.905,2.926 -0.089,0.738 3.052,3.696 3.527,4.403 0.45,-0.519 0.889,-1.05 1.354,-1.555 M 12.818,1.447 C 10.646,1.266 8.292,1.313 6.118,1.429 2.493,1.621 -0.847,3.013 -4.047,4.616 c -3.479,1.742 -6.894,3.516 -10.618,4.834 -4.381,1.551 -8.743,3.612 -13.489,3.307 -4.353,-0.279 -8.373,-1.43 -12.295,-3.303 -1.777,-0.849 -3.515,-1.736 -5.208,-2.741 -0.632,-0.375 -1.435,-1.102 -2.137,-1.338 -0.824,-0.277 -0.071,-0.34 -1.019,-0.066 -0.398,0.115 -0.912,0.649 -1.227,0.896 -1.377,1.077 -2.599,2.372 -3.811,3.652 -0.839,0.886 -1.671,1.779 -2.486,2.688 -0.908,1.016 -1.309,1.062 -0.83,2.268 0.671,1.689 2.064,3.273 2.925,4.886 1.059,1.987 1.949,4.094 2.443,6.297 0.967,4.308 0.702,8.999 -0.697,13.177 -1.421,4.24 -4.003,7.944 -5.996,11.914 -1.737,3.457 -3.844,7.4 -3.529,11.358 0.322,4.026 -0.097,8.124 -0.124,12.159 -0.014,2.114 0.143,4.225 0.096,6.34 -0.025,1.136 0.686,4.112 -0.419,4.543 -1.751,0.683 -1.15,-2.569 -1.151,-3.481 -0.002,-3.545 0.062,-7.091 0.026,-10.636 -0.017,-1.673 -0.136,-3.352 -0.1,-5.024 0.036,-1.742 0.28,-3.476 0.186,-5.221 -0.209,-3.88 -2.552,-7.921 -4.293,-11.283 -2.046,-3.95 -4.55,-7.613 -5.754,-11.948 -1.172,-4.217 -1.217,-9.002 0.031,-13.211 0.598,-2.018 1.508,-3.94 2.54,-5.769 0.455,-0.806 0.94,-1.596 1.422,-2.386 0.623,-1.022 1.55,-1.926 1.188,-2.907 -0.563,-1.522 -2.914,-3.224 -4.041,-4.395 -1.172,-1.22 -2.621,-3.018 -4.198,-3.748 -0.924,-0.429 -0.89,-0.324 -1.823,0.28 -0.72,0.466 -1.464,0.896 -2.205,1.327 -1.884,1.096 -3.844,2.059 -5.825,2.966 -3.955,1.81 -8.564,2.912 -12.94,2.751 -4.406,-0.162 -8.858,-2.346 -12.951,-3.832 -6.741,-2.447 -12.817,-7.501 -20.254,-7.604 -1.918,-0.027 -3.963,-0.077 -5.871,0.082 -1.478,0.123 -3.433,1.116 -3.806,-0.489 -0.436,-1.873 1.23,-1.371 2.569,-1.169 2.048,0.309 4.074,0.134 6.139,0.184 7.68,0.181 13.462,-4.612 20.322,-7.213 4.03,-1.527 8.451,-3.602 12.756,-4.089 4.022,-0.454 8.639,0.473 12.369,1.953 1.937,0.768 3.844,1.708 5.687,2.679 0.826,0.436 1.636,0.904 2.44,1.381 0.632,0.375 1.723,1.458 2.417,1.53 1.147,0.12 2.72,-1.608 3.643,-2.496 1.718,-1.652 3.347,-3.422 4.924,-5.209 0.811,-0.92 0.978,-0.787 0.525,-1.926 -0.318,-0.8 -1.011,-1.62 -1.454,-2.355 -1.125,-1.869 -2.195,-3.762 -2.982,-5.803 -1.592,-4.128 -1.918,-8.913 -1.028,-13.243 1.733,-8.445 8.217,-14.955 10.146,-23.367 0.451,-1.968 0.069,-3.972 0.074,-5.987 0.013,-5.993 0.298,-11.945 0.02,-17.946 -0.026,-0.562 -0.049,-3.843 0.739,-2.825 0.699,0.905 0.713,4.087 0.671,5.125 -0.087,2.205 0.163,4.406 0.165,6.61 0.002,2.428 0.092,4.822 0.19,7.247 0.116,2.918 -0.439,5.822 0.322,8.656 1.494,5.575 4.828,10.319 7.389,15.414 2.633,5.239 3.688,11.045 2.545,16.851 -0.553,2.807 -1.782,5.451 -3.208,7.911 -0.576,0.994 -1.174,1.977 -1.781,2.954 -1.155,1.858 -0.778,1.796 0.667,3.38 1.676,1.836 3.377,3.789 5.251,5.398 0.744,0.639 1.855,1.695 2.692,1.613 0.908,-0.089 2.499,-1.59 3.375,-2.09 5.011,-2.864 10.203,-4.95 15.992,-5.438 5.745,-0.484 11.495,2.189 16.755,4.242 4.927,1.923 9.253,5.129 14.394,6.516 2.827,0.762 5.764,0.472 8.652,0.527 1.357,0.026 2.616,-0.264 3.951,-0.36 1.458,-0.105 1.711,0.175 1.711,1.606 0,1.305 -3.266,0.283 -3.934,0.227" /></g><g
           transform="translate(153.9531,93.7578)"
           id="g24"
           style="display:none"><path
             id="path26"
             style="fill:#000000;fill-opacity:1;fill-rule:nonzero;stroke:none"
             d="M 0,0 C -0.155,-0.081 0.069,0.033 0,0" /></g><g
           transform="translate(153.9531,101.604)"
           id="g28"
           style="display:none"><path
             id="path30"
             style="fill:#000000;fill-opacity:1;fill-rule:nonzero;stroke:none"
             d="M 0,0 C 0.069,-0.034 -0.154,0.081 0,0" /></g><g
           transform="translate(154.3545,101.4106)"
           id="g32"
           style="display:inline"><path
             id="path34"
             style="fill:#000000;fill-opacity:1;fill-rule:nonzero;stroke:none"
             d="m 0,0 c -5.875,2.856 -11.774,5.518 -18.091,7.509 0.426,0.198 0.854,0.391 1.284,0.579 C -4.133,13.227 7.969,2.12 18.815,-2.625 12.271,-3.862 5.946,-2.891 0,0 m 16.936,-5.722 c -10.666,-5.707 -22.772,-14.694 -35.055,-9.256 6.182,1.943 12.008,4.476 17.738,7.335 6.045,3.017 12.5,4.079 19.196,2.809 -0.634,-0.278 -1.263,-0.572 -1.879,-0.888 m -38.092,-7.864 c -4.6,2.237 -9.485,4.914 -12.628,9.079 0.421,-0.047 0.888,-0.14 1.269,-0.14 1.164,0 1.205,1.835 0,1.835 -0.379,0 -0.844,-0.093 -1.264,-0.14 2.242,2.891 5.258,5.033 8.395,6.865 1.416,0.826 3.194,2.094 4.809,2.476 1.798,0.425 4.233,-0.877 5.991,-1.51 3.415,-1.231 6.846,-2.352 10.085,-4.009 3.28,-1.678 6.542,-3.579 10.11,-4.6 -4.545,-1.302 -8.488,-4.006 -12.787,-5.872 -2.272,-0.986 -4.641,-1.739 -6.97,-2.578 -2.113,-0.762 -4.891,-2.404 -7.01,-1.406 m -3.035,-0.887 c -7.12,0.443 -13.33,3.425 -19.272,7.224 1.603,0.943 3.329,2.029 5.156,2.45 0.595,0.137 2.311,0.585 2.896,0.325 0.549,-0.242 1.56,-2.047 1.99,-2.512 3.01,-3.253 7.129,-5.589 11.09,-7.497 -0.62,-0.035 -1.24,-0.032 -1.86,0.01 m -23.522,10.415 c -0.135,0.778 0.242,0.868 0.879,1.42 1.696,1.472 1.819,1.703 3.701,0.681 1.19,-0.645 2.406,-1.344 3.693,-1.773 -1.746,-0.58 -3.516,-1.569 -5.069,-2.544 -0.321,-0.207 -3.108,1.667 -3.204,2.216 m -0.332,-4.814 c -1.094,-0.978 -2.958,0.403 -4.21,1.037 -0.319,0.162 -0.952,0.519 -1.322,0.721 1.06,0.846 2.555,2.158 3.988,2.185 1.342,0.025 2.565,-1.464 3.706,-2.284 -0.739,-0.525 -1.489,-1.049 -2.162,-1.659 m 9.562,-8.591 c 2.489,-3.076 3.004,-6.821 4.494,-10.375 -4.17,2.974 -9.545,3.028 -13.226,6.724 -1.501,1.507 -2.359,3.255 -3.113,5.227 -0.402,1.054 -0.763,1.61 -0.305,2.525 0.376,0.75 2.048,2.46 2.744,2.206 3.879,-1.389 6.783,-3.066 9.406,-6.307 m -13.245,5.441 c -0.453,1.101 -0.974,2.177 -1.552,3.217 1.172,-0.61 2.387,-1.151 3.603,-1.666 -0.641,-0.645 -1.282,-1.284 -1.908,-1.946 -0.047,0.131 -0.095,0.263 -0.143,0.395 m -1.647,-2.336 c -0.465,-0.506 -0.903,-1.036 -1.354,-1.556 -0.475,0.71 -3.616,3.663 -3.527,4.403 0.111,0.935 2.513,2.574 3.178,3.152 0.589,-1.048 1.177,-2.08 1.661,-3.182 0.562,-1.275 1.005,-1.765 0.042,-2.817 m 4.152,-23.688 c -2.208,3.578 -4.149,7.375 -6.755,10.693 -1.001,1.274 -2.754,2.269 -2.308,3.989 0.483,1.865 2.203,3.75 3.395,5.217 0.091,-0.145 0.183,-0.29 0.275,-0.436 3.827,-6.085 6.558,-12.108 5.393,-19.463 m 1.862,-6.883 c 2.158,-6.132 1.504,-13.471 -0.712,-19.503 -2.491,-6.781 -7.132,-12.368 -10.323,-18.784 0.015,3.453 -0.227,6.91 -0.045,10.362 0.19,3.641 -0.477,7.622 0.465,11.121 1.939,7.201 7.065,12.954 9.279,20.013 0.498,-1.046 0.949,-2.116 1.336,-3.209 m -11.813,-16.145 c -1.879,6.597 -6.306,11.938 -8.709,18.275 -0.63,1.662 -1.031,2.517 -0.107,4.043 0.828,1.366 1.632,2.746 2.448,4.119 1.578,2.656 3.19,5.501 5.327,7.734 -0.012,-0.836 -0.479,-4.49 1.069,-4.42 1.511,0.07 1.025,3.535 1.012,4.421 0.366,-0.429 0.498,-0.56 0.397,-0.396 2.112,-2.452 3.757,-5.351 5.394,-8.129 0.725,-1.23 1.86,-2.6 2.354,-3.939 0.496,-1.342 -0.172,-2.711 -0.74,-4.08 -2.511,-6.042 -6.631,-11.259 -8.445,-17.628 m -0.779,-22.141 c -0.952,1.917 -2.033,3.728 -3.164,5.545 -3.442,5.553 -7.054,11.083 -8.398,17.585 -1.311,6.347 -0.884,12.475 1.869,18.351 2.219,-7.058 7.366,-12.808 9.277,-20.019 0.925,-3.49 0.272,-7.472 0.462,-11.101 0.182,-3.451 -0.061,-6.909 -0.046,-10.361 m -3.504,65.065 c 1.195,-1.466 2.915,-3.356 3.399,-5.224 0.442,-1.709 -1.317,-2.712 -2.313,-3.979 -2.608,-3.321 -4.551,-7.121 -6.761,-10.702 -0.103,0.566 -0.181,1.137 -0.233,1.71 -0.377,7.066 2.297,12.34 5.908,18.195 m -1.517,3.792 c -0.98,1.069 -0.587,1.441 0.033,2.814 0.496,1.097 1.082,2.136 1.671,3.185 0.666,-0.576 3.066,-2.219 3.178,-3.152 0.088,-0.74 -3.053,-3.693 -3.528,-4.403 -0.45,0.52 -0.888,1.05 -1.354,1.556 m -1.648,2.336 c -0.047,-0.132 -0.094,-0.264 -0.141,-0.395 -0.626,0.661 -1.267,1.3 -1.908,1.946 1.215,0.515 2.431,1.056 3.603,1.666 -0.579,-1.04 -1.1,-2.116 -1.554,-3.217 m -1.022,-2.857 c -1.201,-3.357 -2.71,-6.193 -5.825,-8.14 -1.51,-0.943 -3.152,-1.444 -4.861,-1.873 -2.248,-0.564 -4.149,-1.605 -6.03,-2.946 0.809,1.929 1.124,4.128 1.986,5.996 1.196,3.248 3.77,6.382 6.605,8.298 1.072,0.723 3.949,2.484 5.309,2.388 0.919,-0.064 1.574,-0.964 2.305,-1.731 0.819,-0.861 0.88,-0.897 0.511,-1.992 m -4.821,7.666 c 1.188,0.856 2.352,2.392 3.789,2.274 1.411,-0.117 2.845,-1.324 3.908,-2.173 -0.365,-0.2 -1.215,-0.668 -1.326,-0.723 -0.833,-0.421 -2.042,-1.23 -2.983,-1.346 -0.874,-0.107 -0.797,-0.063 -1.574,0.601 -0.577,0.493 -1.197,0.929 -1.814,1.367 m -6.444,3.483 c 1.291,0.43 2.501,1.126 3.693,1.773 1.77,0.961 1.678,0.95 3.368,-0.415 2.342,-1.892 0.344,-2.57 -1.778,-4.046 -1.588,1.055 -3.466,2.085 -5.283,2.688 m -1.011,-6.487 c -5.059,-2.467 -10.374,-4.6 -16.096,-4.266 3.96,1.909 8.079,4.244 11.089,7.497 0.537,0.581 1.158,1.808 1.793,2.21 0.676,0.428 1.78,0.213 2.686,0.046 2.001,-0.369 3.837,-1.502 5.569,-2.529 -1.639,-1.052 -3.306,-2.074 -5.041,-2.958 m -19.369,-3.646 c -1.944,0.316 -3.918,1.332 -5.761,1.988 -3.129,1.112 -6.212,2.203 -9.165,3.737 -3.144,1.632 -6.316,3.427 -9.744,4.408 3.567,1.023 6.829,2.925 10.109,4.6 3.38,1.726 6.964,2.88 10.523,4.168 1.512,0.547 3.701,1.717 5.28,1.487 1.515,-0.219 3.364,-1.633 4.683,-2.385 3.27,-1.865 6.485,-4.083 8.8,-7.093 -0.421,0.047 -0.889,0.141 -1.27,0.141 -1.163,0 -1.207,-1.835 0,-1.835 0.379,0 0.846,0.093 1.265,0.14 -0.268,-0.349 -0.564,-0.68 -0.848,-1.017 -2.309,-2.615 -5.323,-4.615 -8.344,-6.3 -1.707,-0.951 -3.606,-2.351 -5.528,-2.039 m -2.253,-1.684 c -12.596,-5.11 -24.664,5.916 -35.622,10.713 6.694,1.264 13.15,0.208 19.199,-2.81 5.713,-2.85 11.535,-5.378 17.708,-7.324 -0.426,-0.199 -0.854,-0.392 -1.285,-0.579 m -33.742,13.81 c 10.548,5.637 22.702,14.721 35.054,9.255 -6.182,-1.942 -12.009,-4.476 -17.737,-7.335 -6.048,-3.017 -12.498,-4.074 -19.197,-2.808 0.635,0.277 1.264,0.571 1.88,0.888 m 41.127,8.751 c 7.119,-0.444 13.328,-3.426 19.271,-7.225 -1.601,-0.942 -3.328,-2.029 -5.156,-2.45 -0.594,-0.137 -2.311,-0.584 -2.896,-0.325 -0.548,0.243 -1.56,2.048 -1.989,2.512 -3.013,3.258 -7.139,5.595 -11.105,7.505 0.618,0.041 1.261,0.023 1.875,-0.017 m 23.853,-5.601 c 1.239,1.109 4.152,-1.003 5.533,-1.758 -1.062,-0.846 -2.555,-2.158 -3.989,-2.185 -1.341,-0.026 -2.565,1.463 -3.705,2.284 0.738,0.524 1.488,1.049 2.161,1.659 m -5.456,4.665 c -2.865,1.969 -5.408,5.032 -6.614,8.304 -1.003,1.674 -1.211,4.147 -1.986,5.997 4.171,-2.975 9.546,-3.028 13.227,-6.725 1.5,-1.507 2.359,-3.255 3.112,-5.226 0.403,-1.054 0.764,-1.611 0.305,-2.525 -0.376,-0.751 -2.048,-2.461 -2.744,-2.206 -1.728,0.618 -3.867,1.249 -5.3,2.381 m 9.138,-1.516 c 0.454,-1.1 0.975,-2.177 1.554,-3.216 -1.172,0.609 -2.388,1.15 -3.603,1.665 0.641,0.645 1.282,1.285 1.907,1.947 0.047,-0.132 0.095,-0.264 0.142,-0.396 m 1.648,2.337 c 0.466,0.506 0.904,1.036 1.354,1.555 0.475,-0.71 3.616,-3.662 3.528,-4.402 -0.112,-0.936 -2.513,-2.574 -3.179,-3.153 -0.588,1.048 -1.176,2.08 -1.661,3.183 -0.561,1.275 -1.005,1.765 -0.042,2.817 m -4.152,23.688 c 2.208,-3.578 4.149,-7.376 6.755,-10.693 1.001,-1.275 2.755,-2.269 2.308,-3.989 -0.483,-1.866 -2.203,-3.751 -3.395,-5.218 -0.091,0.146 -0.183,0.291 -0.274,0.436 -3.827,6.087 -6.56,12.108 -5.394,19.464 m -1.861,6.882 c -2.158,6.133 -1.504,13.47 0.712,19.503 2.491,6.781 7.131,12.368 10.322,18.785 -0.015,-3.453 0.228,-6.911 0.046,-10.362 -0.191,-3.641 0.477,-7.623 -0.466,-11.122 -1.939,-7.201 -7.065,-12.953 -9.278,-20.012 -0.498,1.046 -0.949,2.115 -1.336,3.208 m 11.813,16.145 c 1.879,-6.596 6.306,-11.937 8.709,-18.275 0.63,-1.661 1.03,-2.516 0.107,-4.042 -0.829,-1.366 -1.632,-2.746 -2.449,-4.12 -1.578,-2.657 -3.191,-5.499 -5.327,-7.735 0.013,0.884 0.506,4.426 -1.04,4.419 -1.561,-0.006 -1.055,-3.474 -1.041,-4.418 -0.366,0.428 -0.498,0.56 -0.396,0.396 -2.112,2.452 -3.757,5.35 -5.395,8.129 -0.725,1.229 -1.859,2.6 -2.353,3.938 -0.496,1.343 0.171,2.711 0.74,4.08 2.51,6.042 6.631,11.259 8.445,17.628 m 0.778,22.143 c 0.458,-0.922 0.907,-1.844 1.433,-2.73 3.631,-6.115 7.97,-11.931 9.784,-18.923 1.746,-6.724 1.426,-13.536 -1.523,-19.83 -2.217,7.059 -7.366,12.809 -9.278,20.02 -0.924,3.489 -0.271,7.472 -0.461,11.101 -0.182,3.451 0.06,6.91 0.045,10.362 m 3.504,-65.067 c -1.194,1.466 -2.915,3.357 -3.398,5.224 -0.443,1.711 1.317,2.713 2.312,3.98 2.608,3.32 4.552,7.121 6.761,10.702 0.104,-0.567 0.182,-1.137 0.234,-1.71 0.377,-7.071 -2.3,-12.336 -5.909,-18.196 m 1.517,-3.791 c 0.979,-1.07 0.587,-1.442 -0.032,-2.814 -0.496,-1.098 -1.082,-2.137 -1.672,-3.186 -0.665,0.577 -3.066,2.219 -3.177,3.153 -0.089,0.738 3.052,3.695 3.527,4.403 0.451,-0.52 0.889,-1.05 1.354,-1.556 m 1.647,-2.337 c 0.048,0.132 0.095,0.265 0.143,0.396 0.625,-0.661 1.266,-1.301 1.908,-1.947 -1.217,-0.515 -2.431,-1.056 -3.603,-1.665 0.578,1.04 1.099,2.115 1.552,3.216 m 1.023,2.858 c 1.201,3.356 2.71,6.192 5.825,8.14 1.51,0.943 3.151,1.444 4.861,1.873 2.248,0.564 4.149,1.604 6.03,2.946 -1.106,-2.64 -1.551,-5.533 -2.939,-8.051 -1.327,-2.41 -3.395,-4.693 -5.661,-6.25 -0.995,-0.786 -4.001,-2.473 -5.3,-2.381 -0.919,0.064 -1.574,0.964 -2.304,1.731 -0.82,0.86 -0.881,0.897 -0.512,1.992 m -6.463,-11.15 c 0.852,0.835 1.715,1.639 2.405,2.615 1.315,-1.101 2.779,-2.164 4.46,-2.615 -1.681,-0.45 -3.144,-1.513 -4.46,-2.615 -0.689,0.976 -1.555,1.782 -2.405,2.615 m -4.013,0 c -0.851,-0.835 -1.715,-1.638 -2.405,-2.615 -0.265,0.23 -0.536,0.451 -0.814,0.665 -1.094,0.824 -2.31,1.593 -3.645,1.95 1.681,0.451 3.144,1.514 4.459,2.615 0.689,-0.975 1.556,-1.781 2.405,-2.615 m -1.097,12.598 c -0.377,0.96 -0.359,0.276 0.034,1.195 0.381,0.89 1.371,1.77 1.912,2.593 0.421,0.647 0.803,1.321 1.158,2.006 0.497,-0.962 1.057,-1.881 1.677,-2.769 0.266,-0.379 1.886,-2.001 1.853,-2.386 -0.103,-1.229 -2.695,-3.559 -3.53,-4.478 -0.965,1.061 -2.594,2.538 -3.104,3.839 m 6.486,-9.178 c 0.03,-0.335 -0.517,-0.785 -0.721,-0.991 -0.395,-0.4 -0.783,-0.79 -1.168,-1.196 -0.535,-0.563 -1.703,-0.521 -2.386,-0.334 -0.651,0.178 -1.071,0.508 -1.508,1.082 -0.215,0.283 -1.03,1.032 -0.989,1.445 0.064,0.639 2.814,2.779 3.39,3.389 0.586,-0.622 3.322,-2.752 3.382,-3.395 m 0.071,-16.52 c -0.065,-1.173 -2.44,-3.44 -3.12,-4.663 -0.111,-0.209 -0.222,-0.419 -0.333,-0.629 -0.498,0.963 -1.057,1.881 -1.678,2.77 -0.265,0.379 -1.885,2.001 -1.853,2.386 0.104,1.229 2.696,3.558 3.531,4.477 0.687,-0.756 3.507,-3.375 3.453,-4.341 m -6.836,9.681 c -0.034,0.378 0.635,0.909 0.868,1.138 0.574,0.564 1.14,1.247 1.942,1.519 0.788,0.268 1.553,0.039 2.121,-0.557 0.358,-0.376 0.742,-0.72 1.107,-1.089 0.211,-0.212 0.769,-0.671 0.735,-1.017 -0.064,-0.64 -2.814,-2.779 -3.39,-3.389 -0.587,0.622 -3.324,2.752 -3.383,3.395 m 16.674,6.903 c -1.188,-0.857 -2.352,-2.393 -3.789,-2.274 -1.412,0.116 -2.846,1.323 -3.909,2.172 0.893,0.488 1.666,0.9 2.597,1.325 0.535,0.245 1.787,1.08 2.361,1.002 0.587,-0.08 2.178,-1.826 2.74,-2.225 m 7.454,3.004 c 5.055,2.465 10.323,4.603 16.097,4.265 -3.96,-1.908 -8.08,-4.244 -11.089,-7.497 -0.537,-0.58 -1.159,-1.807 -1.794,-2.209 -0.676,-0.428 -1.779,-0.213 -2.685,-0.046 -2,0.368 -3.837,1.502 -5.569,2.528 1.638,1.052 3.305,2.075 5.04,2.959 m 66.094,-5.909 c -1.547,0 -3.253,0.285 -4.779,0.6 -3.595,0.742 -6.783,2.735 -9.935,4.525 -6.347,3.605 -12.745,7.38 -20.109,8.398 -3.516,0.485 -6.85,0.279 -10.15,-1.051 -1.627,-0.655 -2.592,-1.206 -4.345,-1.009 -2.076,0.234 -4.27,-0.062 -6.321,-0.394 -3.877,-0.629 -7.343,-2.104 -10.832,-3.865 -1.413,-0.714 -2.795,-1.5 -4.138,-2.337 -0.367,-0.228 -1.3,-1.123 -1.754,-1.155 -0.536,-0.039 -2.056,1.496 -2.414,1.804 0.066,-0.04 0.017,0.009 -0.145,0.146 6.694,2.462 11.082,6.774 13.22,13.639 0.83,2.669 1.667,5.219 3.752,7.137 2.615,2.406 5.353,4.677 8.034,7.012 0.439,0.382 5.566,4.365 3.024,4.407 -0.834,0.014 -2.538,-1.921 -3.127,-2.443 -1.235,-1.094 -2.458,-2.276 -3.666,-3.347 -3.843,-3.413 -7.961,-8.021 -12.869,-9.798 -1.253,-0.578 -2.851,-0.667 -4.19,-1.186 -1.578,-0.612 -3.021,-1.472 -4.296,-2.585 -2.462,-2.147 -3.658,-4.849 -4.697,-7.872 -0.418,0.458 -1.35,1.143 -1.568,1.737 -0.125,0.34 -0.227,0.368 -0.276,0.351 0.051,0.056 0.174,0.245 0.406,0.822 0.46,1.139 1.413,2.267 2.033,3.325 1.516,2.585 2.852,5.336 3.435,8.297 0.535,2.719 0.663,5.765 0.227,8.506 -0.276,1.726 -0.192,2.042 0.512,3.542 0.63,1.342 1.153,2.745 1.588,4.162 3.36,10.915 -1.596,21.707 -7.214,30.811 -1.325,2.149 -2.726,4.264 -3.878,6.513 -0.505,0.985 -1.53,2.448 -1.606,3.61 -0.043,0.663 0.073,6.052443 -0.369,6.660443 -0.185,0.253 -0.388,0.202 -0.629,-0.039 -0.625,-0.624 -0.555,-5.738443 -0.551,-6.454443 0.013,-1.999 -2.113,-4.852 -3.134,-6.531 -5.889,-9.682 -11.473,-18.71 -10.346,-30.57 0.28,-2.951 1.269,-5.868 2.569,-8.525 0.183,-0.373 0.694,-0.993 0.741,-1.381 0.078,-0.647 -0.448,-2.087 -0.515,-2.762 -0.174,-1.736 -0.118,-3.52 0.031,-5.254 0.29,-3.358 1.448,-6.482 3.072,-9.417 0.7,-1.267 1.461,-2.504 2.226,-3.734 0.043,-0.068 0.973,-1.3 0.962,-1.523 -0.03,-0.551 -1.575,-1.779 -1.914,-2.148 -1.047,3.022 -2.252,5.717 -4.704,7.874 -2.625,2.31 -5.495,2.489 -8.485,3.771 -4.787,1.731 -8.827,6.186 -12.565,9.529 -1.202,1.074 -2.418,2.195 -3.632,3.304 -0.579,0.528 -2.549,2.712 -3.467,2.755 -1.709,0.081 -0.419,-1.197 0.043,-1.699 0.903,-0.981 1.98,-1.834 2.983,-2.708 2.68,-2.335 5.418,-4.605 8.034,-7.012 1.98,-1.823 2.837,-4.21 3.632,-6.758 2.197,-7.037 6.425,-11.475 13.34,-14.018 -0.163,-0.138 -0.211,-0.187 -0.145,-0.146 -0.484,-0.416 -1.32,-1.302 -1.95,-1.481 -0.964,-0.276 -0.185,-0.215 -1.024,0.061 -1.025,0.337 -2.127,1.345 -3.092,1.896 -2.795,1.597 -5.777,3.128 -8.851,4.102 -2.746,0.871 -5.764,1.384 -8.646,1.432 -1.423,0.024 -2.78,-0.369 -4.086,0.006 -1.345,0.386 -2.594,1.181 -3.945,1.595 -11.396,3.491 -22.865,-5.136 -32.339,-10.139 -2.447,-1.292 -4.987,-2.419 -7.782,-2.656 -1.005,-0.085 -4.747,0.099 -5.283,-0.87 -0.209,-0.379 0.276,-0.569 0.663,-0.837 0.275,-0.19 1.51,-0.212 1.836,-0.184 2.879,0.176 5.526,-0.214 8.194,-1.38 10.385,-4.535 19.322,-12.735 31.42,-11.96 1.509,0.095 2.937,0.457 4.35,0.98 1.354,0.502 2.75,1.425 4.13,1.429 3.072,0.008 5.88,-0.079 8.942,0.574 3.5,0.747 6.759,2.279 9.911,3.942 1.362,0.719 2.716,1.5 4.01,2.336 0.238,0.155 0.92,0.755 1.128,0.769 0.541,0.035 2.052,-1.493 2.414,-1.805 -0.065,0.042 -0.017,-0.007 0.145,-0.145 -6.914,-2.543 -11.14,-6.983 -13.34,-14.019 -0.796,-2.547 -1.651,-4.933 -3.632,-6.758 -2.718,-2.5 -5.568,-4.853 -8.347,-7.285 -0.483,-0.422 -4.75,-3.711 -3.005,-4.114 0.821,-0.189 2.842,1.909 3.42,2.424 1.132,1.007 2.258,2.097 3.36,3.078 3.925,3.498 8.156,8.249 13.176,10.067 1.248,0.579 2.852,0.667 4.189,1.186 1.579,0.612 3.02,1.471 4.296,2.584 2.462,2.147 3.659,4.849 4.698,7.873 0.418,-0.458 1.349,-1.144 1.568,-1.737 0.319,-0.871 -0.049,-1.031 -0.61,-1.932 -0.685,-1.104 -1.37,-2.211 -2.008,-3.342 -1.81,-3.209 -3.06,-6.58 -3.328,-10.277 -0.115,-1.583 -0.157,-3.207 0.007,-4.786 0.176,-1.699 0.53,-2.28 -0.053,-3.781 -1.202,-3.099 -2.518,-5.891 -2.774,-9.272 -0.459,-6.059 0.589,-12.128 3.113,-17.646 2.567,-5.609 6.484,-10.445 9.162,-15.982 1.122,-2.32 1.52,-6.805 1.36,-9.344 -0.099,-1.56 1.155,-2.39 1.329,-0.973 0.319,2.594 0.485,5.937 0.672,8.494 0.116,1.595 1.688,3.79 2.586,5.265 1.84,3.028 3.833,5.979 5.538,9.085 3.077,5.607 4.762,11.432 4.907,17.839 0.07,3.052 -0.285,5.923 -1.292,8.82 -0.49,1.409 -1.72,3.064 -1.972,4.48 -0.297,1.669 0.484,4.073 0.454,5.92 -0.063,3.757 -0.878,7.217 -2.556,10.576 -0.736,1.475 -1.604,2.885 -2.467,4.288 -0.258,0.422 -1.377,1.705 -1.352,2.158 0.03,0.551 1.574,1.78 1.913,2.149 1.048,-3.023 2.252,-5.718 4.704,-7.875 1.272,-1.119 2.717,-1.973 4.296,-2.584 1.313,-0.509 2.984,-0.583 4.19,-1.186 5.027,-1.823 9.239,-6.567 13.175,-10.067 1.218,-1.082 2.446,-2.292 3.709,-3.382 0.487,-0.421 2.263,-2.318 3.027,-2.196 1.965,0.315 -1.979,3.33 -2.334,3.645 -2.785,2.468 -5.577,4.95 -8.41,7.359 -2.204,1.874 -3.199,4.095 -4.077,6.85 -2.293,7.195 -6.309,11.769 -13.458,14.398 0.162,0.138 0.21,0.187 0.145,0.145 0.357,0.309 1.875,1.841 2.409,1.808 0.298,-0.02 1.5,-0.998 1.759,-1.159 1.587,-0.989 3.223,-1.886 4.902,-2.71 3.798,-1.865 7.533,-3.222 11.755,-3.726 1.905,-0.228 3.701,0.042 5.58,-0.029 1.629,-0.063 3.211,-1.145 4.833,-1.684 3.23,-1.074 6.842,-0.921 10.143,-0.25 7.79,1.582 14.252,5.772 21.123,9.519 3.478,1.898 7.259,4.027 11.318,3.748 0.571,-0.039 1.149,0.034 1.713,0 1.565,-0.094 1.403,1.157 -0.758,1.157" /></g><g
           transform="translate(132.2803,98.5674)"
           id="g36"
           style="display:none"><path
             id="path38"
             style="fill:#000000;fill-opacity:1;fill-rule:nonzero;stroke:none"
             d="m 0,0 c -0.708,-1.196 0.474,-2.703 1.731,-2.734 0.885,-0.022 1.284,0.551 1.786,1.052 0.179,0.451 0.413,1.095 0.024,1.562 C 2.868,1.042 0.79,1.334 0,0" /></g><g
           transform="translate(140.2168,57.2129)"
           id="g40"
           style="display:none"><path
             id="path42"
             style="fill:#000000;fill-opacity:1;fill-rule:nonzero;stroke:none"
             d="M 0,0 C -1.264,0.98 -2.993,-0.903 -2.087,-2.104 -0.904,-3.675 1.938,-1.145 0,0" /></g><g
           transform="translate(49.9678,55.1094)"
           id="g44"
           style="display:none"><path
             id="path46"
             style="fill:#000000;fill-opacity:1;fill-rule:nonzero;stroke:none"
             d="M 0,0 C 1.5,-1.44 3.27,0.554 1.896,2.07 0.743,3.277 -1.328,1.275 0,0" /></g><g
           transform="translate(140.791,139.7324)"
           id="g48"
           style="display:none"><path
             id="path50"
             style="fill:#000000;fill-opacity:1;fill-rule:nonzero;stroke:none"
             d="M 0,0 C -0.719,2.099 -4.141,0.492 -2.294,-1.551 -1.313,-2.576 0.419,-1.223 0,0" /></g><g
           transform="translate(51.0083,137.8271)"
           id="g52"
           style="display:none"><path
             id="path54"
             style="fill:#000000;fill-opacity:1;fill-rule:nonzero;stroke:none"
             d="M 0,0 C 1.609,-0.057 2.059,3.22 0.122,2.842 -1.901,3.056 -2.102,0.116 0,0" /></g><g
           transform="translate(95.1807,132.3379)"
           id="g56"
           style="display:none"><path
             id="path58"
             style="fill:#000000;fill-opacity:1;fill-rule:nonzero;stroke:none"
             d="M 0,0 C 3.049,-0.037 2.811,4.14 0,4.124 -2.765,4.109 -3.128,-0.037 0,0" /></g><g
           transform="translate(54.1309,99.6216)"
           id="g60"
           style="display:none"><path
             id="path62"
             style="fill:#000000;fill-opacity:1;fill-rule:nonzero;stroke:none"
             d="M 0,0 C -2.764,-0.015 -3.127,-4.161 0,-4.125 3.05,-4.161 2.812,0.016 0,0" /></g><g
           transform="translate(96.1758,62.9053)"
           id="g64"
           style="display:none"><path
             id="path66"
             style="fill:#000000;fill-opacity:1;fill-rule:nonzero;stroke:none"
             d="M 0,0 C -2.377,0.891 -4.597,-2.032 -2.349,-3.583 0.155,-5.312 2.942,-1.251 0,0" /></g><g
           transform="translate(119.1387,83.3916)"
           id="g68"
           style="display:none"><path
             id="path70"
             style="fill:#000000;fill-opacity:1;fill-rule:nonzero;stroke:none"
             d="M 0,0 C 0.852,0.021 0.848,1.335 -0.011,1.335 -0.88,1.335 -0.864,-0.022 0,0" /></g><g
           transform="translate(71.8999,84.0586)"
           id="g72"
           style="display:none"><path
             id="path74"
             style="fill:#000000;fill-opacity:1;fill-rule:nonzero;stroke:none"
             d="M 0,0 C 0,0.862 -1.338,0.862 -1.335,0 -1.332,-0.86 0,-0.859 0,0" /></g><g
           transform="translate(118.4609,111.3027)"
           id="g76"
           style="display:none"><path
             id="path78"
             style="fill:#000000;fill-opacity:1;fill-rule:nonzero;stroke:none"
             d="M 0,0 C 0,-0.861 1.338,-0.862 1.335,0 1.332,0.861 0,0.859 0,0" /></g><g
           transform="translate(71.2222,111.9702)"
           id="g80"
           style="display:none"><path
             id="path82"
             style="fill:#000000;fill-opacity:1;fill-rule:nonzero;stroke:none"
             d="M 0,0 C -0.852,-0.022 -0.847,-1.335 0.01,-1.335 0.88,-1.335 0.864,0.023 0,0" /></g><g
           transform="translate(121.1514,81.6914)"
           id="g84"
           style="display:none"><path
             id="path86"
             style="fill:#000000;fill-opacity:1;fill-rule:nonzero;stroke:none"
             d="M 0,0 C 0.024,-0.851 1.332,-0.851 1.336,0.01 1.339,0.879 0,0.864 0,0" /></g><g
           transform="translate(69.2085,81.6914)"
           id="g88"
           style="display:none"><path
             id="path90"
             style="fill:#000000;fill-opacity:1;fill-rule:nonzero;stroke:none"
             d="M 0,0 C 0,0.864 -1.338,0.879 -1.335,0.01 -1.331,-0.851 -0.024,-0.851 0,0" /></g><g
           transform="translate(121.1514,113.6704)"
           id="g92"
           style="display:none"><path
             id="path94"
             style="fill:#000000;fill-opacity:1;fill-rule:nonzero;stroke:none"
             d="M 0,0 C 0,-0.865 1.339,-0.879 1.336,-0.01 1.332,0.851 0.024,0.851 0,0" /></g><g
           transform="translate(69.2085,113.6704)"
           id="g96"
           style="display:none"><path
             id="path98"
             style="fill:#000000;fill-opacity:1;fill-rule:nonzero;stroke:none"
             d="M 0,0 C -0.024,0.851 -1.331,0.851 -1.335,-0.01 -1.338,-0.879 0,-0.865 0,0" /></g><g
           transform="translate(123.623,79.1777)"
           id="g100"
           style="display:none"><path
             id="path102"
             style="fill:#000000;fill-opacity:1;fill-rule:nonzero;stroke:none"
             d="M 0,0 C 0,-0.859 1.331,-0.844 1.336,0.01 1.341,0.88 0,0.864 0,0" /></g><g
           transform="translate(66.7368,79.1777)"
           id="g104"
           style="display:none"><path
             id="path106"
             style="fill:#000000;fill-opacity:1;fill-rule:nonzero;stroke:none"
             d="M 0,0 C 0,0.864 -1.34,0.88 -1.335,0.01 -1.33,-0.844 0,-0.859 0,0" /></g><g
           transform="translate(123.623,116.1841)"
           id="g108"
           style="display:none"><path
             id="path110"
             style="fill:#000000;fill-opacity:1;fill-rule:nonzero;stroke:none"
             d="M 0,0 C 0,-0.865 1.341,-0.879 1.336,-0.01 1.33,0.844 0,0.859 0,0" /></g><g
           transform="translate(66.7368,116.1841)"
           id="g112"
           style="display:none"><path
             id="path114"
             style="fill:#000000;fill-opacity:1;fill-rule:nonzero;stroke:none"
             d="M 0,0 C 0,0.859 -1.33,0.844 -1.335,-0.01 -1.34,-0.879 0,-0.865 0,0" /></g><g
           transform="translate(126.6797,76.6426)"
           id="g116"
           style="display:none"><path
             id="path118"
             style="fill:#000000;fill-opacity:1;fill-rule:nonzero;stroke:none"
             d="M 0,0 C 0,-0.861 1.338,-0.861 1.335,0 1.333,0.856 -0.025,0.864 0,0" /></g><g
           transform="translate(63.6807,76.6426)"
           id="g120"
           style="display:none"><path
             id="path122"
             style="fill:#000000;fill-opacity:1;fill-rule:nonzero;stroke:none"
             d="M 0,0 C 0.025,0.864 -1.333,0.856 -1.335,0 -1.337,-0.861 0,-0.861 0,0" /></g><g
           transform="translate(126.6797,118.7188)"
           id="g124"
           style="display:none"><path
             id="path126"
             style="fill:#000000;fill-opacity:1;fill-rule:nonzero;stroke:none"
             d="M 0,0 C -0.025,-0.863 1.332,-0.856 1.335,0 1.338,0.862 0,0.862 0,0" /></g><g
           transform="translate(63.6807,118.7188)"
           id="g128"
           style="display:none"><path
             id="path130"
             style="fill:#000000;fill-opacity:1;fill-rule:nonzero;stroke:none"
             d="M 0,0 C 0,0.862 -1.338,0.862 -1.335,0 -1.332,-0.856 0.025,-0.863 0,0" /></g><g
           transform="translate(130.1621,72.1064)"
           id="g132"
           style="display:none"><path
             id="path134"
             style="fill:#000000;fill-opacity:1;fill-rule:nonzero;stroke:none"
             d="M 0,0 C 1.27,-0.321 1.649,1.42 0.471,1.908 -0.739,2.38 -1.271,0.322 0,0" /></g><g
           transform="translate(60.4473,72.1582)"
           id="g136"
           style="display:none"><path
             id="path138"
             style="fill:#000000;fill-opacity:1;fill-rule:nonzero;stroke:none"
             d="M 0,0 C 1.102,0.511 0.292,2.438 -0.925,1.712 -2.007,1.067 -1.239,-0.559 0,0" /></g><g
           transform="translate(129.9131,123.2036)"
           id="g140"
           style="display:none"><path
             id="path142"
             style="fill:#000000;fill-opacity:1;fill-rule:nonzero;stroke:none"
             d="M 0,0 C -1.049,-0.486 -0.387,-2.158 0.72,-1.856 2.031,-1.499 1.423,0.643 0,0" /></g><g
           transform="translate(60.4473,123.2036)"
           id="g144"
           style="display:none"><path
             id="path146"
             style="fill:#000000;fill-opacity:1;fill-rule:nonzero;stroke:none"
             d="M 0,0 C -1.439,0.599 -2.078,-1.28 -0.719,-1.856 0.385,-2.328 1.054,-0.453 0,0" /></g><g
           transform="translate(113.1621,74.4941)"
           id="g148"
           style="display:none"><path
             id="path150"
             style="fill:#000000;fill-opacity:1;fill-rule:nonzero;stroke:none"
             d="M 0,0 C -0.856,0 -0.867,-1.336 0,-1.335 0.863,-1.334 0.858,0 0,0" /></g><g
           transform="translate(77.1982,74.4941)"
           id="g152"
           style="display:none"><path
             id="path154"
             style="fill:#000000;fill-opacity:1;fill-rule:nonzero;stroke:none"
             d="M 0,0 C -0.858,0 -0.863,-1.335 0,-1.335 0.867,-1.335 0.857,0 0,0" /></g><g
           transform="translate(113.1621,120.8672)"
           id="g156"
           style="display:none"><path
             id="path158"
             style="fill:#000000;fill-opacity:1;fill-rule:nonzero;stroke:none"
             d="M 0,0 C 0.858,0 0.863,1.334 0,1.335 -0.867,1.336 -0.856,0 0,0" /></g><g
           transform="translate(77.1982,120.8672)"
           id="g160"
           style="display:none"><path
             id="path162"
             style="fill:#000000;fill-opacity:1;fill-rule:nonzero;stroke:none"
             d="M 0,0 C 0.856,0 0.867,1.335 0,1.335 -0.863,1.335 -0.858,0 0,0" /></g><g
           transform="translate(116.4473,71.8975)"
           id="g164"
           style="display:none"><path
             id="path166"
             style="fill:#000000;fill-opacity:1;fill-rule:nonzero;stroke:none"
             d="M 0,0 C -0.856,0 -0.867,-1.338 0,-1.336 0.862,-1.333 0.862,0 0,0" /></g><g
           transform="translate(73.9131,71.8975)"
           id="g168"
           style="display:none"><path
             id="path170"
             style="fill:#000000;fill-opacity:1;fill-rule:nonzero;stroke:none"
             d="M 0,0 C -0.862,0 -0.862,-1.333 0,-1.336 0.867,-1.338 0.856,0 0,0" /></g><g
           transform="translate(116.4473,123.4648)"
           id="g172"
           style="display:none"><path
             id="path174"
             style="fill:#000000;fill-opacity:1;fill-rule:nonzero;stroke:none"
             d="M 0,0 C 0.862,0 0.862,1.333 0,1.335 -0.867,1.337 -0.856,0 0,0" /></g><g
           transform="translate(73.9131,123.4644)"
           id="g176"
           style="display:none"><path
             id="path178"
             style="fill:#000000;fill-opacity:1;fill-rule:nonzero;stroke:none"
             d="M 0,0 C 0.856,0 0.867,1.337 0,1.335 -0.862,1.333 -0.862,0 0,0" /></g><g
           transform="translate(119.3789,68.9873)"
           id="g180"
           style="display:none"><path
             id="path182"
             style="fill:#000000;fill-opacity:1;fill-rule:nonzero;stroke:none"
             d="M 0,0 C -0.859,0 -0.863,-1.335 0,-1.335 0.86,-1.336 0.858,0 0,0" /></g><g
           transform="translate(70.9819,68.9873)"
           id="g184"
           style="display:none"><path
             id="path186"
             style="fill:#000000;fill-opacity:1;fill-rule:nonzero;stroke:none"
             d="M 0,0 C -0.859,0 -0.861,-1.336 0,-1.335 0.863,-1.335 0.859,0 0,0" /></g><g
           transform="translate(119.3789,126.3745)"
           id="g188"
           style="display:none"><path
             id="path190"
             style="fill:#000000;fill-opacity:1;fill-rule:nonzero;stroke:none"
             d="M 0,0 C 0.858,0 0.86,1.335 0,1.335 -0.863,1.335 -0.859,0 0,0" /></g><g
           transform="translate(70.9819,126.3745)"
           id="g192"
           style="display:none"><path
             id="path194"
             style="fill:#000000;fill-opacity:1;fill-rule:nonzero;stroke:none"
             d="M 0,0 C 0.859,0 0.863,1.334 0,1.335 -0.861,1.335 -0.859,0 0,0" /></g><g
           transform="translate(122.7891,66.1816)"
           id="g196"
           style="display:none"><path
             id="path198"
             style="fill:#000000;fill-opacity:1;fill-rule:nonzero;stroke:none"
             d="M 0,0 C -0.973,0.371 -1.666,-0.601 -1.027,-1.388 -0.051,-2.588 1.461,-0.476 0,0" /></g><g
           transform="translate(68.1763,66.2959)"
           id="g200"
           style="display:none"><path
             id="path202"
             style="fill:#000000;fill-opacity:1;fill-rule:nonzero;stroke:none"
             d="M 0,0 C -1.291,0.071 -1.732,-1.987 -0.225,-1.88 0.743,-1.811 1.086,-0.054 0,0" /></g><g
           transform="translate(122.1846,129.0654)"
           id="g204"
           style="display:none"><path
             id="path206"
             style="fill:#000000;fill-opacity:1;fill-rule:nonzero;stroke:none"
             d="M 0,0 C 1.039,-0.061 1.829,1.463 0.584,1.859 -0.645,2.25 -1.187,0.059 0,0" /></g><g
           transform="translate(67.6235,129.1597)"
           id="g208"
           style="display:none"><path
             id="path210"
             style="fill:#000000;fill-opacity:1;fill-rule:nonzero;stroke:none"
             d="M 0,0 C 1.191,-0.617 1.768,1.355 0.614,1.707 -0.568,2.277 -1.239,0.352 0,0" /></g></g></g></g></svg>
