<svg xmlns="http://www.w3.org/2000/svg" xmlns:xlink="http://www.w3.org/1999/xlink" viewBox="-5 -5 263.333 263.333" xml:space="preserve">
    <rect x="-5" y="-5" width="100%" height="100%" fill="white"/>
    <g clip-path="url(#b)" transform="matrix(1.33333 0 0 1.33333 0 0)">
        <path style="fill:#000;fill-opacity:1;fill-rule:nonzero;stroke:none" d="M0 0a.618.618 0 0 1-.195.032c-.41 0-.77-.277-.797-.703-.024-.39.297-.797.703-.797.1 0 .198.017.289.048a.877.877 0 0 1 .29-.048c.405 0 .726.406.702.797C.965-.245.606.032.195.032A.618.618 0 0 1 0 0Z" transform="translate(95 123.246)"/>
        <path style="fill:#000;fill-opacity:1;fill-rule:nonzero;stroke:none" d="M0 0c0-.1.017-.199.048-.29A.877.877 0 0 1 0-.577c0-.406.406-.727.797-.703.426.027.703.386.703.797a.621.621 0 0 1-.032.195c.02.062.032.127.032.195 0 .41-.277.77-.703.797a.684.684 0 0 1-.04.001C.378.704 0 .392 0 0Z" transform="translate(121.777 95.29)"/>
        <path style="fill:#000;fill-opacity:1;fill-rule:nonzero;stroke:none" d="M0 0c-.426-.027-.703-.387-.703-.797 0-.068.011-.133.032-.195a.618.618 0 0 1-.032-.196c0-.41.277-.769.703-.796.39-.024.797.297.797.703 0 .1-.017.198-.049.289.032.09.049.188.049.289C.797-.311.418 0 .04 0L0 0Z" transform="translate(67.426 95.992)"/>
        <path style="fill:#000;fill-opacity:1;fill-rule:nonzero;stroke:none" d="M0 0a.877.877 0 0 1-.29.048c-.405 0-.726-.406-.702-.796.027-.426.387-.704.797-.704.068 0 .133.012.195.032a.621.621 0 0 1 .195-.032c.41 0 .77.278.797.704.024.39-.297.796-.703.796A.877.877 0 0 1 0 0Z" transform="translate(95 68.174)"/>
        <path style="fill:#000;fill-opacity:1;fill-rule:nonzero;stroke:none" d="M0 0c.408 0 .769-.277.794-.703.024-.389-.293-.794-.702-.794s-.77.276-.795.703C-.726-.406-.409 0 0 0Z" transform="translate(95.196 123.275)"/>
        <path style="fill:#000;fill-opacity:1;fill-rule:nonzero;stroke:none" d="M0 0c-.408 0-.769-.277-.794-.703-.024-.389.293-.794.702-.794s.77.276.795.703C.726-.405.409 0 0 0Z" transform="translate(94.804 123.275)"/>
        <path style="fill:#000;fill-opacity:1;fill-rule:nonzero;stroke:none" d="M0 0c0 .408.277.769.703.794.389.024.794-.293.794-.702s-.276-.77-.703-.795C.405-.726 0-.409 0 0Z" transform="translate(66.725 95.196)"/>
        <path style="fill:#000;fill-opacity:1;fill-rule:nonzero;stroke:none" d="M0 0c0-.408.277-.769.703-.794.389-.024.794.293.794.702s-.276.77-.703.795C.405.726 0 .409 0 0Z" transform="translate(66.725 94.804)"/>
        <path style="fill:#000;fill-opacity:1;fill-rule:nonzero;stroke:none" d="M0 0a.715.715 0 0 1-.078-.01.722.722 0 0 1-.078.01c-.38.027-.68-.227-.918-.484-.477-.52-.828-1.149-1.11-1.79-.316-.71-.55-1.457-.757-2.21a25.577 25.577 0 0 1-.508-2.23c-.364-1.973-.535-3.977-.614-5.977a47.389 47.389 0 0 1-.023-3.075c.024-.98.055-1.965.164-2.937.113-1.05.305-2.082.55-3.11.228-.953.458-1.906.716-2.851.17-.623.36-1.243.582-1.852-.61.222-1.228.412-1.852.582-.945.258-1.898.489-2.851.715a24.675 24.675 0 0 1-3.11.551c-.972.11-1.957.14-2.937.164a47.53 47.53 0 0 1-3.074-.023c-2-.078-4.004-.25-5.977-.614a25.587 25.587 0 0 1-2.23-.507c-.754-.207-1.5-.442-2.211-.758-.641-.281-1.27-.633-1.79-1.11-.257-.238-.511-.539-.484-.918a.715.715 0 0 1 .01-.078.719.719 0 0 1-.01-.078c-.027-.379.227-.68.485-.918.52-.476 1.148-.828 1.789-1.11.71-.316 1.457-.55 2.21-.757.735-.203 1.481-.371 2.231-.508 1.973-.363 3.977-.535 5.977-.613a47.388 47.388 0 0 1 3.074-.023c.98.023 1.965.054 2.937.163 1.051.114 2.082.305 3.11.551a89.31 89.31 0 0 1 2.851.715c.624.171 1.243.36 1.852.582a23.761 23.761 0 0 1-.582-1.851 89.31 89.31 0 0 1-.715-2.852 24.675 24.675 0 0 1-.55-3.11c-.11-.972-.141-1.956-.165-2.937-.023-1.023-.02-2.05.024-3.074.078-2 .25-4.004.613-5.977.137-.75.305-1.496.508-2.23.207-.754.441-1.5.757-2.211.282-.64.633-1.27 1.11-1.79.238-.257.539-.51.918-.483a.722.722 0 0 1 .078.01.715.715 0 0 1 .078-.01c.379-.028.68.226.918.484.477.52.828 1.148 1.11 1.789.316.71.55 1.457.757 2.21.203.735.371 1.481.508 2.231.363 1.973.535 3.977.613 5.977a47.46 47.46 0 0 1 .024 3.074c-.024.98-.055 1.965-.164 2.938a24.675 24.675 0 0 1-.551 3.11 89.309 89.309 0 0 1-.715 2.85 23.72 23.72 0 0 1-.582 1.852c.609-.221 1.228-.411 1.852-.582a89.316 89.316 0 0 1 2.851-.715 24.672 24.672 0 0 1 3.11-.55c.972-.11 1.957-.141 2.937-.165a47.39 47.39 0 0 1 3.074.024c2 .078 4.004.25 5.977.613.75.137 1.496.305 2.23.508.754.207 1.5.441 2.211.758.64.281 1.27.633 1.79 1.11.257.238.51.538.484.917a.719.719 0 0 1-.01.078.716.716 0 0 1 .01.078c.027.38-.227.68-.485.918-.52.477-1.148.828-1.789 1.11-.71.316-1.457.55-2.21.758-.735.203-1.481.37-2.231.507-1.973.364-3.977.535-5.977.614-1.023.043-2.05.046-3.074.023-.98-.023-1.965-.055-2.937-.164a24.672 24.672 0 0 1-3.11-.55 89.315 89.315 0 0 1-2.851-.716c-.624-.17-1.243-.36-1.852-.582.222.61.411 1.228.582 1.852.258.945.488 1.898.715 2.851.246 1.028.437 2.06.55 3.11.11.972.141 1.957.165 2.937a47.46 47.46 0 0 1-.024 3.075c-.078 2-.25 4.003-.613 5.976-.137.75-.305 1.496-.508 2.23-.207.754-.441 1.5-.758 2.212-.28.64-.633 1.27-1.109 1.789C.692-.24.408.002.056.002.038.002.02.002 0 0Zm-.078-1.63.027-.033c.106-.142.207-.285.304-.433a8.64 8.64 0 0 0 .434-.852c.239-.568.43-1.153.603-1.743.332-1.198.573-2.416.744-3.598a47.93 47.93 0 0 0 .411-5.844c.008-1.622-.03-3.253-.221-4.864-.228-1.704-.671-3.373-1.08-4.94-.233-.882-.497-1.756-.824-2.56a8.406 8.406 0 0 0-.398-.827 8.63 8.63 0 0 0-.383.786 20.771 20.771 0 0 0-.812 2.507c-.436 1.661-.88 3.33-1.107 5.034-.191 1.611-.23 3.242-.222 4.763.02 1.985.147 3.979.403 5.898.18 1.23.421 2.447.753 3.645.173.59.364 1.175.602 1.743.131.294.272.575.435.852.097.148.198.29.304.433l.027.032zm14.277-24.358c1.986-.02 3.98-.147 5.899-.403 1.23-.18 2.447-.421 3.645-.753a16.58 16.58 0 0 0 1.743-.602 8.65 8.65 0 0 0 .852-.435c.147-.096.29-.198.432-.304l.033-.027-.033-.027a8.528 8.528 0 0 0-.432-.304 8.672 8.672 0 0 0-.852-.434 16.557 16.557 0 0 0-1.743-.603 29.248 29.248 0 0 0-3.598-.744 47.97 47.97 0 0 0-5.844-.411c-1.622-.008-3.252.03-4.863.221-1.704.227-3.374.671-4.942 1.08-.882.234-1.756.498-2.558.824-.284.118-.561.25-.829.398.268.148.545.28.787.383.844.342 1.718.606 2.506.813 1.662.435 3.332.879 5.036 1.106 1.611.191 3.24.23 4.863.222h-.102zm-23.793-.222c1.704-.227 3.374-.67 4.942-1.08.881-.233 1.755-.497 2.558-.823.284-.119.561-.25.829-.399a8.62 8.62 0 0 0-.787-.382 20.766 20.766 0 0 0-2.507-.813c-1.661-.436-3.33-.88-5.035-1.107-1.611-.19-3.241-.229-4.761-.221-1.986.02-3.98.146-5.899.402-1.23.18-2.447.422-3.645.753-.59.173-1.175.364-1.743.603a8.684 8.684 0 0 0-.852.434c-.147.097-.29.198-.432.304l-.033.027c.01.01.022.018.033.027.142.106.285.208.432.304.277.163.559.304.852.435.568.238 1.154.43 1.743.602 1.198.332 2.416.574 3.598.745a47.95 47.95 0 0 0 5.844.41c1.622.008 3.252-.03 4.863-.22zm9.516-3.49c.148-.267.28-.544.383-.786.342-.844.606-1.718.812-2.506.436-1.661.88-3.33 1.107-5.034.19-1.612.229-3.242.221-4.763a48.457 48.457 0 0 0-.402-5.899 29.795 29.795 0 0 0-.753-3.645 16.588 16.588 0 0 0-.602-1.743 8.662 8.662 0 0 0-.435-.852 8.462 8.462 0 0 0-.304-.432l-.027-.033-.027.033a8.525 8.525 0 0 0-.304.432 8.684 8.684 0 0 0-.435.852c-.238.569-.43 1.154-.602 1.743a29.25 29.25 0 0 0-.745 3.598 47.97 47.97 0 0 0-.41 5.844c-.008 1.623.03 3.253.221 4.865.227 1.704.67 3.373 1.08 4.94.233.882.497 1.756.823 2.559.119.283.25.56.399.828z" transform="translate(95.078 123.512)"/>
        <path style="fill:#000;fill-opacity:1;fill-rule:nonzero;stroke:none" d="m0 0-.007.054L0 0Z" transform="translate(97.113 115.223)"/>
        <path style="fill:#000;fill-opacity:1;fill-rule:nonzero;stroke:none" d="m0 0 .007.054L0 0Z" transform="translate(92.887 115.223)"/>
        <path style="fill:#000;fill-opacity:1;fill-rule:nonzero;stroke:none" d="m0 0-.054.007L0 0Z" transform="translate(115.277 97.106)"/>
        <path style="fill:#000;fill-opacity:1;fill-rule:nonzero;stroke:none" d="m0 0 .054.007L0 0Z" transform="translate(74.723 97.106)"/>
        <path style="fill:#000;fill-opacity:1;fill-rule:nonzero;stroke:none" d="m0 0 .054.007L0 0Z" transform="translate(115.223 92.887)"/>
        <path style="fill:#000;fill-opacity:1;fill-rule:nonzero;stroke:none" d="m0 0-.054.007L0 0Z" transform="translate(74.777 92.887)"/>
        <path style="fill:#000;fill-opacity:1;fill-rule:nonzero;stroke:none" d="m0 0 .007.054L0 0Z" transform="translate(97.106 74.723)"/>
        <path style="fill:#000;fill-opacity:1;fill-rule:nonzero;stroke:none" d="m0 0-.007.054L0 0Z" transform="translate(92.894 74.723)"/>
        <path style="fill:#000;fill-opacity:1;fill-rule:nonzero;stroke:none" d="M0 0c-.114-.017-.23-.028-.346-.047A8.43 8.43 0 0 1-1.41-.305c-.7-.215-1.387-.477-2.063-.762-.913-.383-1.82-.797-2.675-1.3-.84-.497-1.64-1.04-2.406-1.641-1.524-1.2-2.868-2.625-4.028-4.176a38.681 38.681 0 0 1-1.668-2.453c-.57-.903-1.14-1.801-1.687-2.719-.871-1.46-1.621-3-2.282-4.566-.143-.337.015-.733.317-.918.185-.302.581-.46.918-.317 1.566.66 3.105 1.41 4.566 2.281.918.547 1.817 1.118 2.719 1.688.836.531 1.66 1.074 2.453 1.668 1.55 1.16 2.977 2.504 4.176 4.027a21.96 21.96 0 0 1 1.64 2.406c.504.856.919 1.762 1.301 2.676.285.676.547 1.364.762 2.063.11.351.195.703.258 1.062.02.116.03.232.047.345a.755.755 0 0 1-.214.726.766.766 0 0 1-.55.237A.72.72 0 0 1 0 0Zm-.731-1.67c-.074-.272-.16-.54-.241-.77A28.37 28.37 0 0 0-2.19-5.345c-.39-.762-.82-1.493-1.242-2.118a22.35 22.35 0 0 0-1.489-1.906 23.628 23.628 0 0 0-1.953-1.937l-.052-.044a32.05 32.05 0 0 0-3.249-2.366c-1-.641-2.003-1.282-3.027-1.883a33.856 33.856 0 0 0-3.05-1.593l.07.155a35.19 35.19 0 0 0 1.523 2.895 94.549 94.549 0 0 0 1.828 2.945c.746 1.156 1.536 2.275 2.417 3.326a.186.186 0 0 0 .005.005l.02.023c.616.7 1.266 1.36 1.882 1.916.633.554 1.293 1.07 1.903 1.496.707.48 1.437.91 2.113 1.254.97.479 1.97.902 2.953 1.254.267.091.535.177.807.251z" transform="translate(113.706 114.645)"/>
        <path style="fill:#000;fill-opacity:1;fill-rule:nonzero;stroke:none" d="M0 0a.755.755 0 0 1-.214-.726c.016-.114.027-.23.047-.345.062-.36.148-.711.257-1.063.215-.699.477-1.386.762-2.062.383-.914.797-1.82 1.301-2.676a21.97 21.97 0 0 1 1.64-2.406c1.2-1.524 2.626-2.867 4.176-4.027a38.751 38.751 0 0 1 2.454-1.669c.902-.57 1.8-1.14 2.718-1.687 1.461-.871 3-1.621 4.567-2.281.336-.144.733.014.918.317.301.185.46.58.316.917a36.883 36.883 0 0 1-2.281 4.567c-.547.918-1.117 1.816-1.688 2.718a38.61 38.61 0 0 1-1.668 2.453c-1.16 1.551-2.504 2.977-4.027 4.176a21.923 21.923 0 0 1-2.406 1.64c-.856.505-1.762.919-2.676 1.302-.676.285-1.363.546-2.062.761-.352.11-.704.196-1.063.258C.955.187.839.198.725.215a.72.72 0 0 1-.176.022A.766.766 0 0 1 0 0Zm1.456-1.456c.271-.074.54-.16.77-.241 1.019-.363 2.02-.785 2.904-1.218a20.88 20.88 0 0 0 2.117-1.242c.691-.484 1.351-1 1.906-1.488A23.63 23.63 0 0 0 11.091-7.6l.043-.051c.001-.002.003-.004 0-.001a32.03 32.03 0 0 0 2.367-3.248c.64-1 1.28-2.004 1.883-3.028a33.84 33.84 0 0 0 1.592-3.05l-.155.07c-.988.465-1.953.969-2.895 1.523a94.595 94.595 0 0 0-2.945 1.829c-1.156.745-2.275 1.536-3.326 2.417l-.005.004-.022.02c-.7.616-1.36 1.266-1.916 1.883A22.475 22.475 0 0 0 4.216-7.33c-.481.707-.91 1.438-1.254 2.113-.48.97-.902 1.97-1.254 2.954a13.23 13.23 0 0 0-.252.806z" transform="translate(75.57 114.43)"/>
        <path style="fill:#000;fill-opacity:1;fill-rule:nonzero;stroke:none" d="m0 0 .057.02L0 0Z" transform="translate(112.205 112.734)"/>
        <path style="fill:#000;fill-opacity:1;fill-rule:nonzero;stroke:none" d="m0 0-.057.02L0 0Z" transform="translate(77.795 112.734)"/>
        <path style="fill:#000;fill-opacity:1;fill-rule:nonzero;stroke:none" d="m0 0 .02.057A1.627 1.627 0 0 1 0 0Z" transform="translate(112.734 112.205)"/>
        <path style="fill:#000;fill-opacity:1;fill-rule:nonzero;stroke:none" d="M0 0a1.627 1.627 0 0 1-.02.057L0 0Z" transform="translate(77.266 112.205)"/>
        <path style="fill:#000;fill-opacity:1;fill-rule:nonzero;stroke:none" d="M0 0v-.001l.02.024L0 0Z" transform="translate(103.296 106.78)"/>
        <path style="fill:#000;fill-opacity:1;fill-rule:nonzero;stroke:none" d="M0 0v.001l-.02.023L0 0Z" transform="translate(86.704 106.779)"/>
        <path style="fill:#000;fill-opacity:1;fill-rule:nonzero;stroke:none" d="M0 0h.001l.023.02A1.102 1.102 0 0 1 0 0Z" transform="translate(106.779 103.296)"/>
        <path style="fill:#000;fill-opacity:1;fill-rule:nonzero;stroke:none" d="M0 0h.001l-.024.02L0 0Z" transform="translate(83.22 103.296)"/>
        <path style="fill:#000;fill-opacity:1;fill-rule:nonzero;stroke:none" d="M0 0c-.302-.185-.46-.581-.317-.917a36.889 36.889 0 0 1 2.282-4.567c.547-.918 1.117-1.816 1.687-2.719a38.751 38.751 0 0 1 1.668-2.453c1.16-1.55 2.504-2.976 4.028-4.176a21.946 21.946 0 0 1 2.406-1.64c.855-.504 1.762-.918 2.676-1.301a21.746 21.746 0 0 1 2.062-.762c.352-.11.703-.195 1.063-.257.116-.02.232-.031.346-.048a.755.755 0 0 1 .724.215c.191.182.283.46.215.726-.016.113-.028.229-.047.345-.063.36-.149.71-.258 1.062-.215.7-.477 1.387-.762 2.063-.383.914-.797 1.82-1.3 2.676-.496.84-1.04 1.64-1.641 2.406-1.2 1.523-2.625 2.867-4.176 4.027a38.683 38.683 0 0 1-2.453 1.668c-.902.57-1.8 1.14-2.719 1.688-1.46.87-3 1.62-4.566 2.28A.67.67 0 0 1 .653.37.782.782 0 0 1 0 0Zm1.65-1.649.155-.07a35.252 35.252 0 0 0 2.894-1.523A94.357 94.357 0 0 0 7.644-5.07c1.157-.745 2.275-1.536 3.326-2.417l.005-.004.023-.02c.7-.616 1.36-1.266 1.916-1.883a22.49 22.49 0 0 0 1.496-1.902c.48-.708.91-1.438 1.254-2.114.48-.97.902-1.97 1.254-2.953.091-.267.178-.535.252-.806-.272.074-.54.16-.77.24-1.02.363-2.02.786-2.904 1.218-.762.391-1.492.82-2.117 1.243-.692.484-1.352 1-1.906 1.488a23.613 23.613 0 0 0-1.938 1.953l-.043.052-.001.001a32.036 32.036 0 0 0-2.366 3.248c-.64 1-1.281 2.004-1.883 3.027a33.857 33.857 0 0 0-1.593 3.05z" transform="translate(95.805 94.195)"/>
        <path style="fill:#000;fill-opacity:1;fill-rule:nonzero;stroke:none" d="M0 0a36.889 36.889 0 0 1-4.566-2.281c-.918-.547-1.817-1.117-2.72-1.688a38.751 38.751 0 0 1-2.452-1.668c-1.551-1.16-2.977-2.504-4.176-4.027a21.96 21.96 0 0 1-1.64-2.406c-.505-.856-.919-1.762-1.301-2.676a21.801 21.801 0 0 1-.762-2.063 8.412 8.412 0 0 1-.258-1.062c-.02-.116-.03-.232-.047-.345a.755.755 0 0 1 .214-.726.755.755 0 0 1 .725-.215c.114.017.23.028.346.048.36.062.711.148 1.063.257.699.215 1.387.477 2.062.762.914.383 1.82.797 2.676 1.3.84.497 1.64 1.04 2.406 1.642 1.524 1.199 2.868 2.625 4.028 4.175a38.681 38.681 0 0 1 1.668 2.454c.57.902 1.14 1.8 1.687 2.718.871 1.461 1.621 3 2.281 4.567.144.336-.014.732-.316.917a.782.782 0 0 1-.653.37A.672.672 0 0 1 0 0Zm-.731-1.966-.07-.155a35.19 35.19 0 0 0-1.523-2.895A94.549 94.549 0 0 0-4.152-7.96c-.746-1.156-1.537-2.275-2.418-3.326a.186.186 0 0 0-.004-.005l-.02-.022c-.616-.701-1.266-1.36-1.883-1.917a22.474 22.474 0 0 0-1.902-1.496c-.707-.48-1.437-.91-2.113-1.254-.97-.479-1.97-.902-2.953-1.253a13.352 13.352 0 0 0-.807-.252c.074.271.16.54.241.77a28.37 28.37 0 0 0 1.218 2.904c.39.761.82 1.492 1.242 2.117.485.691 1 1.351 1.489 1.906a23.628 23.628 0 0 0 1.953 1.937l.052.044c.001.001.003.003 0 0A32.035 32.035 0 0 0-6.808-5.44c1 .64 2.004 1.28 3.028 1.882a33.856 33.856 0 0 0 3.05 1.593z" transform="translate(93.277 94.512)"/>
        <path style="fill:#000;fill-opacity:1;fill-rule:nonzero;stroke:none" d="m0 0-.023.02A1.47 1.47 0 0 1 0 0Z" transform="translate(106.803 86.683)"/>
        <path style="fill:#000;fill-opacity:1;fill-rule:nonzero;stroke:none" d="m0 0-.023-.02.024.02H0Z" transform="translate(83.22 86.704)"/>
        <path style="fill:#000;fill-opacity:1;fill-rule:nonzero;stroke:none" d="m0 0 .02-.023L0 .001V0Z" transform="translate(103.296 83.22)"/>
        <path style="fill:#000;fill-opacity:1;fill-rule:nonzero;stroke:none" d="m0 0 .02.023A1.47 1.47 0 0 1 0 0Z" transform="translate(86.683 83.197)"/>
        <path style="fill:#000;fill-opacity:1;fill-rule:nonzero;stroke:none" d="m0 0-.02.057L0 0Z" transform="translate(112.754 77.738)"/>
        <path style="fill:#000;fill-opacity:1;fill-rule:nonzero;stroke:none" d="m0 0 .02.057L0 0Z" transform="translate(77.246 77.738)"/>
        <path style="fill:#000;fill-opacity:1;fill-rule:nonzero;stroke:none" d="m0 0-.057.02L0 0Z" transform="translate(112.262 77.246)"/>
        <path style="fill:#000;fill-opacity:1;fill-rule:nonzero;stroke:none" d="m0 0 .057.02L0 0Z" transform="translate(77.738 77.246)"/>
        <path style="fill:#000;fill-opacity:1;fill-rule:nonzero;stroke:none" d="M0 0a.258.258 0 0 1-.266-.049.298.298 0 0 1-.086-.187c-.015-.102-.023-.2-.03-.297-.032-.352-.04-.707-.052-1.059-.023-.722-.05-1.445-.07-2.168-.02-.738-.039-1.48-.043-2.222-.004-.692.016-1.387.012-2.082a.248.248 0 0 1 .242-.254.254.254 0 0 1 .258.242c.004.621-.012 1.246-.012 1.871.004.672.016 1.348.035 2.023L0-3.675l.012-.507c.02-.675.031-1.351.035-2.023 0-.625-.016-1.25-.012-1.871a.254.254 0 0 1 .258-.242c.14.004.246.12.242.254-.004.695.016 1.39.012 2.082C.543-5.24.523-4.498.504-3.76c-.02.723-.047 1.446-.07 2.168-.012.352-.02.707-.051 1.059-.008.098-.016.195-.031.297a.298.298 0 0 1-.086.187A.262.262 0 0 1 0 0Z" transform="translate(95 104.06)"/>
        <path style="fill:#000;fill-opacity:1;fill-rule:nonzero;stroke:none" d="M0 0a46.056 46.056 0 0 0-1.04-.004.248.248 0 0 1-.253-.242.254.254 0 0 1 .242-.258C-.43-.508.195-.492.82-.492a87.895 87.895 0 0 0 2.024-.035L3.35-.54l-.506-.012A87.895 87.895 0 0 0 .82-.586c-.625 0-1.25.016-1.87.012a.254.254 0 0 1-.243-.258.248.248 0 0 1 .254-.242c.348 0 .695-.004 1.039-.008.348-.004.695-.008 1.043-.004.742.004 1.484.024 2.223.043.722.02 1.445.047 2.168.07.351.012.707.02 1.058.051.098.008.196.016.297.031a.298.298 0 0 1 .188.086.258.258 0 0 1 .048.266.258.258 0 0 1-.048.266.298.298 0 0 1-.188.086c-.101.015-.2.023-.297.03-.351.032-.707.04-1.058.052-.723.023-1.446.05-2.168.07-.739.02-1.48.039-2.223.043C.695.008.348.004 0 0Z" transform="translate(97.035 95.54)"/>
        <path style="fill:#000;fill-opacity:1;fill-rule:nonzero;stroke:none" d="M0 0c-.723-.02-1.445-.047-2.168-.07-.351-.012-.707-.02-1.059-.051-.097-.008-.195-.016-.296-.031a.298.298 0 0 1-.188-.086.258.258 0 0 1-.049-.266.258.258 0 0 1 .05-.266.298.298 0 0 1 .187-.086c.101-.015.199-.023.296-.03.352-.032.707-.04 1.059-.052.723-.023 1.445-.05 2.168-.07.738-.02 1.48-.039 2.223-.043.343-.004.691 0 1.039.004.347.004.695.008 1.043.008a.248.248 0 0 1 .254.242.254.254 0 0 1-.243.258c-.62.004-1.246-.012-1.87-.012-.673.004-1.348.016-2.024.035l-.507.012.507.012c.676.02 1.351.031 2.023.035.625 0 1.25-.016 1.871-.012a.254.254 0 0 1 .243.258.248.248 0 0 1-.254.242c-.348-.004-.696 0-1.043.004-.348.004-.696.008-1.04.008C1.48.039.739.02 0 0Z" transform="translate(89.7 95.504)"/>
        <path style="fill:#000;fill-opacity:1;fill-rule:nonzero;stroke:none" d="M0 0c-.004-.621.012-1.246.012-1.871a87.905 87.905 0 0 0-.035-2.024A78.56 78.56 0 0 0-.035-4.4l-.012.506c-.02.676-.031 1.352-.035 2.024 0 .625.016 1.25.012 1.871a.254.254 0 0 1-.258.242.248.248 0 0 1-.242-.254c.004-.695-.016-1.39-.012-2.082.004-.742.023-1.484.043-2.222.02-.723.047-1.446.07-2.168.012-.352.02-.707.051-1.059.008-.098.016-.195.031-.297A.297.297 0 0 1-.3-8.027a.258.258 0 0 1 .266-.05.258.258 0 0 1 .266.05c.054.05.078.12.085.187.016.102.024.2.032.297.03.352.039.707.05 1.059.024.722.051 1.445.07 2.168.02.738.04 1.48.044 2.222C.516-1.402.496-.707.5-.012a.248.248 0 0 1-.25.254A.255.255 0 0 1 0 0Z" transform="translate(95.035 94.016)"/>
        <path style="fill:#000;fill-opacity:1;fill-rule:nonzero;stroke:none" d="m0 0 .054.077V.075l.01.03A.132.132 0 0 1 .06.084l.007.031C.056.06.05.005.044-.05l.004.033c-.028-.29-.04-.58-.05-.87L-.04-1.972c-.02-.6-.038-1.199-.053-1.798a88.716 88.716 0 0 1-.033-2.025c-.001-.623.013-1.247.01-1.87a.252.252 0 0 0-.258-.243.253.253 0 0 0-.242.257c.004.694-.013 1.388-.01 2.082.005.74.023 1.481.044 2.221.02.723.044 1.446.068 2.169.012.352.021.705.05 1.056.008.1.017.198.031.297.01.068.033.14.086.187.102.09.257.094.354-.008C.099.258.102.09 0 0Z" transform="translate(95.079 103.648)"/>
        <path style="fill:#000;fill-opacity:1;fill-rule:nonzero;stroke:none" d="m0 0-.054.077V.075l-.01.03A.132.132 0 0 0-.06.083l-.007.032c.01-.055.016-.11.022-.166l-.004.033c.028-.29.04-.58.05-.87L.04-1.972c.02-.6.038-1.199.053-1.798.017-.675.031-1.35.033-2.025.001-.623-.013-1.247-.01-1.87.002-.137.124-.247.258-.243a.253.253 0 0 1 .243.257c-.005.694.012 1.388.008 2.082-.004.74-.022 1.481-.043 2.221-.02.723-.044 1.446-.068 2.169C.5-.827.49-.474.463-.123c-.008.1-.017.198-.032.297A.305.305 0 0 1 .346.36.253.253 0 0 1-.008.353C-.099.258-.102.09 0 0Z" transform="translate(94.921 103.648)"/>
        <path style="fill:#000;fill-opacity:1;fill-rule:nonzero;stroke:none" d="m0 0-.077.054h.002l-.03.01A.132.132 0 0 1-.083.06l-.032.007C-.06.056-.005.05.05.044L.018.048c.29-.028.58-.04.87-.05L1.972-.04c.6-.02 1.199-.038 1.798-.053.675-.017 1.35-.031 2.025-.033.623-.001 1.247.013 1.87.01a.252.252 0 0 0 .243-.258.253.253 0 0 0-.257-.243c-.694.005-1.388-.012-2.082-.008-.74.004-1.481.022-2.221.043-.723.02-1.446.044-2.169.068C.827-.5.474-.49.123-.463c-.1.008-.198.017-.297.032a.305.305 0 0 0-.187.085.253.253 0 0 0 .007.354C-.257.099-.09.102 0 0Z" transform="translate(86.352 95.079)"/>
        <path style="fill:#000;fill-opacity:1;fill-rule:nonzero;stroke:none" d="M0 0c-.034-.022-.067-.053-.105-.064a.132.132 0 0 0 .022.005l-.032-.007c.055.01.11.016.166.022L.018-.048c2.546.144 5.098.185 7.648.164.136 0 .246.123.242.257a.253.253 0 0 1-.257.243C5.043.626 2.428.615-.174.432-.645.394-.356-.32 0 0Z" transform="translate(86.352 94.921)"/>
        <path style="fill:#000;fill-opacity:1;fill-rule:nonzero;stroke:none" d="M0 0c-.242-.238-.48-.484-.715-.73-.328-.346-.657-.694-.987-1.04l-.657-.628A93.385 93.385 0 0 0-3.81-3.75c-.414-.383-.824-.77-1.21-1.129a11.156 11.156 0 0 0-.403-.348.252.252 0 0 1-.035-.351.244.244 0 0 1 .21-.09.245.245 0 0 1 .09-.21.252.252 0 0 1 .352.034c.114.137.227.27.324.38.383.41.77.82 1.153 1.234.445.484.894.972 1.351 1.449l.628.657a891 891 0 0 0 1.04.987c.247.235.493.473.73.715.09.09.208.191.208.332a.24.24 0 0 1-.103.193.24.24 0 0 1-.194.104C.192.207.09.09 0 0Z" transform="translate(101.695 102.117)"/>
        <path style="fill:#000;fill-opacity:1;fill-rule:nonzero;stroke:none" d="M0 0a.24.24 0 0 1-.103-.193c0-.14.117-.242.207-.332.238-.242.484-.48.73-.715l1.04-.987.628-.658c.457-.476.906-.964 1.352-1.449.382-.414.77-.824 1.129-1.21.12-.134.234-.266.347-.403a.252.252 0 0 1 .352-.035c.064.05.095.131.09.21.08-.005.16.026.21.09.087.11.07.266-.035.352-.136.113-.27.227-.378.324-.41.383-.82.77-1.235 1.153-.484.445-.972.894-1.45 1.351l-.656.628-.988 1.04a31.37 31.37 0 0 1-.715.73c-.09.09-.19.208-.332.208A.24.24 0 0 1 0 0Z" transform="translate(87.78 102.22)"/>
        <path style="fill:#000;fill-opacity:1;fill-rule:nonzero;stroke:none" d="M0 0a.245.245 0 0 1-.09-.21A.245.245 0 0 1-.3-.3a.252.252 0 0 1 .034-.352c.137-.114.27-.227.38-.325.41-.382.82-.77 1.234-1.152.484-.445.972-.894 1.449-1.351l.657-.629c.33-.346.66-.694.987-1.04.235-.246.473-.492.715-.73.09-.09.192-.207.332-.207.08 0 .15.042.194.104a.24.24 0 0 1 .103.193c0 .14-.117.242-.207.332-.238.242-.484.48-.73.715a817.8 817.8 0 0 0-1.04.987l-.628.657c-.457.477-.907.965-1.352 1.45-.383.414-.77.824-1.129 1.21a11.05 11.05 0 0 0-.347.403.247.247 0 0 1-.193.09A.258.258 0 0 1 0 0Z" transform="translate(96.54 93.762)"/>
        <path style="fill:#000;fill-opacity:1;fill-rule:nonzero;stroke:none" d="M0 0c-.113-.137-.227-.27-.324-.379-.383-.41-.77-.82-1.153-1.234a94.33 94.33 0 0 0-1.351-1.45l-.628-.657-1.04-.987a31.573 31.573 0 0 1-.73-.715c-.09-.09-.208-.191-.208-.332 0-.08.043-.149.104-.193a.24.24 0 0 1 .193-.104c.14 0 .242.117.332.207.242.239.48.485.715.73.328.346.657.694.987 1.04l.658.629c.476.457.964.906 1.449 1.351.414.383.824.77 1.21 1.13.134.12.266.234.403.347a.252.252 0 0 1 .035.351.245.245 0 0 1-.21.09.245.245 0 0 1-.25.267A.247.247 0 0 1 0 0Z" transform="translate(93.11 93.727)"/>
        <path style="fill:#000;fill-opacity:1;fill-rule:nonzero;stroke:none" d="m0 0 .034.001.033.006.031.01H.097l.057.03C.14.04.127.028.114.017l.025.02C.068-.024.003-.092-.064-.158c-.114-.114-.226-.23-.338-.345a76.901 76.901 0 0 1-.611-.64c-.425-.45-.854-.895-1.28-1.343-.457-.48-.906-.965-1.355-1.452-.38-.414-.768-.822-1.15-1.235l.021.023a9.077 9.077 0 0 1-.345-.4.253.253 0 0 0-.351-.037.252.252 0 0 0-.038.351c.223.274.464.53.705.787.234.249.467.498.699.749.52.562 1.037 1.125 1.566 1.678l1.509 1.584c.234.246.47.491.712.73C-.226.386-.126.5.015.5.151.5.261.375.257.242A.253.253 0 0 0 0 0Z" transform="translate(102.013 101.824)"/>
        <path style="fill:#000;fill-opacity:1;fill-rule:nonzero;stroke:none" d="m0 0-.034.001-.033.006-.031.01h.001l-.057.03c.014-.008.027-.02.04-.031l-.025.02c.071-.06.136-.128.202-.194.114-.114.226-.23.338-.345.205-.212.408-.426.611-.64.425-.45.854-.895 1.28-1.343.457-.48.906-.965 1.355-1.452.38-.414.768-.822 1.15-1.235l-.021.023c.119-.13.233-.263.345-.4a.253.253 0 0 1 .351-.037.252.252 0 0 1 .038.351c-.223.274-.464.53-.705.787-.234.249-.467.498-.699.749-.52.562-1.037 1.125-1.566 1.678L1.031-.438c-.234.246-.47.491-.712.73C.226.385.126.5-.015.5-.152.5-.261.375-.257.242A.253.253 0 0 1 0 0Z" transform="translate(87.987 101.824)"/>
        <path style="fill:#000;fill-opacity:1;fill-rule:nonzero;stroke:none" d="m0 0-.001.034-.006.033-.01.031V.097l-.03.057c.008-.014.02-.027.031-.04l-.02.025C.024.068.092.003.158-.064c.114-.114.23-.226.345-.338.212-.205.426-.408.64-.611.45-.425.895-.854 1.343-1.28.48-.457.965-.906 1.452-1.355.414-.38.822-.768 1.235-1.15l-.023.021c.13-.119.263-.233.4-.345a.253.253 0 0 0 .038-.351.252.252 0 0 0-.352-.038c-.273.223-.53.464-.787.705-.249.234-.498.467-.749.699-.562.52-1.125 1.037-1.678 1.566L.438-1.031c-.246.234-.491.47-.73.712C-.385-.226-.5-.126-.5.015c0 .137.125.246.258.243A.253.253 0 0 0 0 0Z" transform="translate(88.176 102.013)"/>
        <path style="fill:#000;fill-opacity:1;fill-rule:nonzero;stroke:none" d="M0 0a.265.265 0 0 0-.048-.154l.032.04-.02-.025c1.692 1.69 3.462 3.303 5.21 4.936l-.024-.021c.17.206.65.377.438.696a.252.252 0 0 1-.352.038C4.14 4.548 3.089 3.534 2.022 2.54 1.742 2.084-1.3-.088-.242-.257-.103-.253 0-.137 0 0Z" transform="translate(88.176 87.987)"/>
    </g>
</svg>
