<svg xmlns="http://www.w3.org/2000/svg" xmlns:xlink="http://www.w3.org/1999/xlink" viewBox="-5 -5 263.333 263.333" xml:space="preserve">
    <rect x="-5" y="-5" width="100%" height="100%" fill="white"/>
    <g clip-path="url(#c)" transform="matrix(1.33333 0 0 1.33333 0 0)">
        <path style="fill:#000;fill-opacity:1;fill-rule:nonzero;stroke:none" d="m0 0-.007.054L0 0Z" transform="translate(97.113 115.223)"/>
        <path style="fill:#000;fill-opacity:1;fill-rule:nonzero;stroke:none" d="m0 0 .007.054L0 0Z" transform="translate(92.887 115.223)"/>
        <path style="fill:#000;fill-opacity:1;fill-rule:nonzero;stroke:none" d="m0 0-.054.007L0 0Z" transform="translate(115.277 97.106)"/>
        <path style="fill:#000;fill-opacity:1;fill-rule:nonzero;stroke:none" d="m0 0 .054.007L0 0Z" transform="translate(74.723 97.106)"/>
        <path style="fill:#000;fill-opacity:1;fill-rule:nonzero;stroke:none" d="m0 0-.054.007L0 0Z" transform="translate(74.777 92.887)"/>
        <path style="fill:#000;fill-opacity:1;fill-rule:nonzero;stroke:none" d="m0 0 .007.054L0 0Z" transform="translate(97.106 74.723)"/>
        <path style="fill:#000;fill-opacity:1;fill-rule:nonzero;stroke:none" d="m0 0-.007.054L0 0Z" transform="translate(92.894 74.723)"/>
        <path style="fill:#000;fill-opacity:1;fill-rule:nonzero;stroke:none" d="m0 0 .057.02L0 0Z" transform="translate(112.205 112.734)"/>
        <path style="fill:#000;fill-opacity:1;fill-rule:nonzero;stroke:none" d="m0 0-.057.02L0 0Z" transform="translate(77.795 112.734)"/>
        <path style="fill:#000;fill-opacity:1;fill-rule:nonzero;stroke:none" d="m0 0 .02.057A1.627 1.627 0 0 1 0 0Z" transform="translate(112.734 112.205)"/>
        <path style="fill:#000;fill-opacity:1;fill-rule:nonzero;stroke:none" d="M0 0a1.627 1.627 0 0 1-.02.057L0 0Z" transform="translate(77.266 112.205)"/>
        <path style="fill:#000;fill-opacity:1;fill-rule:nonzero;stroke:none" d="m0 0 .02.023A1.47 1.47 0 0 1 0 0Z" transform="translate(86.683 83.197)"/>
        <path style="fill:#000;fill-opacity:1;fill-rule:nonzero;stroke:none" d="m0 0-.02.057L0 0Z" transform="translate(112.754 77.738)"/>
        <path style="fill:#000;fill-opacity:1;fill-rule:nonzero;stroke:none" d="m0 0 .02.057L0 0Z" transform="translate(77.246 77.738)"/>
        <path style="fill:#000;fill-opacity:1;fill-rule:nonzero;stroke:none" d="m0 0-.057.02L0 0Z" transform="translate(112.262 77.246)"/>
        <path style="fill:#000;fill-opacity:1;fill-rule:nonzero;stroke:none" d="m0 0 .057.02L0 0Z" transform="translate(77.738 77.246)"/>
        <path style="fill:#000;fill-opacity:1;fill-rule:nonzero;stroke:none" d="m0 0-.027.002A.097.097 0 0 1 0 0Z" transform="translate(102.824 118.441)"/>
        <path style="fill:#000;fill-opacity:1;fill-rule:nonzero;stroke:none" d="M0 0c.01 0 .02 0 .027.002L0 0Z" transform="translate(87.176 118.441)"/>
        <path style="fill:#000;fill-opacity:1;fill-rule:nonzero;stroke:none" d="m0 0-.011.003-.015.003A.075.075 0 0 1 0 0Z" transform="translate(103.947 118.25)"/>
        <path style="fill:#000;fill-opacity:1;fill-rule:nonzero;stroke:none" d="m0 0-.011-.003c.01 0 .02.003.026.007L0 0Z" transform="translate(86.064 118.253)"/>
        <path style="fill:#000;fill-opacity:1;fill-rule:nonzero;stroke:none" d="m0 0 .002.001L0 0Z" transform="translate(100.063 117.838)"/>
        <path style="fill:#000;fill-opacity:1;fill-rule:nonzero;stroke:none" d="m0 0-.002.001L0 0Z" transform="translate(89.937 117.838)"/>
        <path style="fill:#000;fill-opacity:1;fill-rule:nonzero;stroke:none" d="m0 0-.006.004-.01.007A.126.126 0 0 1 0 0Z" transform="translate(106.327 117.194)"/>
        <path style="fill:#000;fill-opacity:1;fill-rule:nonzero;stroke:none" d="m0 0-.006-.004.017.01C.006.006.003.003 0 0Z" transform="translate(83.678 117.198)"/>
        <path style="fill:#000;fill-opacity:1;fill-rule:nonzero;stroke:none" d="m0 0-.006.018L0 0Z" transform="translate(107.824 115.336)"/>
        <path style="fill:#000;fill-opacity:1;fill-rule:nonzero;stroke:none" d="m0 0 .006.018L0 0Z" transform="translate(82.176 115.336)"/>
        <path style="fill:#000;fill-opacity:1;fill-rule:nonzero;stroke:none" d="m0 0 .002.022C0 .015 0 .01 0 0Z" transform="translate(107.91 114.356)"/>
        <path style="fill:#000;fill-opacity:1;fill-rule:nonzero;stroke:none" d="M0 0c0 .009 0 .015-.002.022L0 0Z" transform="translate(82.09 114.356)"/>
        <path style="fill:#000;fill-opacity:1;fill-rule:nonzero;stroke:none" d="m0 0 .004.017.001.005A.135.135 0 0 1 0 0Z" transform="translate(107.825 113.836)"/>
        <path style="fill:#000;fill-opacity:1;fill-rule:nonzero;stroke:none" d="m0 0 .004-.017A.121.121 0 0 1 0 .005L0 0Z" transform="translate(82.17 113.853)"/>
        <path style="fill:#000;fill-opacity:1;fill-rule:nonzero;stroke:none" d="m0 0 .006.015A.163.163 0 0 1 0 0Z" transform="translate(107.677 113.391)"/>
        <path style="fill:#000;fill-opacity:1;fill-rule:nonzero;stroke:none" d="M0 0a.163.163 0 0 1-.006.015L0 0Z" transform="translate(82.323 113.391)"/>
        <path style="fill:#000;fill-opacity:1;fill-rule:nonzero;stroke:none" d="m0 0 .008.015A.067.067 0 0 1 0 0Z" transform="translate(107.441 112.887)"/>
        <path style="fill:#000;fill-opacity:1;fill-rule:nonzero;stroke:none" d="M0 0a.067.067 0 0 1-.008.015L0 0Z" transform="translate(82.558 112.887)"/>
        <path style="fill:#000;fill-opacity:1;fill-rule:nonzero;stroke:none" d="m0 0 .009.012.005.008A.126.126 0 0 1 0 0Z" transform="translate(107.03 112.247)"/>
        <path style="fill:#000;fill-opacity:1;fill-rule:nonzero;stroke:none" d="m0 0 .009-.012a.13.13 0 0 1-.014.02L0 0Z" transform="translate(82.961 112.259)"/>
        <path style="fill:#000;fill-opacity:1;fill-rule:nonzero;stroke:none" d="M0 0c.009 0 .015 0 .023.002L0 0Z" transform="translate(114.356 107.91)"/>
        <path style="fill:#000;fill-opacity:1;fill-rule:nonzero;stroke:none" d="m0 0-.023.002C-.016 0-.01 0 0 0Z" transform="translate(75.644 107.91)"/>
        <path style="fill:#000;fill-opacity:1;fill-rule:nonzero;stroke:none" d="m0 0-.017-.004A.121.121 0 0 1 .005 0L0 0Z" transform="translate(113.853 107.83)"/>
        <path style="fill:#000;fill-opacity:1;fill-rule:nonzero;stroke:none" d="M0 0a1.006 1.006 0 0 1-.017.004l-.005.001A.135.135 0 0 1 0 0Z" transform="translate(76.164 107.825)"/>
        <path style="fill:#000;fill-opacity:1;fill-rule:nonzero;stroke:none" d="m0 0-.018.006L0 0Z" transform="translate(115.354 107.818)"/>
        <path style="fill:#000;fill-opacity:1;fill-rule:nonzero;stroke:none" d="m0 0 .018.006L0 0Z" transform="translate(74.646 107.818)"/>
        <path style="fill:#000;fill-opacity:1;fill-rule:nonzero;stroke:none" d="M0 0a.163.163 0 0 1 .015.006L0 0Z" transform="translate(113.391 107.677)"/>
        <path style="fill:#000;fill-opacity:1;fill-rule:nonzero;stroke:none" d="m0 0-.015.006A.163.163 0 0 1 0 0Z" transform="translate(76.609 107.677)"/>
        <path style="fill:#000;fill-opacity:1;fill-rule:nonzero;stroke:none" d="M0 0c.006.002.01.005.015.008L0 0Z" transform="translate(112.887 107.442)"/>
        <path style="fill:#000;fill-opacity:1;fill-rule:nonzero;stroke:none" d="m0 0-.015.008A.067.067 0 0 1 0 0Z" transform="translate(77.113 107.441)"/>
        <path style="fill:#000;fill-opacity:1;fill-rule:nonzero;stroke:none" d="m0 0-.012-.009a.13.13 0 0 1 .02.014L0 0Z" transform="translate(112.259 107.039)"/>
        <path style="fill:#000;fill-opacity:1;fill-rule:nonzero;stroke:none" d="m0 0-.012.009-.008.005A.126.126 0 0 1 0 0Z" transform="translate(77.753 107.03)"/>
        <path style="fill:#000;fill-opacity:1;fill-rule:nonzero;stroke:none" d="m0 0-.007.01-.004.006A.116.116 0 0 1 0 0Z" transform="translate(117.205 106.311)"/>
        <path style="fill:#000;fill-opacity:1;fill-rule:nonzero;stroke:none" d="m0 0-.007-.01a.126.126 0 0 1 .011.016L0 0Z" transform="translate(72.802 106.322)"/>
        <path style="fill:#000;fill-opacity:1;fill-rule:nonzero;stroke:none" d="m0 0-.004.015A.453.453 0 0 1 0 0Z" transform="translate(118.257 103.92)"/>
        <path style="fill:#000;fill-opacity:1;fill-rule:nonzero;stroke:none" d="m0 0-.004-.015A.074.074 0 0 1 .003.01L0 0Z" transform="translate(71.747 103.936)"/>
        <path style="fill:#000;fill-opacity:1;fill-rule:nonzero;stroke:none" d="m0 0-.002.027c0-.01 0-.02.002-.027Z" transform="translate(118.444 102.797)"/>
        <path style="fill:#000;fill-opacity:1;fill-rule:nonzero;stroke:none" d="M0 0a.101.101 0 0 1 .002.027L0 0Z" transform="translate(71.556 102.797)"/>
        <path style="fill:#000;fill-opacity:1;fill-rule:nonzero;stroke:none" d="m0 0 .001.002L0 0Z" transform="translate(117.838 100.063)"/>
        <path style="fill:#000;fill-opacity:1;fill-rule:nonzero;stroke:none" d="m0 0-.001.002L0 0Z" transform="translate(72.162 100.063)"/>
        <path style="fill:#000;fill-opacity:1;fill-rule:nonzero;stroke:none" d="m0 0-.001.002L0 0Z" transform="translate(117.84 89.935)"/>
        <path style="fill:#000;fill-opacity:1;fill-rule:nonzero;stroke:none" d="m0 0 .001.002L0 0Z" transform="translate(72.16 89.935)"/>
        <path style="fill:#000;fill-opacity:1;fill-rule:nonzero;stroke:none" d="M0 0Z" transform="translate(118.441 87.176)"/>
        <path style="fill:#000;fill-opacity:1;fill-rule:nonzero;stroke:none" d="M0 0c0 .01 0 .02-.002.027L0 0Z" transform="translate(71.559 87.176)"/>
        <path style="fill:#000;fill-opacity:1;fill-rule:nonzero;stroke:none" d="m0 0 .003.011.003.015A.075.075 0 0 1 0 0Z" transform="translate(118.25 86.053)"/>
        <path style="fill:#000;fill-opacity:1;fill-rule:nonzero;stroke:none" d="m0 0 .004.006.007.01A.126.126 0 0 1 0 0Z" transform="translate(117.194 83.673)"/>
        <path style="fill:#000;fill-opacity:1;fill-rule:nonzero;stroke:none" d="m0 0 .004-.006a.126.126 0 0 1-.01.017C-.006.006-.003.003 0 0Z" transform="translate(72.802 83.678)"/>
        <path style="fill:#000;fill-opacity:1;fill-rule:nonzero;stroke:none" d="m0 0 .008-.005a.13.13 0 0 1-.02.014L0 0Z" transform="translate(112.259 82.961)"/>
        <path style="fill:#000;fill-opacity:1;fill-rule:nonzero;stroke:none" d="m0 0 .008.005.012.01A.12.12 0 0 1 0 0Z" transform="translate(77.733 82.956)"/>
        <path style="fill:#000;fill-opacity:1;fill-rule:nonzero;stroke:none" d="m0 0 .015-.008A.067.067 0 0 1 0 0Z" transform="translate(112.887 82.558)"/>
        <path style="fill:#000;fill-opacity:1;fill-rule:nonzero;stroke:none" d="m0 0 .015.008A.063.063 0 0 1 0 0Z" transform="translate(77.098 82.55)"/>
        <path style="fill:#000;fill-opacity:1;fill-rule:nonzero;stroke:none" d="M0 0a.128.128 0 0 1-.015.006L0 0Z" transform="translate(113.406 82.316)"/>
        <path style="fill:#000;fill-opacity:1;fill-rule:nonzero;stroke:none" d="m0 0 .015.006A.128.128 0 0 1 0 0Z" transform="translate(76.594 82.316)"/>
        <path style="fill:#000;fill-opacity:1;fill-rule:nonzero;stroke:none" d="m0 0 .018.006L0 0Z" transform="translate(115.336 82.176)"/>
        <path style="fill:#000;fill-opacity:1;fill-rule:nonzero;stroke:none" d="m0 0-.018.006L0 0Z" transform="translate(74.664 82.176)"/>
        <path style="fill:#000;fill-opacity:1;fill-rule:nonzero;stroke:none" d="m0 0 .005-.001A1.006 1.006 0 0 1 0 0Z" transform="translate(113.853 82.17)"/>
        <path style="fill:#000;fill-opacity:1;fill-rule:nonzero;stroke:none" d="m0 0 .005.001.017.004A.12.12 0 0 1 0 0Z" transform="translate(76.142 82.17)"/>
        <path style="fill:#000;fill-opacity:1;fill-rule:nonzero;stroke:none" d="M0 0c-.008.002-.014.002-.023.002L0 0Z" transform="translate(114.379 82.088)"/>
        <path style="fill:#000;fill-opacity:1;fill-rule:nonzero;stroke:none" d="m0 0 .023.002C.014.002.008.002 0 0Z" transform="translate(75.621 82.088)"/>
        <path style="fill:#000;fill-opacity:1;fill-rule:nonzero;stroke:none" d="m0 0-.005.008-.01.012A.12.12 0 0 1 0 0Z" transform="translate(107.044 77.733)"/>
        <path style="fill:#000;fill-opacity:1;fill-rule:nonzero;stroke:none" d="m0 0-.005-.008a.13.13 0 0 1 .014.02L0 0Z" transform="translate(82.961 77.741)"/>
        <path style="fill:#000;fill-opacity:1;fill-rule:nonzero;stroke:none" d="m0 0-.008.015A.063.063 0 0 1 0 0Z" transform="translate(107.45 77.098)"/>
        <path style="fill:#000;fill-opacity:1;fill-rule:nonzero;stroke:none" d="m0 0-.008-.015L0 0Z" transform="translate(82.558 77.113)"/>
        <path style="fill:#000;fill-opacity:1;fill-rule:nonzero;stroke:none" d="m0 0-.006.015A.128.128 0 0 1 0 0Z" transform="translate(107.684 76.594)"/>
        <path style="fill:#000;fill-opacity:1;fill-rule:nonzero;stroke:none" d="m0 0 .006.015L0 0Z" transform="translate(82.316 76.594)"/>
        <path style="fill:#000;fill-opacity:1;fill-rule:nonzero;stroke:none" d="m0 0-.001.005-.004.017A.12.12 0 0 1 0 0Z" transform="translate(107.83 76.142)"/>
        <path style="fill:#000;fill-opacity:1;fill-rule:nonzero;stroke:none" d="m0 0-.001-.005A1.006 1.006 0 0 1 0 0Z" transform="translate(82.17 76.147)"/>
        <path style="fill:#000;fill-opacity:1;fill-rule:nonzero;stroke:none" d="M0 0c0 .007 0 .015-.002.022 0-.008 0-.014.002-.022Z" transform="translate(107.912 75.622)"/>
        <path style="fill:#000;fill-opacity:1;fill-rule:nonzero;stroke:none" d="M0 0a.108.108 0 0 1 .002.022L0 0Z" transform="translate(82.088 75.622)"/>
        <path style="fill:#000;fill-opacity:1;fill-rule:nonzero;stroke:none" d="m0 0 .006.018L0 0Z" transform="translate(107.818 74.646)"/>
        <path style="fill:#000;fill-opacity:1;fill-rule:nonzero;stroke:none" d="m0 0-.006.018L0 0Z" transform="translate(82.182 74.646)"/>
        <path style="fill:#000;fill-opacity:1;fill-rule:nonzero;stroke:none" d="m0 0 .01.007.006.004A.116.116 0 0 1 0 0Z" transform="translate(106.311 72.795)"/>
        <path style="fill:#000;fill-opacity:1;fill-rule:nonzero;stroke:none" d="m0 0 .01-.007a.126.126 0 0 1-.016.011L0 0Z" transform="translate(83.678 72.802)"/>
        <path style="fill:#000;fill-opacity:1;fill-rule:nonzero;stroke:none" d="m0 0-.002.001L0 0Z" transform="translate(100.065 72.16)"/>
        <path style="fill:#000;fill-opacity:1;fill-rule:nonzero;stroke:none" d="m0 0 .002.001L0 0Z" transform="translate(89.935 72.16)"/>
        <path style="fill:#000;fill-opacity:1;fill-rule:nonzero;stroke:none" d="m0 0 .015.004A.453.453 0 0 1 0 0Z" transform="translate(103.92 71.743)"/>
        <path style="fill:#000;fill-opacity:1;fill-rule:nonzero;stroke:none" d="m0 0 .027.002C.017.002.007.002 0 0Z" transform="translate(102.797 71.556)"/>
        <path style="fill:#000;fill-opacity:1;fill-rule:nonzero;stroke:none" d="M0 0a.101.101 0 0 1-.027.002L0 0Z" transform="translate(87.203 71.556)"/>
        <path style="fill:#000;fill-opacity:1;fill-rule:nonzero;stroke:none" d="M0 0a92.346 92.346 0 0 0-1.82 1.707l-.278.266c-.332.347-.66.695-.988 1.039-.234.246-.473.492-.715.73-.09.09-.191.207-.332.207a.233.233 0 0 1-.18-.09c-.007-.003-.011-.011-.015-.015a.252.252 0 0 1-.094-.133c-.004-.02-.008-.04-.008-.059 0-.14.117-.242.207-.332.239-.242.485-.48.73-.714l1.04-.989.265-.277c.122-.125.243-.25.364-.38C-1.367.485-.922 0-.477-.483-1.199-.125-1.91.262-2.609.672A94.595 94.595 0 0 0-5.555 2.5c-1.156.746-2.273 1.535-3.324 2.418 0 0-.004 0-.004.004l-.023.02a23.146 23.146 0 0 0-1.918 1.882 22.475 22.475 0 0 0-1.496 1.903c-.48.707-.91 1.437-1.254 2.113-.48.969-.903 1.969-1.254 2.953l-.012.035c-.008.02-.012.04-.02.059a11.49 11.49 0 0 0-.218.71 11.126 11.126 0 0 0 .77-.238 28.07 28.07 0 0 0 2.902-1.218 20.88 20.88 0 0 0 2.117-1.243c.691-.484 1.352-1 1.906-1.488a23.414 23.414 0 0 0 1.938-1.953.094.094 0 0 0 .023-.031c.008-.004.012-.012.02-.02v-.004a31.78 31.78 0 0 0 2.367-3.246c.64-1 1.281-2.004 1.883-3.027A33.67 33.67 0 0 0 0 0Zm-1.441-8.094c.476.457.96.903 1.445 1.348A35.218 35.218 0 0 0-1.152-8.88a94.592 94.592 0 0 0-1.829-2.945c-.746-1.156-1.535-2.274-2.417-3.324 0 0 0-.004-.004-.004v-.004l-.02-.02a23.161 23.161 0 0 0-1.883-1.918 22.488 22.488 0 0 0-1.902-1.496c-.707-.48-1.438-.91-2.113-1.254a27.555 27.555 0 0 0-2.953-1.254l-.036-.011a11.488 11.488 0 0 0-.77-.238c.067.245.145.495.22.71.007.02.015.04.02.059.362 1.02.784 2.02 1.218 2.902.39.762.82 1.492 1.242 2.117.484.692 1 1.352 1.488 1.907a23.413 23.413 0 0 0 1.953 1.937c.008.008.02.02.032.024l.02.02h.003a31.803 31.803 0 0 0 3.246 2.366c1 .64 2.004 1.282 3.028 1.883.707.418 1.43.805 2.129 1.152-.442-.48-.891-.968-1.344-1.44-.211-.22-.418-.438-.63-.657-.1-.098-.202-.192-.3-.285a.346.346 0 0 0-.043-.04c-.504-.437-1.086-.949-1.387-1.34a7.207 7.207 0 0 0-.039-.038c-.09-.09-.207-.192-.207-.332 0-.079.043-.149.102-.192a.248.248 0 0 1 .195-.105c.14 0 .242.117.332.207.242.238.48.484.715.73.328.344.656.692.988 1.04.22.21.438.417.657.628zM.504-2.832c-.23.004-.461.004-.688.004a93.498 93.498 0 0 1-1.488-.024c-.059-.004-.113-.004-.172-.004-.187-.003-.375-.011-.562-.015a57.416 57.416 0 0 1-2.016-.066c-.05 0-.101-.004-.152-.004-.352-.012-.707-.02-1.059-.051a3.942 3.942 0 0 1-.293-.031h-.004a.376.376 0 0 1-.11-.028.154.154 0 0 1-.077-.058.066.066 0 0 1-.028-.04c-.003 0-.003 0-.003-.003a.261.261 0 0 1-.016-.223.255.255 0 0 1 .047-.266.298.298 0 0 1 .187-.086c.102-.015.2-.023.297-.03.352-.032.707-.04 1.059-.052.722-.023 1.445-.05 2.168-.07.738-.02 1.48-.039 2.222-.043.227-.004.453 0 .68.004-.71-.27-1.426-.48-2.082-.652-1.66-.438-3.332-.88-5.035-1.106-1.613-.191-3.242-.23-4.762-.222-1.984.02-3.98.144-5.898.402-.016.004-.032.004-.047.008-.02.004-.035.004-.055.007a28.971 28.971 0 0 0-3.543.739c-.59.172-1.176.363-1.742.601-.293.133-.574.274-.855.434-.133.09-.266.184-.395.277v.004c0 .02-.008.035-.012.051.004.016.012.031.012.05v.005c.129.093.262.187.395.277.28.16.562.3.855.434.566.238 1.152.43 1.742.601a29.03 29.03 0 0 0 3.543.738c.02.004.035.004.055.008 1.965.266 3.96.39 5.844.41 1.62.008 3.25-.03 4.863-.222 1.703-.227 3.375-.668 4.941-1.078.746-.2 1.489-.418 2.184-.68zM1.64-3.34l.066-.035-.066-.035c-.535 0-1.067-.012-1.602-.012-.672.004-1.348.016-2.023.035l-.477.012.477.012a98.107 98.107 0 0 0 2.508.031h.09c.343 0 .683-.004 1.023-.008h.004zm1.3 2.82c0-.535-.011-1.066-.011-1.601l-.036-.066c-.011.023-.023.043-.035.066 0 .535-.011 1.066-.011 1.602a87.915 87.915 0 0 0 .046 2.472l.012-.45c.02-.675.031-1.35.035-2.022ZM2.93-4.628c0-.535.011-1.066.011-1.602a87.354 87.354 0 0 0-.035-2.023l-.012-.508-.011.508c-.02.676-.031 1.352-.035 2.023 0 .536.011 1.067.011 1.602.012.023.024.043.035.066l.036-.066zm2.265-8.262c.192-1.609.23-3.242.223-4.761a48.157 48.157 0 0 0-.402-5.899c-.004-.015-.004-.031-.008-.047-.004-.02-.004-.035-.008-.054a28.967 28.967 0 0 0-.738-3.543 16.112 16.112 0 0 0-.602-1.742 10.382 10.382 0 0 0-.433-.856 14.27 14.27 0 0 0-.278-.395.125.125 0 0 1-.054-.011.125.125 0 0 1-.055.012c-.094.128-.188.261-.277.394-.16.281-.301.563-.434.856a16.09 16.09 0 0 0-.602 1.742 29.01 29.01 0 0 0-.738 3.543c-.004.02-.004.035-.008.054a47.751 47.751 0 0 0-.41 5.844C.363-16.133.402-14.5.594-12.89c.226 1.703.668 3.375 1.078 4.942.2.746.418 1.488.68 2.183-.004-.23-.004-.457-.004-.687.004-.742.023-1.485.043-2.223.02-.722.047-1.445.07-2.168.012-.351.02-.707.05-1.058.009-.098.016-.196.032-.297a.298.298 0 0 1 .086-.188.255.255 0 0 1 .266-.047.256.256 0 0 1 .265.047c.055.051.078.121.086.188.016.101.024.199.031.297.032.351.04.707.051 1.058.024.723.05 1.446.07 2.168.02.738.04 1.48.043 2.223 0 .23 0 .457-.003.687.269-.715.48-1.43.652-2.09.437-1.66.879-3.332 1.105-5.035zm.223 23.895c.008-1.621-.031-3.254-.223-4.863-.226-1.704-.668-3.375-1.078-4.942C3.918.453 3.7-.289 3.437-.984c.004.23.004.457.004.687-.003.742-.023 1.484-.043 2.223-.02.722-.046 1.445-.07 2.168-.012.351-.02.707-.05 1.058-.009.098-.016.196-.032.297a.298.298 0 0 1-.086.188.271.271 0 0 1-.172.066.27.27 0 0 1-.094-.02.255.255 0 0 1-.265-.046.298.298 0 0 1-.086-.188c-.016-.101-.024-.199-.031-.297-.031-.351-.04-.707-.051-1.058-.023-.723-.05-1.446-.07-2.168-.02-.738-.04-1.48-.043-2.223 0-.23 0-.457.004-.687-.27.714-.48 1.43-.653 2.09C1.262 2.766.82 4.438.594 6.14.402 7.75.364 9.383.37 10.902c.02 1.985.145 3.98.402 5.899.004.015.004.031.008.047.004.02.004.039.008.054.176 1.196.414 2.375.738 3.543.172.59.364 1.176.602 1.743.133.293.273.574.433.855.09.133.184.266.278.395h.004c.02 0 .035.007.05.011.016-.004.032-.011.051-.011h.004c.094-.13.188-.262.278-.395.16-.281.3-.563.433-.855.238-.567.43-1.153.602-1.743A29.03 29.03 0 0 0 5 16.902c.004-.015.004-.035.008-.054.265-1.965.39-3.961.41-5.844ZM7.773-3.363l.508-.012-.508-.012a87.897 87.897 0 0 0-2.023-.035c-.535 0-1.066.012-1.602.012l-.066.035.066.035c.536 0 1.067.012 1.602.012a87.334 87.334 0 0 0 2.023-.035zm13.094 17.96a11.022 11.022 0 0 0-.219-.71c-.007-.02-.011-.04-.02-.059a28.058 28.058 0 0 0-1.218-2.902 20.92 20.92 0 0 0-1.242-2.117c-.484-.692-1-1.352-1.488-1.907a23.429 23.429 0 0 0-1.953-1.937c-.008-.008-.02-.02-.032-.024-.008-.007-.015-.011-.023-.02a31.803 31.803 0 0 0-3.246-2.366c-1-.64-2.004-1.282-3.028-1.883A33.621 33.621 0 0 0 6.27-.48c.44.48.89.968 1.343 1.44.211.22.418.438.63.657.347.332.695.66 1.038.988.246.235.492.473.73.715.09.09.208.192.208.332a.242.242 0 0 1-.102.192.263.263 0 0 1-.137.097c-.02.004-.039.008-.058.008-.14 0-.242-.117-.332-.207-.242-.238-.48-.484-.715-.73-.328-.344-.656-.692-.988-1.04-.219-.21-.438-.417-.656-.628C6.753.887 6.269.44 5.785-.004c.36.723.746 1.434 1.156 2.133A94.785 94.785 0 0 0 8.77 5.074c.746 1.156 1.535 2.274 2.418 3.324 0 0 0 .004.003.004.008.008.012.016.02.024a23.16 23.16 0 0 0 1.883 1.918 22.47 22.47 0 0 0 1.902 1.496c.707.48 1.438.91 2.113 1.254a27.518 27.518 0 0 0 2.989 1.265c.02.008.039.012.058.02.235.078.473.156.711.219zm-.219-35.234c.079-.234.157-.472.22-.71-.247.066-.497.144-.712.218-.02.008-.039.012-.058.02a28.05 28.05 0 0 0-2.903 1.218c-.761.391-1.492.82-2.117 1.243-.691.484-1.351 1-1.906 1.488a23.399 23.399 0 0 0-1.938 1.953c-.007.008-.02.02-.023.031-.008.008-.012.016-.02.024a31.78 31.78 0 0 0-2.367 3.246c-.64 1-1.281 2.004-1.883 3.027-.418.707-.804 1.43-1.152 2.129.48-.441.969-.89 1.442-1.344l.656-.629c.332-.347.66-.695.988-1.039.234-.246.473-.492.715-.73.09-.09.191-.207.332-.207.078 0 .148.043.195.105a.242.242 0 0 1 .102.192c0 .14-.117.242-.207.332-.239.242-.485.48-.73.715-.344.328-.692.656-1.04.988l-.629.656c-.457.477-.902.961-1.347 1.445.722-.359 1.433-.746 2.132-1.156a94.36 94.36 0 0 0 2.946-1.828c1.156-.746 2.273-1.535 3.324-2.418 0 0 .004 0 .004-.004h.004c.008-.008.015-.012.02-.02a23.161 23.161 0 0 0 1.917-1.882 22.475 22.475 0 0 0 1.496-1.903c.48-.707.91-1.437 1.254-2.113.48-.969.903-1.969 1.254-2.953l.012-.035c.004-.02.012-.04.02-.059zm9.07 17.262a.124.124 0 0 1-.011-.055 14.266 14.266 0 0 0-.395-.277c-.28-.16-.562-.3-.855-.434a16.09 16.09 0 0 0-1.742-.601 29.322 29.322 0 0 0-3.598-.746 47.75 47.75 0 0 0-5.844-.41c-1.62-.008-3.25.03-4.863.222-1.703.227-3.375.668-4.941 1.078-.746.2-1.48.414-2.176.68.227-.004.453-.008.68-.004.742.004 1.484.024 2.222.043.723.02 1.446.047 2.168.07.352.012.707.02 1.059.051.098.008.195.016.297.031a.298.298 0 0 1 .187.086.255.255 0 0 1 .047.266c.035.09.02.191-.047.266a.297.297 0 0 1-.187.086c-.102.015-.2.023-.297.03-.352.032-.707.04-1.059.052-.722.023-1.445.05-2.168.07-.738.02-1.48.039-2.222.043-.23 0-.457 0-.688-.004.715.27 1.43.48 2.09.652 1.66.438 3.332.88 5.035 1.106 1.613.191 3.242.23 4.863.222 1.95-.023 3.91-.148 5.797-.402.016-.004.032-.004.047-.008.02-.004.04-.004.055-.007a28.966 28.966 0 0 0 3.543-.739 16.09 16.09 0 0 0 1.742-.601c.293-.133.574-.274.856-.434.132-.09.265-.184.394-.277 0-.02.004-.04.012-.055zm1.204-.996c.258.238.512.539.484.918-.004.027-.004.05-.011.078.007.027.007.05.011.078.028.379-.226.68-.484.918-.52.477-1.149.828-1.79 1.11-.71.316-1.456.55-2.21.757a25.587 25.587 0 0 1-2.73.594c.085.043.167.082.253.121.332.16.66.332.965.535.324.211.598.485.832.79.219.28.39.605.489.949.113.394.16.796.156 1.207-.008.406-.047.812-.102 1.21a8.482 8.482 0 0 1-.254 1.165c-.11.379-.234.754-.406 1.109-.16.324-.34.637-.54.938-.237.359-.519.695-.827.996-.274.273-.606.5-.953.66a2.915 2.915 0 0 1-1.254.285 4.58 4.58 0 0 1-.762-.074 3.829 3.829 0 0 1-.969-.329 4.887 4.887 0 0 1-.562-.308c.465.809.855 1.664 1.215 2.523.285.676.547 1.364.761 2.063.11.351.196.703.258 1.062.02.118.031.23.047.344a.758.758 0 0 1-.215.727.76.76 0 0 1-.547.238.677.677 0 0 1-.175-.024c-.114-.015-.23-.027-.348-.046a8.413 8.413 0 0 1-1.063-.258c-.699-.215-1.386-.477-2.062-.762-.86-.36-1.715-.75-2.523-1.215.113.18.218.368.308.563.145.305.27.633.328.969.059.34.094.683.063 1.027a2.915 2.915 0 0 1-.274.988c-.16.348-.386.68-.66.953-.3.309-.637.59-.996.828-.3.2-.613.38-.937.54-.356.171-.731.296-1.11.406-.383.11-.77.199-1.164.254-.398.054-.805.093-1.21.101h-.048c-.394 0-.781-.047-1.16-.156a2.811 2.811 0 0 1-.95-.488 3.4 3.4 0 0 1-.788-.832 7.99 7.99 0 0 1-.535-.965 7.596 7.596 0 0 0-.121-.254c-.028.168-.055.332-.086.5-.137.75-.305 1.496-.508 2.23-.207.754-.442 1.5-.758 2.211-.281.64-.633 1.27-1.11 1.79-.226.245-.507.488-.863.488-.015 0-.035-.004-.054-.004-.028-.004-.051-.004-.079-.012-.027.008-.05.008-.078.012-.378.027-.68-.227-.918-.485-.476-.52-.828-1.148-1.109-1.789-.316-.71-.55-1.457-.758-2.21a25.613 25.613 0 0 1-.594-2.731 7.403 7.403 0 0 0-.12.254 7.99 7.99 0 0 1-.536.965 3.4 3.4 0 0 1-.789.832c-.281.218-.605.39-.949.488-.379.11-.766.156-1.16.156h-.047a10.395 10.395 0 0 1-1.211-.101 8.473 8.473 0 0 1-1.164-.254 6.99 6.99 0 0 1-1.11-.406 8.563 8.563 0 0 1-.937-.54 6.129 6.129 0 0 1-.996-.828 3.336 3.336 0 0 1-.66-.953 2.913 2.913 0 0 1-.274-.988 3.942 3.942 0 0 1 .063-1.027c.059-.336.184-.664.328-.97.09-.194.195-.382.309-.562-.809.465-1.664.856-2.524 1.215-.676.285-1.363.547-2.062.762-.352.11-.704.195-1.063.258-.117.02-.234.03-.348.047a.677.677 0 0 1-.175.023.76.76 0 0 1-.547-.238.758.758 0 0 1-.215-.727c.016-.113.027-.226.047-.344.062-.359.148-.71.258-1.062.215-.7.476-1.387.761-2.063.36-.859.75-1.714 1.215-2.523-.18.113-.367.219-.562.309a3.83 3.83 0 0 1-.969.328 4.58 4.58 0 0 1-.762.074 2.915 2.915 0 0 1-1.254-.285 3.335 3.335 0 0 1-.953-.66c-.308-.301-.59-.637-.828-.996-.2-.301-.379-.614-.539-.938a6.985 6.985 0 0 1-.406-1.11c-.11-.382-.2-.769-.254-1.163a10.417 10.417 0 0 1-.102-1.211c-.004-.41.043-.813.157-1.207.097-.344.27-.668.488-.95a3.4 3.4 0 0 1 .832-.789c.305-.203.633-.375.965-.535a7.31 7.31 0 0 0 .254-.121 25.587 25.587 0 0 1-2.73-.594c-.755-.207-1.5-.441-2.212-.757-.64-.282-1.27-.633-1.789-1.11-.258-.238-.512-.539-.484-.918.004-.027.004-.05.012-.078-.008-.027-.008-.05-.012-.078-.027-.379.226-.68.484-.918.52-.477 1.149-.828 1.79-1.11.71-.316 1.456-.55 2.21-.757a25.587 25.587 0 0 1 2.73-.594 7.31 7.31 0 0 0-.253-.121 8.004 8.004 0 0 1-.965-.535 3.4 3.4 0 0 1-.832-.79 2.811 2.811 0 0 1-.488-.949 4.198 4.198 0 0 1-.157-1.207c.008-.406.047-.812.102-1.21.055-.395.144-.782.254-1.165.11-.378.234-.753.406-1.109.16-.324.34-.637.54-.938.237-.359.519-.695.827-.996.274-.273.606-.5.953-.66.313-.144.645-.246.989-.273.343-.031.687.004 1.027.062.336.059.664.184.969.328.195.09.383.196.562.31-.465-.81-.855-1.665-1.215-2.524a21.773 21.773 0 0 1-.761-2.063 8.408 8.408 0 0 1-.258-1.062c-.02-.118-.031-.23-.047-.344a.758.758 0 0 1 .215-.727.749.749 0 0 1 .723-.215c.113.016.23.028.347.047.36.063.711.149 1.063.258.699.215 1.386.477 2.062.762.86.36 1.715.75 2.524 1.215a4.887 4.887 0 0 1-.309-.563 3.833 3.833 0 0 1-.328-.969 3.942 3.942 0 0 1-.063-1.027c.028-.344.13-.676.274-.988.16-.348.387-.68.66-.953.3-.309.637-.59.996-.828.3-.2.613-.38.938-.54a6.99 6.99 0 0 1 1.109-.406c.383-.11.77-.199 1.164-.254.398-.054.805-.093 1.21-.101.411-.004.813.043 1.208.156.344.098.668.27.95.488a3.4 3.4 0 0 1 .788.832c.203.305.375.633.535.965.04.086.079.168.122.254a25.613 25.613 0 0 1 .594-2.73c.206-.754.44-1.5.757-2.211.281-.64.633-1.27 1.11-1.79.238-.257.539-.511.917-.484.028.004.051.004.079.012.027-.008.05-.008.078-.012.379-.027.68.227.918.485.476.52.828 1.148 1.109 1.789.316.71.55 1.457.758 2.21a25.577 25.577 0 0 1 .594 2.731c.043-.086.082-.168.12-.254.16-.332.333-.66.536-.965a3.4 3.4 0 0 1 .789-.832c.281-.218.605-.39.95-.488.394-.113.796-.16 1.206-.156.406.008.813.047 1.211.101.395.055.781.145 1.164.254.379.11.754.235 1.11.407.324.16.636.34.937.539.36.238.695.52.996.828.274.273.5.605.66.953.145.312.246.644.274.988.03.344-.004.688-.063 1.028a3.833 3.833 0 0 1-.328.968c-.09.195-.195.383-.308.563.808-.465 1.664-.856 2.523-1.215a21.746 21.746 0 0 1 2.062-.762c.352-.11.704-.195 1.063-.258.117-.02.234-.03.348-.047a.748.748 0 0 1 .722.215c.192.184.282.461.215.727-.016.113-.027.226-.047.344-.062.359-.148.71-.258 1.062-.214.7-.476 1.387-.761 2.063-.36.859-.75 1.715-1.215 2.523.18-.113.367-.219.562-.309.305-.144.633-.27.97-.328.339-.058.683-.093 1.026-.062.344.027.676.129.989.273.347.16.68.387.953.66.308.301.59.637.828.996.2.301.379.614.539.938.172.355.297.73.406 1.11.11.382.2.769.254 1.163.055.399.094.805.102 1.211.004.41-.043.813-.156 1.207-.098.344-.27.668-.489.95a3.401 3.401 0 0 1-.832.789 8.005 8.005 0 0 1-.965.535 7.306 7.306 0 0 0-.254.121 25.587 25.587 0 0 1 2.73.594c.755.207 1.5.441 2.212.757.64.282 1.27.633 1.789 1.11z" transform="translate(92.106 98.375)"/>
        <path style="fill:#000;fill-opacity:1;fill-rule:nonzero;stroke:none" d="M0 0a1.184 1.184 0 0 0-.1-.088c-.318-.355-.655-.69-.978-1.014a13.557 13.557 0 0 0-1.113-.968C-4.105-3.508-6.22-4.754-7.785-6.598c-1.547-1.824-2.543-4.152-2.711-6.546-.074-1.07-.047-2.188.219-3.231.277-1.09.785-2.125 1.402-3.063v.004c.457-.695.93-1.386 1.395-2.074.003-.012.023-.004.02.008-.282 1.09-.567 2.18-.763 3.207-.015.098-.035.191-.043.242-.07.457-.128.91-.152 1.375-.008.43.008.856.04 1.188l.023.176c.086.664.199 1.32.351 1.945.004.008.004.02.008.027l.004.016c.16.566.351 1.12.57 1.664.266.617.563 1.215.895 1.8.562.934 1.18 1.825 1.843 2.692 1.121 1.395 2.368 2.684 3.489 4.082.601.75 1.035 1.598 1.382 2.492l.07.184C.282-.47.306-.531.329-.594c.348-.894.781-1.742 1.383-2.492 1.121-1.398 2.367-2.687 3.488-4.082a29.26 29.26 0 0 0 1.844-2.691c.332-.586.629-1.184.894-1.801.22-.543.41-1.098.543-1.555l.032-.125c.16-.652.273-1.308.347-1.836.012-.105.024-.207.024-.219.043-.425.058-.851.05-1.28a13.28 13.28 0 0 0-.144-1.329c-.016-.098-.035-.191-.039-.215-.207-1.101-.492-2.191-.773-3.281-.004-.012.015-.02.02-.008.464.688.937 1.38 1.394 2.074v-.003c.617.937 1.125 1.972 1.402 3.062.266 1.043.293 2.16.219 3.23-.168 2.395-1.164 4.723-2.711 6.547-1.567 1.844-3.68 3.09-5.52 4.47-.414.32-.812.663-1.172 1.01-.336.337-.675.674-.994 1.03a2.095 2.095 0 0 0-.357.39A2.089 2.089 0 0 0 0-.001Z" transform="translate(94.742 135)"/>
        <path style="fill:#000;fill-opacity:1;fill-rule:nonzero;stroke:none" d="M0 0c-.009.01-.017.019-.027.026L0 0Z" transform="translate(96.336 133.9)"/>
        <path style="fill:#000;fill-opacity:1;fill-rule:nonzero;stroke:none" d="m0 0 .027.026C.017.02.01.01 0 0Z" transform="translate(93.664 133.9)"/>
        <path style="fill:#000;fill-opacity:1;fill-rule:nonzero;stroke:none" d="M0 0v.002l-.005.015L0 0Z" transform="translate(103.254 121.659)"/>
        <path style="fill:#000;fill-opacity:1;fill-rule:nonzero;stroke:none" d="M0 0v-.002l.004.017L0 0Z" transform="translate(86.746 121.661)"/>
        <path style="fill:#000;fill-opacity:1;fill-rule:nonzero;stroke:none" d="m0 0-.004.038L0 0Z" transform="translate(103.625 119.606)"/>
        <path style="fill:#000;fill-opacity:1;fill-rule:nonzero;stroke:none" d="m0 0 .004.038L0 0Z" transform="translate(86.375 119.606)"/>
        <path style="fill:#000;fill-opacity:1;fill-rule:nonzero;stroke:none" d="m0 0 .005.033A1.955 1.955 0 0 1 0 0Z" transform="translate(103.53 116.995)"/>
        <path style="fill:#000;fill-opacity:1;fill-rule:nonzero;stroke:none" d="M0 0a1.955 1.955 0 0 1-.005.033L0 0Z" transform="translate(86.47 116.995)"/>
        <path style="fill:#000;fill-opacity:1;fill-rule:nonzero;stroke:none" d="M0 0c.011.015.022.03.03.044L0 0Z" transform="translate(104.135 115.565)"/>
        <path style="fill:#000;fill-opacity:1;fill-rule:nonzero;stroke:none" d="m0 0-.03.044A.297.297 0 0 1 0 0Z" transform="translate(85.865 115.565)"/>
        <path style="fill:#000;fill-opacity:1;fill-rule:nonzero;stroke:none" d="M0 0c-1.09-.277-2.125-.785-3.063-1.402h.004c-.695-.457-1.386-.93-2.074-1.395-.011-.004-.004-.023.008-.02 1.09.282 2.18.567 3.207.762.098.016.191.036.242.043.457.07.91.13 1.375.153.43.007.852-.008 1.188-.04l.175-.023c.665-.086 1.32-.2 1.946-.351.008-.004.02-.004.027-.008l.016-.004c.566-.16 1.12-.352 1.664-.57a18.376 18.376 0 0 0 1.8-.895 29.278 29.278 0 0 0 2.692-1.844c1.395-1.12 2.684-2.367 4.082-3.488.75-.602 1.598-1.035 2.492-1.383l.184-.07c-.059-.024-.121-.047-.184-.07-.894-.348-1.742-.782-2.492-1.383-1.398-1.121-2.687-2.367-4.082-3.489a29.278 29.278 0 0 0-2.691-1.843 18.376 18.376 0 0 0-1.801-.895 17.066 17.066 0 0 0-1.555-.543c-.043-.012-.082-.02-.125-.031a18.987 18.987 0 0 0-1.836-.348c-.105-.011-.207-.023-.226-.023a10.612 10.612 0 0 0-1.274-.05 13.28 13.28 0 0 0-1.328.144c-.098.015-.191.035-.215.039-1.101.207-2.191.492-3.281.773-.012.004-.02-.015-.008-.02.688-.464 1.38-.937 2.074-1.394h-.003c.937-.617 1.972-1.125 3.062-1.402 1.043-.266 2.16-.293 3.23-.22 2.395.169 4.723 1.165 6.547 2.712 1.844 1.566 3.09 3.68 4.47 5.52.32.413.663.812 1.01 1.171.337.337.674.676 1.03.995a2.094 2.094 0 0 0 .39.357 2.101 2.101 0 0 0-.39.357c-.355.318-.69.655-1.014.979a13.54 13.54 0 0 0-.968 1.113c-1.438 1.914-2.684 4.027-4.528 5.594C7.953-.945 5.625.05 3.231.218c-.325.024-.653.036-.985.036C1.488.254.726.184 0 0Z" transform="translate(118.625 105.535)"/>
        <path style="fill:#000;fill-opacity:1;fill-rule:nonzero;stroke:none" d="M0 0c-2.394-.168-4.723-1.164-6.547-2.71-1.844-1.567-3.09-3.68-4.469-5.52a14.17 14.17 0 0 0-1.011-1.172c-.337-.337-.674-.676-1.03-.995a2.1 2.1 0 0 0-.389-.357 2.1 2.1 0 0 0 .39-.357c.355-.318.69-.655 1.013-.979.363-.375.707-.773.969-1.113 1.437-1.914 2.683-4.027 4.527-5.594 1.824-1.547 4.153-2.543 6.547-2.71 1.07-.075 2.188-.048 3.23.218 1.09.277 2.126.785 3.063 1.402h-.004c.695.457 1.387.93 2.074 1.395.012.004.004.023-.007.02-1.09-.282-2.18-.567-3.208-.762-.097-.016-.191-.035-.242-.043-.457-.07-.91-.13-1.375-.153-.43-.007-.851.008-1.187.04l-.176.023c-.664.086-1.32.199-1.945.351-.008.004-.02.004-.028.008l-.015.004a16.38 16.38 0 0 0-1.664.57c-.618.266-1.215.563-1.801.895a29.273 29.273 0 0 0-2.692 1.844c-1.394 1.12-2.683 2.367-4.082 3.488-.75.602-1.597 1.035-2.492 1.383a9.237 9.237 0 0 0-.183.07c.058.024.12.047.183.07.895.348 1.742.782 2.492 1.383C-8.66-8.18-7.37-6.934-5.977-5.812A29.273 29.273 0 0 0-3.285-3.97c.586.332 1.183.63 1.8.895.544.219 1.098.41 1.555.543.043.012.082.02.125.031.653.16 1.309.273 1.836.348.106.011.207.023.227.023.422.043.844.059 1.273.05.465-.023.918-.081 1.328-.144.098-.015.192-.035.215-.039 1.102-.207 2.192-.492 3.282-.773.011-.004.019.016.007.02-.687.464-1.379.937-2.074 1.394h.004C5.356-1.004 4.32-.496 3.231-.22A9.2 9.2 0 0 1 .984.035C.652.035.324.023 0 0Z" transform="translate(68.144 105.754)"/>
        <path style="fill:#000;fill-opacity:1;fill-rule:nonzero;stroke:none" d="m0 0 .044.03A.297.297 0 0 1 0 0Z" transform="translate(115.565 104.135)"/>
        <path style="fill:#000;fill-opacity:1;fill-rule:nonzero;stroke:none" d="M0 0a.297.297 0 0 1-.044.03L0 0Z" transform="translate(74.435 104.135)"/>
        <path style="fill:#000;fill-opacity:1;fill-rule:nonzero;stroke:none" d="m0 0-.045.004L0 0Z" transform="translate(119.644 103.621)"/>
        <path style="fill:#000;fill-opacity:1;fill-rule:nonzero;stroke:none" d="m0 0 .045.004L0 0Z" transform="translate(70.356 103.621)"/>
        <path style="fill:#000;fill-opacity:1;fill-rule:nonzero;stroke:none" d="m0 0 .033.005L0 0Z" transform="translate(116.995 103.53)"/>
        <path style="fill:#000;fill-opacity:1;fill-rule:nonzero;stroke:none" d="m0 0-.033.005L0 0Z" transform="translate(73.005 103.53)"/>
        <path style="fill:#000;fill-opacity:1;fill-rule:nonzero;stroke:none" d="m0 0-.015.004h-.002C-.011.005-.006.002 0 0Z" transform="translate(121.676 103.25)"/>
        <path style="fill:#000;fill-opacity:1;fill-rule:nonzero;stroke:none" d="m0 0-.015-.004L.002 0 0 0Z" transform="translate(68.339 103.254)"/>
        <path style="fill:#000;fill-opacity:1;fill-rule:nonzero;stroke:none" d="M0 0a.203.203 0 0 1-.026.027L0 0Z" transform="translate(133.926 96.309)"/>
        <path style="fill:#000;fill-opacity:1;fill-rule:nonzero;stroke:none" d="m0 0 .026.027A.203.203 0 0 1 0 0Z" transform="translate(56.074 96.309)"/>
        <path style="fill:#000;fill-opacity:1;fill-rule:nonzero;stroke:none" d="M0 0c.01.009.019.017.026.027L0 0Z" transform="translate(133.9 93.664)"/>
        <path style="fill:#000;fill-opacity:1;fill-rule:nonzero;stroke:none" d="m0 0-.026.027C-.02.017-.01.01 0 0Z" transform="translate(56.1 93.664)"/>
        <path style="fill:#000;fill-opacity:1;fill-rule:nonzero;stroke:none" d="M0 0h.002l.015.005L0 0Z" transform="translate(121.659 86.746)"/>
        <path style="fill:#000;fill-opacity:1;fill-rule:nonzero;stroke:none" d="M0 0h.002l-.017.004L0 0Z" transform="translate(68.339 86.746)"/>
        <path style="fill:#000;fill-opacity:1;fill-rule:nonzero;stroke:none" d="m0 0-.033.005L0 0Z" transform="translate(117.027 86.465)"/>
        <path style="fill:#000;fill-opacity:1;fill-rule:nonzero;stroke:none" d="m0 0 .033.005A2.133 2.133 0 0 1 0 0Z" transform="translate(72.973 86.465)"/>
        <path style="fill:#000;fill-opacity:1;fill-rule:nonzero;stroke:none" d="m0 0 .045.004L0 0Z" transform="translate(119.6 86.375)"/>
        <path style="fill:#000;fill-opacity:1;fill-rule:nonzero;stroke:none" d="m0 0-.045.004L0 0Z" transform="translate(70.4 86.375)"/>
        <path style="fill:#000;fill-opacity:1;fill-rule:nonzero;stroke:none" d="m0 0-.044.03A.313.313 0 0 1 0 0Z" transform="translate(115.61 85.836)"/>
        <path style="fill:#000;fill-opacity:1;fill-rule:nonzero;stroke:none" d="M0 0c.015.007.03.018.044.03L0 0Z" transform="translate(74.39 85.836)"/>
        <path style="fill:#000;fill-opacity:1;fill-rule:nonzero;stroke:none" d="M0 0c-.465-.688-.938-1.379-1.395-2.074v.004c-.617-.938-1.125-1.973-1.402-3.063-.265-1.043-.293-2.16-.219-3.23.168-2.395 1.164-4.723 2.711-6.547 1.567-1.844 3.68-3.09 5.52-4.469.414-.32.812-.664 1.172-1.012.336-.336.676-.673.994-1.029a2.1 2.1 0 0 0 .357-.39 2.094 2.094 0 0 0 .357.39c.319.356.656.69.98 1.014.374.363.773.707 1.113.968 1.914 1.438 4.027 2.684 5.593 4.528 1.547 1.824 2.543 4.152 2.711 6.547.074 1.07.047 2.187-.219 3.23-.277 1.09-.785 2.125-1.402 3.063v-.004c-.457.695-.93 1.387-1.394 2.074 0 .004-.004.004-.008.004-.008 0-.016-.004-.012-.012.281-1.09.566-2.18.762-3.207.015-.097.035-.191.043-.242.07-.457.129-.91.152-1.375.008-.43-.008-.855-.039-1.187l-.023-.176c-.086-.664-.2-1.32-.352-1.946-.004-.007-.004-.02-.008-.027l-.004-.016a16.404 16.404 0 0 0-.57-1.664 18.387 18.387 0 0 0-.895-1.8 29.265 29.265 0 0 0-1.843-2.692c-1.121-1.394-2.367-2.683-3.489-4.082-.601-.75-1.035-1.597-1.382-2.492a9.237 9.237 0 0 0-.07-.184c-.024.059-.048.121-.071.184-.348.895-.781 1.742-1.383 2.492-1.12 1.399-2.367 2.688-3.488 4.082a29.246 29.246 0 0 0-1.844 2.692 18.386 18.386 0 0 0-.894 1.8c-.22.543-.41 1.098-.543 1.555l-.032.125c-.16.652-.273 1.309-.347 1.836-.012.105-.024.207-.024.219-.043.426-.058.851-.05 1.281.023.465.082.918.144 1.328.016.098.035.192.04.215.206 1.102.491 2.191.773 3.281C.022 0 .015.006.008.006A.008.008 0 0 1 0 0Z" transform="translate(87.262 76.508)"/>
        <path style="fill:#000;fill-opacity:1;fill-rule:nonzero;stroke:none" d="M0 0a.313.313 0 0 1-.03.044L0 0Z" transform="translate(104.164 74.39)"/>
        <path style="fill:#000;fill-opacity:1;fill-rule:nonzero;stroke:none" d="m0 0 .03.044A.313.313 0 0 1 0 0Z" transform="translate(85.836 74.39)"/>
        <path style="fill:#000;fill-opacity:1;fill-rule:nonzero;stroke:none" d="m0 0-.005.033L0 0Z" transform="translate(103.535 72.973)"/>
        <path style="fill:#000;fill-opacity:1;fill-rule:nonzero;stroke:none" d="m0 0 .005.033L0 0Z" transform="translate(86.465 72.973)"/>
        <path style="fill:#000;fill-opacity:1;fill-rule:nonzero;stroke:none" d="m0 0 .004.038L0 0Z" transform="translate(103.621 70.356)"/>
        <path style="fill:#000;fill-opacity:1;fill-rule:nonzero;stroke:none" d="m0 0-.004.038L0 0Z" transform="translate(86.379 70.356)"/>
        <path style="fill:#000;fill-opacity:1;fill-rule:nonzero;stroke:none" d="m0 0 .004.015v.002C.005.011.002.006 0 0Z" transform="translate(103.25 68.324)"/>
        <path style="fill:#000;fill-opacity:1;fill-rule:nonzero;stroke:none" d="m0 0 .004-.015L0 .002 0 0Z" transform="translate(86.746 68.339)"/>
        <path style="fill:#000;fill-opacity:1;fill-rule:nonzero;stroke:none" d="M0 0c.01.007.018.017.027.026L0 0Z" transform="translate(96.309 56.074)"/>
        <path style="fill:#000;fill-opacity:1;fill-rule:nonzero;stroke:none" d="m0 0-.027.026A.203.203 0 0 1 0 0Z" transform="translate(93.691 56.074)"/>
        <path style="fill:#000;fill-opacity:1;fill-rule:nonzero;stroke:none" d="M0 0c-2.313-.398-4.52-1.402-6.281-2.96-.95-.84-1.848-1.79-2.485-2.9a5.094 5.094 0 0 1-.515-1.199c-.078-.293-.156-.582-.23-.879-.165-.66-.329-1.324-.485-1.988-.004-.015.016-.023.02-.012.523.805 1.054 1.606 1.628 2.36.008.008.012.016.02.023l.004.004c.133.164.265.32.344.41.507.477 1.046.91 1.609 1.317.82.57 1.68 1.082 2.57 1.535l.082.039c.653.309 1.313.578 1.996.812.637.204 1.29.375 1.938.54.738.183 1.465.367 2.215.496 1.683.254 3.39.37 5.09.496.511.039 1.015.093 1.515.164-.07-.5-.125-1.004-.164-1.516-.125-1.699-.242-3.406-.496-5.09-.129-.75-.313-1.476-.496-2.214-.164-.649-.336-1.301-.54-1.938a19.243 19.243 0 0 0-.734-1.836l-.117-.242c-.453-.89-.965-1.75-1.535-2.57a15.439 15.439 0 0 0-1.254-1.54 7.36 7.36 0 0 0-.476-.418c-.008-.007-.016-.011-.016-.011C2.445-19.7 1.644-20.23.84-20.754c-.012-.004-.004-.023.012-.02.664.157 1.328.32 1.988.485.297.074.586.152.879.23.433.118.812.297 1.199.516 1.11.637 2.059 1.535 2.898 2.484 1.559 1.762 2.563 3.97 2.961 6.282.243 1.398.239 2.812.09 4.222-.07.672-.172 1.34-.308 2.004-.118.551-.266 1.098-.399 1.621-.11.442-.215.883-.3 1.332a.54.54 0 0 0 .012.003l-.009.02c-.02.06-.035.114-.05.173-.024.093-.04.187-.047.28l-.012.099-.098.011a1.752 1.752 0 0 0-.453.098l-.021.009-.002-.013c-.45.086-.89.191-1.309.293-.547.14-1.094.29-1.644.406-.665.137-1.333.238-2.004.309-.627.066-1.254.103-1.88.103C1.559.193.777.135 0 0Z" transform="translate(113.082 123.86)"/>
        <path style="fill:#000;fill-opacity:1;fill-rule:nonzero;stroke:none" d="M0 0c-.672-.07-1.34-.172-2.004-.309-.55-.117-1.098-.265-1.621-.398a25.23 25.23 0 0 0-1.332-.3l-.002.012-.022-.009a1.765 1.765 0 0 0-.453-.098l-.097-.011-.012-.098a1.764 1.764 0 0 0-.098-.453l-.008-.021.012-.002c-.086-.45-.191-.891-.293-1.31-.14-.546-.289-1.093-.406-1.644a20.496 20.496 0 0 1-.309-2.003c-.148-1.41-.152-2.825.09-4.223.399-2.313 1.403-4.52 2.961-6.281.84-.95 1.79-1.848 2.899-2.485a5.094 5.094 0 0 1 1.199-.515c.293-.079.582-.157.879-.23.66-.165 1.324-.329 1.988-.485.016-.004.023.015.012.02-.805.523-1.606 1.054-2.36 1.628-.007.008-.015.012-.023.02l-.004.004c-.164.132-.32.265-.41.343-.477.508-.91 1.047-1.317 1.61-.57.82-1.082 1.68-1.535 2.57l-.039.082a19.241 19.241 0 0 0-.812 1.996 33.024 33.024 0 0 0-.54 1.938c-.183.738-.366 1.465-.495 2.215-.254 1.683-.371 3.39-.496 5.09a24 24 0 0 1-.165 1.515c.5-.07 1.004-.125 1.516-.164 1.7-.125 3.406-.242 5.09-.496.75-.13 1.476-.313 2.215-.496.648-.164 1.3-.336 1.937-.54a19.23 19.23 0 0 0 1.836-.734l.242-.117c.891-.453 1.75-.965 2.57-1.535.563-.406 1.102-.84 1.54-1.254a7.36 7.36 0 0 0 .394-.445c.008-.012.016-.024.024-.031.008-.008.011-.016.011-.016.582-.762 1.114-1.563 1.637-2.367.004-.012.024-.004.02.011-.157.664-.32 1.329-.485 1.989-.074.297-.152.586-.23.879a5.103 5.103 0 0 1-.516 1.199c-.636 1.11-1.535 2.058-2.484 2.898C8.742-1.492 6.535-.488 4.223-.09c-.778.135-1.56.193-2.343.193C1.254.103.626.066 0 0Z" transform="translate(72.695 123.95)"/>
        <path style="fill:#000;fill-opacity:1;fill-rule:nonzero;stroke:none" d="m0 0-.01-.012.015.018L0 0Z" transform="translate(104.752 116.303)"/>
        <path style="fill:#000;fill-opacity:1;fill-rule:nonzero;stroke:none" d="m0 0-.01.012-.005.007A.31.31 0 0 1 0 0Z" transform="translate(85.257 116.29)"/>
        <path style="fill:#000;fill-opacity:1;fill-rule:nonzero;stroke:none" d="m0 0 .012.01.007.005A.31.31 0 0 1 0 0Z" transform="translate(116.29 104.743)"/>
        <path style="fill:#000;fill-opacity:1;fill-rule:nonzero;stroke:none" d="m0 0 .012-.01a.311.311 0 0 1-.018.015L0 0Z" transform="translate(73.697 104.752)"/>
        <path style="fill:#000;fill-opacity:1;fill-rule:nonzero;stroke:none" d="M0 0c-.012 0-.02-.016-.008-.02.805-.523 1.606-1.054 2.36-1.628.007-.008.015-.012.023-.02l.004-.004c.164-.133.32-.266.41-.344.477-.507.91-1.046 1.316-1.609.57-.82 1.082-1.68 1.536-2.57l.039-.082a19.25 19.25 0 0 0 .812-1.996c.203-.637.375-1.29.54-1.938.183-.738.366-1.465.495-2.215.254-1.683.371-3.39.496-5.09.04-.511.094-1.015.165-1.515-.5.07-1.004.125-1.516.164-1.7.125-3.406.242-5.09.496-.75.129-1.477.312-2.215.496-.648.164-1.3.336-1.937.54-.684.233-1.344.503-1.836.733l-.242.118c-.891.453-1.75.965-2.57 1.535-.563.406-1.102.84-1.54 1.254a7.36 7.36 0 0 0-.394.445c-.008.012-.016.023-.024.031a.067.067 0 0 0-.012.016c-.581.762-1.113 1.562-1.636 2.367-.004.012-.024.004-.02-.012.156-.664.32-1.328.485-1.988.074-.297.152-.586.23-.879.117-.433.297-.812.516-1.2.636-1.108 1.535-2.058 2.484-2.897 1.762-1.56 3.969-2.563 6.281-2.961 1.399-.243 2.813-.239 4.223-.09.672.07 1.34.172 2.004.308.55.118 1.098.266 1.621.399.441.11.883.215 1.332.3l.002-.012.021.009a1.765 1.765 0 0 0 .453.098l.098.011.012.098a1.763 1.763 0 0 0 .098.453l.008.02-.012.003c.086.45.191.89.293 1.309.14.547.289 1.094.406 1.644.137.664.238 1.332.308 2.004.149 1.41.153 2.825-.09 4.223-.398 2.312-1.402 4.52-2.96 6.281-.84.95-1.79 1.848-2.899 2.485a5.099 5.099 0 0 1-1.199.515c-.293.078-.582.156-.879.23C1.332-.32.668-.155.004 0H0Z" transform="translate(113.93 86.914)"/>
        <path style="fill:#000;fill-opacity:1;fill-rule:nonzero;stroke:none" d="M0 0c-.664-.156-1.328-.32-1.988-.484-.297-.075-.586-.153-.88-.23a5.099 5.099 0 0 1-1.198-.517c-1.11-.636-2.059-1.535-2.899-2.484-1.558-1.762-2.562-3.969-2.96-6.281-.243-1.398-.24-2.813-.09-4.223.07-.672.171-1.34.308-2.004.117-.55.266-1.097.398-1.62.11-.442.215-.884.301-1.333l-.012-.002.008-.021a1.763 1.763 0 0 0 .098-.453l.012-.098.097-.012a1.765 1.765 0 0 0 .453-.097l.022-.009.002.012c.45-.085.89-.19 1.308-.292.547-.141 1.094-.29 1.645-.407a20.522 20.522 0 0 1 2.004-.308c1.41-.149 2.824-.153 4.223.09 2.312.398 4.52 1.402 6.28 2.96.95.84 1.848 1.79 2.485 2.899.219.387.399.766.516 1.2.078.292.156.581.23.878.164.66.328 1.324.485 1.988.004.016-.016.024-.02.012-.523-.805-1.055-1.605-1.629-2.36-.008-.007-.012-.015-.02-.023l-.003-.004a16.11 16.11 0 0 0-.344-.41 16.184 16.184 0 0 0-1.61-1.316c-.82-.57-1.679-1.082-2.57-1.535l-.082-.04a19.22 19.22 0 0 0-1.996-.812 33.025 33.025 0 0 0-1.937-.539c-.739-.184-1.465-.367-2.215-.496-1.684-.254-3.39-.371-5.09-.496a23.931 23.931 0 0 1-1.516-.164c.07.5.125 1.004.164 1.515.125 1.7.243 3.407.497 5.09.128.75.312 1.477.496 2.215.164.648.336 1.3.539 1.938.234.683.504 1.343.734 1.835l.117.243c.453.89.965 1.75 1.535 2.57.407.562.84 1.102 1.254 1.54.153.147.309.28.446.394.011.007.023.015.03.023a.067.067 0 0 0 .016.012C-1.594-1.074-.793-.543.012-.02.023-.016.016 0 .004 0H0Z" transform="translate(76.066 86.914)"/>
        <path style="fill:#000;fill-opacity:1;fill-rule:nonzero;stroke:none" d="m0 0-.006.005-.013.01A.356.356 0 0 1 0 0Z" transform="translate(116.31 85.242)"/>
        <path style="fill:#000;fill-opacity:1;fill-rule:nonzero;stroke:none" d="m0 0-.006-.005.018.014L0 0Z" transform="translate(73.697 85.248)"/>
        <path style="fill:#000;fill-opacity:1;fill-rule:nonzero;stroke:none" d="m0 0 .005-.006a.311.311 0 0 1-.014.018L0 0Z" transform="translate(104.752 73.697)"/>
        <path style="fill:#000;fill-opacity:1;fill-rule:nonzero;stroke:none" d="m0 0 .005.006.01.013A.356.356 0 0 1 0 0Z" transform="translate(85.242 73.69)"/>
        <path style="fill:#000;fill-opacity:1;fill-rule:nonzero;stroke:none" d="M0 0a84.322 84.322 0 0 1-1.41-.023.254.254 0 0 1-.25-.25c0-.133.113-.254.25-.25.383.007.762.015 1.144.02.207.003.418.007.625.003.165-.004.334-.011.489-.02.363-.027.726-.058 1.09-.093.343-.031.683-.067 1.023-.118C3.48-.804 3.996-.91 4.51-1c.239-.043.473-.082.712-.121.037-.006.075-.012.113-.02l.02-.113c.038-.238.078-.473.12-.71.09-.516.196-1.032.27-1.552.05-.34.086-.68.117-1.023.035-.363.067-.727.091-1.08a11.564 11.564 0 0 0 .019-1.123c-.004-.383-.012-.762-.02-1.145a.252.252 0 0 1 .25-.25c.137 0 .246.114.25.25.012.469.02.938.024 1.41.007.438-.02.875-.055 1.313-.066.797-.145 1.594-.29 2.383a94.316 94.316 0 0 0-.308 1.762c-.017.095-.04.188-.114.252-.064.074-.157.098-.253.115a94.749 94.749 0 0 0-1.762.309c-.789.144-1.586.222-2.382.288A14.474 14.474 0 0 1 0 0Z" transform="translate(117.246 123.723)"/>
        <path style="fill:#000;fill-opacity:1;fill-rule:nonzero;stroke:none" d="M0 0c-.797-.066-1.594-.144-2.383-.29a95.979 95.979 0 0 0-1.761-.308c-.097-.017-.19-.04-.253-.114-.074-.064-.098-.157-.115-.253a94.542 94.542 0 0 0-.309-1.762c-.144-.789-.222-1.586-.288-2.382a13.428 13.428 0 0 1-.055-1.313c.004-.473.012-.941.023-1.41a.254.254 0 0 1 .25-.25c.133 0 .254.113.25.25-.007.383-.015.762-.02 1.144-.003.207-.007.418-.003.625.004.165.011.334.02.489.027.363.058.726.093 1.09.032.343.067.683.117 1.023.075.52.18 1.035.27 1.55.043.24.082.473.121.712l.02.113.113.02c.238.039.473.078.71.12.516.09 1.032.196 1.552.27.34.051.68.086 1.023.117.363.036.727.067 1.08.091a11.578 11.578 0 0 0 1.123.019c.383-.004.762-.012 1.145-.02a.252.252 0 0 1 .25.25.254.254 0 0 1-.25.25A83.261 83.261 0 0 1 1.16.056C.773.056.387.031 0 0Z" transform="translate(71.441 123.668)"/>
        <path style="fill:#000;fill-opacity:1;fill-rule:nonzero;stroke:none" d="m0 0-.02.001A.114.114 0 0 1 0 0Z" transform="translate(118.125 123.2)"/>
        <path style="fill:#000;fill-opacity:1;fill-rule:nonzero;stroke:none" d="m0 0 .02.001L0 0Z" transform="translate(71.875 123.2)"/>
        <path style="fill:#000;fill-opacity:1;fill-rule:nonzero;stroke:none" d="m0 0-.001.02L0 0Z" transform="translate(123.2 118.104)"/>
        <path style="fill:#000;fill-opacity:1;fill-rule:nonzero;stroke:none" d="M0 0a.114.114 0 0 1 .001.02L0 0Z" transform="translate(66.8 118.104)"/>
        <path style="fill:#000;fill-opacity:1;fill-rule:nonzero;stroke:none" d="M0 0c.008-.383.016-.762.02-1.145.003-.207.007-.417.003-.625a15.908 15.908 0 0 0-.02-.488 51.33 51.33 0 0 0-.093-1.09A17.862 17.862 0 0 0-.207-4.37c-.074-.52-.18-1.035-.27-1.55a46.276 46.276 0 0 1-.12-.712l-.02-.113-.114-.02a45.09 45.09 0 0 1-.71-.12c-.516-.09-1.032-.196-1.551-.27-.34-.051-.68-.086-1.024-.117a41.263 41.263 0 0 0-1.079-.092 11.578 11.578 0 0 0-1.124-.018c-.383.004-.761.012-1.144.02a.252.252 0 0 1-.25-.25c0-.137.113-.246.25-.25.468-.012.937-.02 1.41-.024.437-.008.875.02 1.312.055.797.066 1.594.144 2.383.289a93.334 93.334 0 0 0 1.762.309c.096.017.189.04.252.114.075.064.098.157.115.253.016.105.031.207.05.308.083.485.169.97.259 1.454.144.789.222 1.586.289 2.382.035.438.062.875.054 1.313C.52-.938.512-.47.5 0a.254.254 0 0 1-.25.25A.252.252 0 0 1 0 0Z" transform="translate(123.2 74.164)"/>
        <path style="fill:#000;fill-opacity:1;fill-rule:nonzero;stroke:none" d="M0 0c-.012-.469-.02-.938-.023-1.41-.008-.438.02-.875.054-1.313.067-.796.145-1.593.29-2.382a93.124 93.124 0 0 0 .308-1.762c.017-.096.04-.19.115-.253.063-.074.156-.097.252-.114a93.334 93.334 0 0 0 1.762-.309c.789-.144 1.586-.223 2.383-.289.437-.035.875-.062 1.312-.055.473.004.941.012 1.41.024.137.004.25.113.25.25a.252.252 0 0 1-.25.25c-.383-.008-.761-.016-1.144-.02-.207-.004-.418-.008-.625-.004-.165.004-.334.011-.489.02a51.33 51.33 0 0 0-1.09.094c-.343.03-.683.066-1.023.117-.52.074-1.035.18-1.55.27a45.09 45.09 0 0 1-.712.12l-.113.02-.02.113c-.038.239-.077.473-.12.711-.09.516-.196 1.031-.27 1.55-.05.34-.086.68-.117 1.024-.035.364-.067.727-.091 1.08A11.575 11.575 0 0 0 .48-1.145C.484-.762.492-.383.5 0a.252.252 0 0 1-.25.25A.254.254 0 0 1 0 0Z" transform="translate(66.3 74.164)"/>
        <path style="fill:#000;fill-opacity:1;fill-rule:nonzero;stroke:none" d="m0 0 .001.02A.114.114 0 0 1 0 0Z" transform="translate(123.2 71.875)"/>
        <path style="fill:#000;fill-opacity:1;fill-rule:nonzero;stroke:none" d="m0 0-.001.02L0 0Z" transform="translate(66.8 71.875)"/>
        <path style="fill:#000;fill-opacity:1;fill-rule:nonzero;stroke:none" d="m0 0 .02.001L0 0Z" transform="translate(118.104 66.8)"/>
        <path style="fill:#000;fill-opacity:1;fill-rule:nonzero;stroke:none" d="M0 0a.114.114 0 0 1-.02.001L0 0Z" transform="translate(71.896 66.8)"/>
        <path style="fill:#000;fill-opacity:1;fill-rule:nonzero;stroke:none" d="M0 0a.286.286 0 0 1-.098 0 .248.248 0 0 1-.144-.097 4.495 4.495 0 0 0-.2-.223c-.445-.465-.917-.906-1.34-1.399-.253-.293-.488-.605-.738-.906-.244-.301-.495-.599-.753-.883-.414-.441-.844-.863-1.27-1.293a.26.26 0 0 1-.012-.355.253.253 0 0 1 .356-.012l.855.867c.266.274.528.543.774.832.25.293.496.594.734.899.23.289.465.57.695.816.344.364.7.707 1.04 1.067.034.035.068.072.101.11.034-.038.068-.075.102-.11.34-.36.695-.703 1.015-1.043.254-.27.489-.551.719-.84A17.324 17.324 0 0 1 3.344-4.3l.855-.868a.253.253 0 0 1 .356.012.26.26 0 0 1-.012.355c-.426.43-.855.852-1.265 1.287-.262.29-.514.588-.758.89-.25.3-.485.612-.739.905C1.36-1.226.887-.785.465-.344a4.406 4.406 0 0 0-.223.246A.248.248 0 0 1 .098 0 .293.293 0 0 1 0 0Z" transform="translate(95 135.43)"/>
        <path style="fill:#000;fill-opacity:1;fill-rule:nonzero;stroke:none" d="M0 0a.252.252 0 0 1-.012-.355l.867-.856c.274-.266.543-.527.832-.773.293-.25.594-.496.899-.735.289-.23.57-.465.816-.695.364-.344.707-.7 1.067-1.04a6.26 6.26 0 0 1 .11-.1 5.892 5.892 0 0 1-.11-.102c-.36-.34-.703-.696-1.043-1.016-.27-.254-.551-.488-.84-.719a27.265 27.265 0 0 1-.898-.734 17.23 17.23 0 0 1-.832-.773l-.868-.856A.252.252 0 0 1 0-9.109a.26.26 0 0 1 .355.011c.43.426.852.856 1.287 1.265.29.263.588.515.89.759.3.25.613.484.906.738.492.422.933.895 1.374 1.316.079.079.165.153.247.223a.248.248 0 0 1 .097.145.283.283 0 0 1 0 .097.283.283 0 0 1 0 .098.248.248 0 0 1-.097.144c-.082.07-.168.145-.223.2-.465.445-.906.918-1.398 1.34-.293.253-.606.488-.907.738-.301.244-.599.496-.883.754-.441.414-.863.843-1.292 1.27a.273.273 0 0 1-.189.076C.107.065.047.044 0 0Z" transform="translate(130.273 99.555)"/>
        <path style="fill:#000;fill-opacity:1;fill-rule:nonzero;stroke:none" d="M0 0c-.43-.426-.852-.856-1.286-1.265-.29-.263-.588-.514-.89-.758-.3-.25-.613-.485-.906-.739-.492-.422-.934-.894-1.375-1.316a4.408 4.408 0 0 0-.246-.223.248.248 0 0 1-.098-.144.286.286 0 0 1 0-.098.285.285 0 0 1 0-.098.248.248 0 0 1 .098-.144c.082-.07.168-.145.223-.2.464-.445.906-.917 1.398-1.34.293-.253.605-.487.906-.737.302-.245.6-.496.883-.754C-.852-8.23-.43-8.66 0-9.086a.26.26 0 0 1 .356-.012c.097.09.109.258.011.356l-.867.855c-.273.266-.543.528-.832.774-.293.25-.594.496-.898.734-.29.23-.57.465-.817.695-.363.344-.707.7-1.066 1.04a5.585 5.585 0 0 1-.11.101l.11.102c.36.34.703.695 1.043 1.015.27.254.55.489.84.719.304.238.605.484.898.734.289.246.559.508.832.774l.867.855a.252.252 0 0 1-.011.356.244.244 0 0 1-.168.064A.273.273 0 0 1 0 0Z" transform="translate(59.371 99.543)"/>
        <path style="fill:#000;fill-opacity:1;fill-rule:nonzero;stroke:none" d="m0 0-.856-.867a17.276 17.276 0 0 1-.773-.832c-.25-.293-.496-.594-.734-.899-.23-.289-.465-.57-.696-.816-.343-.363-.699-.707-1.039-1.066a5.585 5.585 0 0 1-.101-.11 5.915 5.915 0 0 1-.102.11c-.34.359-.695.703-1.015 1.043-.254.269-.489.55-.72.84-.237.304-.484.605-.734.898-.246.289-.507.558-.773.832L-8.398 0a.252.252 0 0 1-.356-.012.26.26 0 0 1 .012-.355c.426-.43.855-.852 1.265-1.286.262-.29.514-.588.758-.89.25-.3.485-.613.739-.906.421-.492.894-.934 1.316-1.375.078-.078.152-.164.223-.246a.248.248 0 0 1 .144-.098.286.286 0 0 1 .098 0 .285.285 0 0 1 .097 0c.059.012.11.05.145.098.07.082.144.168.2.222.444.465.917.907 1.339 1.399.254.293.488.605.738.906.244.302.496.6.754.883.414.441.844.863 1.27 1.293a.26.26 0 0 1 .011.355.255.255 0 0 1-.186.08A.237.237 0 0 1 0 0Z" transform="translate(99.2 59.738)"/>
        <path style="fill:#000;fill-opacity:1;fill-rule:nonzero;stroke:none" d="m0 0 .308-.248.06.022H.366l.027.017.025.02-.003-.003.022.024-.023-.028A4.908 4.908 0 0 0 .188-.45c-.343-.358-.698-.704-1.04-1.065l.023.024c-.252-.27-.488-.553-.718-.843a33.32 33.32 0 0 0-.737-.897c-.246-.288-.507-.56-.772-.83l-.856-.87c-.096-.096-.264-.083-.354.013a.254.254 0 0 0 .013.354c.424.429.853.853 1.267 1.292l-.022-.024c.27.294.526.601.779.91.246.3.482.61.736.906.42.49.895.93 1.34 1.396l-.022-.023c.076.08.15.163.22.249a.257.257 0 0 0 .147.096C.352.266.5.158.5-.011a.252.252 0 0 0-.255-.244A.253.253 0 0 0 0 0Z" transform="translate(94.712 135.192)"/>
        <path style="fill:#000;fill-opacity:1;fill-rule:nonzero;stroke:none" d="m0 0-.308-.248-.06.022h.001l-.027.017-.025.02.003-.003-.022.024.023-.028c.073-.087.148-.172.227-.254.343-.358.698-.704 1.04-1.065l-.023.024c.252-.27.488-.553.718-.843.24-.303.486-.602.737-.897.246-.288.507-.56.772-.83l.856-.87c.096-.096.264-.083.354.013a.254.254 0 0 1-.013.354c-.424.429-.853.853-1.267 1.292l.022-.024c-.27.294-.526.601-.779.91-.246.3-.482.61-.736.906-.42.49-.895.93-1.34 1.397l.022-.024c-.076.08-.15.163-.22.249a.257.257 0 0 1-.147.096C-.352.266-.5.158-.5-.011c0-.136.121-.247.255-.244C-.106-.252 0-.136 0 0Z" transform="translate(95.288 135.192)"/>
        <path style="fill:#000;fill-opacity:1;fill-rule:nonzero;stroke:none" d="m0 0 .248.308-.022.06V.366L.21.394.19.419.192.416.168.438.196.415C.283.342.368.267.45.188c.358-.343.704-.698 1.065-1.04l-.024.023c.27-.252.553-.488.843-.718.303-.24.602-.486.897-.737.288-.246.56-.507.83-.772l.87-.856c.096-.096.083-.264-.013-.354a.254.254 0 0 0-.354.013c-.429.424-.853.853-1.292 1.267l.024-.022c-.294.27-.601.526-.91.779-.3.246-.61.482-.906.736-.49.42-.93.895-1.397 1.34l.024-.022c-.08.076-.163.15-.249.22a.258.258 0 0 0-.096.147C-.266.352-.158.5.011.5A.252.252 0 0 0 .255.245.253.253 0 0 0 0 0Z" transform="translate(54.808 94.712)"/>
        <path style="fill:#000;fill-opacity:1;fill-rule:nonzero;stroke:none" d="m0 0 .248-.308a.264.264 0 0 0-.08-.13c.473.403.892.866 1.347 1.29L1.49.828c1.173 1 2.38 1.957 3.44 3.083.096.096.083.264-.013.354a.254.254 0 0 1-.354-.013c-.429-.424-.853-.853-1.292-1.267l.024.022C2.216 2.065 1.066 1.205.084.154l.023.022C-.146.002-.483-.4.011-.5.335-.496.324.009 0 0Z" transform="translate(54.808 95.288)"/>
        <path style="fill:#000;fill-opacity:1;fill-rule:nonzero;stroke:none" d="M0 0a.245.245 0 0 1-.09-.004C-.21-.035-.3-.152-.379-.238c-.133-.149-.266-.293-.379-.418-.312-.328-.644-.637-.969-.953a29.793 29.793 0 0 0-.507-.485c-.18-.172-.356-.347-.535-.52-.34-.331-.688-.652-1.028-.984-.168-.16-.336-.32-.496-.488-.078-.082-.156-.16-.23-.242-.021-.023-.044-.044-.064-.067-.043-.038-.08-.085-.116-.124-.32-.329-.649-.645-.965-.977-.277-.29-.543-.586-.813-.879-.09-.102-.066-.27.036-.352.11-.09.257-.066.351.032.214.237.428.47.637.695.395.42.808.82 1.208 1.236a4.215 4.215 0 0 1 .128.136c.375.394.766.765 1.16 1.14.402.379.797.773 1.2 1.152.195.184.386.371.577.559.18.175.36.343.536.52.222.225.434.46.648.691.214-.23.426-.466.648-.692.176-.176.356-.344.536-.52.191-.187.382-.374.578-.558.402-.379.797-.773 1.199-1.152.394-.375.785-.746 1.137-1.117a19.832 19.832 0 0 1 .151-.16c.4-.415.813-.816 1.203-1.227.214-.233.428-.466.642-.703.093-.098.242-.121.351-.032.102.083.125.25.035.352-.27.293-.535.59-.812.879-.316.332-.645.648-.965.977-.036.039-.073.086-.116.124l-.064.067c-.074.082-.152.16-.23.242-.16.168-.328.328-.496.488-.34.333-.688.653-1.028.985-.18.172-.355.348-.535.52-.171.16-.34.32-.507.484-.325.316-.657.625-.946.93-.137.148-.27.292-.402.44C.3-.151.21-.034.089-.003A.244.244 0 0 1 0 0Z" transform="translate(95 135.555)"/>
        <path style="fill:#000;fill-opacity:1;fill-rule:nonzero;stroke:none" d="M0 0c-.09-.11-.066-.258.031-.352.237-.214.47-.427.696-.636.42-.396.821-.81 1.237-1.21a3.99 3.99 0 0 1 .134-.126c.394-.375.765-.766 1.14-1.16.38-.403.774-.797 1.153-1.2.183-.195.37-.386.558-.578.176-.18.344-.36.52-.535.225-.222.461-.434.692-.648-.23-.215-.466-.427-.692-.649-.176-.175-.344-.355-.52-.535-.187-.191-.375-.383-.558-.578-.38-.402-.774-.797-1.153-1.2-.375-.394-.746-.784-1.117-1.136l-.124-.119a.258.258 0 0 1-.033-.03c-.416-.4-.817-.815-1.23-1.205-.233-.214-.466-.428-.703-.642-.097-.094-.12-.242-.031-.352.082-.101.25-.125.352-.035.293.27.59.535.879.813.332.316.648.644.976.965.04.036.086.072.124.116.023.02.045.042.067.063.082.074.16.153.243.23.168.16.328.329.488.497.332.34.652.687.984 1.027.172.18.348.356.52.535.16.172.32.34.484.508.317.324.625.656.93.945.148.137.293.27.441.403.086.078.203.168.235.289.007.03.008.06.003.09.005.03.004.06-.003.09-.032.12-.149.21-.235.289-.148.132-.293.265-.418.378-.328.313-.636.645-.953.97-.164.167-.324.335-.484.507-.172.18-.348.356-.52.535-.332.34-.652.688-.984 1.028-.16.167-.32.336-.488.496-.082.078-.16.156-.243.23-.022.021-.044.043-.067.063-.038.044-.085.08-.124.117-.328.32-.644.648-.976.965C.94-.5.643-.234.35.035a.23.23 0 0 1-.153.056A.257.257 0 0 1 0 0Z" transform="translate(128.828 101.445)"/>
        <path style="fill:#000;fill-opacity:1;fill-rule:nonzero;stroke:none" d="M0 0c-.293-.27-.59-.535-.879-.813-.332-.316-.648-.644-.976-.964-.04-.037-.087-.073-.125-.117l-.067-.063c-.082-.074-.16-.152-.242-.23-.168-.16-.328-.329-.488-.497-.332-.34-.653-.687-.985-1.027-.172-.18-.347-.355-.52-.535-.16-.172-.32-.34-.484-.508-.316-.324-.625-.656-.93-.945-.148-.137-.292-.27-.44-.403-.087-.078-.204-.167-.235-.289a.246.246 0 0 1-.004-.09.245.245 0 0 1 .004-.09c.031-.12.148-.21.234-.288.149-.133.293-.266.418-.38.328-.312.637-.644.953-.968.164-.168.325-.336.485-.508.172-.18.347-.355.52-.535.331-.34.652-.687.984-1.027.16-.168.32-.336.488-.496.082-.079.16-.157.242-.23l.067-.064c.038-.044.085-.08.125-.117.328-.32.644-.648.976-.964.29-.278.586-.543.879-.813.102-.09.27-.066.352.035.09.11.066.258-.032.352-.236.214-.47.428-.695.637-.42.395-.822.81-1.237 1.21a4.215 4.215 0 0 1-.134.126c-.395.374-.766.765-1.14 1.16-.38.402-.77.797-1.153 1.199-.184.195-.371.387-.559.578-.175.18-.343.36-.52.535-.225.222-.46.434-.691.648.23.215.466.427.692.649.176.176.344.355.52.535.187.191.374.383.558.578.383.403.773.797 1.152 1.2.375.394.746.785 1.118 1.136l.124.119.033.03c.415.4.817.815 1.23 1.206.232.213.466.427.702.641.098.094.121.242.032.352a.256.256 0 0 1-.198.09A.23.23 0 0 1 0 0Z" transform="translate(60.82 101.48)"/>
        <path style="fill:#000;fill-opacity:1;fill-rule:nonzero;stroke:none" d="M0 0c-.214-.237-.428-.47-.637-.695-.395-.42-.808-.82-1.208-1.236a.258.258 0 0 1-.033-.034l-.095-.101c-.375-.395-.765-.766-1.16-1.141-.402-.379-.797-.77-1.199-1.152-.195-.184-.387-.372-.578-.559-.18-.176-.36-.344-.535-.52-.222-.225-.434-.461-.649-.691-.214.23-.426.466-.648.691-.176.176-.356.344-.535.52a39.07 39.07 0 0 1-.578.559c-.403.382-.797.773-1.2 1.152-.394.375-.785.746-1.136 1.117l-.119.125a.258.258 0 0 1-.033.034c-.4.415-.813.816-1.203 1.228-.214.233-.428.466-.641.703-.094.098-.243.121-.352.031-.102-.082-.125-.25-.035-.351.27-.293.535-.59.812-.88.317-.331.645-.648.965-.976.037-.039.073-.086.117-.124.02-.023.042-.045.063-.067.074-.082.152-.16.23-.242.16-.168.328-.328.496-.489.34-.332.688-.652 1.028-.984.18-.172.355-.348.535-.52.172-.16.34-.32.508-.484.324-.316.656-.625.945-.93.137-.148.27-.293.402-.441.079-.086.168-.203.29-.234a.244.244 0 0 1 .09-.004.243.243 0 0 1 .09.004c.12.03.21.148.288.234.133.148.266.293.38.418.312.328.644.637.968.953.168.164.336.324.508.484.18.172.355.348.535.52.34.332.687.652 1.027.984.168.16.336.32.496.489.078.082.157.16.23.242.022.022.044.044.064.067.044.038.08.085.116.124.32.328.649.645.965.977.278.289.543.586.813.879.09.101.066.27-.035.351a.241.241 0 0 1-.155.056A.276.276 0 0 1 0 0Z" transform="translate(101.094 61.14)"/>
        <path style="fill:#000;fill-opacity:1;fill-rule:nonzero;stroke:none" d="m0 0-.012-.032v.001l-.007-.032-.002-.032.001-.032.005-.031.04-.086c.044-.03.088-.062.132-.094l.064-.01H.22l.032.002H.25a103.134 103.134 0 0 0 .085.024l.027.017-.006-.004.025.02a1.125 1.125 0 0 1-.08-.075c-.23-.249-.456-.502-.695-.744-.174-.176-.357-.344-.534-.518-.192-.188-.384-.376-.579-.56-.404-.38-.797-.771-1.2-1.152a30.207 30.207 0 0 1-1.136-1.116c-.445-.473-.915-.922-1.36-1.395l.022.024c-.221-.238-.44-.478-.658-.718-.092-.1-.243-.123-.352-.033-.102.083-.126.25-.034.352.268.294.535.59.81.879.316.33.647.646.965.975.054.056.104.128.173.165.058.03.126.038.189.02a.252.252 0 0 0 .17-.31.253.253 0 0 0-.311-.17.252.252 0 0 0-.17.31c.022.073.079.122.13.176.076.082.154.163.232.244.16.167.328.328.495.489.34.33.688.652 1.029.983.178.173.355.349.535.52.17.162.34.321.507.485.324.317.656.625.966.954l-.022-.024c.135.146.27.292.403.44.079.085.169.204.289.233A.256.256 0 0 0 .472-.04a.263.263 0 0 0-.016-.163c-.05-.127-.21-.18-.33-.126A.253.253 0 0 0 0 0Z" transform="translate(94.745 135.404)"/>
        <path style="fill:#000;fill-opacity:1;fill-rule:nonzero;stroke:none" d="m0 0 .012-.032v.001l.007-.032.002-.032L.02-.127.015-.158l-.04-.086a109.045 109.045 0 0 1-.131-.094l-.065-.01h.001l-.032.002h.002l-.091.028a.028.028 0 0 0 .006-.004l-.027.017.006-.004-.025.02a1.125 1.125 0 0 0 .08-.075c.23-.249.456-.502.694-.744.175-.176.358-.344.535-.518.192-.188.384-.376.579-.56.404-.38.797-.771 1.2-1.152a30.207 30.207 0 0 0 1.136-1.116c.445-.473.915-.922 1.36-1.395l-.022.024c.221-.238.44-.478.658-.718.092-.1.243-.123.352-.033.102.083.126.25.034.352-.268.294-.535.59-.81.879-.316.33-.647.646-.965.975-.054.056-.104.128-.173.165a.251.251 0 0 1-.189.02.252.252 0 0 1-.17-.31.253.253 0 0 1 .311-.17c.13.038.208.18.17.31-.022.073-.079.122-.13.176-.076.082-.154.163-.232.244-.16.167-.328.328-.495.489-.34.33-.688.652-1.029.983-.178.173-.355.349-.535.52-.17.162-.34.321-.507.485-.324.317-.655.625-.966.954l.022-.024c-.135.146-.27.292-.403.44-.079.085-.169.204-.289.233a.256.256 0 0 1-.307-.187.263.263 0 0 1 .016-.163c.05-.126.21-.18.33-.125A.253.253 0 0 1 0 0Z" transform="translate(95.255 135.404)"/>
        <path style="fill:#000;fill-opacity:1;fill-rule:nonzero;stroke:none" d="m0 0 .032-.012H.03l.032-.007.032-.002.032.001.031.005.086.04c.03.044.062.088.094.132l.01.064V.22L.346.252V.25L.319.341.322.335.305.362.309.356.29.381a1.125 1.125 0 0 1 .075-.08c.249-.23.502-.456.744-.695.176-.174.344-.357.518-.534.188-.192.376-.384.56-.579.38-.404.771-.797 1.152-1.2a30.207 30.207 0 0 1 1.116-1.136c.473-.445.922-.915 1.395-1.36l-.024.022c.238-.221.478-.44.718-.658.1-.092.123-.243.033-.352-.083-.102-.25-.126-.352-.034-.294.268-.59.535-.879.81-.33.316-.646.647-.975.965-.056.054-.128.104-.165.173a.251.251 0 0 0-.02.189c.039.13.18.208.31.17a.253.253 0 0 0 .17-.311.252.252 0 0 0-.31-.17c-.073.022-.122.079-.176.13-.082.076-.163.154-.244.232-.167.16-.328.328-.489.495-.33.34-.652.688-.983 1.029-.173.178-.349.355-.52.535-.162.17-.321.34-.485.507-.317.324-.625.656-.954.966l.024-.022c-.146.135-.292.27-.44.403-.086.079-.204.169-.233.289a.256.256 0 0 0 .187.307c.056.013.11.005.162-.016.127-.05.18-.21.126-.33A.253.253 0 0 0 0 0Z" transform="translate(54.596 94.745)"/>
        <path style="fill:#000;fill-opacity:1;fill-rule:nonzero;stroke:none" d="M0 0C.08.039.167.019.244-.025c.081-.093.137-.2.074-.316a.04.04 0 0 0 .004.006L.305-.362a.229.229 0 0 1 .004.006L.29-.381a1.125 1.125 0 0 0 .075.08c1.447 1.311 2.71 2.809 4.113 4.166a4.878 4.878 0 0 1-.023-.022c.473.445.922.915 1.395 1.36l-.024-.022c.217.318.957.572.751 1.01-.083.102-.25.126-.352.034-.24-.34-2.895-2.28-1.728-2.306.31.088.169.573-.141.48C2.986 3.209 1.827 1.757.504.505l.024.022C.315.291-.01.124-.145-.165c-.053-.197.164-.38.35-.291C.502-.328.294.134 0 0Z" transform="translate(54.596 95.255)"/>
    </g>
</svg>
