<?xml version="1.0" encoding="UTF-8" standalone="no"?>
<svg
   viewBox="0 0 253.33333 253.33333"
   height="253.33333"
   width="253.33333"
   xml:space="preserve"
   id="svg2"
   version="1.1"
   xmlns="http://www.w3.org/2000/svg"
   xmlns:svg="http://www.w3.org/2000/svg"
   xmlns:rdf="http://www.w3.org/1999/02/22-rdf-syntax-ns#"
   xmlns:cc="http://creativecommons.org/ns#"
   xmlns:dc="http://purl.org/dc/elements/1.1/"><metadata
     id="metadata8"><rdf:RDF><cc:Work
         rdf:about=""><dc:format>image/svg+xml</dc:format><dc:type
           rdf:resource="http://purl.org/dc/dcmitype/StillImage" /></cc:Work></rdf:RDF></metadata><defs
     id="defs6"><clipPath
       id="clipPath18"
       clipPathUnits="userSpaceOnUse"><path
         id="path16"
         d="M 0,190 H 190 V 0 H 0 Z" /></clipPath></defs><g
     transform="matrix(1.3333333,0,0,-1.3333333,-0.1836363,253.02955)"
     id="g10"><g
       id="g12"><g
         clip-path="url(#clipPath18)"
         id="g14"
         transform="matrix(1.7758137,0,0,1.7758137,-73.809156,-94.658197)"
         style="display:inline"><g
           transform="translate(93.7012,106.6987)"
           id="g20"
           style="display:inline"><path
             id="path22"
             style="fill:#000000;fill-opacity:1;fill-rule:nonzero;stroke:none"
             d="M 0,0 C 0.551,0.288 1.142,0.89 1.43,1.441 1.72,0.885 2.328,0.275 2.884,-0.013 2.327,-0.306 1.718,-0.911 1.43,-1.467 1.321,-1.26 0.217,0.119 0,0 M -0.787,0.334 C -1.005,0.259 -1.484,0.405 -1.614,0.16 c -0.24,-0.454 0.206,-0.389 0.406,-0.467 0.978,-0.381 1.969,-0.725 2.29,-1.922 0.056,-0.209 -0.059,-0.702 0.172,-0.826 0.344,-0.185 0.399,0.127 0.475,0.332 0.171,0.475 0.169,0.865 0.512,1.334 0.318,0.435 0.812,0.834 1.336,1.002 C 3.738,-0.335 4.23,-0.391 4.336,-0.3 4.745,0.055 4.387,0.19 4.103,0.283 3.1,0.613 2.174,0.98 1.803,2.135 1.752,2.294 1.807,2.785 1.718,2.889 1.365,3.303 1.227,2.947 1.133,2.661 0.793,1.626 0.405,0.703 -0.787,0.334" /></g><g
           transform="translate(93.6924,108.8691)"
           id="g24"
           style="display:inline"><path
             id="path26"
             style="fill:#000000;fill-opacity:1;fill-rule:nonzero;stroke:none"
             d="M 0,0 C 0.669,0.655 1.086,1.508 1.438,2.365 2.299,0.262 3.879,-1.327 5.986,-2.184 3.883,-3.046 2.3,-4.624 1.438,-6.732 0.574,-4.626 -1.001,-3.048 -3.111,-2.184 -1.831,-1.665 -0.974,-0.953 0,0 M 8.939,-2.293 C 9.11,-1.473 7.569,-1.942 7.184,-1.9 6.014,-1.774 5.01,-0.888 4.08,-0.265 3.783,-0.076 3.556,0.165 3.355,0.461 2.743,1.378 1.83,2.396 1.721,3.562 1.682,3.984 1.95,4.638 1.769,5.037 1.648,5.299 1.341,5.488 1.12,5.169 0.956,4.931 1.109,4.314 1.108,4.033 1.105,3.377 1.002,2.911 0.718,2.301 0.315,1.437 -0.398,0.251 -1.202,-0.263 c -1.007,-0.674 -2.053,-1.593 -3.325,-1.615 -0.352,-0.006 -1.688,0.317 -1.544,-0.36 0.126,-0.593 1.594,-0.205 2.049,-0.298 1.068,-0.217 1.942,-0.979 2.818,-1.567 0.764,-0.49 1.421,-1.576 1.835,-2.379 0.408,-0.79 0.487,-1.46 0.473,-2.327 -0.005,-0.28 -0.061,-1.176 0.517,-0.859 0.428,0.235 0.073,1.39 0.11,1.777 0.169,1.73 1.777,3.384 3.089,4.307 0.663,0.467 1.525,1.039 2.364,1.117 0.347,0.033 1.656,-0.347 1.755,0.174" /></g><g
           transform="translate(93.7012,106.6987)"
           id="g28"
           style="display:inline"><path
             id="path30"
             style="fill:#000000;fill-opacity:1;fill-rule:nonzero;stroke:none"
             d="M 0,0 C 0.551,0.288 1.142,0.89 1.43,1.441 1.72,0.885 2.328,0.275 2.884,-0.013 2.327,-0.306 1.718,-0.911 1.43,-1.467 1.321,-1.26 0.217,0.119 0,0 M -0.787,0.334 C -1.005,0.259 -1.484,0.405 -1.614,0.16 c -0.24,-0.454 0.206,-0.389 0.406,-0.467 0.978,-0.381 1.969,-0.725 2.29,-1.922 0.056,-0.209 -0.059,-0.702 0.172,-0.826 0.344,-0.185 0.399,0.127 0.475,0.332 0.171,0.475 0.169,0.865 0.512,1.334 0.318,0.435 0.812,0.834 1.336,1.002 C 3.738,-0.335 4.23,-0.391 4.336,-0.3 4.745,0.055 4.387,0.19 4.103,0.283 3.1,0.613 2.174,0.98 1.803,2.135 1.752,2.294 1.807,2.785 1.718,2.889 1.365,3.303 1.227,2.947 1.133,2.661 0.793,1.626 0.405,0.703 -0.787,0.334" /></g><g
           transform="translate(130.6973,104.6133)"
           id="g32"
           style="display:inline"><path
             id="path34"
             style="fill:#000000;fill-opacity:1;fill-rule:nonzero;stroke:none"
             d="m 0,0 c -1.659,-0.502 -3.242,-1.212 -4.879,-1.781 -0.607,-0.212 -1.441,-0.594 -2.088,-0.636 -0.513,-0.033 -0.39,-0.018 -0.874,0.334 -0.381,0.278 -0.79,0.519 -1.197,0.755 2.127,-0.055 4.017,0.132 6.071,0.732 0.881,0.258 1.772,0.473 2.669,0.667 0.265,0.057 2.812,0.684 2.856,0.604 C 1.695,0.486 0.845,0.259 0,0 m -9.514,-3.093 c -3.212,-0.637 -6.401,-0.152 -9.446,0.943 -2.61,0.939 -4.78,2.442 -7.17,3.826 3.383,0.041 6.738,0.313 10.039,-0.606 2.769,-0.77 5.819,-2.048 8.128,-3.775 -0.513,-0.146 -1.028,-0.283 -1.551,-0.388 m -16.737,4.148 c 0.019,-0.008 0.024,-0.012 0,0 m -7.474,-10.76 c 2.964,-4.765 4.51,-10.279 2.937,-15.823 -1.73,2.306 -3.004,5.36 -3.775,8.127 -0.919,3.297 -0.651,6.651 -0.604,10.03 0.459,-0.792 0.972,-1.549 1.442,-2.334 m 2.742,-16.504 c -0.981,-3.312 -2.447,-6.464 -3.187,-9.846 -0.098,0.053 0.558,2.639 0.624,2.944 0.197,0.914 0.424,1.816 0.686,2.713 0.585,2.002 0.745,3.872 0.693,5.948 0.097,-0.168 1.219,-1.641 1.184,-1.759 m -6.656,-7.286 c -0.502,1.66 -1.212,3.243 -1.781,4.879 -0.212,0.608 -0.593,1.44 -0.636,2.088 -0.034,0.515 -0.021,0.392 0.332,0.878 0.279,0.38 0.521,0.792 0.757,1.2 -0.042,-1.696 -0.002,-3.281 0.416,-4.936 0.354,-1.403 0.813,-2.96 1.077,-4.262 0.036,-0.172 0.593,-2.362 0.51,-2.407 -0.189,0.863 -0.416,1.715 -0.675,2.56 m -3.328,11.3 c -0.178,3.024 0.425,5.754 1.515,8.564 0.871,2.247 2.28,4.183 3.486,6.263 0.041,-3.382 0.313,-6.735 -0.605,-10.034 -0.77,-2.768 -2.047,-5.817 -3.775,-8.125 -0.31,1.096 -0.532,2.194 -0.621,3.332 M -46.379,0.83 c -5.086,-3.231 -10.761,-5.248 -16.792,-3.536 2.307,1.731 5.361,3.006 8.128,3.777 3.299,0.919 6.656,0.65 10.037,0.603 -0.466,-0.27 -0.92,-0.553 -1.373,-0.844 m -17.47,-3.341 c -3.31,0.98 -6.461,2.446 -9.842,3.186 0.029,0.055 2.01,-0.428 2.251,-0.478 1.115,-0.234 2.22,-0.518 3.319,-0.816 1.977,-0.534 3.964,-0.948 6.024,-0.709 -0.161,-0.094 -1.64,-1.217 -1.752,-1.183 m -7.285,6.656 c 1.66,0.501 3.243,1.212 4.879,1.781 0.609,0.212 1.44,0.592 2.088,0.636 0.516,0.034 0.39,0.022 0.875,-0.332 0.383,-0.278 0.795,-0.521 1.204,-0.758 -1.771,0.045 -3.392,-0.016 -5.113,-0.46 -1.344,-0.347 -2.844,-0.781 -4.086,-1.033 -0.169,-0.035 -2.362,-0.592 -2.407,-0.51 0.863,0.189 1.715,0.417 2.56,0.676 m 10.338,-4.769 c -0.892,-0.411 -2.482,-0.21 -3.452,-0.167 -1.549,0.069 -3.006,0.542 -4.493,0.939 -3.166,0.844 -6.405,1.403 -9.634,1.931 2.124,0.341 4.207,0.734 6.31,1.179 2.308,0.489 4.619,1.334 6.958,1.612 1.089,0.13 2.199,0.086 3.293,0.041 0.9,-0.037 1.466,-0.349 2.299,-0.703 2.158,-0.916 4.26,-1.751 6.582,-2.134 -2.734,-0.45 -5.375,-1.487 -7.863,-2.698 m -0.824,7.862 c 3.212,0.637 6.402,0.152 9.446,-0.943 2.608,-0.938 4.776,-2.439 7.163,-3.822 -3.427,-0.04 -6.838,-0.326 -10.175,0.645 -2.729,0.794 -5.698,2.026 -7.98,3.733 0.511,0.145 1.025,0.281 1.546,0.387 M -44.883,3.09 c -0.018,0.007 -0.024,0.012 0,0 m 0.004,-10e-4 c -0.004,10e-4 -0.001,0 0,0 m 7.47,10.76 c -2.965,4.765 -4.51,10.281 -2.936,15.826 1.729,-2.308 3.003,-5.361 3.774,-8.127 0.92,-3.298 0.65,-6.652 0.604,-10.032 -0.459,0.791 -0.971,1.548 -1.442,2.333 m -2.741,16.505 c 0.98,3.312 2.446,6.463 3.186,9.846 0.066,-0.034 -0.525,-2.483 -0.575,-2.717 -0.19,-0.9 -0.399,-1.798 -0.658,-2.682 -0.614,-2.103 -0.826,-4.021 -0.77,-6.204 -0.096,0.166 -1.219,1.64 -1.183,1.757 m 6.656,7.286 c 0.501,-1.661 1.212,-3.244 1.781,-4.879 0.211,-0.608 0.593,-1.441 0.635,-2.089 0.034,-0.514 0.02,-0.39 -0.332,-0.875 -0.278,-0.381 -0.521,-0.792 -0.757,-1.2 0.057,2.182 -0.156,4.103 -0.771,6.204 -0.244,0.837 -0.444,1.687 -0.627,2.54 -0.062,0.286 -0.683,2.818 -0.605,2.859 0.19,-0.864 0.416,-1.715 0.676,-2.56 m 3.327,-11.3 c 0.178,-3.025 -0.425,-5.755 -1.515,-8.565 -0.872,-2.247 -2.281,-4.181 -3.486,-6.262 -0.041,3.382 -0.313,6.736 0.605,10.036 0.77,2.767 2.047,5.816 3.774,8.125 0.311,-1.098 0.533,-2.195 0.622,-3.334 m -8.224,1.647 c -0.104,1.377 -0.127,2.819 0.105,4.183 0.242,1.423 0.742,2.788 1.07,4.192 0.666,2.85 1.177,5.707 1.65,8.593 0.366,-2.267 0.8,-4.489 1.257,-6.739 0.458,-2.259 1.327,-4.494 1.563,-6.786 0.107,-1.045 0.061,-2.108 0.017,-3.155 -0.038,-0.915 -0.417,-1.575 -0.773,-2.418 -0.891,-2.107 -1.691,-4.153 -2.064,-6.419 -0.267,1.618 -0.714,3.108 -1.326,4.626 -0.491,1.221 -1.405,2.611 -1.499,3.923 m 1.386,-23.731 c 0.67,0.655 1.086,1.508 1.439,2.365 0.86,-2.103 2.44,-3.692 4.547,-4.549 -2.103,-0.862 -3.686,-2.44 -4.547,-4.548 -0.865,2.106 -2.44,3.684 -4.55,4.548 1.281,0.519 2.137,1.231 3.111,2.184 m 4.205,-27.547 c 0.482,-2.897 -0.299,-5.594 -0.983,-8.367 -0.743,-3.013 -1.287,-6.056 -1.783,-9.114 -0.347,2.135 -0.736,4.231 -1.187,6.346 -0.503,2.36 -1.389,4.743 -1.634,7.142 -0.105,1.032 -0.06,2.083 -0.018,3.119 0.035,0.85 0.299,1.339 0.635,2.129 0.942,2.21 1.811,4.363 2.204,6.744 0.246,-1.496 0.632,-2.895 1.194,-4.304 0.261,-0.653 0.528,-1.303 0.801,-1.952 0.207,-0.491 0.698,-1.227 0.771,-1.743 m 8.045,26.606 c 5.084,3.229 10.759,5.248 16.788,3.537 -2.28,-1.709 -5.255,-2.94 -7.981,-3.734 -3.333,-0.971 -6.748,-0.69 -10.172,-0.643 0.464,0.268 0.915,0.55 1.365,0.84 m 17.47,3.341 C -3.973,5.676 -0.822,4.21 2.561,3.469 2.522,3.4 0.079,3.994 -0.156,4.044 c -0.901,0.19 -1.798,0.4 -2.683,0.658 -2.103,0.615 -4.022,0.825 -6.207,0.77 0.169,0.098 1.639,1.22 1.761,1.184 m -2.406,-7.407 c -1.331,0.121 -2.8,1.066 -4.045,1.565 -1.463,0.588 -2.909,1.004 -4.465,1.261 2.208,0.363 4.201,1.131 6.256,1.995 0.826,0.348 1.545,0.78 2.443,0.834 1.092,0.065 2.215,0.1 3.305,-0.012 C -3.962,4.661 -1.799,3.803 0.404,3.365 2.713,2.907 4.992,2.452 7.316,2.072 4.43,1.605 1.573,1.087 -1.277,0.423 -2.687,0.095 -4.056,-0.41 -5.484,-0.65 -6.861,-0.882 -8.303,-0.844 -9.691,-0.751 M 9.516,2.298 C 9.337,2.495 8.923,2.439 8.697,2.501 8.159,2.651 7.632,2.843 7.082,2.976 5.518,3.353 3.948,3.703 2.383,4.071 c -3.149,0.741 -6.097,2.09 -9.187,3.02 1.156,1.102 1.994,2.562 2.744,3.959 0.264,0.492 0.696,1.136 0.726,1.699 0.048,0.919 -0.72,0.689 -1.164,0.224 C -5.008,12.438 -5.394,11.67 -5.524,10.941 -5.65,10.241 -5.416,9.79 -5.821,9.191 -6.102,8.778 -6.388,8.353 -6.717,7.977 -6.724,7.97 -6.919,7.762 -6.948,7.732 -7.349,7.314 -7.447,7.286 -7.976,7.434 -11.658,8.46 -15.383,8.159 -18.954,6.885 -20.59,6.302 -22.09,5.586 -23.58,4.695 -24.461,4.169 -25.305,3.496 -26.248,3.091 -27.249,2.662 -28.28,2.501 -29.35,2.402 c -1.375,-0.126 -2.497,0.867 -3.575,1.589 -0.297,0.189 -0.524,0.43 -0.724,0.726 -0.814,1.219 -1.721,2.298 -1.563,3.828 0.103,0.992 0.434,1.948 0.657,2.825 -10e-4,-0.003 0.024,0.053 0.015,0.038 0.248,0.582 0.758,1.289 1.128,1.884 0.952,1.531 1.805,3.074 2.432,4.77 1.259,3.405 1.855,6.951 1.043,10.55 -0.091,0.404 -0.344,0.917 -0.347,1.326 -0.004,0.394 0.036,0.429 0.377,0.755 0.447,0.428 0.953,0.785 1.465,1.131 0.585,0.396 1.058,0.168 1.742,0.291 0.675,0.121 1.374,0.466 1.899,0.906 0.504,0.422 0.956,1.33 -0.092,1.284 -0.569,-0.025 -1.205,-0.461 -1.698,-0.726 -1.399,-0.75 -2.854,-1.588 -3.958,-2.742 -0.965,3.204 -2.361,6.258 -3.097,9.531 -0.353,1.565 -0.715,3.125 -1.095,4.683 -0.123,0.505 -0.304,0.996 -0.426,1.491 -0.061,0.247 -0.021,0.688 -0.399,0.688 -0.38,0 -0.34,-0.442 -0.401,-0.688 -0.122,-0.495 -0.302,-0.986 -0.426,-1.491 -0.38,-1.558 -0.745,-3.117 -1.094,-4.683 -0.731,-3.274 -2.134,-6.327 -3.097,-9.531 -1.104,1.153 -2.562,1.995 -3.958,2.742 -0.498,0.266 -1.13,0.696 -1.699,0.726 -1.03,0.054 -0.595,-0.863 -0.092,-1.284 0.525,-0.439 1.223,-0.785 1.899,-0.906 0.7,-0.126 1.155,0.106 1.76,-0.304 0.505,-0.343 1.009,-0.693 1.449,-1.119 0.439,-0.425 0.455,-0.462 0.297,-1.029 -0.13,-0.464 -0.251,-0.932 -0.345,-1.404 -0.746,-3.737 -0.003,-7.346 1.359,-10.834 0.848,-2.169 2.424,-3.943 3.332,-6.044 0.471,-1.087 0.907,-2.663 0.662,-3.853 -0.247,-1.195 -1.28,-2.891 -2.287,-3.535 -1.074,-0.72 -2.209,-1.728 -3.584,-1.591 -1.079,0.108 -2.09,0.429 -3.073,0.682 -0.015,0.006 -0.029,0.012 -0.044,0.018 -2.69,1.794 -5.616,3.311 -8.736,4.28 -1.937,0.602 -4.008,0.778 -6.029,0.653 -1.004,-0.061 -1.986,-0.213 -2.96,-0.462 -0.388,-0.099 -0.867,-0.34 -1.195,-0.186 -0.178,0.084 -0.505,0.476 -0.586,0.587 -0.334,0.368 -0.619,0.803 -0.896,1.213 -0.336,0.496 -0.238,0.658 -0.253,1.223 -0.02,0.819 -0.675,3.019 -1.754,3.017 -1.22,-0.003 0.236,-2.373 0.495,-2.837 0.691,-1.238 1.463,-2.512 2.492,-3.499 -3.147,-0.947 -6.148,-2.327 -9.359,-3.059 -2.247,-0.512 -4.655,-0.931 -6.805,-1.648 -0.275,-0.07 -0.299,-0.555 -0.035,-0.614 2.209,-0.553 4.433,-1.116 6.667,-1.618 3.272,-0.736 6.325,-2.132 9.528,-3.097 -0.565,-0.539 -4.499,-5.594 -3.246,-6.278 0.913,-0.499 1.809,1.712 1.94,2.302 0.111,0.496 -0.053,1.085 0.09,1.52 0.139,0.426 0.627,0.937 0.888,1.269 0.152,0.193 0.305,0.371 0.475,0.548 0.308,0.318 0.363,0.379 0.753,0.375 0.7,-0.008 1.52,-0.411 2.226,-0.521 1.534,-0.24 3.097,-0.243 4.639,-0.092 2.926,0.287 5.863,1.447 8.395,2.908 1.098,0.634 2.133,1.407 3.272,1.96 0.027,0.013 0.002,0.011 0.024,0.011 0.478,0 1.171,0.435 1.678,0.515 0.446,0.07 0.909,0.124 1.35,0.169 0.883,0.091 1.729,-0.284 2.466,-0.762 1.102,-0.45 2.059,-1.696 2.726,-2.732 0.7,-1.086 0.831,-1.99 0.664,-3.217 -0.332,-2.433 -1.731,-4.079 -2.919,-6.193 -1.872,-3.331 -2.879,-7.246 -2.605,-11.064 0.072,-0.999 0.241,-1.974 0.496,-2.942 0.136,-0.518 0.31,-0.717 0.027,-1.141 -0.104,-0.156 -0.368,-0.372 -0.474,-0.464 -0.378,-0.334 -0.806,-0.622 -1.223,-0.904 -0.627,-0.425 -1.265,-0.155 -1.999,-0.35 -0.652,-0.174 -1.952,-0.709 -2.17,-1.439 -0.359,-1.202 1.319,-0.469 1.771,-0.253 1.589,0.762 3.282,1.75 4.505,3.029 0.947,-3.147 2.327,-6.148 3.059,-9.36 0.512,-2.246 0.931,-4.653 1.648,-6.803 0.079,-0.307 0.551,-0.285 0.614,-0.036 0.546,2.27 1.135,4.551 1.657,6.839 0.732,3.212 2.112,6.213 3.058,9.36 1.104,-1.155 2.56,-1.992 3.958,-2.742 0.487,-0.261 1.333,-0.857 1.899,-0.747 0.906,0.175 0.288,0.973 -0.109,1.305 -0.589,0.494 -1.389,0.871 -2.16,0.945 -0.628,0.061 -0.946,-0.108 -1.498,0.265 -0.408,0.276 -0.841,0.569 -1.203,0.888 -0.053,0.046 -0.434,0.394 -0.478,0.467 -0.267,0.445 -0.112,0.606 0.029,1.141 0.975,3.697 0.535,7.391 -0.755,10.94 -0.615,1.693 -1.416,3.242 -2.358,4.776 -0.442,0.722 -1.019,1.422 -1.327,2.214 0.001,-0.002 0.001,-0.002 0.001,-0.001 10e-4,-0.003 10e-4,-0.003 0,-10e-4 0.003,-0.007 0.007,-0.014 0.01,-0.022 0.009,-0.016 -0.016,0.04 -0.015,0.038 -0.256,1.074 -0.754,2.236 -0.713,3.427 0.041,1.192 0.989,2.437 1.696,3.331 0.756,0.956 2.479,2.141 3.746,2.255 1.167,0.105 2.499,-0.328 3.571,-0.731 0.081,-0.082 0.662,-0.349 0.844,-0.46 1.487,-0.915 2.941,-1.918 4.553,-2.611 3.477,-1.495 7.146,-2.308 10.932,-1.716 0.421,0.065 0.836,0.155 1.25,0.256 0.282,0.07 0.97,0.407 1.251,0.347 0.554,-0.12 1.316,-1.493 1.593,-1.902 0.382,-0.564 0.206,-0.844 0.269,-1.503 0.069,-0.722 0.405,-1.442 0.837,-2.016 0.266,-0.352 0.902,-1.105 1.344,-0.516 0.332,0.442 -0.323,1.483 -0.521,1.872 -0.766,1.496 -1.673,3.079 -2.897,4.247 3.203,0.964 6.256,2.361 9.529,3.097 1.565,0.352 3.125,0.714 4.683,1.095 0.215,0.052 2.648,0.477 2.104,1.051" /></g><g
           transform="translate(93.7012,106.6987)"
           id="g36"
           style="display:inline"><path
             id="path38"
             style="fill:#000000;fill-opacity:1;fill-rule:nonzero;stroke:none"
             d="M 0,0 C 0.551,0.288 1.142,0.89 1.43,1.441 1.72,0.885 2.328,0.275 2.884,-0.013 2.327,-0.306 1.718,-0.911 1.43,-1.467 1.321,-1.26 0.217,0.119 0,0 M -0.787,0.334 C -1.005,0.259 -1.484,0.405 -1.614,0.16 c -0.24,-0.454 0.206,-0.389 0.406,-0.467 0.978,-0.381 1.969,-0.725 2.29,-1.922 0.056,-0.209 -0.059,-0.702 0.172,-0.826 0.344,-0.185 0.399,0.127 0.475,0.332 0.171,0.475 0.169,0.865 0.512,1.334 0.318,0.435 0.812,0.834 1.336,1.002 C 3.738,-0.335 4.23,-0.391 4.336,-0.3 4.745,0.055 4.387,0.19 4.103,0.283 3.1,0.613 2.174,0.98 1.803,2.135 1.752,2.294 1.807,2.785 1.718,2.889 1.365,3.303 1.227,2.947 1.133,2.661 0.793,1.626 0.405,0.703 -0.787,0.334" /></g><g
           transform="translate(132.5771,105.0493)"
           id="g40"
           style="display:none"><path
             id="path42"
             style="fill:#000000;fill-opacity:1;fill-rule:nonzero;stroke:none"
             d="m 0,0 c -1.99,-0.515 -3.98,-1.154 -5.897,-1.892 -0.867,-0.333 -1.742,-0.604 -2.631,-0.867 -0.526,-0.155 -0.493,-0.201 -0.91,0.029 -0.509,0.28 -0.977,0.672 -1.485,0.966 2.18,-0.055 4.102,0.156 6.204,0.77 1.96,0.573 3.982,0.914 5.969,1.376 C 1.21,0.277 0.146,0.038 0,0 m -11.393,-3.529 c -3.211,-0.638 -6.401,-0.152 -9.446,0.943 -2.608,0.938 -4.778,2.439 -7.166,3.823 3.428,0.042 6.839,0.326 10.177,-0.644 2.725,-0.793 5.701,-2.027 7.982,-3.735 -0.511,-0.145 -1.026,-0.282 -1.547,-0.387 M -31.112,-3.79 c 2.476,-1.355 5.018,-2.705 7.498,-3.98 2.117,-1.19 3.216,-3.499 4.326,-5.563 1.153,-2.147 2.318,-4.277 3.313,-6.503 -2.32,1.045 -4.533,2.27 -6.779,3.464 -1.867,0.994 -4.377,2.151 -5.296,4.193 -0.637,1.334 -1.419,2.705 -2.132,4.039 -0.801,1.499 -1.58,3.011 -2.433,4.481 1.057,-1.12 2.106,-2.247 3.169,-3.362 0.527,-0.553 1.207,-1.071 1.666,-1.683 0.207,-0.276 0.259,-0.477 0.429,-0.797 0.49,-0.924 1.367,-1.794 2.227,-2.371 0.274,-0.183 1.561,-1.033 1.873,-0.599 0.235,0.328 -0.455,1.406 -0.609,1.658 -0.558,0.914 -1.491,1.844 -2.444,2.35 -0.315,0.168 -0.528,0.223 -0.802,0.433 -0.573,0.436 -1.054,1.067 -1.574,1.563 -1.151,1.097 -2.315,2.179 -3.471,3.271 0.344,-0.2 0.689,-0.401 1.039,-0.594 m -5.535,-4.701 c 1.562,-2.585 2.936,-4.914 3.876,-7.803 1.019,-3.125 0.997,-6.522 0.103,-9.671 -1.71,2.279 -2.945,5.259 -3.735,7.984 -0.969,3.337 -0.689,6.747 -0.644,10.174 0.132,-0.229 0.265,-0.457 0.4,-0.684 m 3.784,-18.155 c -0.521,-1.757 -1.126,-3.459 -1.776,-5.172 -0.331,-0.874 -0.56,-2.175 -0.821,-3.072 -0.092,-0.318 -0.508,-2.083 -0.732,-2.17 0.468,2.032 0.832,4.092 1.414,6.097 0.594,2.051 0.786,3.947 0.731,6.076 0.097,-0.168 1.219,-1.641 1.184,-1.759 m -6.656,-7.286 c -0.502,1.66 -1.212,3.243 -1.781,4.879 -0.212,0.609 -0.593,1.44 -0.636,2.088 -0.034,0.515 -0.021,0.392 0.333,0.877 0.278,0.381 0.52,0.792 0.756,1.2 -0.043,-1.695 -0.002,-3.279 0.416,-4.934 0.354,-1.403 0.945,-3.083 1.21,-4.385 0.203,-0.997 0.372,-1.719 0.52,-2.853 -0.106,0.041 -0.356,1.203 -0.393,1.35 -0.153,0.603 -0.242,1.183 -0.425,1.778 m -3.328,11.3 c -0.177,3.024 0.426,5.754 1.515,8.564 0.872,2.248 2.281,4.181 3.486,6.262 0.042,-3.427 0.326,-6.838 -0.644,-10.176 -0.793,-2.726 -2.027,-5.701 -3.736,-7.982 -0.31,1.096 -0.532,2.194 -0.621,3.332 m -0.026,17.934 c -0.717,-1.31 -1.412,-2.633 -2.116,-3.95 -0.35,-0.653 -0.672,-1.318 -0.986,-1.989 -0.25,-0.533 -0.64,-1.023 -0.869,-1.542 -0.953,-2.041 -3.41,-3.188 -5.296,-4.193 -2.245,-1.195 -4.458,-2.42 -6.779,-3.464 1.043,2.321 2.27,4.534 3.464,6.779 1.004,1.888 2.15,4.343 4.193,5.296 0.559,0.237 1.104,0.664 1.677,0.933 0.802,0.376 1.581,0.782 2.361,1.199 1.5,0.801 3.011,1.58 4.482,2.433 -1.12,-1.057 -2.247,-2.106 -3.362,-3.168 -0.554,-0.527 -1.071,-1.207 -1.683,-1.666 -0.276,-0.207 -0.478,-0.261 -0.798,-0.43 -0.924,-0.489 -1.794,-1.366 -2.37,-2.226 -0.166,-0.25 -0.939,-1.435 -0.688,-1.784 0.306,-0.427 1.453,0.34 1.747,0.519 0.914,0.559 1.844,1.491 2.351,2.444 0.168,0.317 0.222,0.529 0.432,0.803 0.436,0.572 1.067,1.054 1.563,1.574 1.097,1.151 2.18,2.315 3.272,3.471 -0.201,-0.345 -0.402,-0.69 -0.595,-1.039 m -4.701,5.535 c -2.586,-1.562 -4.914,-2.936 -7.804,-3.878 -3.124,-1.017 -6.521,-0.995 -9.67,-0.102 2.279,1.71 5.259,2.946 7.984,3.736 3.337,0.968 6.747,0.688 10.174,0.644 -0.229,-0.133 -0.457,-0.265 -0.684,-0.4 m -18.155,-3.784 c -1.757,0.52 -3.459,1.126 -5.172,1.775 -0.874,0.332 -1.787,0.52 -2.685,0.779 -0.317,0.092 -2.472,0.552 -2.558,0.775 1.989,-0.459 3.985,-0.862 5.957,-1.388 2.045,-0.546 4.082,-1.007 6.216,-0.758 -0.168,-0.097 -1.64,-1.219 -1.758,-1.183 m -9.111,6.299 c 1.99,0.515 3.927,1.075 5.843,1.812 0.867,0.333 1.742,0.605 2.632,0.867 0.526,0.155 0.491,0.201 0.909,-0.029 0.51,-0.28 0.978,-0.671 1.485,-0.966 -1.77,0.046 -3.39,-0.016 -5.11,-0.46 -1.344,-0.347 -2.844,-0.781 -4.086,-1.033 -0.997,-0.204 -1.985,-0.424 -2.977,-0.652 0.04,0.105 1.158,0.422 1.304,0.461 m 12.165,-4.414 c -0.817,-0.377 -2.26,-0.189 -3.139,-0.171 -1.611,0.031 -3.11,0.478 -4.651,0.901 -3.209,0.882 -6.51,1.438 -9.789,1.975 2.123,0.341 4.206,0.734 6.309,1.179 2.308,0.489 4.619,1.334 6.958,1.612 1.09,0.13 2.199,0.086 3.293,0.041 0.9,-0.038 1.467,-0.351 2.3,-0.705 2.158,-0.916 4.259,-1.75 6.581,-2.134 -2.734,-0.45 -5.375,-1.488 -7.862,-2.698 M -63.5,6.802 c 3.211,0.637 6.401,0.152 9.445,-0.943 2.609,-0.938 4.778,-2.44 7.166,-3.824 -3.427,-0.041 -6.839,-0.326 -10.176,0.645 -2.726,0.793 -5.701,2.026 -7.983,3.735 0.512,0.145 1.026,0.281 1.548,0.387 m 19.719,0.26 c -2.468,1.35 -4.996,2.729 -7.481,3.972 -2.042,0.986 -3.177,3.39 -4.193,5.296 -1.195,2.244 -2.423,4.457 -3.464,6.778 2.225,-0.997 4.356,-2.16 6.502,-3.314 1.888,-1.014 4.69,-2.201 5.564,-4.325 l 0.009,-0.017 c 1.569,-2.775 2.949,-5.734 4.565,-8.52 -1.126,1.192 -2.238,2.398 -3.374,3.58 -0.52,0.54 -1.294,1.06 -1.68,1.694 -0.086,0.14 -0.125,0.41 -0.215,0.578 -0.578,1.085 -1.655,2.101 -2.742,2.654 -0.332,0.169 -1.052,0.707 -1.353,0.305 -0.225,-0.3 0.373,-1.251 0.53,-1.53 0.549,-0.974 1.531,-1.951 2.523,-2.478 0.176,-0.093 0.436,-0.131 0.593,-0.23 0.617,-0.386 1.145,-1.152 1.675,-1.662 1.181,-1.138 2.388,-2.249 3.58,-3.375 -0.345,0.2 -0.69,0.402 -1.039,0.594 m 5.535,4.701 c -1.563,2.586 -2.936,4.915 -3.878,7.804 -1.017,3.125 -0.995,6.522 -0.102,9.671 1.71,-2.279 2.946,-5.26 3.736,-7.984 0.968,-3.337 0.689,-6.748 0.643,-10.174 -0.132,0.228 -0.264,0.457 -0.399,0.683 m -3.784,18.156 c 0.52,1.756 1.126,3.458 1.775,5.171 0.332,0.875 0.635,1.753 0.895,2.652 0.094,0.323 0.43,2.499 0.66,2.591 -0.448,-1.943 -0.789,-3.92 -1.339,-5.839 -0.617,-2.153 -0.865,-4.097 -0.808,-6.334 -0.097,0.168 -1.219,1.64 -1.183,1.759 m 6.656,7.286 c 0.501,-1.661 1.212,-3.244 1.781,-4.879 0.211,-0.609 0.592,-1.44 0.635,-2.089 0.034,-0.515 0.021,-0.391 -0.332,-0.877 -0.278,-0.381 -0.521,-0.791 -0.757,-1.199 0.057,2.235 -0.19,4.181 -0.807,6.333 -0.551,1.92 -0.887,3.897 -1.339,5.84 0.107,-0.042 0.278,-1.185 0.315,-1.331 0.151,-0.603 0.321,-1.203 0.504,-1.798 m 3.327,-11.3 c 0.178,-3.025 -0.425,-5.755 -1.515,-8.565 -0.872,-2.247 -2.281,-4.18 -3.486,-6.262 -0.041,3.428 -0.326,6.839 0.645,10.177 0.793,2.725 2.026,5.701 3.735,7.982 0.311,-1.097 0.532,-2.194 0.621,-3.332 m 0.026,-17.934 c 0.717,1.31 1.413,2.633 2.117,3.949 0.349,0.654 0.672,1.318 0.985,1.99 0.25,0.532 0.642,1.024 0.869,1.542 0.919,2.041 3.43,3.198 5.296,4.192 2.244,1.196 4.457,2.424 6.779,3.464 -1.039,-2.322 -2.27,-4.534 -3.463,-6.778 -1.004,-1.888 -2.15,-4.343 -4.193,-5.296 -0.562,-0.247 -1.099,-0.662 -1.678,-0.933 -0.801,-0.377 -1.58,-0.782 -2.361,-1.2 -1.499,-0.801 -3.011,-1.58 -4.481,-2.433 1.192,1.127 2.399,2.238 3.58,3.375 0.489,0.471 0.93,1.039 1.465,1.46 0.269,0.213 0.484,0.264 0.798,0.43 0.927,0.492 1.79,1.361 2.369,2.226 0.19,0.284 0.981,1.463 0.659,1.819 -0.313,0.346 -1.295,-0.309 -1.59,-0.476 -0.963,-0.542 -1.952,-1.535 -2.476,-2.518 -0.163,-0.305 -0.232,-0.54 -0.434,-0.808 -0.406,-0.538 -0.991,-0.976 -1.46,-1.464 -1.137,-1.182 -2.249,-2.388 -3.375,-3.58 0.2,0.345 0.402,0.689 0.594,1.039 m -8.25,19.58 c -0.104,1.377 -0.126,2.819 0.105,4.183 0.242,1.423 0.742,2.788 1.07,4.192 0.666,2.85 1.178,5.707 1.65,8.593 0.366,-2.268 0.8,-4.489 1.258,-6.739 0.458,-2.259 1.326,-4.494 1.562,-6.786 0.107,-1.045 0.062,-2.108 0.018,-3.155 -0.038,-0.915 -0.417,-1.575 -0.774,-2.419 -0.89,-2.106 -1.691,-4.152 -2.064,-6.418 -0.268,1.618 -0.714,3.107 -1.325,4.626 -0.492,1.22 -1.406,2.611 -1.5,3.923 M -38.885,3.82 c 0.67,0.655 1.086,1.508 1.439,2.365 0.86,-2.103 2.44,-3.692 4.548,-4.549 -2.104,-0.862 -3.687,-2.44 -4.548,-4.548 -0.865,2.106 -2.44,3.683 -4.55,4.548 1.281,0.519 2.137,1.231 3.111,2.184 m 4.205,-27.547 c 0.482,-2.898 -0.299,-5.594 -0.983,-8.367 -0.743,-3.013 -1.287,-6.056 -1.783,-9.114 -0.346,2.135 -0.736,4.231 -1.187,6.346 -0.503,2.36 -1.389,4.743 -1.634,7.142 -0.105,1.032 -0.06,2.083 -0.018,3.119 0.035,0.85 0.299,1.338 0.636,2.128 0.941,2.209 1.81,4.363 2.203,6.743 0.246,-1.496 0.633,-2.894 1.194,-4.303 0.261,-0.653 0.528,-1.303 0.801,-1.952 0.22,-0.52 0.663,-1.197 0.771,-1.742 m 7.36,26.163 c 2.587,1.561 4.914,2.936 7.804,3.877 3.124,1.018 6.522,0.996 9.671,0.102 -2.279,-1.709 -5.26,-2.945 -7.984,-3.735 -3.337,-0.969 -6.748,-0.689 -10.174,-0.644 0.228,0.132 0.456,0.265 0.683,0.4 M -9.164,6.22 C -7.407,5.7 -5.705,5.094 -3.993,4.444 -3.118,4.113 -2.24,3.81 -1.342,3.549 -1.022,3.457 1.163,3.115 1.25,2.889 c -1.943,0.449 -3.92,0.789 -5.839,1.34 -2.153,0.617 -4.098,0.864 -6.334,0.807 0.166,0.097 1.642,1.219 1.759,1.184 m -2.407,-7.407 c -1.303,0.118 -2.668,1.008 -3.884,1.499 -1.52,0.611 -3.007,1.058 -4.625,1.324 2.207,0.365 4.2,1.132 6.254,1.996 0.826,0.347 1.547,0.782 2.444,0.836 1.092,0.065 2.215,0.1 3.305,-0.012 C -5.842,4.225 -3.679,3.367 -1.476,2.929 0.833,2.471 3.112,2.016 5.437,1.636 2.55,1.169 -0.307,0.651 -3.157,-0.013 -4.566,-0.341 -5.936,-0.846 -7.364,-1.086 -8.741,-1.318 -10.183,-1.28 -11.571,-1.187 M 7.565,1.729 C 7.528,1.779 7.465,1.811 7.404,1.832 7.189,1.908 6.978,1.977 6.769,2.066 6.539,2.165 6.31,2.265 6.067,2.331 5.673,2.439 5.271,2.523 4.873,2.621 3.363,2.992 1.842,3.311 0.331,3.677 c -3.084,0.748 -5.979,2.065 -9.013,2.977 1.03,0.986 1.799,2.261 2.49,3.497 0.268,0.482 1.721,2.812 0.495,2.838 C -6.771,13.01 -7.432,10.773 -7.452,9.972 -7.466,9.431 -7.388,9.218 -7.695,8.761 -7.841,8.546 -8.369,7.558 -8.582,7.558 -8.578,7.558 -9.624,6.479 -8.828,7.295 -9.175,6.939 -9.147,6.914 -9.58,6.919 c -0.577,0.006 -1.275,0.349 -1.857,0.457 -1.459,0.272 -2.962,0.311 -4.439,0.204 -2.624,-0.19 -5.321,-1.04 -7.666,-2.235 -1.173,-0.597 -2.299,-1.301 -3.406,-2.011 -0.425,-0.271 -0.866,-0.522 -1.284,-0.803 -0.385,-0.259 -0.846,-0.378 -1.299,-0.447 -0.567,-0.086 -1.136,-0.081 -1.706,-0.125 -0.256,-0.017 -0.516,-0.018 -0.769,0.037 -1.064,0.228 -1.921,0.971 -2.799,1.559 0.038,-0.025 0.005,10e-4 -0.099,0.077 0.353,0.306 0.608,0.802 1.005,1.077 0.501,0.502 1.371,0.895 1.989,1.258 0.697,0.408 1.405,0.797 2.118,1.175 1.346,0.712 2.669,1.471 4.038,2.136 1.598,0.775 3.252,1.642 4.948,2.183 1.303,0.416 2.753,0.437 4.11,0.426 0.867,-0.007 1.734,-0.002 2.601,-0.002 0.558,0 1.552,-0.082 1.807,0.573 0.569,1.462 -2.923,0.831 -3.492,0.763 -2.175,-0.259 -4.188,-0.786 -6.167,-1.612 1.765,1.722 2.759,4.012 3.887,6.163 0.592,1.13 1.266,2.215 1.802,3.374 0.195,0.418 1.322,2.179 0.928,2.607 -0.368,0.4 -2.23,-0.754 -2.607,-0.927 -1.11,-0.51 -2.152,-1.151 -3.227,-1.727 -2.192,-1.176 -4.544,-2.152 -6.31,-3.963 0.895,2.145 1.405,4.334 1.67,6.675 0.063,0.544 0.387,4.018 -1.011,2.849 -0.532,-0.444 -0.382,-1.388 -0.381,-2.001 0.002,-0.885 0.003,-1.769 0.003,-2.653 0.001,-1.356 -0.067,-2.796 -0.555,-4.072 -0.6,-1.569 -1.326,-3.098 -2.06,-4.608 -0.665,-1.368 -1.422,-2.691 -2.133,-4.035 -0.728,-1.374 -1.479,-2.881 -2.433,-4.108 -0.275,-0.394 -0.772,-0.65 -1.077,-1.004 -0.568,0.807 -1.173,1.577 -1.511,2.521 -0.177,0.493 -0.174,0.843 -0.152,1.358 0.009,0.222 0.134,2.013 0.409,2.51 0.275,0.495 0.576,0.976 0.882,1.453 0.735,1.145 1.467,2.307 2.085,3.52 1.195,2.347 2.041,5.041 2.234,7.666 0.105,1.416 0.074,2.86 -0.169,4.262 -0.112,0.648 -0.485,1.389 -0.491,2.034 -0.004,0.395 0.04,0.424 0.378,0.754 0.024,0.023 0.23,0.244 0.261,0.244 0.381,0.32 0.791,0.608 1.203,0.886 0.485,0.328 0.653,0.23 1.211,0.244 0.819,0.021 3.019,0.676 3.016,1.755 -0.003,1.22 -2.372,-0.236 -2.837,-0.495 -1.236,-0.69 -2.512,-1.461 -3.497,-2.49 -0.913,3.034 -2.229,5.929 -2.977,9.013 -0.366,1.511 -0.685,3.032 -1.056,4.542 -0.106,0.432 -0.212,0.864 -0.341,1.29 -0.13,0.43 -0.291,0.851 -0.479,1.258 -0.019,0.042 -0.034,0.087 -0.067,0.121 -0.095,0.098 -0.215,-0.015 -0.267,-0.101 -0.103,-0.17 -0.149,-0.372 -0.23,-0.554 -0.091,-0.205 -0.173,-0.417 -0.24,-0.631 -0.01,-0.032 -0.02,-0.065 -0.029,-0.097 -0.122,-0.425 -0.211,-0.857 -0.316,-1.286 -0.371,-1.51 -0.69,-3.031 -1.057,-4.542 -0.748,-3.083 -2.064,-5.979 -2.977,-9.013 -1.044,1.092 -2.41,1.894 -3.725,2.616 -0.528,0.289 -1.086,0.617 -1.669,0.778 -0.646,0.178 -1.173,-0.115 -0.764,-0.807 0.33,-0.556 1.212,-0.97 1.801,-1.171 0.609,-0.207 1.216,0.003 1.782,-0.122 0.528,-0.116 1.411,-0.962 1.698,-1.216 0.277,-0.244 0.627,-0.509 0.654,-0.839 0.024,-0.297 -0.235,-0.83 -0.305,-1.111 -0.21,-0.854 -0.341,-1.717 -0.405,-2.593 -0.128,-1.766 -0.034,-3.614 0.39,-5.337 0.79,-3.215 2.33,-6.034 4.086,-8.807 0.387,-0.611 0.829,-1.263 1.019,-1.94 0.068,-0.243 0.111,-1.449 0.124,-1.794 0.029,-0.739 -0.162,-1.468 -0.478,-2.132 -0.098,-0.208 -1.011,-1.849 -1.236,-1.707 -0.067,0.042 -0.43,0.382 -0.563,0.478 -0.187,0.135 -0.305,0.327 -0.464,0.486 -0.468,0.468 -0.833,1.277 -1.178,1.852 -0.442,0.738 -0.852,1.496 -1.254,2.256 -0.712,1.345 -1.471,2.669 -2.136,4.038 -0.734,1.512 -1.463,3.043 -2.061,4.614 -0.485,1.276 -0.552,2.71 -0.551,4.063 0,0.885 0.001,1.769 0.003,2.653 0.001,0.604 0.153,1.562 -0.381,2.001 -1.417,1.166 -1.07,-2.335 -1.012,-2.849 0.266,-2.342 0.776,-4.529 1.67,-6.675 -1.722,1.765 -4.012,2.759 -6.163,3.887 -1.129,0.592 -2.215,1.266 -3.374,1.803 -0.418,0.194 -2.179,1.322 -2.606,0.927 -0.4,-0.368 0.753,-2.23 0.927,-2.607 0.51,-1.11 1.15,-2.152 1.727,-3.227 1.176,-2.192 2.152,-4.544 3.963,-6.31 -2.146,0.894 -4.334,1.404 -6.675,1.67 -0.545,0.062 -4.019,0.387 -2.85,-1.012 0.444,-0.531 1.388,-0.382 2.002,-0.38 0.884,0.002 1.768,0.002 2.653,0.003 1.356,0 2.795,-0.067 4.072,-0.555 1.569,-0.599 3.098,-1.326 4.607,-2.06 1.368,-0.665 2.691,-1.422 4.035,-2.133 1.319,-0.698 2.997,-1.433 4.108,-2.433 0.24,-0.167 0.935,-1.017 1.005,-1.077 -0.105,-0.077 -0.137,-0.102 -0.098,-0.075 -1.128,-0.756 -2.128,-1.597 -3.533,-1.595 -0.378,0 -0.747,0.03 -1.112,0.059 -0.502,0.04 -1.016,0.014 -1.506,0.277 -1.364,0.732 -2.631,1.642 -3.973,2.414 -1.383,0.795 -2.814,1.379 -4.318,1.902 -3.332,1.16 -6.917,1.361 -10.335,0.431 -0.44,-0.12 -0.593,-0.232 -0.967,0.019 -0.175,0.118 -0.342,0.335 -0.481,0.494 -0.324,0.372 -0.606,0.789 -0.882,1.197 -0.325,0.481 -0.233,0.657 -0.247,1.217 -0.019,0.721 -0.273,1.404 -0.657,2.012 -0.238,0.378 -1.041,1.486 -1.533,0.792 -0.314,-0.445 0.321,-1.481 0.522,-1.873 0.765,-1.497 1.674,-3.079 2.898,-4.249 -3.205,-0.964 -6.259,-2.361 -9.533,-3.097 -1.564,-0.352 -3.125,-0.715 -4.683,-1.095 -0.531,-0.13 -0.995,-0.301 -1.492,-0.507 -0.129,-0.054 -0.273,-0.07 -0.397,-0.136 -0.421,-0.223 0.181,-0.383 0.37,-0.453 0.419,-0.156 0.811,-0.38 1.246,-0.491 1.585,-0.407 3.182,-0.772 4.781,-1.122 3.339,-0.73 6.445,-2.153 9.708,-3.135 -1.031,-0.985 -1.8,-2.26 -2.49,-3.497 -0.271,-0.485 -1.704,-2.764 -0.515,-2.837 1.03,-0.065 1.719,2.135 1.77,2.882 0.043,0.619 -0.097,0.833 0.248,1.345 0.279,0.413 0.566,0.822 0.886,1.204 0,0.03 0.414,0.448 0.482,0.494 0.388,0.265 0.33,0.195 0.791,0.066 0.348,-0.097 0.699,-0.189 1.051,-0.269 1.329,-0.301 2.709,-0.402 4.071,-0.36 2.811,0.086 5.528,0.876 8.079,2.044 1.26,0.577 2.458,1.335 3.627,2.078 0.87,0.554 1.728,1.203 2.712,1.399 0.784,0.156 2.023,0.314 2.874,0.027 0.957,-0.323 1.707,-0.921 2.536,-1.477 -0.038,0.026 -0.005,0.001 0.1,-0.076 -0.355,-0.306 -0.608,-0.801 -1.005,-1.078 -2.512,-1.758 -5.384,-3.227 -8.146,-4.568 -1.511,-0.734 -3.042,-1.462 -4.614,-2.06 -1.275,-0.486 -2.709,-0.553 -4.063,-0.552 -0.884,0 -1.768,0.001 -2.652,0.003 -0.604,0.001 -1.562,0.153 -2.002,-0.381 -1.166,-1.417 2.335,-1.07 2.85,-1.012 2.342,0.266 4.529,0.776 6.675,1.671 -1.766,-1.722 -2.76,-4.012 -3.887,-6.164 -0.593,-1.129 -1.266,-2.214 -1.803,-3.374 -0.194,-0.418 -1.322,-2.178 -0.928,-2.607 0.369,-0.399 2.23,0.755 2.607,0.928 1.11,0.51 2.152,1.15 3.227,1.726 2.193,1.177 4.544,2.153 6.31,3.964 -0.84,-2.016 -1.367,-4.101 -1.632,-6.336 -0.052,-0.441 -0.515,-4.435 0.974,-3.188 0.53,0.443 0.382,1.399 0.381,2.001 -0.002,0.821 0,1.641 -0.003,2.463 -0.004,1.305 0.03,2.684 0.432,3.934 0.545,1.691 1.408,3.342 2.182,4.935 0.665,1.368 1.423,2.691 2.134,4.035 0.377,0.714 0.766,1.422 1.174,2.118 0.363,0.619 0.757,1.489 1.258,1.99 0.162,0.233 1.018,0.936 1.078,1.005 0.729,-1.035 1.646,-2.123 1.682,-3.438 0.029,-1.082 0.022,-2.165 -0.509,-3.092 -0.778,-1.356 -1.662,-2.646 -2.434,-4.007 -0.777,-1.37 -1.324,-2.827 -1.83,-4.316 -0.571,-1.682 -0.86,-3.376 -0.906,-5.154 -0.023,-0.904 0.022,-1.812 0.136,-2.711 0.107,-0.839 0.417,-1.64 0.534,-2.469 0.067,-0.471 0.039,-0.531 -0.338,-0.891 -0.086,-0.082 -0.172,-0.167 -0.261,-0.244 -0.372,-0.325 -0.789,-0.606 -1.197,-0.883 -0.482,-0.325 -0.658,-0.233 -1.217,-0.248 -0.722,-0.018 -1.405,-0.271 -2.012,-0.655 -0.378,-0.238 -1.487,-1.042 -0.792,-1.533 0.445,-0.316 1.481,0.32 1.873,0.521 1.497,0.766 3.078,1.674 4.248,2.898 1,-3.323 2.428,-6.484 3.173,-9.884 0.356,-1.628 0.705,-3.272 1.154,-4.876 0.113,-0.402 0.548,-1.042 0.548,-1.445 0,-0.019 0.034,-0.044 0.052,-0.044 -0.025,0.013 0.09,-0.026 0.092,-0.026 10e-4,0 0.115,0.038 0.091,0.026 0.019,0 0.051,0.026 0.051,0.044 0,0.394 0.441,1.062 0.548,1.445 0.449,1.604 0.798,3.249 1.154,4.876 0.746,3.4 2.173,6.561 3.173,9.884 0.986,-1.031 2.261,-1.799 3.497,-2.49 0.48,-0.268 2.813,-1.719 2.837,-0.495 0.023,1.072 -2.215,1.734 -3.016,1.754 -0.541,0.014 -0.754,-0.063 -1.21,0.244 -0.406,0.273 -0.859,0.541 -1.204,0.886 -0.014,0.015 -0.191,0.176 -0.263,0.246 -0.337,0.33 -0.38,0.358 -0.376,0.753 0.003,0.305 0.188,0.67 0.263,0.974 0.365,1.483 0.496,3.014 0.441,4.54 -0.102,2.859 -0.933,5.709 -2.189,8.276 -0.626,1.278 -1.406,2.496 -2.174,3.692 -0.33,0.514 -0.711,1.046 -0.966,1.602 -0.064,0.14 -0.117,0.283 -0.162,0.43 -0.148,0.486 -0.183,0.987 -0.203,1.491 -0.025,0.602 -0.01,1.23 0.194,1.804 0.336,0.94 0.939,1.707 1.509,2.515 0.186,-0.217 0.412,-0.394 0.644,-0.592 0.505,-0.43 0.812,-1.002 1.17,-1.566 0.94,-1.479 1.75,-3.037 2.568,-4.586 1.524,-2.889 3.443,-6.005 3.814,-9.293 0.203,-1.799 -0.12,-3.632 0.062,-5.426 0.046,-0.455 0.252,-1.311 0.903,-1.223 0.805,0.108 0.623,1.55 0.589,2.065 -0.177,2.671 -0.757,5.226 -1.773,7.663 1.722,-1.765 4.012,-2.759 6.163,-3.886 1.13,-0.592 2.215,-1.266 3.374,-1.803 0.417,-0.194 2.179,-1.322 2.607,-0.928 0.399,0.369 -0.754,2.23 -0.928,2.607 -0.509,1.111 -1.149,2.153 -1.726,3.227 -1.176,2.193 -2.153,4.544 -3.963,6.311 0.363,-0.152 0.921,-0.411 1.235,-0.489 1.247,-0.312 2.443,-0.775 3.748,-0.967 1.202,-0.179 2.949,-0.652 4.14,-0.273 0.591,0.188 0.796,0.707 0.314,1.144 -0.476,0.432 -1.325,0.308 -1.914,0.307 -1.462,-0.003 -2.972,-0.106 -4.427,0.054 -2.711,0.298 -5.329,1.715 -7.722,2.969 -2.429,1.272 -5.16,2.469 -7.326,4.154 -0.402,0.28 -0.656,0.774 -1.005,1.078 0.926,0.652 2.012,1.6 3.203,1.712 0.525,0.049 1.203,-0.044 1.718,-0.099 0.44,-0.046 0.879,-0.039 1.327,-0.279 1.418,-0.761 2.734,-1.705 4.131,-2.505 1.423,-0.815 2.922,-1.392 4.473,-1.92 3.218,-1.093 6.739,-1.217 10.023,-0.322 0.785,0.214 0.9,0.113 1.447,-0.513 0.326,-0.374 0.608,-0.793 0.887,-1.204 0.332,-0.492 0.213,-0.767 0.247,-1.345 0.043,-0.711 0.33,-1.425 0.734,-2.008 0.244,-0.353 0.991,-1.316 1.451,-0.661 0.32,0.455 -0.291,1.421 -0.498,1.828 -0.77,1.513 -1.685,3.112 -2.922,4.293 3.035,0.913 5.93,2.23 9.014,2.978 1.511,0.366 3.032,0.685 4.542,1.056 0.422,0.104 0.849,0.192 1.267,0.31 0.297,0.085 0.587,0.198 0.872,0.32 0.137,0.059 0.729,0.213 0.553,0.447" /></g><g
           transform="translate(95.6045,98.6636)"
           id="g44"
           style="display:none"><path
             id="path46"
             style="fill:#000000;fill-opacity:1;fill-rule:nonzero;stroke:none"
             d="M 0,0 V -0.001 Z" /></g><g
           transform="translate(103.1533,106.2119)"
           id="g48"
           style="display:none"><path
             id="path50"
             style="fill:#000000;fill-opacity:1;fill-rule:nonzero;stroke:none"
             d="M 0,0 H -0.001 C -0.001,0 0,0 0,0" /></g><g
           transform="translate(123.9775,112.5874)"
           id="g52"
           style="display:none"><path
             id="path54"
             style="fill:#000000;fill-opacity:1;fill-rule:nonzero;stroke:none"
             d="M 0,0 C 0.005,0.006 0.011,0.013 0.018,0.02 0.012,0.014 0.005,0.007 0,0" /></g><g
           transform="translate(95.6045,114.7085)"
           id="g56"
           style="display:none"><path
             id="path58"
             style="fill:#000000;fill-opacity:1;fill-rule:nonzero;stroke:none"
             d="M 0,0 V 0 -0.001 Z" /></g><g
           transform="translate(123.8516,79.0371)"
           id="g60"
           style="display:none"><path
             id="path62"
             style="fill:#000000;fill-opacity:1;fill-rule:nonzero;stroke:none"
             d="M 0,0 C -0.712,0.319 -1.514,-0.714 -0.916,-1.282 -0.124,-2.035 1.043,-0.468 0,0" /></g><g
           transform="translate(122.8027,134.7935)"
           id="g64"
           style="display:none"><path
             id="path66"
             style="fill:#000000;fill-opacity:1;fill-rule:nonzero;stroke:none"
             d="M 0,0 C 0.354,-0.75 1.667,-0.594 1.457,0.344 1.209,1.452 -0.546,0.973 0,0" /></g><g
           transform="translate(67.502,78.4893)"
           id="g68"
           style="display:none"><path
             id="path70"
             style="fill:#000000;fill-opacity:1;fill-rule:nonzero;stroke:none"
             d="M 0,0 C -0.374,0.857 -1.839,0.674 -1.452,-0.371 -1.125,-1.25 0.409,-0.934 0,0" /></g><g
           transform="translate(66.0654,134.6846)"
           id="g72"
           style="display:none"><path
             id="path74"
             style="fill:#000000;fill-opacity:1;fill-rule:nonzero;stroke:none"
             d="M 0,0 C 0.34,-0.733 1.358,-0.349 1.46,0.333 1.651,1.605 -0.518,1.132 0,0" /></g><g
           transform="translate(112.9814,83.0215)"
           id="g76"
           style="display:none"><path
             id="path78"
             style="fill:#000000;fill-opacity:1;fill-rule:nonzero;stroke:none"
             d="M 0,0 C -0.998,0.033 -0.967,-1.225 -0.123,-1.444 0.917,-1.716 0.996,-0.017 0,0" /></g><g
           transform="translate(77.2788,83.0215)"
           id="g80"
           style="display:none"><path
             id="path82"
             style="fill:#000000;fill-opacity:1;fill-rule:nonzero;stroke:none"
             d="M 0,0 C -0.988,-0.017 -0.926,-1.706 0.124,-1.444 0.964,-1.235 1.005,0.034 0,0" /></g><g
           transform="translate(120.2764,88.834)"
           id="g84"
           style="display:none"><path
             id="path86"
             style="fill:#000000;fill-opacity:1;fill-rule:nonzero;stroke:none"
             d="M 0,0 C -0.109,0.74 -1.208,1.151 -1.453,0.259 -1.761,-0.863 0.158,-1.059 0,0" /></g><g
           transform="translate(70.6504,88.1055)"
           id="g88"
           style="display:none"><path
             id="path90"
             style="fill:#000000;fill-opacity:1;fill-rule:nonzero;stroke:none"
             d="M 0,0 C 0.963,0 1.095,1.553 0.125,1.52 -0.695,1.491 -1.04,0 0,0" /></g><g
           transform="translate(119.1943,125.1626)"
           id="g92"
           style="display:none"><path
             id="path94"
             style="fill:#000000;fill-opacity:1;fill-rule:nonzero;stroke:none"
             d="M 0,0 C -0.77,-0.421 -0.283,-1.706 0.553,-1.328 1.482,-0.906 0.98,0.53 0,0" /></g><g
           transform="translate(69.9844,124.5371)"
           id="g96"
           style="display:none"><path
             id="path98"
             style="fill:#000000;fill-opacity:1;fill-rule:nonzero;stroke:none"
             d="M 0,0 C 0.102,-0.689 1.042,-1.133 1.4,-0.379 1.957,0.788 -0.17,1.134 0,0" /></g><g
           transform="translate(112.9521,130.3496)"
           id="g100"
           style="display:none"><path
             id="path102"
             style="fill:#000000;fill-opacity:1;fill-rule:nonzero;stroke:none"
             d="M 0,0 C 1.002,0 0.98,1.707 -0.094,1.445 -0.921,1.243 -0.982,0 0,0" /></g><g
           transform="translate(77.2788,130.3501)"
           id="g104"
           style="display:none"><path
             id="path106"
             style="fill:#000000;fill-opacity:1;fill-rule:nonzero;stroke:none"
             d="M 0,0 C 0.845,-0.026 1.012,0.934 0.358,1.336 -0.778,2.035 -1.141,0.018 0,0" /></g><g
           transform="translate(122.0859,80.4775)"
           id="g108"
           style="display:none"><path
             id="path110"
             style="fill:#000000;fill-opacity:1;fill-rule:nonzero;stroke:none"
             d="m 0,0 c 0.051,0 0.099,-0.044 0.141,-0.063 -0.864,0.785 -1.613,1.684 -2.456,2.491 -0.307,0.294 -0.707,0.819 -1.19,0.55 -0.71,-0.397 0.006,-1.076 0.334,-1.415 0.442,-0.458 0.896,-0.909 1.365,-1.339 0.153,-0.14 0.942,-1.086 1.1,-1.077 -0.013,-0.001 -0.04,0.093 -0.043,0.106 C -0.382,-1.824 1.08,-0.364 0,0" /></g><g
           transform="translate(71.8091,83.3643)"
           id="g112"
           style="display:none"><path
             id="path114"
             style="fill:#000000;fill-opacity:1;fill-rule:nonzero;stroke:none"
             d="m 0,0 c -0.52,0.577 -1.266,-0.414 -1.576,-0.72 -0.369,-0.364 -0.736,-0.726 -1.087,-1.109 -0.15,-0.163 -1.086,-0.913 -1.076,-1.099 -0.001,0.013 0.092,0.04 0.105,0.042 -1.074,-0.365 0.383,-1.828 0.747,-0.749 C -2.888,-3.686 -2.931,-3.732 -2.95,-3.775 -2.459,-3.236 0.864,-0.776 0,0" /></g><g
           transform="translate(118.4512,130.0073)"
           id="g116"
           style="display:none"><path
             id="path118"
             style="fill:#000000;fill-opacity:1;fill-rule:nonzero;stroke:none"
             d="M 0,0 C 0.521,-0.575 1.265,0.412 1.576,0.719 1.945,1.083 2.313,1.446 2.664,1.829 2.813,1.992 3.749,2.741 3.739,2.928 3.74,2.915 3.647,2.888 3.634,2.885 4.71,3.251 3.249,4.707 2.887,3.634 2.889,3.685 2.932,3.732 2.951,3.775 2.458,3.234 -0.862,0.779 0,0" /></g><g
           transform="translate(68.1743,132.8936)"
           id="g120"
           style="display:none"><path
             id="path122"
             style="fill:#000000;fill-opacity:1;fill-rule:nonzero;stroke:none"
             d="M 0,0 C 0.237,-0.282 1.472,-1.621 2.316,-2.428 2.621,-2.719 3.028,-3.25 3.513,-2.975 4.214,-2.576 3.497,-1.899 3.172,-1.563 2.729,-1.105 2.276,-0.654 1.806,-0.224 1.652,-0.083 0.747,0.76 0.749,0.747 -0.03,1.611 -0.849,0.775 0,0" /></g><g
           transform="translate(95.1309,105.2314)"
           id="g124"
           style="display:none"><path
             id="path126"
             style="fill:#000000;fill-opacity:1;fill-rule:nonzero;stroke:none"
             d="M 0,0 C -0.291,0.56 -0.9,1.161 -1.455,1.454 -0.897,1.745 -0.291,2.353 0,2.909 0.108,2.7 1.209,1.322 1.429,1.441 0.879,1.153 0.285,0.551 0,0 M 0.804,2.84 C 0.468,3.303 0.467,3.699 0.299,4.164 0.203,4.425 -0.016,4.764 -0.29,4.356 -0.402,4.188 -0.324,3.731 -0.413,3.505 -0.609,3.008 -0.962,2.565 -1.386,2.258 -1.85,1.923 -2.245,1.921 -2.71,1.753 -2.977,1.656 -3.333,1.42 -2.875,1.158 c 0.179,-0.103 0.591,-0.025 0.824,-0.116 0.546,-0.216 1.006,-0.601 1.317,-1.085 0.28,-0.436 0.282,-0.79 0.435,-1.212 0.083,-0.23 0.235,-0.578 0.535,-0.26 0.159,0.168 0.053,0.554 0.117,0.777 C 0.493,-0.24 0.902,0.28 1.301,0.591 1.742,0.937 2.17,0.987 2.637,1.16 2.796,1.22 3.513,1.519 2.906,1.741 2.655,1.848 2.334,1.755 2.05,1.867 1.554,2.063 1.11,2.416 0.804,2.84" /></g><g
           transform="translate(137.6719,106.6333)"
           id="g128"
           style="display:none"><path
             id="path130"
             style="fill:#000000;fill-opacity:1;fill-rule:nonzero;stroke:none"
             d="m 0,0 c -2.219,-0.339 -4.382,-0.8 -6.58,-1.242 -2.26,-0.454 -4.49,-1.345 -6.791,-1.543 -1.035,-0.089 -2.095,-0.052 -3.131,0.006 -0.887,0.05 -1.605,0.493 -2.419,0.836 -2.054,0.864 -4.046,1.631 -6.254,1.995 2.207,0.365 4.2,1.132 6.254,1.996 0.826,0.348 1.547,0.782 2.444,0.836 1.092,0.065 2.215,0.1 3.305,-0.012 C -10.937,2.641 -8.773,1.783 -6.57,1.345 -4.262,0.887 -1.982,0.432 0.342,0.052 0.228,0.035 0.113,0.018 0,0 m -13.307,-4.25 c -0.598,-0.176 -0.743,-0.33 -1.225,-0.064 -0.511,0.281 -0.977,0.672 -1.486,0.966 2.234,-0.057 4.181,0.19 6.334,0.808 0.955,0.274 1.925,0.494 2.898,0.694 0.137,0.028 0.592,0.092 1.103,0.174 -1.564,-0.432 -3.089,-0.966 -4.622,-1.541 -0.996,-0.375 -1.98,-0.736 -3.002,-1.037 m -3.18,-0.863 c -3.212,-0.637 -6.402,-0.152 -9.447,0.943 -2.608,0.938 -4.778,2.439 -7.166,3.823 3.428,0.042 6.838,0.326 10.177,-0.644 2.726,-0.793 5.701,-2.027 7.983,-3.735 -0.512,-0.145 -1.027,-0.282 -1.547,-0.387 M -32.958,0.53 c 2.646,1.614 5.082,3.102 8.03,4.093 3.239,1.089 6.703,1.141 9.989,0.208 -2.28,-1.709 -5.261,-2.945 -7.985,-3.735 -3.337,-0.969 -6.748,-0.689 -10.174,-0.644 0.047,0.026 0.093,0.052 0.14,0.078 m 18.683,4.111 c 1.708,-0.518 3.371,-1.09 5.039,-1.724 0.865,-0.329 1.732,-0.638 2.621,-0.9 0.304,-0.09 2.677,-0.471 2.77,-0.712 -1.943,0.449 -3.92,0.789 -5.839,1.34 -2.153,0.617 -4.097,0.864 -6.334,0.807 0.614,0.356 1.197,0.736 1.743,1.189 m 0.353,1.07 c -0.092,-0.094 -0.156,-0.163 -0.211,-0.216 0.047,0.049 0.114,0.117 0.211,0.216 M -38.107,0.002 c -2.043,-0.945 -3.572,-2.386 -4.434,-4.498 -0.864,2.106 -2.439,3.684 -4.549,4.548 2.111,0.856 3.685,2.447 4.549,4.549 0.86,-2.103 2.44,-3.692 4.548,-4.549 z m -4.135,-14.621 c 0.106,1.741 0.078,3.485 0.1,5.228 0.812,-1.401 1.725,-2.737 2.511,-4.154 0.673,-1.214 1.154,-2.534 1.606,-3.858 1.125,-3.298 1.214,-6.792 0.262,-10.146 -1.329,1.771 -2.145,3.815 -2.956,5.862 -0.864,2.178 -1.665,4.693 -1.523,7.068 m 2.509,-18.783 c -0.331,-0.874 -0.635,-1.753 -0.896,-2.651 -0.092,-0.318 0.174,1.502 0.756,3.506 0.595,2.051 0.786,3.947 0.731,6.076 0.097,-0.168 1.219,-1.641 1.184,-1.759 -0.521,-1.757 -1.126,-3.459 -1.775,-5.172 m -1.963,-4.542 c -0.394,-1.597 -0.582,-3.228 -0.845,-4.848 -0.346,2.135 -0.735,4.231 -1.187,6.346 -0.503,2.36 -1.389,4.743 -1.633,7.142 -0.105,1.032 -0.06,2.083 -0.018,3.119 0.034,0.85 0.298,1.338 0.635,2.128 0.942,2.209 1.81,4.363 2.203,6.743 0.315,-1.913 0.92,-3.649 1.655,-5.438 0.335,-0.814 0.829,-1.651 1.077,-2.491 0.171,-0.577 0.117,-1.256 0.131,-1.859 0.042,-1.69 -0.148,-3.283 -0.617,-4.911 -0.564,-1.96 -0.913,-3.954 -1.401,-5.931 m -4.111,5.759 c -0.375,0.996 -0.735,1.981 -1.036,3.002 -0.177,0.6 -0.331,0.743 -0.065,1.226 0.282,0.511 0.672,0.977 0.967,1.485 -0.043,-1.695 -0.002,-3.28 0.415,-4.934 0.355,-1.403 0.814,-2.96 1.078,-4.262 0.059,-0.29 -0.561,1.359 -1.359,3.483 m -1.9,6.184 c -0.638,3.211 -0.152,6.401 0.943,9.446 0.938,2.608 2.441,4.777 3.824,7.165 0.041,-3.427 0.326,-6.838 -0.645,-10.176 -0.793,-2.726 -2.026,-5.701 -3.735,-7.982 -0.145,0.51 -0.282,1.025 -0.387,1.547 m 4.766,35.497 c -0.812,1.4 -1.725,2.737 -2.511,4.154 -0.673,1.214 -1.154,2.534 -1.606,3.858 -1.125,3.297 -1.214,6.791 -0.262,10.146 1.329,-1.772 2.145,-3.816 2.956,-5.862 0.864,-2.178 1.664,-4.694 1.523,-7.068 -0.106,-1.741 -0.077,-3.485 -0.1,-5.228 m -2.409,24.01 c 0.332,0.875 0.635,1.753 0.895,2.652 0.094,0.323 0.43,2.499 0.661,2.591 -0.449,-1.943 -0.789,-3.92 -1.34,-5.839 -0.617,-2.153 -0.865,-4.097 -0.807,-6.334 -0.098,0.168 -1.22,1.64 -1.184,1.759 0.52,1.756 1.126,3.458 1.775,5.171 m 1.961,4.543 c 0.399,1.609 0.58,3.253 0.848,4.886 0.366,-2.268 0.801,-4.489 1.258,-6.739 0.458,-2.259 1.326,-4.494 1.562,-6.786 0.108,-1.045 0.062,-2.108 0.018,-3.155 -0.038,-0.915 -0.417,-1.575 -0.774,-2.419 -0.89,-2.106 -1.691,-4.152 -2.064,-6.418 -0.307,1.855 -0.878,3.54 -1.589,5.275 -0.311,0.76 -0.617,1.527 -0.962,2.272 -0.299,0.644 -0.283,1.233 -0.304,1.945 -0.054,1.826 0.114,3.495 0.621,5.251 0.56,1.944 0.908,3.924 1.386,5.888 m 4.114,-5.759 c 0.374,-0.997 0.735,-1.981 1.035,-3.002 0.177,-0.6 0.331,-0.744 0.064,-1.227 -0.281,-0.51 -0.671,-0.976 -0.966,-1.484 0.059,2.288 -0.225,4.26 -0.845,6.463 -0.257,0.912 -0.465,1.839 -0.656,2.768 -0.031,0.15 -0.092,0.591 -0.17,1.088 0.432,-1.56 0.963,-3.08 1.538,-4.606 m 1.899,-6.184 c 0.638,-3.211 0.152,-6.401 -0.943,-9.446 -0.938,-2.609 -2.441,-4.777 -3.824,-7.166 -0.041,3.428 -0.326,6.839 0.645,10.177 0.793,2.725 2.026,5.701 3.735,7.982 0.145,-0.511 0.282,-1.026 0.387,-1.547 m 8.253,-38.256 c -0.585,0.81 -1.387,1.632 -2.279,2.105 -0.366,0.193 -0.617,0.251 -0.923,0.551 -0.524,0.512 -1.029,1.04 -1.559,1.546 -1.115,1.062 -2.243,2.111 -3.362,3.168 2.783,-1.614 5.708,-3.118 8.537,-4.574 2.117,-1.19 3.216,-3.499 4.326,-5.563 1.154,-2.147 2.319,-4.277 3.314,-6.503 -2.321,1.045 -4.534,2.27 -6.78,3.464 -1.867,0.994 -4.377,2.151 -5.296,4.193 -0.637,1.334 -1.418,2.705 -2.131,4.039 -0.802,1.499 -1.58,3.011 -2.434,4.481 0.272,-0.286 0.544,-0.572 0.812,-0.861 0.991,-1.089 2.003,-2.173 3.047,-3.212 0.394,-0.392 0.93,-0.804 1.189,-1.263 0.118,-0.209 0.183,-0.448 0.306,-0.658 0.304,-0.525 3.421,-3.849 4.03,-2.787 0.221,0.386 -0.621,1.631 -0.797,1.874 m -18.845,5.868 c -0.717,-1.31 -1.412,-2.633 -2.116,-3.95 -0.35,-0.653 -0.672,-1.318 -0.986,-1.989 -0.249,-0.533 -0.64,-1.023 -0.868,-1.542 -0.954,-2.042 -3.411,-3.188 -5.296,-4.193 -2.245,-1.195 -4.459,-2.42 -6.78,-3.464 1.043,2.321 2.27,4.534 3.465,6.779 1.003,1.888 2.149,4.343 4.192,5.296 0.56,0.237 1.104,0.664 1.677,0.933 0.802,0.376 1.581,0.782 2.362,1.199 1.499,0.801 3.01,1.58 4.481,2.433 -1.12,-1.057 -2.247,-2.106 -3.362,-3.168 -0.553,-0.527 -1.071,-1.207 -1.682,-1.666 -0.277,-0.207 -0.478,-0.261 -0.799,-0.43 -0.924,-0.489 -1.794,-1.366 -2.369,-2.226 -0.167,-0.249 -0.939,-1.435 -0.688,-1.784 0.305,-0.427 1.452,0.34 1.746,0.519 0.914,0.559 1.845,1.491 2.351,2.444 0.168,0.317 0.223,0.529 0.432,0.803 0.436,0.572 1.067,1.054 1.563,1.574 1.098,1.151 2.18,2.315 3.272,3.471 -0.2,-0.345 -0.402,-0.69 -0.595,-1.039 m -5.487,6.73 c -1.682,0 -3.406,-0.22 -5.078,-0.033 -1.405,0.158 -2.854,0.397 -4.193,0.862 -2.552,0.888 -5.241,1.925 -7.417,3.554 3.332,0.943 6.806,0.868 10.087,-0.242 2.98,-1.007 5.369,-2.57 8.073,-4.138 -0.491,-0.006 -0.981,-0.003 -1.472,-0.003 m 1.33,-0.874 c -2.647,-1.612 -5.082,-3.101 -8.03,-4.092 -3.239,-1.089 -6.703,-1.141 -9.988,-0.209 2.279,1.71 5.26,2.946 7.984,3.736 3.337,0.968 6.747,0.688 10.174,0.644 -0.047,-0.027 -0.094,-0.052 -0.14,-0.079 m -18.683,-4.11 c -1.709,0.513 -3.371,1.09 -5.039,1.723 -0.865,0.33 -1.65,0.431 -2.538,0.692 -0.302,0.09 -2.761,0.681 -2.853,0.919 2.049,-0.3 3.984,-0.862 5.957,-1.388 2.045,-0.546 4.081,-1.007 6.215,-0.758 -0.614,-0.356 -1.196,-0.735 -1.742,-1.188 m -14.541,4.595 c 2.123,0.341 4.206,0.734 6.309,1.179 2.308,0.489 4.62,1.334 6.958,1.612 1.09,0.13 2.2,0.086 3.293,0.041 0.9,-0.038 1.467,-0.351 2.301,-0.705 2.157,-0.916 4.259,-1.75 6.58,-2.134 -2.089,-0.344 -3.981,-1.046 -5.928,-1.859 -0.682,-0.284 -1.393,-0.72 -2.098,-0.911 -0.722,-0.196 -1.667,-0.103 -2.415,-0.105 -1.938,-0.005 -3.677,0.516 -5.537,0.993 -2.064,0.531 -4.192,1.035 -6.295,1.383 -1.056,0.169 -2.112,0.333 -3.168,0.506 m 10.57,3.259 c 0.996,0.374 1.981,0.735 3.002,1.036 0.599,0.177 0.743,0.331 1.227,0.064 0.51,-0.281 0.976,-0.671 1.485,-0.966 -1.771,0.046 -3.391,-0.016 -5.111,-0.46 -1.344,-0.347 -2.844,-0.781 -4.086,-1.033 -0.287,-0.059 -2.85,-0.751 -2.974,-0.637 0.42,0.403 4.333,1.198 6.457,1.996 m 18.73,9.057 c 0.58,-0.867 1.441,-1.734 2.369,-2.226 0.314,-0.166 0.529,-0.217 0.799,-0.43 0.533,-0.421 0.975,-0.989 1.464,-1.46 1.182,-1.137 2.388,-2.249 3.581,-3.375 -2.773,1.608 -5.685,3.148 -8.521,4.566 -2.041,0.986 -3.177,3.39 -4.192,5.296 -1.196,2.244 -2.424,4.457 -3.465,6.778 2.225,-0.997 4.356,-2.16 6.503,-3.314 1.887,-1.014 4.689,-2.201 5.564,-4.325 l 0.009,-0.017 c 1.568,-2.775 2.949,-5.734 4.564,-8.52 -0.271,0.286 -0.543,0.571 -0.811,0.86 -1.029,1.132 -2.081,2.26 -3.17,3.333 -0.461,0.455 -0.859,0.836 -1.151,1.369 -0.142,0.258 -0.247,0.484 -0.42,0.734 -0.321,0.461 -3.225,3.493 -3.831,2.484 -0.199,-0.331 0.529,-1.487 0.708,-1.753 m 18.934,-5.988 c 0.717,1.31 1.412,2.633 2.116,3.949 0.35,0.654 0.672,1.318 0.985,1.99 0.25,0.532 0.642,1.024 0.869,1.542 0.919,2.041 3.43,3.198 5.296,4.192 2.245,1.196 4.457,2.424 6.78,3.464 -1.039,-2.322 -2.271,-4.534 -3.464,-6.778 -1.004,-1.888 -2.151,-4.343 -4.193,-5.296 -0.561,-0.247 -1.099,-0.662 -1.677,-0.933 -0.802,-0.377 -1.58,-0.782 -2.362,-1.2 -1.499,-0.801 -3.01,-1.58 -4.481,-2.433 1.192,1.126 2.398,2.238 3.58,3.375 0.489,0.471 0.932,1.039 1.465,1.46 0.269,0.213 0.484,0.264 0.799,0.43 0.927,0.492 1.789,1.361 2.368,2.226 0.19,0.284 0.981,1.462 0.659,1.82 -0.312,0.345 -1.295,-0.31 -1.59,-0.477 -0.963,-0.542 -1.952,-1.535 -2.475,-2.518 -0.164,-0.305 -0.233,-0.54 -0.435,-0.808 -0.405,-0.538 -0.991,-0.976 -1.46,-1.464 -1.137,-1.182 -2.249,-2.388 -3.375,-3.58 0.2,0.345 0.401,0.689 0.595,1.039 M 2.44,0.129 C 2.386,0.19 2.293,0.242 2.223,0.269 1.842,0.412 1.49,0.597 1.099,0.711 0.663,0.838 0.219,0.929 -0.222,1.037 c -1.509,0.371 -3.031,0.69 -4.542,1.056 -3.084,0.748 -5.979,2.065 -9.012,2.977 1.029,0.986 1.798,2.261 2.489,3.497 0.268,0.482 1.721,2.812 0.495,2.838 -1.073,0.021 -1.734,-2.216 -1.755,-3.017 -0.014,-0.541 0.065,-0.754 -0.243,-1.211 -0.146,-0.215 -0.674,-1.203 -0.887,-1.203 0.002,0 -0.323,-0.337 -0.469,-0.489 -0.144,-0.136 -0.22,-0.153 -0.529,-0.15 -0.577,0.006 -1.275,0.349 -1.856,0.457 -1.459,0.272 -2.963,0.311 -4.44,0.204 -2.624,-0.19 -5.321,-1.04 -7.666,-2.235 -1.173,-0.597 -2.299,-1.301 -3.406,-2.011 -0.471,-0.301 -0.941,-0.6 -1.428,-0.875 -0.571,-0.325 -1.773,-0.418 -1.963,-0.436 -0.179,-0.003 -0.39,-0.044 -0.585,-0.053 -0.382,-0.018 -0.712,-0.053 -1.082,0.026 -1.064,0.228 -1.92,0.971 -2.798,1.559 0.038,-0.025 0.004,0 -0.1,0.077 0.353,0.306 0.608,0.802 1.005,1.077 0.501,0.502 1.371,0.896 1.989,1.258 0.697,0.409 1.405,0.797 2.118,1.175 1.346,0.712 2.669,1.471 4.038,2.136 1.598,0.775 3.252,1.642 4.949,2.183 1.302,0.416 2.753,0.437 4.109,0.426 0.867,-0.007 1.734,-0.002 2.602,-0.002 0.557,0 1.551,-0.082 1.806,0.574 0.57,1.461 -2.923,0.83 -3.492,0.762 -2.175,-0.259 -4.187,-0.786 -6.167,-1.612 1.766,1.722 2.759,4.012 3.888,6.163 0.592,1.13 1.265,2.215 1.801,3.374 0.195,0.418 1.323,2.179 0.928,2.607 -0.368,0.4 -2.229,-0.754 -2.606,-0.927 -1.111,-0.51 -2.153,-1.151 -3.228,-1.727 -2.192,-1.176 -4.544,-2.152 -6.309,-3.963 0.894,2.145 1.404,4.334 1.67,6.675 0.062,0.544 0.386,4.018 -1.012,2.849 -0.531,-0.444 -0.382,-1.388 -0.381,-2.001 0.002,-0.885 0.003,-1.769 0.003,-2.653 10e-4,-1.356 -0.066,-2.796 -0.555,-4.072 -0.599,-1.569 -1.326,-3.098 -2.059,-4.608 -0.665,-1.367 -1.423,-2.691 -2.134,-4.034 -0.728,-1.375 -1.479,-2.882 -2.433,-4.109 -0.275,-0.394 -0.772,-0.65 -1.077,-1.004 -0.567,0.807 -1.173,1.577 -1.511,2.521 -0.176,0.493 -0.173,0.843 -0.152,1.358 0.009,0.222 0.051,0.476 0.055,0.686 0.017,0.156 0.079,1.327 0.354,1.824 0.276,0.495 0.576,0.976 0.882,1.453 0.735,1.145 1.467,2.307 2.085,3.52 1.195,2.347 2.041,5.041 2.234,7.666 0.105,1.416 0.075,2.86 -0.169,4.262 -0.112,0.648 -0.485,1.389 -0.491,2.034 -0.004,0.395 0.04,0.424 0.378,0.754 0.025,0.023 0.231,0.244 0.261,0.244 0.382,0.32 0.791,0.608 1.203,0.886 0.485,0.328 0.653,0.23 1.211,0.244 0.819,0.021 3.019,0.676 3.017,1.755 -0.003,1.22 -2.373,-0.236 -2.837,-0.495 -1.237,-0.69 -2.513,-1.461 -3.497,-2.49 -0.914,3.034 -2.23,5.929 -2.978,9.013 -0.366,1.511 -0.685,3.032 -1.056,4.542 -0.118,0.48 -0.214,0.965 -0.361,1.437 -0.1,0.321 -0.49,1.698 -0.862,1 -0.399,-0.751 -0.545,-1.62 -0.746,-2.437 -0.371,-1.51 -0.69,-3.031 -1.057,-4.542 -0.748,-3.083 -2.064,-5.979 -2.977,-9.013 -1.044,1.092 -2.41,1.894 -3.725,2.616 -0.528,0.289 -1.086,0.617 -1.669,0.778 -0.646,0.178 -1.173,-0.115 -0.763,-0.807 0.329,-0.556 1.211,-0.97 1.8,-1.171 0.609,-0.207 1.216,0.003 1.783,-0.122 0.528,-0.116 1.41,-0.962 1.697,-1.215 0.277,-0.245 0.627,-0.51 0.654,-0.84 0.024,-0.297 -0.235,-0.83 -0.304,-1.111 -0.211,-0.854 -0.342,-1.716 -0.406,-2.593 -0.128,-1.766 -0.034,-3.614 0.39,-5.337 0.79,-3.215 2.33,-6.034 4.086,-8.807 0.388,-0.611 0.829,-1.263 1.019,-1.94 0.068,-0.243 0.041,-0.518 0.074,-0.752 0.049,-0.339 0.037,-0.697 0.05,-1.042 0.055,-1.412 -0.678,-2.756 -1.603,-3.803 -0.308,0.097 -0.998,0.729 -1.137,0.928 -0.469,0.468 -0.833,1.277 -1.178,1.852 -0.442,0.738 -0.853,1.496 -1.255,2.257 -0.711,1.344 -1.471,2.668 -2.136,4.037 -0.734,1.512 -1.463,3.043 -2.061,4.614 -0.485,1.276 -0.551,2.71 -0.551,4.063 0.001,0.885 0.002,1.769 0.003,2.653 0.001,0.604 0.153,1.562 -0.38,2.001 -1.417,1.166 -1.071,-2.335 -1.013,-2.849 0.267,-2.342 0.776,-4.529 1.67,-6.675 -1.721,1.765 -4.011,2.759 -6.163,3.887 -1.129,0.592 -2.215,1.266 -3.373,1.803 -0.418,0.194 -2.179,1.322 -2.607,0.927 -0.4,-0.368 0.754,-2.229 0.927,-2.607 0.51,-1.11 1.15,-2.152 1.727,-3.227 1.176,-2.192 2.152,-4.544 3.963,-6.31 -2.146,0.894 -4.334,1.404 -6.675,1.67 -0.544,0.062 -4.018,0.387 -2.849,-1.012 0.443,-0.531 1.387,-0.382 2.001,-0.38 0.884,0.002 1.769,0.002 2.653,0.003 1.355,0 2.795,-0.067 4.072,-0.555 1.569,-0.599 3.098,-1.326 4.608,-2.06 1.368,-0.664 2.69,-1.422 4.035,-2.133 1.318,-0.698 2.996,-1.433 4.108,-2.433 0.239,-0.167 0.934,-1.017 1.004,-1.077 -0.105,-0.077 -0.138,-0.102 -0.098,-0.075 -1.128,-0.756 -2.128,-1.597 -3.532,-1.595 -0.378,0 -0.748,0.03 -1.113,0.059 -0.502,0.04 -1.015,0.014 -1.506,0.277 -1.364,0.732 -2.63,1.642 -3.973,2.414 -1.382,0.795 -2.814,1.379 -4.318,1.902 -3.332,1.16 -6.917,1.361 -10.334,0.431 -0.44,-0.12 -0.593,-0.231 -0.967,0.019 -0.176,0.118 -0.343,0.335 -0.481,0.494 -0.324,0.371 -0.607,0.789 -0.883,1.197 -0.325,0.481 -0.233,0.658 -0.247,1.217 -0.019,0.721 -0.273,1.404 -0.656,2.012 -0.239,0.378 -1.042,1.486 -1.534,0.792 -0.314,-0.445 0.321,-1.481 0.522,-1.873 0.766,-1.497 1.675,-3.079 2.898,-4.249 -3.204,-0.964 -6.258,-2.361 -9.532,-3.097 -1.565,-0.352 -3.125,-0.715 -4.683,-1.095 -0.384,-0.094 -0.752,-0.235 -1.12,-0.376 -0.178,-0.068 -1.004,-0.243 -0.924,-0.477 0.062,-0.182 0.373,-0.228 0.527,-0.281 1.043,-0.364 2.09,-0.672 3.165,-0.926 0.949,-0.225 1.901,-0.469 2.859,-0.649 3.339,-0.73 6.445,-2.153 9.708,-3.135 -1.03,-0.985 -1.799,-2.26 -2.49,-3.497 -0.27,-0.485 -1.704,-2.764 -0.515,-2.837 1.03,-0.065 1.719,2.135 1.77,2.882 0.043,0.619 -0.097,0.833 0.249,1.345 0.278,0.413 0.565,0.823 0.886,1.204 0,0.068 0.651,0.701 0.724,0.721 0.409,0.108 1.529,-0.421 1.953,-0.506 1.276,-0.255 2.598,-0.329 3.897,-0.278 2.789,0.109 5.54,0.916 8.057,2.113 1.254,0.596 2.452,1.351 3.62,2.099 0.859,0.551 1.673,1.199 2.669,1.288 0.818,0.073 1.875,0.343 2.766,0.042 0.955,-0.322 1.708,-0.922 2.536,-1.477 -0.038,0.026 -0.004,10e-4 0.1,-0.076 -0.355,-0.306 -0.608,-0.801 -1.004,-1.078 -2.513,-1.758 -5.385,-3.227 -8.146,-4.568 -1.512,-0.734 -3.043,-1.462 -4.615,-2.06 -1.275,-0.486 -2.709,-0.553 -4.063,-0.552 -0.884,0 -1.768,0.001 -2.652,0.003 -0.604,0.001 -1.562,0.153 -2.001,-0.381 -1.166,-1.417 2.335,-1.07 2.849,-1.012 2.342,0.266 4.529,0.776 6.675,1.671 -1.766,-1.722 -2.759,-4.012 -3.887,-6.163 -0.593,-1.13 -1.266,-2.215 -1.803,-3.375 -0.194,-0.417 -1.322,-2.179 -0.928,-2.607 0.369,-0.399 2.23,0.755 2.608,0.928 1.11,0.51 2.152,1.15 3.226,1.726 2.194,1.177 4.545,2.153 6.31,3.964 -0.839,-2.016 -1.366,-4.101 -1.631,-6.336 -0.053,-0.441 -0.516,-4.435 0.974,-3.188 0.529,0.443 0.381,1.399 0.38,2.001 -10e-4,0.821 0,1.641 -0.003,2.463 -0.004,1.305 0.03,2.684 0.433,3.934 0.545,1.691 1.407,3.342 2.181,4.935 0.665,1.368 1.423,2.691 2.134,4.035 0.378,0.714 0.767,1.422 1.174,2.118 0.363,0.619 0.757,1.489 1.259,1.99 0.161,0.233 1.017,0.936 1.077,1.005 0.729,-1.035 1.646,-2.123 1.682,-3.438 0.029,-1.081 0.022,-2.165 -0.509,-3.092 -0.778,-1.356 -1.662,-2.646 -2.434,-4.007 -0.777,-1.37 -1.324,-2.827 -1.829,-4.316 -0.572,-1.682 -0.861,-3.376 -0.907,-5.154 -0.023,-0.904 0.022,-1.812 0.137,-2.711 0.106,-0.839 0.417,-1.64 0.534,-2.468 0.066,-0.472 0.038,-0.532 -0.339,-0.892 -0.086,-0.082 -0.172,-0.167 -0.261,-0.244 -0.371,-0.325 -0.789,-0.606 -1.197,-0.883 -0.482,-0.325 -0.657,-0.233 -1.217,-0.248 -0.722,-0.018 -1.404,-0.271 -2.012,-0.655 -0.378,-0.238 -1.486,-1.042 -0.792,-1.533 0.445,-0.316 1.481,0.32 1.873,0.521 1.497,0.766 3.079,1.674 4.248,2.898 1,-3.323 2.429,-6.484 3.173,-9.884 0.357,-1.628 0.705,-3.272 1.155,-4.876 0.112,-0.402 0.547,-1.042 0.547,-1.445 0,-0.019 0.035,-0.044 0.052,-0.044 -0.024,0.013 0.09,-0.026 0.092,-0.026 10e-4,0 0.115,0.038 0.091,0.026 0.019,0 0.052,0.026 0.052,0.044 0,0.394 0.44,1.062 0.547,1.445 0.45,1.604 0.798,3.249 1.155,4.876 0.745,3.4 2.173,6.561 3.173,9.884 0.985,-1.031 2.259,-1.799 3.497,-2.49 0.479,-0.268 2.812,-1.719 2.837,-0.495 0.022,1.072 -2.215,1.734 -3.017,1.754 -0.541,0.015 -0.754,-0.063 -1.21,0.244 -0.405,0.273 -0.858,0.541 -1.204,0.886 -0.136,0.136 -0.389,0.307 -0.494,0.481 -0.247,0.41 -0.2,0.311 -0.067,0.792 0.098,0.348 0.19,0.699 0.269,1.051 0.339,1.496 0.424,3.051 0.339,4.58 -0.153,2.768 -1.001,5.585 -2.26,8.057 -0.618,1.213 -1.35,2.375 -2.085,3.52 -0.334,0.52 -0.694,1.045 -0.966,1.603 -0.157,0.324 -0.126,0.297 -0.201,0.566 0.004,0.091 0.013,0.181 0.028,0.27 0.045,0.121 -0.002,0.213 -0.139,0.277 -0.056,0.892 -0.137,1.879 0.187,2.732 0.339,0.889 0.919,1.622 1.463,2.394 0.187,-0.217 0.412,-0.394 0.645,-0.592 0.505,-0.429 0.811,-1.001 1.17,-1.566 0.939,-1.479 1.75,-3.037 2.567,-4.586 1.524,-2.889 3.443,-6.005 3.814,-9.293 0.204,-1.799 -0.12,-3.632 0.062,-5.426 0.046,-0.455 0.252,-1.311 0.903,-1.223 0.805,0.108 0.623,1.55 0.589,2.065 -0.177,2.671 -0.757,5.226 -1.772,7.663 1.721,-1.765 4.011,-2.759 6.163,-3.886 1.13,-0.592 2.215,-1.266 3.374,-1.803 0.417,-0.194 2.178,-1.322 2.606,-0.928 0.4,0.369 -0.754,2.23 -0.928,2.607 -0.508,1.111 -1.149,2.153 -1.726,3.227 -1.176,2.193 -2.152,4.544 -3.963,6.311 0.363,-0.152 0.921,-0.411 1.235,-0.489 1.247,-0.312 2.444,-0.775 3.748,-0.967 1.203,-0.179 2.95,-0.652 4.14,-0.273 0.591,0.188 0.796,0.707 0.315,1.144 -0.477,0.432 -1.326,0.308 -1.916,0.307 -1.46,-0.003 -2.971,-0.106 -4.425,0.054 -2.711,0.298 -5.329,1.715 -7.723,2.969 -2.429,1.272 -5.16,2.469 -7.326,4.154 -0.402,0.28 -0.655,0.774 -1.005,1.078 0.927,0.652 2.013,1.6 3.203,1.712 0.525,0.05 2.597,-0.138 3.045,-0.378 1.417,-0.761 2.734,-1.705 4.131,-2.505 1.424,-0.815 2.923,-1.392 4.474,-1.92 3.217,-1.093 6.739,-1.216 10.022,-0.322 0.785,0.214 0.9,0.113 1.447,-0.513 0.326,-0.374 0.609,-0.793 0.887,-1.204 0.332,-0.492 0.213,-0.767 0.247,-1.345 0.043,-0.711 0.33,-1.425 0.734,-2.008 0.245,-0.353 0.992,-1.316 1.452,-0.661 0.319,0.455 -0.291,1.421 -0.498,1.828 -0.771,1.513 -1.686,3.112 -2.922,4.293 3.034,0.913 5.929,2.23 9.013,2.978 1.511,0.366 3.033,0.685 4.542,1.056 0.447,0.11 0.898,0.202 1.34,0.331 0.446,0.132 0.861,0.33 1.284,0.52 0.092,0.041 0.105,0.135 0.038,0.21" /></g><g
           transform="translate(95.0303,151.6987)"
           id="g132"
           style="display:none"><path
             id="path134"
             style="fill:#000000;fill-opacity:1;fill-rule:nonzero;stroke:none"
             d="m 0,0 c -0.004,0 -0.009,-0.004 -0.013,-0.004 h 0.009 c 0,0 0,0.004 0.004,0.004" /></g><g
           transform="translate(123.8516,79.0371)"
           id="g136"
           style="display:none"><path
             id="path138"
             style="fill:#000000;fill-opacity:1;fill-rule:nonzero;stroke:none"
             d="M 0,0 C -0.712,0.319 -1.514,-0.714 -0.916,-1.282 -0.125,-2.035 1.043,-0.468 0,0" /></g><g
           transform="translate(124.2598,135.1377)"
           id="g140"
           style="display:none"><path
             id="path142"
             style="fill:#000000;fill-opacity:1;fill-rule:nonzero;stroke:none"
             d="M 0,0 C -0.248,1.107 -2.003,0.628 -1.457,-0.344 -1.104,-1.095 0.21,-0.938 0,0" /></g><g
           transform="translate(66.0503,78.1182)"
           id="g144"
           style="display:none"><path
             id="path146"
             style="fill:#000000;fill-opacity:1;fill-rule:nonzero;stroke:none"
             d="M 0,0 C 0.326,-0.879 1.86,-0.562 1.452,0.371 1.078,1.229 -0.388,1.045 0,0" /></g><g
           transform="translate(67.5259,135.0166)"
           id="g148"
           style="display:none"><path
             id="path150"
             style="fill:#000000;fill-opacity:1;fill-rule:nonzero;stroke:none"
             d="M 0,0 C 0.191,1.273 -1.978,0.8 -1.46,-0.332 -1.12,-1.065 -0.102,-0.681 0,0" /></g><g
           transform="translate(112.9814,83.0215)"
           id="g152"
           style="display:none"><path
             id="path154"
             style="fill:#000000;fill-opacity:1;fill-rule:nonzero;stroke:none"
             d="M 0,0 C -0.998,0.033 -0.967,-1.225 -0.123,-1.444 0.917,-1.716 0.996,-0.017 0,0" /></g><g
           transform="translate(77.6582,82.9404)"
           id="g156"
           style="display:none"><path
             id="path158"
             style="fill:#000000;fill-opacity:1;fill-rule:nonzero;stroke:none"
             d="M 0,0 C -1.077,0.516 -1.56,-1.407 -0.468,-1.407 0.27,-1.407 0.771,-0.37 0,0" /></g><g
           transform="translate(119.1943,88.209)"
           id="g160"
           style="display:none"><path
             id="path162"
             style="fill:#000000;fill-opacity:1;fill-rule:nonzero;stroke:none"
             d="M 0,0 C 0.904,-0.488 1.493,0.782 0.635,1.281 -0.22,1.777 -0.819,0.448 0,0" /></g><g
           transform="translate(70.7749,89.625)"
           id="g164"
           style="display:none"><path
             id="path166"
             style="fill:#000000;fill-opacity:1;fill-rule:nonzero;stroke:none"
             d="M 0,0 C -0.82,-0.028 -1.165,-1.52 -0.125,-1.52 0.838,-1.52 0.971,0.033 0,0" /></g><g
           transform="translate(119.1943,125.1626)"
           id="g168"
           style="display:none"><path
             id="path170"
             style="fill:#000000;fill-opacity:1;fill-rule:nonzero;stroke:none"
             d="M 0,0 C -0.77,-0.421 -0.283,-1.706 0.553,-1.328 1.482,-0.906 0.98,0.53 0,0" /></g><g
           transform="translate(71.0664,125.1626)"
           id="g172"
           style="display:none"><path
             id="path174"
             style="fill:#000000;fill-opacity:1;fill-rule:nonzero;stroke:none"
             d="M 0,0 C -0.974,0.526 -1.498,-0.913 -0.553,-1.328 0.277,-1.692 0.778,-0.426 0,0" /></g><g
           transform="translate(112.9521,130.3496)"
           id="g176"
           style="display:none"><path
             id="path178"
             style="fill:#000000;fill-opacity:1;fill-rule:nonzero;stroke:none"
             d="M 0,0 C 1.002,0 0.98,1.707 -0.094,1.445 -0.921,1.243 -0.982,0 0,0" /></g><g
           transform="translate(77.2788,130.3501)"
           id="g180"
           style="display:none"><path
             id="path182"
             style="fill:#000000;fill-opacity:1;fill-rule:nonzero;stroke:none"
             d="M 0,0 C 0.845,-0.026 1.012,0.934 0.358,1.336 -0.778,2.035 -1.141,0.018 0,0" /></g><g
           transform="translate(122.0859,80.4775)"
           id="g184"
           style="display:none"><path
             id="path186"
             style="fill:#000000;fill-opacity:1;fill-rule:nonzero;stroke:none"
             d="m 0,0 c 0.051,0 0.099,-0.044 0.141,-0.063 -0.864,0.785 -1.613,1.684 -2.456,2.491 -0.307,0.294 -0.707,0.819 -1.191,0.55 -0.709,-0.397 0.007,-1.076 0.334,-1.415 0.443,-0.458 0.897,-0.909 1.366,-1.339 0.153,-0.14 0.942,-1.086 1.1,-1.077 -0.013,-0.001 -0.04,0.093 -0.043,0.106 0.02,-0.058 0.044,-0.105 0.069,-0.149 v 0.001 -0.001 C -0.23,-1.667 1.022,-0.345 0,0" /></g><g
           transform="translate(70.2334,82.6445)"
           id="g188"
           style="display:none"><path
             id="path190"
             style="fill:#000000;fill-opacity:1;fill-rule:nonzero;stroke:none"
             d="m 0,0 c -0.37,-0.364 -0.736,-0.727 -1.087,-1.109 -0.15,-0.163 -1.086,-0.913 -1.077,-1.099 0,0.013 0.093,0.04 0.106,0.042 -1.074,-0.365 0.383,-1.828 0.747,-0.749 -0.001,-0.051 -0.044,-0.098 -0.064,-0.141 0.492,0.539 3.815,2.999 2.951,3.776 C 1.056,1.297 0.31,0.306 0,0" /></g><g
           transform="translate(120.0273,130.7266)"
           id="g192"
           style="display:none"><path
             id="path194"
             style="fill:#000000;fill-opacity:1;fill-rule:nonzero;stroke:none"
             d="M 0,0 C 0.369,0.364 0.736,0.727 1.088,1.109 1.237,1.273 2.173,2.021 2.163,2.208 2.164,2.195 2.071,2.168 2.058,2.166 3.076,2.513 1.823,3.831 1.38,3.063 c 0,0 -10e-4,-0.001 -10e-4,-0.001 V 3.063 C 1.354,3.02 1.33,2.973 1.311,2.915 1.312,2.966 1.355,3.013 1.375,3.056 0.882,2.515 -2.438,0.06 -1.576,-0.719 -1.055,-1.294 -0.312,-0.307 0,0" /></g><g
           transform="translate(68.1743,132.8936)"
           id="g196"
           style="display:none"><path
             id="path198"
             style="fill:#000000;fill-opacity:1;fill-rule:nonzero;stroke:none"
             d="M 0,0 C -0.05,0.001 -0.097,0.044 -0.141,0.063 0.723,-0.722 1.472,-1.621 2.316,-2.428 2.621,-2.719 3.028,-3.25 3.512,-2.975 4.214,-2.576 3.497,-1.899 3.172,-1.563 2.729,-1.105 2.276,-0.654 1.806,-0.224 1.652,-0.083 0.867,0.861 0.707,0.853 0.719,0.854 0.747,0.76 0.749,0.747 0.729,0.805 0.705,0.852 0.68,0.896 c 0,-0.001 0,0 0.001,-0.001 0,0 -0.001,0.001 -0.001,0.001 C 0.232,1.665 -1.015,0.342 0,0" /></g><g
           transform="translate(95.578102,59.319301)"
           id="g252"
           style="display:none"><path
             id="path254"
             style="fill:#000000;fill-opacity:1;fill-rule:nonzero;stroke:none"
             d="M 0,0 C -0.766,0.436 -1.653,-0.436 -1.361,-1.219 -0.785,-2.766 1.646,-0.931 0,0" /></g><g
           id="g1"
           style="display:none"><g
             transform="translate(94.9175,154.5596)"
             id="g200"
             style="display:inline"><path
               id="path202"
               style="fill:#000000;fill-opacity:1;fill-rule:nonzero;stroke:none"
               d="M 0,0 C -0.567,-0.214 -0.428,-1.137 0.213,-1.072 1.08,-1.16 0.875,0.331 0,0" /></g><g
             transform="translate(95.1309,158.999)"
             id="g204"
             style="display:inline"><path
               id="path206"
               style="fill:#000000;fill-opacity:1;fill-rule:nonzero;stroke:none"
               d="M 0,0 C -0.882,0 -0.783,-1.261 0,-1.092 0.781,-1.262 0.877,0 0,0" /></g><g
             transform="translate(95.1387,165.6631)"
             id="g208"
             style="display:inline"><path
               id="path210"
               style="fill:#000000;fill-opacity:1;fill-rule:nonzero;stroke:none"
               d="M 0,0 C -0.727,0 -0.798,-1.021 -0.087,-1.112 0.698,-1.213 0.827,0 0,0" /></g><g
             transform="translate(95.041,162.4136)"
             id="g212"
             style="display:inline"><path
               id="path214"
               style="fill:#000000;fill-opacity:1;fill-rule:nonzero;stroke:none"
               d="M 0,0 C 0.785,-0.102 0.914,1.112 0.087,1.112 -0.64,1.112 -0.711,0.092 0,0" /></g><g
             transform="translate(95.1396,161.2529)"
             id="g216"
             style="display:inline"><path
               id="path218"
               style="fill:#000000;fill-opacity:1;fill-rule:nonzero;stroke:none"
               d="M 0,0 C -0.727,0 -0.798,-1.02 -0.087,-1.112 0.698,-1.213 0.827,0 0,0" /></g><g
             transform="translate(95.1279,156.7979)"
             id="g220"
             style="display:inline"><path
               id="path222"
               style="fill:#000000;fill-opacity:1;fill-rule:nonzero;stroke:none"
               d="M 0,0 C -0.727,0 -0.798,-1.02 -0.087,-1.112 0.698,-1.213 0.827,0 0,0" /></g><g
             transform="translate(95.6406,168.1348)"
             id="g224"
             style="display:inline"><path
               id="path226"
               style="fill:#000000;fill-opacity:1;fill-rule:nonzero;stroke:none"
               d="M 0,0 C -0.435,0.564 -1.534,-0.03 -1.013,-0.685 -0.582,-1.226 0.494,-0.64 0,0" /></g><g
             transform="translate(94.8564,169.3618)"
             id="g228"
             style="display:inline"><path
               id="path230"
               style="fill:#000000;fill-opacity:1;fill-rule:nonzero;stroke:none"
               d="M 0,0 C 0.796,-0.41 1.248,1.07 0.274,1.059 -0.27,1.053 -0.564,0.288 0,0" /></g><g
             transform="translate(95.3516,172.7988)"
             id="g232"
             style="display:inline"><path
               id="path234"
               style="fill:#000000;fill-opacity:1;fill-rule:nonzero;stroke:none"
               d="M 0,0 C -0.937,0.258 -1.34,-1.112 -0.373,-1.112 0.383,-1.112 0.967,-0.267 0,0" /></g><g
             transform="translate(95.0127,174.0293)"
             id="g236"
             style="display:inline"><path
               id="path238"
               style="fill:#000000;fill-opacity:1;fill-rule:nonzero;stroke:none"
               d="M 0,0 C 0.758,0 1.2,0.873 0.305,1.112 -0.594,1.352 -0.935,0 0,0" /></g><g
             transform="translate(95.1172,176.6426)"
             id="g240"
             style="display:inline"><path
               id="path242"
               style="fill:#000000;fill-opacity:1;fill-rule:nonzero;stroke:none"
               d="M 0,0 C 0.734,0 0.799,1.012 0.1,1.112 -0.69,1.226 -0.837,0 0,0" /></g><g
             transform="translate(95.1387,180.2358)"
             id="g244"
             style="display:inline"><path
               id="path246"
               style="fill:#000000;fill-opacity:1;fill-rule:nonzero;stroke:none"
               d="M 0,0 C -0.708,0.009 -0.814,-1.112 -0.087,-1.112 0.699,-1.112 0.814,-0.01 0,0" /></g><g
             transform="translate(96.084,182.8198)"
             id="g248"
             style="display:inline"><path
               id="path250"
               style="fill:#000000;fill-opacity:1;fill-rule:nonzero;stroke:none"
               d="M 0,0 C 0.377,0.634 -0.263,1.153 -0.847,1.182 -1.17,1.198 -1.479,1.204 -1.735,0.962 -2.042,0.674 -2.172,0.062 -1.733,-0.174 -1.295,-0.659 -0.341,-0.573 0,0" /></g></g><g
           id="g5"
           style="display:none"><g
             transform="translate(95.0742,54.2129)"
             id="g256"
             style="display:inline"><path
               id="path258"
               style="fill:#000000;fill-opacity:1;fill-rule:nonzero;stroke:none"
               d="M 0,0 C 0.798,0 0.787,1.126 0.05,1.112 -0.616,1.1 -0.736,0 0,0" /></g><g
             transform="translate(94.5298,51.8867)"
             id="g260"
             style="display:inline"><path
               id="path262"
               style="fill:#000000;fill-opacity:1;fill-rule:nonzero;stroke:none"
               d="M 0,0 C 0.199,-0.685 1.403,-0.447 1.198,0.293 1.005,0.989 -0.216,0.724 0,0" /></g><g
             transform="translate(95.7441,45.9473)"
             id="g264"
             style="display:inline"><path
               id="path266"
               style="fill:#000000;fill-opacity:1;fill-rule:nonzero;stroke:none"
               d="M 0,0 C -0.192,0.696 -1.414,0.431 -1.198,-0.293 -0.999,-0.979 0.205,-0.74 0,0" /></g><g
             transform="translate(95.4912,49.4961)"
             id="g268"
             style="display:inline"><path
               id="path270"
               style="fill:#000000;fill-opacity:1;fill-rule:nonzero;stroke:none"
               d="M 0,0 C -0.651,0.305 -1.632,-0.594 -0.787,-1.023 -0.066,-1.394 0.919,-0.432 0,0" /></g><g
             transform="translate(95.2432,42.8438)"
             id="g272"
             style="display:inline"><path
               id="path274"
               style="fill:#000000;fill-opacity:1;fill-rule:nonzero;stroke:none"
               d="m 0,0 c -0.86,0.128 -1.108,-1.112 -0.295,-1.112 0.332,0 0.724,-0.013 0.855,0.378 C 0.701,-0.312 0.366,-0.055 0,0" /></g><g
             transform="translate(95.1611,36.3545)"
             id="g276"
             style="display:inline"><path
               id="path278"
               style="fill:#000000;fill-opacity:1;fill-rule:nonzero;stroke:none"
               d="M 0,0 C -0.636,0 -0.931,-0.769 -0.271,-1.062 0.562,-1.432 0.959,0 0,0" /></g><g
             transform="translate(95.042,39.7295)"
             id="g280"
             style="display:inline"><path
               id="path282"
               style="fill:#000000;fill-opacity:1;fill-rule:nonzero;stroke:none"
               d="M 0,0 C -0.635,0 -0.931,-0.769 -0.27,-1.062 0.562,-1.432 0.96,0 0,0" /></g><g
             transform="translate(95.5742,32.5625)"
             id="g284"
             style="display:inline"><path
               id="path286"
               style="fill:#000000;fill-opacity:1;fill-rule:nonzero;stroke:none"
               d="M 0,0 C -0.402,0.567 -1.269,-0.026 -0.903,-0.611 -0.498,-1.219 0.419,-0.591 0,0" /></g><g
             transform="translate(94.8965,28.5186)"
             id="g288"
             style="display:inline"><path
               id="path290"
               style="fill:#000000;fill-opacity:1;fill-rule:nonzero;stroke:none"
               d="M 0,0 C 0.425,-0.218 0.908,0.249 0.771,0.683 0.449,1.708 -1.015,0.437 0,0" /></g><g
             transform="translate(95.3135,26.1094)"
             id="g292"
             style="display:inline"><path
               id="path294"
               style="fill:#000000;fill-opacity:1;fill-rule:nonzero;stroke:none"
               d="M 0,0 C -0.404,0.133 -0.856,-0.223 -0.733,-0.662 -0.422,-1.799 1.121,-0.368 0,0" /></g><g
             transform="translate(94.5811,22.3223)"
             id="g296"
             style="display:inline"><path
               id="path298"
               style="fill:#000000;fill-opacity:1;fill-rule:nonzero;stroke:none"
               d="M 0,0 C 0.366,-1.163 1.871,0.443 0.683,0.699 0.283,0.786 -0.135,0.424 0,0" /></g><g
             transform="translate(95.3174,19.7959)"
             id="g300"
             style="display:inline"><path
               id="path302"
               style="fill:#000000;fill-opacity:1;fill-rule:nonzero;stroke:none"
               d="M 0,0 C -0.88,0 -1.28,-1.04 -0.246,-1.104 0.554,-1.153 0.812,0 0,0" /></g><g
             transform="translate(95.0479,15.918)"
             id="g304"
             style="display:inline"><path
               id="path306"
               style="fill:#000000;fill-opacity:1;fill-rule:nonzero;stroke:none"
               d="M 0,0 C 0.8,-0.09 1.039,1.112 0.234,1.112 -0.577,1.112 -0.95,0.107 0,0" /></g><g
             transform="translate(95.4824,14.6484)"
             id="g308"
             style="display:inline"><path
               id="path310"
               style="fill:#000000;fill-opacity:1;fill-rule:nonzero;stroke:none"
               d="m 0,0 c -0.672,0.357 -1.224,-0.444 -1.442,-0.961 -0.411,-0.975 -0.286,-2.053 -0.123,-3.068 0.164,-1.022 0.374,-2.029 0.524,-3.053 0.069,-0.471 -0.063,-1.564 0.334,-1.886 1.119,-0.903 1.147,2.704 1.228,3.191 C 0.774,-4.236 1.856,-1.01 0,0" /></g></g><g
           id="g4"
           style="display:none"><g
             transform="translate(112.4258,78.416)"
             id="g312"
             style="display:inline"><path
               id="path314"
               style="fill:#000000;fill-opacity:1;fill-rule:nonzero;stroke:none"
               d="M 0,0 C 0.153,0.078 0.187,0.099 0.104,0.064 0.051,0.042 0.043,0.03 0,0" /></g><g
             transform="translate(112.5869,78.5059)"
             id="g316"
             style="display:inline"><path
               id="path318"
               style="fill:#000000;fill-opacity:1;fill-rule:nonzero;stroke:none"
               d="M 0,0 C -0.075,-0.021 0.035,0 0,0" /></g><g
             transform="translate(112.2344,77.8018)"
             id="g320"
             style="display:inline"><path
               id="path322"
               style="fill:#000000;fill-opacity:1;fill-rule:nonzero;stroke:none"
               d="M 0,0 C 0.215,-0.662 1.233,-0.356 1.066,0.312 0.886,1.038 -0.234,0.692 0,0" /></g><g
             transform="translate(112.2002,74.0439)"
             id="g328"
             style="display:inline"><path
               id="path330"
               style="fill:#000000;fill-opacity:1;fill-rule:nonzero;stroke:none"
               d="M 0,0 C 0.39,-0.616 1.35,0.014 0.902,0.629 0.495,1.189 -0.387,0.58 0,0" /></g><g
             transform="translate(112.626,70.2471)"
             id="g336"
             style="display:inline"><path
               id="path338"
               style="fill:#000000;fill-opacity:1;fill-rule:nonzero;stroke:none"
               d="M 0,0 C 0.712,0 0.658,1.147 -0.062,1.112 -0.78,1.077 -0.715,0 0,0" /></g><g
             transform="translate(112.4766,67.0615)"
             id="g344"
             style="display:inline"><path
               id="path346"
               style="fill:#000000;fill-opacity:1;fill-rule:nonzero;stroke:none"
               d="M 0,0 C 0.704,-0.15 0.941,0.923 0.228,1.083 -0.505,1.248 -0.74,0.107 0,0" /></g><g
             transform="translate(112.4688,63.5264)"
             id="g352"
             style="display:inline"><path
               id="path354"
               style="fill:#000000;fill-opacity:1;fill-rule:nonzero;stroke:none"
               d="M 0,0 C 0.713,0 0.652,1.151 -0.064,1.111 -0.781,1.072 -0.711,0 0,0" /></g><g
             transform="translate(112.3018,59.5488)"
             id="g360"
             style="display:inline"><path
               id="path362"
               style="fill:#000000;fill-opacity:1;fill-rule:nonzero;stroke:none"
               d="m 0,0 c 0.021,0 0.06,-0.009 0.106,-0.009 0.305,0 0.829,0.49 0.413,0.929 C -0.166,1.644 -1.006,0.166 0,0" /></g><g
             transform="translate(112.4473,57.666)"
             id="g372"
             style="display:inline"><path
               id="path374"
               style="fill:#000000;fill-opacity:1;fill-rule:nonzero;stroke:none"
               d="M 0,0 C -0.714,0 -0.658,-1.15 0.061,-1.112 0.778,-1.075 0.714,0 0,0" /></g><g
             transform="translate(112.3955,53.2061)"
             id="g380"
             style="display:inline"><path
               id="path382"
               style="fill:#000000;fill-opacity:1;fill-rule:nonzero;stroke:none"
               d="M 0,0 C 0.714,0 0.659,1.149 -0.061,1.112 -0.778,1.074 -0.714,0 0,0" /></g><g
             transform="translate(111.5918,51.6309)"
             id="g388"
             style="display:inline"><path
               id="path390"
               style="fill:#000000;fill-opacity:1;fill-rule:nonzero;stroke:none"
               d="m 0,0 c -0.378,-0.66 -0.397,-1.437 -0.375,-2.177 0.053,-1.788 0.359,-3.531 0.302,-5.319 -0.015,-0.437 0.026,-1.387 0.769,-0.992 0.543,0.289 0.337,1.363 0.375,1.881 0.075,1.016 0.522,1.919 0.674,2.918 C 1.939,-2.423 1.73,-1.097 1.32,0.108 1.044,0.939 0.312,0.546 0,0" /></g></g><g
           id="g6"
           style="display:none"><g
             transform="translate(77.3223,77.4502)"
             id="g324"
             style="display:inline"><path
               id="path326"
               style="fill:#000000;fill-opacity:1;fill-rule:nonzero;stroke:none"
               d="M 0,0 C 0.329,-0.114 0.653,0.113 0.706,0.446 0.733,0.616 0.682,0.683 0.642,0.846 0.627,0.907 0.105,1.345 0.536,0.945 -0.115,1.506 -0.824,0.27 0,0" /></g><g
             transform="translate(77.835,74.8477)"
             id="g332"
             style="display:inline"><path
               id="path334"
               style="fill:#000000;fill-opacity:1;fill-rule:nonzero;stroke:none"
               d="M 0,0 C -0.646,0.322 -1.118,-0.685 -0.493,-0.996 0.147,-1.336 0.667,-0.305 0,0" /></g><g
             transform="translate(77.6958,71.3594)"
             id="g340"
             style="display:inline"><path
               id="path342"
               style="fill:#000000;fill-opacity:1;fill-rule:nonzero;stroke:none"
               d="M 0,0 C -0.714,0 -0.778,-1.074 -0.061,-1.112 0.659,-1.149 0.714,0 0,0" /></g><g
             transform="translate(77.2441,67.2314)"
             id="g348"
             style="display:inline"><path
               id="path350"
               style="fill:#000000;fill-opacity:1;fill-rule:nonzero;stroke:none"
               d="M 0,0 C 0.346,-0.389 1.062,-0.106 1.012,0.426 0.871,1.404 -0.622,0.788 0,0" /></g><g
             transform="translate(77.8564,64.6387)"
             id="g356"
             style="display:inline"><path
               id="path358"
               style="fill:#000000;fill-opacity:1;fill-rule:nonzero;stroke:none"
               d="M 0,0 C -0.711,0 -0.783,-1.074 -0.065,-1.112 0.653,-1.151 0.711,0 0,0" /></g><g
             transform="translate(77.9131,60.6484)"
             id="g364"
             style="display:inline"><path
               id="path366"
               style="fill:#000000;fill-opacity:1;fill-rule:nonzero;stroke:none"
               d="M 0,0 C -0.779,0 -0.816,-1.082 -0.047,-1.104 0.402,-1.082 0.894,0 0,0" /></g><g
             transform="translate(77.8872,59.54)"
             id="g368"
             style="display:inline"><path
               id="path370"
               style="fill:#000000;fill-opacity:1;fill-rule:nonzero;stroke:none"
               d="M 0,0 C -0.008,0 -0.013,0.004 -0.021,0.004 -0.025,0.004 -0.03,0 -0.035,0 Z" /></g><g
             transform="translate(77.2266,57.1396)"
             id="g376"
             style="display:inline"><path
               id="path378"
               style="fill:#000000;fill-opacity:1;fill-rule:nonzero;stroke:none"
               d="M 0,0 C -0.043,-0.721 1.073,-0.771 1.112,-0.061 1.155,0.662 0.043,0.71 0,0" /></g><g
             transform="translate(77.8652,53.2061)"
             id="g384"
             style="display:inline"><path
               id="path386"
               style="fill:#000000;fill-opacity:1;fill-rule:nonzero;stroke:none"
               d="M 0,0 C 0.714,0 0.778,1.074 0.061,1.112 -0.659,1.149 -0.714,0 0,0" /></g><g
             transform="translate(78.7646,51.4395)"
             id="g392"
             style="display:inline"><path
               id="path394"
               style="fill:#000000;fill-opacity:1;fill-rule:nonzero;stroke:none"
               d="m 0,0 c -0.15,0.324 -0.38,0.777 -0.78,0.813 -0.911,0.083 -1.046,-2.065 -1.098,-2.637 -0.109,-1.178 0.143,-2.178 0.473,-3.29 0.234,-0.787 0.197,-1.49 0.279,-2.286 0.041,-0.4 0.062,-0.995 0.626,-0.96 0.441,0.026 0.482,0.384 0.506,0.723 0.037,0.53 -0.073,1.089 -0.055,1.618 C 0.012,-4.164 0.827,-1.74 0,0" /></g></g><g
           transform="translate(95.578102,155.72619)"
           id="g7"
           style="display:none"><path
             id="path6"
             style="fill:#000000;fill-opacity:1;fill-rule:nonzero;stroke:none"
             d="M 0,0 C -0.766,0.436 -1.653,-0.436 -1.361,-1.219 -0.785,-2.766 1.646,-0.931 0,0" /></g></g></g></g></svg>
