<?xml version="1.0" encoding="utf-8"?>
<!-- Generator: Adobe Illustrator 23.0.0, SVG Export Plug-In . SVG Version: 6.00 Build 0)  -->
<svg version="1.1" id="Слой_1" xmlns="http://www.w3.org/2000/svg" xmlns:xlink="http://www.w3.org/1999/xlink" x="0px" y="0px"
	 viewBox="0 0 100 21.28" style="enable-background:new 0 0 100 21.28;" xml:space="preserve">
<path d="M92.24,7.45c-0.53-0.85-1.26-1.72-2.29-2.48c-0.27-0.2-0.63-0.44-0.96-0.51c-0.15-0.03-0.25,0.03-0.29,0.13
	c-3.07,2.13-5.45,5.33-6.39,8.93c-0.31-3.93-1.5-8.04-5.6-9.08c-0.01-0.01-0.02-0.01-0.03-0.01c0,0,0,0,0,0h0
	c-0.06-0.02-0.15-0.03-0.25,0c-2.75,1.68-5.22,4.11-6.15,7.28c-0.13,0.44-0.28,0.88-0.42,1.32c-0.1,0.31-0.19,0.61-0.27,0.92
	c-0.1-2.41-0.49-4.74-1.72-6.74c-0.53-0.85-1.26-1.72-2.29-2.48c-0.27-0.2-0.63-0.43-0.96-0.51c-0.15-0.03-0.25,0.03-0.29,0.13
	c-3.12,2.16-5.52,5.43-6.43,9.09c-0.76-3.61-2.23-7.47-5.63-9.24c-0.22-0.2-0.56,0.1-0.78,0.2c-3.46,1.92-6.05,5.29-7.07,9.11
	c-0.29-3.97-1.45-8.18-5.61-9.23c-0.01-0.01-0.02-0.01-0.03-0.01c0,0,0,0,0,0h0c-0.06-0.02-0.15-0.03-0.25,0
	c-2.75,1.68-5.22,4.11-6.15,7.28c-0.13,0.44-0.28,0.88-0.42,1.32c-0.1,0.31-0.19,0.61-0.27,0.92c-0.1-2.41-0.49-4.74-1.72-6.74
	c-0.53-0.85-1.26-1.72-2.29-2.48c-0.27-0.2-0.63-0.43-0.96-0.51c-0.15-0.03-0.25,0.03-0.29,0.13c-3.12,2.16-5.52,5.43-6.43,9.09
	c-0.76-3.61-2.23-7.47-5.63-9.24c-0.22-0.2-0.56,0.1-0.78,0.2C9.1,6.73,6.08,11.59,6,16.75c0.01,0.39,0.59,0.31,0.54-0.05
	c0.1-4.98,3.05-9.86,7.48-12.05c0.07-0.04,0.13-0.07,0.19-0.1l0,0c0.36,0.24,0.7,0.51,1.04,0.8c-0.01,0-0.02,0.01-0.03,0.02
	c-0.01,0.01-0.02,0.01-0.03,0.02c-0.02,0.01-0.04,0.03-0.06,0.04C15.08,5.45,15.04,5.47,15,5.5c-1.96,1.28-3.55,3.19-4.69,5.22
	C9.78,11.65,9.34,12.64,9,13.66c-0.27,0.82-0.83,2.16-0.69,3.02c0.01,0.04,0.02,0.08,0.03,0.11c0.1,0.22,0.36,0,0.41-0.2
	c0.45-1.77,0.9-3.47,1.74-5.11c0.96-1.87,2.25-3.58,3.89-4.91c0.31-0.25,0.62-0.48,0.95-0.7c0.13-0.08,0.21-0.15,0.26-0.22
	c1.58,1.49,2.76,3.49,3.29,5.57c0.34,1.32,0.71,2.5,0.77,3.78c-0.06,0.52-0.09,1.04-0.09,1.57c0,0,0,0.01,0,0.01
	c0,0.01,0,0.03,0,0.04c0,0.01,0.01,0.01,0.01,0.01c0.01,0.11,0.06,0.22,0.19,0.25c0.02,0,0.03-0.01,0.05-0.01
	c0.01,0,0.02,0.01,0.03,0.01c0.02-0.01,0.03-0.01,0.05-0.02c0.03-0.01,0.06-0.01,0.09-0.04c0.14-0.08,0.16-0.2,0.15-0.34
	c0.11-0.5,0.14-0.94,0.12-1.38c0.58-4.07,3.07-7.97,6.29-10.4c0.05-0.01,0.09-0.02,0.12-0.04c0.5,0.33,0.98,0.68,1.44,1.07
	c-0.84,0.5-1.61,1.11-2.3,1.8c-0.81,0.82-1.51,1.74-2.11,2.72c-0.6,0.99-1.11,2.04-1.5,3.13c-0.19,0.54-0.37,1.08-0.51,1.64
	c-0.07,0.28-0.14,0.56-0.19,0.85c-0.03,0.14-0.05,0.28-0.07,0.43c-0.02,0.12-0.06,0.27-0.05,0.39c0,0.02,0,0.03,0.01,0.05
	c0.09,0.28,0.43,0.1,0.48-0.11c0.07-0.31,0.11-0.62,0.19-0.93c0.08-0.3,0.16-0.59,0.25-0.88c0.35-1.14,0.79-2.24,1.35-3.29
	c0.55-1.05,1.22-2.05,1.99-2.94c0.77-0.9,1.66-1.69,2.65-2.34c0.09-0.06,0.16-0.11,0.23-0.17c0,0,0,0,0,0
	c0.48,0.48,0.92,0.95,1.22,1.55c0.6,1.21,0.93,2.55,1.21,3.85c0.25,1.15,0.42,2.4,0.44,3.63c-0.05,0.28-0.09,0.56-0.11,0.84
	c-0.01,0.18-0.02,0.35-0.01,0.53c0,0.09,0,0.18,0.01,0.27c0,0.05,0,0.12,0.01,0.18c0,0.01,0.01,0.02,0.01,0.03
	c0.06,0.1,0.24,0.08,0.32,0.03c0.1-0.07,0.11-0.15,0.12-0.26c0.37-4.78,2.6-9.46,6.89-11.88c0.07-0.02,0.13-0.06,0.18-0.11
	c0.65,0.2,1.21,0.48,1.7,0.83c-4.1,1.79-6.26,6.07-7.05,10.28c-0.01,0.35-0.4,1,0.07,1.15c0.14,0.02,0.28-0.08,0.3-0.23
	c0.1-0.66,0.26-1.29,0.43-1.96c0.82-3.63,3.26-7.31,6.75-8.86c2.62,2.31,2.94,6.76,2.97,10.22c-0.02,0.24-0.03,0.48-0.04,0.73
	c0,0.27,0.28,0.31,0.44,0.19c0.08-0.04,0.14-0.1,0.14-0.21c0-0.23,0-0.47,0-0.71c0.34-4.74,3.21-9.29,7.44-11.38
	c0.07-0.04,0.13-0.07,0.19-0.1l0,0c0.36,0.24,0.71,0.51,1.04,0.8c-0.11,0.07-0.22,0.14-0.33,0.21c-0.16,0.11-0.31,0.21-0.46,0.33
	c-0.15,0.11-0.3,0.23-0.45,0.35c-0.15,0.12-0.29,0.24-0.44,0.37c-0.14,0.13-0.28,0.26-0.42,0.39c-0.14,0.13-0.28,0.27-0.41,0.41
	c-0.13,0.14-0.27,0.28-0.39,0.43C50.12,8.12,50,8.27,49.87,8.42c-0.12,0.15-0.25,0.3-0.36,0.46c-0.12,0.16-0.23,0.31-0.35,0.47
	c-0.11,0.16-0.22,0.32-0.33,0.49c-0.11,0.16-0.21,0.33-0.31,0.5c-0.1,0.17-0.2,0.34-0.3,0.51c-0.1,0.17-0.19,0.35-0.28,0.52
	c-0.09,0.17-0.18,0.35-0.26,0.53c-0.08,0.18-0.16,0.36-0.24,0.54c-0.08,0.18-0.15,0.36-0.22,0.54c-0.07,0.18-0.14,0.36-0.2,0.55
	c-0.06,0.18-0.13,0.37-0.18,0.55c-0.06,0.18-0.11,0.37-0.16,0.55c-0.05,0.18-0.1,0.37-0.14,0.56c-0.04,0.18-0.09,0.37-0.12,0.56
	c-0.03,0.16-0.06,0.31-0.09,0.47c-0.01,0.08-0.03,0.16-0.04,0.25c-0.01,0.07-0.04,0.16-0.04,0.23c-0.01,0.06-0.02,0.13,0.01,0.19
	c0.01,0.02,0.02,0.03,0.03,0.04c0.04,0.05,0.1,0.09,0.16,0.09c0.21,0.02,0.28-0.23,0.31-0.39c0.05-0.3,0.11-0.59,0.18-0.89
	c0.09-0.38,0.19-0.77,0.31-1.14c0.11-0.38,0.24-0.76,0.38-1.13c0.14-0.37,0.29-0.74,0.46-1.11c0.16-0.36,0.34-0.72,0.53-1.07
	c0.19-0.35,0.39-0.7,0.6-1.03c0.21-0.34,0.44-0.66,0.67-0.98c0.24-0.32,0.48-0.63,0.74-0.92c0.26-0.3,0.53-0.58,0.81-0.86
	c0.28-0.27,0.58-0.53,0.88-0.78c0.3-0.25,0.62-0.48,0.95-0.7c0.13-0.08,0.21-0.15,0.26-0.22c1.58,1.49,2.76,3.49,3.29,5.57
	c0.34,1.32,0.71,2.5,0.77,3.78c-0.06,0.52-0.09,1.04-0.09,1.57c0,0,0,0.01,0,0.01c0,0.01,0,0.03,0,0.04c0,0.01,0.01,0.01,0.01,0.01
	c0.01,0.11,0.06,0.22,0.19,0.25c0.02,0,0.03-0.01,0.05-0.01c0.01,0,0.02,0.01,0.03,0.01c0.02-0.01,0.03-0.01,0.05-0.02
	c0.03-0.01,0.06-0.01,0.09-0.04c0.14-0.08,0.16-0.2,0.15-0.34c0.11-0.5,0.14-0.94,0.12-1.38c0.58-4.07,3.07-7.97,6.29-10.4
	c0.05-0.01,0.09-0.02,0.12-0.04c0.5,0.33,0.98,0.68,1.44,1.07c-0.84,0.5-1.61,1.11-2.3,1.8c-0.81,0.82-1.51,1.74-2.11,2.72
	c-0.6,0.99-1.11,2.04-1.5,3.13c-0.19,0.54-0.37,1.08-0.51,1.64c-0.07,0.28-0.14,0.56-0.19,0.85c-0.03,0.14-0.05,0.28-0.07,0.43
	c-0.02,0.12-0.06,0.27-0.05,0.39c0,0.02,0,0.03,0.01,0.05c0.09,0.28,0.43,0.1,0.48-0.11c0.07-0.31,0.11-0.62,0.19-0.93
	c0.08-0.3,0.16-0.59,0.25-0.88c0.35-1.14,0.79-2.24,1.35-3.29c0.55-1.05,1.22-2.05,1.99-2.94c0.77-0.9,1.66-1.69,2.65-2.34
	c0.09-0.06,0.16-0.11,0.23-0.17c0,0,0,0,0,0c0.48,0.48,0.92,0.95,1.22,1.55c0.6,1.21,0.93,2.55,1.21,3.85
	c0.25,1.15,0.42,2.4,0.44,3.63c-0.05,0.28-0.09,0.56-0.11,0.84c-0.01,0.18-0.02,0.35-0.01,0.53c0,0.09,0,0.18,0.01,0.27
	c0,0.05,0,0.12,0.01,0.18c0,0.01,0.01,0.02,0.01,0.03c0.06,0.1,0.24,0.08,0.32,0.03c0.1-0.07,0.11-0.15,0.12-0.26
	C70,12.1,72.23,7.42,76.52,5c0.07-0.02,0.13-0.06,0.18-0.11c0.65,0.2,1.21,0.48,1.7,0.83c-4.1,1.79-6.26,6.07-7.05,10.28
	c-0.01,0.35-0.4,1,0.07,1.15c0.14,0.02,0.28-0.08,0.3-0.23c0.1-0.66,0.26-1.29,0.43-1.96c0.82-3.63,3.26-7.31,6.75-8.86
	c2.74,2.41,2.96,7.17,2.98,10.68c0,0.07-0.01,0.14-0.01,0.21c0,0.01,0.01,0.01,0.01,0.02c0,0.01,0,0.01,0,0.02
	c-0.01,0.32,0.41,0.32,0.5,0.09c0.01-0.01,0.03-0.02,0.03-0.04c0.06-0.14,0.02-0.33,0.02-0.47c0-0.17,0.01-0.34,0.02-0.5
	c0.03-0.33,0.08-0.66,0.14-0.99c0.14-0.79,0.34-1.57,0.61-2.33c0.27-0.77,0.6-1.51,0.98-2.22c0.38-0.72,0.82-1.41,1.31-2.06
	c0.48-0.65,1.01-1.27,1.57-1.85c0.56-0.57,1.15-1.09,1.79-1.57c0.05-0.01,0.09-0.02,0.12-0.04c0.5,0.33,0.98,0.68,1.44,1.07
	c-0.84,0.5-1.61,1.11-2.3,1.8c-0.81,0.82-1.51,1.74-2.11,2.72c-0.6,0.99-1.11,2.04-1.5,3.13c-0.19,0.54-0.37,1.08-0.51,1.64
	c-0.07,0.28-0.14,0.56-0.19,0.85c-0.03,0.14-0.05,0.28-0.07,0.43c-0.02,0.12-0.06,0.27-0.05,0.39c0,0.02,0,0.03,0.01,0.05
	c0.09,0.28,0.43,0.1,0.48-0.11c0.07-0.31,0.11-0.62,0.19-0.93c0.08-0.3,0.16-0.59,0.25-0.88c0.35-1.14,0.79-2.24,1.35-3.29
	c0.55-1.05,1.22-2.05,1.99-2.94c0.77-0.9,1.66-1.69,2.65-2.34c0.09-0.06,0.16-0.11,0.23-0.17c0,0,0,0,0,0
	c0.48,0.48,0.92,0.95,1.22,1.55c0.6,1.21,0.93,2.55,1.21,3.85c0,0.02,0.01,0.03,0.01,0.05c0.18,0.88,0.23,1.79,0.26,2.69
	c0.01,0.45,0.02,0.9,0.04,1.35c0.01,0.22,0.02,0.44,0.03,0.65c0.01,0.16-0.05,0.46,0.05,0.6c0.02,0.03,0.06,0.05,0.1,0.07
	c0.11,0.04,0.27,0.03,0.27-0.1C94.04,13.75,93.98,10.27,92.24,7.45z"/>
</svg>
