<?xml version="1.0" encoding="utf-8"?>
<!-- Generator: Adobe Illustrator 23.0.0, SVG Export Plug-In . SVG Version: 6.00 Build 0)  -->
<svg version="1.1" id="Слой_1" xmlns="http://www.w3.org/2000/svg" xmlns:xlink="http://www.w3.org/1999/xlink" x="0px" y="0px"
	 viewBox="0 0 100 21.28" style="enable-background:new 0 0 100 21.28;" xml:space="preserve">
<path d="M93.99,14.22c-0.12-2.83-0.84-5.6-2.56-7.81c-0.49-0.64-1.53-1.78-1.97-1.72c-0.89,0.14-1.78,0.63-2.44,1.22
	c-1.92,1.82-3.49,4.15-3.9,6.89c-0.24-3.28-1.91-7.26-4.78-8.15c-0.14-0.04-0.28-0.04-0.42-0.01c-2.46,0.66-4.1,3.44-5.18,5.7
	c-0.34,0.93-0.66,1.89-0.92,2.87c-0.25-2.44-0.99-4.79-2.48-6.72c-0.49-0.64-1.53-1.78-1.97-1.72c-0.89,0.14-1.78,0.63-2.44,1.22
	c-1.92,1.82-3.49,4.15-3.9,6.89c-0.24-3.28-1.91-7.26-4.78-8.15c-0.14-0.04-0.28-0.04-0.42-0.01c-2.46,0.66-4.1,3.44-5.18,5.7
	c-0.32,0.88-0.62,1.77-0.86,2.69c0-0.01,0-0.01,0-0.02c-0.1-1.25-0.35-2.5-0.86-3.64c-0.5-1.14-1.22-2.19-2.1-3.03
	c-1.83-1.74-1.62-2.17-2.79-1.4c-0.45,0.3-1.17,0.86-1.54,1.26c-0.52,0.54-0.97,1.15-1.37,1.8c-0.9,1.46-1.54,3.12-1.97,4.83
	c-0.26-2.38-1-4.66-2.46-6.54c-0.49-0.64-1.53-1.78-1.97-1.72c-0.89,0.14-1.78,0.63-2.44,1.22c-1.92,1.82-3.49,4.15-3.9,6.89
	c-0.24-3.28-1.91-7.26-4.78-8.15c-0.14-0.04-0.28-0.04-0.42-0.01c-2.46,0.66-4.1,3.44-5.18,5.7c-0.32,0.88-0.62,1.77-0.86,2.69
	c0-0.01,0-0.01,0-0.02c-0.1-1.25-0.35-2.5-0.86-3.64c-0.5-1.14-1.22-2.19-2.1-3.03c-1.83-1.74-1.62-2.17-2.79-1.4
	c-0.45,0.3-1.17,0.86-1.54,1.26c-0.52,0.54-0.97,1.15-1.37,1.8c-1.38,2.23-2.2,4.91-2.46,7.56c-0.02,0.18-0.04,0.4,0.09,0.55
	c0.1,0.11,0.29,0.07,0.32-0.07c0.06-0.24,0.06-0.5,0.08-0.75c0.03-0.27,0.06-0.53,0.1-0.8c0.13-0.77,0.3-1.54,0.53-2.28
	c0.23-0.75,0.51-1.48,0.84-2.19C8.32,9.29,8.7,8.61,9.12,7.96c0.35-0.53,0.73-1.04,1.14-1.51c0.36-0.41,0.88-1.11,1.44-1.32
	c-1.15,1.73-3.01,10.15,0.02,11.01c1.6,0.37,2.22-1.56,2.25-3c0.04-1.9,0-5.61-1.55-7.85c0.6,0.37,1.05,1.02,1.56,1.56
	c1.18,1.25,2.02,2.67,2.43,4.41c0.31,1.29,0.37,2.64,0.27,3.97c-0.05,0.35-0.11,0.69-0.14,1.04c0,0.14,0.11,0.26,0.24,0.26
	c0,0,0,0,0.01,0c0.18,0.02,0.28-0.22,0.3-0.41c0.03-0.22,0.03-0.43,0.04-0.65c0.61-3.92,2.1-8.19,5.46-10.23
	c0.19-0.1,0.37-0.13,0.55-0.14c-0.01,0.01-0.01,0.02-0.02,0.03c-0.63,1.27-0.94,2.76-1.28,4.14c-0.36,1.44-0.64,2.92-0.63,4.41
	c0,0.51,0.05,1.03,0.22,1.51c0.13,0.37,0.35,0.79,0.68,1c0.06,0.04,0.13,0.07,0.2,0.09c0.25,0.07,0.54,0.01,0.77-0.04
	c1.01-0.24,1.52-1.18,1.72-2.18c0.21-1.06,0.18-2.19,0.09-3.26c-0.07-0.87-0.26-4.44-1.01-5.53c0.58,0.26,1.12,0.78,1.62,1.18
	c2.44,2.65,2.29,6.71,2.57,10.1c0.26,0.24,0.47-0.14,0.43-0.39c-0.01-2.52,0.51-5.14,1.87-7.24c1.05-1.46,2.22-3.03,3.9-3.7
	c-0.08,0.18-0.13,0.4-0.2,0.52c-0.83,2.27-3.6,9.19-0.55,10.37c3.49,0.28,2.12-6.63,1.79-8.82c-0.13-0.55-0.05-1.55-0.37-2.06
	c0.28,0.15,0.54,0.41,0.69,0.58c0.39,0.45,0.74,0.97,1.08,1.47c1.7,2.5,1.98,5.69,1.92,8.68c0,0.18-0.02,0.4,0.13,0.47
	c0.17,0.09,0.29-0.05,0.36-0.3c0,0,0,0,0-0.01c0,0,0,0,0,0c0.12-0.4,0.14-1.06,0.14-1.5c0.48-2.95,1.72-5.81,3.64-8.04
	c0.36-0.41,0.88-1.11,1.44-1.32c-1.16,1.73-3.15,10.19,0.02,11.01c1.6,0.37,2.22-1.56,2.25-3c0.04-1.9,0-5.61-1.55-7.84
	c0.6,0.37,1.05,1.02,1.56,1.56c1.18,1.25,2.02,2.67,2.43,4.41c0.31,1.29,0.37,2.64,0.27,3.97c-0.05,0.35-0.11,0.69-0.14,1.04
	c0,0.14,0.11,0.26,0.24,0.26c0,0,0,0,0.01,0c0.18,0.02,0.28-0.22,0.3-0.41c0.03-0.22,0.03-0.43,0.04-0.65
	c0.61-3.92,2.1-8.19,5.46-10.23c0.19-0.1,0.37-0.13,0.55-0.14c-0.01,0.01-0.01,0.02-0.02,0.03c-0.63,1.27-0.94,2.76-1.28,4.14
	c-0.36,1.44-0.64,2.92-0.63,4.41c0,0.51,0.05,1.03,0.22,1.51c0.13,0.37,0.35,0.79,0.68,1c0.06,0.04,0.13,0.07,0.2,0.09
	c0.25,0.07,0.54,0.01,0.77-0.04c1.01-0.24,1.52-1.18,1.72-2.18c0.21-1.06,0.18-2.19,0.09-3.26c-0.07-0.87-0.26-4.44-1.01-5.53
	c0.58,0.26,1.12,0.78,1.62,1.18c2.44,2.65,2.29,6.71,2.57,10.1c0.26,0.24,0.48-0.14,0.43-0.39c-0.01-2.52,0.51-5.14,1.87-7.24
	c1.05-1.46,2.22-3.03,3.9-3.7c-0.08,0.18-0.13,0.4-0.2,0.52c-0.83,2.27-3.6,9.19-0.55,10.37c3.49,0.28,2.12-6.63,1.79-8.82
	c-0.13-0.55-0.05-1.55-0.37-2.06c0.28,0.15,0.54,0.41,0.69,0.58c0.39,0.45,0.74,0.97,1.08,1.47c1.7,2.5,1.98,5.69,1.92,8.68
	c0,0.06,0,0.12,0,0.19c0,0.02-0.01,0.03-0.01,0.05c0,0.01,0.01,0.02,0.01,0.03c0.01,0.05,0.02,0.09,0.05,0.13
	c0.01,0.01,0.02,0.02,0.03,0.03c0.01,0.01,0.02,0.03,0.04,0.04c0.09,0.04,0.16,0.03,0.21-0.03c0.06-0.04,0.09-0.09,0.1-0.15
	c0,0,0,0,0,0c0-0.02,0.02-0.03,0.02-0.05c0,0,0,0,0-0.01c0.09-0.25,0.13-0.65,0.15-1.03c0.63-3.86,2.13-8,5.42-10
	c0.19-0.1,0.37-0.13,0.55-0.14c-0.01,0.01-0.01,0.02-0.02,0.03c-0.63,1.27-0.94,2.76-1.28,4.14c-0.36,1.44-0.64,2.92-0.63,4.41
	c0,0.51,0.05,1.03,0.22,1.51c0.13,0.37,0.35,0.79,0.68,1c0.06,0.04,0.13,0.07,0.2,0.09c0.25,0.07,0.54,0.01,0.77-0.04
	c1.01-0.24,1.52-1.18,1.72-2.18c0.21-1.06,0.18-2.19,0.09-3.26c-0.07-0.87-0.26-4.44-1.01-5.53c0.58,0.26,1.12,0.78,1.62,1.18
	c2.44,2.65,2.29,6.71,2.57,10.1c0.26,0.24,0.48-0.14,0.43-0.39c-0.01-2.52,0.51-5.14,1.87-7.24c1.05-1.46,2.22-3.03,3.9-3.7
	c-0.08,0.18-0.13,0.4-0.2,0.52c-0.83,2.27-3.6,9.19-0.55,10.37c3.49,0.28,2.12-6.63,1.79-8.82C89.92,6.75,90,5.75,89.68,5.24
	c0.28,0.15,0.54,0.41,0.69,0.58c0.39,0.45,0.74,0.97,1.08,1.47c1.7,2.5,1.98,5.69,1.92,8.68c0,0.18-0.02,0.4,0.13,0.47
	C94.06,16.73,94,14.49,93.99,14.22z M13.47,10.1c0.19,1.4,0.12,2.6-0.07,4.01c-0.09,0.68-0.52,1.51-1.16,1.65
	c-0.22,0.05-0.46,0.02-0.72-0.13c-0.56-0.32-0.95-1.06-1-1.72c-0.09-1.2,0.04-2.41,0.19-3.59c0.22-1.7,0.66-3.46,1.32-5.02
	c-0.04,0.1,0.28,0.58,0.32,0.67C12.91,7.19,13.3,8.77,13.47,10.1z M24.46,12.08c0.06,1.49-0.09,3.6-1.87,3.71
	c-2.17-0.41,0.23-8.8,0.88-10.33C24.35,7.51,24.39,9.84,24.46,12.08z M33.93,15.64c-2.99-0.25-0.03-8.28,0.69-9.98
	C34.84,7.76,36.59,15.03,33.93,15.64z M46.11,10.22c0.19,1.4,0.12,2.6-0.07,4.01c-0.09,0.68-0.52,1.51-1.16,1.65
	c-0.22,0.05-0.46,0.02-0.72-0.13c-0.56-0.32-0.95-1.06-1-1.72c-0.09-1.2,0.04-2.41,0.19-3.59c0.22-1.7,0.66-3.46,1.32-5.02
	c-0.04,0.1,0.28,0.58,0.32,0.67C45.55,7.31,45.94,8.89,46.11,10.22z M57.1,12.19c0.06,1.49-0.09,3.6-1.87,3.71
	c-2.17-0.41,0.23-8.8,0.88-10.33C56.99,7.63,57.03,9.96,57.1,12.19z M66.57,15.76c-2.99-0.25-0.03-8.28,0.69-9.98
	C67.48,7.88,69.23,15.15,66.57,15.76z M79.2,12.1c0.06,1.49-0.09,3.61-1.87,3.71c-2.17-0.41,0.23-8.8,0.88-10.33
	C79.08,7.53,79.12,9.87,79.2,12.1z M88.66,15.67c-2.99-0.25-0.03-8.28,0.69-9.98C89.57,7.78,91.32,15.05,88.66,15.67z"/>
</svg>
