<?xml version="1.0" encoding="utf-8"?>
<!-- Generator: Adobe Illustrator 23.0.0, SVG Export Plug-In . SVG Version: 6.00 Build 0)  -->
<svg version="1.1" id="Слой_1" xmlns="http://www.w3.org/2000/svg" xmlns:xlink="http://www.w3.org/1999/xlink" x="0px" y="0px"
	 viewBox="0 0 100 21.28" style="enable-background:new 0 0 100 21.28;" xml:space="preserve">
<path d="M93.67,14.73c-0.08-0.32-0.09-0.69-0.15-1.02c-0.06-0.35-0.13-0.69-0.22-1.04c-0.17-0.69-0.39-1.36-0.65-2.02
	c-0.53-1.3-1.26-2.52-2.2-3.56c-0.35-0.39-0.73-0.75-1.14-1.08c-0.2-0.16-0.41-0.32-0.63-0.46C88.5,5.43,88.22,5.18,88,5.16
	c-0.06-0.01-0.11,0.01-0.16,0.03c-0.27,0.09-0.51,0.27-0.74,0.43c-0.11,0.07-0.22,0.15-0.33,0.23c-0.58,0.43-1.12,0.93-1.62,1.46
	c-0.62,0.66-1.17,1.37-1.67,2.12c-0.39,0.59-0.76,1.21-1.08,1.86c-0.28,0.57-0.53,1.16-0.74,1.77c-0.12,0.36-0.22,0.73-0.31,1.12
	c-0.18-1.4-0.54-2.78-1.1-4.07c-0.55-1.28-1.31-2.49-2.28-3.5c-0.37-0.39-0.78-0.75-1.21-1.07c-0.22-0.17-0.45-0.32-0.69-0.47
	C75.98,5,75.85,4.88,75.75,4.86c-0.3-0.06-0.7,0.3-0.93,0.45c-0.11,0.07-0.22,0.15-0.33,0.23c-0.58,0.43-1.12,0.93-1.62,1.46
	c-0.62,0.66-1.17,1.37-1.67,2.12c-0.39,0.59-0.76,1.21-1.08,1.86c-0.28,0.57-0.53,1.16-0.74,1.77c-0.02,0.06-0.03,0.12-0.05,0.17
	c-0.17-2.29-0.69-4.49-2.31-6.3c-0.62-0.74-1.37-1.41-2.1-2.03c-0.27-0.23-0.54-0.45-0.84-0.64c-0.15-0.1-0.31-0.19-0.48-0.27
	c-0.13-0.06-0.35-0.19-0.49-0.13c-0.23,0.13-0.45,0.26-0.67,0.4c-0.58,0.39-1.12,0.85-1.62,1.34c-0.5,0.5-0.97,1.04-1.39,1.6
	c-1.13,1.49-2.04,3.15-2.65,4.92c-0.09,0.26-0.18,0.54-0.26,0.81c-0.09,0.31-0.16,0.7-0.23,1.1c-0.54-2.54-1.51-5.12-2.89-7.13
	c-0.22-0.35-0.54-0.65-0.83-0.93c-0.43-0.42-0.88-0.82-1.37-1.16c-0.33-0.23-0.66-0.38-1.06-0.49c-0.27-0.07-0.57,0.17-0.78,0.31
	c-0.25,0.16-0.48,0.34-0.71,0.52c-0.5,0.42-0.96,0.9-1.37,1.41c-0.94,1.15-1.71,2.45-2.34,3.8c-0.52,1.12-0.93,2.3-1.19,3.51
	c-0.54-3.58-2.29-7.11-5.51-8.94c-0.26-0.15-0.77,0.31-0.96,0.44c-0.11,0.07-0.22,0.15-0.33,0.23c-0.58,0.43-1.12,0.93-1.62,1.46
	c-0.62,0.66-1.17,1.37-1.67,2.12c-0.39,0.59-0.76,1.21-1.08,1.86c-0.28,0.57-0.53,1.16-0.74,1.77c-0.02,0.06-0.03,0.12-0.05,0.17
	c-0.17-2.29-0.69-4.49-2.31-6.3c-0.47-0.56-1.02-1.07-1.56-1.55c-0.44-0.4-0.85-0.85-1.36-1.17c-0.67-0.42-1.02-0.36-1.66,0.07
	c-0.58,0.39-1.12,0.85-1.62,1.34c-0.5,0.5-0.97,1.04-1.39,1.6c-1.13,1.49-2.04,3.15-2.65,4.92c-0.09,0.26-0.18,0.54-0.26,0.81
	c-0.09,0.31-0.16,0.7-0.23,1.1c-0.54-2.54-1.51-5.12-2.89-7.13c-0.4-0.64-0.95-1.2-1.55-1.65c-0.44-0.34-1.28-1-1.88-0.94
	c-0.83,0.08-1.86,1.3-2.37,1.88c-1.65,1.85-2.85,4.17-3.56,6.53c-0.49,1.64-0.5,3.06-0.39,4.74c0,0.06,0,0.13,0.04,0.22
	c0.03,0.02,0.06,0.02,0.09,0.03c0.47,0.19,0.51-0.9,0.56-1.26c0.53-3.27,3.89-8.1,7.92-6.32c2.83,1.18,3.61,4.89,3.81,7.57
	c0.01,0.09,0.07,0.16,0.15,0.19c0.12,0.04,0.34,0.01,0.43-0.09c0.09-0.09,0.1-0.24,0.09-0.36c-0.02-0.26-0.09-0.53-0.08-0.79
	c0-0.08,0.02-0.16,0.04-0.24c0.1-0.41,0.2-0.82,0.31-1.22c0.09-0.35,0.18-0.71,0.34-1.04c0.43-0.88,1.03-1.69,1.76-2.34
	c1.02-0.92,2.29-1.56,3.67-1.63c1.42-0.07,2.89,0.34,4,1.25c0.96,0.78,1.41,2.02,1.62,3.21c0.09,0.5,0.15,1.01,0.22,1.51
	c0.07,0.47,0.1,1.04,0.3,1.48c0.06,0.13,0.2,0.27,0.35,0.19c0.13-0.07,0.14-0.29,0.14-0.42c-0.01-0.41,0.14-0.84,0.26-1.23
	c0.09-0.29,0.2-0.58,0.32-0.86c0.25-0.56,0.57-1.09,0.93-1.58c0.04-0.06,0.09-0.12,0.14-0.17c0.68-0.86,1.47-1.72,2.49-2.15
	c1.08-0.46,2.43-0.4,3.53-0.06c2.5,0.76,3.54,3.19,3.96,5.59c0.03,0.31,0.08,0.64,0.15,0.94c0,0.02,0.01,0.03,0.02,0.04
	c0.11,0.11,0.33,0.04,0.4-0.08c0.13-0.21,0.17-0.47,0.2-0.71c0.1-0.96,0.38-1.88,0.79-2.75c0.4-0.84,0.9-1.64,1.52-2.34
	c0.59-0.67,1.3-1.27,2.12-1.65c0.8-0.37,1.68-0.51,2.55-0.35c0.34,0.06,0.68,0.17,0.99,0.31c2.83,1.18,3.61,4.89,3.81,7.57
	c0.02,0.21,0.27,0.2,0.42,0.18c0.38-0.05,0.23-0.57,0.2-0.81c-0.06-0.4,0.04-0.75,0.14-1.13c0.12-0.48,0.31-1.34,0.52-1.79
	c0.43-0.88,1.03-1.69,1.76-2.34c1.02-0.92,2.29-1.56,3.67-1.63c1.42-0.07,2.89,0.34,4,1.25c0.96,0.78,1.41,2.02,1.62,3.21
	c0.1,0.55,0.16,1.11,0.24,1.66c0.04,0.28,0.09,0.55,0.15,0.83c0.04,0.18,0.14,0.88,0.48,0.68c0.21-0.12,0.13-0.51,0.16-0.71
	c0.04-0.3,0.14-0.6,0.23-0.89c0.09-0.29,0.19-0.58,0.32-0.86c0.24-0.56,0.56-1.09,0.92-1.58c0.05-0.07,0.11-0.15,0.17-0.22
	c0.68-0.86,1.47-1.72,2.49-2.15c1.08-0.46,2.43-0.4,3.53-0.06c0.92,0.28,1.73,0.84,2.34,1.58c0.6,0.73,1,1.61,1.28,2.52
	c0.22,0.73,0.36,1.48,0.48,2.23c0.01,0.1,0.04,0.21,0.13,0.26c0.09,0.05,0.24,0.05,0.32-0.02c0.11-0.1,0.07-0.26,0.07-0.39
	c-0.01-0.34,0.13-0.65,0.23-0.97c0.09-0.33,0.2-0.65,0.34-0.96c0.25-0.55,0.56-1.08,0.92-1.56c0.05-0.06,0.1-0.13,0.14-0.19
	c0.68-0.86,1.47-1.72,2.49-2.15c1.08-0.46,2.43-0.4,3.53-0.06c0.92,0.28,1.73,0.84,2.34,1.59c0.6,0.74,1,1.62,1.28,2.53
	c0.22,0.72,0.35,1.46,0.47,2.2c0.02,0.15,0.04,0.29,0.22,0.32C94.43,18.06,93.77,15.11,93.67,14.73z M15.73,9.39
	c-4.17-2.3-7.34,0.7-9.01,4.53c-0.05,0.14-0.11,0.32-0.17,0.53c0.51-3.8,3.01-8.44,5.78-10.06c0.08-0.02,0.15-0.05,0.2-0.09
	l0.06,0.04c2.68,1.33,4.27,4.27,5.17,7.38C17.29,10.79,16.64,9.96,15.73,9.39z M31.45,14.04c-0.04-0.22-0.07-0.44-0.12-0.66
	c-0.21-0.99-0.72-1.92-1.45-2.61c-1.86-1.74-4.88-2.11-7.1-0.91c-1.19,0.64-2.21,1.61-2.94,2.76c-0.31,0.49-0.53,1.06-0.71,1.65
	c0.03-0.31,0.07-0.61,0.12-0.82c0.12-0.57,0.28-1.13,0.47-1.67c0,0,0,0,0,0c0.01-0.02,0.01-0.03,0.02-0.05
	c0.23-0.65,0.51-1.31,0.83-1.95c0,0,0-0.01,0.01-0.01c0,0,0,0,0,0c0-0.01,0-0.01,0.01-0.02c0,0,0,0,0,0
	c0.34-0.67,0.71-1.32,1.13-1.94c0.39-0.58,0.81-1.14,1.27-1.66c0.36-0.41,0.75-0.81,1.17-1.18c0.32-0.28,0.66-0.55,1.02-0.8
	C25.3,4.08,25.45,4,25.6,3.91c2.58,1.4,4.77,3.8,5.52,6.7c0.29,1.1,0.33,2.25,0.34,3.4C31.45,14.02,31.45,14.03,31.45,14.04z
	 M42.46,12.18c-1.5-1.9-4.4-2.72-6.63-1.77c-1.92,0.82-3.23,2.72-3.96,4.7c0-0.17,0-0.34,0-0.5c0.03-0.19,0.04-0.38,0.08-0.57
	c0.1-0.46,0.22-0.91,0.37-1.35l0.01-0.04c0.19-0.55,0.43-1.11,0.7-1.66l0.01-0.03c0,0,0-0.01,0.01-0.02c0,0,0,0,0-0.01c0,0,0,0,0,0
	c0.31-0.61,0.65-1.2,1.03-1.76c0,0,0.02-0.02,0.03-0.05c0.36-0.53,0.77-1.07,1.21-1.58c0.38-0.43,0.78-0.85,1.21-1.24
	c0.31-0.28,0.66-0.56,1.04-0.81c0,0,0,0,0,0c0.17-0.12,0.35-0.23,0.53-0.33c2.93,1.65,4.63,4.94,5.11,8.25
	C43,12.98,42.76,12.56,42.46,12.18z M53.27,9.61c-4.17-2.3-7.34,0.7-9.01,4.53c-0.05,0.14-0.11,0.32-0.17,0.53
	c0.51-3.8,3.01-8.44,5.78-10.06c0.08-0.02,0.15-0.05,0.2-0.09l0.06,0.04c2.68,1.33,4.27,4.27,5.17,7.38
	C54.83,11.01,54.18,10.18,53.27,9.61z M68.99,14.26c-0.04-0.22-0.07-0.44-0.12-0.66c-0.21-0.99-0.72-1.92-1.45-2.61
	c-1.86-1.74-4.88-2.11-7.1-0.91c-1.19,0.64-2.21,1.61-2.94,2.76c-0.31,0.49-0.53,1.06-0.71,1.65c0.03-0.31,0.07-0.61,0.12-0.82
	c0.12-0.57,0.28-1.13,0.47-1.67c0,0,0,0,0,0c0.01-0.02,0.01-0.03,0.02-0.05c0.23-0.65,0.51-1.31,0.83-1.95c0,0,0-0.01,0.01-0.01
	c0,0,0,0,0,0c0-0.01,0-0.01,0.01-0.02c0,0,0,0,0,0c0.34-0.67,0.71-1.32,1.13-1.94c0.39-0.58,0.81-1.14,1.27-1.66
	c0.36-0.41,0.75-0.81,1.17-1.18c0.32-0.28,0.66-0.55,1.02-0.8c0.14-0.09,0.29-0.18,0.43-0.26c2.58,1.4,4.77,3.8,5.52,6.7
	c0.29,1.1,0.33,2.25,0.34,3.4C68.99,14.24,68.99,14.25,68.99,14.26z M80,12.4c-1.5-1.9-4.4-2.72-6.63-1.77
	c-1.92,0.82-3.23,2.72-3.96,4.7c0-0.17,0-0.34,0-0.5c0.03-0.19,0.04-0.38,0.08-0.57c0.1-0.46,0.22-0.91,0.37-1.35l0.01-0.04
	c0.19-0.55,0.43-1.11,0.7-1.66l0.01-0.03c0,0,0-0.01,0.01-0.02c0,0,0,0,0-0.01c0,0,0,0,0,0c0.31-0.61,0.65-1.2,1.03-1.76
	c0,0,0.02-0.02,0.03-0.05c0.36-0.53,0.77-1.07,1.21-1.58c0.38-0.43,0.78-0.85,1.21-1.24c0.31-0.28,0.66-0.56,1.04-0.81c0,0,0,0,0,0
	c0.17-0.12,0.35-0.23,0.53-0.33c2.93,1.65,4.63,4.94,5.11,8.25C80.54,13.2,80.3,12.78,80,12.4z M92.27,12.7
	c-1.5-1.9-4.4-2.72-6.63-1.77c-1.95,0.83-3.27,2.78-3.99,4.78c-0.01-0.06-0.02-0.11-0.03-0.17c0.02-0.33,0.07-0.65,0.14-0.98
	c0.1-0.46,0.22-0.91,0.37-1.35l0.01-0.04c0.19-0.55,0.43-1.11,0.7-1.66l0.01-0.03c0,0,0-0.01,0.01-0.02c0,0,0,0,0-0.01c0,0,0,0,0,0
	c0.31-0.61,0.65-1.2,1.03-1.76c0,0,0.02-0.02,0.03-0.05c0.36-0.53,0.77-1.07,1.21-1.58c0.38-0.43,0.78-0.85,1.21-1.24
	c0.31-0.28,0.66-0.56,1.04-0.81c0,0,0,0,0,0c0.17-0.12,0.35-0.23,0.53-0.33c2.93,1.65,4.63,4.94,5.11,8.25
	C92.82,13.5,92.57,13.08,92.27,12.7z"/>
</svg>
