<?xml version="1.0" encoding="utf-8"?>
<!-- Generator: Adobe Illustrator 23.0.0, SVG Export Plug-In . SVG Version: 6.00 Build 0)  -->
<svg version="1.1" id="Слой_1" xmlns="http://www.w3.org/2000/svg" xmlns:xlink="http://www.w3.org/1999/xlink" x="0px" y="0px"
	 viewBox="0 0 100 21.28" style="enable-background:new 0 0 100 21.28;" xml:space="preserve">
<path d="M93.77,10.74c-0.27-1.02-0.82-2.11-1.53-2.9c-1.08-1.21-2.56-2.15-3.36-3.58c-0.02-0.1-0.07-0.16-0.11-0.2
	c-0.08-0.15-0.33-0.23-0.45-0.04c-2.53,2.53-6.47,5.31-7.42,8.72c0.01-0.68-0.05-1.35-0.22-1.99c-0.27-1.02-0.82-2.11-1.53-2.9
	c-1.08-1.21-2.56-2.15-3.36-3.58c-0.02-0.1-0.07-0.16-0.11-0.2c-0.08-0.15-0.33-0.23-0.45-0.04c-2.42,2.42-6.13,5.08-7.28,8.29
	c0-0.06,0-0.12,0-0.18c-0.01-0.19-0.03-0.37-0.06-0.54c0-0.01,0-0.02,0-0.03c-0.52-3.46-3.95-5.16-5.78-7.9
	c-0.03-0.12-0.09-0.18-0.17-0.21c-0.14-0.1-0.38-0.04-0.41,0.16c-0.69,1.54-2.18,2.57-3.29,3.83c-1.28,1.34-2.04,3.09-2.27,4.91
	c-0.02-0.54-0.09-1.07-0.22-1.59c-0.27-1.02-0.82-2.11-1.53-2.9c-1.08-1.21-2.56-2.15-3.36-3.58c-0.02-0.1-0.07-0.16-0.11-0.2
	c-0.08-0.15-0.33-0.23-0.45-0.04c-2.42,2.42-6.13,5.08-7.28,8.29c0-0.06,0-0.12,0-0.18c-0.01-0.19-0.03-0.37-0.06-0.54
	c0-0.01,0-0.02,0-0.03c-0.52-3.46-3.95-5.16-5.78-7.9C37.14,3.55,37.07,3.49,37,3.46c-0.14-0.1-0.38-0.04-0.41,0.16
	c-0.69,1.54-2.18,2.57-3.29,3.83c-1.28,1.34-2.04,3.09-2.27,4.91c-0.02-0.55-0.09-1.09-0.22-1.6c-0.27-1.02-0.82-2.11-1.53-2.9
	c-1.08-1.21-2.56-2.15-3.36-3.58c-0.02-0.1-0.07-0.16-0.11-0.2c-0.08-0.15-0.33-0.23-0.45-0.04c-2.42,2.42-6.13,5.08-7.28,8.29
	c0-0.06,0-0.12,0-0.18c-0.01-0.19-0.03-0.37-0.06-0.54c0-0.01,0-0.02,0-0.03c-0.52-3.46-3.95-5.16-5.78-7.9
	c-0.03-0.12-0.09-0.18-0.17-0.21c-0.14-0.1-0.38-0.04-0.41,0.16c-0.69,1.54-2.18,2.57-3.29,3.83c-2.49,2.6-3.02,6.74-1.56,9.96
	c0.09,0.23,0.39,0.17,0.47-0.01c0.53-0.47,1.55-1.15,2.09-1.48c2.62-1.84,5.15-3.46,7.88-5.1c0.08,0.26,0.15,0.52,0.2,0.78
	c-2.83,1.52-5.94,3.2-8.39,5.31c-0.19,0.14-0.52,0.32-0.3,0.58c0.1,0.1,0.25,0.1,0.36,0.01c0.59-0.42,1.55-1.15,2.15-1.58
	c1.96-1.59,4.17-2.51,6.26-3.81c0.04,0.29,0.06,0.58,0.07,0.87c-0.38,0.21-0.79,0.39-1.17,0.61c-1.72,0.91-3.75,2.13-5.36,3.2
	c-0.2,0.2-0.75,0.42-0.54,0.77c0.08,0.12,0.24,0.13,0.35,0.06c1.12-0.83,2.65-1.8,3.84-2.52c0.93-0.57,1.92-1.05,2.89-1.56
	c-0.01,0.26-0.03,0.51-0.06,0.77c-0.77,0.53-1.64,0.94-2.44,1.43c-0.64,0.38-1.5,1.05-2.12,1.47c-0.12,0.08-0.13,0.24-0.06,0.35
	c0.05,0.07,0.13,0.1,0.21,0.1c0.63-0.3,1.44-1.04,2.05-1.39c0.73-0.47,1.53-0.84,2.26-1.3c-0.04,0.22-0.07,0.44-0.12,0.66
	c-0.71,0.46-1.41,0.97-2.08,1.5c-0.11,0.08-0.14,0.24-0.06,0.35c0.37,0.33,0.74-0.35,1.07-0.49c0.23-0.24,0.56-0.41,0.87-0.6
	c-0.12,0.4-0.24,0.8-0.39,1.18c-0.04,0.13,0.05,0.27,0.17,0.31c0.13,0.05,0.28-0.05,0.32-0.18c0.26-0.6,0.43-1.23,0.56-1.87
	c0.03-0.04,0.06-0.09,0.08-0.13c0-0.04-0.02-0.06-0.04-0.09c0.01-0.04,0.01-0.07,0.02-0.11c0.15,0.68,0.44,1.39,0.9,2.13
	c0.06,0.12,0.23,0.16,0.34,0.09c0.14-0.1,0.14-0.23,0.09-0.36c3.57-2.27,7.53-3.95,11.21-6.02c0.04,0.24,0.07,0.48,0.08,0.72
	c-2.85,1.49-5.81,2.83-8.63,4.41c-0.29,0.24-1.22,0.45-1.05,0.9c0.05,0.08,0.14,0.12,0.23,0.12c0.81-0.41,1.61-0.92,2.44-1.32
	c2.29-1.28,4.7-2.31,7.01-3.56c-0.01,0.37-0.05,0.73-0.1,1.1c-1.65,0.64-3.28,1.56-4.91,2.28c-0.55,0.26-1.12,0.62-1.69,0.92
	c-0.12,0.06-0.16,0.23-0.09,0.34c0.05,0.08,0.14,0.13,0.22,0.12c0.5-0.17,0.93-0.52,1.41-0.76c0.79-0.41,1.63-0.78,2.47-1.17
	c0.84-0.4,1.66-0.8,2.5-1.2c-0.01,0.06-0.02,0.12-0.03,0.18c-0.03,0.2-0.08,0.4-0.13,0.6c-0.01,0.01-0.03,0-0.04,0.01
	c-1.41,0.62-2.83,1.22-4.14,2.02c-0.12,0.07-0.16,0.22-0.09,0.34c0.07,0.12,0.23,0.16,0.34,0.09c1.19-0.71,2.46-1.28,3.74-1.83
	c-0.19,0.56-0.43,1.1-0.75,1.59c-0.09,0.14-0.09,0.35,0.09,0.43c0.15,0.07,0.32-0.04,0.36-0.19c0.06-0.24,0.3-0.51,0.41-0.74
	c0.43-0.9,0.74-1.91,0.88-2.93c0.03,1.24,0.28,2.48,0.79,3.6c0.09,0.23,0.39,0.17,0.47-0.01c0.53-0.47,1.55-1.15,2.09-1.48
	c2.62-1.84,5.15-3.46,7.88-5.1c0.08,0.26,0.15,0.52,0.2,0.78c-2.83,1.52-5.94,3.2-8.39,5.31c-0.19,0.14-0.52,0.32-0.3,0.58
	c0.1,0.1,0.25,0.1,0.36,0.01c0.59-0.42,1.55-1.15,2.15-1.58c1.96-1.59,4.17-2.51,6.26-3.81c0.04,0.29,0.06,0.58,0.07,0.87
	c-0.38,0.21-0.79,0.39-1.17,0.61c-1.72,0.91-3.75,2.13-5.36,3.2c-0.2,0.21-0.75,0.42-0.54,0.77c0.08,0.12,0.24,0.13,0.35,0.06
	c1.12-0.83,2.65-1.8,3.84-2.52c0.93-0.57,1.92-1.05,2.89-1.56c-0.01,0.26-0.03,0.51-0.06,0.77c-0.77,0.53-1.63,0.94-2.44,1.43
	c-0.64,0.38-1.5,1.05-2.12,1.47c-0.12,0.08-0.13,0.24-0.06,0.35c0.05,0.07,0.13,0.1,0.21,0.1c0.63-0.3,1.44-1.04,2.05-1.39
	c0.73-0.47,1.53-0.84,2.26-1.3c-0.04,0.22-0.07,0.44-0.12,0.66c-0.71,0.46-1.41,0.97-2.08,1.5c-0.11,0.08-0.14,0.24-0.06,0.35
	c0.37,0.33,0.74-0.35,1.07-0.49c0.23-0.24,0.56-0.41,0.87-0.6c-0.12,0.4-0.24,0.8-0.39,1.18c-0.04,0.13,0.05,0.27,0.17,0.31
	c0.13,0.05,0.28-0.05,0.32-0.18c0.26-0.6,0.43-1.23,0.56-1.87c0.03-0.04,0.06-0.09,0.08-0.13c0-0.04-0.02-0.06-0.04-0.09
	c0.01-0.04,0.01-0.07,0.02-0.11c0.15,0.68,0.44,1.39,0.9,2.13c0.06,0.12,0.23,0.16,0.34,0.09c0.14-0.1,0.14-0.23,0.09-0.36
	c3.57-2.27,7.53-3.95,11.21-6.02c0.04,0.24,0.07,0.48,0.08,0.72c-2.85,1.49-5.81,2.83-8.63,4.41c-0.29,0.24-1.22,0.45-1.05,0.9
	c0.05,0.08,0.14,0.12,0.23,0.12c0.81-0.41,1.61-0.92,2.44-1.32c2.29-1.28,4.7-2.31,7.01-3.56c-0.01,0.37-0.05,0.73-0.1,1.1
	c-1.65,0.64-3.28,1.56-4.91,2.28c-0.55,0.26-1.12,0.62-1.69,0.92c-0.12,0.06-0.16,0.23-0.09,0.34c0.05,0.08,0.14,0.13,0.22,0.12
	c0.5-0.17,0.93-0.52,1.41-0.76c0.79-0.41,1.63-0.78,2.47-1.17c0.84-0.4,1.66-0.8,2.5-1.2c-0.01,0.06-0.02,0.12-0.03,0.18
	c-0.03,0.2-0.08,0.4-0.13,0.6c-0.01,0.01-0.03,0-0.04,0.01c-1.41,0.62-2.83,1.22-4.14,2.02c-0.12,0.07-0.16,0.22-0.09,0.34
	c0.07,0.12,0.23,0.16,0.34,0.09c1.19-0.71,2.46-1.28,3.74-1.83c-0.19,0.56-0.43,1.1-0.75,1.59c-0.09,0.14-0.09,0.35,0.09,0.43
	c0.15,0.07,0.32-0.04,0.36-0.19c0.06-0.24,0.3-0.51,0.41-0.74c0.43-0.9,0.74-1.91,0.88-2.94c0.03,1.24,0.28,2.47,0.79,3.59
	c0.09,0.23,0.39,0.17,0.47-0.01c0.53-0.47,1.55-1.15,2.09-1.48c2.62-1.84,5.15-3.46,7.88-5.1c0.08,0.26,0.15,0.52,0.2,0.78
	c-2.83,1.52-5.94,3.2-8.39,5.31c-0.19,0.14-0.52,0.32-0.3,0.58c0.1,0.1,0.25,0.1,0.36,0.01c0.59-0.42,1.55-1.15,2.15-1.58
	c1.96-1.59,4.17-2.51,6.26-3.81c0.04,0.29,0.06,0.58,0.07,0.87c-0.38,0.21-0.79,0.39-1.17,0.61c-1.72,0.91-3.75,2.13-5.36,3.2
	c-0.2,0.2-0.75,0.42-0.54,0.77c0.08,0.12,0.24,0.13,0.35,0.06c1.12-0.83,2.65-1.8,3.84-2.52c0.93-0.57,1.92-1.05,2.89-1.56
	c-0.01,0.26-0.03,0.51-0.06,0.77c-0.77,0.53-1.63,0.94-2.44,1.43c-0.64,0.38-1.5,1.05-2.12,1.47c-0.12,0.08-0.13,0.24-0.06,0.35
	c0.05,0.07,0.13,0.1,0.21,0.1c0.63-0.3,1.44-1.04,2.05-1.39c0.73-0.47,1.53-0.84,2.26-1.3c-0.04,0.22-0.07,0.44-0.12,0.66
	c-0.71,0.46-1.41,0.97-2.08,1.5c-0.11,0.08-0.14,0.24-0.06,0.35c0.37,0.33,0.74-0.35,1.07-0.49c0.23-0.24,0.56-0.41,0.87-0.6
	c-0.12,0.4-0.24,0.8-0.39,1.18c-0.04,0.13,0.05,0.27,0.17,0.31c0.13,0.05,0.28-0.05,0.32-0.18c0.26-0.6,0.43-1.23,0.56-1.87
	c0.03-0.04,0.06-0.09,0.08-0.13c0-0.04-0.02-0.06-0.04-0.09c0.01-0.04,0.01-0.07,0.02-0.11c0.15,0.68,0.44,1.39,0.9,2.13
	c0.06,0.12,0.23,0.16,0.34,0.09c0.14-0.1,0.14-0.23,0.09-0.36c3.57-2.27,7.53-3.95,11.21-6.02c0.04,0.24,0.07,0.48,0.08,0.72
	c-2.85,1.49-5.81,2.83-8.63,4.41c-0.29,0.24-1.22,0.45-1.05,0.9c0.05,0.08,0.14,0.12,0.23,0.12c0.81-0.41,1.61-0.92,2.44-1.32
	c2.29-1.28,4.7-2.31,7.01-3.56c-0.01,0.37-0.05,0.73-0.1,1.1c-1.65,0.64-3.28,1.56-4.91,2.28c-0.55,0.26-1.12,0.62-1.69,0.92
	c-0.12,0.06-0.16,0.23-0.09,0.34c0.05,0.08,0.14,0.13,0.22,0.12c0.5-0.17,0.93-0.52,1.41-0.76c0.79-0.41,1.63-0.78,2.47-1.17
	c0.84-0.4,1.66-0.8,2.5-1.2c-0.01,0.06-0.02,0.12-0.03,0.18c-0.03,0.2-0.08,0.4-0.13,0.6c-0.01,0.01-0.03,0-0.04,0.01
	c-1.41,0.62-2.83,1.22-4.14,2.02c-0.12,0.07-0.16,0.22-0.09,0.34c0.07,0.12,0.23,0.16,0.34,0.09c1.19-0.71,2.46-1.28,3.74-1.83
	c-0.19,0.56-0.43,1.1-0.75,1.59c-0.09,0.14-0.09,0.35,0.09,0.43c0.15,0.07,0.32-0.04,0.36-0.19c0.06-0.24,0.3-0.51,0.41-0.74
	c0.32-0.67,0.58-1.41,0.74-2.17c0.05,0.96,0.37,1.97,1.02,3.04c0.06,0.12,0.23,0.16,0.34,0.09c0.14-0.1,0.14-0.23,0.09-0.36
	c3.57-2.27,7.53-3.95,11.21-6.02c0.04,0.24,0.07,0.48,0.08,0.72c-2.85,1.49-5.81,2.83-8.63,4.41c-0.29,0.24-1.22,0.45-1.05,0.9
	c0.05,0.08,0.14,0.12,0.23,0.12c0.81-0.41,1.61-0.92,2.44-1.32c2.29-1.28,4.7-2.31,7.01-3.56c-0.01,0.37-0.05,0.73-0.1,1.1
	c-1.65,0.64-3.28,1.56-4.91,2.28c-0.55,0.26-1.12,0.62-1.69,0.92c-0.12,0.06-0.16,0.23-0.09,0.34c0.05,0.08,0.14,0.13,0.22,0.12
	c0.5-0.17,0.93-0.52,1.41-0.76c0.79-0.41,1.63-0.78,2.47-1.17c0.84-0.4,1.66-0.8,2.5-1.2c-0.01,0.06-0.02,0.12-0.03,0.18
	c-0.03,0.2-0.08,0.4-0.13,0.6c-0.01,0.01-0.03,0-0.04,0.01c-1.41,0.62-2.83,1.22-4.14,2.02c-0.12,0.07-0.16,0.22-0.09,0.34
	c0.07,0.12,0.23,0.16,0.34,0.09c1.19-0.71,2.46-1.28,3.74-1.83c-0.19,0.56-0.43,1.1-0.75,1.59c-0.09,0.14-0.09,0.35,0.09,0.43
	c0.15,0.07,0.32-0.04,0.36-0.19c0.06-0.24,0.3-0.51,0.41-0.74C93.9,14.93,94.27,12.68,93.77,10.74z M18.28,14.65
	c0.16-0.07,0.33-0.24,0.48-0.32c3.38-2.07,7.04-3.82,10.69-5.41c0.14,0.22,0.27,0.45,0.39,0.69c-0.14,0.07-0.27,0.17-0.42,0.21
	c-3.6,1.69-7.08,3.62-10.47,5.71c-0.1,0.09-0.29,0.18-0.44,0.28C18.38,15.42,18.32,15.03,18.28,14.65z M28.93,8.22
	c0.08,0.09,0.15,0.2,0.23,0.3c-2,0.89-4.07,1.73-6,2.82c-1.64,0.9-3.36,1.67-4.91,2.75c0,0,0,0-0.01,0c0.01-0.4,0.08-0.79,0.18-1.17
	c0.78-0.35,1.5-0.84,2.24-1.25c2.53-1.46,5.28-2.54,7.92-3.8C28.71,7.98,28.82,8.1,28.93,8.22z M19.36,10.85
	c0.02-0.01,0.05,0,0.07-0.01c1.27-0.74,2.66-1.31,3.99-1.96c1.39-0.64,2.79-1.24,4.19-1.82c0.03,0,0.06-0.03,0.08-0.04
	c0.17,0.16,0.35,0.32,0.52,0.48c-3.25,1.45-6.53,2.91-9.58,4.76C18.83,11.78,19.07,11.31,19.36,10.85z M28.57,7.84
	c-0.01,0-0.01,0-0.02,0C28.56,7.85,28.57,7.84,28.57,7.84C28.57,7.84,28.57,7.84,28.57,7.84z M25.52,4.6
	c0.23,0.4,0.51,0.76,0.82,1.09c-1.15,0.58-2.38,0.98-3.58,1.46c0.88-0.8,1.76-1.55,2.5-2.27C25.35,4.79,25.43,4.69,25.52,4.6z
	 M21.83,8.01c0.07,0.03,0.14,0.02,0.2-0.02c1.51-0.71,3.19-1.12,4.65-1.94c0.2,0.2,0.41,0.4,0.63,0.6
	c-1.28,0.53-2.56,1.08-3.83,1.65c-1.15,0.56-2.33,1.07-3.46,1.66C20.55,9.29,21.17,8.64,21.83,8.01z M6.6,14.64
	c0.02-0.01,0.05,0,0.07-0.02c0.51-0.38,1-0.79,1.5-1.2c2.27-1.55,4.55-3.11,6.94-4.46c0.23-0.2,0.63-0.3,0.89-0.49
	c0.18,0.23,0.35,0.47,0.5,0.71c-0.07,0.06-0.14,0.11-0.22,0.14c-3,1.78-6.14,3.39-8.89,5.54c-0.15,0.17-0.48,0.32-0.68,0.51
	C6.67,15.13,6.64,14.89,6.6,14.64z M15.68,8.07c-3.07,1.74-6.1,3.61-8.86,5.81c-0.06,0.07-0.18,0.13-0.28,0.21
	c-0.02-0.27-0.01-0.55-0.01-0.82c0.06-0.04,0.11-0.08,0.16-0.13c1.91-1.52,3.98-2.92,6.1-4.16c0.73-0.48,1.67-0.91,2.25-1.57
	C15.26,7.62,15.48,7.84,15.68,8.07z M7.5,9.53c0.03-0.02,0.06-0.02,0.08-0.04c1.44-1.1,3.01-2.12,4.61-3.01
	c0.27-0.22,0.83-0.4,1.16-0.65c0.16,0.15,0.31,0.31,0.48,0.45c-0.46,0.26-0.94,0.57-1.43,0.81C10.46,8.1,8.67,9.4,6.94,10.73
	C7.09,10.31,7.28,9.91,7.5,9.53z M6.74,11.49c0.02-0.01,0.05-0.01,0.07-0.03c0.73-0.59,1.5-1.13,2.25-1.7
	c1.6-1.23,3.42-2.09,5.14-3.15c0.17,0.15,0.33,0.31,0.5,0.46c-0.44,0.26-1.01,0.87-1.31,0.95c-2.37,1.38-4.68,2.86-6.83,4.57
	C6.6,12.23,6.66,11.86,6.74,11.49z M11.96,4.16c0.29,0.47,0.63,0.9,1.01,1.29c-0.85,0.49-1.71,0.95-2.54,1.47
	C9.71,7.39,9,7.86,8.3,8.36C9.42,6.88,11.03,5.79,11.96,4.16z M12.53,13.05c-1.7,1.16-3.68,2.64-5.38,3.8
	c-0.12-0.31-0.22-0.63-0.31-0.96c0.63-0.36,1.17-0.92,1.78-1.33c2.58-1.83,5.44-3.29,8.13-4.96c0.13,0.24,0.23,0.49,0.33,0.74
	C15.61,11.29,14.01,12.07,12.53,13.05z M25.58,13.29c-2.21,1.17-4.51,2.22-6.61,3.61c-0.01-0.02-0.02-0.05-0.03-0.07
	c-0.09-0.17-0.15-0.34-0.23-0.52c0.17-0.09,0.34-0.28,0.51-0.35c0-0.01,0.02-0.02,0.04-0.03c0,0,0.03-0.02,0.06-0.04l0,0
	c0,0,0,0,0,0c3.45-2.11,7.01-4.08,10.67-5.78c0.02-0.01,0.04-0.02,0.06-0.02c0.1,0.25,0.19,0.5,0.25,0.75
	c-0.31,0.13-0.69,0.39-0.88,0.45C28.14,11.95,26.88,12.65,25.58,13.29z M43.22,14.65c0.16-0.07,0.33-0.24,0.48-0.32
	c3.38-2.07,7.04-3.82,10.69-5.41c0.14,0.22,0.27,0.45,0.39,0.69c-0.14,0.07-0.27,0.17-0.42,0.21c-3.6,1.69-7.08,3.62-10.47,5.71
	c-0.1,0.09-0.29,0.18-0.44,0.28C43.32,15.42,43.25,15.04,43.22,14.65z M53.86,8.22c0.08,0.09,0.15,0.2,0.23,0.3
	c-2,0.89-4.07,1.73-6,2.82c-1.64,0.9-3.36,1.67-4.91,2.75c0,0,0,0-0.01,0c0.01-0.4,0.08-0.79,0.18-1.17
	c0.78-0.35,1.5-0.84,2.24-1.25c2.53-1.46,5.28-2.54,7.92-3.8C53.64,7.99,53.76,8.1,53.86,8.22z M44.29,10.86
	c0.02-0.01,0.05,0,0.07-0.01c1.27-0.74,2.66-1.31,3.99-1.96c1.39-0.64,2.79-1.24,4.19-1.82c0.03,0,0.06-0.03,0.08-0.04
	c0.17,0.16,0.35,0.32,0.52,0.48c-3.25,1.45-6.53,2.91-9.58,4.76C43.76,11.78,44,11.31,44.29,10.86z M53.51,7.85
	c-0.01,0-0.01,0-0.02,0C53.5,7.85,53.5,7.85,53.51,7.85C53.51,7.84,53.51,7.85,53.51,7.85z M50.46,4.6c0.23,0.4,0.51,0.76,0.82,1.09
	c-1.15,0.58-2.38,0.98-3.58,1.46c0.88-0.8,1.76-1.55,2.5-2.27C50.28,4.79,50.37,4.69,50.46,4.6z M46.76,8.01
	c0.07,0.03,0.14,0.02,0.2-0.02c1.51-0.71,3.19-1.12,4.65-1.94c0.2,0.2,0.41,0.4,0.63,0.6c-1.28,0.53-2.56,1.08-3.83,1.65
	c-1.15,0.56-2.33,1.07-3.46,1.66C45.49,9.29,46.11,8.64,46.76,8.01z M31.54,14.64c0.02-0.01,0.05,0,0.07-0.02
	c0.51-0.38,1-0.79,1.5-1.2c2.27-1.55,4.55-3.11,6.94-4.46c0.23-0.2,0.63-0.3,0.89-0.49c0.18,0.23,0.35,0.47,0.5,0.71
	c-0.07,0.06-0.14,0.11-0.22,0.14c-3,1.78-6.14,3.39-8.89,5.54c-0.15,0.17-0.48,0.32-0.68,0.51C31.6,15.13,31.57,14.89,31.54,14.64z
	 M40.62,8.07c-3.07,1.74-6.1,3.61-8.86,5.81c-0.06,0.07-0.18,0.13-0.28,0.21c-0.02-0.27-0.01-0.55-0.01-0.82
	c0.06-0.04,0.11-0.08,0.16-0.13c1.91-1.52,3.98-2.92,6.1-4.16c0.73-0.48,1.67-0.91,2.25-1.57C40.19,7.62,40.41,7.84,40.62,8.07z
	 M32.44,9.53c0.03-0.02,0.06-0.02,0.08-0.04c1.44-1.1,3.01-2.12,4.61-3.01c0.27-0.22,0.83-0.4,1.16-0.65
	c0.16,0.15,0.31,0.31,0.48,0.45c-0.46,0.26-0.94,0.57-1.43,0.81c-1.94,1.01-3.73,2.31-5.46,3.64C32.02,10.31,32.21,9.91,32.44,9.53z
	 M31.68,11.49c0.02-0.01,0.05-0.01,0.07-0.03c0.73-0.59,1.5-1.13,2.25-1.7c1.6-1.23,3.42-2.09,5.14-3.15
	c0.17,0.15,0.33,0.31,0.5,0.46c-0.44,0.26-1.01,0.87-1.31,0.95c-2.37,1.38-4.68,2.86-6.83,4.57C31.53,12.23,31.59,11.86,31.68,11.49
	z M36.9,4.16c0.29,0.47,0.63,0.9,1.01,1.29c-0.85,0.49-1.71,0.95-2.54,1.47c-0.72,0.46-1.44,0.94-2.14,1.43
	C34.35,6.88,35.96,5.79,36.9,4.16z M37.47,13.05c-1.7,1.16-3.68,2.64-5.38,3.8c-0.12-0.31-0.22-0.63-0.31-0.96
	c0.63-0.36,1.17-0.92,1.78-1.33c2.58-1.83,5.44-3.29,8.13-4.96c0.13,0.24,0.23,0.49,0.33,0.74C40.55,11.3,38.95,12.08,37.47,13.05z
	 M50.51,13.29c-2.21,1.17-4.51,2.22-6.61,3.61c-0.01-0.02-0.02-0.05-0.03-0.07c-0.09-0.17-0.15-0.34-0.23-0.52
	c0.17-0.09,0.34-0.28,0.51-0.35c0-0.01,0.02-0.02,0.04-0.03c0,0,0.03-0.02,0.06-0.04l0,0c0,0,0,0,0,0
	c3.45-2.11,7.01-4.08,10.67-5.78c0.02-0.01,0.04-0.02,0.06-0.02c0.1,0.25,0.19,0.5,0.25,0.75c-0.31,0.13-0.69,0.39-0.88,0.45
	C53.08,11.95,51.82,12.66,50.51,13.29z M68.15,14.64c0.16-0.07,0.33-0.24,0.48-0.32c3.38-2.07,7.04-3.82,10.69-5.41
	c0.14,0.22,0.27,0.45,0.39,0.69c-0.14,0.07-0.28,0.17-0.42,0.21c-3.6,1.69-7.08,3.62-10.47,5.71c-0.1,0.09-0.29,0.18-0.44,0.28
	C68.25,15.41,68.18,15.02,68.15,14.64z M78.8,8.21c0.08,0.09,0.15,0.2,0.23,0.3c-2,0.89-4.07,1.73-6,2.82
	c-1.64,0.9-3.36,1.67-4.91,2.75c0,0,0,0-0.01,0c0.01-0.4,0.08-0.79,0.18-1.17c0.78-0.35,1.5-0.84,2.24-1.25
	c2.53-1.46,5.28-2.54,7.92-3.8C78.58,7.97,78.69,8.09,78.8,8.21z M69.23,10.84c0.02-0.01,0.05,0,0.07-0.01
	c1.27-0.74,2.66-1.31,3.99-1.96c1.39-0.64,2.79-1.24,4.19-1.82c0.03,0,0.06-0.03,0.08-0.04c0.17,0.16,0.35,0.32,0.52,0.48
	c-3.25,1.45-6.53,2.91-9.58,4.76C68.69,11.76,68.93,11.3,69.23,10.84z M78.44,7.83c-0.01,0-0.01,0-0.02,0
	C78.43,7.83,78.43,7.83,78.44,7.83C78.44,7.83,78.44,7.83,78.44,7.83z M75.39,4.59c0.23,0.4,0.51,0.76,0.82,1.09
	c-1.15,0.58-2.38,0.98-3.58,1.46c0.88-0.8,1.76-1.55,2.5-2.27C75.22,4.77,75.3,4.68,75.39,4.59z M71.69,8
	c0.07,0.03,0.14,0.02,0.2-0.02c1.51-0.71,3.19-1.12,4.65-1.94c0.2,0.2,0.41,0.4,0.63,0.6c-1.28,0.53-2.56,1.08-3.83,1.65
	c-1.15,0.56-2.33,1.07-3.46,1.66C70.42,9.27,71.04,8.62,71.69,8z M56.47,14.63c0.02-0.01,0.05,0,0.07-0.02c0.51-0.38,1-0.79,1.5-1.2
	c2.27-1.55,4.55-3.11,6.94-4.46c0.23-0.2,0.63-0.3,0.89-0.49c0.18,0.23,0.34,0.47,0.5,0.71c-0.07,0.06-0.14,0.11-0.22,0.14
	c-3,1.78-6.14,3.39-8.89,5.54c-0.15,0.17-0.48,0.32-0.68,0.51C56.54,15.12,56.5,14.88,56.47,14.63z M65.55,8.06
	c-3.07,1.74-6.1,3.61-8.86,5.81c-0.06,0.07-0.18,0.13-0.28,0.21c-0.02-0.27-0.01-0.55-0.01-0.82c0.06-0.04,0.11-0.08,0.16-0.13
	c1.91-1.52,3.98-2.92,6.1-4.16c0.73-0.48,1.67-0.91,2.25-1.57C65.13,7.61,65.34,7.83,65.55,8.06z M57.37,9.51
	c0.03-0.02,0.06-0.02,0.08-0.04c1.44-1.1,3.01-2.12,4.61-3.01c0.27-0.22,0.83-0.4,1.16-0.65c0.16,0.15,0.31,0.31,0.48,0.45
	c-0.46,0.26-0.94,0.57-1.43,0.81c-1.94,1.01-3.73,2.31-5.46,3.64C56.95,10.3,57.15,9.9,57.37,9.51z M56.61,11.48
	c0.02-0.01,0.05-0.01,0.07-0.03c0.73-0.59,1.5-1.13,2.25-1.7c1.6-1.23,3.42-2.09,5.14-3.15c0.17,0.15,0.33,0.31,0.5,0.46
	c-0.44,0.26-1.01,0.87-1.31,0.95c-2.37,1.38-4.68,2.86-6.83,4.57C56.47,12.21,56.53,11.85,56.61,11.48z M61.83,4.15
	c0.29,0.47,0.63,0.9,1.01,1.29C62,5.93,61.14,6.4,60.31,6.91c-0.72,0.46-1.44,0.94-2.14,1.43C59.29,6.86,60.9,5.77,61.83,4.15z
	 M62.4,13.03c-1.7,1.16-3.68,2.64-5.38,3.8c-0.12-0.31-0.22-0.63-0.31-0.96c0.63-0.36,1.17-0.92,1.78-1.33
	c2.58-1.83,5.44-3.29,8.13-4.96c0.13,0.24,0.23,0.49,0.33,0.74C65.48,11.28,63.88,12.06,62.4,13.03z M75.45,13.28
	c-2.21,1.17-4.51,2.22-6.61,3.61c-0.01-0.02-0.02-0.05-0.03-0.07c-0.09-0.17-0.15-0.34-0.23-0.52c0.17-0.09,0.34-0.28,0.51-0.35
	c0-0.01,0.02-0.02,0.04-0.03c0,0,0.03-0.02,0.06-0.04l0,0c0,0,0,0,0,0c3.45-2.11,7.01-4.08,10.67-5.78
	c0.02-0.01,0.04-0.02,0.06-0.02c0.1,0.25,0.19,0.5,0.25,0.75c-0.31,0.13-0.69,0.39-0.88,0.45C78.01,11.94,76.75,12.64,75.45,13.28z
	 M81.24,14.63c0.16-0.07,0.33-0.24,0.48-0.32c3.38-2.07,7.04-3.82,10.69-5.41c0.14,0.22,0.27,0.45,0.39,0.69
	c-0.14,0.07-0.28,0.17-0.42,0.21c-3.6,1.69-7.08,3.62-10.47,5.71c-0.1,0.09-0.29,0.18-0.44,0.28C81.34,15.4,81.27,15.02,81.24,14.63
	z M91.88,8.2c0.08,0.09,0.15,0.2,0.23,0.3c-2,0.89-4.07,1.73-6,2.82c-1.64,0.9-3.36,1.67-4.91,2.75c0,0,0,0-0.01,0
	c0.01-0.4,0.08-0.79,0.18-1.17c0.78-0.35,1.5-0.84,2.24-1.25c2.53-1.46,5.28-2.54,7.92-3.8C91.66,7.96,91.78,8.08,91.88,8.2z
	 M82.32,10.84c0.02-0.01,0.05,0,0.07-0.01c1.27-0.74,2.66-1.31,3.99-1.96c1.39-0.64,2.79-1.24,4.19-1.82c0.03,0,0.06-0.03,0.08-0.04
	c0.17,0.16,0.35,0.32,0.52,0.48c-3.25,1.45-6.53,2.91-9.58,4.76C81.78,11.76,82.02,11.29,82.32,10.84z M91.53,7.83
	c-0.01,0-0.01,0-0.02,0C91.52,7.83,91.52,7.82,91.53,7.83C91.53,7.82,91.53,7.82,91.53,7.83z M88.48,4.58
	c0.23,0.4,0.51,0.76,0.82,1.09c-1.15,0.58-2.38,0.98-3.58,1.46c0.88-0.8,1.76-1.55,2.5-2.27C88.3,4.77,88.39,4.67,88.48,4.58z
	 M84.78,7.99c0.07,0.03,0.14,0.02,0.2-0.02c1.51-0.71,3.19-1.12,4.65-1.94c0.2,0.2,0.41,0.4,0.63,0.6
	c-1.28,0.53-2.56,1.08-3.83,1.65c-1.15,0.56-2.33,1.07-3.46,1.66C83.51,9.27,84.13,8.62,84.78,7.99z M88.53,13.27
	c-2.21,1.17-4.51,2.22-6.61,3.61c-0.01-0.02-0.02-0.05-0.03-0.07c-0.09-0.17-0.15-0.34-0.23-0.52c0.17-0.09,0.34-0.28,0.51-0.35
	c0-0.01,0.02-0.02,0.04-0.03c0,0,0.03-0.02,0.06-0.04l0,0c0,0,0,0,0,0c3.45-2.11,7.01-4.08,10.67-5.78
	c0.02-0.01,0.04-0.02,0.06-0.02c0.1,0.25,0.19,0.5,0.25,0.75c-0.31,0.13-0.69,0.39-0.88,0.45C91.1,11.93,89.84,12.63,88.53,13.27z"
	/>
</svg>
