<?xml version="1.0" encoding="utf-8"?>
<!-- Generator: Adobe Illustrator 23.0.0, SVG Export Plug-In . SVG Version: 6.00 Build 0)  -->
<svg version="1.1" id="Слой_1" xmlns="http://www.w3.org/2000/svg" xmlns:xlink="http://www.w3.org/1999/xlink" x="0px" y="0px"
	 viewBox="0 0 100 21.28" style="enable-background:new 0 0 100 21.28;" xml:space="preserve">
<g>
	<path d="M20.8,17.45C20.8,17.45,20.79,17.45,20.8,17.45c-0.01-0.01-0.02-0.01-0.02-0.01C20.78,17.44,20.8,17.45,20.8,17.45z"/>
	<path d="M45.92,17.45C45.91,17.45,45.91,17.45,45.92,17.45c-0.01-0.01-0.02-0.01-0.02-0.01C45.89,17.44,45.91,17.45,45.92,17.45z"
		/>
	<path d="M71.03,17.45C71.03,17.45,71.03,17.45,71.03,17.45c-0.01-0.01-0.02-0.01-0.02-0.01C71.01,17.44,71.03,17.45,71.03,17.45z"
		/>
	<path d="M92.27,7.49C92.27,7.49,92.27,7.49,92.27,7.49C92.27,7.49,92.27,7.49,92.27,7.49c-1.12-1.29-2.6-2.39-3.81-3.52
		c0,0,0,0,0,0c0,0,0,0,0,0c-0.01-0.01-0.13-0.08-0.1-0.06c-0.08-0.07-0.15-0.07-0.22-0.04c-0.04,0.01-0.08,0.03-0.13,0.07
		c-2.27,1.72-5.03,4.26-6.14,7.08c-0.04,0.03-0.06,0.07-0.05,0.13c-0.12,0.33-0.23,0.66-0.3,1c0.09-2.7-1.83-5.05-3.97-6.65
		c-0.58-0.43-1.43-1.45-2.11-1.74c-0.01,0-0.01,0.01-0.02,0.01c-0.14-0.02-0.31,0.04-0.4,0.21c-2.07,2.19-5.07,4.44-6.25,6.92
		c-0.15-1.33-0.78-2.43-1.64-3.42c0,0,0,0,0,0c0,0,0,0,0,0c-1.12-1.29-2.6-2.38-3.8-3.52c0,0,0,0,0,0c0,0,0,0,0,0
		c-0.01-0.01-0.13-0.08-0.1-0.06c-0.08-0.07-0.15-0.07-0.22-0.04C63,3.89,62.96,3.91,62.91,3.95c-2.27,1.72-5.03,4.26-6.14,7.08
		c-0.04,0.03-0.06,0.07-0.05,0.13c-0.12,0.33-0.23,0.66-0.3,1c0.09-2.7-1.83-5.05-3.97-6.65c-0.58-0.43-1.43-1.45-2.11-1.74
		c-0.01,0-0.01,0.01-0.02,0.01c-0.14-0.02-0.31,0.04-0.4,0.21c-2.07,2.19-5.07,4.44-6.25,6.92c-0.15-1.33-0.78-2.43-1.64-3.42
		c0,0,0,0,0,0c0,0,0,0,0,0c-1.12-1.29-2.6-2.38-3.8-3.52c0,0,0,0,0,0c0,0,0,0,0,0c-0.01-0.01-0.13-0.08-0.1-0.06
		c-0.08-0.07-0.15-0.07-0.22-0.04c-0.04,0.01-0.08,0.03-0.13,0.07c-2.27,1.72-5.03,4.26-6.14,7.08c-0.04,0.03-0.06,0.07-0.05,0.13
		c-0.12,0.33-0.23,0.66-0.3,1c0.09-2.7-1.83-5.05-3.97-6.65c-0.58-0.43-1.43-1.45-2.11-1.74c-0.01,0-0.01,0.01-0.02,0.01
		c-0.14-0.02-0.31,0.04-0.4,0.21c-2.07,2.19-5.07,4.44-6.25,6.92c-0.15-1.33-0.78-2.43-1.64-3.42c0,0,0,0,0,0c0,0,0,0,0,0
		c-1.12-1.29-2.6-2.38-3.8-3.52c0,0,0,0,0,0c0,0,0,0,0,0c-0.01-0.01-0.13-0.08-0.1-0.06c-0.08-0.07-0.15-0.07-0.22-0.04
		c-0.04,0.01-0.08,0.03-0.13,0.07c-2.27,1.72-5.03,4.26-6.14,7.08c-0.04,0.03-0.06,0.07-0.05,0.13c-0.68,1.83-0.66,3.76,0.68,5.67
		c0.18,0.29,0.63-0.01,0.44-0.29c-0.1-0.15-0.19-0.31-0.28-0.47c-0.2-0.35-0.34-0.7-0.46-1.04c0.6,0.61,1.14,1.3,1.75,1.9
		c0.45,0.25,0.59-0.29,0.2-0.55c-0.73-0.74-1.36-1.62-2.17-2.28c-0.04-0.27-0.06-0.53-0.06-0.8c1.29,1.26,2.39,2.69,3.81,3.84
		c0.12,0.08,0.29,0.03,0.36-0.09c0.17-0.31-0.28-0.48-0.44-0.69c-1.33-1.13-2.37-2.6-3.68-3.77c0,0.01,0.01,0.01,0.01,0.02
		c0,0,0,0.01,0.01,0.01c-0.01-0.01-0.02-0.02-0.03-0.03c0.04-0.28,0.1-0.56,0.18-0.83c1.01,1.44,4.2,4.35,5,5.01
		c0.04,0.09,0.1,0.17,0.21,0.17c0,0,0.01,0,0.01,0c0.01,0.02,0.02,0.03,0.04,0.05c0.13,0.09,0.32,0.04,0.4-0.1
		c1.51-1.38,2.81-2.92,4.34-4.29c0.39-0.39,0.89-0.75,1.31-1.14c0.01,0.17,0.01,0.35,0,0.53c-0.03,0.02-0.06,0.03-0.08,0.05
		c-1.25,1.23-2.57,2.43-3.8,3.68c-0.23,0.34-1.08,0.79-0.73,1.23c0.12,0.09,0.28,0.06,0.37-0.05c0.8-0.95,1.72-1.8,2.64-2.64
		c0.44-0.49,1.02-0.94,1.49-1.44c-0.05,0.24-0.12,0.49-0.2,0.74c-0.11,0.08-0.2,0.22-0.33,0.32c-0.96,0.86-1.92,1.82-2.75,2.78
		c-0.09,0.11-0.1,0.27,0,0.38c0.1,0.09,0.28,0.1,0.38,0c0.36-0.39,0.66-0.76,1.05-1.16c0.33-0.43,0.78-0.77,1.19-1.14
		c-0.15,0.31-0.31,0.63-0.5,0.96c-0.17,0.29-0.29,0.59-0.49,0.85c-0.13,0.12-0.27,0.35-0.09,0.5c0.16,0.15,0.37,0.03,0.47-0.13
		c0.58-0.91,1.15-1.88,1.5-2.91c0.31,1.09,1.1,2.22,2.57,3.42c0.46,0.25,0.58-0.4,0.14-0.55c-1.05-0.88-1.69-1.72-2.03-2.54
		c1,0.96,2.03,1.93,3.02,2.87c0.03,0.02,0.03,0.02,0.06,0.05c0.31,0.24,0.61-0.26,0.29-0.45c-1.18-1.1-2.38-2.26-3.58-3.4
		c-0.01-0.02-0.03-0.02-0.04-0.04c-0.04-0.33-0.04-0.66,0-0.99c1.59,1.65,3.26,3.21,4.9,4.83c0.1,0.1,0.27,0.12,0.38,0.02
		c0.1-0.09,0.12-0.27,0.02-0.38c-0.52-0.55-1.06-1.02-1.63-1.55c-1.09-1.14-2.26-2.23-3.37-3.36c-0.04-0.06-0.1-0.1-0.17-0.11
		c0.08-0.28,0.19-0.55,0.32-0.82c1.77,1.92,3.65,3.74,5.49,5.61c0,0.22,0,0.43,0,0.65c0.02,0.28,0.37,0.29,0.48,0.09
		c0.05-0.02,0.1-0.04,0.13-0.09c0.57-1.05,1.45-1.99,2.24-2.91c0.14-0.31,2.47-2.42,3.2-3.5c0.05,0.22,0.09,0.44,0.11,0.67
		c-0.08,0.06-0.15,0.16-0.21,0.24c-1.43,1.69-3.14,3.16-4.33,5.07c-0.07,0.12-0.04,0.28,0.09,0.36c0.28,0.16,0.42-0.19,0.55-0.37
		c1.11-1.67,2.62-3.02,3.92-4.54c-0.02,0.28-0.06,0.57-0.12,0.86c-1,1.01-2.03,2.1-2.82,3.29c-0.13,0.2-0.48,0.51-0.17,0.72
		c0.13,0.08,0.3,0.02,0.38-0.11c0.66-0.99,1.43-1.89,2.24-2.75c-0.3,0.68-0.72,1.38-1.31,2.13c-0.15,0.18-0.64,0.46-0.35,0.74
		c0.11,0.1,0.27,0.08,0.37-0.02c1.05-0.94,1.72-2.24,2.12-3.58c0.04-0.13,0.06-0.25,0.09-0.38c-0.05,1.2,0.27,2.43,1.11,3.64
		c0.18,0.29,0.63-0.01,0.44-0.29c-0.1-0.15-0.19-0.31-0.28-0.47c-0.2-0.35-0.34-0.7-0.46-1.04c0.6,0.61,1.14,1.3,1.75,1.9
		c0.45,0.25,0.59-0.29,0.2-0.55c-0.73-0.74-1.36-1.62-2.17-2.28c-0.04-0.27-0.06-0.53-0.06-0.8c1.29,1.26,2.39,2.69,3.81,3.84
		c0.12,0.08,0.29,0.03,0.36-0.09c0.17-0.31-0.28-0.48-0.44-0.69c-1.33-1.13-2.37-2.6-3.68-3.77c0,0.01,0.01,0.01,0.01,0.02
		c0,0,0,0.01,0.01,0.01c-0.01-0.01-0.02-0.02-0.03-0.03c0.04-0.28,0.1-0.56,0.18-0.84c1.01,1.44,4.2,4.35,5,5.01
		c0.04,0.09,0.1,0.17,0.21,0.17c0,0,0.01,0,0.01,0c0.01,0.02,0.02,0.03,0.04,0.05c0.13,0.09,0.32,0.04,0.4-0.1
		c1.51-1.38,2.81-2.92,4.34-4.29c0.39-0.39,0.89-0.75,1.31-1.14c0.01,0.17,0.01,0.35,0,0.53c-0.03,0.02-0.06,0.03-0.08,0.05
		c-1.25,1.23-2.57,2.43-3.8,3.68c-0.23,0.34-1.08,0.79-0.73,1.23c0.12,0.09,0.28,0.06,0.37-0.05c0.8-0.95,1.72-1.8,2.64-2.64
		c0.44-0.49,1.02-0.94,1.49-1.44c-0.05,0.24-0.12,0.49-0.2,0.74c-0.11,0.08-0.2,0.22-0.33,0.32c-0.96,0.86-1.92,1.82-2.75,2.78
		c-0.09,0.11-0.1,0.27,0,0.38c0.1,0.09,0.28,0.1,0.38,0c0.36-0.39,0.66-0.76,1.05-1.16c0.33-0.43,0.78-0.77,1.19-1.14
		c-0.15,0.31-0.31,0.63-0.5,0.96c-0.17,0.29-0.29,0.59-0.49,0.85c-0.13,0.12-0.27,0.35-0.09,0.5c0.16,0.15,0.37,0.03,0.47-0.13
		c0.58-0.91,1.15-1.88,1.5-2.91c0.31,1.09,1.1,2.22,2.57,3.42c0.46,0.25,0.58-0.4,0.14-0.55c-1.05-0.88-1.69-1.72-2.03-2.54
		c1,0.96,2.03,1.93,3.02,2.87c0.03,0.02,0.03,0.02,0.06,0.05c0.31,0.24,0.61-0.26,0.29-0.45c-1.18-1.1-2.38-2.26-3.58-3.4
		c-0.01-0.02-0.03-0.02-0.04-0.04c-0.04-0.33-0.04-0.66,0-0.99c1.59,1.65,3.26,3.21,4.9,4.83c0.1,0.1,0.27,0.12,0.38,0.02
		c0.1-0.09,0.12-0.27,0.02-0.38c-0.52-0.55-1.06-1.02-1.63-1.55c-1.09-1.14-2.26-2.23-3.37-3.36c-0.04-0.06-0.1-0.1-0.17-0.11
		c0.08-0.28,0.19-0.55,0.32-0.83c1.77,1.92,3.65,3.74,5.49,5.61c0,0.22,0,0.43,0,0.65c0.02,0.28,0.37,0.29,0.48,0.09
		c0.05-0.02,0.1-0.04,0.13-0.09c0.57-1.05,1.45-1.99,2.24-2.91c0.14-0.31,2.47-2.42,3.2-3.5c0.05,0.22,0.09,0.44,0.11,0.67
		c-0.08,0.06-0.15,0.16-0.21,0.24c-1.43,1.69-3.14,3.16-4.33,5.07c-0.07,0.12-0.04,0.28,0.09,0.36c0.28,0.16,0.42-0.19,0.55-0.37
		c1.11-1.67,2.62-3.02,3.92-4.54c-0.02,0.28-0.06,0.57-0.12,0.86c-1,1.01-2.03,2.1-2.82,3.29c-0.13,0.2-0.48,0.51-0.17,0.72
		c0.13,0.08,0.3,0.02,0.38-0.11c0.66-0.99,1.43-1.89,2.24-2.75c-0.3,0.68-0.72,1.38-1.31,2.13c-0.15,0.18-0.64,0.46-0.35,0.74
		c0.11,0.1,0.27,0.08,0.37-0.02c1.05-0.94,1.72-2.24,2.12-3.58c0.04-0.13,0.06-0.25,0.09-0.38c-0.05,1.2,0.27,2.43,1.11,3.64
		c0.18,0.29,0.63-0.01,0.44-0.29c-0.1-0.15-0.19-0.31-0.28-0.47c-0.2-0.35-0.34-0.7-0.46-1.04c0.6,0.61,1.14,1.3,1.75,1.9
		c0.45,0.25,0.59-0.29,0.2-0.55c-0.73-0.74-1.36-1.62-2.17-2.28c-0.04-0.27-0.06-0.53-0.06-0.8c1.29,1.26,2.39,2.69,3.81,3.84
		c0.12,0.08,0.29,0.03,0.36-0.09c0.17-0.31-0.28-0.48-0.44-0.69c-1.33-1.13-2.37-2.6-3.68-3.77c0,0.01,0.01,0.01,0.01,0.02
		c0,0,0,0.01,0.01,0.01c-0.01-0.01-0.02-0.02-0.03-0.03c0.04-0.28,0.1-0.56,0.18-0.83c1.01,1.44,4.2,4.35,5,5.01
		c0.04,0.09,0.1,0.17,0.21,0.17c0,0,0.01,0,0.01,0c0.01,0.02,0.02,0.03,0.04,0.05c0.13,0.09,0.32,0.04,0.4-0.1
		c1.51-1.38,2.81-2.92,4.34-4.29c0.39-0.39,0.89-0.75,1.31-1.14c0.01,0.17,0.01,0.35,0,0.53c-0.03,0.02-0.06,0.03-0.08,0.05
		c-1.25,1.23-2.57,2.43-3.8,3.68c-0.23,0.34-1.08,0.79-0.73,1.23c0.12,0.09,0.28,0.06,0.37-0.05c0.8-0.95,1.72-1.8,2.64-2.64
		c0.44-0.49,1.02-0.94,1.49-1.44c-0.05,0.24-0.12,0.49-0.2,0.74c-0.11,0.08-0.2,0.22-0.33,0.32c-0.96,0.86-1.92,1.82-2.75,2.78
		c-0.09,0.11-0.1,0.27,0,0.38c0.1,0.09,0.28,0.1,0.38,0c0.36-0.39,0.66-0.76,1.05-1.16c0.33-0.43,0.78-0.77,1.19-1.14
		c-0.15,0.31-0.31,0.63-0.5,0.96c-0.17,0.29-0.29,0.59-0.49,0.85c-0.13,0.12-0.27,0.35-0.09,0.5c0.16,0.15,0.37,0.03,0.47-0.13
		c0.58-0.91,1.15-1.88,1.5-2.91c0.31,1.09,1.1,2.22,2.57,3.42c0.46,0.25,0.58-0.4,0.14-0.55c-1.05-0.88-1.69-1.72-2.03-2.54
		c1,0.96,2.03,1.93,3.02,2.87c0.03,0.02,0.03,0.02,0.06,0.05c0.31,0.24,0.61-0.26,0.29-0.45c-1.18-1.1-2.38-2.26-3.58-3.4
		c-0.01-0.02-0.03-0.02-0.04-0.04c-0.04-0.33-0.04-0.66,0-0.99c1.59,1.65,3.26,3.21,4.9,4.83c0.1,0.1,0.27,0.12,0.38,0.02
		c0.1-0.09,0.12-0.27,0.02-0.38c-0.52-0.55-1.06-1.02-1.63-1.55c-1.09-1.14-2.26-2.23-3.37-3.36c-0.04-0.06-0.1-0.1-0.17-0.11
		c0.08-0.28,0.19-0.55,0.32-0.83c1.77,1.92,3.65,3.74,5.49,5.61c0,0.22,0,0.43,0,0.65c0.02,0.28,0.37,0.29,0.48,0.09
		c0.05-0.02,0.1-0.04,0.13-0.09c0.57-1.05,1.45-1.99,2.24-2.91c0.14-0.31,2.47-2.42,3.2-3.5c0.05,0.22,0.09,0.44,0.11,0.67
		c-0.08,0.06-0.15,0.16-0.21,0.24c-1.43,1.69-3.14,3.16-4.33,5.07c-0.07,0.12-0.04,0.28,0.09,0.36c0.28,0.16,0.42-0.19,0.55-0.37
		c1.11-1.67,2.62-3.02,3.92-4.54c-0.02,0.28-0.06,0.57-0.12,0.86c-1,1.01-2.03,2.1-2.82,3.29c-0.13,0.2-0.48,0.51-0.17,0.72
		c0.13,0.08,0.3,0.02,0.38-0.11c0.66-0.99,1.43-1.89,2.24-2.75c-0.3,0.68-0.72,1.38-1.31,2.13c-0.15,0.18-0.64,0.46-0.35,0.74
		c0.11,0.1,0.27,0.08,0.37-0.02c1.05-0.94,1.72-2.24,2.12-3.58c0.04-0.13,0.06-0.25,0.09-0.38c-0.05,1.2,0.27,2.43,1.11,3.64
		c0.18,0.29,0.63-0.01,0.44-0.29c-0.1-0.15-0.19-0.31-0.28-0.47c-0.2-0.35-0.34-0.7-0.46-1.04c0.6,0.61,1.14,1.3,1.75,1.9
		c0.45,0.25,0.59-0.29,0.2-0.55c-0.73-0.74-1.36-1.62-2.17-2.28c-0.04-0.27-0.06-0.53-0.06-0.8c1.29,1.26,2.39,2.69,3.81,3.84
		c0.12,0.08,0.29,0.03,0.36-0.09c0.17-0.31-0.28-0.48-0.44-0.69c-1.33-1.13-2.37-2.6-3.68-3.77c0,0.01,0.01,0.01,0.01,0.02
		c0,0,0,0.01,0.01,0.01c-0.01-0.01-0.02-0.02-0.03-0.03c0.04-0.28,0.1-0.56,0.18-0.83c1.01,1.44,4.2,4.35,5,5.01
		c0.04,0.09,0.1,0.17,0.21,0.17c0,0,0.01,0,0.01,0c0.01,0.02,0.02,0.03,0.04,0.05c0.13,0.09,0.32,0.04,0.4-0.1
		c1.51-1.38,2.81-2.92,4.34-4.29c0.39-0.39,0.89-0.75,1.31-1.14c0.01,0.17,0.01,0.35,0,0.53c-0.03,0.02-0.06,0.03-0.08,0.05
		c-1.25,1.23-2.57,2.43-3.8,3.68c-0.23,0.34-1.08,0.79-0.73,1.23c0.12,0.09,0.28,0.06,0.37-0.05c0.8-0.95,1.72-1.8,2.64-2.64
		c0.44-0.49,1.02-0.94,1.49-1.44c-0.05,0.24-0.12,0.49-0.2,0.74c-0.11,0.08-0.2,0.22-0.33,0.32c-0.96,0.86-1.92,1.82-2.75,2.78
		c-0.09,0.11-0.1,0.27,0,0.38c0.1,0.09,0.28,0.1,0.38,0c0.36-0.39,0.66-0.76,1.05-1.16c0.33-0.43,0.78-0.77,1.19-1.14
		c-0.15,0.31-0.31,0.63-0.5,0.96c-0.17,0.29-0.29,0.59-0.49,0.85c-0.13,0.12-0.27,0.35-0.09,0.5c0.16,0.15,0.37,0.03,0.47-0.13
		c0.94-1.48,1.86-3.12,1.86-4.92C94.11,10.18,93.36,8.74,92.27,7.49z M24.04,14.01c-1.4-1.38-2.59-3.1-4.02-4.45
		c0.04-0.06,0.09-0.11,0.14-0.17c0.17-0.03,0.4-0.13,0.47-0.18c0,0,0.01-0.01,0.01-0.01c1.45,1.46,2.68,3.19,3.93,4.76
		c0,0.2-0.01,0.41-0.01,0.61C24.4,14.37,24.22,14.18,24.04,14.01z M25.11,13.64c0-0.36,0-0.72,0.01-1.08
		c0.02-0.01,0.04-0.02,0.05-0.03c0.33-0.47,0.7-0.98,1.08-1.43c0.16-0.32,1.75-2,2.13-2.82c0.09,0.05,0.18,0.08,0.27,0.13
		c0.11,0.07,0.21,0.15,0.31,0.23c-0.07,0.08-0.14,0.17-0.22,0.25C27.43,10.39,26.16,11.93,25.11,13.64z M25.15,11.66
		c0.02-0.35,0.03-0.69,0.05-1.04c0.04-0.04,0.07-0.09,0.08-0.14c0.08-0.11,0.14-0.25,0.21-0.33c0,0.01,0,0,0,0c0,0,0,0,0,0
		c0,0,0,0,0,0c0.57-0.76,1.14-1.54,1.75-2.29c0.07,0.01,0.14,0.02,0.2,0.04c0.17,0.04,0.34,0.1,0.51,0.17
		C27.01,9.24,26.08,10.46,25.15,11.66z M25.24,9.61c0.02-0.62,0.03-1.24,0.01-1.86c0.27-0.02,0.55-0.03,0.82-0.02
		c0.19,0,0.38,0.02,0.57,0.04C26.17,8.37,25.7,8.99,25.24,9.61z M24.71,9.43c-0.29-0.5-0.61-0.99-1-1.42
		c0.31-0.07,0.61-0.15,0.93-0.19c0.04-0.01,0.09-0.01,0.13-0.01C24.74,8.34,24.73,8.88,24.71,9.43z M23.12,8.14
		c0.59,0.6,1.02,1.32,1.43,2.06c-0.01-0.02-0.02-0.03-0.02-0.05c0.05,0.08,0.1,0.16,0.15,0.24c-0.01,0.37-0.02,0.74-0.04,1.1
		c-0.8-0.97-1.39-2.24-2.3-3.09C22.6,8.32,22.85,8.22,23.12,8.14z M21.82,8.6c1.05,1.16,1.86,2.53,2.79,3.79
		c-0.01,0.25-0.01,0.5-0.02,0.75c-0.85-1.11-2.61-3.49-3.49-4.21c0.06-0.03,0.11-0.06,0.17-0.08C21.45,8.76,21.63,8.67,21.82,8.6z
		 M25.09,15.15c0-0.19,0.01-0.37,0.01-0.56c0.04-0.03,0.08-0.05,0.1-0.1c1.14-2.01,2.63-3.77,4.15-5.51
		c0.09,0.1,0.19,0.19,0.26,0.29c0.05,0.08,0.12,0.11,0.19,0.11c-0.23,0.25-0.45,0.62-0.66,0.77C27.7,11.74,26.26,13.36,25.09,15.15z
		 M24.42,5.13c0.22-0.24,0.46-0.47,0.69-0.7c1.47,1.17,2.93,2.35,3.99,3.63c-2.07-1.37-5.83-0.93-8.03,0.29
		C22.15,7.24,23.39,6.17,24.42,5.13z M10.53,13.44c-0.57-0.61-1.15-1.22-1.72-1.83c-0.28-0.3-0.56-0.59-0.84-0.9
		c-0.12-0.13-0.24-0.26-0.37-0.39c-0.05-0.05-0.1-0.1-0.14-0.16c0.1-0.18,0.2-0.36,0.32-0.53c0.28,0.4,0.81,0.89,0.92,1.08
		c0.94,1.19,2.05,2.3,3.03,3.46c0-0.01-0.01-0.01-0.01-0.01c0,0-0.01-0.01-0.01-0.02c0.03,0.04,0.05,0.06,0.08,0.1
		c-0.01,0.16-0.03,0.33-0.03,0.49C11.35,14.3,10.94,13.87,10.53,13.44z M9.14,8.25c0.3,0.83,2.63,2.74,2.83,3.09
		c0.02,0.03,0.06,0.04,0.1,0.05c-0.02,0.19-0.04,0.39-0.06,0.58c-0.26-0.28-0.52-0.56-0.8-0.81c-0.87-0.83-1.58-1.86-2.43-2.69
		C8.88,8.4,9.01,8.32,9.14,8.25z M12.41,12.93C12.41,12.93,12.41,12.93,12.41,12.93c0.33-0.45,0.72-0.85,1.1-1.26
		c1.1-1.13,2.16-2.32,3.38-3.32c0.1,0.13,0.19,0.27,0.28,0.4c-0.93,0.5-2.81,2.88-3.18,3.19c-0.53,0.59-1.13,1.11-1.63,1.72
		C12.38,13.42,12.39,13.18,12.41,12.93z M16.56,7.92c-0.62,0.4-1.51,1.5-1.8,1.7c-0.77,0.78-1.55,1.58-2.27,2.41
		c0.01-0.15,0.03-0.29,0.04-0.44c0.65-0.83,1.41-1.57,2.14-2.33c0.14-0.25,1.23-1.11,1.54-1.63c0.07,0.04,0.13,0.07,0.19,0.12
		C16.46,7.81,16.51,7.87,16.56,7.92z M15.76,7.42c-1.06,1.05-2.13,2.12-3.11,3.25c0.03-0.25,0.06-0.5,0.08-0.75
		c0.24-0.16,0.39-0.57,0.59-0.74c0.52-0.7,1.29-1.24,1.77-1.95C15.32,7.28,15.54,7.34,15.76,7.42z M13.98,7.68
		c-0.4,0.41-0.78,0.84-1.15,1.29C12.9,8.36,12.95,7.75,13,7.13c0.51-0.04,1.01-0.04,1.49,0.01C14.3,7.34,14.11,7.58,13.98,7.68z
		 M12.28,9.02c-0.43-0.51-1.01-0.98-1.55-1.43c0.55-0.17,1.14-0.31,1.73-0.39C12.34,7.65,12.3,8.39,12.28,9.02z M10.16,7.79
		c0.71,0.61,1.46,1.21,2.06,1.94c0.01,0.01,0.02,0.02,0.03,0.03c-0.01,0.19-0.03,0.34-0.05,0.41c-0.02,0.18-0.04,0.37-0.06,0.55
		c-0.49-0.6-1.08-1.11-1.63-1.66c-0.3-0.24-0.63-0.75-0.93-1.02C9.76,7.95,9.95,7.86,10.16,7.79z M8.38,8.79
		C8.4,8.82,8.41,8.86,8.44,8.88c1.15,1.28,2.26,2.58,3.48,3.78c-0.03,0.28-0.06,0.56-0.09,0.84c-1.25-1.41-2.53-2.86-3.74-4.32
		C8.19,9.05,8.28,8.92,8.38,8.79z M12.28,15.13c0.01-0.18,0.01-0.36,0.02-0.53c0.07-0.07,0.13-0.15,0.18-0.23
		c1.52-1.83,3.3-3.52,4.93-5.22c0.12,0.21,0.22,0.42,0.3,0.63c-1.54,1.34-3.07,2.9-4.55,4.38C12.88,14.49,12.57,14.8,12.28,15.13z
		 M12.79,4.57c0.04-0.02,0.08-0.05,0.11-0.09c0.92,0.79,1.81,1.54,2.58,2.28c-1.81-0.52-4.19-0.15-5.94,0.68
		C10.59,6.36,11.76,5.39,12.79,4.57z M7,11.12c0.06-0.15,0.14-0.3,0.21-0.45c0.1,0.11,0.2,0.21,0.3,0.32
		c0.24,0.26,0.49,0.52,0.73,0.78c0.98,1.04,1.97,2.09,2.95,3.14c0.18,0.19,0.37,0.39,0.55,0.58c0,0.18,0,0.37,0,0.55
		C10.06,14.51,8.25,13.05,7,11.12z M12.27,16.34c0-0.13,0-0.25,0-0.38c0.01-0.01,0.03-0.01,0.04-0.03c0.92-1.21,2.02-2.22,3.12-3.28
		c0.19-0.32,1.82-1.58,2.45-2.37c0.05,0.18,0.1,0.36,0.13,0.55C15.99,12.53,14.17,14.48,12.27,16.34z M22.65,13.95
		c-1.11-1.09-2.17-2.22-3.24-3.35c-0.02-0.02-0.06-0.02-0.09-0.03c0.12-0.21,0.26-0.42,0.4-0.62c0.03,0.08,0.09,0.16,0.16,0.2
		c1.58,1.71,3.08,3.5,4.67,5.2c0,0.16,0,0.33,0,0.49C23.86,15.09,22.76,14.14,22.65,13.95z M25.09,16.43c0-0.11,0-0.22,0-0.33
		c0.05-0.05,0.09-0.1,0.11-0.16c0,0.01-0.01,0.01-0.01,0.02c0,0,0-0.01,0.01-0.01c0,0,0.01-0.01,0.01-0.01
		c1.33-2.26,3.28-4.18,5.01-6.2c0.09,0.18,0.17,0.36,0.24,0.54C28.74,12.36,26.66,14.19,25.09,16.43z M49.16,14.01
		c-1.4-1.38-2.59-3.1-4.02-4.45c0.04-0.06,0.09-0.11,0.14-0.17c0.17-0.03,0.4-0.13,0.47-0.18c0,0,0.01-0.01,0.02-0.01
		c1.45,1.46,2.68,3.19,3.93,4.76c0,0.2-0.01,0.41-0.01,0.61C49.51,14.37,49.34,14.18,49.16,14.01z M50.23,13.64
		c0-0.36,0-0.72,0.01-1.08c0.02-0.01,0.04-0.02,0.05-0.03c0.33-0.47,0.7-0.98,1.08-1.43c0.16-0.32,1.75-2,2.13-2.82
		c0.09,0.05,0.18,0.08,0.27,0.13c0.11,0.07,0.21,0.15,0.31,0.23C54,8.72,53.93,8.8,53.86,8.88C52.55,10.39,51.28,11.93,50.23,13.64z
		 M50.27,11.66c0.02-0.35,0.03-0.69,0.05-1.04c0.04-0.04,0.07-0.09,0.08-0.14c0.08-0.11,0.14-0.25,0.21-0.33c0,0.01,0,0,0,0
		c0,0,0,0,0,0c0,0,0,0,0,0c0.57-0.76,1.14-1.54,1.75-2.29c0.07,0.01,0.14,0.02,0.2,0.04c0.17,0.04,0.34,0.1,0.51,0.17
		C52.12,9.24,51.19,10.46,50.27,11.66z M50.36,9.61c0.02-0.62,0.03-1.24,0.01-1.86c0.27-0.02,0.55-0.03,0.82-0.02
		c0.19,0,0.38,0.02,0.57,0.04C51.28,8.37,50.82,8.99,50.36,9.61z M49.82,9.43c-0.29-0.5-0.61-0.99-1-1.42
		c0.31-0.07,0.61-0.15,0.93-0.19c0.04-0.01,0.09-0.01,0.13-0.01C49.86,8.34,49.84,8.88,49.82,9.43z M48.23,8.14
		c0.59,0.6,1.02,1.32,1.43,2.06c-0.01-0.02-0.02-0.03-0.02-0.05c0.05,0.08,0.1,0.16,0.15,0.24c-0.01,0.37-0.02,0.74-0.04,1.1
		c-0.8-0.97-1.39-2.24-2.3-3.09C47.71,8.32,47.97,8.22,48.23,8.14z M46.94,8.6c1.05,1.16,1.86,2.53,2.79,3.79
		c-0.01,0.25-0.01,0.5-0.02,0.75c-0.85-1.11-2.61-3.49-3.49-4.21c0.06-0.03,0.11-0.06,0.17-0.08C46.56,8.76,46.75,8.67,46.94,8.6z
		 M50.21,15.15c0-0.19,0.01-0.37,0.01-0.56c0.04-0.03,0.08-0.05,0.1-0.1c1.14-2.01,2.63-3.77,4.15-5.51
		c0.09,0.1,0.19,0.19,0.26,0.29c0.05,0.08,0.12,0.11,0.19,0.11c-0.23,0.25-0.45,0.62-0.66,0.77C52.81,11.74,51.38,13.36,50.21,15.15
		z M49.54,5.13c0.22-0.24,0.46-0.47,0.69-0.7c1.47,1.17,2.93,2.35,3.99,3.63c-2.07-1.37-5.83-0.93-8.03,0.29
		C47.26,7.24,48.5,6.17,49.54,5.13z M35.65,13.44c-0.57-0.61-1.15-1.22-1.72-1.83c-0.28-0.3-0.56-0.59-0.84-0.9
		c-0.12-0.13-0.24-0.26-0.37-0.39c-0.05-0.05-0.1-0.1-0.14-0.16c0.1-0.18,0.2-0.36,0.32-0.53c0.28,0.4,0.81,0.89,0.92,1.08
		c0.94,1.19,2.05,2.3,3.03,3.46c0-0.01-0.01-0.01-0.01-0.01c0,0-0.01-0.01-0.01-0.02c0.03,0.04,0.05,0.06,0.08,0.1
		c-0.01,0.16-0.03,0.33-0.03,0.49C36.46,14.3,36.06,13.87,35.65,13.44z M34.26,8.25c0.3,0.83,2.63,2.74,2.83,3.09
		c0.02,0.03,0.06,0.04,0.1,0.05c-0.02,0.19-0.04,0.39-0.06,0.58c-0.26-0.28-0.52-0.56-0.8-0.81c-0.87-0.83-1.58-1.86-2.43-2.69
		C34,8.4,34.13,8.32,34.26,8.25z M37.53,12.93C37.53,12.93,37.53,12.93,37.53,12.93c0.33-0.45,0.72-0.85,1.1-1.26
		c1.1-1.13,2.16-2.32,3.38-3.32c0.1,0.13,0.19,0.27,0.28,0.4c-0.93,0.5-2.81,2.88-3.18,3.19c-0.53,0.59-1.13,1.11-1.63,1.72
		C37.49,13.42,37.51,13.18,37.53,12.93z M41.68,7.92c-0.62,0.4-1.51,1.5-1.8,1.7c-0.77,0.78-1.55,1.58-2.27,2.41
		c0.01-0.15,0.03-0.29,0.04-0.44c0.65-0.83,1.41-1.57,2.14-2.33c0.14-0.25,1.23-1.11,1.54-1.63c0.07,0.04,0.13,0.07,0.19,0.12
		C41.58,7.81,41.63,7.87,41.68,7.92z M40.87,7.42c-1.06,1.05-2.13,2.12-3.11,3.25c0.03-0.25,0.06-0.5,0.08-0.75
		c0.24-0.16,0.39-0.57,0.59-0.74c0.52-0.7,1.29-1.24,1.77-1.95C40.44,7.28,40.66,7.34,40.87,7.42z M39.1,7.68
		c-0.4,0.41-0.78,0.84-1.15,1.29c0.06-0.61,0.12-1.22,0.17-1.83c0.51-0.04,1.01-0.04,1.49,0.01C39.41,7.34,39.23,7.58,39.1,7.68z
		 M37.4,9.02c-0.43-0.51-1.01-0.98-1.55-1.43c0.55-0.17,1.14-0.31,1.73-0.39C37.45,7.65,37.42,8.39,37.4,9.02z M35.27,7.79
		c0.71,0.61,1.46,1.21,2.06,1.94c0.01,0.01,0.02,0.02,0.03,0.03c-0.01,0.19-0.03,0.34-0.05,0.41c-0.02,0.18-0.04,0.37-0.06,0.55
		c-0.49-0.6-1.08-1.11-1.63-1.66C35.33,8.81,35,8.3,34.69,8.03C34.88,7.95,35.07,7.86,35.27,7.79z M33.49,8.79
		c0.02,0.03,0.04,0.07,0.07,0.09c1.15,1.28,2.26,2.58,3.48,3.78c-0.03,0.28-0.06,0.56-0.09,0.84c-1.25-1.41-2.53-2.86-3.74-4.32
		C33.3,9.05,33.39,8.92,33.49,8.79z M37.4,15.13c0.01-0.18,0.01-0.36,0.02-0.53c0.07-0.07,0.13-0.15,0.18-0.23
		c1.52-1.83,3.3-3.52,4.93-5.22c0.12,0.21,0.22,0.42,0.3,0.63c-1.54,1.34-3.07,2.9-4.55,4.38C38,14.49,37.69,14.8,37.4,15.13z
		 M37.91,4.57c0.04-0.02,0.08-0.05,0.11-0.09c0.92,0.79,1.81,1.54,2.58,2.28c-1.81-0.52-4.19-0.15-5.94,0.68
		C35.7,6.36,36.87,5.39,37.91,4.57z M32.12,11.12c0.06-0.15,0.14-0.3,0.21-0.45c0.1,0.11,0.2,0.21,0.3,0.32
		c0.24,0.26,0.49,0.52,0.73,0.78c0.98,1.04,1.97,2.09,2.95,3.14c0.18,0.19,0.37,0.39,0.55,0.58c0,0.18,0,0.37,0,0.55
		C35.18,14.51,33.37,13.05,32.12,11.12z M37.39,16.34c0-0.13,0-0.25,0-0.38c0.01-0.01,0.03-0.01,0.04-0.03
		c0.92-1.21,2.02-2.22,3.12-3.28c0.19-0.32,1.82-1.58,2.45-2.37c0.05,0.18,0.1,0.36,0.13,0.55C41.11,12.53,39.29,14.48,37.39,16.34z
		 M47.76,13.95c-1.11-1.09-2.17-2.22-3.24-3.35c-0.02-0.02-0.06-0.02-0.09-0.03c0.12-0.21,0.26-0.42,0.4-0.62
		c0.03,0.08,0.09,0.16,0.16,0.2c1.58,1.71,3.08,3.5,4.67,5.2c0,0.16,0,0.33,0,0.49C48.98,15.09,47.88,14.14,47.76,13.95z
		 M50.21,16.43c0-0.11,0-0.22,0-0.33c0.05-0.05,0.09-0.1,0.11-0.16c0,0.01-0.01,0.01-0.01,0.02c0,0,0-0.01,0.01-0.01
		c0,0,0.01-0.01,0.01-0.01c1.33-2.26,3.28-4.18,5.01-6.2c0.09,0.18,0.17,0.36,0.24,0.54C53.85,12.36,51.78,14.19,50.21,16.43z
		 M74.27,14.01c-1.4-1.38-2.59-3.1-4.02-4.45c0.04-0.06,0.09-0.11,0.14-0.17c0.17-0.03,0.4-0.13,0.47-0.18c0,0,0.01-0.01,0.02-0.01
		c1.45,1.46,2.68,3.19,3.93,4.76c0,0.2-0.01,0.41-0.01,0.61C74.63,14.37,74.46,14.18,74.27,14.01z M75.35,13.64
		c0-0.36,0-0.72,0.01-1.08c0.02-0.01,0.04-0.02,0.05-0.03c0.33-0.47,0.7-0.98,1.08-1.43c0.16-0.32,1.75-2,2.13-2.82
		c0.09,0.05,0.18,0.08,0.27,0.13c0.11,0.07,0.21,0.15,0.31,0.23c-0.07,0.08-0.14,0.17-0.22,0.25
		C77.66,10.39,76.39,11.93,75.35,13.64z M75.39,11.66c0.02-0.35,0.03-0.69,0.05-1.04c0.04-0.04,0.07-0.09,0.08-0.14
		c0.08-0.11,0.14-0.25,0.21-0.33c0,0.01,0,0,0,0c0,0,0,0,0,0c0,0,0,0,0,0c0.57-0.76,1.14-1.54,1.75-2.29
		c0.07,0.01,0.14,0.02,0.2,0.04c0.17,0.04,0.34,0.1,0.51,0.17C77.24,9.24,76.31,10.46,75.39,11.66z M75.48,9.61
		c0.02-0.62,0.03-1.24,0.01-1.86c0.27-0.02,0.55-0.03,0.82-0.02c0.19,0,0.38,0.02,0.57,0.04C76.4,8.37,75.94,8.99,75.48,9.61z
		 M74.94,9.43c-0.29-0.5-0.61-0.99-1-1.42c0.31-0.07,0.61-0.15,0.93-0.19c0.04-0.01,0.09-0.01,0.13-0.01
		C74.98,8.34,74.96,8.88,74.94,9.43z M73.35,8.14c0.59,0.6,1.02,1.32,1.43,2.06c-0.01-0.02-0.02-0.03-0.02-0.05
		c0.05,0.08,0.1,0.16,0.15,0.24c-0.01,0.37-0.02,0.74-0.04,1.1c-0.8-0.97-1.39-2.24-2.3-3.09C72.83,8.32,73.09,8.22,73.35,8.14z
		 M72.05,8.6c1.05,1.16,1.86,2.53,2.79,3.79c-0.01,0.25-0.01,0.5-0.02,0.75c-0.85-1.11-2.61-3.49-3.49-4.21
		c0.06-0.03,0.11-0.06,0.17-0.08C71.68,8.76,71.87,8.67,72.05,8.6z M75.32,15.15c0-0.19,0.01-0.37,0.01-0.56
		c0.04-0.03,0.08-0.05,0.1-0.1c1.14-2.01,2.63-3.77,4.15-5.51c0.09,0.1,0.19,0.19,0.26,0.29c0.05,0.08,0.12,0.11,0.19,0.11
		c-0.23,0.25-0.45,0.62-0.66,0.77C77.93,11.74,76.49,13.36,75.32,15.15z M74.66,5.13c0.22-0.24,0.46-0.47,0.69-0.7
		c1.47,1.17,2.93,2.35,3.99,3.63c-2.07-1.37-5.83-0.93-8.03,0.29C72.38,7.24,73.62,6.17,74.66,5.13z M60.77,13.44
		c-0.57-0.61-1.15-1.22-1.72-1.83c-0.28-0.3-0.56-0.59-0.84-0.9c-0.12-0.13-0.24-0.26-0.37-0.39c-0.05-0.05-0.1-0.1-0.14-0.16
		c0.1-0.18,0.2-0.36,0.32-0.53c0.28,0.4,0.81,0.89,0.92,1.08c0.94,1.19,2.05,2.3,3.03,3.46c0-0.01-0.01-0.01-0.01-0.01
		c0,0-0.01-0.01-0.01-0.02c0.03,0.04,0.05,0.06,0.08,0.1c-0.01,0.16-0.03,0.33-0.03,0.49C61.58,14.3,61.17,13.87,60.77,13.44z
		 M59.37,8.25c0.3,0.83,2.63,2.74,2.83,3.09c0.02,0.03,0.06,0.04,0.1,0.05c-0.02,0.19-0.04,0.39-0.06,0.58
		c-0.26-0.28-0.52-0.56-0.8-0.81c-0.87-0.83-1.58-1.86-2.43-2.69C59.12,8.4,59.24,8.32,59.37,8.25z M62.65,12.93
		C62.65,12.93,62.65,12.93,62.65,12.93c0.33-0.45,0.72-0.85,1.1-1.26c1.1-1.13,2.16-2.32,3.38-3.32c0.1,0.13,0.19,0.27,0.28,0.4
		c-0.93,0.5-2.81,2.88-3.18,3.19c-0.53,0.59-1.13,1.11-1.63,1.72C62.61,13.42,62.63,13.18,62.65,12.93z M66.79,7.92
		c-0.62,0.4-1.51,1.5-1.8,1.7c-0.77,0.78-1.55,1.58-2.27,2.41c0.01-0.15,0.03-0.29,0.04-0.44c0.64-0.83,1.41-1.57,2.14-2.33
		c0.14-0.25,1.23-1.11,1.54-1.63c0.07,0.04,0.13,0.07,0.19,0.12C66.7,7.81,66.75,7.87,66.79,7.92z M65.99,7.42
		c-1.06,1.05-2.13,2.12-3.11,3.25c0.03-0.25,0.06-0.5,0.08-0.75c0.24-0.16,0.39-0.57,0.59-0.74c0.52-0.7,1.29-1.24,1.77-1.95
		C65.55,7.28,65.78,7.34,65.99,7.42z M64.22,7.68c-0.4,0.41-0.78,0.84-1.15,1.29c0.06-0.61,0.12-1.22,0.17-1.83
		c0.51-0.04,1.01-0.04,1.49,0.01C64.53,7.34,64.34,7.58,64.22,7.68z M62.51,9.02c-0.43-0.51-1.01-0.98-1.55-1.43
		c0.55-0.17,1.14-0.31,1.73-0.39C62.57,7.65,62.54,8.39,62.51,9.02z M60.39,7.79C61.1,8.39,61.85,9,62.45,9.72
		c0.01,0.01,0.02,0.02,0.03,0.03c-0.01,0.19-0.03,0.34-0.05,0.41c-0.02,0.18-0.04,0.37-0.06,0.55c-0.49-0.6-1.08-1.11-1.63-1.66
		c-0.3-0.24-0.63-0.75-0.93-1.02C60,7.95,60.19,7.86,60.39,7.79z M58.61,8.79c0.02,0.03,0.04,0.07,0.07,0.09
		c1.15,1.28,2.26,2.58,3.48,3.78c-0.03,0.28-0.06,0.56-0.09,0.84c-1.25-1.41-2.53-2.86-3.74-4.32C58.42,9.05,58.51,8.92,58.61,8.79z
		 M62.51,15.13c0.01-0.18,0.01-0.36,0.02-0.53c0.07-0.07,0.13-0.15,0.18-0.23c1.52-1.83,3.3-3.52,4.93-5.22
		c0.12,0.21,0.22,0.42,0.3,0.63c-1.54,1.34-3.07,2.9-4.55,4.38C63.11,14.49,62.8,14.8,62.51,15.13z M63.03,4.57
		c0.04-0.02,0.08-0.05,0.11-0.09c0.92,0.79,1.81,1.54,2.58,2.28c-1.81-0.52-4.19-0.15-5.94,0.68C60.82,6.36,61.99,5.39,63.03,4.57z
		 M57.23,11.12c0.06-0.15,0.14-0.3,0.21-0.45c0.1,0.11,0.2,0.21,0.3,0.32c0.24,0.26,0.49,0.52,0.73,0.78
		c0.98,1.04,1.97,2.09,2.95,3.14c0.18,0.19,0.37,0.39,0.55,0.58c0,0.18,0,0.37,0,0.55C60.29,14.51,58.49,13.05,57.23,11.12z
		 M62.5,16.34c0-0.13,0-0.25,0-0.38c0.01-0.01,0.03-0.01,0.04-0.03c0.92-1.21,2.02-2.22,3.12-3.28c0.19-0.32,1.82-1.58,2.45-2.37
		c0.05,0.18,0.1,0.36,0.13,0.55C66.22,12.53,64.4,14.48,62.5,16.34z M72.88,13.95c-1.11-1.09-2.17-2.22-3.24-3.35
		c-0.02-0.02-0.06-0.02-0.09-0.03c0.12-0.21,0.26-0.42,0.4-0.62c0.03,0.08,0.09,0.16,0.16,0.2c1.58,1.71,3.08,3.5,4.67,5.2
		c0,0.16,0,0.33,0,0.49C74.1,15.09,72.99,14.14,72.88,13.95z M75.33,16.43c0-0.11,0-0.22,0-0.33c0.05-0.05,0.09-0.1,0.11-0.16
		c0,0.01-0.01,0.01-0.01,0.02c0,0,0-0.01,0.01-0.01c0,0,0.01-0.01,0.01-0.01c1.33-2.26,3.28-4.18,5.01-6.2
		c0.09,0.18,0.17,0.36,0.24,0.54C78.97,12.36,76.89,14.19,75.33,16.43z M85.88,13.44c-0.57-0.61-1.15-1.22-1.72-1.83
		c-0.28-0.3-0.56-0.59-0.84-0.9c-0.12-0.13-0.24-0.26-0.37-0.39c-0.05-0.05-0.1-0.1-0.14-0.16c0.1-0.18,0.2-0.36,0.32-0.53
		c0.28,0.4,0.81,0.89,0.92,1.08c0.94,1.19,2.05,2.3,3.03,3.46c0-0.01-0.01-0.01-0.01-0.01c0,0-0.01-0.01-0.01-0.02
		c0.03,0.04,0.05,0.06,0.08,0.1c-0.01,0.16-0.03,0.33-0.03,0.49C86.69,14.3,86.29,13.87,85.88,13.44z M84.49,8.25
		c0.3,0.83,2.63,2.74,2.83,3.09c0.02,0.03,0.06,0.04,0.1,0.05c-0.02,0.19-0.04,0.39-0.06,0.58c-0.26-0.28-0.52-0.56-0.8-0.81
		c-0.87-0.83-1.58-1.86-2.43-2.69C84.23,8.4,84.36,8.32,84.49,8.25z M87.76,12.93C87.76,12.93,87.76,12.93,87.76,12.93
		c0.33-0.45,0.72-0.85,1.1-1.26c1.1-1.13,2.16-2.32,3.38-3.32c0.1,0.13,0.19,0.27,0.28,0.4c-0.93,0.5-2.81,2.88-3.18,3.19
		c-0.53,0.59-1.13,1.11-1.63,1.72C87.73,13.42,87.74,13.18,87.76,12.93z M91.91,7.92c-0.62,0.4-1.51,1.5-1.8,1.7
		c-0.78,0.78-1.55,1.58-2.27,2.41c0.01-0.15,0.03-0.29,0.04-0.44c0.64-0.83,1.41-1.57,2.14-2.33c0.14-0.25,1.23-1.11,1.54-1.63
		c0.07,0.04,0.13,0.07,0.19,0.12C91.81,7.81,91.86,7.87,91.91,7.92z M91.11,7.42c-1.06,1.05-2.13,2.12-3.11,3.25
		c0.03-0.25,0.06-0.5,0.08-0.75c0.24-0.16,0.39-0.57,0.59-0.74c0.52-0.7,1.29-1.24,1.77-1.95C90.67,7.28,90.89,7.34,91.11,7.42z
		 M89.33,7.68c-0.4,0.41-0.78,0.84-1.15,1.29c0.06-0.61,0.12-1.22,0.17-1.83c0.51-0.04,1.01-0.04,1.49,0.01
		C89.65,7.34,89.46,7.58,89.33,7.68z M87.63,9.02c-0.43-0.51-1.01-0.98-1.55-1.43c0.55-0.17,1.14-0.31,1.73-0.39
		C87.69,7.65,87.65,8.39,87.63,9.02z M85.51,7.79c0.71,0.61,1.46,1.21,2.06,1.94c0.01,0.01,0.02,0.02,0.03,0.03
		c-0.01,0.19-0.03,0.34-0.05,0.41c-0.02,0.18-0.04,0.37-0.06,0.55c-0.49-0.6-1.08-1.11-1.63-1.66c-0.3-0.24-0.63-0.75-0.93-1.02
		C85.11,7.95,85.3,7.86,85.51,7.79z M83.72,8.79c0.02,0.03,0.04,0.07,0.07,0.09c1.15,1.28,2.26,2.58,3.48,3.78
		c-0.03,0.28-0.06,0.56-0.09,0.84c-1.25-1.41-2.53-2.86-3.74-4.32C83.54,9.05,83.63,8.92,83.72,8.79z M87.63,15.13
		c0.01-0.18,0.01-0.36,0.02-0.53c0.07-0.07,0.13-0.15,0.18-0.23c1.52-1.83,3.3-3.52,4.93-5.22c0.12,0.21,0.22,0.42,0.3,0.63
		c-1.54,1.34-3.07,2.9-4.55,4.38C88.23,14.49,87.92,14.8,87.63,15.13z M88.14,4.57c0.04-0.02,0.08-0.05,0.11-0.09
		c0.92,0.79,1.81,1.54,2.58,2.28c-1.81-0.52-4.19-0.15-5.94,0.68C85.93,6.36,87.11,5.39,88.14,4.57z M82.35,11.12
		c0.06-0.15,0.14-0.3,0.21-0.45c0.1,0.11,0.2,0.21,0.3,0.32c0.24,0.26,0.49,0.52,0.73,0.78c0.98,1.04,1.97,2.09,2.95,3.14
		c0.18,0.19,0.37,0.39,0.55,0.58c0,0.18,0,0.37,0,0.55C85.41,14.51,83.6,13.05,82.35,11.12z M87.62,16.34c0-0.13,0-0.25,0-0.38
		c0.01-0.01,0.03-0.01,0.04-0.03c0.92-1.21,2.02-2.22,3.12-3.28c0.19-0.32,1.82-1.58,2.45-2.37c0.05,0.18,0.1,0.36,0.13,0.55
		C91.34,12.53,89.52,14.48,87.62,16.34z"/>
</g>
</svg>
