<?xml version="1.0" encoding="utf-8"?>
<!-- Generator: Adobe Illustrator 23.0.0, SVG Export Plug-In . SVG Version: 6.00 Build 0)  -->
<svg version="1.1" id="Слой_1" xmlns="http://www.w3.org/2000/svg" xmlns:xlink="http://www.w3.org/1999/xlink" x="0px" y="0px"
	 viewBox="0 0 100 21.28" style="enable-background:new 0 0 100 21.28;" xml:space="preserve">
<path d="M87.58,3.81c0.02,0.02,0.03,0.03,0.04,0.06c-0.1-0.21-0.36-0.17-0.47-0.02c-0.06,0.03-0.13,0.08-0.21,0.15
	c-2.89,2.73-5.41,4.96-5.69,7.99c-0.48-3.04-3.23-5.59-5.6-7.44C75.6,4.4,75.46,4.3,75.29,4.35c-0.06,0.01-0.12,0.04-0.16,0.08
	c-2.61,1.53-5.27,3.92-6.38,6.72c-0.27-3.25-3.69-4.8-5.79-6.98c-0.07-0.07-0.14-0.11-0.22-0.13c-0.07-0.06-0.17-0.1-0.28-0.04
	c-0.12,0.07-0.22,0.18-0.34,0.28c-2.38,2.24-5.1,4.8-5.75,7.72c-0.15-3.49-3.76-6.07-6.41-8.18c0.02,0.02,0.03,0.03,0.04,0.06
	c-0.1-0.21-0.36-0.17-0.47-0.02c-0.06,0.03-0.13,0.08-0.21,0.15c-2.87,2.71-5.37,4.92-5.69,7.92c-0.5-3.02-3.24-5.55-5.59-7.39
	C38,4.41,37.86,4.3,37.69,4.36c-0.06,0.01-0.12,0.04-0.16,0.08c-2.61,1.53-5.27,3.92-6.38,6.72c-0.27-3.25-3.69-4.8-5.79-6.98
	c-0.07-0.07-0.14-0.11-0.22-0.13c-0.07-0.06-0.17-0.1-0.28-0.04c-0.12,0.07-0.22,0.18-0.34,0.28c-2.38,2.24-5.1,4.8-5.75,7.72
	c-0.15-3.49-3.76-6.07-6.41-8.18c0.02,0.02,0.03,0.03,0.04,0.06c-0.1-0.21-0.36-0.17-0.47-0.02c-0.06,0.03-0.13,0.08-0.21,0.15
	c-4.34,4.11-7.88,7.05-4.19,13.32c0.2,0.29,0.66-0.03,0.45-0.31c-0.54-0.88-1.02-2.14-1.36-3.11c-0.29-1.15-0.27-2.38,0.13-3.51
	c1.03-2.53,3.52-3.97,5.3-5.94c0.04-0.03,0.07-0.07,0.1-0.1c0.06,0.04,0.12,0.09,0.18,0.13c0.2,0.15,0.39,0.31,0.58,0.46
	C8.75,7.66,6.02,12.49,8.61,17.3c0.17,0.35,0.68,0.03,0.48-0.27c-2.17-4.09-0.3-8.11,2.96-10.74c0.06,0.1,0.16,0.19,0.26,0.25
	c0.18,0.06,0.34,0.14,0.51,0.22c-3.41,2.39-4.77,6.69-2.96,10.59c0,0-0.01-0.02-0.01-0.02c0.15,0.39,0.72,0.09,0.49-0.25
	c-1.46-3.28-0.68-6.58,1.69-8.95c0.03,0.02,0.06,0.04,0.1,0.05c-0.01,0-0.01,0-0.01-0.01c0.33,0.14,0.64,0.31,0.93,0.5
	c-2.45,1.9-3.45,5.93-1.74,8.64c0.43,0.37,0.5-0.22,0.23-0.72c-1.07-2.03-0.62-4.54,0.74-6.33c0.09,0.07,0.2,0.12,0.29,0.17
	c0.23,0.15,0.44,0.33,0.62,0.55c-1.73,1.56-1.69,4.23-0.69,6.19c0.02,0.05,0.06,0.06,0.1,0.08c0.02,0.06,0.07,0.12,0.17,0.17
	c0.14,0.05,0.29-0.03,0.35-0.17c0.36-0.5,0.75-1,1.01-1.61c1.18-1.95,0.52-4.7-1.51-5.8c0.02,0.02,0.04,0.05,0.05,0.07
	c-0.01-0.03-0.03-0.05-0.05-0.07c0.27-0.3,0.56-0.58,0.89-0.83c1.78,1.45,2.53,3.87,1.54,6.15c-0.24,0.64-0.65,1.21-1.01,1.78
	c-0.07,0.13,0,0.3,0.13,0.36c0.14,0.07,0.3,0.01,0.37-0.13c0.47-0.67,0.9-1.4,1.16-2.19c1.11-2.88-0.49-6.05-3.23-7.26
	c0.28-0.24,0.56-0.48,0.88-0.69c2.47,1.5,3.81,4.81,3.19,7.6c-0.24,0.84-0.78,1.56-1.18,2.33c-0.05,0.14,0.04,0.3,0.18,0.35
	c0.2,0.07,0.34-0.11,0.4-0.27c2.83-3.6,0.76-9.46-3.38-11.02C12.52,6,12.49,5.99,12.47,5.96c0.3-0.22,0.6-0.43,0.91-0.63
	c3.87,3.09,6.57,5.88,3.46,11.24c-0.12,0.26-0.48,0.71-0.08,0.88c0.14,0.05,0.3-0.03,0.35-0.17c0.52-1,1-2.02,1.34-3.09
	c0.08-0.23,0.14-0.45,0.19-0.67c0.05,1.21,0.48,2.47,1.46,3.8c0.07,0.13,0.23,0.19,0.37,0.12c0.42-0.32-0.23-1.15-0.44-1.47
	c-2.91-4.29,1.96-8.47,4.99-11.35c0.07,0.08,0.15,0.15,0.2,0.23c0.13,0.14,0.27,0.27,0.41,0.4c-4.07,2.58-6.94,7.28-4.56,12.05
	c0.12,0.34,0.64,0.15,0.52-0.18C19.5,12.9,21.61,8.92,25,6.36c0.02,0.01,0.04,0.03,0.06,0.03c-0.01,0-0.02-0.01-0.03-0.01
	c0.2,0.14,0.37,0.27,0.56,0.41c-1.93,1.41-3.68,3.36-3.92,5.8c-0.36,1.48-0.06,3.29,0.5,4.72c0.04,0.14,0.19,0.21,0.32,0.18
	c0.15-0.03,0.24-0.18,0.21-0.33c-0.17-0.64-0.55-1.53-0.65-2.19c-0.14-0.76,0.09-1.6,0.17-2.34c0.2-1.86,1.41-3.54,2.87-4.75
	c0.03,0.03,0.05,0.07,0.1,0.08c0.22,0.2,0.41,0.39,0.61,0.58C25.52,8.69,25.29,9,25.06,9.15c-2.42,2-2.75,5.46-1.41,8.18
	c0.11,0.34,0.64,0.16,0.52-0.18c-0.32-0.8-0.62-1.6-0.73-2.46c-0.27-1.71,0.38-3.39,1.51-4.66c0.02,0.02,0.03,0.04,0.06,0.06
	c0.32,0.24,0.57,0.49,0.78,0.74c-0.54,0.23-0.96,1.26-1.2,1.73c-0.68,1.43,0.03,2.93,0.16,4.39c0,0,0.01,0.01,0.01,0.01
	c-0.01,0.01-0.01,0.01-0.02,0.02c-0.1,0.13-0.11,0.34,0.05,0.44c0.12,0.08,0.31,0.05,0.38-0.08c0.38-0.68,0.94-1.29,1.27-2.01
	c0.49-1.11,0.92-2.34,0.51-3.54c-0.33-0.8-0.91-1.63-1.64-2.13c0.26-0.25,0.53-0.48,0.82-0.69c0.02,0,0.03-0.02,0.05-0.02
	c2.03,2.19,2.34,4.11,0.47,7.13c-0.09,0.42-0.8,1.09-0.44,1.41c0.13,0.08,0.3,0.04,0.38-0.08c0.3-0.5,0.52-1.06,0.78-1.58
	c2.17-3.07,0.77-6.17-1.88-8.29c0.1-0.08,0.2-0.16,0.31-0.23c0.07-0.06,0.16-0.12,0.24-0.17c3.53,2.74,3.9,4.65,1.79,9.25
	c-0.13,0.31-0.76,0.77-0.32,1.06c0.13,0.07,0.3,0.01,0.37-0.12c0.49-0.66,0.76-1.36,1.06-2.12c1.14-2.72,1.16-5.6-1.45-7.5
	c-0.27-0.21-1.29-1.33-2-1.71c0.17-0.12,0.33-0.23,0.5-0.34c0.02-0.01,0.03-0.02,0.05-0.03c2.45,2.16,5.28,3.63,4.5,7.56
	c-0.41,1.34-0.95,2.69-1.78,3.84c-0.07,0.13,0,0.3,0.13,0.36c0.42,0.14,0.76-0.78,0.99-1.08c0.25-0.58,0.54-1.16,0.78-1.75
	c0.09,0.85,0.34,1.72,0.81,2.6c0.14,0.31,0.63,0.11,0.51-0.2c-0.14-0.27-0.25-0.54-0.34-0.84c-0.4-1.31-0.73-2.73-0.34-4.08
	c1.2-2.97,3.63-5.43,6.39-7.07c0.01,0,0.01-0.01,0.02-0.01c0.1,0.05,0.2,0.1,0.28,0.18c0.1,0.08,0.2,0.17,0.3,0.26
	c-4.27,2.06-7.7,7.19-5.42,11.84c0.05,0.14,0.2,0.23,0.35,0.18c0.48-0.27-0.18-1.14-0.2-1.59c-1.28-3.44,1.22-7.01,4.08-9.07
	c0.05,0.04,0.11,0.08,0.18,0.1c0.21,0.1,0.4,0.21,0.6,0.32c-3.42,1.96-5.78,6.75-3.21,10.21c0.19,0.3,0.66,0,0.46-0.3
	c-1.19-1.44-1.07-3.32-0.7-5.06c0.49-1.48,1.58-2.7,2.79-3.71c0.21,0.18,0.65,0.29,0.81,0.5c0.01,0.01,0.02,0.02,0.03,0.02
	c-2.29,2.12-3.78,5.53-2.07,8.46c0.19,0.3,0.66,0,0.46-0.3c-0.8-1.43-0.79-3.23-0.25-4.76c0.37-0.78,0.92-1.48,1.49-2.15
	c0.19,0.16,0.37,0.33,0.54,0.5c-0.05,0.05-0.1,0.09-0.15,0.14c-1.53,1.63-1.72,4.28-0.81,6.26c0,0.01,0.01,0.01,0.02,0.02
	c-0.06,0.14-0.07,0.29,0.1,0.38c0.13,0.07,0.3,0.01,0.37-0.12c0.6-0.81,1.06-1.7,1.52-2.6c0.96-2.05,0.48-3.63-1.22-5.03
	c0.13-0.15,0.26-0.3,0.39-0.45c2.34,2.17,2.46,3.18,1.07,6.37c-0.18,0.44-0.45,0.88-0.73,1.3c-0.16,0.16-0.28,0.45-0.03,0.58
	c0.13,0.07,0.31,0.01,0.37-0.12c1.04-1.55,1.9-3.49,1.86-5.38c-0.19-1.27-1.24-2.18-2.07-3.08c-0.3-0.25-0.77-0.77-1.22-0.95
	c0.14-0.11,0.28-0.22,0.43-0.33c0.08-0.05,0.19-0.08,0.3-0.12c3.2,2.1,4.39,5.51,2.18,9.16c-0.13,0.25-0.51,0.69-0.11,0.88
	c0.14,0.05,0.31-0.02,0.35-0.16c0.35-0.68,0.77-1.32,0.96-2.07c1.67-3.64-0.9-7.29-4.18-8.91c0.2-0.13,0.4-0.25,0.6-0.36
	c0.23-0.13,0.38-0.23,0.47-0.31c3.15,2.78,6.19,6.47,3.4,10.64c-0.12,0.3-0.77,0.96-0.23,1.19c0.14,0.03,0.29-0.06,0.33-0.2
	c0.58-1.11,1.28-2.21,1.47-3.48c0.02-0.11,0.02-0.22,0.03-0.33c0.17,1.13,0.62,2.38,1.46,3.8c0.2,0.29,0.66-0.03,0.45-0.31
	c-0.54-0.88-1.02-2.14-1.36-3.11c-0.29-1.15-0.27-2.38,0.13-3.51c1.03-2.53,3.52-3.97,5.3-5.94c0.04-0.03,0.07-0.07,0.1-0.1
	c0.06,0.04,0.12,0.09,0.18,0.13c0.2,0.15,0.39,0.31,0.58,0.46c-4.17,2.68-6.91,7.51-4.32,12.32c0.17,0.35,0.68,0.03,0.48-0.27
	c-2.17-4.09-0.3-8.11,2.96-10.74c0.06,0.11,0.16,0.19,0.26,0.25c0.18,0.06,0.34,0.14,0.51,0.22c-3.41,2.39-4.77,6.69-2.96,10.59
	c0,0-0.01-0.02-0.01-0.02c0.15,0.39,0.72,0.09,0.49-0.25c-1.46-3.28-0.68-6.58,1.69-8.95c0.03,0.02,0.06,0.04,0.1,0.05
	c-0.01,0-0.01,0-0.01-0.01c0.33,0.14,0.64,0.31,0.93,0.5c-2.45,1.9-3.45,5.93-1.74,8.64c0.43,0.37,0.5-0.22,0.23-0.72
	c-1.07-2.03-0.62-4.54,0.74-6.33c0.09,0.07,0.2,0.12,0.29,0.17c0.23,0.15,0.44,0.33,0.62,0.55c-1.73,1.56-1.69,4.23-0.69,6.19
	c0.02,0.05,0.06,0.06,0.1,0.08c0.02,0.06,0.07,0.12,0.17,0.17c0.14,0.05,0.29-0.03,0.35-0.17c0.36-0.5,0.75-1,1.01-1.61
	c1.18-1.95,0.52-4.7-1.51-5.8c0.02,0.02,0.04,0.05,0.05,0.07c-0.01-0.03-0.03-0.05-0.05-0.07c0.27-0.3,0.56-0.58,0.89-0.83
	c1.78,1.45,2.53,3.87,1.54,6.15c-0.24,0.64-0.65,1.21-1.01,1.78c-0.07,0.13,0,0.3,0.13,0.36c0.14,0.07,0.3,0.01,0.37-0.13
	c0.47-0.67,0.9-1.4,1.16-2.19c1.11-2.88-0.49-6.05-3.23-7.26c0.28-0.24,0.56-0.48,0.88-0.69c2.47,1.5,3.81,4.81,3.19,7.6
	c-0.24,0.84-0.78,1.56-1.18,2.33c-0.05,0.14,0.04,0.3,0.18,0.35c0.2,0.07,0.34-0.11,0.4-0.27c2.83-3.6,0.76-9.46-3.38-11.02
	C50.12,6,50.09,5.98,50.07,5.96c0.3-0.22,0.6-0.43,0.91-0.63c3.87,3.09,6.57,5.88,3.46,11.24c-0.12,0.26-0.48,0.71-0.08,0.88
	c0.14,0.05,0.3-0.03,0.35-0.17c0.52-1,1-2.02,1.34-3.09c0.08-0.23,0.14-0.45,0.19-0.67c0.05,1.21,0.48,2.47,1.46,3.8
	c0.07,0.13,0.23,0.19,0.37,0.12c0.42-0.32-0.23-1.15-0.44-1.47c-2.91-4.29,1.96-8.47,4.99-11.35c0.07,0.08,0.15,0.15,0.2,0.23
	c0.13,0.14,0.27,0.27,0.41,0.4c-4.07,2.58-6.94,7.28-4.56,12.05c0.12,0.34,0.64,0.15,0.52-0.18c-2.09-4.22,0.03-8.2,3.41-10.76
	c0.02,0.01,0.04,0.03,0.06,0.03c-0.01,0-0.02-0.01-0.03-0.01c0.2,0.14,0.37,0.27,0.56,0.41c-1.93,1.41-3.68,3.36-3.92,5.8
	c-0.36,1.48-0.06,3.29,0.5,4.72c0.04,0.14,0.19,0.21,0.32,0.18c0.15-0.03,0.24-0.18,0.21-0.33c-0.17-0.64-0.55-1.53-0.65-2.19
	c-0.14-0.76,0.09-1.6,0.17-2.34c0.2-1.86,1.41-3.54,2.87-4.75c0.03,0.03,0.05,0.07,0.1,0.08c0.22,0.2,0.41,0.39,0.61,0.58
	c-0.26,0.15-0.49,0.46-0.73,0.61c-2.42,2-2.75,5.46-1.41,8.18c0.11,0.34,0.64,0.16,0.52-0.18c-0.32-0.8-0.62-1.6-0.73-2.46
	c-0.27-1.71,0.38-3.39,1.51-4.66c0.02,0.02,0.03,0.04,0.06,0.06c0.32,0.24,0.57,0.49,0.78,0.74c-0.54,0.23-0.96,1.26-1.2,1.73
	c-0.68,1.43,0.03,2.93,0.16,4.39c0,0,0.01,0.01,0.01,0.01c-0.01,0.01-0.01,0.01-0.02,0.02c-0.1,0.13-0.11,0.34,0.05,0.44
	c0.12,0.08,0.31,0.05,0.38-0.08c0.38-0.68,0.94-1.29,1.27-2.01c0.49-1.11,0.92-2.34,0.51-3.54c-0.33-0.8-0.91-1.63-1.64-2.13
	c0.26-0.25,0.53-0.48,0.82-0.69c0.02,0,0.03-0.02,0.05-0.02c2.03,2.19,2.34,4.11,0.47,7.13c-0.09,0.42-0.8,1.09-0.44,1.41
	c0.13,0.08,0.3,0.04,0.38-0.08c0.3-0.5,0.52-1.06,0.78-1.58c2.17-3.07,0.77-6.17-1.88-8.29c0.1-0.08,0.2-0.16,0.31-0.23
	c0.07-0.06,0.16-0.12,0.24-0.17c3.53,2.74,3.9,4.65,1.79,9.25c-0.13,0.31-0.76,0.77-0.32,1.06c0.13,0.07,0.3,0.01,0.37-0.12
	c0.49-0.66,0.76-1.36,1.06-2.12c1.14-2.72,1.16-5.6-1.45-7.5c-0.27-0.21-1.29-1.33-2-1.71c0.17-0.12,0.33-0.23,0.5-0.34
	c0.02-0.01,0.03-0.02,0.05-0.03c2.45,2.16,5.28,3.63,4.5,7.56c-0.41,1.34-0.95,2.69-1.78,3.84c-0.07,0.13,0,0.3,0.13,0.36
	c0.42,0.14,0.76-0.78,0.99-1.08c0.25-0.58,0.54-1.16,0.78-1.75c0.09,0.85,0.34,1.72,0.81,2.6c0.14,0.31,0.63,0.11,0.51-0.2
	c-0.14-0.27-0.25-0.54-0.34-0.84c-0.4-1.31-0.73-2.73-0.34-4.08c1.2-2.97,3.63-5.43,6.39-7.07c0.01,0,0.01-0.01,0.02-0.01
	c0.1,0.05,0.2,0.1,0.28,0.18c0.1,0.08,0.2,0.17,0.3,0.26c-4.27,2.06-7.7,7.19-5.42,11.84c0.05,0.14,0.2,0.23,0.35,0.18
	c0.48-0.27-0.18-1.14-0.2-1.59c-1.28-3.44,1.22-7.01,4.08-9.07c0.05,0.04,0.11,0.08,0.18,0.1c0.21,0.1,0.4,0.21,0.6,0.32
	c-3.42,1.96-5.78,6.75-3.21,10.21c0.19,0.3,0.66,0,0.46-0.3c-1.19-1.44-1.07-3.32-0.7-5.06c0.49-1.48,1.58-2.7,2.79-3.71
	c0.21,0.18,0.65,0.29,0.81,0.5c0.01,0.01,0.02,0.02,0.03,0.02c-2.29,2.12-3.78,5.53-2.07,8.46c0.19,0.3,0.66,0,0.46-0.3
	c-0.8-1.43-0.79-3.23-0.25-4.76c0.37-0.78,0.92-1.48,1.49-2.15c0.19,0.16,0.37,0.33,0.54,0.5c-0.05,0.05-0.1,0.09-0.15,0.14
	c-1.53,1.63-1.72,4.28-0.81,6.26c0,0.01,0.01,0.01,0.02,0.02c-0.06,0.14-0.07,0.29,0.1,0.38c0.13,0.07,0.3,0.01,0.37-0.12
	c0.6-0.81,1.06-1.7,1.52-2.6c0.96-2.05,0.48-3.63-1.22-5.03c0.13-0.15,0.26-0.3,0.39-0.45c2.34,2.17,2.46,3.18,1.07,6.37
	c-0.18,0.44-0.45,0.88-0.73,1.3c-0.16,0.16-0.28,0.45-0.03,0.58c0.13,0.07,0.31,0.01,0.37-0.12c1.04-1.55,1.9-3.49,1.86-5.38
	c-0.19-1.27-1.24-2.18-2.07-3.08c-0.3-0.25-0.77-0.77-1.22-0.95c0.14-0.11,0.28-0.22,0.43-0.33c0.08-0.05,0.19-0.08,0.3-0.12
	c3.2,2.1,4.39,5.51,2.18,9.16c-0.13,0.25-0.51,0.69-0.11,0.88c0.14,0.05,0.31-0.02,0.35-0.16c0.35-0.68,0.77-1.32,0.96-2.07
	c1.67-3.64-0.9-7.29-4.18-8.91c0.2-0.13,0.4-0.25,0.6-0.36c0.23-0.13,0.38-0.23,0.47-0.31c3.15,2.78,6.19,6.47,3.4,10.64
	c-0.12,0.3-0.77,0.96-0.23,1.19c0.14,0.03,0.29-0.06,0.33-0.2c0.58-1.11,1.28-2.21,1.47-3.48c0.02-0.13,0.03-0.27,0.04-0.4
	c0.16,1.15,0.61,2.41,1.46,3.85c0.2,0.29,0.66-0.03,0.45-0.31c-0.54-0.88-1.02-2.14-1.36-3.11c-0.29-1.15-0.27-2.38,0.13-3.51
	c1.03-2.53,3.52-3.97,5.3-5.94c0.04-0.03,0.07-0.07,0.1-0.1c0.06,0.04,0.12,0.09,0.18,0.13c0.2,0.15,0.39,0.31,0.58,0.46
	c-4.17,2.68-6.91,7.51-4.32,12.32c0.17,0.35,0.68,0.03,0.48-0.27c-2.17-4.09-0.3-8.11,2.96-10.74c0.06,0.11,0.16,0.19,0.26,0.25
	c0.18,0.06,0.34,0.14,0.51,0.22c-3.41,2.39-4.77,6.69-2.96,10.59c0,0-0.01-0.02-0.01-0.02c0.15,0.39,0.72,0.09,0.49-0.25
	c-1.46-3.28-0.68-6.58,1.69-8.95c0.03,0.02,0.06,0.04,0.1,0.05c-0.01,0-0.01,0-0.01-0.01c0.33,0.14,0.64,0.31,0.93,0.5
	c-2.45,1.9-3.45,5.93-1.74,8.64c0.43,0.37,0.5-0.22,0.23-0.72c-1.07-2.03-0.62-4.54,0.74-6.33c0.09,0.07,0.2,0.12,0.29,0.17
	c0.23,0.15,0.44,0.33,0.62,0.55c-1.73,1.56-1.69,4.23-0.69,6.19c0.02,0.05,0.06,0.06,0.1,0.08c0.02,0.06,0.07,0.12,0.17,0.17
	c0.14,0.05,0.29-0.03,0.35-0.17c0.36-0.5,0.75-1,1.01-1.61c1.18-1.95,0.52-4.7-1.51-5.8c0.02,0.02,0.04,0.05,0.05,0.07
	c-0.01-0.03-0.03-0.05-0.05-0.07c0.27-0.3,0.56-0.58,0.89-0.83c1.78,1.45,2.53,3.87,1.54,6.15c-0.24,0.64-0.65,1.21-1.01,1.78
	c-0.07,0.13,0,0.3,0.13,0.36c0.14,0.07,0.3,0.01,0.37-0.13c0.47-0.67,0.9-1.4,1.16-2.19c1.11-2.88-0.49-6.05-3.23-7.26
	c0.28-0.24,0.56-0.48,0.88-0.69c2.47,1.5,3.81,4.81,3.19,7.6c-0.24,0.84-0.78,1.56-1.18,2.33c-0.05,0.14,0.04,0.3,0.18,0.35
	c0.2,0.07,0.34-0.11,0.4-0.27c2.83-3.6,0.76-9.46-3.38-11.02c-0.01-0.03-0.04-0.05-0.06-0.07c0.3-0.22,0.6-0.43,0.91-0.63
	c3.87,3.09,6.57,5.88,3.46,11.24c-0.12,0.26-0.48,0.71-0.08,0.88c0.14,0.05,0.3-0.03,0.35-0.17c0.52-1,1-2.02,1.34-3.09
	C95.32,9.52,90.75,6.33,87.58,3.81z M12.92,16.58c-0.02,0.02-0.04,0.04-0.05,0.07c-0.23-0.51-0.35-1.07-0.46-1.62
	c-0.24-1.29,0.16-2.67,1.1-3.6c0.32,0.51,0.55,1.08,0.68,1.63C14.28,14.31,13.66,15.55,12.92,16.58z M13.5,9.02
	C13.5,9.02,13.5,9.02,13.5,9.02C13.5,9.02,13.5,9.02,13.5,9.02C13.5,9.02,13.5,9.02,13.5,9.02z M25.23,16.29
	c-0.1-0.62-0.26-1.23-0.36-1.85c-0.17-1.14,0.41-2.25,1.13-3.13c0.04-0.01,0.06-0.04,0.09-0.06C27.04,12.82,26.32,14.65,25.23,16.29
	z M37.66,16.48c-0.16-0.41-0.3-0.82-0.34-1.27c-0.11-1.43,0.14-3.08,1.24-4.13c0.02-0.01,0.04-0.03,0.06-0.04
	c0.25,0.32,0.46,0.66,0.58,1.04C39.4,13.66,38.51,15.17,37.66,16.48z M50.52,16.58c-0.02,0.02-0.04,0.04-0.05,0.07
	c-0.23-0.51-0.35-1.07-0.46-1.62c-0.24-1.29,0.16-2.67,1.1-3.6c0.32,0.51,0.55,1.08,0.68,1.63C51.88,14.3,51.26,15.55,50.52,16.58z
	 M51.1,9.01C51.1,9.01,51.1,9.01,51.1,9.01C51.1,9.01,51.1,9.01,51.1,9.01C51.1,9.01,51.1,9.01,51.1,9.01z M62.83,16.28
	c-0.1-0.62-0.26-1.23-0.36-1.85c-0.17-1.14,0.41-2.25,1.13-3.13c0.04-0.01,0.06-0.04,0.09-0.06C64.64,12.82,63.92,14.64,62.83,16.28
	z M75.25,16.47c-0.16-0.41-0.3-0.82-0.34-1.27c-0.11-1.43,0.14-3.08,1.24-4.13c0.02-0.01,0.04-0.03,0.06-0.04
	c0.25,0.32,0.46,0.66,0.58,1.04C76.99,13.66,76.1,15.16,75.25,16.47z M88.13,16.55c-0.02,0.02-0.04,0.04-0.05,0.07
	c-0.23-0.51-0.35-1.07-0.46-1.62c-0.24-1.29,0.16-2.67,1.1-3.6c0.32,0.51,0.55,1.08,0.68,1.63C89.49,14.27,88.87,15.52,88.13,16.55z
	 M88.71,8.98C88.71,8.98,88.71,8.98,88.71,8.98C88.71,8.98,88.71,8.98,88.71,8.98C88.71,8.98,88.71,8.98,88.71,8.98z"/>
</svg>
