<?xml version="1.0" encoding="utf-8"?>
<!-- Generator: Adobe Illustrator 23.0.0, SVG Export Plug-In . SVG Version: 6.00 Build 0)  -->
<svg version="1.1" id="Слой_1" xmlns="http://www.w3.org/2000/svg" xmlns:xlink="http://www.w3.org/1999/xlink" x="0px" y="0px"
	 viewBox="0 0 100 21.28" style="enable-background:new 0 0 100 21.28;" xml:space="preserve">
<g>
	<path d="M35.92,9.1c-0.57-0.96-1.31-1.81-2.05-2.64c-0.14-0.12-0.35-0.2-0.51-0.07c-0.05,0.04-0.07,0.1-0.07,0.16
		c-2.01,2.17-2.96,5.03-3.75,7.83c-0.22,0.87-0.52,1.73-0.65,2.62c0.01,0.14,0.13,0.24,0.27,0.23c0.13-0.01,0.23-0.13,0.23-0.25
		c0.64-2.73,1.42-5.5,2.73-8.02c0.4-0.72,0.98-1.38,1.5-2.03c2.72,2.62,3.21,6.54,4.18,10.07c0.04,0.13,0.19,0.2,0.32,0.15
		c0.4-0.24-0.1-1.06-0.13-1.47C37.31,13.51,37.01,11.14,35.92,9.1z"/>
	<path d="M15.07,12.1c-0.54-1.64-1.5-3.05-2.26-4.58c-0.01-0.13-0.12-0.23-0.26-0.23c-0.07,0.02-0.1,0.05-0.14,0.09
		c-0.01-0.01-0.01-0.01-0.04,0.02c0,0,0,0,0,0c0,0,0,0,0,0.01c-0.91,1.11-1.76,2.27-2.5,3.5c-0.41,0.67-0.77,1.37-1.09,2.09
		c-0.46,1.03-0.81,2.1-1.03,3.2c-0.02,0.12-0.13,0.65-0.08,0.95c0.03,0.18,0.11,0.27,0.29,0.16c0.17-0.1,0.15-0.33,0.18-0.5
		c0.43-2.26,1.19-4.45,2.53-6.35c0.56-0.84,1.22-1.61,1.81-2.43c0.19,0.37,0.5,0.79,0.58,1c0.13,0.34,0.41,0.66,0.58,0.99
		c0.18,0.33,0.34,0.67,0.49,1.01c0.42,0.97,0.74,1.98,0.93,3.02c0.1,0.52,0.16,1.05,0.2,1.59c0.02,0.25,0.04,0.51,0.03,0.77
		c0,0.21-0.06,0.43,0.02,0.64c0.01,0.03,0.02,0.05,0.04,0.08c0.04,0.06,0.15,0.16,0.22,0.16c0.51,0.02,0.12-2.19,0.08-2.45
		C15.52,13.91,15.36,12.98,15.07,12.1z"/>
	<path d="M26.75,16.49c-0.15-1.62-0.62-3.21-1.23-4.71c-0.68-1.81-1.29-3.89-2.69-5.27c-0.1-0.05-0.19,0-0.25,0.07
		c-0.3,0.13-0.53,0.72-0.78,0.92c-1.51,1.97-2.38,4.3-3.13,6.65c-0.28,0.96-0.6,1.92-0.79,2.89c0.01,0.11,0.07,0.21,0.19,0.24
		c0.15,0.04,0.3-0.08,0.32-0.23c0.5-2.14,1.22-4.23,2.04-6.28c0.55-1.2,1.28-2.35,2.11-3.4c0.04-0.07,0.12-0.16,0.19-0.24
		c1.08,1.35,1.69,3.07,2.28,4.71c0.69,1.72,1.24,3.51,1.27,5.39c0.02,0.13,0.15,0.23,0.28,0.21C26.95,17.3,26.69,16.8,26.75,16.49z"
		/>
	<path d="M14.1,15.31c-0.15-0.9-0.35-1.79-0.6-2.67c-0.11-0.4-0.24-0.8-0.38-1.19c-0.1-0.27-0.29-0.96-0.69-0.66
		c-0.1,0.07-0.19,0.17-0.25,0.28c-0.2,0.33-0.39,0.66-0.58,1c-0.63,1.12-1.18,2.31-1.52,3.55c-0.09,0.31-0.19,0.77-0.25,1.08
		c-0.03,0.15-0.05,0.31-0.07,0.47c-0.01,0.1-0.04,0.18,0.07,0.24c0.1,0.06,0.24,0.06,0.35,0.07c0.12,0.02,3.06-0.03,3.3-0.04
		c0.23-0.01,0.47-0.01,0.68-0.13c0.06-0.03,0.07-0.12,0.08-0.17c0.05-0.23,0.02-0.49,0-0.73C14.21,16.05,14.16,15.68,14.1,15.31z"/>
	<path d="M24.05,12.23c-0.17-0.4-0.35-0.79-0.57-1.16c-0.15-0.24-0.32-0.51-0.56-0.66c-0.23-0.15-0.4,0.06-0.53,0.23
		c-0.17,0.21-0.33,0.43-0.49,0.65c-0.32,0.44-0.61,0.89-0.87,1.37c-0.37,0.7-0.67,1.44-0.91,2.2c-0.12,0.38-0.23,0.77-0.33,1.16
		c-0.05,0.2-0.1,0.39-0.14,0.59c-0.02,0.1-0.05,0.2-0.07,0.31c-0.01,0.05-0.05,0.21-0.05,0.26c0,0.15,0.09,0.2,0.35,0.21
		c1.03-0.02,2.06,0.08,3.08,0.07c0.52-0.01,1.04-0.03,1.56-0.04c0.2-0.01,0.38-0.06,0.48-0.24c0.13-0.23,0.12-0.55,0.11-0.8
		c-0.02-0.42-0.09-0.84-0.17-1.25C24.74,14.13,24.44,13.15,24.05,12.23z"/>
	<path d="M36.65,16.64c-0.04-0.67-0.19-1.33-0.4-1.97c-0.46-1.6-1.19-3.17-2.24-4.45c-0.1-0.17-0.37-0.12-0.44,0.05l0,0
		c-0.22,0.15-0.42,0.49-0.57,0.65c-1.21,1.73-1.61,3.84-2.22,5.83c-0.02,0.06-0.02,0.12,0,0.18c0,0,0,0.01,0,0.02
		c0.01,0.14,0.12,0.25,0.26,0.24c1.12-0.02,2.25-0.04,3.37-0.06c0.54-0.01,1.07-0.02,1.61-0.03c0.14,0,0.27-0.01,0.41-0.01
		c0,0,0.01,0,0.02,0c0.13-0.01,0.23-0.12,0.23-0.26c0-0.03-0.01-0.06-0.02-0.08C36.65,16.72,36.66,16.68,36.65,16.64z"/>
	<path d="M68.41,9.07c-0.57-0.96-1.31-1.81-2.05-2.64c-0.14-0.12-0.35-0.2-0.51-0.07c-0.05,0.04-0.07,0.1-0.07,0.16
		c-2.01,2.17-2.96,5.03-3.75,7.83c-0.22,0.87-0.52,1.73-0.65,2.62c0.01,0.14,0.13,0.24,0.27,0.23c0.13-0.01,0.23-0.13,0.23-0.25
		c0.64-2.73,1.42-5.5,2.73-8.02c0.4-0.72,0.98-1.38,1.5-2.03c2.72,2.62,3.21,6.54,4.18,10.07c0.04,0.13,0.19,0.2,0.32,0.15
		c0.4-0.24-0.1-1.06-0.13-1.47C69.8,13.48,69.51,11.12,68.41,9.07z"/>
	<path d="M47.57,12.07c-0.54-1.64-1.5-3.05-2.26-4.58c-0.01-0.13-0.12-0.23-0.26-0.23c-0.07,0.02-0.1,0.05-0.14,0.09
		c-0.01-0.01-0.01-0.01-0.04,0.02c0,0,0,0,0,0c0,0,0,0,0,0c-0.91,1.11-1.76,2.27-2.5,3.5c-0.41,0.67-0.77,1.37-1.09,2.09
		c-0.46,1.03-0.81,2.1-1.03,3.2c-0.02,0.12-0.13,0.65-0.08,0.95c0.03,0.18,0.11,0.27,0.29,0.16c0.17-0.1,0.15-0.33,0.18-0.5
		c0.43-2.25,1.19-4.45,2.53-6.35c0.56-0.84,1.22-1.61,1.81-2.43c0.19,0.37,0.5,0.79,0.58,1c0.13,0.34,0.41,0.66,0.58,0.99
		c0.18,0.33,0.34,0.67,0.49,1.01c0.42,0.97,0.74,1.98,0.93,3.02c0.1,0.52,0.16,1.05,0.2,1.59c0.02,0.25,0.04,0.51,0.03,0.77
		c0,0.21-0.06,0.43,0.02,0.64c0.01,0.03,0.02,0.05,0.04,0.08c0.04,0.06,0.15,0.16,0.22,0.16c0.51,0.02,0.12-2.19,0.08-2.45
		C48.01,13.89,47.86,12.96,47.57,12.07z"/>
	<path d="M59.25,16.46c-0.15-1.62-0.62-3.21-1.23-4.71c-0.68-1.81-1.29-3.89-2.69-5.27c-0.1-0.05-0.19,0-0.25,0.07
		c-0.3,0.13-0.53,0.72-0.78,0.92c-1.51,1.97-2.38,4.3-3.13,6.65c-0.28,0.96-0.6,1.92-0.79,2.89c0.01,0.11,0.07,0.21,0.19,0.24
		c0.15,0.04,0.3-0.08,0.32-0.23c0.5-2.14,1.22-4.23,2.04-6.28c0.55-1.2,1.28-2.35,2.11-3.4c0.04-0.07,0.12-0.16,0.19-0.24
		c1.08,1.35,1.69,3.07,2.28,4.71c0.69,1.72,1.24,3.51,1.27,5.39c0.02,0.13,0.15,0.23,0.28,0.21C59.44,17.28,59.18,16.77,59.25,16.46
		z"/>
	<path d="M46.59,15.29c-0.15-0.9-0.35-1.79-0.6-2.67c-0.11-0.4-0.24-0.8-0.38-1.19c-0.1-0.27-0.29-0.96-0.69-0.66
		c-0.1,0.07-0.19,0.17-0.25,0.28c-0.2,0.33-0.39,0.66-0.58,1c-0.63,1.12-1.18,2.31-1.52,3.55c-0.09,0.31-0.19,0.77-0.25,1.09
		c-0.03,0.15-0.05,0.31-0.07,0.47c-0.01,0.1-0.04,0.18,0.07,0.24c0.1,0.06,0.24,0.06,0.35,0.07c0.12,0.02,3.06-0.03,3.3-0.04
		c0.23-0.01,0.47-0.01,0.68-0.13c0.06-0.03,0.07-0.12,0.08-0.17c0.05-0.24,0.02-0.49,0-0.73C46.7,16.03,46.65,15.66,46.59,15.29z"/>
	<path d="M56.55,12.2c-0.17-0.4-0.35-0.79-0.57-1.16c-0.15-0.24-0.32-0.51-0.56-0.66c-0.23-0.15-0.4,0.06-0.53,0.23
		c-0.17,0.21-0.33,0.43-0.49,0.65c-0.32,0.44-0.61,0.89-0.87,1.37c-0.37,0.7-0.67,1.44-0.92,2.2c-0.12,0.38-0.23,0.77-0.33,1.16
		c-0.05,0.2-0.1,0.39-0.14,0.59c-0.02,0.1-0.05,0.2-0.07,0.31c-0.01,0.05-0.05,0.21-0.05,0.26c0,0.15,0.09,0.2,0.35,0.21
		c1.03-0.02,2.06,0.08,3.08,0.07c0.52-0.01,1.04-0.03,1.56-0.04c0.2-0.01,0.38-0.06,0.48-0.24c0.13-0.23,0.12-0.55,0.11-0.8
		c-0.02-0.42-0.09-0.84-0.17-1.25C57.24,14.1,56.93,13.13,56.55,12.2z"/>
	<path d="M69.15,16.62c-0.04-0.67-0.19-1.33-0.4-1.97c-0.46-1.6-1.19-3.17-2.24-4.45c-0.1-0.17-0.37-0.12-0.44,0.05l0,0
		c-0.22,0.15-0.42,0.49-0.57,0.65c-1.21,1.73-1.61,3.84-2.22,5.83c-0.02,0.06-0.02,0.12,0,0.18c0,0,0,0.01,0,0.02
		c0.01,0.14,0.12,0.25,0.26,0.24c1.12-0.02,2.25-0.04,3.37-0.06c0.54-0.01,1.07-0.02,1.61-0.03c0.14,0,0.27-0.01,0.41-0.01
		c0,0,0.01,0,0.02,0c0.13-0.01,0.23-0.12,0.23-0.26c0-0.03-0.01-0.06-0.02-0.08C69.15,16.69,69.15,16.65,69.15,16.62z"/>
	<path d="M88.34,3.85c-0.08-0.06-0.16-0.06-0.22-0.03c-0.04-0.02-0.07-0.04-0.12-0.03c-2.47,2.54-4.33,5.89-5.37,9.31
		c-0.11,0.32-0.19,0.64-0.26,0.97c-0.49-2.56-1.44-5.04-2.62-7.35c-0.24-0.27-1.46-2.5-2.07-2.73c-0.02-0.02-0.03-0.04-0.05-0.05
		c-0.16-0.1-0.33,0.05-0.43,0.18c-1.41,1.51-2.51,3.24-3.57,5.03c-1.06,1.8-1.66,3.76-2.07,5.78c-0.49-4.11-2.13-8.43-5.27-11.06
		c-0.08-0.06-0.16-0.06-0.22-0.03c-0.04-0.02-0.07-0.04-0.12-0.03c-2.47,2.54-4.33,5.89-5.37,9.31c-0.11,0.32-0.19,0.64-0.26,0.97
		c-0.49-2.56-1.44-5.04-2.62-7.35c-0.24-0.27-1.46-2.5-2.07-2.73c-0.02-0.02-0.03-0.04-0.05-0.05c-0.16-0.1-0.33,0.05-0.43,0.18
		c-1.41,1.51-2.51,3.24-3.57,5.03c-1.1,1.85-1.7,3.88-2.11,5.96c-0.1-1.65-0.3-3.29-0.76-4.88c-0.77-2.11-2.01-4.05-3.27-5.88
		C45.42,4.12,45.13,4.09,45,4.23c-0.01,0-0.01,0-0.02,0c-2.7,2.99-5.17,6.58-5.94,10.6c-0.51-4.08-2.14-8.34-5.25-10.95
		c-0.08-0.06-0.16-0.06-0.22-0.03c-0.04-0.02-0.07-0.04-0.12-0.03c-2.47,2.54-4.33,5.89-5.37,9.31c-0.11,0.32-0.19,0.64-0.26,0.97
		c-0.49-2.56-1.44-5.04-2.62-7.35c-0.24-0.27-1.46-2.5-2.07-2.73C23.11,4,23.1,3.98,23.08,3.97c-0.16-0.1-0.33,0.05-0.43,0.18
		c-1.41,1.51-2.51,3.24-3.57,5.03c-1.1,1.85-1.7,3.88-2.11,5.96c-0.1-1.65-0.3-3.29-0.76-4.88c-0.77-2.11-2.01-4.05-3.27-5.88
		c-0.02-0.23-0.31-0.26-0.43-0.13c-0.01,0-0.01,0-0.02,0c-2.94,3.26-5.64,7.21-6.13,11.69c0.05,0.4-0.38,1.32,0.1,1.47
		c0.13,0.02,0.27-0.09,0.27-0.22c0.12-1.27,0.26-2.53,0.63-3.76c1.07-3.23,3.09-6.1,5.29-8.67c1.04,1.72,2.23,3.41,2.98,5.31
		c0.71,2.25,0.86,4.64,0.92,7.01c0,0.13,0.09,0.18,0.18,0.21c0.04,0.03,0.07,0.06,0.12,0.07c0.13,0.02,0.26-0.09,0.28-0.22
		c0.24-1.12,0.36-2.26,0.66-3.4c0.89-3.45,2.88-6.57,5.23-9.24c2.53,3.07,3.95,7.01,4.52,10.92c0.02,0.2,0.04,0.4,0.07,0.6
		c-0.02,0.4-0.03,0.81-0.03,1.21c-0.01,0.13,0.09,0.26,0.23,0.26c0.03,0,0.05-0.02,0.08-0.03c0.02,0.01,0.03,0.02,0.05,0.02
		c0.48-0.04,0.2-0.7,0.22-1.02c-0.01-0.15-0.03-0.29-0.05-0.44c0.01-0.36,0.03-0.72,0.08-1.07c0.69-3.98,2.83-7.55,5.39-10.62
		c1.8,1.3,2.74,3.46,3.65,5.43c0.98,2.28,1.48,4.7,1.51,7.18c0,0.01,0.01,0.01,0.01,0.01c0,0.21,0.05,0.37,0.23,0.43
		c0.13,0.02,0.27-0.09,0.27-0.22c0.12-1.27,0.26-2.53,0.63-3.76c1.07-3.23,3.09-6.1,5.29-8.67c1.04,1.72,2.23,3.41,2.98,5.31
		c0.71,2.25,0.86,4.64,0.92,7.01c0,0.13,0.09,0.18,0.18,0.21c0.04,0.03,0.07,0.06,0.12,0.07c0.13,0.02,0.26-0.09,0.28-0.22
		c0.24-1.12,0.36-2.26,0.66-3.4c0.89-3.45,2.88-6.57,5.23-9.24c2.53,3.07,3.95,7.01,4.52,10.92c0.02,0.2,0.04,0.4,0.07,0.6
		c-0.02,0.4-0.03,0.81-0.03,1.21c-0.01,0.13,0.09,0.26,0.23,0.26c0.03,0,0.05-0.02,0.08-0.03c0.02,0.01,0.03,0.02,0.05,0.02
		c0.48-0.04,0.2-0.7,0.22-1.02c-0.01-0.15-0.03-0.29-0.05-0.44c0.01-0.36,0.03-0.72,0.08-1.07c0.69-3.98,2.83-7.55,5.39-10.62
		c1.8,1.3,2.74,3.46,3.65,5.43c0.96,2.25,1.47,4.65,1.51,7.09c-0.01,0.07-0.03,0.15-0.04,0.22c-0.02,0.13,0.09,0.26,0.22,0.28
		c0.13,0.02,0.26-0.09,0.28-0.22c0.24-1.12,0.36-2.26,0.66-3.4c0.89-3.45,2.88-6.57,5.23-9.24c2.53,3.07,3.95,7.01,4.52,10.92
		c0.02,0.2,0.04,0.4,0.07,0.6c-0.02,0.4-0.03,0.81-0.03,1.21c-0.01,0.13,0.09,0.26,0.23,0.26c0.03,0,0.05-0.02,0.08-0.03
		c0.02,0.01,0.03,0.02,0.05,0.02c0.48-0.04,0.2-0.7,0.22-1.02c-0.01-0.15-0.03-0.29-0.05-0.44c0.01-0.36,0.03-0.72,0.08-1.07
		c0.69-3.98,2.83-7.55,5.39-10.62c1.8,1.3,2.74,3.46,3.65,5.43c0.98,2.28,1.48,4.7,1.51,7.18c0.06,0.32,0.55,0.21,0.49-0.1
		C93.6,12.19,91.97,6.89,88.34,3.85z"/>
	<path d="M90.46,9.07c-0.57-0.96-1.31-1.81-2.05-2.64c-0.14-0.12-0.35-0.2-0.51-0.07c-0.05,0.04-0.07,0.1-0.07,0.16
		c-2.01,2.17-2.96,5.03-3.75,7.83c-0.22,0.87-0.52,1.73-0.65,2.62c0.01,0.14,0.13,0.24,0.27,0.23c0.13-0.01,0.23-0.13,0.23-0.25
		c0.64-2.73,1.42-5.5,2.73-8.02c0.4-0.72,0.98-1.38,1.5-2.03c2.72,2.62,3.21,6.54,4.18,10.07c0.04,0.13,0.19,0.2,0.32,0.15
		c0.4-0.24-0.1-1.06-0.13-1.47C91.85,13.47,91.56,11.11,90.46,9.07z"/>
	<path d="M81.3,16.46c-0.15-1.62-0.62-3.21-1.23-4.71c-0.68-1.81-1.29-3.89-2.69-5.27c-0.1-0.05-0.19,0-0.25,0.07
		c-0.3,0.13-0.53,0.72-0.78,0.92c-1.51,1.97-2.38,4.3-3.13,6.65c-0.28,0.96-0.6,1.92-0.79,2.89c0.01,0.11,0.07,0.21,0.19,0.24
		c0.15,0.04,0.3-0.08,0.32-0.23c0.5-2.14,1.22-4.23,2.04-6.28c0.55-1.2,1.28-2.35,2.11-3.4c0.04-0.07,0.12-0.16,0.19-0.24
		c1.09,1.35,1.69,3.07,2.28,4.71c0.69,1.72,1.24,3.51,1.27,5.39c0.02,0.13,0.15,0.23,0.28,0.21C81.49,17.27,81.23,16.76,81.3,16.46z
		"/>
	<path d="M78.6,12.19c-0.17-0.4-0.35-0.79-0.57-1.16c-0.15-0.24-0.32-0.51-0.56-0.66c-0.23-0.14-0.4,0.06-0.53,0.23
		c-0.17,0.21-0.33,0.43-0.49,0.65c-0.32,0.44-0.61,0.89-0.87,1.37c-0.37,0.7-0.67,1.44-0.92,2.2c-0.12,0.38-0.23,0.77-0.33,1.16
		c-0.05,0.2-0.1,0.39-0.14,0.59c-0.02,0.1-0.05,0.2-0.07,0.31c-0.01,0.05-0.05,0.21-0.05,0.26c0,0.15,0.09,0.2,0.35,0.21
		c1.03-0.02,2.06,0.08,3.08,0.07c0.52-0.01,1.04-0.03,1.56-0.04c0.2-0.01,0.38-0.06,0.48-0.24c0.13-0.23,0.12-0.55,0.11-0.8
		c-0.02-0.42-0.09-0.84-0.17-1.25C79.29,14.09,78.98,13.12,78.6,12.19z"/>
	<path d="M91.2,16.61c-0.04-0.67-0.19-1.33-0.4-1.97c-0.46-1.6-1.19-3.17-2.24-4.45c-0.1-0.17-0.37-0.12-0.44,0.05l0,0
		c-0.22,0.15-0.42,0.49-0.57,0.65c-1.21,1.73-1.61,3.84-2.22,5.83c-0.02,0.06-0.02,0.12,0,0.18c0,0,0,0.01,0,0.02
		c0.01,0.14,0.12,0.25,0.26,0.24c1.12-0.02,2.25-0.04,3.37-0.06c0.54-0.01,1.07-0.02,1.61-0.03c0.14,0,0.27-0.01,0.41-0.01
		c0,0,0.01,0,0.02,0c0.13-0.01,0.23-0.12,0.23-0.26c0-0.03-0.01-0.06-0.02-0.08C91.2,16.68,91.2,16.65,91.2,16.61z"/>
</g>
</svg>
