<?xml version="1.0" encoding="utf-8"?>
<!-- Generator: Adobe Illustrator 23.0.0, SVG Export Plug-In . SVG Version: 6.00 Build 0)  -->
<svg version="1.1" id="Слой_1" xmlns="http://www.w3.org/2000/svg" xmlns:xlink="http://www.w3.org/1999/xlink" x="0px" y="0px"
	 viewBox="0 0 100 21.28" style="enable-background:new 0 0 100 21.28;" xml:space="preserve">
<g>
	<path d="M18.19,15.42c-0.09-0.65-0.2-1.3-0.38-1.93c-0.57-2.01-1.73-3.99-3.54-5.12c-0.36-0.18-0.63,0.2-0.81,0.46
		c-0.26,0.33-0.52,0.65-0.78,0.97c-0.69,0.83-1.39,1.66-2.02,2.53c-0.04,0.05-0.07,0.1-0.11,0.15c-0.01,0.01-0.02,0.03-0.03,0.05
		c-0.57,0.8-1.08,1.65-1.42,2.57c-0.18,0.49-0.32,1-0.39,1.52c-0.04,0.26-0.06,0.53-0.06,0.8c0,0.09-0.03,0.23,0.05,0.29
		c0.09,0.07,0.25,0.05,0.32-0.03c0.08-0.09,0.07-0.23,0.07-0.34c0-0.1,0.02-0.2,0.03-0.3c0.09-0.65,0.27-1.29,0.52-1.9
		c0.77,0.79,3.17,2.13,3.53,2.24c0.07,0.03,0.14,0.07,0.21,0.1c0.04,0.04,0.07,0.07,0.13,0.08c0.11,0,0.18-0.05,0.23-0.12
		c1.26-0.49,2.39-1.17,3.65-1.7c0.09-0.06,0.21-0.09,0.32-0.13c0.03,0.28,0.06,0.56,0.08,0.85c0.02,0.36-0.09,0.74,0.06,1.09
		c0.01,0.01,0.01,0.03,0.02,0.04c0.08,0.16,0.27,0.34,0.39,0.12c0.13-0.24,0.07-0.67,0.06-0.93C18.3,16.32,18.25,15.87,18.19,15.42z
		 M16.93,12.47c-1.06,0.56-2.01,1.29-2.94,2.05c0.02-0.76,0.04-1.52,0.07-2.28c0.33-0.29,0.6-0.85,0.89-1.09
		c0.14-0.24,0.62-0.48,0.77-0.77c0.07,0.09,0.16,0.18,0.23,0.27C16.34,11.23,16.67,11.84,16.93,12.47z M15.41,10.03
		c-0.02,0.01-0.04,0.01-0.05,0.02c-0.47,0.42-0.87,0.89-1.27,1.37c0.03-0.8,0.07-1.6,0.15-2.4c0.01-0.03,0-0.05,0-0.07
		C14.67,9.26,15.05,9.63,15.41,10.03z M13.09,10.08c0.05-0.06,0.37-0.46,0.64-0.79c-0.14,0.78-0.11,1.64-0.15,2.45
		c-0.23-0.3-0.48-0.6-0.73-0.87c-0.06-0.07-0.13-0.17-0.21-0.24C12.78,10.45,12.94,10.26,13.09,10.08z M12.31,11.01
		c0.41,0.43,0.77,0.99,1.22,1.41c0,0,0.01,0,0.01,0c-0.03,0.76-0.04,1.52-0.05,2.28c-0.84-0.65-1.63-1.35-2.44-2.06
		c0.32-0.44,0.65-0.87,0.99-1.3C12.13,11.23,12.22,11.12,12.31,11.01z M10.18,14.01c0.18-0.33,0.39-0.64,0.6-0.95
		c0.84,0.74,1.7,1.51,2.6,2.2c0.02,0.02,0.05,0.03,0.08,0.05c-0.02,0.53-0.06,1.07-0.12,1.6c-1.2-0.56-2.47-1.44-3.48-2.27
		C9.96,14.43,10.07,14.22,10.18,14.01z M17.63,15.11c-1.3,0.48-2.49,1.19-3.76,1.74c0.01-0.05,0.01-0.11,0.02-0.15
		c0.03-0.51,0.05-1.02,0.07-1.52c0.72-0.57,1.4-1.18,2.2-1.65c0.31-0.21,0.6-0.42,0.94-0.58c0.17,0.48,0.32,0.96,0.42,1.46
		C17.57,14.64,17.6,14.88,17.63,15.11C17.64,15.11,17.63,15.11,17.63,15.11z"/>
	<path d="M28.83,8.08c-0.33-0.21-0.85-0.42-1.16-0.02c-2.58,2.43-4.77,5.63-5.39,9.18c-0.05,0.37,0.55,0.37,0.5,0
		c0.13-0.67,0.34-1.34,0.58-2c0.82,0.86,4.01,2.22,4.35,2.55c0.04,0.03,0.08,0.06,0.12,0.08c0.07,0.07,0.18,0.08,0.27,0.04
		c0.07-0.01,0.13-0.03,0.19-0.07c0.49-0.27,1-0.5,1.52-0.72c0.88-0.41,1.77-0.77,2.67-1.12c0.03,0.51,0.04,1.02,0.03,1.5
		c0.04,0.33,0.54,0.25,0.5-0.07C33.05,13.96,32.38,9.66,28.83,8.08z M26.35,10.39c0.54,0.49,0.89,1.21,1.5,1.64
		c-0.03,1.02-0.05,2.04-0.08,3.05c-1.09-0.81-2.22-1.54-3.11-2.59c0.46-0.77,0.99-1.51,1.57-2.19
		C26.27,10.34,26.31,10.37,26.35,10.39z M28.36,12.03c0.08-0.07,0.15-0.15,0.22-0.22c0.56-0.54,1.14-1.08,1.79-1.52
		c0.13-0.04,0.22-0.11,0.27-0.18c0.66,0.82,1.1,1.82,1.39,2.88c-1.27,0.56-2.55,1.15-3.75,1.87C28.29,13.91,28.33,12.97,28.36,12.03
		z M30.32,9.74c-0.06,0.02-0.12,0.05-0.19,0.1c-0.6,0.39-1.21,0.93-1.76,1.47c0.02-0.98,0.03-1.95-0.02-2.92
		C29.14,8.72,29.79,9.17,30.32,9.74z M27.88,8.6c0.02,0.93,0.01,1.86-0.01,2.78c-0.46-0.45-0.82-1.04-1.3-1.46
		C26.99,9.45,27.43,9.01,27.88,8.6z M23.53,14.77c0.25-0.63,0.56-1.24,0.9-1.84c0.9,1.08,2.18,1.94,3.34,2.72c0,0,0,0,0.01,0
		c-0.01,0.54-0.01,1.08-0.01,1.62C26.35,16.44,24.81,15.77,23.53,14.77z M32.36,15.52c-1.39,0.55-2.77,1.12-4.1,1.8
		c0-0.12,0.01-0.25,0.01-0.37c-0.02-0.52-0.01-1.03,0-1.55c1.27-0.65,2.55-1.39,3.87-1.92c0,0,0,0,0,0c0.15,0.67,0.25,1.36,0.3,2.05
		C32.42,15.52,32.39,15.5,32.36,15.52z"/>
	<path d="M47.39,13.45c-0.21-1.12-0.88-2.09-1.33-3.13c-0.65-1.07-2.3-3.59-2.82-3.14C43.1,7.19,42.95,7.3,42.85,7.4
		c-2.31,2.02-3.55,4.93-4.64,7.74c-0.19,0.52-0.34,1.06-0.42,1.61c-0.02,0.14,0.07,0.27,0.21,0.29c0.13,0.02,0.27-0.07,0.28-0.21
		c0.18-0.72,0.4-1.44,0.65-2.16c0.43,0.38,1.16,0.69,1.53,1.01c0.88,0.48,1.62,1.18,2.45,1.7c0.19,0.09,0.41,0.05,0.58-0.05
		c1.24-0.65,2.51-1.22,3.81-1.76c0.04,0.28,0.08,0.56,0.11,0.84c0.01,0.09-0.01,0.61,0.08,0.91c0.06,0.18,0.15,0.3,0.32,0.2
		c0.13-0.07,0.15-0.39,0.15-0.52c0.01-0.44-0.07-0.89-0.14-1.32C47.72,14.93,47.57,14.19,47.39,13.45z M46.39,12.07
		c-0.01,0.01-0.02,0.01-0.03,0.02c-0.92,0.75-1.97,1.37-3.01,1.97c-0.03-0.98-0.05-1.96-0.04-2.94c0.05-0.04,0.09-0.07,0.14-0.11
		c0.5-0.53,1.1-0.92,1.66-1.39c0.01-0.01,0.01-0.02,0.02-0.02C45.66,10.34,46.07,11.19,46.39,12.07z M42.85,14
		c-0.91-0.69-1.75-1.42-2.54-2.26c-0.01-0.04-0.03-0.06-0.05-0.09c0.34-0.63,0.72-1.24,1.13-1.82c0.3,0.44,1.1,1.06,1.44,1.3
		C42.83,12.09,42.83,13.04,42.85,14z M44.83,9.2c-0.01,0-0.01,0-0.02,0.01c-0.49,0.41-1.03,0.8-1.51,1.25
		c0.01-0.9,0.05-1.79,0.13-2.68c0.02-0.06,0.01-0.12-0.02-0.17c0,0,0,0,0,0C43.96,8.09,44.39,8.62,44.83,9.2z M42.9,8.07
		c-0.11,0.8-0.08,1.61-0.07,2.42c0,0.01,0,0.02,0,0.02c-0.4-0.33-0.75-0.76-1.17-1.04C42.04,8.98,42.46,8.51,42.9,8.07z
		 M39.11,14.18c0.26-0.7,0.57-1.39,0.9-2.06c0.8,0.95,1.84,1.77,2.84,2.53c0,0,0.01,0,0.01,0c0.02,0.71,0.03,1.43,0.06,2.14
		C41.69,15.88,40.39,15.05,39.11,14.18z M43.43,16.79c-0.02-0.72-0.04-1.44-0.06-2.16c1.11-0.62,2.21-1.28,3.2-2.07
		c0.08,0.25,0.17,0.5,0.24,0.75c0.18,0.58,0.31,1.17,0.41,1.76c-0.01,0-0.03,0.01-0.04,0.01C45.91,15.58,44.67,16.19,43.43,16.79z"
		/>
	<path d="M62.3,15.21c-0.08-0.65-0.2-1.3-0.37-1.93c-0.55-2.01-1.68-3.99-3.43-5.12c-0.34-0.18-0.61,0.2-0.78,0.46
		c-0.25,0.33-0.5,0.65-0.76,0.97c-0.67,0.83-1.35,1.66-1.96,2.53c-0.04,0.05-0.07,0.1-0.1,0.15c-0.01,0.01-0.02,0.03-0.03,0.05
		c-0.55,0.8-1.04,1.65-1.38,2.57c-0.18,0.49-0.31,1-0.38,1.52c-0.04,0.26-0.05,0.53-0.06,0.8c0,0.09-0.03,0.22,0.05,0.29
		c0.09,0.07,0.24,0.05,0.31-0.03c0.08-0.09,0.07-0.23,0.07-0.34c0-0.1,0.02-0.2,0.03-0.3c0.09-0.65,0.27-1.29,0.5-1.9
		c0.74,0.79,3.07,2.13,3.42,2.24c0.07,0.03,0.14,0.07,0.21,0.1c0.03,0.04,0.07,0.07,0.12,0.08c0.11,0,0.18-0.05,0.22-0.12
		c1.22-0.49,2.32-1.17,3.54-1.7c0.08-0.06,0.21-0.09,0.31-0.13c0.03,0.28,0.06,0.56,0.08,0.85c0.02,0.36-0.08,0.74,0.05,1.09
		c0.01,0.01,0.01,0.03,0.02,0.04c0.08,0.16,0.26,0.34,0.38,0.12c0.13-0.24,0.07-0.67,0.06-0.93C62.4,16.11,62.35,15.66,62.3,15.21z
		 M61.07,12.27c-1.03,0.56-1.95,1.29-2.85,2.05c0.02-0.76,0.04-1.52,0.06-2.28c0.32-0.29,0.59-0.85,0.87-1.09
		c0.13-0.24,0.6-0.48,0.74-0.77c0.07,0.09,0.16,0.18,0.23,0.27C60.51,11.02,60.82,11.63,61.07,12.27z M59.6,9.83
		c-0.02,0.01-0.04,0.01-0.05,0.02c-0.45,0.42-0.85,0.89-1.24,1.37c0.03-0.8,0.07-1.6,0.15-2.4c0.01-0.03,0-0.05,0-0.07
		C58.88,9.06,59.25,9.43,59.6,9.83z M57.35,9.87c0.05-0.06,0.36-0.46,0.62-0.79c-0.13,0.78-0.11,1.64-0.15,2.45
		c-0.23-0.3-0.47-0.6-0.71-0.87c-0.06-0.07-0.13-0.17-0.21-0.24C57.05,10.24,57.2,10.06,57.35,9.87z M56.6,10.81
		c0.4,0.43,0.74,0.99,1.18,1.41c0,0,0.01,0,0.01,0c-0.03,0.76-0.04,1.52-0.05,2.28c-0.82-0.65-1.58-1.35-2.36-2.06
		c0.31-0.44,0.63-0.87,0.96-1.3C56.42,11.03,56.51,10.92,56.6,10.81z M54.53,13.8c0.18-0.33,0.38-0.64,0.58-0.95
		c0.82,0.74,1.65,1.51,2.53,2.2c0.02,0.02,0.05,0.03,0.08,0.05c-0.02,0.53-0.06,1.07-0.12,1.6c-1.17-0.56-2.39-1.44-3.38-2.27
		C54.31,14.22,54.42,14.01,54.53,13.8z M61.76,14.9c-1.27,0.48-2.41,1.19-3.65,1.74c0.01-0.05,0.01-0.11,0.02-0.15
		c0.03-0.51,0.05-1.02,0.07-1.52c0.69-0.57,1.36-1.18,2.13-1.65c0.3-0.21,0.58-0.42,0.91-0.58c0.16,0.48,0.31,0.96,0.41,1.46
		C61.69,14.44,61.73,14.67,61.76,14.9C61.76,14.91,61.76,14.9,61.76,14.9z"/>
	<path d="M72.62,7.88c-0.32-0.21-0.82-0.42-1.13-0.02c-2.51,2.43-4.62,5.63-5.23,9.18c-0.05,0.37,0.53,0.37,0.48,0
		c0.13-0.67,0.33-1.34,0.56-2c0.79,0.86,3.89,2.22,4.22,2.55c0.04,0.03,0.08,0.06,0.12,0.08c0.07,0.07,0.17,0.08,0.26,0.04
		c0.06-0.01,0.13-0.03,0.19-0.07c0.48-0.27,0.97-0.5,1.48-0.72c0.85-0.41,1.72-0.77,2.59-1.12c0.03,0.51,0.03,1.02,0.03,1.5
		c0.04,0.33,0.52,0.25,0.48-0.07C76.71,13.75,76.06,9.45,72.62,7.88z M70.22,10.19c0.52,0.49,0.86,1.21,1.46,1.64
		c-0.02,1.02-0.05,2.04-0.07,3.05c-1.05-0.81-2.15-1.54-3.02-2.59c0.45-0.77,0.96-1.51,1.52-2.19
		C70.14,10.13,70.17,10.16,70.22,10.19z M72.16,11.82c0.08-0.07,0.15-0.15,0.21-0.22c0.54-0.54,1.11-1.08,1.74-1.52
		c0.13-0.04,0.21-0.11,0.26-0.18c0.64,0.82,1.07,1.82,1.35,2.88c-1.23,0.56-2.48,1.15-3.64,1.87C72.1,13.7,72.13,12.76,72.16,11.82z
		 M74.07,9.53c-0.06,0.02-0.12,0.05-0.18,0.1c-0.58,0.39-1.18,0.93-1.71,1.47c0.02-0.98,0.03-1.95-0.02-2.92
		C72.93,8.51,73.55,8.97,74.07,9.53z M71.7,8.4c0.02,0.93,0.01,1.86-0.01,2.78c-0.45-0.45-0.79-1.04-1.26-1.46
		C70.83,9.25,71.26,8.81,71.7,8.4z M67.47,14.57c0.25-0.63,0.55-1.24,0.87-1.84c0.87,1.08,2.12,1.94,3.24,2.72c0,0,0,0,0.01,0
		c-0.01,0.54-0.01,1.08-0.01,1.62C70.21,16.24,68.72,15.56,67.47,14.57z M76.04,15.31c-1.35,0.55-2.69,1.12-3.98,1.8
		c0-0.12,0.01-0.25,0.01-0.37c-0.01-0.52-0.01-1.03,0-1.55c1.23-0.65,2.47-1.39,3.76-1.92c0,0,0,0,0,0
		c0.15,0.67,0.24,1.36,0.29,2.05C76.1,15.31,76.07,15.3,76.04,15.31z"/>
	<path d="M88.77,4.41c-0.57-0.49-1.51-1.06-1.97-1.06c-0.5,0-1.35,0.68-2.11,1.42c-2.2,2.12-4.65,6.63-5.33,10.47
		c-0.08-1.5-0.18-3.01-0.68-4.42c-0.43-1.22-1.15-2.32-1.99-3.28c-0.83-0.95-1.78-1.93-2.81-2.65c-0.38-0.27-1.15-0.87-1.64-0.66
		c-4.18,1.77-6.4,5.76-7.67,10.01c-0.4-4.01-3.94-9.79-6.17-9.79c-1.01,0-6.67,4.87-7.8,10.08c-0.77-3.39-2.85-8.02-5.14-9.92
		c-0.59-0.49-1.56-1.06-2.03-1.06c-0.51,0-1.39,0.68-2.18,1.42c-2.27,2.12-4.79,6.63-5.49,10.47c-0.09-1.5-0.19-3.01-0.7-4.42
		c-0.44-1.22-1.18-2.32-2.05-3.28c-0.85-0.95-1.83-1.93-2.9-2.65c-0.4-0.27-1.18-0.87-1.69-0.66c-4.31,1.77-6.6,5.76-7.91,10.01
		c-0.41-4.01-4.06-9.79-6.36-9.79c-1.21,0-8.82,6.98-8.21,12.61c0.03,0.27,0.31,0.36,0.39-0.1c0.02-0.13,0.04-0.29,0.04-0.42
		c-0.01-0.2,0.02-0.39,0.04-0.59c0.02-0.3,0.06-0.61,0.11-0.9c0.12-0.61,0.3-1.21,0.54-1.79C7.68,12,8.55,10.65,9.53,9.42
		c0.86-1.09,1.82-2.11,2.87-3.03c0.36-0.31,0.73-0.62,1.12-0.89c0.19-0.13,0.43-0.32,0.67-0.35c1.52-0.17,4.89,4.92,5.65,8.42
		c0.04,0.2,0.06,0.41,0.07,0.61c0.04,0.73,0.1,1.52,0.06,2.26c-0.06,0.25-0.12,0.51-0.18,0.76c-0.17,0.33,0.15,0.58,0.34,0.46
		c0.09-0.01,0.18-0.06,0.21-0.16c0.08-0.32,0.12-0.64,0.16-0.97c0.78-2.88,1.62-5.9,3.56-8.22c1.2-1.4,2.76-2.53,4.42-3.37
		c0.05-0.03,0.11-0.04,0.17,0c0.67,0.35,1.31,0.58,1.91,1.06c1.25,1.01,2.42,2.37,3.32,3.7c1.49,2.19,1.4,5,1.51,7.53
		c0,0.12,0.01,0.24,0.07,0.34c0.03,0.05,0.09,0.1,0.15,0.12c0.05,0.02,0.1,0.02,0.15,0c0.12-0.06,0.13-0.21,0.13-0.34
		c0.08-0.24,0.12-0.61,0.18-0.77c0.48-3.92,3.63-9.24,5.84-11.43c0.62-0.61,1.16-0.97,1.55-0.99c0.46-0.03,0.99,0.31,1.58,0.86
		c3.45,3.25,4.95,9.03,5.25,11.43c0.03,0.25,0,0.9,0.38,0.94c0.31,0,0.26-0.36,0.27-0.58c0-0.22-0.02-0.47-0.05-0.73
		c0-0.05,0.01-0.09,0.01-0.14c0.02-0.3,0.05-0.61,0.11-0.9c0.11-0.61,0.29-1.21,0.52-1.79c0.58-1.46,1.43-2.81,2.38-4.04
		c0.84-1.09,1.77-2.11,2.79-3.03c0.35-0.31,0.71-0.62,1.09-0.89c0.18-0.13,0.42-0.32,0.65-0.35c1.47-0.17,4.74,4.92,5.49,8.42
		c0.04,0.2,0.06,0.41,0.07,0.61c0.04,0.73,0.1,1.52,0.06,2.26c-0.06,0.25-0.12,0.51-0.17,0.76c-0.16,0.33,0.14,0.58,0.33,0.46
		c0.09-0.01,0.18-0.06,0.2-0.16c0.08-0.32,0.12-0.64,0.15-0.97c0.75-2.88,1.57-5.9,3.45-8.22c1.17-1.4,2.68-2.53,4.28-3.37
		c0.05-0.03,0.11-0.04,0.16,0c0.65,0.35,1.27,0.58,1.85,1.06c1.21,1.01,2.34,2.37,3.22,3.7c1.44,2.19,1.36,5,1.46,7.53
		c0,0.12,0.01,0.24,0.07,0.34c0.03,0.05,0.08,0.1,0.14,0.12c0.05,0.02,0.1,0.02,0.15,0c0.12-0.06,0.13-0.21,0.13-0.34
		c0.08-0.24,0.12-0.61,0.17-0.77c0.47-3.92,3.52-9.24,5.67-11.43c0.6-0.61,1.12-0.97,1.51-0.99c0.45-0.03,0.96,0.31,1.53,0.86
		c3.35,3.25,4.8,9.03,5.1,11.43c0.03,0.25,0,0.9,0.36,0.94c0.31,0,0.25-0.36,0.26-0.58C94.01,13.46,91.55,6.79,88.77,4.41z"/>
	<path d="M90.62,13.24c-0.21-1.12-0.85-2.09-1.29-3.13c-0.63-1.07-2.23-3.6-2.73-3.14c-0.14,0.01-0.28,0.11-0.38,0.22
		c-2.24,2.02-3.45,4.93-4.51,7.74c-0.18,0.52-0.33,1.06-0.41,1.61c-0.02,0.14,0.07,0.27,0.2,0.29c0.13,0.02,0.26-0.07,0.28-0.21
		c0.17-0.72,0.39-1.44,0.63-2.16c0.41,0.38,1.12,0.69,1.49,1.01c0.85,0.48,1.57,1.18,2.38,1.7c0.19,0.09,0.39,0.05,0.56-0.05
		c1.21-0.65,2.43-1.22,3.7-1.76c0.04,0.28,0.08,0.56,0.11,0.84c0.01,0.09-0.01,0.61,0.08,0.91c0.05,0.18,0.15,0.3,0.31,0.2
		c0.12-0.07,0.15-0.39,0.15-0.52c0.01-0.44-0.06-0.89-0.13-1.32C90.95,14.73,90.8,13.98,90.62,13.24z M89.66,11.86
		c-0.01,0.01-0.02,0.01-0.03,0.02c-0.89,0.75-1.91,1.37-2.92,1.97c-0.03-0.98-0.04-1.96-0.04-2.94c0.05-0.04,0.09-0.07,0.13-0.11
		c0.49-0.53,1.06-0.92,1.61-1.39c0.01-0.01,0.01-0.02,0.02-0.02C88.95,10.13,89.34,10.99,89.66,11.86z M86.22,13.79
		c-0.88-0.69-1.7-1.42-2.46-2.26c-0.01-0.04-0.03-0.06-0.05-0.09c0.33-0.63,0.7-1.24,1.1-1.82c0.3,0.44,1.06,1.06,1.39,1.3
		C86.2,11.88,86.2,12.84,86.22,13.79z M88.15,9c-0.01,0-0.01,0-0.02,0.01c-0.47,0.41-1,0.8-1.46,1.25c0.01-0.9,0.05-1.79,0.12-2.68
		c0.02-0.06,0.01-0.12-0.02-0.17c0,0,0,0,0,0C87.3,7.89,87.71,8.42,88.15,9z M86.27,7.87c-0.11,0.8-0.07,1.61-0.07,2.42
		c0,0.01,0,0.02,0,0.02c-0.39-0.33-0.73-0.76-1.13-1.04C85.44,8.77,85.84,8.31,86.27,7.87z M82.6,13.97
		c0.26-0.7,0.55-1.39,0.88-2.06c0.78,0.95,1.78,1.77,2.76,2.53c0,0,0.01,0,0.01,0c0.02,0.71,0.03,1.43,0.06,2.14
		C85.09,15.67,83.83,14.84,82.6,13.97z M86.78,16.58c-0.02-0.72-0.04-1.44-0.06-2.16c1.07-0.62,2.14-1.28,3.11-2.07
		c0.08,0.25,0.16,0.5,0.24,0.75c0.17,0.58,0.3,1.17,0.4,1.76c-0.01,0-0.03,0.01-0.04,0.01C89.19,15.37,87.98,15.99,86.78,16.58z"/>
</g>
</svg>
