<?xml version="1.0" encoding="utf-8"?>
<!-- Generator: Adobe Illustrator 23.0.0, SVG Export Plug-In . SVG Version: 6.00 Build 0)  -->
<svg version="1.1" id="Слой_1" xmlns="http://www.w3.org/2000/svg" xmlns:xlink="http://www.w3.org/1999/xlink" x="0px" y="0px"
	 viewBox="0 0 100 21.28" style="enable-background:new 0 0 100 21.28;" xml:space="preserve">
<g>
	<path d="M7.13,6.94c-1.97,4.76-1.39,7.72,1.91,11.62c0.26,0.14,0.48-0.14,0.62-0.33c0.78-1.17,1.59-2.34,1.87-3.74
		c1.41-3.65,0.61-8.23-2.24-10.95C8.92,2.13,7.29,6.49,7.13,6.94z M9.22,17.99c-0.01-0.01-0.01-0.02-0.02-0.03
		c-0.07-0.1-0.14-0.2-0.22-0.3c-1-1.3-1.91-2.74-2.41-4.31c-0.39-3.28,0.96-6.52,2.46-9.38C12.79,7.72,12.28,13.95,9.22,17.99z"/>
	<path d="M21.14,2.66c-0.07-0.03-0.16-0.04-0.25,0.03c-3.76,5.26-4.06,10.22-0.55,15.7c0.07,0.09,0.16,0.09,0.24,0.07
		c0.02,0.03,0.02,0.06,0.05,0.08c0.11,0.09,0.26,0.06,0.35-0.04c0.82-1.03,1.59-2.12,1.98-3.39c1.56-4,0.63-8.66-1.57-12.23
		C21.36,2.71,21.25,2.65,21.14,2.66z M21.98,16.19c-0.34,0.65-0.81,1.25-1.27,1.84c-3.28-5.36-3.07-9.54,0.36-14.73
		C23.38,7.11,24.07,12.12,21.98,16.19z"/>
	<path d="M30.55,6.99c-1.97,4.76-1.39,7.72,1.91,11.62c0.26,0.14,0.48-0.14,0.62-0.33c0.78-1.17,1.59-2.34,1.87-3.74
		c1.41-3.65,0.61-8.23-2.24-10.95C32.34,2.18,30.7,6.54,30.55,6.99z M32.64,18.04c-0.01-0.01-0.01-0.02-0.02-0.03
		c-0.07-0.1-0.14-0.2-0.22-0.3c-1-1.3-1.91-2.74-2.41-4.31c-0.39-3.28,0.96-6.52,2.46-9.38C36.21,7.77,35.7,14,32.64,18.04z"/>
	<path d="M44.56,2.71c-0.07-0.03-0.16-0.04-0.25,0.03c-3.76,5.26-4.06,10.22-0.55,15.7c0.07,0.09,0.16,0.09,0.24,0.07
		c0.02,0.03,0.02,0.06,0.05,0.08c0.11,0.09,0.26,0.06,0.35-0.04c0.82-1.03,1.59-2.12,1.98-3.39c1.56-4,0.63-8.66-1.57-12.23
		C44.78,2.75,44.67,2.7,44.56,2.71z M45.4,16.24c-0.34,0.65-0.81,1.25-1.27,1.84c-3.28-5.36-3.07-9.54,0.36-14.73
		C46.8,7.15,47.49,12.16,45.4,16.24z"/>
	<path d="M53.97,6.99c-1.97,4.76-1.39,7.72,1.91,11.62c0.26,0.14,0.48-0.14,0.62-0.33c0.78-1.17,1.59-2.34,1.87-3.74
		c1.41-3.65,0.61-8.23-2.24-10.95C55.76,2.18,54.12,6.54,53.97,6.99z M56.05,18.04c-0.01-0.01-0.01-0.02-0.02-0.03
		c-0.07-0.1-0.14-0.2-0.22-0.3c-1-1.3-1.91-2.74-2.41-4.31c-0.39-3.28,0.96-6.52,2.46-9.38C59.63,7.77,59.12,14,56.05,18.04z"/>
	<path d="M67.98,2.71c-0.07-0.03-0.16-0.04-0.25,0.03c-3.76,5.26-4.06,10.22-0.55,15.7c0.07,0.09,0.16,0.09,0.24,0.07
		c0.02,0.03,0.02,0.06,0.05,0.08c0.11,0.09,0.26,0.06,0.35-0.04c0.82-1.03,1.59-2.12,1.98-3.39c1.56-4,0.63-8.66-1.57-12.23
		C68.2,2.75,68.09,2.7,67.98,2.71z M68.82,16.24c-0.34,0.65-0.81,1.25-1.27,1.84c-3.28-5.36-3.07-9.54,0.36-14.73
		C70.21,7.15,70.91,12.16,68.82,16.24z"/>
	<path d="M77.39,6.99c-1.97,4.76-1.39,7.72,1.91,11.62c0.26,0.14,0.48-0.14,0.62-0.33c0.78-1.17,1.59-2.34,1.87-3.74
		c1.41-3.65,0.61-8.23-2.24-10.95C79.18,2.18,77.54,6.54,77.39,6.99z M79.47,18.04c-0.01-0.01-0.01-0.02-0.02-0.03
		c-0.07-0.1-0.14-0.2-0.22-0.3c-1-1.3-1.91-2.74-2.41-4.31c-0.39-3.28,0.96-6.52,2.46-9.38C83.05,7.77,82.54,14,79.47,18.04z"/>
	<path d="M91.66,2.93c-0.04-0.18-0.15-0.24-0.26-0.22c-0.07-0.03-0.16-0.04-0.25,0.03C87.39,8,87.09,12.95,90.6,18.44
		c0.07,0.09,0.16,0.09,0.24,0.07c0.02,0.03,0.02,0.06,0.05,0.08c0.11,0.09,0.26,0.06,0.35-0.04c0.82-1.03,1.59-2.12,1.98-3.39
		C94.78,11.16,93.86,6.5,91.66,2.93z M92.24,16.24c-0.34,0.65-0.81,1.25-1.27,1.84c-3.28-5.36-3.07-9.54,0.36-14.73
		C93.63,7.15,94.33,12.16,92.24,16.24z"/>
</g>
</svg>
