<?xml version="1.0" encoding="utf-8"?>
<!-- Generator: Adobe Illustrator 23.0.0, SVG Export Plug-In . SVG Version: 6.00 Build 0)  -->
<svg version="1.1" id="Слой_1" xmlns="http://www.w3.org/2000/svg" xmlns:xlink="http://www.w3.org/1999/xlink" x="0px" y="0px"
	 viewBox="0 0 100 21.28" style="enable-background:new 0 0 100 21.28;" xml:space="preserve">
<g>
	<path d="M53.6,7.93c0.01-0.01,0.01-0.01,0.01-0.02C53.61,7.92,53.61,7.92,53.6,7.93C53.6,7.93,53.6,7.94,53.6,7.93
		C53.59,7.94,53.59,7.94,53.6,7.93z"/>
	<path d="M89.3,4.92c-0.11-0.33-0.5-0.48-0.59-0.22c-1.45,1.82-3.52,2.93-5.11,4.58c-0.01,0-0.01,0-0.02,0
		c-0.08,0.03-0.11,0.09-0.13,0.15c-0.02,0.02-0.05,0.04-0.07,0.07c-0.2,0.21-0.39,0.45-0.58,0.69c-0.06,0.04-0.11,0.09-0.12,0.16
		c-0.39,0.55-0.72,1.16-0.97,1.81c0-0.28-0.02-0.55-0.05-0.83c-0.33-3.29-3.95-4.57-5.81-6.86c-0.08-0.13-0.27-0.14-0.37-0.05
		c-0.03,0.01-0.07,0.01-0.1,0.04c-0.81,1.05-1.79,2.01-2.76,2.98c-0.02,0.01-0.04,0.03-0.05,0.05c-0.89,0.89-1.76,1.8-2.47,2.79
		c-0.02,0.02-0.04,0.05-0.05,0.07c-0.42,0.6-0.78,1.23-1.05,1.91c-0.01-0.73-0.1-1.45-0.44-2.1c-0.49-1.12-1.26-2.02-2.08-2.88
		c-0.02-0.08-0.08-0.14-0.16-0.16c-0.85-0.87-1.76-1.7-2.51-2.67c-0.09-0.23-0.23-0.31-0.36-0.3c-0.01,0-0.03,0.01-0.04,0.01
		c-0.02,0.01-0.05,0.01-0.07,0.03c-0.03,0.01-0.06,0.01-0.08,0.03c-1.56,1.7-2.95,3.55-4.69,5.08c-0.91,0.77-1.71,1.91-2.13,3.14
		c0.26-3.41-3.2-5.06-4.84-7.56c-0.11-0.33-0.5-0.48-0.59-0.22c-1.45,1.82-3.52,2.93-5.11,4.58c-0.01,0-0.01,0-0.02,0
		c-0.08,0.03-0.11,0.09-0.13,0.15c-0.02,0.02-0.05,0.04-0.07,0.07c-0.2,0.21-0.39,0.45-0.58,0.69c-0.06,0.04-0.11,0.09-0.12,0.16
		c-0.39,0.55-0.72,1.16-0.97,1.81c0-0.28-0.02-0.55-0.05-0.83c-0.33-3.29-3.95-4.57-5.81-6.86c-0.08-0.13-0.27-0.14-0.37-0.05
		c-0.03,0.01-0.07,0.01-0.1,0.04c-0.81,1.05-1.79,2.01-2.76,2.98c-0.02,0.01-0.04,0.03-0.05,0.05c-0.89,0.89-1.76,1.8-2.47,2.79
		c-0.02,0.02-0.04,0.05-0.05,0.07c-0.42,0.6-0.78,1.23-1.05,1.91c-0.01-0.73-0.1-1.45-0.44-2.1c-0.49-1.12-1.26-2.02-2.08-2.88
		c-0.02-0.08-0.08-0.14-0.16-0.16c-0.85-0.87-1.76-1.7-2.51-2.67c-0.09-0.23-0.23-0.31-0.36-0.3c-0.01,0-0.03,0.01-0.04,0.01
		c-0.02,0.01-0.05,0.01-0.07,0.03c-0.03,0.01-0.06,0.01-0.08,0.03c-1.56,1.7-2.95,3.55-4.69,5.08c-0.74,0.62-1.4,1.49-1.86,2.45
		c-0.12-0.67-0.31-1.33-0.59-1.93c-1.15-2.56-4.09-3.52-5.63-5.75c0,0.01,0,0.01,0.01,0.02c0,0,0,0,0,0.01
		c-0.06-0.24-0.37-0.21-0.45-0.03c0,0.01-0.01,0.01-0.01,0.01c-0.46,0.65-1.01,1.26-1.59,1.86c-0.02,0.01-0.03,0.02-0.04,0.04
		c-2.06,2.12-4.47,4.08-4.81,7.15c-0.21,1.12-0.03,2.27,0.04,3.39c0.01,0.14,0.12,0.25,0.26,0.24c0.42-0.06,0.17-0.58,0.2-0.87
		c0,0,0,0,0,0c0.47,0.35,1.1,0.7,1.4,1.01c0.26,0.19,0.55-0.22,0.29-0.41c-0.59-0.44-1.18-0.89-1.79-1.3
		c-0.03-0.28-0.05-0.56-0.04-0.83c0.09,0.05,0.19,0.09,0.26,0.15c1.16,0.66,2.24,1.49,3.3,2.32c1.83,0.25-2.97-2.78-3.54-3.03
		c0.03-0.38,0.1-0.74,0.19-1.09c1.58,1.1,3.12,2.25,4.62,3.44c0.1,0.09,0.26,0.09,0.35-0.01c0.09-0.1,0.09-0.27-0.01-0.35
		c-0.46-0.39-0.92-0.73-1.42-1.1c-1.1-0.82-2.19-1.67-3.34-2.44c-0.02-0.02-0.04-0.02-0.06-0.03c0.15-0.44,0.33-0.86,0.56-1.27
		c0.76,1.12,3.88,3.42,4.27,3.56c0.23,0.15,0.46,0.36,0.69,0.53c0,0.48,0,0.96,0.01,1.44c0,0.14,0.12,0.25,0.26,0.24
		c0.13-0.01,0.25-0.12,0.24-0.26c0-0.46,0-0.93,0-1.39c1.25-0.51,4.48-3.68,5.29-5.08c0.14,0.28,0.25,0.57,0.35,0.86
		c-0.76,0.65-1.74,1.93-2.49,2.68c-0.8,0.87-1.67,1.81-2.42,2.71c-0.11,0.1-0.09,0.29,0.03,0.38c0.11,0.09,0.29,0.04,0.34-0.05
		c1.36-1.59,2.82-3.15,4.25-4.69c0.07-0.12,0.27-0.31,0.44-0.5c0.05,0.2,0.1,0.39,0.13,0.59c-0.01,0.01-0.02,0.02-0.02,0.03
		c-1.31,1.58-3.01,2.88-4.25,4.52c-0.09,0.1-0.06,0.27,0.05,0.35c0.11,0.08,0.27,0.06,0.35-0.05c0.8-1.15,1.92-1.99,2.87-3.01
		c0.36-0.4,0.72-0.78,1.07-1.17c0,0.05,0.01,0.11,0.01,0.16c-0.06,0.22-0.11,0.45-0.14,0.67c-0.67,0.71-1.35,1.4-2.01,2.12
		c-0.23,0.37-1.13,0.9-0.8,1.34c0.11,0.08,0.26,0.06,0.35-0.05c0.41-0.55,0.9-1.04,1.37-1.54c0.35-0.36,0.69-0.72,1.03-1.09
		c0,0.1,0.01,0.2,0.02,0.29c-0.07,0.27-0.14,0.55-0.25,0.81c-0.21,0.44-0.46,0.84-0.75,1.24c-0.08,0.11-0.05,0.27,0.06,0.35
		c0.11,0.08,0.27,0.06,0.35-0.05c0.34-0.42,0.6-0.89,0.8-1.38c0.14,0.41,0.36,0.8,0.67,1.15c0.27,0.08,0.41-0.25,0.28-0.43
		c0-0.01,0.01-0.01,0.01-0.02c0,0,0,0,0,0c0.29,0.2,0.57,0.4,0.85,0.59c0.47,0.21,0.52-0.39,0.11-0.54
		c-0.5-0.29-0.96-0.68-1.46-0.98c-0.07-0.22-0.12-0.44-0.15-0.66c1.15,0.71,2.2,1.66,3.35,2.4c0.26,0.2,0.56-0.2,0.3-0.4
		c-0.96-0.65-1.88-1.36-2.81-2.05c-0.24-0.17-0.48-0.37-0.76-0.47c0.03-0.19,0.06-0.39,0.07-0.58c0.38,0.22,0.73,0.49,1.11,0.72
		c1.58,0.92,3,2.11,4.56,3.03c0.06,0.02,0.11,0.02,0.16,0.01c0.01,0.01,0,0.02,0.01,0.02c0.28,0.23,0.48-0.19,0.66-0.35
		c1.72-1.65,3.28-3.47,5.15-4.95c0.02,0.17,0.02,0.35,0.03,0.53c-1.62,1.1-2.98,2.65-4.19,4.19c-0.13,0.1-0.2,0.3-0.07,0.43
		c0.1,0.09,0.26,0.09,0.36-0.01c1.14-1.48,2.44-2.85,3.9-4.03c-0.01,0.22-0.02,0.45-0.04,0.67c-0.55,0.09-1.61,1.56-1.87,1.8
		c-0.28,0.33-0.6,0.65-0.86,0.97c-0.13,0.14-0.35,0.4-0.13,0.57c0.42,0.21,0.7-0.61,1.02-0.82c0.53-0.71,1.25-1.36,1.77-1.9
		c-0.01,0.12-0.03,0.24-0.04,0.36c-0.31,0.71-0.76,1.35-1.18,2c-0.07,0.12-0.03,0.27,0.09,0.34c0.46,0.12,0.63-0.63,0.87-0.91
		c0.12-0.18,0.23-0.36,0.33-0.54c0.03,0.31,0.09,0.62,0.18,0.92c0.04,0.08,0.11,0.16,0.2,0.18c0.25,0.08,0.45-0.27,0.24-0.43
		c-0.1-0.45-0.14-0.87-0.15-1.29c0.83,0.57,1.68,1.12,2.46,1.77c0.27,0.19,0.55-0.23,0.28-0.41c-0.86-0.68-1.79-1.39-2.73-1.92
		c0.03-0.47,0.12-0.92,0.26-1.35c1.48,1.07,2.81,2.42,4.29,3.49c0.24,0.22,0.58-0.17,0.33-0.37c-0.63-0.51-1.31-1.01-1.93-1.56
		c-0.4-0.22-1.76-1.72-2.51-2.04c0.11-0.28,0.24-0.56,0.38-0.83c0.21,0.2,0.49,0.4,0.58,0.55c1.38,1.52,3.17,2.47,4.78,3.71
		c0,0.16,0,0.33,0.01,0.49c0,0.14,0.12,0.25,0.25,0.25c0.29-0.07,0.28-0.36,0.25-0.66c0.02-0.02,0.05-0.02,0.06-0.04
		c1.72-1.72,3.72-3.18,5.44-4.91c0.03,0.13,0.05,0.26,0.07,0.39l0,0c-1.38,1.29-2.82,2.6-4.15,3.95c-0.17,0.22-0.7,0.42-0.47,0.75
		c0.09,0.1,0.25,0.11,0.35,0.02c1.46-1.32,2.78-2.78,4.3-4.03c0,0.25-0.02,0.51-0.06,0.78c0,0-0.01,0.01-0.01,0.01
		c-1.16,1.04-2.29,2.12-3.31,3.31c-0.09,0.1-0.08,0.27,0.02,0.35c0.45,0.24,0.96-0.8,1.3-1.06c0.53-0.65,1.19-1.18,1.82-1.76
		c-0.18,0.66-0.45,1.39-0.84,2.2c-0.08,0.21-0.41,0.51-0.12,0.7c0.12,0.07,0.28,0.03,0.34-0.09c0.37-0.66,0.69-1.35,0.92-2.07
		c0.05,0.66,0.24,1.3,0.61,1.88c0.26,0.39,0.8-0.09,0.37-0.33c-0.2-0.33-0.32-0.68-0.4-1.04c0.79,0.48,1.57,0.98,2.31,1.51
		c0.28,0.16,0.53-0.27,0.25-0.43c-0.17-0.12-0.33-0.22-0.52-0.34c0.01,0,0.01,0.01,0.02,0.01c-0.65-0.51-1.42-0.93-2.11-1.36
		c-0.01-0.01-0.02,0-0.04-0.01c-0.02-0.37,0.01-0.75,0.08-1.12c1.3,0.78,2.45,1.87,3.71,2.72c0.13,0.09,0.3,0.22,0.45,0.32
		c0.28,0.17,0.53-0.27,0.25-0.43c-0.18-0.12-0.35-0.24-0.54-0.38c-1.27-0.79-2.39-2.12-3.77-2.66c0.08-0.31,0.19-0.61,0.31-0.91
		c1.58,1.47,3.65,2.49,5.16,4.07c0.02,0,0.02,0,0.04,0c0.02,0.04,0.05,0.07,0.08,0.11c0.06,0.05,0.11,0.07,0.17,0.08
		c0.03,0.04,0.05,0.06,0.08,0.05c0.2-0.04,0.25-0.19,0.26-0.37c0.02-0.02,0.05-0.02,0.06-0.04c1.61-1.75,3.64-3.02,5.41-4.6
		c0.03,0.13,0.04,0.26,0.05,0.39c-0.09,0.06-0.17,0.16-0.25,0.21c-1.57,1.21-3.14,2.49-4.59,3.86c-0.1,0.09-0.11,0.25-0.02,0.35
		c0.13,0.15,0.33,0.07,0.44-0.06c1.39-1.36,2.93-2.52,4.43-3.75c0,0.05,0,0.1,0,0.15c-0.02,0.12-0.05,0.25-0.07,0.38
		c-0.14,0.12-0.28,0.28-0.43,0.36c-1.07,0.79-2.01,1.74-2.97,2.66c-0.09,0.1-0.11,0.24-0.02,0.35c0.1,0.11,0.29,0.11,0.38-0.01
		c0.92-0.92,1.89-1.75,2.88-2.58c-0.23,0.93-0.58,1.84-1.12,2.61c-0.14,0.15-0.31,0.37-0.1,0.54c0.11,0.08,0.27,0.06,0.35-0.05
		c0.62-0.78,1.02-1.74,1.29-2.72c-0.04,0.95,0.21,1.88,0.88,2.65c0.33,0.1,0.48-0.44,0.14-0.52c-0.01-0.01-0.01-0.03-0.02-0.04
		c0.34,0.23,0.68,0.47,1.02,0.7c0.47,0.21,0.52-0.39,0.11-0.54c-0.5-0.29-0.96-0.68-1.46-0.98c-0.07-0.22-0.12-0.44-0.15-0.66
		c1.15,0.71,2.2,1.66,3.35,2.4c0.26,0.2,0.56-0.2,0.3-0.4c-0.96-0.65-1.88-1.36-2.81-2.05c-0.27-0.19-0.55-0.43-0.87-0.51
		c0-0.21,0.02-0.41,0.05-0.61c0.43,0.22,0.83,0.53,1.25,0.79c1.58,0.92,3,2.11,4.56,3.03c0.06,0.02,0.11,0.02,0.16,0.01
		c0.01,0.01,0,0.02,0.01,0.02c0.28,0.23,0.48-0.19,0.66-0.35c1.72-1.65,3.28-3.47,5.15-4.95c0.02,0.17,0.02,0.35,0.03,0.53
		c-1.62,1.1-2.98,2.65-4.19,4.19c-0.13,0.1-0.2,0.3-0.07,0.43c0.1,0.09,0.26,0.09,0.36-0.01c1.14-1.48,2.44-2.85,3.9-4.03
		c-0.01,0.22-0.02,0.45-0.04,0.67c-0.55,0.09-1.61,1.56-1.87,1.8c-0.28,0.33-0.6,0.65-0.86,0.97c-0.13,0.14-0.35,0.4-0.13,0.57
		c0.42,0.21,0.7-0.61,1.02-0.82c0.53-0.71,1.25-1.36,1.77-1.9c-0.01,0.12-0.03,0.24-0.04,0.36c-0.31,0.71-0.76,1.35-1.18,2
		c-0.07,0.12-0.03,0.27,0.09,0.34c0.46,0.12,0.63-0.63,0.87-0.91c0.12-0.18,0.23-0.36,0.33-0.54c0.03,0.31,0.08,0.62,0.18,0.92
		c0.04,0.08,0.11,0.16,0.2,0.18c0.25,0.08,0.45-0.27,0.24-0.43c-0.1-0.45-0.14-0.87-0.15-1.29c0.83,0.57,1.68,1.12,2.46,1.77
		c0.27,0.19,0.55-0.23,0.28-0.41c-0.86-0.68-1.79-1.39-2.73-1.92c0.03-0.47,0.12-0.92,0.26-1.35c1.48,1.07,2.81,2.42,4.29,3.49
		c0.24,0.22,0.58-0.17,0.33-0.37c-0.63-0.51-1.31-1.01-1.93-1.56c-0.4-0.22-1.76-1.72-2.51-2.04c0.11-0.28,0.24-0.56,0.38-0.83
		c0.21,0.2,0.49,0.4,0.58,0.55c1.38,1.52,3.17,2.47,4.78,3.71c0,0.16,0,0.33,0.01,0.49c0,0.14,0.12,0.25,0.25,0.25
		c0.29-0.07,0.28-0.36,0.25-0.66c0.02-0.02,0.05-0.02,0.06-0.04c1.72-1.72,3.72-3.18,5.44-4.91c0.03,0.13,0.05,0.26,0.07,0.39l0,0
		c-1.38,1.29-2.82,2.6-4.15,3.95c-0.17,0.22-0.7,0.42-0.47,0.75c0.09,0.1,0.25,0.11,0.35,0.02c1.46-1.32,2.78-2.78,4.3-4.03
		c0,0.25-0.02,0.51-0.06,0.78c0,0-0.01,0.01-0.01,0.01c-1.16,1.04-2.29,2.12-3.31,3.31c-0.09,0.1-0.08,0.27,0.02,0.35
		c0.45,0.24,0.96-0.8,1.3-1.06c0.53-0.65,1.19-1.18,1.82-1.76c-0.18,0.66-0.45,1.39-0.84,2.2c-0.08,0.21-0.41,0.51-0.12,0.7
		c0.11,0.07,0.28,0.03,0.34-0.09c0.37-0.66,0.69-1.35,0.92-2.07c0.05,0.66,0.24,1.3,0.61,1.88c0.26,0.39,0.8-0.09,0.37-0.33
		c-0.2-0.33-0.32-0.68-0.4-1.04c0.79,0.48,1.57,0.98,2.31,1.51c0.27,0.16,0.53-0.27,0.25-0.43c-0.17-0.12-0.33-0.22-0.52-0.34
		c0.01,0,0.01,0.01,0.02,0.01c-0.65-0.51-1.42-0.93-2.11-1.36c-0.01-0.01-0.02,0-0.04-0.01c-0.02-0.37,0.01-0.75,0.08-1.12
		c1.3,0.78,2.45,1.87,3.71,2.72c0.13,0.09,0.3,0.22,0.45,0.32c0.28,0.17,0.53-0.27,0.25-0.43c-0.18-0.12-0.35-0.24-0.54-0.38
		c-1.27-0.79-2.39-2.12-3.77-2.66c0.08-0.31,0.19-0.61,0.31-0.91c1.58,1.47,3.65,2.49,5.16,4.07c0.02,0,0.02,0,0.04,0
		c0.02,0.04,0.05,0.07,0.08,0.11c0.06,0.05,0.11,0.07,0.17,0.08c0.03,0.04,0.05,0.06,0.08,0.05c0.2-0.04,0.25-0.19,0.26-0.37
		c0.02-0.02,0.05-0.02,0.06-0.04c1.61-1.75,3.64-3.02,5.41-4.6c0.03,0.13,0.04,0.26,0.05,0.39c-0.09,0.06-0.17,0.16-0.25,0.21
		c-1.57,1.21-3.14,2.49-4.59,3.86c-0.1,0.09-0.11,0.25-0.02,0.35c0.13,0.15,0.33,0.07,0.44-0.06c1.39-1.36,2.93-2.52,4.43-3.75
		c0,0.05,0,0.1,0,0.15c-0.02,0.12-0.05,0.25-0.07,0.38c-0.14,0.12-0.28,0.28-0.43,0.36c-1.07,0.79-2.01,1.74-2.97,2.66
		c-0.09,0.1-0.11,0.24-0.02,0.35c0.1,0.11,0.29,0.11,0.38-0.01c0.92-0.92,1.89-1.75,2.88-2.58c-0.23,0.93-0.58,1.84-1.12,2.61
		c-0.14,0.15-0.31,0.37-0.1,0.54c0.11,0.08,0.27,0.06,0.35-0.05c0.95-1.18,1.41-2.76,1.59-4.25C94.43,9.09,90.94,7.43,89.3,4.92z
		 M34.26,8.9c0.98,1.2,1.97,2.41,3.15,3.41c0,0.17,0,0.33,0.01,0.5c-0.09-0.07-0.17-0.14-0.26-0.22c-1.29-0.87-2.42-1.91-3.4-3.13
		C33.92,9.27,34.09,9.08,34.26,8.9z M35.07,8.04c0.7,0.98,1.36,2.01,2.25,2.83c0.02,0.02,0.05,0.02,0.07,0.04
		c0,0.25,0.01,0.49,0.01,0.74c-0.3-0.27-0.59-0.54-0.85-0.86c-0.67-0.74-1.34-1.46-1.95-2.26C34.76,8.36,34.92,8.2,35.07,8.04z
		 M35.86,7.22c0.44,0.68,0.81,1.48,1.46,1.96c0.02,0.01,0.03,0,0.05,0.01c0.01,0.34,0.01,0.68,0.01,1.02
		c-0.13-0.11-0.26-0.22-0.32-0.33c-0.61-0.55-1.07-1.6-1.64-2.2C35.57,7.53,35.72,7.37,35.86,7.22z M38.05,7.12
		c-0.01,0.01-0.01,0.01-0.02,0.02c0,0,0,0,0,0c0.38-0.36,0.72-0.77,1.12-1.1c0.14,0.11,0.27,0.22,0.4,0.33
		c-0.54,0.61-1.1,1.19-1.65,1.78c0.01-0.3,0.02-0.6,0.03-0.9C37.97,7.21,38.01,7.17,38.05,7.12z M40.55,7.2
		c-0.43,0.55-0.93,1.07-1.39,1.6c-0.45,0.46-0.86,0.96-1.28,1.44c0-0.45,0.01-0.91,0.01-1.36c0.54-0.47,0.97-1.14,1.53-1.61
		c0.19-0.18,0.35-0.38,0.52-0.57C40.15,6.86,40.35,7.03,40.55,7.2z M42.3,8.9c-0.7,0.54-1.31,1.3-1.98,1.91
		c-0.79,0.79-1.57,1.59-2.4,2.34c0-0.24-0.01-0.47-0.01-0.71c0.03-0.01,0.07-0.02,0.1-0.05c0.67-0.68,1.42-1.34,2.08-2.02
		c0.61-0.6,1.27-1.22,1.9-1.83C42.09,8.66,42.2,8.78,42.3,8.9z M37.41,6.68c-0.14-0.22-0.28-0.48-0.46-0.63
		c0.2-0.22,0.39-0.44,0.57-0.67C37.45,5.79,37.42,6.23,37.41,6.68z M37.23,7.27c0.05,0.08,0.11,0.13,0.17,0.16
		c0,0.39,0,0.78-0.02,1.14c-0.46-0.51-0.79-1.14-1.17-1.72c0.13-0.14,0.27-0.28,0.4-0.43C36.82,6.7,37.04,6.98,37.23,7.27z
		 M33.54,9.98c1.07,1.39,2.48,2.37,3.84,3.45c0.02,0.01,0.03,0.01,0.05,0.02c0,0.19,0.01,0.38,0.01,0.57
		c-0.77-0.58-2.17-1.34-2.33-1.52c-0.8-0.54-1.43-1.4-2.17-2.02c0.15-0.21,0.31-0.41,0.48-0.61C33.46,9.91,33.5,9.95,33.54,9.98z
		 M37.93,13.82c0.06-0.04,0.11-0.09,0.16-0.14c1.56-1.41,2.99-2.96,4.5-4.41c0.07,0.1,0.14,0.2,0.2,0.3
		c-0.41,0.27-0.91,0.94-1.16,1.09c-1.24,1.2-2.49,2.39-3.69,3.63C37.94,14.13,37.93,13.97,37.93,13.82z M41.63,8.18
		c-0.64,0.64-1.33,1.27-1.96,1.9c-0.57,0.59-1.19,1.15-1.77,1.73c0-0.29-0.01-0.59-0.01-0.88c0.04-0.01,0.08-0.02,0.11-0.05
		c0.56-0.65,1.12-1.3,1.7-1.93c0.38-0.49,0.9-0.92,1.22-1.43C41.17,7.73,41.41,7.96,41.63,8.18z M38.2,5.27
		c0.19,0.16,0.38,0.31,0.56,0.46c-0.28,0.24-0.54,0.5-0.79,0.76c0.02-0.47,0.04-0.94,0.08-1.41C38.11,5.14,38.16,5.2,38.2,5.27z
		 M24.14,6.68c0.32,0.4,0.6,0.89,0.95,1.27C25.04,8.42,25,8.88,24.95,9.35c-0.5-0.62-0.98-1.28-1.24-2.04
		c-0.01-0.03-0.03-0.06-0.05-0.09C23.83,7.04,23.99,6.86,24.14,6.68z M26.94,6.09c0.2,0.2,0.4,0.4,0.61,0.6
		c-0.04,0.05-0.07,0.1-0.11,0.14c-0.63,0.75-1.27,1.5-1.96,2.2c0.04-0.38,0.08-0.76,0.12-1.14c0.4-0.44,0.71-0.97,1.05-1.46
		C26.7,6.32,26.82,6.21,26.94,6.09z M29.73,9.13c-1.48,1.22-2.62,2.98-3.98,4.38c-0.08,0.17-0.34,0.38-0.55,0.59
		c0-0.19-0.01-0.39,0-0.58c0.87-1.19,1.97-2.18,2.85-3.36c0.41-0.51,0.89-1.02,1.31-1.56C29.48,8.77,29.61,8.95,29.73,9.13z
		 M25.22,12.67c0.01-0.11,0-0.22,0.01-0.33c0-0.16,0.02-0.32,0.03-0.47c0.06-0.07,0.12-0.16,0.17-0.23c0.76-1.07,1.69-2,2.5-3.03
		c0.2-0.29,0.47-0.57,0.68-0.86c0.14,0.15,0.28,0.3,0.42,0.45C27.81,9.73,26.49,11.18,25.22,12.67z M25.31,10.99
		c0.03-0.38,0.05-0.76,0.09-1.14c0.56-0.39,1.19-1.4,1.53-1.65c0.31-0.37,0.59-0.69,0.91-1.08c0.02-0.02,0.05-0.05,0.07-0.08
		c0.11,0.11,0.22,0.22,0.33,0.33C27.35,8.63,26.25,9.75,25.31,10.99z M24.68,14.24c-0.49-0.29-0.95-0.63-1.38-1.01
		c-0.97-0.86-1.93-1.77-2.73-2.79c0.13-0.15,0.26-0.3,0.39-0.45c0.64,1.07,3.32,3.01,3.73,3.36C24.68,13.65,24.68,13.94,24.68,14.24
		z M24.64,14.8c0.02,0.01,0.03,0,0.05,0.01c0,0.23,0.02,0.46,0.03,0.69c-0.42-0.25-0.83-0.51-1.25-0.81
		c-1.27-0.97-2.52-2.05-3.76-3.03c0.16-0.28,0.35-0.55,0.55-0.82C21.03,12.09,24.13,14.62,24.64,14.8z M25.2,14.86
		c0.04-0.02,0.08-0.04,0.09-0.09c1.16-1.35,2.4-2.69,3.56-4.08c0.1-0.23,0.82-0.78,1.11-1.2c0.21,0.3,0.36,0.61,0.49,0.93
		c-1.67,1.49-3.35,3-4.95,4.58c-0.06,0.09-0.18,0.19-0.29,0.3C25.21,15.15,25.2,15,25.2,14.86z M26.59,5.73
		c-0.33,0.37-0.6,0.81-0.89,1.23c0.07-0.69,0.13-1.38,0.18-2.07C26.1,5.18,26.34,5.46,26.59,5.73z M25.35,5.23
		c-0.06,0.67-0.12,1.34-0.19,2.02c-0.22-0.31-0.44-0.62-0.67-0.92c-0.01-0.01-0.03-0.01-0.04-0.02c0-0.01,0.01-0.01,0.01-0.02
		C24.76,5.93,25.05,5.57,25.35,5.23z M23.29,7.61c0.34,0.81,0.83,1.52,1.39,2.19c0.06,0.09,0.14,0.15,0.21,0.17
		c-0.04,0.45-0.07,0.89-0.1,1.34c-0.84-0.86-1.39-1.96-2.06-2.95c-0.03-0.04-0.08-0.05-0.12-0.06C22.84,8.07,23.07,7.84,23.29,7.61z
		 M22.32,8.59c0.01,0.03,0,0.05,0.02,0.08c0.13,0.17,0.24,0.33,0.35,0.54c0.58,0.92,1.17,2.04,2.06,2.7
		c-0.02,0.28-0.03,0.56-0.04,0.83c-0.56-0.44-1.13-0.84-1.66-1.35c-0.59-0.58-1.31-1.08-1.73-1.8C21.65,9.26,21.98,8.92,22.32,8.59z
		 M16.92,8.47c-0.24,0.14-0.41,0.57-0.63,0.73c-1.13,1.33-2.37,2.57-3.62,3.8c0-0.1,0-0.21,0-0.31c0-0.32,0.02-0.64,0.03-0.96
		c0.25-0.15,0.49-0.47,0.72-0.65c1.06-0.97,2.04-2.03,2.97-3.12C16.58,8.12,16.76,8.29,16.92,8.47z M15.05,6.82
		c-0.18,0.12-0.33,0.4-0.47,0.52C14,7.97,13.38,8.6,12.79,9.23c0.02-0.36,0.03-0.71,0.04-1.07c0.53-0.6,1.02-1.25,1.6-1.82
		C14.64,6.5,14.84,6.66,15.05,6.82z M12.37,6.24c0,0.48-0.02,0.96-0.03,1.43c-0.44-0.45-0.73-1.04-1.11-1.52
		c0.39-0.41,0.77-0.83,1.14-1.25C12.34,5.4,12.42,6.03,12.37,6.24z M12.32,8.32c-0.01,0.35-0.02,0.71-0.03,1.06
		c-0.75-0.67-1.25-1.62-2-2.27c0.19-0.2,0.39-0.4,0.58-0.6C11.21,7.15,11.98,8.09,12.32,8.32z M12.2,12.79
		c-1.4-1.06-2.71-2.2-3.8-3.57c0.23-0.29,0.47-0.57,0.72-0.85c0.84,1.16,1.84,2.27,2.95,3.2c0.05,0.07,0.11,0.11,0.16,0.14
		C12.21,12.08,12.21,12.44,12.2,12.79z M16,7.63c-1.01,1.21-2.13,2.33-3.28,3.42c0.01-0.36,0.02-0.72,0.04-1.08
		c0.22-0.16,0.42-0.45,0.66-0.68c0.65-0.72,1.32-1.38,1.96-2.11c0.02-0.02,0.02-0.05,0.03-0.07c0.15,0.13,0.3,0.26,0.44,0.39
		C15.9,7.54,15.95,7.59,16,7.63z M14.04,6.04c-0.42,0.42-0.8,0.88-1.18,1.34c0.02-0.82,0.03-1.64,0.01-2.45
		C13.21,5.34,13.61,5.7,14.04,6.04z M9.97,7.45c0.01,0,0.01,0.01,0.01,0.01c0.68,0.71,1.22,1.61,1.95,2.3
		c0.12,0.14,0.23,0.22,0.33,0.26c-0.01,0.35-0.02,0.7-0.03,1.05c-1.05-0.89-1.91-1.95-2.79-3.03c0-0.01-0.01-0.01-0.02-0.02
		C9.61,7.84,9.79,7.64,9.97,7.45z M6.37,15.22c-0.01-0.01-0.02-0.01-0.02-0.02c0,0,0-0.01,0-0.01C6.35,15.2,6.36,15.21,6.37,15.22z
		 M7.5,10.54c0-0.01-0.02-0.02-0.02-0.04c0.19-0.3,0.39-0.6,0.61-0.89c0.34,0.53,1.29,1.36,1.4,1.59c0.79,0.85,1.79,1.47,2.7,2.19
		c-0.01,0.34-0.01,0.68-0.01,1.03C10.51,13.26,8.88,12.07,7.5,10.54z M12.69,14.5c0-0.3-0.01-0.6-0.01-0.9
		c0.02-0.01,0.04,0,0.06-0.01c0.74-0.58,1.34-1.33,2.01-1.99c0.89-0.87,1.7-1.8,2.49-2.77c0.17,0.22,0.32,0.45,0.46,0.68
		C16.3,11.41,14.64,13.19,12.69,14.5z M19.17,12.99c0-0.05,0-0.1,0-0.16c0.07-0.24,0.17-0.48,0.28-0.71
		c0.39,0.38,1.04,0.77,1.21,0.94c1.34,1.03,2.56,2.24,4.08,3.03c0.03,0.14,0.01,0.33-0.01,0.52C22.88,15.41,21.13,14,19.17,12.99z
		 M27.65,14.23c-0.79,0.84-1.62,1.62-2.41,2.45c0-0.22-0.01-0.43-0.01-0.65c1.13-1.29,2.43-2.38,3.68-3.57
		c0.5-0.53,1.21-0.98,1.72-1.54c0.05,0.17,0.09,0.35,0.12,0.53C29.92,11.88,27.84,14.01,27.65,14.23z M34.91,13.64
		c-0.94-0.64-1.66-1.63-2.57-2.28c0.1-0.17,0.2-0.33,0.31-0.5c0.13,0.13,0.28,0.25,0.36,0.33c1.2,1.47,2.92,2.35,4.44,3.45
		c0,0.24,0.01,0.48,0.01,0.73C36.68,14.74,35.08,13.84,34.91,13.64z M37.96,15.47c0-0.17-0.01-0.34-0.01-0.51
		c0.36-0.19,0.71-0.82,1-1.01c1.34-1.31,2.72-2.68,4.11-3.94c0.1,0.2,0.19,0.4,0.27,0.61C41.68,12.33,39.67,13.79,37.96,15.47z
		 M71.93,8.92c0.98,1.2,1.97,2.41,3.15,3.41c0,0.17,0,0.33,0.01,0.5c-0.09-0.07-0.17-0.14-0.26-0.22c-1.29-0.87-2.42-1.91-3.4-3.13
		C71.59,9.3,71.76,9.11,71.93,8.92z M72.75,8.06c0.7,0.98,1.36,2.01,2.25,2.83c0.02,0.02,0.05,0.02,0.07,0.04
		c0,0.25,0.01,0.49,0.01,0.74c-0.3-0.27-0.59-0.54-0.85-0.86c-0.67-0.74-1.34-1.46-1.95-2.26C72.44,8.39,72.59,8.23,72.75,8.06z
		 M73.54,7.25c0.44,0.68,0.81,1.48,1.46,1.96c0.02,0.01,0.03,0,0.05,0.01c0.01,0.34,0.01,0.68,0.01,1.02
		c-0.13-0.11-0.26-0.22-0.32-0.33c-0.61-0.55-1.07-1.6-1.64-2.2C73.24,7.55,73.39,7.4,73.54,7.25z M75.72,7.15
		c-0.01,0.01-0.01,0.01-0.02,0.02c0,0,0,0,0,0c0.38-0.36,0.72-0.77,1.12-1.1c0.14,0.11,0.27,0.22,0.4,0.33
		c-0.54,0.61-1.1,1.19-1.65,1.78c0.01-0.3,0.02-0.6,0.03-0.9C75.65,7.24,75.69,7.19,75.72,7.15z M78.22,7.22
		c-0.43,0.55-0.93,1.07-1.39,1.6c-0.45,0.46-0.86,0.96-1.28,1.44c0-0.45,0.01-0.91,0.01-1.36c0.54-0.47,0.97-1.14,1.53-1.61
		c0.19-0.18,0.35-0.38,0.52-0.57C77.82,6.89,78.02,7.06,78.22,7.22z M79.97,8.93c-0.7,0.54-1.31,1.3-1.98,1.91
		c-0.79,0.79-1.57,1.59-2.4,2.34c0-0.24-0.01-0.47-0.01-0.71c0.03-0.01,0.07-0.02,0.1-0.05c0.67-0.68,1.42-1.34,2.08-2.02
		c0.61-0.6,1.27-1.22,1.9-1.83C79.77,8.69,79.87,8.81,79.97,8.93z M75.09,6.71c-0.14-0.22-0.28-0.48-0.46-0.63
		c0.2-0.22,0.39-0.44,0.57-0.67C75.13,5.82,75.1,6.26,75.09,6.71z M74.91,7.3c0.05,0.08,0.11,0.13,0.17,0.16
		c0,0.39,0,0.78-0.02,1.14c-0.46-0.51-0.79-1.14-1.17-1.72c0.13-0.14,0.27-0.28,0.4-0.43C74.49,6.73,74.71,7.01,74.91,7.3z
		 M71.22,10.01c1.07,1.39,2.48,2.37,3.84,3.45c0.02,0.01,0.03,0.01,0.05,0.02c0,0.19,0.01,0.38,0.01,0.57
		c-0.77-0.58-2.17-1.34-2.33-1.52c-0.8-0.54-1.43-1.4-2.17-2.02c0.15-0.21,0.31-0.41,0.48-0.61C71.14,9.93,71.18,9.98,71.22,10.01z
		 M75.61,13.84c0.06-0.04,0.11-0.09,0.16-0.14c1.56-1.41,2.99-2.96,4.5-4.41c0.07,0.1,0.14,0.2,0.2,0.3
		c-0.41,0.27-0.91,0.94-1.16,1.09c-1.24,1.2-2.49,2.39-3.69,3.63C75.61,14.16,75.61,14,75.61,13.84z M79.31,8.2
		c-0.64,0.64-1.33,1.27-1.96,1.9c-0.57,0.59-1.19,1.15-1.77,1.73c0-0.29-0.01-0.59-0.01-0.88c0.04-0.01,0.08-0.02,0.11-0.05
		c0.56-0.65,1.12-1.3,1.7-1.93c0.38-0.49,0.9-0.92,1.22-1.43C78.84,7.76,79.08,7.98,79.31,8.2z M75.87,5.29
		c0.19,0.16,0.38,0.31,0.56,0.46c-0.28,0.24-0.54,0.5-0.79,0.76c0.02-0.47,0.04-0.94,0.08-1.41C75.78,5.17,75.83,5.23,75.87,5.29z
		 M61.82,6.71c0.32,0.4,0.6,0.89,0.95,1.27c-0.05,0.46-0.09,0.93-0.14,1.39c-0.5-0.62-0.98-1.28-1.24-2.04
		c-0.01-0.03-0.03-0.06-0.05-0.09C61.5,7.07,61.66,6.89,61.82,6.71z M64.61,6.12c0.2,0.2,0.4,0.4,0.61,0.6
		c-0.04,0.05-0.07,0.1-0.11,0.14c-0.63,0.75-1.27,1.5-1.96,2.2c0.04-0.38,0.08-0.76,0.12-1.14c0.4-0.44,0.71-0.97,1.05-1.46
		C64.37,6.35,64.5,6.24,64.61,6.12z M67.4,9.15c-1.48,1.22-2.62,2.98-3.98,4.38c-0.08,0.17-0.34,0.38-0.55,0.59
		c0-0.19-0.01-0.39,0-0.58c0.87-1.19,1.97-2.18,2.85-3.36c0.41-0.51,0.89-1.02,1.31-1.56C67.16,8.79,67.28,8.97,67.4,9.15z
		 M62.89,12.7c0.01-0.11,0-0.22,0.01-0.33c0-0.16,0.02-0.32,0.03-0.47c0.06-0.07,0.12-0.16,0.17-0.23c0.76-1.07,1.69-2,2.5-3.03
		c0.2-0.29,0.47-0.57,0.68-0.86c0.14,0.15,0.28,0.3,0.42,0.45C65.49,9.76,64.16,11.21,62.89,12.7z M62.98,11.02
		c0.03-0.38,0.05-0.76,0.09-1.14c0.56-0.39,1.19-1.4,1.53-1.65c0.31-0.37,0.59-0.69,0.91-1.08c0.02-0.02,0.05-0.05,0.07-0.08
		c0.11,0.11,0.22,0.22,0.33,0.33C65.02,8.66,63.92,9.78,62.98,11.02z M62.36,14.26c-0.49-0.29-0.95-0.63-1.38-1.01
		c-0.97-0.86-1.93-1.77-2.73-2.79c0.13-0.15,0.26-0.3,0.39-0.45c0.64,1.07,3.32,3.01,3.73,3.36C62.36,13.67,62.36,13.97,62.36,14.26
		z M62.31,14.83c0.02,0.01,0.03,0,0.05,0.01c0,0.23,0.02,0.46,0.03,0.69c-0.42-0.25-0.83-0.51-1.25-0.81
		c-1.27-0.97-2.52-2.05-3.76-3.03c0.16-0.28,0.35-0.55,0.55-0.82C58.7,12.11,61.81,14.64,62.31,14.83z M62.87,14.88
		c0.04-0.02,0.08-0.04,0.09-0.09c1.16-1.35,2.4-2.69,3.56-4.08c0.1-0.23,0.82-0.78,1.11-1.2c0.21,0.3,0.36,0.61,0.49,0.93
		c-1.67,1.49-3.35,3-4.95,4.58c-0.06,0.09-0.18,0.19-0.29,0.3C62.88,15.17,62.88,15.03,62.87,14.88z M64.26,5.75
		c-0.33,0.37-0.6,0.81-0.89,1.23c0.07-0.69,0.13-1.38,0.18-2.07C63.77,5.2,64.01,5.48,64.26,5.75z M63.03,5.25
		c-0.06,0.67-0.12,1.34-0.19,2.02c-0.22-0.31-0.44-0.62-0.67-0.92c-0.01-0.01-0.03-0.01-0.04-0.02c0-0.01,0.01-0.01,0.01-0.02
		C62.44,5.96,62.73,5.6,63.03,5.25z M60.97,7.64c0.34,0.81,0.83,1.52,1.39,2.19c0.06,0.09,0.14,0.15,0.21,0.17
		c-0.04,0.45-0.07,0.89-0.1,1.34c-0.84-0.86-1.39-1.96-2.06-2.95c-0.03-0.04-0.08-0.05-0.12-0.06C60.52,8.1,60.74,7.87,60.97,7.64z
		 M59.99,8.62c0.01,0.03,0,0.05,0.02,0.08c0.13,0.17,0.24,0.33,0.35,0.54c0.58,0.92,1.17,2.04,2.06,2.7
		c-0.02,0.28-0.03,0.56-0.04,0.83c-0.56-0.44-1.13-0.84-1.66-1.35c-0.59-0.58-1.31-1.08-1.73-1.8C59.32,9.29,59.66,8.95,59.99,8.62z
		 M50.35,7.73c-0.04,0.28-0.07,0.56-0.1,0.86c-0.05-0.07-0.1-0.13-0.13-0.19c-0.27-0.43-0.56-0.87-0.81-1.31
		c0.13-0.11,0.25-0.22,0.37-0.33C49.88,7.11,50.13,7.53,50.35,7.73z M52.06,6.27c0.12,0.14,0.25,0.28,0.38,0.42
		c-0.22,0.19-0.4,0.48-0.6,0.64c-0.35,0.35-0.71,0.75-1.05,1.12c-0.01,0.01-0.02,0.02-0.02,0.03c0.04-0.32,0.08-0.64,0.12-0.95
		C51.3,7.12,51.66,6.67,52.06,6.27z M53.28,7.55c-0.16,0.11-0.27,0.33-0.42,0.45c-0.74,0.71-1.53,1.42-2.26,2.15
		c0.02-0.3,0.05-0.59,0.08-0.88c0.73-0.7,1.39-1.51,2.13-2.18C52.96,7.23,53.12,7.39,53.28,7.55z M54.75,9.09
		c-0.02,0.02-0.05,0.04-0.07,0.06c-1.41,1.24-2.87,2.45-4.22,3.76c0.01-0.19,0.01-0.37,0.02-0.56c0.08-0.04,0.15-0.11,0.2-0.19
		c1.06-1.31,2.47-2.35,3.66-3.55C54.48,8.77,54.62,8.93,54.75,9.09z M50.06,9.18c0.03,0.04,0.07,0.06,0.12,0.07
		c-0.03,0.27-0.05,0.54-0.07,0.81c-0.67-0.64-1.21-1.51-1.9-2.11c0.23-0.18,0.47-0.36,0.7-0.54C49.19,8.03,49.93,8.89,50.06,9.18z
		 M47.86,8.27c0.73,0.81,1.41,1.68,2.19,2.45c-0.02,0.2-0.03,0.4-0.04,0.61c-0.56-0.59-1.55-1.37-1.7-1.53
		c-0.4-0.33-0.78-0.66-1.14-1.04c0.22-0.18,0.44-0.35,0.66-0.53C47.84,8.25,47.85,8.26,47.86,8.27z M50.44,13.61
		c1.46-1.45,3.06-2.77,4.61-4.13c0.08,0.12,0.16,0.24,0.24,0.36c-1.03,0.72-1.98,1.63-2.92,2.49c-0.62,0.64-1.3,1.23-1.94,1.84
		C50.43,13.99,50.44,13.8,50.44,13.61z M54,8.25c-0.01,0.02-0.03,0.03-0.04,0.05c-1.13,1.1-2.41,2.1-3.45,3.31
		c0.01-0.27,0.03-0.54,0.05-0.8c0.05-0.02,0.1-0.03,0.13-0.07c0.94-0.95,2-1.81,2.91-2.81c0.01-0.01,0.02-0.02,0.03-0.04
		C53.75,8.01,53.88,8.13,54,8.25z M51.62,5.72c0.04,0.06,0.09,0.11,0.13,0.17c-0.24,0.24-0.48,0.48-0.71,0.74
		c0.08-0.44,0.17-0.88,0.28-1.32C51.42,5.44,51.51,5.59,51.62,5.72z M50.56,5.89c0.03-0.05,0.08-0.11,0.14-0.16
		c-0.09,0.36-0.17,0.81-0.25,1.31c-0.12-0.21-0.26-0.42-0.4-0.63C50.22,6.25,50.4,6.08,50.56,5.89z M46.8,9.1
		c1,1.03,2.2,1.86,3.17,2.92c-0.01,0.23-0.02,0.46-0.03,0.68c-0.76-0.66-1.54-1.33-2.35-1.95c-0.46-0.36-0.87-0.77-1.26-1.21
		C46.48,9.38,46.64,9.24,46.8,9.1z M45.98,9.9c0.77,1.02,3.43,2.84,3.93,3.41c-0.01,0.29-0.01,0.56-0.02,0.83
		c-0.33-0.2-0.63-0.43-0.94-0.69c-1.18-0.94-2.23-2.12-3.38-3.05C45.7,10.23,45.83,10.06,45.98,9.9z M44.85,11.58
		c0.12-0.25,0.25-0.5,0.39-0.73c0.02-0.03,0.04-0.05,0.06-0.08c1.48,1.36,2.87,2.89,4.6,3.95c0,0.3,0.01,0.58,0.03,0.8
		c-0.85-0.9-3.4-2.54-3.61-2.76C46.07,12.65,45.36,11.89,44.85,11.58z M54.86,11.56c-1.46,1.27-3.1,2.35-4.44,3.75c0,0,0,0,0,0
		c0-0.15,0-0.3,0.01-0.44c0,0,0.01,0,0.01,0c0.46-0.48,0.97-0.91,1.47-1.37c1.07-1.2,2.51-2.16,3.59-3.29
		c0.1,0.19,0.18,0.39,0.26,0.59C55.45,11.03,55.18,11.34,54.86,11.56z M56.8,12.99c0.08-0.29,0.19-0.57,0.32-0.84
		c0.39,0.38,1.04,0.77,1.21,0.94c1.34,1.03,2.56,2.24,4.08,3.03c0.03,0.14,0.01,0.33-0.01,0.52C60.54,15.43,58.78,14.01,56.8,12.99z
		 M65.32,14.26c-0.79,0.84-1.62,1.62-2.41,2.45c0-0.22-0.01-0.43-0.01-0.65c1.13-1.29,2.43-2.38,3.68-3.57
		c0.5-0.53,1.21-0.98,1.72-1.54c0.05,0.17,0.09,0.35,0.12,0.53C67.59,11.91,65.52,14.04,65.32,14.26z M72.58,13.67
		c-0.94-0.64-1.66-1.63-2.57-2.28c0.1-0.17,0.2-0.33,0.31-0.5c0.13,0.13,0.28,0.25,0.36,0.33c1.2,1.47,2.92,2.35,4.44,3.45
		c0,0.24,0.01,0.48,0.01,0.73C74.36,14.77,72.75,13.87,72.58,13.67z M75.64,15.5c0-0.17-0.01-0.34-0.01-0.51
		c0.36-0.19,0.71-0.82,1-1.01c1.34-1.31,2.72-2.68,4.11-3.94c0.1,0.2,0.19,0.4,0.27,0.61C79.35,12.36,77.35,13.82,75.64,15.5z
		 M88.03,7.75c-0.04,0.28-0.07,0.56-0.1,0.86c-0.05-0.07-0.1-0.13-0.13-0.19c-0.27-0.43-0.56-0.87-0.81-1.31
		c0.13-0.11,0.25-0.22,0.37-0.33C87.55,7.13,87.81,7.55,88.03,7.75z M89.74,6.3c0.12,0.14,0.25,0.28,0.38,0.42
		c-0.22,0.19-0.4,0.48-0.6,0.64c-0.35,0.35-0.71,0.75-1.05,1.12c-0.01,0.01-0.02,0.02-0.02,0.03c0.04-0.32,0.08-0.64,0.12-0.95
		C88.97,7.15,89.33,6.69,89.74,6.3z M90.96,7.57c-0.16,0.11-0.27,0.33-0.42,0.45c-0.74,0.71-1.53,1.42-2.26,2.15
		c0.02-0.3,0.05-0.59,0.08-0.88c0.73-0.7,1.39-1.51,2.13-2.18C90.64,7.26,90.8,7.41,90.96,7.57z M92.42,9.11
		c-0.02,0.02-0.05,0.04-0.07,0.06c-1.41,1.24-2.87,2.45-4.22,3.76c0.01-0.19,0.01-0.37,0.02-0.56c0.08-0.04,0.15-0.11,0.2-0.19
		c1.06-1.31,2.47-2.35,3.66-3.55C92.15,8.8,92.29,8.95,92.42,9.11z M87.73,9.2c0.03,0.04,0.07,0.06,0.12,0.07
		c-0.03,0.27-0.05,0.54-0.07,0.81c-0.67-0.64-1.21-1.51-1.9-2.11c0.23-0.18,0.47-0.36,0.7-0.54C86.86,8.05,87.61,8.92,87.73,9.2z
		 M85.54,8.3c0.73,0.81,1.41,1.68,2.19,2.45c-0.02,0.2-0.03,0.4-0.04,0.61c-0.56-0.59-1.55-1.37-1.7-1.53
		c-0.4-0.33-0.78-0.66-1.14-1.04c0.22-0.18,0.44-0.35,0.66-0.53C85.52,8.28,85.52,8.29,85.54,8.3z M88.12,13.64
		c1.46-1.45,3.06-2.77,4.61-4.13c0.08,0.12,0.16,0.24,0.24,0.36c-1.03,0.72-1.98,1.63-2.92,2.49c-0.62,0.64-1.3,1.22-1.94,1.84
		C88.11,14.01,88.11,13.83,88.12,13.64z M91.67,8.28c-0.01,0.02-0.03,0.03-0.04,0.05c-1.13,1.1-2.41,2.1-3.45,3.31
		c0.01-0.27,0.03-0.54,0.05-0.8c0.05-0.02,0.1-0.03,0.13-0.07c0.94-0.95,2-1.81,2.91-2.81c0.01-0.01,0.02-0.02,0.03-0.04
		C91.43,8.04,91.55,8.16,91.67,8.28z M89.29,5.75c0.04,0.06,0.09,0.11,0.13,0.17c-0.24,0.24-0.48,0.48-0.71,0.74
		c0.08-0.44,0.17-0.88,0.28-1.32C89.09,5.47,89.19,5.61,89.29,5.75z M88.23,5.92c0.03-0.05,0.08-0.11,0.14-0.16
		c-0.09,0.36-0.17,0.81-0.25,1.31c-0.12-0.21-0.26-0.42-0.4-0.63C87.9,6.27,88.07,6.1,88.23,5.92z M84.47,9.12
		c1,1.03,2.2,1.86,3.17,2.92c-0.01,0.23-0.02,0.46-0.03,0.68c-0.76-0.66-1.54-1.33-2.35-1.95C84.79,10.41,84.38,10,84,9.56
		C84.15,9.41,84.31,9.26,84.47,9.12z M83.65,9.93c0.77,1.02,3.43,2.84,3.93,3.41c-0.01,0.29-0.01,0.56-0.02,0.83
		c-0.33-0.2-0.63-0.43-0.94-0.69c-1.18-0.94-2.23-2.12-3.38-3.05C83.37,10.26,83.51,10.09,83.65,9.93z M82.53,11.61
		c0.12-0.25,0.25-0.5,0.39-0.73c0.02-0.03,0.04-0.05,0.06-0.08c1.48,1.36,2.87,2.89,4.6,3.95c0,0.3,0.01,0.58,0.03,0.8
		c-0.85-0.9-3.4-2.54-3.61-2.76C83.75,12.68,83.04,11.91,82.53,11.61z M92.53,11.59c-1.46,1.27-3.1,2.35-4.44,3.75c0,0,0,0,0,0
		c0-0.15,0-0.3,0.01-0.44c0,0,0.01,0,0.01,0c0.46-0.48,0.97-0.91,1.47-1.37c1.07-1.2,2.51-2.16,3.59-3.29
		c0.1,0.19,0.18,0.39,0.26,0.59C93.13,11.05,92.85,11.37,92.53,11.59z"/>
	<path d="M91.27,7.96c0.01-0.01,0.01-0.01,0.01-0.02C91.28,7.95,91.28,7.95,91.27,7.96C91.27,7.96,91.27,7.96,91.27,7.96
		C91.27,7.96,91.27,7.96,91.27,7.96z"/>
</g>
</svg>
