<?xml version="1.0" encoding="utf-8"?>
<!-- Generator: Adobe Illustrator 23.0.0, SVG Export Plug-In . SVG Version: 6.00 Build 0)  -->
<svg version="1.1" id="Слой_1" xmlns="http://www.w3.org/2000/svg" xmlns:xlink="http://www.w3.org/1999/xlink" x="0px" y="0px"
	 viewBox="0 0 150 90" style="enable-background:new 0 0 150 90;" xml:space="preserve">
<g>
	<path d="M26.37,65.24c-0.45-0.08-0.9-0.14-1.35-0.18c-0.66-0.07-1.31-0.1-1.98-0.07c-2.14,0.08-4.19,0.84-5.6,2.5
		c-0.23,0.34,0.11,0.66,0.33,0.88l0.85,0.9c0.36,0.39,0.72,0.77,1.09,1.15c0.4,0.37,0.81,0.74,1.23,1.07l0.15,0.11
		c0.01,0.02,0.03,0.02,0.05,0.03c0.77,0.6,1.59,1.13,2.5,1.49c0.48,0.19,0.98,0.34,1.5,0.43c0.26,0.04,0.53,0.07,0.79,0.09
		c0.09,0.01,0.22,0.04,0.29-0.03c0.07-0.07,0.06-0.21-0.02-0.28c-0.09-0.08-0.23-0.07-0.33-0.08c-0.1-0.01-0.2-0.03-0.3-0.05
		c-0.65-0.11-1.27-0.32-1.87-0.58c0.41-0.32,0.98-0.99,1.45-1.6c0.53-0.6,0.99-1.14,1.06-1.29c0.04-0.06,0.09-0.11,0.12-0.17
		c0.04-0.03,0.08-0.05,0.09-0.1c0.02-0.1-0.02-0.16-0.09-0.21c-0.31-1.14-0.85-2.24-1.2-3.45c-0.04-0.09-0.04-0.2-0.06-0.31
		c0.28,0.03,0.57,0.06,0.85,0.11c0.36,0.06,0.71,0.23,1.08,0.18l0.04-0.01c0.17-0.03,0.39-0.15,0.2-0.3
		C27.06,65.33,26.63,65.29,26.37,65.24z M19.96,66.2c0.61-0.29,1.26-0.49,1.92-0.61c0.4,1.1,0.99,2.11,1.61,3.06l-2.24-0.39
		c-0.24-0.36-0.76-0.7-0.95-1.02c-0.22-0.17-0.39-0.68-0.64-0.87C19.76,66.32,19.86,66.25,19.96,66.2z M18.01,67.61
		c0.38-0.39,0.8-0.72,1.25-1c0.01,0.02,0,0.04,0.01,0.06c0.34,0.53,0.75,1,1.16,1.45c-0.79-0.15-1.57-0.3-2.35-0.49
		C18.06,67.61,18.04,67.62,18.01,67.61z M19.71,69.24c-0.08,0.05-0.19,0.11-0.27,0.18l-0.48-0.51c-0.05-0.06-0.4-0.43-0.68-0.74
		c0.75,0.24,1.6,0.33,2.41,0.48C20.35,68.83,20.02,69.03,19.71,69.24z M20.06,70.06l-0.29-0.3c0.49-0.35,1.1-0.62,1.57-0.99l0-0.01
		l2.25,0.35c-0.74,0.67-1.63,1.32-2.33,2.02C20.84,70.8,20.41,70.44,20.06,70.06z M24.51,71c-0.42,0.49-0.87,0.97-1.3,1.4
		c-0.21-0.11-0.41-0.22-0.62-0.34c-0.32-0.19-0.62-0.41-0.92-0.64c0.74-0.73,1.66-1.43,2.46-2.14c0.03-0.02,0.04-0.04,0.06-0.06
		c0.53,0.09,1.05,0.19,1.57,0.32C25.42,70.03,24.95,70.52,24.51,71z M25.78,69.08c-0.05-0.01-0.1-0.02-0.14-0.04l-1.5-0.28
		c-0.47-0.72-0.98-1.44-1.32-2.26c-0.16-0.32-0.33-0.63-0.44-0.98c0.49-0.06,1-0.1,1.51-0.09c0.24,0,0.48,0.02,0.72,0.04l0,0.01
		C24.83,66.73,25.42,67.91,25.78,69.08z"/>
	<path d="M31.36,53.53c-3.06-1.65-7.11-3.17-10.15-0.48c-0.36,0.21-0.73,0.64-0.47,1.1c0.67,1.71,1.58,3.31,2.74,4.66
		c1.14,1.34,2.55,2.44,4.21,3.22c0.35,0.15,0.47-0.35,0.11-0.42c-0.62-0.31-1.18-0.68-1.73-1.08c1.09-0.45,3.32-2.59,3.71-2.72
		c0.04-0.02,0.07-0.04,0.11-0.07c0.09-0.03,0.12-0.11,0.12-0.2c0.01-0.06,0.01-0.12-0.01-0.18c-0.08-0.49-0.08-0.97-0.09-1.47
		c-0.04-0.85-0.02-1.72,0.01-2.6c0.47,0.21,0.92,0.44,1.35,0.67C31.55,54.06,31.66,53.64,31.36,53.53z M27.02,52.29
		c-0.01,1.33-0.01,2.65,0.19,3.91l-2.57-1.17c-0.03-0.1-0.08-0.19-0.11-0.28c-0.26-0.7-0.51-1.43-0.63-2.2
		c0.02-0.14,0-0.24-0.05-0.32C24.87,52,25.95,52.06,27.02,52.29z M23.38,52.37c-0.01,0.06,0,0.13,0.01,0.21
		c0.09,0.7,0.32,1.47,0.6,2.16c-0.89-0.4-1.78-0.79-2.69-1.12C21.94,53.01,22.64,52.6,23.38,52.37z M21.32,54.15
		c0.86,0.34,1.72,0.7,2.57,1.07c-0.57,0.25-1.24,0.36-1.8,0.66C21.79,55.32,21.54,54.74,21.32,54.15z M22.33,56.33
		c0.04-0.02,0.09-0.05,0.12-0.08c0.64-0.33,1.43-0.38,2.03-0.77l2.8,1.23c-1.08,0.62-2.13,1.35-3.41,1.79
		C23.29,57.84,22.77,57.11,22.33,56.33z M25.66,60.23c-0.52-0.41-1-0.87-1.46-1.36c1.32-0.45,2.53-1.25,3.59-1.93l0-0.01l1.5,0.62
		C28.11,58.39,27.01,59.44,25.66,60.23z M29.14,57.02c-0.48-0.19-0.95-0.4-1.43-0.6c-0.11-1.28-0.27-2.65-0.21-4.01l0,0
		c0.66,0.17,1.31,0.41,1.94,0.68c-0.01,0.03-0.03,0.04-0.03,0.07c-0.04,1.37-0.07,2.71,0.07,4.01L29.14,57.02z"/>
	<path d="M37.47,41.92c-0.62-0.43-1.27-0.83-1.93-1.2c-0.96-0.61-2.11-0.78-3.2-1.13c-0.62-0.11-1.69-0.27-2.62-0.29
		c-0.89,0.01-1.64,0.15-1.62,0.5c-0.08,0.12-0.09,0.31-0.07,0.46c0.18,3.18,1.79,5.74,3.68,8.15c0.35,0.43,0.73,0.84,1.16,1.19
		c0.11,0.09,0.26,0.09,0.34,0c0.07-0.09,0.06-0.24-0.05-0.33c-0.52-0.53-1.02-1.09-1.5-1.69c0.51-0.13,1.19-0.46,1.64-0.55
		c0.86-0.35,1.82-0.45,2.65-0.72c0.17-0.08,0.25-0.25,0.26-0.44c0.09-1.3,0.48-2.44,0.85-3.68c0.23,0.16,0.46,0.32,0.69,0.49
		c0.08,0.06,0.44,0.41,0.72,0.56c0.17,0.09,0.31,0.1,0.33-0.07c0.02-0.13-0.2-0.36-0.29-0.45C38.2,42.43,37.83,42.17,37.47,41.92z
		 M31.18,39.8c0.93,0.08,1.84,0.34,2.71,0.69c0,0.01-0.01,0.02,0,0.04c-0.02,0.57-0.07,1.14-0.14,1.7c-0.08,0.56-0.1,1.16-0.16,1.73
		c-0.79-0.58-1.57-1.18-2.33-1.79c0-0.06,0-0.12-0.01-0.18c-0.12-0.72-0.1-1.46-0.06-2.17C31.18,39.82,31.18,39.81,31.18,39.8z
		 M28.56,39.91c0.72-0.14,1.37-0.18,2.12-0.14l-0.01,0.02c-0.01,0.63-0.01,1.33,0.06,1.98c-0.7-0.57-1.38-1.14-2.03-1.76
		C28.67,39.95,28.62,39.92,28.56,39.91L28.56,39.91z M28.6,40.63c0.56,0.58,1.23,1.05,1.87,1.54l0.02,0.01
		c-0.5,0.12-1.05,0.13-1.53,0.3C28.79,41.88,28.67,41.26,28.6,40.63z M29.89,44.86c-0.32-0.63-0.59-1.28-0.81-1.95
		c0.54,0.01,1.5-0.24,1.89-0.36l2.28,1.74c-1.05,0.25-2.11,0.46-3.26,0.58C29.96,44.86,29.93,44.86,29.89,44.86z M31.33,47.16
		c-0.45-0.6-0.84-1.2-1.2-1.85c1.24-0.08,2.48-0.36,3.63-0.63l0.01,0l1.73,1.27C34.13,46.26,32.75,46.7,31.33,47.16z M36.63,41.95
		c-0.39,1.2-0.73,2.37-0.87,3.64l-1.73-1.29c0.08-1.22,0.29-2.39,0.34-3.61c0.24,0.11,0.48,0.22,0.71,0.33
		c0.54,0.26,1.06,0.57,1.57,0.9L36.63,41.95z"/>
	<path d="M47.11,33.26c-0.42-0.51-0.85-1-1.33-1.45c-0.77-0.71-1.67-1.35-2.63-1.77c-0.95-0.4-1.98-0.6-3.03-0.51
		c-0.39,0.07-0.38,0.54-0.37,0.85l-0.02,1.23c-0.01,1.07-0.06,2.07,0.07,3.15l0.03,0.18c0,0.02,0.01,0.04,0.01,0.06
		c0.13,0.97,0.34,1.92,0.73,2.81c0.21,0.48,0.46,0.93,0.76,1.36c0.15,0.22,0.32,0.43,0.5,0.63c0.06,0.07,0.13,0.18,0.23,0.19
		c0.1,0,0.19-0.1,0.18-0.2c-0.01-0.11-0.11-0.21-0.18-0.29c-0.06-0.08-0.12-0.16-0.18-0.24c-0.38-0.54-0.68-1.12-0.92-1.73
		c0.52,0.08,1.33-0.03,2.14-0.04c0.79-0.03,1.48-0.09,1.63-0.14c0.07-0.01,0.14-0.01,0.2-0.03c0.04,0.01,0.09,0.02,0.13,0
		c0.08-0.06,0.09-0.13,0.09-0.21c0.28-0.51,0.51-1.05,0.75-1.6c0.23-0.56,0.47-1.12,0.81-1.61c0.03-0.09,0.11-0.17,0.17-0.26
		c0.18,0.22,0.35,0.44,0.52,0.67c0.21,0.29,0.34,0.66,0.63,0.89l0.03,0.03c0.15,0.1,0.38,0.17,0.34-0.06
		c-0.04-0.26-0.3-0.6-0.45-0.81C47.68,33.97,47.4,33.61,47.11,33.26z M42.28,31.39c-0.04-0.28,0.19-0.75,0.14-1.07
		c0.11,0.03,0.23,0.05,0.34,0.09c0.63,0.23,1.21,0.55,1.78,0.96c-0.51,1.01-0.76,2.16-0.98,3.26l-1.31-1.86
		C42.32,32.35,42.19,31.75,42.28,31.39z M41.98,30.21c-0.01,0.02-0.03,0.03-0.03,0.05c-0.12,0.61-0.15,1.23-0.17,1.84
		c-0.45-0.66-0.9-1.33-1.31-2.02c-0.01-0.03-0.03-0.04-0.04-0.06C40.95,30.02,41.47,30.09,41.98,30.21z M40.21,31.59
		c0-0.08,0.01-0.58,0.02-1c0.36,0.7,0.9,1.37,1.36,2.05c-0.36-0.11-0.73-0.2-1.08-0.28c-0.09-0.02-0.21-0.06-0.31-0.07L40.21,31.59z
		 M40.18,33.19l0-0.41c0.58,0.1,1.19,0.35,1.78,0.43l0.01-0.01l1.34,1.85c-0.99-0.07-2-0.19-3.05-0.29
		C40.21,34.23,40.19,33.71,40.18,33.19z M40.75,37.01c-0.07-0.22-0.14-0.45-0.2-0.67c-0.09-0.36-0.15-0.72-0.21-1.09
		c1.06,0.07,2.18,0.24,3.23,0.3c0.03,0.01,0.06,0,0.09,0c0.31,0.44,0.6,0.88,0.88,1.34C43.38,37.04,41.93,36.99,40.75,37.01z
		 M46.52,33.25c-0.18,0.25-0.35,0.51-0.5,0.77c-0.14,0.28-0.27,0.57-0.4,0.86c-0.25,0.57-0.49,1.15-0.76,1.69
		c-0.03-0.04-0.06-0.09-0.07-0.13l-0.86-1.26c0.16-0.84,0.3-1.7,0.61-2.52c0.1-0.35,0.2-0.67,0.38-0.96
		c0.4,0.32,0.78,0.66,1.13,1.02C46.22,32.89,46.38,33.07,46.52,33.25L46.52,33.25z"/>
	<path d="M52.64,22.19c-0.38-0.08-0.97-0.1-1.1,0.4c-1.4,3.37-1.73,7.09-0.5,10.42c0.14,0.34,0.59,0.13,0.38-0.18
		c-0.21-0.64-0.37-1.31-0.48-1.98c1.07,0.45,4.08,0.5,4.44,0.69c0.04,0.02,0.08,0.02,0.12,0.03c0.08,0.05,0.17,0.02,0.23-0.04
		c0.05-0.03,0.09-0.06,0.12-0.12c0.28-0.39,0.6-0.75,0.93-1.11c0.55-0.64,1.15-1.24,1.77-1.85c0.18,0.48,0.35,0.95,0.49,1.42
		c0.14,0.3,0.5,0.08,0.37-0.21C58.4,26.34,56.59,22.41,52.64,22.19z M55.03,23.46c0.88,0.56,1.6,1.35,2.19,2.27
		c-0.91,0.93-1.8,1.88-2.52,2.91l-1-2.64c0.04-0.09,0.08-0.19,0.11-0.28c0.29-0.68,0.61-1.37,1.05-2
		C54.96,23.64,55.01,23.55,55.03,23.46z M54.62,23.22c-0.05,0.04-0.09,0.09-0.13,0.16c-0.41,0.56-0.77,1.27-1.05,1.95
		c-0.35-0.91-0.71-1.82-1.13-2.69C53.17,22.67,53.94,22.87,54.62,23.22z M51.95,22.99c0.38,0.85,0.73,1.71,1.07,2.57
		c-0.57-0.24-1.11-0.63-1.71-0.81C51.49,24.16,51.7,23.56,51.95,22.99z M51.18,25.25c0.05,0.02,0.09,0.03,0.14,0.03
		c0.67,0.22,1.26,0.74,1.94,0.89l1.13,2.84c-1.18-0.32-2.4-0.54-3.61-1.14C50.83,26.99,50.96,26.11,51.18,25.25z M50.86,30.35
		c-0.08-0.66-0.11-1.32-0.1-1.99c1.23,0.61,2.62,0.89,3.82,1.17l0-0.01l0.62,1.5C53.83,30.79,52.34,30.75,50.86,30.35z M58.31,28.02
		c-0.96,0.94-1.88,1.88-2.68,2.89l-0.14-0.34c-0.21-0.47-0.4-0.95-0.59-1.43c0.8-0.97,1.61-2.07,2.57-2.99l0,0
		c0.34,0.59,0.64,1.21,0.9,1.85C58.36,28.01,58.33,28,58.31,28.02z"/>
	<path d="M68.48,14.8c-0.67-0.49-1.76-0.84-2.27-0.78c-0.55,0.08-1.4,0.9-2.1,1.75c-0.51,0.61-0.99,1.37-1.41,2.23
		c-0.42,0.84-0.76,1.89-1.03,2.91c-0.54,2.07-0.72,4.28-0.52,6.21c-0.46-1.43-0.94-2.87-1.79-4.1c-0.73-1.06-1.76-1.98-2.88-2.6
		c-1.1-0.61-2.37-1.19-3.68-1.48c-0.48-0.11-1.49-0.37-1.92,0.01c-3.55,3.53-3.7,8.08-2.51,12.41c-1.16-1.64-3.21-3.26-5.34-4.24
		c-2.15-1.03-4.23-1.24-5.21-0.51c-0.22,0.17-0.52,0.77-0.78,1.64c-0.26,0.88-0.52,1.98-0.54,3.31c-0.1,2.61,0.41,5.56,1.86,7.76
		c-1.46-0.99-3.34-1.91-5.26-2.49c-1.93-0.58-3.92-0.81-5.49-0.5c-0.83,0.14-1.92,0.63-2.23,1.05c-0.34,0.45-0.39,1.66-0.31,2.77
		c0.06,0.81,0.24,1.7,0.53,2.62c0.28,0.91,0.76,1.91,1.28,2.84c1.05,1.87,2.45,3.6,3.94,4.84c-1.33-0.69-2.68-1.39-4.16-1.66
		c-1.27-0.23-2.67-0.16-3.88,0.22c-1.23,0.35-2.56,0.85-3.71,1.6c-0.43,0.27-1.35,0.81-1.39,1.39c-0.02,2.56,0.74,4.71,1.96,6.47
		c1.25,1.77,3.08,3.19,4.97,4.31c-1.98-0.34-4.6-0.02-6.82,0.83c-1.14,0.41-2.07,0.97-2.77,1.57c-0.7,0.6-1.17,1.26-1.26,1.88
		c-0.05,0.33,0.27,1.15,0.87,2.16c0.28,0.5,0.69,1.06,1.18,1.62c0.48,0.56,1.02,1.13,1.6,1.67c2.34,2.18,5.41,3.77,8.24,3.48
		c0.27-0.03,0.38-0.26-0.08-0.34c-0.13-0.02-0.29-0.04-0.41-0.04c-0.2,0-0.39-0.02-0.58-0.04c-0.3-0.02-0.6-0.06-0.9-0.11
		c-0.61-0.11-1.2-0.29-1.77-0.52c-1.43-0.58-2.74-1.48-3.92-2.54c-0.52-0.47-1.02-0.97-1.5-1.51c-0.24-0.27-0.47-0.55-0.7-0.83
		c-0.21-0.28-0.4-0.58-0.59-0.88c-0.26-0.41-0.5-0.84-0.71-1.3c-0.1-0.22-0.25-0.5-0.24-0.76c0.04-0.83,1.46-1.95,3.29-2.76
		c1.94-0.8,4.28-1.27,6.07-1.18c0.21,0.01,0.41,0.04,0.61,0.08c0.72,0.15,1.49,0.29,2.21,0.5l0.7,0.34
		c0.29,0.22,0.59,0.02,0.52-0.17c0.01-0.08-0.02-0.17-0.11-0.22c-0.29-0.15-0.6-0.27-0.91-0.38c-1.31-0.7-2.64-1.45-3.86-2.35
		c-0.61-0.45-1.19-0.94-1.72-1.48c-0.51-0.54-0.95-1.12-1.33-1.77c-0.9-1.6-1.41-3.57-1.53-5.57c-0.01-0.06,0.01-0.12,0.08-0.16
		c0.63-0.51,1.14-1.05,1.85-1.42c1.49-0.77,3.23-1.25,4.79-1.41c2.69-0.21,5.05,1.31,7.29,2.49c0.1,0.05,0.21,0.11,0.32,0.12
		c0.06,0,0.12-0.01,0.17-0.05c0.04-0.03,0.06-0.06,0.07-0.11c0.01-0.11-0.12-0.2-0.24-0.27c-0.17-0.18-0.47-0.41-0.58-0.52
		c-1.57-1.18-3.12-3.08-4.3-5.19c-0.29-0.52-0.56-1.06-0.81-1.59c-0.22-0.52-0.42-1.04-0.58-1.54c-0.33-1.01-0.54-1.97-0.62-2.78
		c-0.09-0.9-0.01-1.6,0.23-1.96c0.3-0.41,0.87-0.71,1.74-0.81c5.04-0.7,10,2.39,11.89,3.93c0.2,0.16,0.64,0.64,0.9,0.45
		c0.2-0.18-0.08-0.41-0.23-0.57c-0.16-0.16-0.34-0.32-0.54-0.49l-0.09-0.1c-0.2-0.23-0.39-0.47-0.56-0.72
		c-0.35-0.51-0.64-1.05-0.88-1.62c-0.61-1.42-0.9-2.97-1-4.55c-0.04-0.7-0.05-1.4-0.02-2.11c0.04-0.7,0.16-1.37,0.31-2.06
		c0.1-0.47,0.22-0.94,0.39-1.41c0.08-0.22,0.17-0.53,0.35-0.7c0.29-0.27,0.88-0.36,1.63-0.28c0.74,0.08,1.64,0.31,2.6,0.74
		c1.9,0.82,3.86,2.14,5.05,3.47c0.14,0.15,0.26,0.32,0.37,0.49c0.4,0.61,0.85,1.26,1.2,1.92l0.26,0.73c0.05,0.36,0.4,0.43,0.48,0.25
		c0.06-0.05,0.1-0.13,0.07-0.23c-0.1-0.31-0.24-0.61-0.38-0.91c-0.87-2.84-1.73-5.92-1.01-8.79c0.23-0.89,0.58-1.76,1.04-2.61
		c0.47-0.83,1-1.71,1.68-2.37c0.04-0.05,0.09-0.08,0.17-0.06c0.79,0.08,1.51,0.06,2.26,0.3c1.57,0.51,3.1,1.35,4.32,2.4
		c2.03,1.73,2.64,4.48,3.42,6.89c0.03,0.11,0.07,0.23,0.15,0.31c0.04,0.05,0.1,0.08,0.15,0.09c0.04,0.01,0.09,0,0.12-0.03
		c0.08-0.08,0.05-0.23,0.02-0.36c0-0.24-0.05-0.62-0.05-0.78c-0.3-1.94-0.09-4.38,0.51-6.7c0.15-0.58,0.32-1.15,0.52-1.7
		c0.2-0.52,0.41-1.03,0.64-1.5c0.46-0.95,0.96-1.78,1.45-2.4c0.55-0.7,1.08-1.15,1.49-1.23c0.49-0.1,1.09,0.15,1.76,0.61
		c4,3.04,5.38,8.77,5.66,11.15c0.03,0.25,0.01,0.9,0.33,0.93c0.26-0.01,0.22-0.37,0.23-0.59c-0.02-1.57-0.58-3.99-1.61-6.31
		C71.64,18.09,70.12,15.9,68.48,14.8z"/>
	<path d="M71.58,25.72c-0.14-0.74-0.32-1.48-0.53-2.21c-0.26-1.11-0.95-2.04-1.47-3.05c-0.35-0.5-1-1.42-1.63-2.02
		c-0.63-0.62-1.25-1.05-1.47-0.78c-0.14,0.03-0.28,0.16-0.36,0.27c-2.03,2.38-2.65,5.33-2.96,8.37c-0.05,0.55-0.06,1.11,0,1.67
		c0.02,0.14,0.12,0.24,0.24,0.24c0.11-0.01,0.2-0.13,0.19-0.27c-0.01-0.74,0.03-1.5,0.09-2.26c0.44,0.27,1.15,0.52,1.52,0.77
		c0.84,0.36,1.58,0.96,2.35,1.36c0.17,0.06,0.34-0.01,0.48-0.13c0.48-0.39,0.97-0.82,1.49-1.13c0.52-0.31,1.05-0.62,1.61-0.92
		c0.05,0.28,0.1,0.55,0.15,0.83c0.01,0.09,0.03,0.61,0.13,0.91c0.06,0.18,0.14,0.29,0.28,0.19c0.1-0.08,0.11-0.4,0.1-0.53
		C71.74,26.59,71.66,26.15,71.58,25.72z M66.7,18.05c0.6,0.39,1.08,0.86,1.58,1.37l-0.02,0.01c-0.43,0.48-0.9,0.95-1.3,1.47
		c-0.1-0.89-0.19-1.78-0.22-2.68C66.75,18.16,66.74,18.1,66.7,18.05L66.7,18.05z M66.24,18.59c0,0.81,0.15,1.61,0.27,2.41l0,0.02
		c-0.43-0.27-0.82-0.65-1.27-0.86C65.53,19.61,65.87,19.09,66.24,18.59z M65.04,20.55c0.37,0.39,1.21,0.88,1.56,1.07l0.41,2.84
		c-0.9-0.56-1.79-1.16-2.67-1.88c-0.02-0.03-0.04-0.06-0.06-0.08C64.48,21.83,64.73,21.18,65.04,20.55z M63.72,25.15
		c0.09-0.74,0.23-1.44,0.42-2.15c0.92,0.82,1.98,1.49,2.97,2.1l0.01,0l0.35,2.11C66.3,26.47,65.03,25.81,63.72,25.15z M67.47,24.46
		c-0.15-0.97-0.3-1.94-0.42-2.91c0.04-0.04,0.08-0.09,0.11-0.13c0.4-0.6,0.93-1.08,1.43-1.61c0.01-0.01,0.01-0.02,0.02-0.03
		c0.6,0.71,1.06,1.54,1.43,2.4c-0.01,0.01-0.02,0.01-0.03,0.03c-0.4,0.4-0.83,0.75-1.25,1.11L67.47,24.46z M70.97,25.15
		c-0.54,0.28-1.07,0.58-1.59,0.9c-0.51,0.32-1,0.74-1.49,1.11l-0.33-2.13c0.45-0.38,0.9-0.78,1.35-1.19
		c0.45-0.36,0.9-0.75,1.33-1.16c0.09,0.25,0.19,0.49,0.28,0.73c0.2,0.57,0.36,1.15,0.49,1.74L70.97,25.15z"/>
	<path d="M82.77,19.17c-0.34-0.23-0.66,0.11-0.88,0.33l-0.9,0.85c-0.39,0.36-0.77,0.72-1.15,1.09c-0.37,0.4-0.74,0.81-1.07,1.23
		l-0.11,0.15c-0.02,0.01-0.02,0.03-0.03,0.05c-0.6,0.77-1.13,1.59-1.49,2.5c-0.19,0.48-0.34,0.98-0.43,1.5
		c-0.04,0.26-0.07,0.53-0.09,0.79c-0.01,0.09-0.04,0.22,0.03,0.29c0.07,0.07,0.21,0.06,0.28-0.02C77,27.84,76.99,27.7,77,27.59
		c0.01-0.1,0.03-0.2,0.05-0.3c0.11-0.65,0.32-1.27,0.58-1.87c0.32,0.41,0.99,0.98,1.6,1.45c0.6,0.53,1.14,0.99,1.29,1.06
		c0.06,0.04,0.11,0.09,0.17,0.12c0.03,0.04,0.05,0.08,0.1,0.09c0.1,0.02,0.16-0.02,0.21-0.09c1.14-0.31,2.24-0.85,3.45-1.2
		c0.09-0.04,0.2-0.04,0.31-0.06c-0.03,0.28-0.06,0.57-0.11,0.85c-0.06,0.36-0.23,0.71-0.18,1.08l0.01,0.04
		c0.03,0.17,0.15,0.39,0.3,0.2c0.16-0.21,0.21-0.64,0.26-0.89c0.08-0.45,0.14-0.9,0.18-1.35c0.07-0.66,0.1-1.31,0.07-1.98
		C85.19,22.63,84.44,20.58,82.77,19.17z M81.36,20.68c0.06-0.05,0.43-0.4,0.74-0.68c-0.24,0.75-0.33,1.6-0.48,2.41
		c-0.18-0.33-0.39-0.66-0.59-0.97c-0.05-0.08-0.11-0.19-0.18-0.27L81.36,20.68z M80.72,27.49c-0.48-0.35-0.97-0.81-1.46-1.26
		c-0.49-0.42-0.97-0.87-1.4-1.3c0.11-0.21,0.22-0.41,0.34-0.62c0.19-0.32,0.41-0.62,0.64-0.92c0.73,0.74,1.43,1.66,2.14,2.46
		c0.02,0.03,0.04,0.04,0.06,0.06C80.95,26.45,80.84,26.97,80.72,27.49z M79.12,22.99c0.34-0.43,0.7-0.85,1.08-1.21l0.3-0.29
		c0.35,0.49,0.62,1.1,0.99,1.57l0.01,0l-0.35,2.25C80.46,24.58,79.82,23.69,79.12,22.99z M84.83,25.6c0,0.24-0.02,0.48-0.04,0.72
		l-0.01,0c-1.26,0.24-2.43,0.83-3.6,1.19c0.01-0.05,0.02-0.1,0.04-0.14l0.28-1.5c0.72-0.47,1.44-0.98,2.26-1.32
		c0.32-0.16,0.63-0.33,0.98-0.44C84.8,24.58,84.84,25.09,84.83,25.6z M84.06,21.68c0.29,0.61,0.49,1.26,0.61,1.92
		c-1.1,0.4-2.11,0.99-3.06,1.61L82,22.97c0.36-0.24,0.7-0.76,1.02-0.95c0.17-0.22,0.68-0.39,0.87-0.64
		C83.94,21.48,84.01,21.58,84.06,21.68z M83.59,20.99c-0.53,0.34-1,0.75-1.45,1.16c0.15-0.79,0.3-1.57,0.49-2.35
		c0.01-0.02,0.01-0.05,0.01-0.07c0.39,0.38,0.72,0.8,1,1.25C83.63,20.99,83.61,20.98,83.59,20.99z"/>
	<path d="M97.21,22.94c-0.21-0.36-0.64-0.73-1.1-0.47c-1.71,0.67-3.31,1.58-4.66,2.74c-1.34,1.14-2.44,2.55-3.22,4.21
		c-0.15,0.35,0.35,0.47,0.42,0.11c0.31-0.62,0.68-1.18,1.08-1.73c0.45,1.09,2.59,3.32,2.72,3.71c0.02,0.04,0.04,0.07,0.07,0.11
		c0.03,0.09,0.11,0.12,0.2,0.12c0.06,0.01,0.12,0.01,0.18-0.01c0.49-0.08,0.97-0.08,1.47-0.09c0.85-0.04,1.72-0.02,2.6,0.01
		c-0.21,0.47-0.44,0.92-0.67,1.35c-0.12,0.31,0.3,0.42,0.42,0.12C98.38,30.02,99.9,25.98,97.21,22.94z M96.64,23.02
		c0.61,0.64,1.01,1.34,1.25,2.08c-0.06-0.01-0.13,0-0.21,0.01c-0.7,0.09-1.47,0.32-2.16,0.6C95.93,24.82,96.31,23.93,96.64,23.02z
		 M96.11,23.04c-0.34,0.86-0.7,1.72-1.07,2.57c-0.25-0.57-0.36-1.24-0.66-1.8C94.94,23.51,95.52,23.26,96.11,23.04z M93.93,24.05
		c0.02,0.04,0.05,0.09,0.08,0.12c0.33,0.64,0.38,1.43,0.77,2.03L93.55,29c-0.62-1.08-1.35-2.13-1.79-3.41
		C92.42,25.01,93.15,24.49,93.93,24.05z M92.7,31.01c-0.84-1.18-1.89-2.28-2.67-3.63c0.41-0.52,0.87-1,1.36-1.46
		c0.45,1.32,1.25,2.53,1.93,3.59l0.01,0L92.7,31.01z M97.18,31.17c-0.03-0.01-0.04-0.03-0.07-0.03c-1.37-0.04-2.71-0.07-4.01,0.07
		l0.15-0.34c0.19-0.48,0.4-0.95,0.6-1.43c1.28-0.11,2.65-0.27,4.01-0.21l0,0C97.68,29.88,97.45,30.54,97.18,31.17z M94.06,28.93
		l1.17-2.57c0.1-0.03,0.19-0.08,0.28-0.11c0.7-0.26,1.43-0.51,2.2-0.63c0.14,0.02,0.24,0,0.32-0.05c0.24,1.03,0.18,2.11-0.05,3.18
		C96.64,28.73,95.32,28.73,94.06,28.93z"/>
	<path d="M110.67,34.07c0.11-0.62,0.27-1.69,0.29-2.62c-0.01-0.89-0.15-1.64-0.5-1.62c-0.12-0.08-0.31-0.09-0.46-0.07
		c-3.18,0.18-5.74,1.79-8.15,3.68c-0.43,0.35-0.84,0.73-1.19,1.16c-0.09,0.11-0.09,0.26,0,0.34c0.09,0.07,0.24,0.06,0.33-0.05
		c0.53-0.52,1.09-1.02,1.69-1.5c0.13,0.51,0.46,1.19,0.55,1.64c0.35,0.86,0.45,1.82,0.72,2.65c0.08,0.17,0.25,0.25,0.44,0.26
		c1.3,0.09,2.44,0.48,3.68,0.85c-0.16,0.23-0.32,0.46-0.49,0.69c-0.06,0.08-0.41,0.44-0.56,0.72c-0.09,0.17-0.1,0.31,0.07,0.33
		c0.13,0.02,0.36-0.2,0.45-0.29c0.3-0.32,0.56-0.69,0.81-1.05c0.43-0.62,0.83-1.27,1.2-1.93C110.15,36.31,110.32,35.16,110.67,34.07
		z M109.77,35.61c-0.01,0-0.02-0.01-0.04,0c-0.57-0.02-1.14-0.07-1.7-0.14c-0.56-0.08-1.16-0.1-1.73-0.16
		c0.58-0.79,1.18-1.57,1.79-2.33c0.06,0,0.12,0,0.18-0.01c0.72-0.12,1.46-0.1,2.17-0.06c0.01,0,0.02,0,0.03,0
		C110.38,33.83,110.11,34.74,109.77,35.61z M110.25,30.42c0.05-0.03,0.08-0.09,0.09-0.15l0,0c0.14,0.72,0.18,1.37,0.14,2.12
		l-0.02-0.01c-0.63-0.01-1.33-0.01-1.98,0.06C109.05,31.75,109.63,31.07,110.25,30.42z M109.63,30.32
		c-0.58,0.56-1.05,1.23-1.54,1.87l-0.01,0.02c-0.12-0.5-0.13-1.05-0.3-1.53C108.38,30.51,109,30.39,109.63,30.32z M105.4,31.62
		c0.63-0.32,1.28-0.59,1.95-0.81c-0.01,0.54,0.24,1.5,0.36,1.89l-1.74,2.28c-0.25-1.05-0.46-2.11-0.58-3.26
		C105.4,31.68,105.4,31.65,105.4,31.62z M104.32,37.22c-0.32-1.37-0.76-2.75-1.22-4.17c0.6-0.45,1.2-0.84,1.85-1.2
		c0.08,1.24,0.36,2.48,0.63,3.63l0,0.01L104.32,37.22z M108.34,38.37l-0.04-0.02c-1.2-0.39-2.37-0.73-3.64-0.87l1.29-1.73
		c1.22,0.08,2.39,0.29,3.61,0.34c-0.11,0.24-0.22,0.48-0.33,0.71C108.98,37.34,108.67,37.86,108.34,38.37z"/>
	<path d="M117,48.83c0.51-0.42,1-0.85,1.45-1.33c0.71-0.77,1.35-1.67,1.77-2.63c0.4-0.95,0.6-1.98,0.51-3.03
		c-0.07-0.39-0.54-0.38-0.85-0.37l-1.23-0.02c-1.07-0.01-2.07-0.06-3.15,0.07l-0.18,0.03c-0.02,0-0.04,0.01-0.06,0.01
		c-0.97,0.13-1.92,0.34-2.81,0.73c-0.48,0.21-0.93,0.46-1.36,0.76c-0.22,0.15-0.43,0.32-0.63,0.5c-0.07,0.06-0.18,0.13-0.19,0.23
		c0,0.1,0.1,0.19,0.2,0.18c0.11-0.01,0.21-0.11,0.29-0.18c0.08-0.06,0.16-0.12,0.24-0.18c0.54-0.38,1.12-0.68,1.73-0.92
		c-0.08,0.52,0.03,1.33,0.04,2.14c0.03,0.79,0.09,1.48,0.14,1.63c0.01,0.07,0.01,0.14,0.03,0.2c-0.01,0.04-0.02,0.09,0,0.13
		c0.06,0.08,0.13,0.09,0.21,0.09c0.51,0.28,1.05,0.51,1.6,0.75c0.56,0.23,1.12,0.47,1.61,0.81c0.09,0.03,0.17,0.11,0.26,0.17
		c-0.22,0.18-0.44,0.35-0.67,0.52c-0.29,0.21-0.66,0.34-0.89,0.63l-0.03,0.03c-0.1,0.15-0.17,0.38,0.06,0.34
		c0.26-0.04,0.6-0.3,0.81-0.45C116.29,49.4,116.65,49.12,117,48.83z M120.18,42.19c0.03-0.01,0.04-0.03,0.06-0.04
		c0.01,0.53-0.07,1.05-0.19,1.55c-0.02-0.01-0.03-0.03-0.05-0.03c-0.61-0.12-1.23-0.15-1.84-0.17
		C118.82,43.05,119.49,42.6,120.18,42.19z M117.9,42.22c0.02-0.09,0.06-0.21,0.07-0.31l0.7,0.01c0.08,0,0.58,0.01,1,0.02
		c-0.7,0.36-1.37,0.9-2.05,1.36C117.73,42.95,117.82,42.58,117.9,42.22z M118.87,44c0.28-0.04,0.75,0.19,1.07,0.14
		c-0.03,0.11-0.05,0.23-0.09,0.34c-0.23,0.63-0.55,1.21-0.96,1.78c-1.01-0.51-2.16-0.76-3.26-0.98l1.86-1.31
		C117.91,44.04,118.51,43.91,118.87,44z M115.51,41.98c0.52-0.05,1.04-0.07,1.56-0.07l0.41,0c-0.1,0.58-0.35,1.19-0.43,1.78
		l0.01,0.01l-1.85,1.34C115.29,44.04,115.41,43.02,115.51,41.98z M113.25,42.47c0.22-0.07,0.45-0.14,0.67-0.2
		c0.36-0.09,0.72-0.15,1.09-0.21c-0.07,1.06-0.24,2.18-0.3,3.23c-0.01,0.03,0,0.06,0,0.09c-0.44,0.31-0.88,0.6-1.34,0.88
		C113.21,45.1,113.27,43.65,113.25,42.47z M116.24,47.74c-0.28-0.14-0.57-0.27-0.86-0.4c-0.57-0.25-1.15-0.49-1.69-0.76
		c0.04-0.03,0.09-0.06,0.13-0.07l1.26-0.86c0.84,0.16,1.7,0.3,2.52,0.61c0.35,0.1,0.67,0.2,0.96,0.38c-0.32,0.4-0.66,0.78-1.02,1.13
		c-0.17,0.16-0.35,0.32-0.53,0.48l0-0.01C116.76,48.06,116.5,47.9,116.24,47.74z"/>
	<path d="M128.07,54.36c0.08-0.38,0.1-0.97-0.4-1.1c-3.37-1.4-7.09-1.73-10.42-0.5c-0.34,0.14-0.13,0.59,0.18,0.38
		c0.64-0.21,1.31-0.37,1.98-0.48c-0.45,1.07-0.5,4.08-0.69,4.44c-0.02,0.04-0.02,0.08-0.03,0.12c-0.05,0.08-0.02,0.17,0.04,0.23
		c0.03,0.05,0.06,0.09,0.12,0.12c0.39,0.28,0.75,0.6,1.11,0.93c0.64,0.55,1.24,1.15,1.85,1.77c-0.48,0.18-0.95,0.35-1.42,0.49
		c-0.3,0.14-0.08,0.5,0.21,0.37C123.92,60.12,127.85,58.32,128.07,54.36z M127.04,56.34c-0.04-0.05-0.09-0.09-0.16-0.13
		c-0.56-0.41-1.27-0.77-1.95-1.05c0.91-0.35,1.82-0.71,2.69-1.13C127.59,54.89,127.39,55.66,127.04,56.34z M127.27,53.67
		c-0.85,0.38-1.71,0.73-2.57,1.07c0.24-0.57,0.63-1.11,0.81-1.71C126.1,53.21,126.7,53.42,127.27,53.67z M125.01,52.9
		c-0.02,0.05-0.03,0.09-0.03,0.14c-0.22,0.67-0.74,1.26-0.89,1.94l-2.84,1.13c0.32-1.18,0.54-2.4,1.14-3.61
		C123.27,52.55,124.15,52.68,125.01,52.9z M119.91,52.58c0.66-0.08,1.32-0.11,1.99-0.1c-0.61,1.23-0.89,2.62-1.17,3.82l0.01,0
		l-1.5,0.62C119.47,55.55,119.51,54.06,119.91,52.58z M122.26,60.1c-0.01-0.02-0.01-0.05-0.03-0.07c-0.94-0.96-1.88-1.88-2.89-2.68
		l0.34-0.14c0.47-0.21,0.95-0.4,1.43-0.59c0.97,0.8,2.07,1.61,2.99,2.57l0,0C123.52,59.55,122.9,59.84,122.26,60.1z M124.53,58.94
		c-0.93-0.91-1.88-1.8-2.91-2.52l2.64-1c0.09,0.04,0.19,0.08,0.28,0.11c0.68,0.29,1.37,0.61,2,1.05c0.08,0.11,0.17,0.16,0.26,0.18
		C126.24,57.63,125.45,58.35,124.53,58.94z"/>
	<path d="M134.5,65.83c-0.61-0.51-1.37-0.99-2.23-1.41c-0.84-0.42-1.89-0.76-2.91-1.03c-2.07-0.54-4.28-0.72-6.21-0.52
		c1.43-0.46,2.87-0.94,4.1-1.79c1.06-0.73,1.98-1.76,2.6-2.88c0.61-1.1,1.19-2.37,1.48-3.68c0.11-0.48,0.37-1.49-0.01-1.92
		c-3.53-3.55-8.08-3.7-12.41-2.51c1.64-1.16,3.26-3.21,4.24-5.34c1.03-2.15,1.24-4.23,0.51-5.21c-0.17-0.22-0.77-0.52-1.64-0.78
		c-0.88-0.26-1.98-0.52-3.31-0.54c-2.61-0.1-5.56,0.41-7.76,1.86c0.99-1.46,1.91-3.34,2.49-5.26c0.58-1.93,0.81-3.92,0.5-5.49
		c-0.14-0.83-0.63-1.92-1.05-2.23c-0.45-0.34-1.66-0.39-2.77-0.31c-0.81,0.06-1.7,0.24-2.62,0.53c-0.91,0.28-1.91,0.76-2.84,1.28
		c-1.87,1.05-3.6,2.45-4.84,3.94c0.69-1.33,1.39-2.68,1.66-4.16c0.23-1.27,0.16-2.67-0.22-3.88c-0.35-1.23-0.85-2.56-1.6-3.71
		c-0.27-0.43-0.81-1.35-1.39-1.39c-2.56-0.02-4.71,0.74-6.47,1.96c-1.77,1.25-3.19,3.08-4.31,4.97c0.34-1.98,0.02-4.6-0.83-6.82
		c-0.41-1.14-0.97-2.07-1.57-2.77c-0.6-0.7-1.26-1.17-1.88-1.26c-0.33-0.05-1.15,0.27-2.16,0.87c-0.5,0.28-1.06,0.69-1.62,1.18
		c-0.56,0.48-1.13,1.02-1.67,1.6c-2.18,2.34-3.77,5.41-3.48,8.24c0.03,0.27,0.26,0.38,0.34-0.08c0.02-0.13,0.04-0.29,0.04-0.41
		c0-0.2,0.02-0.39,0.04-0.58c0.02-0.3,0.06-0.6,0.11-0.9c0.11-0.61,0.29-1.2,0.52-1.77c0.58-1.43,1.48-2.74,2.54-3.92
		c0.47-0.52,0.97-1.02,1.51-1.5c0.27-0.24,0.55-0.47,0.83-0.7c0.28-0.21,0.58-0.4,0.88-0.59c0.41-0.26,0.84-0.5,1.3-0.71
		c0.22-0.1,0.5-0.25,0.76-0.24c0.83,0.04,1.95,1.46,2.76,3.29c0.8,1.94,1.27,4.28,1.18,6.07c-0.01,0.21-0.04,0.41-0.08,0.61
		c-0.15,0.72-0.29,1.49-0.5,2.21l-0.34,0.7c-0.22,0.29-0.02,0.59,0.17,0.52c0.08,0.01,0.17-0.02,0.22-0.11
		c0.15-0.29,0.27-0.6,0.38-0.91c0.7-1.31,1.45-2.64,2.35-3.86c0.45-0.61,0.94-1.19,1.48-1.72c0.54-0.51,1.12-0.95,1.77-1.33
		c1.6-0.9,3.57-1.41,5.57-1.53c0.06-0.01,0.12,0.01,0.16,0.08c0.51,0.63,1.05,1.14,1.42,1.85c0.77,1.49,1.25,3.23,1.41,4.79
		c0.21,2.69-1.31,5.05-2.49,7.29c-0.05,0.1-0.11,0.21-0.12,0.32c0,0.06,0.01,0.12,0.05,0.17c0.03,0.04,0.06,0.06,0.11,0.07
		c0.11,0.01,0.2-0.12,0.27-0.24c0.18-0.17,0.41-0.47,0.52-0.58c1.18-1.57,3.08-3.12,5.19-4.3c0.52-0.29,1.06-0.56,1.59-0.81
		c0.52-0.22,1.04-0.42,1.54-0.58c1.01-0.33,1.97-0.54,2.78-0.62c0.9-0.09,1.6-0.01,1.96,0.23c0.41,0.3,0.71,0.87,0.81,1.74
		c0.7,5.04-2.39,10-3.93,11.89c-0.16,0.2-0.64,0.64-0.45,0.9c0.18,0.2,0.41-0.08,0.57-0.23c0.16-0.16,0.32-0.34,0.49-0.54l0.1-0.09
		c0.23-0.2,0.47-0.39,0.72-0.56c0.51-0.35,1.05-0.64,1.62-0.88c1.42-0.61,2.97-0.9,4.55-1c0.7-0.04,1.4-0.05,2.11-0.02
		c0.7,0.04,1.37,0.16,2.06,0.31c0.47,0.1,0.94,0.22,1.41,0.39c0.22,0.08,0.53,0.17,0.7,0.35c0.27,0.29,0.36,0.88,0.28,1.63
		c-0.08,0.74-0.31,1.64-0.74,2.6c-0.82,1.9-2.14,3.86-3.47,5.05c-0.15,0.14-0.32,0.26-0.49,0.37c-0.61,0.4-1.26,0.85-1.92,1.2
		l-0.73,0.26c-0.36,0.05-0.43,0.4-0.25,0.48c0.05,0.06,0.13,0.1,0.23,0.07c0.31-0.1,0.61-0.24,0.91-0.38
		c2.84-0.87,5.92-1.73,8.79-1.01c0.89,0.23,1.76,0.58,2.61,1.04c0.83,0.47,1.71,1,2.37,1.68c0.05,0.04,0.08,0.09,0.06,0.17
		c-0.08,0.79-0.06,1.51-0.3,2.26c-0.51,1.57-1.35,3.1-2.4,4.32c-1.73,2.03-4.48,2.64-6.89,3.42c-0.11,0.03-0.23,0.07-0.31,0.15
		c-0.05,0.04-0.08,0.1-0.09,0.15c-0.01,0.04,0,0.09,0.03,0.12c0.08,0.08,0.23,0.05,0.36,0.02c0.24,0,0.62-0.05,0.78-0.05
		c1.94-0.3,4.38-0.09,6.7,0.51c0.58,0.15,1.15,0.32,1.7,0.52c0.52,0.2,1.03,0.41,1.5,0.64c0.95,0.46,1.78,0.96,2.4,1.45
		c0.7,0.55,1.15,1.08,1.23,1.49c0.1,0.49-0.15,1.09-0.61,1.76c-3.04,4-8.77,5.38-11.15,5.66c-0.25,0.03-0.9,0.01-0.93,0.33
		c0.01,0.26,0.37,0.22,0.59,0.23c1.57-0.02,3.99-0.58,6.31-1.61c2.31-1.02,4.5-2.54,5.61-4.18c0.49-0.67,0.84-1.76,0.78-2.27
		C136.16,67.38,135.35,66.53,134.5,65.83z"/>
	<path d="M123.23,73.48c0.44-0.02,0.88-0.1,1.31-0.18c0.74-0.14,1.48-0.32,2.21-0.53c1.11-0.26,2.04-0.95,3.05-1.47
		c0.5-0.35,1.42-1,2.02-1.63c0.62-0.63,1.05-1.25,0.78-1.47c-0.03-0.14-0.16-0.28-0.27-0.36c-2.38-2.03-5.33-2.65-8.37-2.96
		c-0.55-0.05-1.11-0.06-1.67,0c-0.14,0.02-0.24,0.12-0.24,0.24c0.01,0.11,0.13,0.2,0.27,0.19c0.74-0.01,1.5,0.03,2.26,0.09
		c-0.27,0.44-0.52,1.15-0.77,1.52c-0.36,0.84-0.96,1.58-1.36,2.35c-0.06,0.17,0.01,0.34,0.13,0.48c0.39,0.48,0.82,0.97,1.13,1.49
		c0.31,0.52,0.62,1.05,0.92,1.61c-0.28,0.05-0.55,0.1-0.83,0.15c-0.09,0.01-0.61,0.03-0.91,0.13c-0.18,0.06-0.29,0.14-0.19,0.28
		C122.78,73.48,123.1,73.49,123.23,73.48z M128.08,71.76c-0.01-0.01-0.01-0.02-0.03-0.03c-0.4-0.4-0.75-0.83-1.11-1.25l-1.14-1.28
		c0.97-0.15,1.94-0.3,2.91-0.42c0.04,0.04,0.09,0.08,0.13,0.11c0.6,0.4,1.08,0.93,1.61,1.43c0.01,0.01,0.02,0.01,0.03,0.02
		C129.77,70.92,128.94,71.38,128.08,71.76z M132.21,68.42L132.21,68.42c-0.39,0.6-0.86,1.09-1.37,1.58l-0.01-0.02
		c-0.48-0.43-0.95-0.9-1.47-1.3c0.89-0.1,1.78-0.19,2.68-0.22C132.1,68.47,132.16,68.46,132.21,68.42z M131.67,67.96
		c-0.81,0-1.61,0.15-2.41,0.27l-0.02,0c0.27-0.43,0.65-0.82,0.86-1.27C130.65,67.25,131.17,67.59,131.67,67.96z M127.76,66
		c0.67,0.2,1.32,0.45,1.95,0.76c-0.39,0.37-0.88,1.21-1.07,1.56l-2.84,0.41c0.56-0.9,1.16-1.79,1.88-2.67
		C127.71,66.05,127.74,66.02,127.76,66z M125.11,65.44c0.74,0.09,1.44,0.23,2.15,0.42c-0.82,0.92-1.49,1.98-2.1,2.97l0,0.01
		l-2.11,0.35C123.79,68.02,124.45,66.75,125.11,65.44z M124.22,71.1c-0.32-0.51-0.74-1-1.11-1.49l2.13-0.33
		c0.38,0.45,0.78,0.9,1.19,1.35c0.36,0.45,0.75,0.9,1.16,1.33c-0.25,0.09-0.49,0.19-0.73,0.28c-0.57,0.2-1.15,0.36-1.74,0.49
		l-0.01-0.04C124.84,72.14,124.53,71.61,124.22,71.1z"/>
</g>
</svg>
