<?xml version="1.0" encoding="UTF-8" standalone="no"?>
<svg
   height="253.33299"
   width="253.33299"
   xml:space="preserve"
   version="1.1"
   id="svg2"
   xmlns:xlink="http://www.w3.org/1999/xlink"
   xmlns="http://www.w3.org/2000/svg"
   xmlns:svg="http://www.w3.org/2000/svg">
  <rect x="0" y="0" width="100%" height="100%" fill="white"/>
  <g
   clip-path="url(#b-3)"
   transform="matrix(1.33333,0,0,-1.33333,4.1181294e-4,253.33288)"
   id="g53"
   style="display:inline">
    <path
   id="path53"
   style="display:inline;fill:#000000;fill-opacity:1;fill-rule:nonzero;stroke:none"
   transform="translate(166.164,114.558)"
   d="m -65.753413,18.487403 c -0.18179,0.04004 -0.385167,0.04042 -0.607912,-0.01758 -1.929954,-0.504 -2.164967,-3.407147 -3.02784,-5.141615 -1.093954,-3.107931 -2.177,-6.2204304 -3.292977,-9.3193591 -2.917931,-8.1098114 -5.831532,-16.2193699 -8.752463,-24.3281859 -0.379977,-1.058977 -0.755257,-2.115953 -1.135257,-3.16993 l -2.553229,1.839849 c -1.652954,1.196954 -3.307019,2.390062 -4.959973,3.583016 l -2.562018,1.847173 c -1.961954,1.420977 -3.925268,2.83794 -5.887222,4.253917 -1.976996,1.429954 -3.497446,2.5800301 -4.835466,3.493661 -1.33802,0.9136309 -1.97573,1.4924486 -3.12775,2.3825706 -1.15202,0.890122 -3.3055,2.7412585 -3.6955,3.0212516 0,0 -2.7582,2.69904202 -3.40138,2.82862035 -0.64318,0.12957833 -1.1847,-0.56396591 -1.31397,-1.43408565 -0.12927,-0.8701191 7.70185,-7.7800514 9.91262,-9.3750239 l 14.526896,-10.491237 c 0.22,0 0.765616,-0.553943 0.953616,-0.689943 l 1.028323,-0.742678 1.917485,-1.385745 4.139659,-2.989754 c 1.914954,-1.377954 3.824318,-2.760076 5.739272,-4.144053 0.162,-0.113 0.323864,-0.232586 0.484864,-0.351563 0,0 -8.751793,-6.585007 -9.73977,-7.188007 l -2.564943,-1.756351 -9.314965,-6.975603 -2.266117,-1.649418 c 0,0 -4.95131,-3.68692 -5.65431,-4.108897 0,0 -2.16993,-1.645705 -2.06543,-2.26319 0.1045,-0.617477 1.21578,-1.003087 2.64991,-0.07764 1.84777,0.746977 36.704673,25.738833 36.704673,25.738833 0.404,-1.259954 0.96812,-2.978826 1.371097,-4.237803 1.078977,-3.359931 1.084138,-3.361184 2.162115,-6.725115 l 0.717775,-2.295416 c 0.147,-0.446977 1.610423,-4.95052 1.753423,-5.396497 0.921977,-2.869954 0.658593,-2.080254 1.58057,-4.951185 l 1.294925,-3.301766 c 0.129,-0.413977 1.761048,-4.847032 1.894048,-5.187024 0,0 0.859557,-2.803727 1.598148,-3.147957 0.7386,-0.344238 1.477001,-0.625312 1.771001,0.430665 0.195,0.702992 -2.077999,7.211891 -2.917976,9.840845 l -4.932141,15.348671 c -1.367977,4.266885 -2.739943,8.535858 -4.108897,12.802766 -0.808,2.504954 -1.611557,5.012666 -2.415534,7.517597 l -0.313477,0.978518 1.475101,-0.0293 c 3.448931,-0.062 6.903611,-0.126965 10.353542,-0.188965 l 1.516117,-0.02783 3.254891,-0.06296 c 2.613931,-0.048 5.231304,-0.09595 7.844258,-0.147949 1.705954,-0.033 3.412222,-0.066 5.118176,-0.104004 l 3.237338,-0.06151 2.213385,-0.0293 c 0,0 4.168167,0.08419 4.681652,0.555177 0.513484,0.470993 -0.260452,2.342338 -1.211429,2.591315 -1.795954,0.472 -14.241153,0.0935 -18.542038,0.187501 -4.554908,0.103 -9.111119,0.217618 -13.667027,0.307618 -2.459931,0.048 -4.920947,0.08965 -7.379901,0.118652 -1.259977,0.014 -2.518887,0.02344 -3.777841,0.02344 -0.836,0.019 -1.66889,0.03303 -2.50489,0.04687 1.225977,3.412931 2.346434,6.5210151 3.682627,10.234889 1.336193,3.7138739 4.334486,12.0483701 4.334486,12.0483701 0.223,0.6219862 0.379365,1.0527415 0.67383,1.8706102 0.294465,0.8178687 0.771245,2.1431037 1.092776,3.0366687 0.321531,0.893565 0.556451,1.550713 0.836428,2.324713 0,0 1.252804,2.860641 1.06055,3.307625 -0.144191,0.335238 -0.500534,0.812999 -1.045901,0.933108 z m -11.723174,-36.777924 c 0.949977,-0.014 1.896221,-0.03874 2.846198,-0.05274 0.806382,-0.01345 1.61367,-0.02979 2.419928,-0.04834 0.565,-1.761954 1.129829,-3.514891 1.694829,-5.277845 0.422977,-1.310977 0.841186,-2.623603 1.264163,-3.93458 -0.071,-0.048 -0.146262,-0.0913 -0.218262,-0.133301 -1.301977,-0.798977 -2.608583,-1.592237 -3.915537,-2.386237 -1.377977,0.992977 -2.751451,1.985918 -4.129405,2.983895 -0.832763,0.598758 -1.664112,1.199877 -2.494635,1.801762 0.142,0.39 0.280341,0.778343 0.423341,1.173343 z" />
  </g>
</svg>
