<?xml version="1.0" encoding="UTF-8" standalone="no"?>
<svg
   height="253.33299"
   width="253.33299"
   xml:space="preserve"
   version="1.1"
   id="svg2"
   xmlns:xlink="http://www.w3.org/1999/xlink"
   xmlns="http://www.w3.org/2000/svg"
   xmlns:svg="http://www.w3.org/2000/svg">
  <rect x="0" y="0" width="100%" height="100%" fill="white"/>
  <g
   clip-path="url(#b)"
   transform="matrix(1.33333,0,0,-1.33333,0,253.333)"
   id="g2">
    <path
   d="m 0,0 c -5.802,-0.114 -69.417,0.247 -70.813,0.224 1.006,2.794 1.434,3.996 2.442,6.79 0.223,0.622 0.446,1.245 0.674,1.872 3.231,-0.005 6.463,-0.014 9.694,-0.019 L -41.02,8.838 -23.717,8.81 C -18.062,8.795 -12.407,8.786 -6.748,8.777 -2.162,8.767 2.419,8.753 7.005,8.753 7.579,7.104 8.141,5.445 8.711,3.787 9.124,2.585 9.532,1.387 9.946,0.185 6.629,0.128 3.317,0.062 0,0 m -31.718,-32.043 c -1.04,3.022 -2.335,6.388 -3.376,9.405 0.037,-0.106 4.494,2.943 5.912,4.242 1.027,0.942 -0.384,2.194 -1.335,2.443 -1.796,0.472 -14.241,0.094 -18.542,0.188 -4.555,0.103 -9.111,0.217 -13.667,0.307 -2.46,0.048 -4.92,0.09 -7.379,0.119 -1.26,0.014 -2.52,0.023 -3.779,0.023 -0.836,0.019 -1.668,0.033 -2.504,0.047 1.226,3.413 2.457,6.82 3.682,10.236 0.072,0.2 0.641,1.944 0.712,2.143 0.95,0.02 75.938,-0.075 80.015,0 -1.339,-1.049 -39.035,-28.601 -39.739,-29.153 m -4.482,12.973 2.214,-0.029 -1.783,-1.221 c -0.217,0.623 -0.213,0.623 -0.431,1.25 m 6.619,-28.441 c 1.905,-5.503 3.807,-11.006 5.707,-16.509 1.92,-5.559 3.845,-11.124 5.77,-16.683 1.253,-3.626 2.503,-7.261 3.758,-10.887 -2.02,-0.979 -4.04,-1.953 -6.064,-2.928 -1.297,-0.627 -2.59,-1.25 -3.887,-1.872 -1.049753,2.884731 -2.095088,5.771068 -3.136,8.659 -1.996,5.511 -3.992,11.019 -5.983,16.532 -2.024,5.579 -4.039,11.162 -6.059,16.741 l -6.12,16.912 -5.346,14.765 c -0.483643,1.34264 -0.969977,2.68431 -1.459,4.025 2.614,-0.048 5.232,-0.096 7.845,-0.148 1.706,-0.033 3.412,-0.066 5.118,-0.104 l 0.713,-2.044 c 1.231,-3.573 2.466,-7.146 3.702,-10.716 1.815,-5.251 3.626,-10.497 5.441,-15.743 m -41.583,-17.007 7.321,5.22 c 1.23,-0.806 5.596,-4.83 7.659,-6.269 0.755,-0.528 1.686,-0.816 1.98,0.24 0.195,0.703 -2.185,7.603 -3.025,10.232 l -4.932,15.349 c -1.368,4.267 -2.741,8.535 -4.11,12.802 -0.808,2.505 -1.611,5.013 -2.415,7.518 l -0.313,0.979 1.474,-0.029 c 3.449,-0.062 6.904,-0.128 10.354,-0.19 l 1.516,-0.028 c 0.48,-1.317 0.95,-2.638 1.43,-3.959 1.564,-4.305 3.122,-8.616 4.681,-12.925 2,-5.531 4.006,-11.068 6.011,-16.604 2.019,-5.584 4.039,-11.162 6.059,-16.746 2.043,-5.65 4.091,-11.305 6.14,-16.955 1.121,-3.094 2.237,-6.187 3.355,-9.281 -1.564,0.885 -43.185,30.646 -43.185,30.646 m 11.59,7.486 c 0.129,-0.414 2.412,-4.691 2.545,-5.031 l -4.212,4.214 z m -60.414,-37.993 c -0.736,0.655 -1.468,1.32 -2.204,1.976 -1.683,1.497 -3.612,3.278 -5.289,4.78 0.556,0.352 61.324,43.632 63.277,44.887 0.147,-0.447 1.611,-4.951 1.754,-5.397 0.922,-2.87 0.658,-2.079 1.58,-4.95 -0.784,-0.489 -56.685,-39.781 -59.118,-41.296 m 6.504,55.347 c 0.575,-0.432 4.44,-3.071 7.192,-5.138 -0.533,-1.64 -2.102,-8.724 -2.001,-9.316 0.209,-1.235 0.539,-2.781 3.134,-1.73 1.848,0.747 36.705,25.739 36.705,25.739 0.404,-1.26 0.967,-2.98 1.37,-4.239 1.079,-3.36 1.084,-3.36 2.162,-6.724 -0.113,-0.071 -59.166,-41.865 -62.559,-44.027 0.361,1.535 13.588,43.701 13.997,45.435 m 13.395,-9.735 c 0,0 -4.952,-3.687 -5.655,-4.109 0.247,0.764 1.775,6.011 2.027,6.777 0.456,-0.343 3.172,-2.325 3.628,-2.668 m -31.859,27.643 -13.344,10.009 c -3.844,2.889 -7.674,5.797 -11.538,8.667 1.06,2.666 2.129,5.332 3.194,7.998 0.475,1.198 0.955,2.395 1.435,3.592 1.406,-1.088 2.813,-2.171 4.22,-3.255 4.538,-3.512 9.081,-7.018 13.619,-10.53 4.618,-3.569 9.233,-7.138 13.852,-10.707 4.552,-3.521 9.104,-7.037 13.657,-10.554 4.225,-3.269 8.449,-6.534 12.673,-9.803 1.555,-1.198 4.122,-3.232 5.671,-4.435 l -9.315,-6.975 c -0.1,0.081 -16.528,12.788 -20.681,15.906 -4.481,3.364 -8.962,6.723 -13.443,10.087 m 27.104,18.883 c -0.114,-0.304 -1.566,-3.246 -1.68,-3.55 -0.385,0.285 -3.06,3.27 -3.45,3.55 0.499,0.019 4.626,-0.028 5.13,0 m 4.581,13.118 c -0.4,-1.084 -2.18,-6.96 -3.401,-10.253 -0.898,-0.043 -8.727,0.056 -10,0 -0.638,-0.029 -1.111,-0.749 -1.26,-1.352 -0.271,-1.097 7.719,-8.08 9.93,-9.675 l 14.527,-10.49 c 0.22,0 0.766,-0.554 0.954,-0.69 l 1.028,-0.743 1.918,-1.386 4.139,-2.99 c 1.915,-1.378 3.825,-2.76 5.74,-4.144 0.162,-0.113 0.324,-0.233 0.485,-0.352 0,0 -8.753,-6.585 -9.741,-7.188 -0.285,0.218 -20.315,15.861 -24.753,19.292 -4.648,3.593 -9.295,7.185 -13.948,10.778 -4.638,3.587 -9.28,7.18 -13.923,10.768 -3.459,2.665 -6.91,5.336 -10.364,8.007 3.578,0.109 46.074,0.351 48.669,0.418 m 20.396,48.561 c 0.979,-0.1 1.958,-0.195 2.937,-0.295 l 7.533,-0.756 c 1.263,-0.123 2.532,-0.257 3.8,-0.38 -1.297,-3.516 -2.585,-7.042 -3.882,-10.564 -1.934,-5.255 -3.863,-10.511 -5.797,-15.767 -1.949,-5.303 -3.902,-10.611 -5.85,-15.914 -1.863,-5.061 -3.721,-10.122 -5.583,-15.187 l -4.263,-11.596 c -0.556,-1.515 -1.117,-3.031 -1.673,-4.552 -1.962,1.421 -3.925,2.837 -5.887,4.253 -1.977,1.43 -2.855,2.064 -4.836,3.494 0.061,0.171 21.791,62.639 23.501,67.264 m 2.391,-77.083 c 0.95,-0.014 1.896,-0.038 2.846,-0.052 0.806382,-0.01345 1.612719,-0.02945 2.419,-0.048 0.565,-1.762 1.131,-3.516 1.696,-5.279 0.423,-1.311 0.841,-2.623 1.264,-3.934 -0.071,-0.048 -0.146,-0.091 -0.218,-0.133 -1.302,-0.799 -2.609,-1.592 -3.916,-2.386 -1.378,0.993 -2.751,1.986 -4.129,2.984 -0.832786,0.598781 -1.664454,1.199115 -2.495,1.801 0.142,0.39 0.28,0.779 0.423,1.174 l 2.11,5.873 m 13.481,30.208 c -0.869,0 -1.739,0 -2.609,0.005 0.276,0.775 0.556,1.55 0.836,2.324 l 1.101208,-2.329 M -63.42,54.472 c 0.066,-0.176 0.128,-0.357 0.191,-0.533 l 5.63,-15.976 c 1.611,-4.562 3.217,-9.128 4.828,-13.69 l 3.265,-9.267 c 0.365,-1.04 0.732,-2.076 1.098,-3.117 -3.968,0.005 -9.311211,0.014 -13.274211,0.019 -0.09812,0.18566 -0.139962,0.291698 -0.261,0.528 -0.741761,1.759275 -1.267636,3.222576 -2.362789,4.954 -0.494,0.675 -1.165,1.312 -2.056,1.08 -1.93,-0.504 -2.48,-3.588 -3.027,-5.142 -1.094,-3.108 -2.177,-6.22 -3.293,-9.319 -2.918,-8.11 -5.832,-16.22 -8.753,-24.329 -0.38,-1.059 -0.755,-2.115 -1.135,-3.169 l -2.553,1.839 c -1.653,1.197 -3.307,2.39 -4.96,3.583 0.451,1.231 0.902,2.456 1.354,3.687 1.212,3.294 2.419,6.587 3.63,9.88 l 5.494,14.945 c 1.943,5.279 3.882,10.558 5.821,15.833 1.934,5.261 3.868,10.516 5.803,15.777 1.525,4.139 3.036,8.278 4.561,12.417 M 13.437,-0.846 C 13.32,-0.055 12.943,0.784 12.64,1.687 11.882,3.944 11.153,6.211 10.365,8.458 9.949,9.643 9.608,11.79 8.007,11.79 c -9.016,0 -18.031,0.035 -27.047,0.05 -3.111,0.006 -6.223,0.016 -9.334,0.016 l -16.813,0.028 -0.17,0.485 -2.363,6.71 -4.447,12.617 c -1.716,4.861 -3.427,9.722 -5.142,14.583 -1.468,4.163 -2.941,8.331 -4.4,12.493 -0.0058,0.01765 -0.01249,0.035 -0.02,0.052 -0.43,1.075 -1.761,1.385 -2.804,1.489 -5.45,0.545 -10.901,1.088 -16.35,1.639 -1.284,0.129 -1.547,-1.18 -1.865,-2.128 -2.241,-6.693 -15.349,-43.758 -16.456,-46.742 -1.454,-0.033 -50.232,-0.244 -51.555,-0.285 -1.68,-0.051 -3.224,-0.683 -3.972,-2.263 -1.941,-4.1 -3.365,-8.541 -5.02,-12.768 -0.703,-1.795 -0.016,-2.676 1.485,-3.678 1.333,-0.89 2.604,-1.859 3.888,-2.822 4.405,-3.308 8.815,-6.615 13.22,-9.923 l 13.401,-10.05 c 2.937,-2.205 5.869,-4.405 8.805,-6.606 0,-0.023 2.643,-2.356 2.648,-2.384 -0.162,-0.675 -14.815,-48.55 -14.801,-49.993 0.014,-1.423 0.878,-2.204 1.841,-3.113 1.55442,-1.461412 3.13297,-2.896942 4.735,-4.306 0.797,-0.704 1.609,-1.394 2.402,-2.104 0.469,-0.42 0.922,-0.994 1.546,-1.187 0.812,-0.252 1.373,0.269 2.039,0.687 10.125,6.345 41.347,29.123 45.264,31.575 0.984,-0.56 47.239,-34.463 48.996,-33.621 4.171,2.006 8.332,4.033 12.507,6.03 1.158,0.564 0.747,1.862 0.421,2.791 -0.485,1.386 -19.18,55.611 -19.18,55.611 0,0 41.801,31.111 42.902,31.978 1,0.788 1.198,1.615 1.069,2.503"
   style="display:inline;fill:#000000;fill-opacity:1;fill-rule:nonzero;stroke:none"
   transform="translate(166.164,114.558)"
   id="path2" />
  </g>
</svg>
