<?xml version="1.0" encoding="utf-8"?>
<!-- Generator: Adobe Illustrator 23.0.0, SVG Export Plug-In . SVG Version: 6.00 Build 0)  -->
<svg version="1.1" id="Слой_1" xmlns="http://www.w3.org/2000/svg" xmlns:xlink="http://www.w3.org/1999/xlink" x="0px" y="0px"
	 viewBox="0 0 100 21.28" style="enable-background:new 0 0 100 21.28;" xml:space="preserve">
<g>
	<path d="M10.28,6.87C9.24,6.9,8.2,7.21,7.38,7.89c-1.24,1.03-1.77,2.85-1.07,4.36c0.66,1.42,2.17,2.13,3.68,2.16
		c0.82,0.02,1.65-0.16,2.34-0.53c0.95-0.51,1.53-1.44,1.71-2.5C14.48,8.89,12.76,6.8,10.28,6.87z M12.45,12.56
		c-0.68,0.68-1.71,0.92-2.63,0.85c-0.41-0.03-0.81-0.12-1.18-0.29c-1.13-0.51-1.98-1.7-1.58-2.98c0.36-1.16,1.48-2,2.63-2.18
		c0.22-0.03,0.38-0.09,0.68-0.09c1.06,0,2.13,0.43,2.56,1.49C13.34,10.39,13.25,11.76,12.45,12.56z"/>
	<path d="M24.79,8.86c-0.68,0-1.26,0.5-1.42,1.15c-1.24,0.12-2.54,0.12-3.79,0.07c-0.21-0.57-0.74-0.98-1.36-0.98
		c-0.79,0-1.46,0.68-1.46,1.5s0.67,1.5,1.46,1.5c0.63,0,1.17-0.43,1.37-1.01c0.26,0,0.52-0.02,0.78,0.01c1.04,0.06,2.08,0,3.11-0.1
		c0.24,0.5,0.74,0.86,1.31,0.86c0.79,0,1.46-0.68,1.46-1.5S25.58,8.86,24.79,8.86z"/>
	<path d="M32.87,6.87c-1.04,0.03-2.08,0.34-2.9,1.02c-1.24,1.03-1.77,2.85-1.07,4.36c0.66,1.42,2.17,2.13,3.68,2.16
		c0.82,0.02,1.65-0.16,2.34-0.53c0.95-0.51,1.53-1.44,1.71-2.5C37.06,8.89,35.35,6.8,32.87,6.87z M35.03,12.56
		c-0.68,0.68-1.71,0.92-2.63,0.85c-0.41-0.03-0.81-0.12-1.18-0.29c-1.13-0.51-1.98-1.7-1.58-2.98c0.36-1.16,1.48-2,2.63-2.18
		c0.22-0.03,0.38-0.09,0.68-0.09c1.06,0,2.13,0.43,2.56,1.49C35.92,10.39,35.83,11.76,35.03,12.56z"/>
	<path d="M47.37,8.86c-0.68,0-1.26,0.5-1.42,1.15c-1.24,0.12-2.54,0.12-3.79,0.07c-0.21-0.57-0.74-0.98-1.36-0.98
		c-0.79,0-1.46,0.68-1.46,1.5s0.67,1.5,1.46,1.5c0.63,0,1.17-0.43,1.37-1.01c0.26,0,0.52-0.02,0.78,0.01c1.04,0.06,2.08,0,3.11-0.1
		c0.24,0.5,0.74,0.86,1.31,0.86c0.79,0,1.46-0.68,1.46-1.5S48.16,8.86,47.37,8.86z"/>
	<path d="M55.45,6.87c-1.04,0.03-2.08,0.34-2.9,1.02c-1.24,1.03-1.77,2.85-1.07,4.36c0.66,1.42,2.17,2.13,3.68,2.16
		c0.82,0.02,1.65-0.16,2.34-0.53c0.95-0.51,1.53-1.44,1.71-2.5C59.64,8.89,57.93,6.8,55.45,6.87z M57.62,12.56
		c-0.68,0.68-1.71,0.92-2.63,0.85c-0.41-0.03-0.81-0.12-1.18-0.29c-1.13-0.51-1.98-1.7-1.58-2.98c0.36-1.16,1.48-2,2.63-2.18
		c0.22-0.03,0.38-0.09,0.68-0.09c1.06,0,2.13,0.43,2.56,1.49C58.5,10.39,58.41,11.76,57.62,12.56z"/>
	<path d="M69.95,8.86c-0.68,0-1.26,0.5-1.42,1.15c-1.24,0.12-2.54,0.12-3.79,0.07C64.54,9.52,64,9.11,63.39,9.11
		c-0.79,0-1.46,0.68-1.46,1.5s0.67,1.5,1.46,1.5c0.63,0,1.17-0.43,1.37-1.01c0.26,0,0.52-0.02,0.78,0.01c1.04,0.06,2.08,0,3.11-0.1
		c0.24,0.5,0.74,0.86,1.31,0.86c0.79,0,1.46-0.68,1.46-1.5S70.75,8.86,69.95,8.86z"/>
	<path d="M78.04,6.87C77,6.9,75.95,7.21,75.13,7.89c-1.24,1.03-1.77,2.85-1.07,4.36c0.66,1.42,2.17,2.13,3.68,2.16
		c0.82,0.02,1.65-0.16,2.34-0.53c0.95-0.51,1.53-1.44,1.71-2.5C82.23,8.89,80.51,6.8,78.04,6.87z M80.2,12.56
		c-0.68,0.68-1.71,0.92-2.63,0.85c-0.41-0.03-0.81-0.12-1.18-0.29c-1.13-0.51-1.98-1.7-1.58-2.98c0.36-1.16,1.48-2,2.63-2.18
		c0.22-0.03,0.38-0.09,0.68-0.09c1.06,0,2.13,0.43,2.56,1.49C81.09,10.39,81,11.76,80.2,12.56z"/>
	<path d="M92.54,8.86c-0.68,0-1.26,0.5-1.42,1.15c-1.24,0.12-2.54,0.12-3.79,0.07c-0.21-0.57-0.75-0.98-1.36-0.98
		c-0.79,0-1.46,0.68-1.46,1.5s0.67,1.5,1.46,1.5c0.63,0,1.17-0.43,1.37-1.01c0.26,0,0.52-0.02,0.78,0.01c1.04,0.06,2.08,0,3.11-0.1
		c0.24,0.5,0.74,0.86,1.31,0.86c0.79,0,1.46-0.68,1.46-1.5S93.33,8.86,92.54,8.86z"/>
</g>
</svg>
