<?xml version="1.0" encoding="utf-8"?>
<!-- Generator: Adobe Illustrator 23.0.0, SVG Export Plug-In . SVG Version: 6.00 Build 0)  -->
<svg version="1.1" id="Слой_1" xmlns="http://www.w3.org/2000/svg" xmlns:xlink="http://www.w3.org/1999/xlink" x="0px" y="0px"
	 viewBox="0 0 100 21.28" style="enable-background:new 0 0 100 21.28;" xml:space="preserve">
<path d="M93.18,4.2c-0.28-0.07-0.53,0.09-0.62,0.34c-1.36,2.65-2.85,5.3-4.26,7.95c-1.43-1.68-3.02-3.18-4.32-4.97
	c4.73-5.82-4.2-5.35-1.26-0.03c-1.34,1.73-2.92,3.21-4.53,4.72c-1.64-1.52-3.02-3.23-4.52-4.91c2.96-5.51-4.99-5.06-1.26,0.11
	c-1.21,2-3.2,3.45-4.84,5.09c-0.66-0.43-3.45-4.07-5.13-5.14c0.05-0.08,0.11-0.16,0.16-0.24c0.83-1.52,0.2-4.27-1.73-3.62
	c-1.1,0.51-1.79,1.88-1.09,2.7c0.41,0.52,0.97,0.78,1.38,1.34c-1.47,1.81-3.37,3.28-4.86,5.08c-1.61-1.88-3.52-3.48-5.3-5.2
	c1.17-1.25,1.31-4.07-1.01-3.89c-0.82,0.23-1.31,1.03-1.45,1.86c-0.01,0.83,0.5,1.6,1.09,2.16c-1.61,1.93-3.68,3.48-5.5,5.21
	c-1.37-2.04-3.48-3.45-5.05-5.33c0.93-1.12,0.99-3.54-0.77-3.85c-1.87,0.09-1.68,2.9-0.57,3.87c-1.52,1.8-3.37,3.42-5.04,5.14
	c-1.6-1.61-3.02-3.37-4.81-4.8c4.54-5.91-6.05-5.23-1.31,0.07c-1.54,1.72-3.5,3-5,4.77c-1.16-1.47-2.24-3.01-3.43-4.46
	c2.46-6.08-6.14-5.67-1.2,0.09c-1.33,1.76-3.29,3-5.04,4.37c0.15-0.12-2.41-3.83-2.66-4.2c-0.47-0.72-0.94-1.45-1.36-2.2
	C7.5,5.6,7.01,5.01,6.64,4.36C6.28,3.75,5.31,4.31,5.82,4.99c1.17,1.57,2.02,3.32,3.15,4.92c0.21,0.29,2.38,3.13,2.1,3.38
	c-0.75,0.67-1.64,1.39-1.78,2.44c-0.1,0.79,0.27,1.82,1.04,2.16c0.51,0.15,1.07,0.03,1.5-0.26c1.22-0.9,1.02-2.79,0.49-4.06
	c1.81-1.41,3.77-2.68,5.24-4.47c1.17,1.41,2.23,2.92,3.35,4.36c-0.59,0.95-1.18,2.21-0.62,3.3c0.27,0.54,0.9,1.03,1.52,0.76
	c1.54-0.82,1.15-2.8,0.35-4.02c1.49-1.83,3.52-3.15,5.1-4.9c1.76,1.4,3.16,3.15,4.74,4.74c-0.84,0.94-1.69,2.42-0.89,3.59
	c0.51,0.61,1.5,0.85,2.14,0.29c0.96-0.98,1.07-2.86,0.13-3.89c1.67-1.72,3.48-3.3,5.04-5.13c1.54,1.86,3.65,3.24,4.97,5.29
	c-1.18,1.16-1.82,3.8,0.35,4.22c1.47,0.38,2.27-0.98,2.01-2.27c-0.12-0.71-0.65-1.27-1.06-1.84c1.88-1.81,4.01-3.38,5.68-5.38
	c1.75,1.71,3.68,3.31,5.27,5.19c-4.02,5.72,5.42,5.23,1.31-0.02c1.46-1.85,3.47-3.28,4.9-5.15c1.89,1.32,3.34,3.46,5.05,5.03
	c-3.67,5.1,4.94,5.67,1.32,0.03c1.65-1.69,3.63-3.09,4.9-5.11c1.42,1.65,2.83,3.31,4.42,4.8c-0.95,1.25-2.13,3.8,0.1,4.4
	c3.34,0.59,3.11-2.74,1.22-4.41c1.56-1.48,3.15-2.93,4.47-4.63c1.37,1.82,3.04,3.35,4.47,5.13c-3.32,6.34,4.68,4.15,1.21-0.15
	c-0.1-0.12,0.96-1.8,1.07-2.01c0.4-0.73,0.8-1.45,1.2-2.17c0.49-0.9,0.97-1.81,1.45-2.72C93,5.9,94.06,4.63,93.18,4.2z M11.71,15.87
	c-0.05,0.44-0.49,1.11-0.89,1.08c-0.15-0.01-0.29-0.12-0.41-0.38c-0.43-0.93,0.44-1.77,1.08-2.32c-0.02,0.02,0.17,0.67,0.18,0.75
	C11.72,15.28,11.74,15.58,11.71,15.87z M17.41,7.25c0.03-0.11-0.33-0.5-0.4-0.58c-0.17-0.24-0.34-0.48-0.47-0.74
	c-0.11-0.23-0.21-0.49-0.17-0.75c0.12-0.8,0.88-0.2,1.05,0.24C17.65,5.98,17.56,6.67,17.41,7.25z M21.5,16.51
	c-0.03,0.01-0.05,0.01-0.08,0.01c-0.33-0.01-0.37-0.59-0.34-0.83c0.04-0.42,0.23-0.84,0.43-1.25c-0.03,0.06,0.19,0.48,0.22,0.57
	c0.07,0.22,0.13,0.44,0.13,0.67C21.86,15.93,21.82,16.44,21.5,16.51z M27.17,7.04c-0.01,0.02-0.51-0.66-0.55-0.73
	c-0.14-0.26-0.26-0.57-0.27-0.87c-0.02-0.78,1.23-1.22,1.6-0.47C28.28,5.61,27.52,6.55,27.17,7.04z M32.72,16.29
	c-0.02,0.08-0.2,0.23-0.29,0.25c-0.02,0-0.03,0.01-0.05,0.01c-1.24-0.23-0.22-1.91,0.3-2.46C33.16,14.69,33.05,15.62,32.72,16.29z
	 M38.18,4.6C38.18,4.6,38.18,4.6,38.18,4.6C38.18,4.6,38.18,4.6,38.18,4.6C38.18,4.6,38.18,4.6,38.18,4.6z M38.37,6.67
	c-0.5-0.56-0.7-1.46-0.19-2.07c0,0,0,0,0,0C38.94,4.83,38.73,6.13,38.37,6.67z M44.73,15.56c0.12,0.44,0.04,1.05-0.47,1.19
	c-0.28,0.08-0.57-0.05-0.78-0.23c-0.3-0.26-0.18-0.74-0.09-1.07c0.11-0.4,0.32-0.78,0.58-1.1C44.26,14.74,44.6,15.09,44.73,15.56z
	 M50.23,6.75c-0.68-0.68-0.99-1.49-0.14-2.18C51.32,4.42,50.74,6.18,50.23,6.75z M56.13,16.51c-1.04-0.03-0.16-1.82,0.18-2.31
	C56.85,14.79,57.57,16.65,56.13,16.51z M61.83,6.37c-0.02,0.03-0.11,0.22-0.13,0.28c-0.07-0.08-0.14-0.16-0.22-0.23
	c-0.49-0.44-0.99-0.62-0.84-1.5C60.64,4.66,61.2,4.33,61.5,4.4C62.3,4.69,62.46,5.39,61.83,6.37z M67.56,16.31
	c-0.93-0.05-0.49-1.77-0.04-2.22C67.84,14.61,68.67,16.28,67.56,16.31z M72.98,6.46c0.02-0.05-0.24-0.43-0.27-0.5
	c-0.1-0.19-0.19-0.39-0.24-0.6c-0.05-0.19-0.07-0.4-0.02-0.6c0.07-0.3,0.25-0.55,0.58-0.39c0.23,0.11,0.3,0.35,0.32,0.58
	C73.37,5.46,73.2,6.01,72.98,6.46z M79.13,15.16c0.08,0.24,0.15,0.52,0.09,0.78c-0.01,0.05-0.02,0.09-0.04,0.13
	c-0.09,0.2-0.29,0.29-0.52,0.35c-0.26,0.06-0.54,0.09-0.79,0c-0.7-0.22-0.53-0.86-0.32-1.39c0.17-0.45,0.42-0.86,0.67-1.27
	c0,0.01,0.48,0.57,0.52,0.63C78.9,14.63,79.04,14.89,79.13,15.16z M83.36,4.72c0.5-0.66,1.46-0.48,0.88,0.45
	C84,5.61,83.66,6.14,83.38,6.61C83.13,6.01,82.96,5.33,83.36,4.72z M88.07,16.43c-0.02,0-0.03,0-0.05,0
	c-0.37-0.37,0.24-1.39,0.5-2.09c0.2,0.37,0.4,0.76,0.4,1.2C88.81,15.93,88.55,16.42,88.07,16.43z"/>
</svg>
