<?xml version="1.0" encoding="utf-8"?>
<!-- Generator: Adobe Illustrator 23.0.0, SVG Export Plug-In . SVG Version: 6.00 Build 0)  -->
<svg version="1.1" id="Слой_1" xmlns="http://www.w3.org/2000/svg" xmlns:xlink="http://www.w3.org/1999/xlink" x="0px" y="0px"
	 viewBox="0 0 100 21.28" style="enable-background:new 0 0 100 21.28;" xml:space="preserve">
<path d="M93.04,6.56c-0.84,1.27-2,2.31-2.83,3.61c-0.72-1.14-1.87-1.86-2.61-2.99c-0.09-0.2-0.04-0.43-0.03-0.64
	c0.1-0.59-0.64-0.87-0.9-0.34c-0.86,1.49-2.46,2.35-3.41,3.81c-0.68-1.08-2.1-1.77-2-3.27c-0.17-0.81-0.91-0.5-1.11,0.13
	c-1.05,1.16-2.47,1.96-3.48,3.18c-0.84-1.11-2.04-1.96-2.64-3.25c-0.11-0.36-0.18-0.85-0.62-0.85c-0.23,0-0.39,0.16-0.49,0.36
	c-0.91,1.48-2.35,2.54-3.48,3.83c0.04-0.05-0.62-0.83-0.69-0.91c-0.26-0.3-0.52-0.6-0.79-0.9c-0.27-0.3-0.53-0.6-0.78-0.91
	c-0.16-0.21-0.35-0.4-0.46-0.64c-0.1-0.21-0.05-0.48-0.25-0.64c-0.3-0.25-0.66-0.02-0.8,0.32c-0.79,1.34-2.26,2.14-3.11,3.47
	c-0.32-0.65-0.76-1.23-1.24-1.76c-0.36-0.39-0.78-0.72-1.14-1.12c-0.16-0.18-0.27-0.35-0.37-0.57c-0.08-0.18-0.16-0.36-0.36-0.42
	c-0.34-0.1-0.54,0.29-0.59,0.56c-0.82,1.53-2.16,2.59-3.33,3.8c-0.55-0.92-1.33-1.65-2.03-2.44c-0.37-0.44-0.72-0.86-0.86-1.61
	c-0.26-0.68-0.92-0.5-1.08,0.07c-0.83,1.53-1.93,2.19-2.91,3.65c-0.87-1.01-1.88-1.99-2.5-3.19c-0.05-0.3,0.01-0.65-0.28-0.83
	c-0.32-0.21-0.69,0.07-0.74,0.43c-0.71,1.66-2.29,2.79-3.43,4.12c-0.58-0.72-1.13-1.45-1.68-2.2c-0.25-0.35-0.49-0.7-0.73-1.06
	c-0.22-0.32-0.45-0.76-0.76-1.01c-0.48-0.4-0.71,0.34-0.91,0.65c-0.27,0.41-0.59,0.78-0.93,1.13c-0.35,0.36-0.71,0.7-1.05,1.07
	c-0.11,0.12-1,1.04-0.92,1.18c-0.41-0.67-1.08-1.15-1.59-1.73c-0.26-0.29-0.5-0.61-0.63-0.98c-0.15-0.43,0.11-1.01-0.15-1.39
	C32.14,5.98,31.69,6,31.5,6.33c-0.24,0.38-0.46,0.74-0.71,1.13c-1.03,1.53-2.5,2.66-3.81,3.95c0.03-0.03-1.59-1.83-1.73-2.01
	c-0.37-0.46-0.8-0.94-1-1.51c-0.17-0.47-0.02-1.06-0.36-1.48c-0.41-0.5-0.82,0.12-0.98,0.49c-1.16,1.63-2.61,3.08-3.93,4.59
	c-1.2-1.54-2.16-3.31-3.43-4.77c-0.35-0.4-1,0.68-1.13,0.89c-0.44,0.69-0.88,1.24-1.51,1.8c-0.94,0.82-1.95,1.55-2.86,2.4
	C9.68,11.06,7.02,5.7,6.12,7.22C6.04,7.4,6.1,7.64,6.22,7.77c0.74,0.64,1.31,1.48,1.87,2.3c0.47,0.79,0.79,1.66,1.26,2.45
	c-0.57,0.63-1.27,1.61-0.63,2.44c0.52,0.64,1.52,0.43,2-0.16c0.45-0.63,0.1-1.49-0.2-2.11c1.6-1.56,3.68-2.68,4.87-4.68
	c0.94,1.47,1.99,2.85,2.98,4.28c-2.73,3.9,3.07,3.95,1.14,0.07c1.23-1.48,2.61-2.81,3.77-4.35c0.66,1.64,2.01,2.78,3.06,4.14
	c-2.23,3.61,3.05,4.25,1.18,0.08c1.36-1.38,2.95-2.57,4.05-4.24c0.55,1.33,1.8,2.04,2.53,3.23c-2.93,4.21,3.75,4.79,1.12,0.07
	c0.69-0.93,1.37-1.83,2.21-2.62c0.21-0.2,0.59-0.55,0.91-0.92c0.94,1.19,1.74,2.42,2.71,3.59c-0.83,0.87-1.49,2.59-0.09,3.23
	c1.89,0.78,1.97-1.94,1.26-3.13c1.12-1.2,2.31-2.33,3.31-3.64c0.79,1.06,1.63,2.09,2.53,3.07c-3.51,4.85,3.5,5.17,1.12,0.08
	c0.88-1.2,1.95-2.23,3-3.27c0.68,1.35,1.93,2.11,2.67,3.44c-0.47,0.52-0.75,1.21-0.82,1.9c-0.05,0.49-0.04,1.15,0.38,1.48
	c0.52,0.41,1.31,0.07,1.68-0.38c0.05-0.06,0.1-0.13,0.13-0.2c0.43-0.81,0.11-1.83-0.21-2.63c1.13-1.21,2.46-2.23,3.34-3.68
	c1.09,0.89,1.93,1.89,2.62,3.2c-3.03,4.64,3.75,4.64,1.12,0.01c0.75-1.3,2.06-2.1,2.97-3.27c0.35,0.51,0.91,1.03,1.11,1.31
	c0.55,0.67,1.18,1.32,1.66,2.09c-0.78,1-1.24,3.02,0.29,3.48c1.98,0.33,1.55-2.34,0.86-3.47c1.06-1.19,2.26-2.26,3.31-3.47
	c0.75,1.28,1.91,2.19,2.8,3.35c-2.62,4.51,3.68,4.32,1.16,0.01c0.9-1.14,2.16-1.98,3.24-2.93c0.42,1.25,1.59,1.85,2.19,2.97
	c-2.17,3.87,3.1,3.98,1.09,0.05c0.75-1.3,2.04-2.15,3.01-3.28c0.79,1.26,2.08,2.07,2.85,3.35c-2.9,4.5,3.62,4.49,1.13,0.03
	c0.9-1.46,2.17-2.56,3.09-3.99C94.16,6.5,93.34,6,93.04,6.56z M8.11,10.1c0,0,0.01,0.01,0.01,0.01c0-0.01,0,0,0,0
	c0,0,0.01,0.01,0.01,0.01C8.12,10.12,8.12,10.11,8.11,10.1z M10,14.12c-0.06,0.17-0.24,0.26-0.41,0.25c-0.04,0-0.08-0.01-0.11-0.02
	c-0.09-0.03-0.16-0.11-0.16-0.2c0-0.11,0.08-0.37,0.51-0.68C9.99,13.64,10.08,13.88,10,14.12z M18.63,14.27c-0.01,0-0.02,0-0.03,0
	c-0.39-0.13-0.04-0.85,0.3-1C19.25,13.77,19.08,14.26,18.63,14.27z M27.03,14.13c-0.09,0.03-0.19,0.01-0.28-0.09
	c-0.19-0.22,0.05-0.62,0.12-0.85c0.01-0.02,0.01-0.04,0.02-0.06c-0.01,0.02,0.2,0.24,0.22,0.27c0.06,0.1,0.12,0.21,0.14,0.32
	C27.29,13.9,27.17,14.08,27.03,14.13z M34.8,13.6c-0.04,0.03-0.08,0.05-0.12,0.05c-0.21,0.03-0.39-0.3-0.39-0.48
	c0-0.33,0.2-0.65,0.33-0.94c-0.02,0.05,0.11,0.28,0.13,0.34c0.06,0.15,0.12,0.31,0.15,0.47C34.94,13.19,34.94,13.49,34.8,13.6z
	 M41.66,13.68c-0.05,0.06-0.13,0.08-0.24,0.05c-0.31-0.09-0.38-0.37-0.3-0.66c0.04-0.14,0.11-0.28,0.19-0.41
	c0.05-0.07,0.27-0.27,0.24-0.35C41.61,12.49,41.89,13.42,41.66,13.68z M48.27,13.69c-0.65-0.08,0.07-1.46,0.29-1.79
	C48.74,12.43,49,13.52,48.27,13.69z M54.97,13.71C54.97,13.71,54.97,13.71,54.97,13.71C54.97,13.71,54.97,13.71,54.97,13.71
	C54.97,13.71,54.97,13.71,54.97,13.71z M55.47,13.32c-0.06,0.19-0.25,0.37-0.47,0.38c-0.19,0-0.19-0.24-0.18-0.38
	c0.03-0.22,0.11-0.43,0.19-0.63c0.09-0.21,0.19-0.41,0.31-0.59c-0.01,0.02,0.03,0.12,0.03,0.14c0.01,0.05,0.03,0.1,0.04,0.15
	c0.03,0.11,0.05,0.21,0.07,0.32C55.51,12.92,55.53,13.13,55.47,13.32z M62.36,13.34c-0.63-0.12,0.03-1.28,0.17-1.54
	c-0.02,0.04,0.15,0.38,0.17,0.44c0.05,0.17,0.1,0.35,0.09,0.53C62.79,12.97,62.63,13.38,62.36,13.34z M69.56,13.46
	c-0.04,0.03-0.08,0.04-0.12,0.05c-0.24,0.03-0.41-0.32-0.42-0.53c0.01-0.35,0.18-0.72,0.37-1.05c-0.06,0.1,0.31,0.74,0.34,0.89
	C69.75,13,69.74,13.33,69.56,13.46z M76.71,13.2c-0.06,0.04-0.14,0.03-0.24-0.04c-0.29-0.21,0.08-1.13,0.19-1.38
	c-0.01,0.03,0.13,0.3,0.15,0.34C76.86,12.29,76.92,13.05,76.71,13.2z M83.19,12.89c-0.01,0-0.04,0-0.03,0c0,0,0,0,0,0
	c0,0-0.01-0.01-0.01-0.01c0,0,0,0,0,0c0,0,0,0,0,0c0,0,0,0,0,0c-0.38-0.19-0.18-0.69,0.05-0.85C83.39,12.22,83.59,12.65,83.19,12.89
	z M90.11,13.42c-0.08,0.04-0.16,0.02-0.24-0.09c-0.24-0.32,0.15-1.05,0.3-1.34c-0.02,0.04,0.13,0.34,0.15,0.4
	c0.05,0.16,0.09,0.34,0.08,0.51C90.39,13.05,90.27,13.35,90.11,13.42z"/>
</svg>
