<?xml version="1.0" encoding="utf-8"?>
<!-- Generator: Adobe Illustrator 23.0.0, SVG Export Plug-In . SVG Version: 6.00 Build 0)  -->
<svg version="1.1" id="Слой_1" xmlns="http://www.w3.org/2000/svg" xmlns:xlink="http://www.w3.org/1999/xlink" x="0px" y="0px"
	 viewBox="0 0 100 21.28" style="enable-background:new 0 0 100 21.28;" xml:space="preserve">
<g>
	<path d="M93.02,11.27c-1.83-2.08-5.08-3.46-7.62-1.7c-1.11,0.64-2.34,2.67-1.07,3.68c2.17,0.85,3.5-2.14,5.54-2.2
		c1.14,0.01,2.39,0.58,3,1.55c0.27,0.38,0.92,0.18,0.91-0.3C93.73,11.86,93.3,11.59,93.02,11.27z"/>
	<path d="M83.35,9.3c-0.66,0.37-1,1.11-1.78,1.34c-0.88,0.31-1.89,0.04-2.67-0.46c-0.98-0.74-1.96-1.88-3.29-1.86
		c-1.22,0.16-1.64,1.53-1.26,2.57c0.43,1.16,1.72,1.8,2.85,2.15c2.6,0.48,5.04-0.84,6.59-2.86C84.2,9.89,83.89,9.14,83.35,9.3z
		 M83.68,10.25C83.68,10.24,83.68,10.24,83.68,10.25c0.02-0.02,0.04-0.02,0.05-0.03C83.71,10.23,83.7,10.23,83.68,10.25z"/>
	<path d="M66.95,8.71c-1.61,0.54-3.34,2.86-1.8,4.3c1.64,0.99,3-1.11,4.36-1.77c0.89-0.41,1.93-0.33,2.82,0.13
		c0.31,0.15,0.59,0.4,0.75,0.71c0.1,0.58,1,0.49,0.99-0.1C73.09,9.23,69.71,7.62,66.95,8.71z"/>
	<path d="M64.62,8.97c-0.49-0.51-0.93,0.27-1.36,0.46c-0.97,0.42-1.89,0.8-2.98,0.63c-0.56-0.09-1.12-0.36-1.49-0.81
		c-0.37-0.46-0.64-1-1.16-1.32c-0.55-0.31-1.27-0.38-1.84-0.09c-1.16,0.45-1.26,2.09-0.71,3.05c0.62,0.85,1.64,1.4,2.68,1.54
		c2.58,0.27,5.17-0.75,6.83-2.76C64.77,9.48,64.79,9.17,64.62,8.97z"/>
	<path d="M54.2,10.48c-0.48-0.4-0.98-0.79-1.51-1.13c-1.08-0.68-2.32-1.08-3.6-0.81c-1.21,0.22-2.41,0.96-2.84,2.16
		c-0.33,0.73-0.51,1.86,0.3,2.35c1.77,0.68,2.96-1.4,4.49-1.91c0.78-0.26,1.68-0.15,2.42,0.17c0.34,0.15,0.7,0.35,0.94,0.64
		c0.19,0.23,0.34,0.7,0.7,0.69c0.34,0,0.47-0.27,0.48-0.56c0-0.2-0.27-0.48-0.36-0.62C54.93,11.02,54.6,10.82,54.2,10.48z"/>
	<path d="M44.3,9.5c-0.62,0.82-1.79,1.15-2.82,1.18c-1.23-0.01-1.96-1.09-2.82-1.83c-1.1-1.11-3.13-0.62-3.07,1.1
		c0.01,1.91,1.87,3.02,3.63,3.11c1.93,0.22,3.82-0.7,5.1-2.11c0.34-0.36,0.82-0.69,0.91-1.2C45.25,9.24,44.54,9.07,44.3,9.5z"/>
	<path d="M34.66,10.89c-0.53-0.62-1.2-1.11-1.89-1.53c-1.37-0.83-3.11-0.94-4.64-0.57c-1.39,0.44-2.83,2.25-2.09,3.75
		c0.74,1.51,2.69-0.03,3.5-0.64c0.54-0.41,1.1-0.76,1.8-0.73c0.71,0.03,1.43,0.27,2.05,0.59c0.45,0.24,1.03,0.94,1.55,0.93
		c0.4,0,0.5-0.21,0.45-0.48C35.32,11.75,34.83,11.09,34.66,10.89z"/>
	<path d="M26.14,9.18c-0.01-0.05-0.03-0.09-0.06-0.13c-0.15-0.21-0.49-0.26-0.7-0.15c-0.37,0.2-0.58,0.65-0.94,0.89
		c-0.35,0.22-0.74,0.36-1.15,0.42c-0.81,0.12-1.68-0.06-2.38-0.43c-1.24-0.66-2.62-2.18-4.18-1.4c-0.94,0.6-0.69,1.98-0.29,2.85
		c0.62,1.25,2.23,1.73,3.53,1.9c1.24,0.16,2.69-0.51,3.68-1.19c0.55-0.38,1.05-0.84,1.52-1.32C25.46,10.3,26.26,9.66,26.14,9.18z"/>
	<path d="M13.69,9.28c-1.09-0.71-2.53-0.92-3.8-0.87c-1.35,0.06-2.7,0.59-3.38,1.83c-0.53,1.06-0.35,2.84,0.85,3.35
		c1.88,0.35,3.16-1.5,4.63-2.34c0.71-0.4,1.59-0.18,2.26,0.18c0.34,0.18,0.71,0.43,0.97,0.71c0.22,0.24,0.39,0.68,0.77,0.7
		c0.21,0.01,0.59-0.28,0.5-0.51C15.96,11.15,14.78,9.99,13.69,9.28z"/>
</g>
</svg>
