<?xml version="1.0" encoding="utf-8"?>
<!-- Generator: Adobe Illustrator 23.0.0, SVG Export Plug-In . SVG Version: 6.00 Build 0)  -->
<svg version="1.1" id="Слой_1" xmlns="http://www.w3.org/2000/svg" xmlns:xlink="http://www.w3.org/1999/xlink" x="0px" y="0px"
	 viewBox="0 0 100 21.28" style="enable-background:new 0 0 100 21.28;" xml:space="preserve">
<g>
	<path d="M90.8,10.74c0.41,0.1,0.97,0.17,1.36-0.03c0.2-0.1,0.05-0.26-0.16-0.31c-0.47-0.11-1.11-0.38-1.2-0.9
		c-0.01-0.3,0.29-0.49,0.43-0.74c0.42-0.5,0.43-1.32-0.29-1.54c-0.66-0.2-1.33,0.18-1.69,0.73c-0.35,0.54-0.3,1.2,0.04,1.73
		C89.61,10.23,90.19,10.59,90.8,10.74z"/>
	<path d="M93.63,10.52c-0.19-0.1-0.38,0.11-0.52,0.21c-0.04,0.03-0.08,0.05-0.12,0.07c-0.17,0.1-0.36,0.18-0.54,0.25
		c-0.43,0.16-0.89,0.23-1.34,0.24c-0.7,0.02-1.4-0.17-1.91-0.65c-0.95-0.71-1.32-1.89-1.77-2.96c-0.38-0.62-0.9-1.47-1.74-1.35
		c-1.54,0.43-1.32,2.55-0.7,3.67c0.33,0.6,0.83,1.07,1.43,1.4c0.59,0.32,1.24,0.52,1.89,0.65c0.82,0.16,1.65,0.32,2.49,0.24
		c0.76-0.07,1.51-0.34,2.14-0.77c0.27-0.19,0.67-0.43,0.81-0.75C93.78,10.67,93.73,10.57,93.63,10.52z"/>
	<path d="M83.83,11.37c-0.34-0.17-1.01-0.12-1.26-0.09c-0.5,0.06-0.93,0.16-1.31,0.49c-0.42,0.37-0.75,0.91-0.71,1.49
		c0.05,0.63,0.65,1.23,1.25,1.38c1.33,0.32,1.72-1.19,0.85-2c-0.14-0.13,0.05-0.39,0.15-0.47c0.16-0.13,0.37-0.18,0.56-0.24
		c0.24-0.06,0.8-0.02,0.69-0.4C84.03,11.44,83.94,11.43,83.83,11.37z"/>
	<path d="M79.96,9.75c-1.48,0.28-2.93,1.06-3.59,2.47c-0.39,0.98-0.42,2.59,0.87,2.84c1.45,0.14,1.96-1.6,2.65-2.56
		c0.65-0.9,1.53-1.77,2.71-1.88c0.54-0.05,1.16,0.08,1.66,0.27c0.27,0.11,0.53,0.25,0.73,0.46c0.09,0.09,0.17,0.2,0.23,0.31
		c0.08,0.15,0.12,0.32,0.32,0.34c0.16,0.01,0.25-0.1,0.23-0.25c-0.04-0.29-0.33-0.73-0.42-0.82C84.07,9.5,81.72,9.43,79.96,9.75z"/>
	<path d="M76.35,10.56c-0.03,0-0.06,0-0.09,0.01c-0.22,0.04-0.39,0.23-0.58,0.32c-0.31,0.14-0.63,0.26-0.96,0.34
		c-0.65,0.15-1.34,0.13-1.94-0.19c-0.99-0.45-1.67-1.43-2-2.45c-0.25-1.02-0.9-2.66-2.25-2.28c-3.32,2.11,1.06,6.06,3.78,5.85
		c1.29,0.06,2.65-0.05,3.73-0.84c0.15-0.11,0.35-0.19,0.47-0.35C76.67,10.76,76.56,10.57,76.35,10.56z"/>
	<path d="M74.19,10.93c0.33-0.04,1.11-0.07,1.11-0.3c0-0.09-0.05-0.17-0.13-0.22c-0.04-0.02-0.08-0.03-0.12-0.03
		c-0.05,0-0.11,0.01-0.16,0.02c-0.48,0.05-1.03-0.11-1.28-0.55c-0.03-0.1-0.02-0.17,0.02-0.28c0.26-0.54,1.04-1.14,0.56-1.81
		C73.34,6.52,71.9,7.9,71.88,9C71.79,10.17,73.13,10.98,74.19,10.93z"/>
	<path d="M66.84,11.46c-0.37-0.2-0.8-0.21-1.21-0.18c-0.41,0.03-0.82,0.14-1.18,0.35c-0.57,0.34-1.02,0.97-1.02,1.65
		c0,0.77,0.61,1.22,1.3,1.4c0.49,0.13,1.15-0.14,1.26-0.68c0.05-0.27-0.05-0.54-0.19-0.77c-0.1-0.17-0.33-0.37-0.35-0.58
		c-0.04-0.36,0.46-0.58,0.74-0.66c0.14-0.04,0.27-0.05,0.41-0.06c0.12,0,0.25,0,0.33-0.11C67.04,11.7,66.99,11.54,66.84,11.46z"/>
	<path d="M66.11,9.88c-0.8-0.23-1.66-0.3-2.49-0.23c-0.83,0.07-1.66,0.27-2.42,0.62c-0.36,0.17-0.7,0.37-1.01,0.61
		c-0.3,0.23-0.53,0.51-0.78,0.79c-0.85,0.98-1.15,3.33,0.58,3.47c2.99,0.09,2.72-5.12,5.95-4.48c0.66,0.16,1.36,0.47,1.9,0.93
		c0.15,0.13,0.56,0.68,0.78,0.31c0.02-0.04,0.03-0.08,0.03-0.13c-0.01-0.11-0.08-0.22-0.14-0.3C67.94,10.68,67.04,10.15,66.11,9.88z
		"/>
	<path d="M55.46,10.35c0.5,0.33,1.59,0.69,2.18,0.46c0.21-0.08,0.34-0.15,0.25-0.29c-0.03-0.05-0.08-0.09-0.14-0.13
		c-0.19-0.1-0.43-0.05-0.63-0.11c-0.27-0.09-0.52-0.26-0.69-0.48c-0.05-0.06-0.09-0.13-0.11-0.2c-0.06-0.25,0.46-0.7,0.57-0.96
		c0.11-0.27,0.17-0.59,0.09-0.88c-0.16-0.62-1.03-0.8-1.53-0.42c-0.03,0.02-0.05,0.04-0.08,0.06C54.29,8.27,54.28,9.57,55.46,10.35z
		"/>
	<path d="M59.35,10.8c0.04-0.11,0-0.25-0.1-0.29c-0.04-0.02-0.07-0.02-0.11-0.01c-0.14,0.02-0.28,0.15-0.38,0.22
		c-0.12,0.08-0.25,0.15-0.38,0.22c-0.27,0.12-0.56,0.22-0.86,0.27c-0.74,0.14-1.53,0.05-2.2-0.29c-1.59-0.64-1.75-2.53-2.68-3.79
		c-0.35-0.59-1.12-1.18-1.82-0.84C49.87,6.81,49.97,8.08,50.1,9c0.45,2.34,3.14,3.18,5.24,3.31c0.53,0.03,1.07-0.03,1.59-0.15
		c0.81-0.19,1.57-0.56,2.22-1.1C59.22,10.99,59.31,10.91,59.35,10.8z"/>
	<path d="M49.47,11.24c-0.21-0.07-0.6-0.05-0.76-0.06c-0.65-0.05-1.34-0.08-1.95,0.21c-1.1,0.53-1.41,2.41-0.19,2.98
		c1.28,0.39,2.44-0.49,1.37-1.7c-0.32-0.48,0.28-0.7,0.68-0.81c0.18-0.05,1.31-0.13,0.95-0.56C49.55,11.27,49.51,11.25,49.47,11.24z
		"/>
	<path d="M49.53,10.21c-2.28-1.28-5.6-0.99-7.43,0.94c-0.93,0.98-1.58,3.14-0.07,3.88c2.47,0.36,3.01-2.89,4.58-4.09
		c0.84-0.36,1.82-0.36,2.67-0.03c0.42,0.17,0.78,0.41,1.1,0.73c0.11,0.1,0.18,0.24,0.37,0.21c0.14-0.02,0.18-0.1,0.16-0.22
		C50.8,11.21,49.71,10.31,49.53,10.21z"/>
	<path d="M39.52,10.97c0.19-0.01,0.56,0.05,0.67-0.18c0.07-0.14,0-0.23-0.12-0.29c-0.25-0.12-0.73-0.11-0.86-0.13
		c-0.39-0.05-0.83-0.14-0.89-0.6c-0.03-0.2,0.18-0.35,0.32-0.48c1.24-0.84,0.4-2.58-1-2.08C35.42,8.42,37.62,11.1,39.52,10.97z"/>
	<path d="M41.24,10.56c-0.07,0-0.15,0.04-0.25,0.12c-0.33,0.29-0.61,0.48-1.06,0.57c-0.48,0.1-1,0.1-1.48,0.01
		c-0.9-0.16-1.67-0.67-2.16-1.45c-0.83-1.34-1.38-4.62-3.61-3.43c-0.88,0.81-0.53,2.14-0.13,3.11c0.74,1.93,3.09,2.58,4.96,2.72
		c1.3,0.04,2.77-0.13,3.72-1.07C41.56,10.95,41.49,10.54,41.24,10.56z"/>
	<path d="M31.71,11.37c-0.8,0-1.68-0.23-2.44,0.14c-1.3,0.58-1.34,2.63,0.07,3.09c1,0.46,2.1-0.8,1.34-1.67
		c-0.35-0.44-0.74-0.39-0.09-0.86c0.27-0.18,0.67-0.23,0.99-0.21C31.94,11.99,32.07,11.44,31.71,11.37z"/>
	<path d="M24.08,12.26c-0.31,0.88-0.66,2.48,0.55,2.82c2.48,0.06,2.66-3.55,4.81-4.2c1.02-0.33,2.29-0.32,3.13,0.43
		c0.12,0.08,0.22,0.2,0.3,0.34c0.06,0.36,0.61,0.2,0.48-0.14C31.51,8.19,25.53,8.89,24.08,12.26z"/>
	<path d="M22.22,11.08c0.2,0.01,0.36-0.04,0.57-0.06c0.29-0.04,0.27-0.47-0.01-0.49c-0.48-0.13-0.95-0.27-1.37-0.58
		c-0.18-0.12-0.33-0.26-0.34-0.51c-0.01-0.09,0.02-0.16,0.09-0.22c1.48-1.18,0.07-2.75-1.38-1.64
		C18.16,9.03,20.56,11.25,22.22,11.08z"/>
	<path d="M23.99,10.7c-0.07-0.17-0.28-0.2-0.41-0.09c-0.81,0.97-2.34,1.09-3.46,0.53c-1.74-0.79-1.65-3.11-2.88-4.38
		c-0.88-1.02-2.27-0.02-2.26,1.13c-0.29,2.7,2.58,4.39,4.98,4.41c1.31,0.09,2.77-0.12,3.73-1.09C23.8,11.04,24.08,10.94,23.99,10.7z
		"/>
	<path d="M14.48,11.43c-0.15-0.07-0.32-0.08-0.48-0.09c-0.07-0.01-0.14-0.01-0.2-0.02c-0.25-0.04-0.5-0.08-0.75-0.08
		c-0.26,0-0.53,0.05-0.78,0.12c-0.5,0.15-0.97,0.45-1.27,0.9c-0.22,0.33-0.32,0.72-0.23,1.11c0.05,0.22,0.15,0.42,0.27,0.6
		c0.08,0.11,0.16,0.21,0.25,0.3c0.09,0.09,0.21,0.23,0.32,0.28c1.44,0.66,2.72-0.86,1.36-1.98c-0.08-0.09-0.06-0.21,0.03-0.3
		c0.52-0.46,1.26-0.28,1.58-0.44C14.68,11.67,14.66,11.51,14.48,11.43z"/>
	<path d="M7.06,11.24c-0.01,0.01-0.01,0.02-0.02,0.03c-0.76,0.87-1.14,2.48-0.34,3.44c0.81,0.97,2.06-0.1,2.61-0.84
		c0.63-0.84,1.1-1.75,1.88-2.47c0.98-0.91,2.55-1,3.61-0.11c0.18,0.13,0.35,0.31,0.49,0.53c0.02,0.11,0.13,0.2,0.25,0.2
		c0.18,0,0.29-0.2,0.24-0.36C14.45,8.78,8.85,8.9,7.06,11.24z"/>
</g>
</svg>
