<?xml version="1.0" encoding="utf-8"?>
<!-- Generator: Adobe Illustrator 23.0.0, SVG Export Plug-In . SVG Version: 6.00 Build 0)  -->
<svg version="1.1" id="Слой_1" xmlns="http://www.w3.org/2000/svg" xmlns:xlink="http://www.w3.org/1999/xlink" x="0px" y="0px"
	 viewBox="0 0 100 21.28" style="enable-background:new 0 0 100 21.28;" xml:space="preserve">
<path d="M25.21,11.22c-4.11,2.53-6.19,0.63-9.35-2.13c-2.16-2.06-5.56-3.23-8.19-1.3c-0.51,0.36-1.8,1.03-0.94,1.69
	c0.28,0.17,0.68,0.05,0.8-0.26c5.06-4.37,8.39,2.91,12.88,4.18c1.66,0.42,3.35-0.26,4.84-0.97c0.41-0.17,0.99-0.49,0.7-1.01
	C25.81,11.17,25.46,11.05,25.21,11.22z"/>
<path d="M36.53,11.82c-1.19,0.55-2.71,0.64-3.9-0.02c-2.27-1.01-3.49-3.51-5.82-4.37c-2.05-0.87-4.32-0.31-6.13,0.84
	c-0.25,0.14-0.53,0.36-0.51,0.69c-0.02,0.52,0.73,0.74,0.99,0.29c6.2-3.97,7.5,3.07,12.69,4.07c1.53,0.17,3.02-0.34,4.29-1.16
	c0.42-0.17,0.95-0.56,0.6-1.05C38.14,10.48,37.18,11.62,36.53,11.82z"/>
<path d="M51.95,11c-0.21,0.1-0.42,0.2-0.63,0.29c-1.39,0.57-2.96,0.81-4.44,0.48c-1.72-0.39-2.75-1.56-3.92-2.78
	c-0.41-0.43-0.81-0.95-1.3-1.29c-0.77-0.54-1.98-0.84-2.91-0.85c-1.42-0.02-2.87,0.45-4.04,1.24c-0.41,0.41-1.15,0.65-1.25,1.26
	c0,0.29,0.25,0.54,0.54,0.54c0.57-0.13,0.94-0.7,1.45-0.99c1.14-0.69,2.56-1.14,3.92-0.88c1.05,0.2,1.84,0.68,2.57,1.46
	c0.8,0.85,1.54,1.76,2.51,2.44c0.94,0.66,1.98,0.98,3.05,1.07c1.12,0.1,2.27-0.06,3.38-0.36c0.5-0.13,2.21-0.57,1.82-1.41
	C52.53,10.93,52.21,10.87,51.95,11z"/>
<path d="M65.07,11.46c-1.22,0.6-2.69,0.7-4.06,0.7c-0.94-0.04-1.8-0.54-2.58-1.02c-2.48-2.1-4.21-4.81-7.97-3.93
	c-0.8,0.19-1.58,0.43-2.3,0.84c-0.29,0.16-0.65,0.37-0.81,0.68c-0.09,0.18-0.04,0.36,0.09,0.5C47.7,9.49,48,9.41,48.28,9.24
	c0.35-0.21,0.73-0.38,1.11-0.53c0.74-0.3,1.53-0.5,2.33-0.53C52,8.16,52.28,8.17,52.56,8.2c0.29,0.03,0.58,0.09,0.87,0.18
	c2.6,1.33,4.15,4.59,7.34,4.85c1.17,0.09,6.06-0.2,5.49-1.98C65.89,10.78,65.41,11.19,65.07,11.46z"/>
<path d="M79.18,11.15c-0.7,0.76-1.75,1.04-2.75,1.1c-1.11,0.07-2.19-0.02-3.21-0.49c-2.09-0.95-3.54-2.78-5.42-4.03
	c-0.83-0.55-1.77-0.95-2.78-0.92c-1.26,0.03-2.6,0.65-3.55,1.45c-0.23,0.19-0.6,0.28-0.73,0.57c-0.16,0.37,0.17,0.81,0.57,0.75
	c0.35-0.05,0.81-0.48,1.12-0.65c0.38-0.22,0.76-0.42,1.16-0.6c0.73-0.32,1.89-0.71,2.65-0.31c0.41,0.22,0.8,0.5,1.17,0.78
	c1.62,1.22,3.04,2.74,4.84,3.71c0.82,0.44,1.68,0.7,2.57,0.81c1.77,0.21,4.02,0.01,5.21-1.5C80.47,11.26,79.6,10.59,79.18,11.15z"/>
<path d="M93.32,11.19c-0.26-0.15-0.59-0.06-0.74,0.19c-1,1.16-2.66,1.32-4.14,1.01c-4.12-0.48-5.78-6.1-10.13-5.56
	c-0.95,0.05-4.14,1.26-3.89,2.4c0.15,0.41,0.79,0.45,0.99,0.06c6.49-4.94,7.3,4.64,14.55,4.33C90.88,13.74,94.5,12.38,93.32,11.19z"
	/>
<path d="M58.94,7.86c-0.01,0-0.02-0.01-0.03-0.01c-0.03,0-0.06,0-0.08,0C58.86,7.86,58.9,7.86,58.94,7.86z"/>
<circle cx="18.07" cy="7.17" r="0.84"/>
<circle cx="32.33" cy="7.17" r="0.84"/>
<circle cx="46.21" cy="7.17" r="0.84"/>
<circle cx="59.26" cy="7.17" r="0.84"/>
<circle cx="29.5" cy="14.25" r="0.84"/>
<circle cx="44.54" cy="14.25" r="0.84"/>
<circle cx="55.97" cy="14.25" r="0.84"/>
<circle cx="72.08" cy="7.17" r="0.84"/>
<circle cx="68.78" cy="14.25" r="0.84"/>
<circle cx="86.98" cy="7.17" r="0.84"/>
<circle cx="83.68" cy="14.25" r="0.84"/>
<circle cx="14.91" cy="14.26" r="0.84"/>
</svg>
