<?xml version="1.0" encoding="utf-8"?>
<!-- Generator: Adobe Illustrator 23.0.0, SVG Export Plug-In . SVG Version: 6.00 Build 0)  -->
<svg version="1.1" id="Слой_1" xmlns="http://www.w3.org/2000/svg" xmlns:xlink="http://www.w3.org/1999/xlink" x="0px" y="0px"
	 viewBox="0 0 100 21.28" style="enable-background:new 0 0 100 21.28;" xml:space="preserve">
<g>
	<path d="M21.04,7.62c-0.26-0.11-0.46-0.2-0.53-0.22c-1.72-0.53-3.42-0.28-4.92,0.68c-1.41,0.9-2.57,2.13-4.02,2.96
		c-1.06,0.61-2.26,0.98-3.47,1.14c-0.37,0.05-0.74,0.1-1.11,0.1c-0.16,0-0.3-0.01-0.45-0.04c-0.09-0.02-0.5-0.09-0.46,0.11
		c0.01,0.04,0.04,0.08,0.08,0.11c0.1,0.08,0.2,0.14,0.31,0.21c0.09,0.05,0.18,0.11,0.28,0.16c0.82,0.47,1.67,0.91,2.59,1.14
		c0.37,0.09,0.74,0.14,1.12,0.15c1.7,0.21,3.32-0.33,4.7-1.3c0.67-0.47,1.27-1.03,1.85-1.6c0.6-0.58,1.13-1.3,1.84-1.75
		c0.71-0.45,1.59-0.51,2.41-0.58c0.33-0.03,1.53,0.1,1.77-0.2C23.1,8.59,21.81,7.97,21.04,7.62z"/>
	<path d="M45.37,9.21c0.2,0.01,0.4,0.03,0.6,0.05c0.19,0.01,0.39,0.02,0.58,0c0.11-0.01,0.39-0.02,0.44-0.15
		c0.05-0.13-0.56-0.41-0.67-0.47c-0.26-0.15-0.52-0.28-0.79-0.42c-0.47-0.23-0.96-0.44-1.46-0.61c-0.88-0.29-1.8-0.46-2.73-0.4
		c-0.85,0.06-1.67,0.3-2.44,0.66c-0.87,0.41-1.66,0.95-2.43,1.53c-0.92,0.69-1.8,1.44-2.68,2.18c-0.3,0.26-0.67,0.47-1.02,0.66
		c-0.36,0.19-0.75,0.34-1.15,0.42c-0.29,0.05-0.58,0.07-0.87,0.03c-0.15-0.02-0.3-0.05-0.44-0.1c-0.07-0.02-0.13-0.04-0.19-0.08
		c-0.06-0.04-0.13-0.09-0.21-0.1c-0.19-0.02,0.08,0.25,0.12,0.29c0.13,0.14,0.27,0.26,0.42,0.38c0.3,0.23,0.63,0.42,0.98,0.56
		c0.24,0.09,0.48,0.16,0.73,0.2c2.59,0.39,5.2-0.81,7.18-2.39c1.62-1.21,3.31-2.41,5.44-2.25C45,9.22,45.19,9.2,45.37,9.21z"/>
	<path d="M32.9,8.79c0.6-0.26,1.21-0.49,1.84-0.65C35.06,8.07,35.38,8,35.7,7.96c0.16-0.02,0.33-0.04,0.49-0.05
		c0.2-0.01,0.38,0,0.58,0c0.08,0,0.17,0,0.25,0c0.06,0,0.17,0.02,0.21-0.03c0.05-0.06-0.05-0.13-0.19-0.2
		c-0.2-0.09-0.49-0.17-0.54-0.18c-0.32-0.09-0.64-0.16-0.97-0.21c-0.66-0.1-1.34-0.11-2-0.03c-0.65,0.08-1.29,0.23-1.92,0.44
		c-0.64,0.21-1.25,0.48-1.85,0.78c-0.62,0.31-1.22,0.64-1.81,0.99c-0.6,0.35-1.19,0.71-1.79,1.06c-0.59,0.35-1.19,0.68-1.8,0.99
		c-0.59,0.3-1.19,0.57-1.82,0.79c-0.21,0.07-0.45,0.1-0.67,0.11c-0.23,0.01-0.45,0-0.68-0.04c-0.13-0.02-0.25-0.04-0.38-0.08
		c-0.06-0.02-0.12-0.04-0.18-0.06c-0.04-0.01-0.11-0.06-0.13-0.01c-0.02,0.04,0.06,0.08,0.09,0.1c0.05,0.03,0.11,0.07,0.16,0.1
		c0.19,0.12,0.37,0.23,0.57,0.33c0.34,0.16,0.73,0.23,1.11,0.26c0.53,0.05,1.07,0.01,1.6-0.07c0.63-0.09,1.26-0.27,1.86-0.49
		c0.61-0.23,1.2-0.5,1.78-0.8c0.59-0.31,1.16-0.64,1.74-0.98c0.58-0.34,1.15-0.68,1.73-1.01C31.71,9.37,32.3,9.06,32.9,8.79z"/>
	<path d="M54.94,9.21c0.65-0.45,1.34-0.83,2.09-1.08C57.4,8,57.78,7.91,58.17,7.85c0.11-0.02,0.89,0,0.91-0.14
		c0.05-0.32-1.28-0.32-1.47-0.32c-0.66,0-1.33,0.08-1.97,0.27c-0.85,0.25-1.67,0.68-2.44,1.1c-0.76,0.42-1.49,0.87-2.24,1.32
		c-0.73,0.44-1.47,0.94-2.26,1.25c-0.37,0.15-0.76,0.25-1.15,0.35c-0.82,0.21-1.66,0.42-2.5,0.41c-0.24,0-0.48-0.03-0.7-0.13
		c-0.1-0.05-0.4-0.28-0.48-0.08c-0.04,0.09,0.1,0.16,0.16,0.19c0.26,0.15,0.53,0.29,0.8,0.4c0.47,0.19,0.95,0.27,1.46,0.32
		c2.79,0.24,5.34-1.06,7.51-2.7C54.17,9.81,54.53,9.49,54.94,9.21z"/>
	<path d="M69.45,8.55c0.04-0.18-0.22-0.31-0.35-0.38c-0.13-0.07-0.25-0.15-0.38-0.22c-0.72-0.4-1.47-0.72-2.3-0.81
		c-0.83-0.09-1.67,0-2.47,0.25c-2.03,0.78-3.47,2.57-5.36,3.66c-1.4,0.81-3.06,1.22-4.68,1.23c-0.16,0-0.31,0-0.47-0.02
		c-0.1-0.01-0.29-0.05-0.37,0.03c-0.14,0.14,0.62,0.5,0.71,0.55c0.36,0.21,0.73,0.41,1.1,0.6c0.75,0.36,1.55,0.64,2.38,0.69
		c0.07,0,0.14,0,0.2,0.01c3.56,0.44,5.91-2.16,8.06-4.48c0.24-0.25,0.69-0.41,1.01-0.52c0.36-0.11,0.74-0.18,1.11-0.22
		c0.39-0.04,0.78-0.06,1.16-0.1C69.03,8.8,69.39,8.83,69.45,8.55z"/>
	<path d="M93.4,8.68c-0.26-0.15-0.52-0.29-0.79-0.42c-0.47-0.24-0.96-0.45-1.46-0.62C90,7.24,88.78,7.08,87.57,7.33
		c-1.17,0.24-2.24,0.82-3.22,1.48c-1.24,0.84-2.37,1.82-3.51,2.78c-0.98,0.82-2.29,1.33-3.55,1.01c-0.12-0.03-0.26-0.04-0.22,0.14
		c0.15,0.09,0.27,0.22,0.41,0.33c0.16,0.13,0.34,0.25,0.53,0.35c0.37,0.21,0.79,0.35,1.21,0.42c2.59,0.39,5.2-0.81,7.18-2.39
		C88,10.24,89.7,9.04,91.83,9.2c0.39,0.03,0.79,0.04,1.19,0.06c0.15,0.01,0.87,0.08,0.91-0.14C93.97,8.94,93.51,8.74,93.4,8.68z"/>
	<path d="M81.83,8.13c0.32-0.08,0.64-0.14,0.96-0.18c0.32-0.04,0.64-0.01,0.95-0.06c0.1-0.02,0.2,0,0.3-0.01
		c0.08-0.01,0.17-0.04,0.13-0.12c-0.04-0.09-0.3-0.14-0.39-0.17c-0.16-0.05-0.32-0.1-0.48-0.14c-0.31-0.08-0.63-0.14-0.95-0.18
		c-0.61-0.08-1.23-0.07-1.83,0c-1.32,0.16-2.57,0.64-3.76,1.23c-1.23,0.62-2.41,1.35-3.59,2.04c-1.15,0.68-2.33,1.33-3.6,1.78
		c-0.32,0.11-0.7,0.13-1.03,0.09c-0.1-0.01-0.57-0.1-0.59,0.05c-0.02,0.17,0.37,0.32,0.48,0.35c0.34,0.1,0.66,0.2,1.02,0.22
		c1.22,0.08,2.42-0.16,3.56-0.59c1.23-0.47,2.37-1.13,3.5-1.79c1.14-0.67,2.28-1.36,3.49-1.89C80.59,8.5,81.2,8.28,81.83,8.13z"/>
</g>
</svg>
