<?xml version="1.0" encoding="utf-8"?>
<!-- Generator: Adobe Illustrator 23.0.0, SVG Export Plug-In . SVG Version: 6.00 Build 0)  -->
<svg version="1.1" id="Слой_1" xmlns="http://www.w3.org/2000/svg" xmlns:xlink="http://www.w3.org/1999/xlink" x="0px" y="0px"
	 viewBox="0 0 100 21.28" style="enable-background:new 0 0 100 21.28;" xml:space="preserve">
<g>
	<path d="M93.01,8.46c-2.51,1.32-3.84,5.68-7.17,3.09c-1.45-1.26-2.57-3.64-4.79-3.56c-2.29,0.16-3.4,2.7-5.11,3.95
		c-1.75,0.74-3.38-0.93-4.56-2.04c-2.54-2.75-3.92-2.57-6.46,0.03c-1.03,0.97-2.05,2.21-3.62,2.15c-2.39-0.65-3.45-3.8-6.04-3.98
		c-2.33-0.4-3.4,2.27-5.1,3.35c-0.92,0.68-2.27,0.65-3.14-0.11c-3.68-3.67-5.25-4.83-9.07-0.45c-0.74,0.56-1.68,1.61-2.74,1.23
		c-1.05-0.37-1.82-1-2.6-1.77c-0.75-0.74-1.49-1.58-2.46-2.05c-2.07-0.99-3.57,0.74-4.76,2.16c-1.02,1.22-2.83,2.15-4.36,1.18
		c-0.53-0.34-0.95-0.94-1.38-1.4c-0.77-0.84-1.6-1.81-2.71-2.19c-1.26-0.44-2.5,0.17-3.5,0.93c-1.26,1.03-2.11,2.49-3.74,3.08
		c-0.61,0.13-1.35,0.15-1.9-0.16c-0.34-0.24-0.66-0.64-1.03-0.86c-0.61-0.33-1.07,0.59-0.5,0.9c0.75,0.8,1.73,1.36,2.87,1.23
		c2.75-0.08,3.84-3.15,6.19-4.07c2.45-0.89,3.46,2.57,5.28,3.53c1.34,0.7,2.8,0.52,4.06-0.27c0.61-0.38,1.16-0.87,1.65-1.4
		c0.46-0.49,0.82-1.15,1.39-1.53c0.02-0.01,0.04-0.03,0.07-0.04c0.53-0.33,1.17-0.44,1.77-0.23c0.66,0.22,1.08,0.77,1.57,1.22
		c0.56,0.52,1.1,1.06,1.69,1.54c1.06,0.87,2.51,1.67,3.89,1.09c1.39-0.58,2.4-1.81,3.41-2.87c0.68-0.45,1.45-1.33,2.35-1.04
		c2.09,0.58,3.03,2.9,5,3.64c1.46,0.57,2.79-0.01,3.92-0.97c0.56-0.48,1.07-1.03,1.61-1.54c0.5-0.49,1.01-1.12,1.76-1.14
		c0.79-0.02,1.62,0.28,2.13,0.89c1.73,1.68,3.93,4.2,6.53,2.61c5.15-3.81,3.43-5.61,8.87-0.51c3.56,2.51,4.74,0.25,7.17-2.15
		c3.15-3.24,4.76,3.35,7.91,3.39c3.01,0.6,4.16-3.1,6.52-4.15C94.34,8.55,93.52,8.02,93.01,8.46z"/>
	<path d="M7.95,9.67c0.59,0.49,1.37,0.64,2.08,0.31c0.61-0.29,1.08-0.91,0.82-1.62C10.62,7.89,9.94,7.77,9.61,8.2
		C9.27,8.52,9.02,9.11,8.49,9.06c-0.24-0.02-0.45-0.23-0.71-0.2C7.21,8.96,7.72,9.48,7.95,9.67z"/>
	<path d="M14.93,11.1c-0.14,0.07-0.27,0.16-0.39,0.26c-0.19,0.17-0.51,0.49-0.3,0.76c0.14,0.12,0.4-0.02,0.46-0.11
		c0.73-0.59,1.2,0.56,1.73,0.9c0.29,0.19,0.83,0.24,1.1,0.01c0.24-0.2,0.26-0.55,0.19-0.84C17.42,10.91,15.91,10.63,14.93,11.1z"/>
	<path d="M20.69,9.67c0.59,0.49,1.37,0.64,2.08,0.31c0.61-0.29,1.08-0.91,0.82-1.62c-0.23-0.48-0.91-0.59-1.24-0.16
		c-0.34,0.32-0.58,0.91-1.12,0.86c-0.24-0.02-0.45-0.23-0.71-0.2C19.96,8.96,20.47,9.48,20.69,9.67z"/>
	<path d="M27.67,11.1c-0.14,0.07-0.27,0.16-0.39,0.26c-0.19,0.17-0.51,0.49-0.3,0.76c0.14,0.12,0.4-0.02,0.46-0.11
		c0.73-0.59,1.2,0.56,1.73,0.9c0.29,0.19,0.83,0.24,1.1,0.01c0.24-0.2,0.26-0.55,0.19-0.84C30.17,10.91,28.66,10.63,27.67,11.1z"/>
	<path d="M33.44,9.67c0.59,0.49,1.37,0.64,2.08,0.31c0.61-0.29,1.08-0.91,0.82-1.62c-0.23-0.48-0.91-0.59-1.24-0.16
		c-0.34,0.32-0.58,0.91-1.12,0.86c-0.24-0.02-0.45-0.23-0.71-0.2C32.71,8.96,33.21,9.48,33.44,9.67z"/>
	<path d="M40.42,11.1c-0.14,0.07-0.27,0.16-0.39,0.26c-0.19,0.17-0.51,0.49-0.3,0.76c0.14,0.12,0.4-0.02,0.46-0.11
		c0.73-0.59,1.2,0.56,1.73,0.9c0.29,0.19,0.83,0.24,1.1,0.01c0.24-0.2,0.26-0.55,0.19-0.84C42.91,10.91,41.41,10.63,40.42,11.1z"/>
	<path d="M47.12,9.67c0.59,0.49,1.37,0.64,2.08,0.31c0.61-0.29,1.08-0.91,0.82-1.62c-0.23-0.48-0.91-0.59-1.24-0.16
		c-0.34,0.32-0.58,0.91-1.12,0.86c-0.24-0.02-0.45-0.23-0.71-0.2C46.38,8.96,46.89,9.48,47.12,9.67z"/>
	<path d="M54.1,11.1c-0.14,0.07-0.27,0.16-0.39,0.26c-0.19,0.17-0.51,0.49-0.3,0.76c0.14,0.12,0.4-0.02,0.46-0.11
		c0.73-0.59,1.2,0.56,1.73,0.9c0.29,0.19,0.83,0.24,1.1,0.01c0.24-0.2,0.26-0.55,0.19-0.84C56.59,10.91,55.09,10.63,54.1,11.1z"/>
	<path d="M59.82,9.67c0.59,0.49,1.37,0.64,2.08,0.31c0.61-0.29,1.08-0.91,0.82-1.62c-0.23-0.48-0.91-0.59-1.24-0.16
		c-0.34,0.32-0.58,0.91-1.12,0.86c-0.24-0.02-0.45-0.23-0.71-0.2C59.08,8.96,59.59,9.48,59.82,9.67z"/>
	<path d="M66.8,11.1c-0.14,0.07-0.27,0.16-0.39,0.26c-0.19,0.17-0.51,0.49-0.3,0.76c0.14,0.12,0.4-0.02,0.46-0.11
		c0.73-0.59,1.2,0.56,1.73,0.9c0.29,0.19,0.83,0.24,1.1,0.01c0.24-0.2,0.26-0.55,0.19-0.84C69.29,10.91,67.79,10.63,66.8,11.1z"/>
	<path d="M73.14,9.67c0.59,0.49,1.37,0.64,2.08,0.31c0.61-0.29,1.08-0.91,0.82-1.62c-0.23-0.48-0.91-0.59-1.24-0.16
		c-0.34,0.32-0.58,0.91-1.12,0.86c-0.24-0.02-0.45-0.23-0.71-0.2C72.41,8.96,72.92,9.48,73.14,9.67z"/>
	<path d="M86.33,9.67c0.59,0.49,1.37,0.64,2.08,0.31c0.61-0.29,1.08-0.91,0.82-1.62C89,7.89,88.33,7.77,87.99,8.2
		c-0.34,0.32-0.58,0.91-1.12,0.86c-0.24-0.02-0.45-0.23-0.71-0.2C85.6,8.96,86.1,9.48,86.33,9.67z"/>
	<path d="M80.12,11.1c-0.14,0.07-0.27,0.16-0.39,0.26c-0.19,0.17-0.51,0.49-0.3,0.76c0.14,0.12,0.4-0.02,0.46-0.11
		c0.73-0.59,1.2,0.56,1.73,0.9c0.29,0.19,0.83,0.24,1.1,0.01c0.24-0.2,0.26-0.55,0.19-0.84C82.62,10.91,81.11,10.63,80.12,11.1z"/>
</g>
</svg>
