<?xml version="1.0" encoding="utf-8"?>
<!-- Generator: Adobe Illustrator 23.0.0, SVG Export Plug-In . SVG Version: 6.00 Build 0)  -->
<svg version="1.1" id="Слой_1" xmlns="http://www.w3.org/2000/svg" xmlns:xlink="http://www.w3.org/1999/xlink" x="0px" y="0px"
	 viewBox="0 0 100 21.28" style="enable-background:new 0 0 100 21.28;" xml:space="preserve">
<g>
	<path d="M21.75,14.2c-2.24-3.17-4.59-6.31-6.99-9.33c-0.37-0.26-0.83-0.06-1.05,0.3c-1.38,1.89-2.9,3.68-4.21,5.61
		c-1.14,1.68-2.22,3.36-3.36,5.04c-0.3,0.51,0.45,0.99,0.79,0.53c2.3-3.59,4.81-7.15,7.47-10.53c2.5,3.51,5.19,6.86,7.65,10.41
		c0.43,0.43,1.1-0.25,0.67-0.67C22.35,15.15,22.08,14.67,21.75,14.2z"/>
	<path d="M34.22,6.52c0.16-0.2,0.14-0.5-0.06-0.67c-0.19-0.16-0.51-0.15-0.66,0.06c-0.06,0.07-0.11,0.14-0.17,0.21
		c-0.78,0.98-1.57,1.95-2.36,2.92c-1.13,1.39-2.25,2.79-3.37,4.18c-0.45,0.56-0.9,1.12-1.35,1.68c-0.1,0.13-0.21,0.26-0.31,0.39
		c-0.45-0.67-0.9-1.35-1.35-2.02c-0.96-1.43-1.91-2.87-2.87-4.3c-0.82-1.23-1.65-2.46-2.47-3.69c-0.14-0.21-0.45-0.26-0.66-0.12
		c-0.21,0.15-0.26,0.44-0.12,0.66c0.53,0.8,1.07,1.6,1.6,2.39c1.01,1.51,2.01,3.02,3.02,4.53c0.46,0.69,0.92,1.38,1.38,2.07
		c0.21,0.31,0.42,0.63,0.63,0.94c0.09,0.14,0.18,0.3,0.29,0.42c0.14,0.17,0.3,0.36,0.52,0.36c0.04,0,0.07,0,0.11-0.02
		c0.14-0.04,0.25-0.12,0.31-0.24c0.02-0.03,0.05-0.06,0.07-0.09c0.8-0.99,1.59-1.98,2.39-2.97c1.15-1.43,2.3-2.85,3.45-4.28
		C32.92,8.13,33.57,7.33,34.22,6.52z"/>
	<path d="M45.44,14.2c-2.24-3.17-4.59-6.31-6.99-9.33c-0.37-0.26-0.83-0.06-1.05,0.3c-1.38,1.89-2.9,3.68-4.21,5.61
		c-1.14,1.68-2.22,3.36-3.36,5.04c-0.3,0.51,0.45,0.99,0.79,0.53c2.3-3.59,4.81-7.15,7.47-10.53c2.5,3.51,5.19,6.86,7.65,10.41
		c0.43,0.43,1.1-0.25,0.67-0.67C46.04,15.15,45.77,14.67,45.44,14.2z"/>
	<path d="M57.91,6.52c0.16-0.2,0.14-0.5-0.06-0.67c-0.19-0.16-0.51-0.15-0.66,0.06c-0.06,0.07-0.11,0.14-0.17,0.21
		c-0.78,0.98-1.57,1.95-2.36,2.92c-1.13,1.39-2.25,2.79-3.37,4.18c-0.45,0.56-0.9,1.12-1.35,1.68c-0.1,0.13-0.21,0.26-0.31,0.39
		c-0.45-0.67-0.9-1.35-1.35-2.02c-0.96-1.43-1.91-2.87-2.87-4.3c-0.82-1.23-1.65-2.46-2.47-3.69c-0.14-0.21-0.45-0.26-0.66-0.12
		c-0.21,0.15-0.26,0.44-0.12,0.66c0.53,0.8,1.07,1.6,1.6,2.39c1.01,1.51,2.01,3.02,3.02,4.53c0.46,0.69,0.92,1.38,1.38,2.07
		c0.21,0.31,0.42,0.63,0.63,0.94c0.09,0.14,0.18,0.3,0.29,0.42c0.14,0.17,0.3,0.36,0.52,0.36c0.04,0,0.07,0,0.11-0.02
		c0.14-0.04,0.25-0.12,0.31-0.24c0.02-0.03,0.05-0.06,0.07-0.09c0.8-0.99,1.59-1.98,2.39-2.97c1.15-1.43,2.3-2.85,3.45-4.28
		C56.61,8.13,57.26,7.33,57.91,6.52z"/>
	<path d="M69.13,14.2c-2.24-3.17-4.59-6.31-6.99-9.33c-0.37-0.26-0.83-0.06-1.05,0.3c-1.38,1.89-2.9,3.68-4.21,5.61
		c-1.14,1.68-2.22,3.36-3.36,5.04c-0.3,0.51,0.45,0.99,0.79,0.53c2.3-3.59,4.81-7.15,7.47-10.53c2.5,3.51,5.19,6.86,7.65,10.41
		c0.43,0.43,1.1-0.25,0.67-0.67C69.73,15.15,69.46,14.67,69.13,14.2z"/>
	<path d="M81.6,6.52c0.16-0.2,0.14-0.5-0.06-0.67c-0.19-0.16-0.51-0.15-0.66,0.06c-0.06,0.07-0.11,0.14-0.17,0.21
		c-0.78,0.98-1.57,1.95-2.36,2.92c-1.13,1.39-2.25,2.79-3.37,4.18c-0.45,0.56-0.9,1.12-1.35,1.68c-0.1,0.13-0.21,0.26-0.31,0.39
		c-0.45-0.67-0.9-1.35-1.35-2.02c-0.96-1.43-1.91-2.87-2.87-4.3c-0.82-1.23-1.65-2.46-2.47-3.69c-0.14-0.21-0.45-0.26-0.66-0.12
		c-0.21,0.15-0.26,0.44-0.12,0.66c0.53,0.8,1.07,1.6,1.6,2.39c1.01,1.51,2.01,3.02,3.02,4.53c0.46,0.69,0.92,1.38,1.38,2.07
		c0.21,0.31,0.42,0.63,0.63,0.94c0.09,0.14,0.18,0.3,0.29,0.42c0.14,0.17,0.3,0.36,0.52,0.36c0.04,0,0.07,0,0.11-0.02
		c0.14-0.04,0.25-0.12,0.31-0.24c0.02-0.03,0.05-0.06,0.07-0.09c0.8-0.99,1.59-1.98,2.39-2.97c1.15-1.43,2.3-2.85,3.45-4.28
		C80.3,8.13,80.95,7.33,81.6,6.52z"/>
	<path d="M93.79,15.55c-0.37-0.4-0.64-0.89-0.97-1.35c-2.24-3.17-4.59-6.31-6.99-9.33C85.46,4.6,85,4.81,84.78,5.16
		c-1.38,1.89-2.9,3.68-4.21,5.61c-1.14,1.68-2.22,3.36-3.36,5.04c-0.3,0.51,0.45,0.99,0.79,0.53c2.3-3.59,4.81-7.15,7.47-10.53
		c2.5,3.51,5.19,6.86,7.65,10.41C93.56,16.65,94.22,15.97,93.79,15.55z"/>
</g>
</svg>
