<?xml version="1.0" encoding="utf-8"?>
<!-- Generator: Adobe Illustrator 23.0.0, SVG Export Plug-In . SVG Version: 6.00 Build 0)  -->
<svg version="1.1" id="Слой_1" xmlns="http://www.w3.org/2000/svg" xmlns:xlink="http://www.w3.org/1999/xlink" x="0px" y="0px"
	 viewBox="0 0 100 21.28" style="enable-background:new 0 0 100 21.28;" xml:space="preserve">
<g>
	<path d="M12.53,4.82c-0.19,0-0.34,0.13-0.43,0.28c-1.9,3.42-3.69,6.29-5.62,9.75c-0.24,0.44-0.84,1.18-0.21,1.56
		c0.23,0.12,0.57,0.03,0.68-0.22c0.97-2.06,2.16-4.02,3.32-5.98C10.57,9.43,14.26,4.82,12.53,4.82z"/>
	<path d="M17.92,5.47c0.06-0.27-0.21-0.5-0.46-0.49c-0.31,0.01-0.47,0.23-0.61,0.47c-0.73,1.24-1.42,2.48-2.21,3.7
		c-1.17,1.79-1.94,3.5-3.21,5.55c-0.27,0.43-0.84,1.13-0.28,1.56c0.4,0.13,0.68-0.16,0.87-0.47c0.41-0.66,0.75-1.37,1.13-2.05
		c0.39-0.7,0.79-1.39,1.2-2.08c1.18-1.98,2.38-3.95,3.49-5.97C17.87,5.62,17.91,5.55,17.92,5.47z"/>
	<path d="M22.51,5.48c-0.07,0.05-0.12,0.12-0.17,0.19c-0.53,0.81-0.97,1.67-1.5,2.48c-0.33,0.5-0.61,1.06-0.9,1.59
		c-0.57,1.05-1.11,2.12-1.64,3.18c-0.27,0.53-0.53,1.07-0.8,1.6c-0.13,0.27-0.27,0.53-0.4,0.8c-0.11,0.21-0.29,0.43-0.27,0.67
		c0.02,0.2,0.13,0.34,0.27,0.41c0.19,0.09,0.44,0.06,0.6-0.12c0.25-0.26,0.32-0.64,0.51-0.94c0.48-1.03,0.99-2.04,1.52-3.04
		c1.1-2.09,2.25-4.17,3.44-6.2C23.39,5.72,22.88,5.25,22.51,5.48z"/>
	<path d="M27.74,4.82c-0.19,0-0.34,0.13-0.43,0.28c-1.9,3.42-3.69,6.29-5.62,9.75c-0.24,0.44-0.84,1.18-0.21,1.56
		c0.23,0.12,0.57,0.03,0.68-0.22c0.97-2.06,2.16-4.02,3.32-5.98C25.79,9.43,29.48,4.82,27.74,4.82z"/>
	<path d="M33.14,5.47c0.06-0.27-0.21-0.5-0.46-0.49c-0.31,0.01-0.47,0.23-0.61,0.47c-0.73,1.24-1.42,2.48-2.21,3.7
		c-1.17,1.79-1.94,3.5-3.21,5.55c-0.27,0.43-0.84,1.13-0.28,1.56c0.4,0.13,0.68-0.16,0.87-0.47c0.41-0.66,0.75-1.37,1.13-2.05
		c0.39-0.7,0.79-1.39,1.2-2.08c1.18-1.98,2.38-3.95,3.49-5.97C33.08,5.62,33.12,5.55,33.14,5.47z"/>
	<path d="M37.72,5.48c-0.07,0.05-0.12,0.12-0.17,0.19c-0.53,0.81-0.97,1.67-1.5,2.48c-0.33,0.5-0.61,1.06-0.9,1.59
		c-0.57,1.05-1.11,2.12-1.64,3.18c-0.27,0.53-0.53,1.07-0.8,1.6c-0.13,0.27-0.27,0.53-0.4,0.8c-0.11,0.21-0.29,0.43-0.27,0.67
		c0.02,0.2,0.13,0.34,0.27,0.41c0.19,0.09,0.44,0.06,0.6-0.12c0.25-0.26,0.32-0.64,0.51-0.94c0.48-1.03,0.99-2.04,1.52-3.04
		c1.1-2.09,2.25-4.17,3.44-6.2C38.61,5.72,38.1,5.25,37.72,5.48z"/>
	<path d="M42.96,4.82c-0.19,0-0.34,0.13-0.43,0.28c-1.9,3.42-3.69,6.29-5.62,9.75c-0.24,0.44-0.84,1.18-0.21,1.56
		c0.23,0.12,0.57,0.03,0.68-0.22c0.97-2.06,2.16-4.02,3.32-5.98C41,9.43,44.69,4.82,42.96,4.82z"/>
	<path d="M48.35,5.47c0.06-0.27-0.21-0.5-0.46-0.49c-0.31,0.01-0.47,0.23-0.61,0.47c-0.73,1.24-1.42,2.48-2.21,3.7
		c-1.17,1.79-1.94,3.5-3.21,5.55c-0.27,0.43-0.84,1.13-0.28,1.56c0.4,0.13,0.68-0.16,0.87-0.47c0.41-0.66,0.75-1.37,1.13-2.05
		c0.39-0.7,0.79-1.39,1.2-2.08c1.18-1.98,2.38-3.95,3.49-5.97C48.3,5.62,48.34,5.55,48.35,5.47z"/>
	<path d="M52.94,5.48c-0.07,0.05-0.12,0.12-0.17,0.19c-0.53,0.81-0.97,1.67-1.5,2.48c-0.33,0.5-0.61,1.06-0.9,1.59
		c-0.57,1.05-1.11,2.12-1.64,3.18c-0.27,0.53-0.53,1.07-0.8,1.6c-0.13,0.27-0.27,0.53-0.4,0.8c-0.11,0.21-0.29,0.43-0.27,0.67
		c0.02,0.2,0.13,0.34,0.27,0.41c0.19,0.09,0.44,0.06,0.6-0.12c0.25-0.26,0.32-0.64,0.51-0.94c0.48-1.03,0.99-2.04,1.52-3.04
		c1.1-2.09,2.25-4.17,3.44-6.2C53.82,5.72,53.31,5.25,52.94,5.48z"/>
	<path d="M58.17,4.82c-0.19,0-0.34,0.13-0.43,0.28c-1.9,3.42-3.69,6.29-5.62,9.75c-0.24,0.44-0.84,1.18-0.21,1.56
		c0.23,0.12,0.57,0.03,0.68-0.22c0.97-2.06,2.16-4.02,3.32-5.98C56.22,9.43,59.91,4.82,58.17,4.82z"/>
	<path d="M63.57,5.47c0.06-0.27-0.21-0.5-0.46-0.49c-0.31,0.01-0.47,0.23-0.61,0.47c-0.73,1.24-1.42,2.48-2.21,3.7
		c-1.17,1.79-1.94,3.5-3.21,5.55c-0.27,0.43-0.84,1.13-0.28,1.56c0.4,0.13,0.68-0.16,0.87-0.47c0.41-0.66,0.75-1.37,1.13-2.05
		c0.39-0.7,0.79-1.39,1.2-2.08c1.18-1.98,2.38-3.95,3.49-5.97C63.51,5.62,63.55,5.55,63.57,5.47z"/>
	<path d="M68.15,5.48c-0.07,0.05-0.12,0.12-0.17,0.19c-0.53,0.81-0.97,1.67-1.5,2.48c-0.33,0.5-0.61,1.06-0.9,1.59
		c-0.57,1.05-1.11,2.12-1.64,3.18c-0.27,0.53-0.53,1.07-0.8,1.6c-0.13,0.27-0.27,0.53-0.4,0.8c-0.11,0.21-0.29,0.43-0.27,0.67
		c0.02,0.2,0.13,0.34,0.27,0.41c0.19,0.09,0.44,0.06,0.6-0.12c0.25-0.26,0.32-0.64,0.51-0.94c0.48-1.03,0.99-2.04,1.52-3.04
		c1.1-2.09,2.25-4.17,3.44-6.2C69.04,5.72,68.53,5.25,68.15,5.48z"/>
	<path d="M73.39,4.82c-0.19,0-0.34,0.13-0.43,0.28c-1.9,3.42-3.69,6.29-5.62,9.75c-0.24,0.44-0.84,1.18-0.21,1.56
		c0.23,0.12,0.57,0.03,0.68-0.22c0.97-2.06,2.16-4.02,3.32-5.98C71.43,9.43,75.12,4.82,73.39,4.82z"/>
	<path d="M78.78,5.47c0.06-0.27-0.21-0.5-0.46-0.49c-0.31,0.01-0.47,0.23-0.61,0.47c-0.73,1.24-1.42,2.48-2.21,3.7
		c-1.17,1.79-1.94,3.5-3.21,5.55c-0.27,0.43-0.84,1.13-0.28,1.56c0.4,0.13,0.68-0.16,0.87-0.47c0.41-0.66,0.75-1.37,1.13-2.05
		c0.39-0.7,0.79-1.39,1.2-2.08c1.18-1.98,2.38-3.95,3.49-5.97C78.73,5.62,78.77,5.55,78.78,5.47z"/>
	<path d="M83.37,5.48c-0.07,0.05-0.12,0.12-0.17,0.19c-0.53,0.81-0.97,1.67-1.5,2.48c-0.33,0.5-0.61,1.06-0.9,1.59
		c-0.57,1.05-1.11,2.12-1.64,3.18c-0.27,0.53-0.53,1.07-0.8,1.6c-0.13,0.27-0.27,0.53-0.4,0.8c-0.11,0.21-0.29,0.43-0.27,0.67
		c0.02,0.2,0.13,0.34,0.27,0.41c0.19,0.09,0.44,0.06,0.6-0.12c0.25-0.26,0.32-0.64,0.51-0.94c0.48-1.03,0.99-2.04,1.52-3.04
		c1.1-2.09,2.25-4.17,3.44-6.2C84.25,5.72,83.74,5.25,83.37,5.48z"/>
	<path d="M88.6,4.82c-0.19,0-0.34,0.13-0.43,0.28c-1.9,3.42-3.69,6.29-5.62,9.75c-0.24,0.44-0.84,1.18-0.21,1.56
		c0.23,0.12,0.57,0.03,0.68-0.22c0.97-2.06,2.16-4.02,3.32-5.98C86.65,9.43,90.34,4.82,88.6,4.82z"/>
	<path d="M93.54,4.98c-0.31,0.01-0.47,0.23-0.61,0.47c-0.73,1.24-1.42,2.48-2.21,3.7c-1.17,1.79-1.94,3.5-3.21,5.55
		c-0.27,0.43-0.84,1.13-0.28,1.56c0.4,0.13,0.68-0.16,0.87-0.47c0.41-0.66,0.75-1.37,1.13-2.05c0.39-0.7,0.79-1.39,1.2-2.08
		c1.18-1.98,2.38-3.95,3.49-5.97c0.04-0.07,0.08-0.14,0.09-0.22C94.06,5.2,93.79,4.97,93.54,4.98z"/>
</g>
</svg>
