<?xml version="1.0" encoding="utf-8"?>
<!-- Generator: Adobe Illustrator 23.0.0, SVG Export Plug-In . SVG Version: 6.00 Build 0)  -->
<svg version="1.1" id="Слой_1" xmlns="http://www.w3.org/2000/svg" xmlns:xlink="http://www.w3.org/1999/xlink" x="0px" y="0px"
	 viewBox="0 0 100 21.28" style="enable-background:new 0 0 100 21.28;" xml:space="preserve">
<g>
	<path d="M7.67,9.72c-0.51,0-0.92,0.41-0.92,0.92c0,0.51,0.41,0.92,0.92,0.92c0.51,0,0.92-0.41,0.92-0.92
		C8.59,10.13,8.18,9.72,7.67,9.72z"/>
	<path d="M12.65,9.72c-0.51,0-0.92,0.41-0.92,0.92c0,0.51,0.41,0.92,0.92,0.92c0.51,0,0.92-0.41,0.92-0.92
		C13.57,10.13,13.16,9.72,12.65,9.72z"/>
	<path d="M17.63,9.72c-0.51,0-0.92,0.41-0.92,0.92c0,0.51,0.41,0.92,0.92,0.92s0.92-0.41,0.92-0.92
		C18.55,10.13,18.14,9.72,17.63,9.72z"/>
	<path d="M22.61,9.72c-0.51,0-0.92,0.41-0.92,0.92c0,0.51,0.41,0.92,0.92,0.92s0.92-0.41,0.92-0.92
		C23.53,10.13,23.12,9.72,22.61,9.72z"/>
	<path d="M27.59,9.72c-0.51,0-0.92,0.41-0.92,0.92c0,0.51,0.41,0.92,0.92,0.92c0.51,0,0.92-0.41,0.92-0.92
		C28.51,10.13,28.1,9.72,27.59,9.72z"/>
	<path d="M32.57,9.72c-0.51,0-0.92,0.41-0.92,0.92c0,0.51,0.41,0.92,0.92,0.92s0.92-0.41,0.92-0.92
		C33.49,10.13,33.08,9.72,32.57,9.72z"/>
	<path d="M37.55,9.72c-0.51,0-0.92,0.41-0.92,0.92c0,0.51,0.41,0.92,0.92,0.92s0.92-0.41,0.92-0.92
		C38.47,10.13,38.06,9.72,37.55,9.72z"/>
	<path d="M42.53,9.72c-0.51,0-0.92,0.41-0.92,0.92c0,0.51,0.41,0.92,0.92,0.92c0.51,0,0.92-0.41,0.92-0.92
		C43.45,10.13,43.04,9.72,42.53,9.72z"/>
	<path d="M47.51,9.72c-0.51,0-0.92,0.41-0.92,0.92c0,0.51,0.41,0.92,0.92,0.92c0.51,0,0.92-0.41,0.92-0.92
		C48.43,10.13,48.02,9.72,47.51,9.72z"/>
	<path d="M52.49,9.72c-0.51,0-0.92,0.41-0.92,0.92c0,0.51,0.41,0.92,0.92,0.92s0.92-0.41,0.92-0.92C53.41,10.13,53,9.72,52.49,9.72z
		"/>
	<path d="M57.47,9.72c-0.51,0-0.92,0.41-0.92,0.92c0,0.51,0.41,0.92,0.92,0.92s0.92-0.41,0.92-0.92
		C58.39,10.13,57.98,9.72,57.47,9.72z"/>
	<path d="M62.45,9.72c-0.51,0-0.92,0.41-0.92,0.92c0,0.51,0.41,0.92,0.92,0.92c0.51,0,0.92-0.41,0.92-0.92
		C63.37,10.13,62.96,9.72,62.45,9.72z"/>
	<path d="M67.43,9.72c-0.51,0-0.92,0.41-0.92,0.92c0,0.51,0.41,0.92,0.92,0.92s0.92-0.41,0.92-0.92
		C68.35,10.13,67.94,9.72,67.43,9.72z"/>
	<path d="M72.41,9.72c-0.51,0-0.92,0.41-0.92,0.92c0,0.51,0.41,0.92,0.92,0.92s0.92-0.41,0.92-0.92
		C73.33,10.13,72.92,9.72,72.41,9.72z"/>
	<path d="M77.39,9.72c-0.51,0-0.92,0.41-0.92,0.92c0,0.51,0.41,0.92,0.92,0.92c0.51,0,0.92-0.41,0.92-0.92
		C78.31,10.13,77.9,9.72,77.39,9.72z"/>
	<path d="M82.37,9.72c-0.51,0-0.92,0.41-0.92,0.92c0,0.51,0.41,0.92,0.92,0.92s0.92-0.41,0.92-0.92
		C83.29,10.13,82.88,9.72,82.37,9.72z"/>
	<path d="M87.35,9.72c-0.51,0-0.92,0.41-0.92,0.92c0,0.51,0.41,0.92,0.92,0.92s0.92-0.41,0.92-0.92
		C88.27,10.13,87.86,9.72,87.35,9.72z"/>
	<path d="M92.33,9.72c-0.51,0-0.92,0.41-0.92,0.92c0,0.51,0.41,0.92,0.92,0.92c0.51,0,0.92-0.41,0.92-0.92
		C93.25,10.13,92.84,9.72,92.33,9.72z"/>
</g>
</svg>
