<?xml version="1.0" encoding="utf-8"?>
<!-- Generator: Adobe Illustrator 23.0.0, SVG Export Plug-In . SVG Version: 6.00 Build 0)  -->
<svg version="1.1" id="Слой_1" xmlns="http://www.w3.org/2000/svg" xmlns:xlink="http://www.w3.org/1999/xlink" x="0px" y="0px"
	 viewBox="0 0 100 21.28" style="enable-background:new 0 0 100 21.28;" xml:space="preserve">
<g>
	<path d="M25.8,10.41c-0.27,0-0.55-0.01-0.83-0.01c-0.65-0.01-1.29-0.02-1.94-0.02c-0.27,0-0.53-0.01-0.79-0.01
		c-0.14,0-0.25,0.11-0.25,0.25c0,0.14,0.11,0.25,0.25,0.25c0.08,0,0.16,0,0.24,0c0.49,0,0.98,0.01,1.48,0.02
		c0.62,0.01,1.23,0.02,1.84,0.02c0.14,0,0.25-0.11,0.25-0.25C26.05,10.53,25.94,10.41,25.8,10.41z"/>
	<path d="M29.6,10.41c-0.15,0-0.31-0.01-0.47-0.01c-0.37-0.01-0.73-0.02-1.1-0.02c-0.15,0-0.3-0.01-0.45-0.01
		c-0.08,0-0.14,0.11-0.14,0.25c0,0.14,0.06,0.25,0.14,0.25c0.04,0,0.09,0,0.14,0c0.28,0,0.56,0.01,0.83,0.02
		c0.35,0.01,0.7,0.02,1.04,0.02c0.08,0,0.14-0.11,0.14-0.25C29.74,10.53,29.68,10.41,29.6,10.41z"/>
	<path d="M20.67,10.43c-0.4,0-0.8-0.01-1.2-0.02c-0.5,0-0.99-0.01-1.49-0.02c-0.87-0.01-1.75-0.02-2.62-0.04
		c-0.14,0-0.25,0.12-0.25,0.25c0,0.14,0.12,0.25,0.25,0.25c0.22,0,0.44,0.01,0.66,0.01c0.71,0.01,1.43,0.02,2.14,0.03
		c0.47,0,0.95,0.01,1.41,0.02c0.36,0,0.72,0.01,1.09,0.01c0.14,0,0.25-0.12,0.25-0.25C20.92,10.54,20.81,10.43,20.67,10.43z"/>
	<path d="M47.69,10.37c-0.84,0-1.68,0.01-2.51,0.02c-1.32,0.01-2.64,0.02-3.96,0.02c-0.77,0-1.54,0.01-2.3,0.01
		c-0.23,0-0.45,0-0.68,0c-0.14,0-0.25,0.12-0.25,0.25c0,0.12,0.1,0.23,0.22,0.25c0.01,0,0.02,0,0.04,0c0,0,0.01,0,0.01,0
		c0,0,0,0,0,0c0.46-0.01,0.92,0,1.38-0.01c1.43-0.01,2.85-0.02,4.28-0.02c1.26-0.01,2.52-0.02,3.79-0.02c0.14,0,0.25-0.12,0.25-0.25
		C47.94,10.47,47.82,10.37,47.69,10.37z"/>
	<path d="M9.64,9.89c-0.41,0-0.75,0.36-0.74,0.76c0,0.41,0.35,0.74,0.76,0.74c0.41,0,0.75-0.36,0.74-0.76
		C10.4,10.22,10.05,9.89,9.64,9.89z"/>
	<path d="M12.83,9.79c-1.11-0.23-1.56,1.39-0.44,1.65C13.63,11.93,14.15,9.97,12.83,9.79z"/>
	<path d="M33.8,9.64c-0.54,0-1,0.47-0.99,1.01c0.01,0.55,0.47,0.99,1.01,0.99c0.54,0,1-0.47,0.99-1.01
		C34.81,10.08,34.35,9.64,33.8,9.64z"/>
	<path d="M30.76,10.65c0,0.65,1.01,0.64,1-0.01C31.76,9.99,30.75,10,30.76,10.65z"/>
	<path d="M36.08,10.14c-0.27,0-0.5,0.23-0.5,0.5c0,0.28,0.23,0.5,0.5,0.5c0.27,0,0.5-0.23,0.5-0.5
		C36.58,10.36,36.35,10.14,36.08,10.14z"/>
	<path d="M7.52,10.14c-0.27,0-0.5,0.23-0.5,0.5c0,0.28,0.23,0.5,0.5,0.5c0.27,0,0.5-0.23,0.5-0.5C8.02,10.36,7.79,10.14,7.52,10.14z
		"/>
	<path d="M51.74,9.89c-0.41,0-0.75,0.36-0.74,0.76c0,0.41,0.35,0.74,0.76,0.74c0.41,0,0.75-0.36,0.74-0.76
		C52.5,10.22,52.15,9.89,51.74,9.89z"/>
	<path d="M57.12,9.89c-0.41,0-0.75,0.36-0.74,0.76c0,0.41,0.35,0.74,0.76,0.74c0.41,0,0.75-0.36,0.74-0.76
		C57.87,10.22,57.53,9.89,57.12,9.89z"/>
	<path d="M78.08,9.64c-0.54,0-1,0.47-0.99,1.01c0,0.55,0.47,0.99,1.01,0.99c0.54,0,1-0.47,0.99-1.01
		C79.09,10.08,78.62,9.64,78.08,9.64z"/>
	<path d="M64.74,10.41c-0.11,0-0.22,0-0.33-0.01c-0.25,0-0.5-0.01-0.76-0.01c-0.17,0-0.35-0.01-0.52-0.01c-0.06,0-0.13,0-0.19,0
		c-0.13-0.01-0.25,0.12-0.25,0.25c0,0.14,0.11,0.24,0.25,0.25c0.07,0.01,0.14,0,0.21,0c0.18,0,0.36,0.01,0.53,0.01
		c0.24,0,0.48,0.01,0.73,0.01c0.11,0,0.22,0,0.33,0.01c0,0,0,0,0.01,0c0.13,0,0.24-0.12,0.24-0.25
		C64.99,10.52,64.88,10.41,64.74,10.41z"/>
	<path d="M61.55,10.41c-0.09,0-0.18,0-0.26-0.01c-0.2,0-0.4-0.01-0.6-0.01c-0.14,0-0.28-0.01-0.41-0.01c-0.05,0-0.1,0-0.15,0
		c-0.11-0.01-0.2,0.12-0.2,0.25c0,0.14,0.09,0.24,0.2,0.25c0.06,0.01,0.11,0,0.17,0c0.14,0,0.28,0.01,0.42,0.01
		c0.19,0,0.38,0.01,0.58,0.01c0.09,0,0.17,0,0.26,0.01c0,0,0,0,0.01,0c0.1,0,0.19-0.12,0.19-0.25
		C61.75,10.52,61.66,10.41,61.55,10.41z"/>
	<path d="M55.31,10.41c-0.11,0-0.22,0-0.32-0.01c-0.25,0-0.49-0.01-0.73-0.01c-0.17,0-0.34-0.01-0.5-0.01c-0.06,0-0.12,0-0.19,0
		c-0.13-0.01-0.24,0.12-0.24,0.25c0,0.14,0.11,0.24,0.24,0.25c0.07,0.01,0.14,0,0.2,0c0.17,0,0.34,0.01,0.51,0.01
		c0.23,0,0.47,0.01,0.7,0.01c0.11,0,0.21,0,0.32,0.01c0,0,0,0,0.01,0c0.13,0,0.24-0.12,0.24-0.25
		C55.55,10.52,55.44,10.41,55.31,10.41z"/>
	<path d="M69.05,10.43c-0.04,0-0.07,0-0.11,0c-0.38-0.01-0.76-0.02-1.14-0.03c-0.31-0.01-0.63-0.02-0.95-0.02
		c-0.22-0.01-0.45-0.01-0.67-0.02c-0.09,0-0.18-0.01-0.27-0.01c-0.01,0-0.03,0-0.04,0c-0.13,0-0.25,0.12-0.25,0.25
		c0,0.14,0.11,0.25,0.25,0.25c0.01,0,0.03,0,0.04,0c0.01,0,0.03,0,0.04,0c0.01,0,0.02,0,0.04,0c0.09,0,0.18,0.01,0.27,0.01
		c0.93,0.02,1.87,0.05,2.81,0.07c0,0,0,0,0.01,0c0.13,0,0.24-0.12,0.24-0.25C69.3,10.54,69.18,10.44,69.05,10.43z"/>
	<path d="M75.8,10.38c-0.01,0-0.02,0-0.03,0c0,0,0,0,0,0c-0.45,0-0.89,0-1.33,0c-1.18,0.01-2.36,0.01-3.54,0.02
		c-0.13,0-0.25,0.11-0.25,0.25s0.11,0.25,0.25,0.25c0.09,0,0.18,0,0.27,0c1.54-0.01,3.09-0.02,4.63-0.02c0.13,0,0.25-0.11,0.25-0.25
		C76.05,10.49,75.94,10.38,75.8,10.38z"/>
	<path d="M86.64,10.38c-0.04,0-0.08,0-0.12,0c0,0,0,0,0,0c-0.59,0-1.18,0-1.77,0c-1.1,0-2.2,0.01-3.3,0.01
		c-0.14,0-0.25,0.12-0.25,0.25c0,0.14,0.12,0.25,0.25,0.25c0.29,0,0.59,0,0.88,0c1.44,0,2.88-0.01,4.32-0.01
		c0.14,0,0.25-0.12,0.25-0.25C86.89,10.49,86.77,10.38,86.64,10.38z"/>
	<path d="M90.53,10.36c-0.03,0-0.06,0-0.09,0c-0.01,0-0.02,0-0.03,0c-0.84,0.03-1.68,0.05-2.52,0.07c-0.14,0-0.25,0.12-0.25,0.25
		c0,0.13,0.11,0.25,0.25,0.25c0,0,0,0,0.01,0c0.88-0.02,1.76-0.04,2.64-0.07c0.14,0,0.25-0.12,0.25-0.25
		C90.78,10.47,90.66,10.35,90.53,10.36z"/>
	<path d="M91.8,10.19c-0.17,0.18-0.21,0.47-0.11,0.7c0.07,0.15,0.18,0.25,0.31,0.31c0.36,0.17,0.86,0.02,0.96-0.42
		C93.1,10.17,92.21,9.76,91.8,10.19z"/>
</g>
</svg>
