<?xml version="1.0" encoding="utf-8"?>
<!-- Generator: Adobe Illustrator 23.0.0, SVG Export Plug-In . SVG Version: 6.00 Build 0)  -->
<svg version="1.1" id="Слой_1" xmlns="http://www.w3.org/2000/svg" xmlns:xlink="http://www.w3.org/1999/xlink" x="0px" y="0px"
	 viewBox="0 0 100 21.28" style="enable-background:new 0 0 100 21.28;" xml:space="preserve">
<path d="M81.27,9.2c0.26-0.13,0.52-0.27,0.78-0.4c0.5-0.25,1.02-0.51,1.55-0.68c1.13-0.35,2.28-0.59,3.46-0.74
	c1.22-0.15,2.46-0.19,3.68-0.11c0.11,0.01,0.23,0.02,0.34,0.02c0.1,0.01,0.21,0.02,0.3,0.07c0.13,0.08,0.2,0.23,0.28,0.36
	c0.21,0.36,0.57,0.65,0.99,0.73c0.42,0.08,0.88-0.08,1.13-0.42c0.24-0.32,0.26-0.77,0.12-1.15c-0.2-0.55-0.75-0.97-1.33-0.97
	c-0.58,0-1.15,0.45-1.23,1.03c-2.36-0.18-4.77-0.06-7.04,0.6c-2.21,0.65-4.25,1.78-6.27,2.87c-0.47,0.25-0.94,0.51-1.41,0.77
	c-0.02,0-0.03,0.02-0.04,0.03c-2.76,1.52-5.52,3.02-8.62,3.61c-1.86,0.43-3.63-0.22-5.33-0.99c1.67-0.01,3.35-0.06,5.02-0.1
	c0.08,0.34,0.35,0.62,0.69,0.72c0.08,0.02,0.17,0.03,0.26,0.03c0.22,0,0.44-0.07,0.61-0.21c0.18-0.13,0.3-0.33,0.36-0.54
	c0.07-0.29,0.02-0.6-0.16-0.83c-0.21-0.29-0.57-0.45-0.92-0.4c-0.31,0.03-0.59,0.22-0.74,0.49c-0.07,0.12-0.1,0.25-0.12,0.38
	c-1.91,0.04-3.8,0.13-5.71,0.1c-0.02,0-0.03,0.01-0.05,0.02c-0.46-0.22-0.92-0.43-1.37-0.63c-0.23-0.11-0.47-0.22-0.7-0.34
	c0.85-0.04,1.7-0.08,2.55-0.11c1.42-0.07,2.84-0.13,4.26-0.19c1.36-0.06,2.73-0.12,4.1-0.18c0.03,0,0.05,0,0.08,0
	c0.13,0.38,0.36,0.78,0.77,0.87c1.47,0.23,1.77-1.64,0.37-1.95c-0.4-0.05-1.14,0.28-1.21,0.72c-0.51,0.02-1.03,0.05-1.54,0.07
	c-1.48,0.07-2.96,0.13-4.44,0.2c-1.26,0.05-2.52,0.11-3.79,0.17c-0.61,0.03-1.21,0.05-1.82,0.08c-0.67-0.35-1.35-0.72-2.05-1.08
	c0.92-0.05,1.84-0.1,2.76-0.14c1.44-0.08,2.88-0.15,4.34-0.22c0.01,0,0.08,0,0.1-0.01c0.08,0.18,0.26,0.36,0.39,0.44
	c0.71,0.46,2.02-0.15,1.34-1.04c-0.4-0.58-1.52-0.52-1.68,0.23c-0.05,0.03-0.07,0.01-0.11,0.01c-0.46,0.02-0.93,0.05-1.39,0.07
	c-1.39,0.07-2.78,0.14-4.16,0.21c-0.71,0.04-1.41,0.08-2.12,0.11c-0.02,0-0.04,0.02-0.06,0.03c-0.96-0.49-1.95-0.94-2.94-1.27
	c1.11-0.04,2.21-0.07,3.31-0.11c2.37-0.08,4.75-0.16,7.12-0.24c2.22-0.08,4.43-0.15,6.65-0.22c0.74-0.03,1.48-0.05,2.22-0.08
	c0.62-0.02,1.24-0.04,1.85-0.06c0.05,0,0.1-0.01,0.14-0.01c0.06,0.59,0.63,1.05,1.18,1.21c1.6,0.34,1.98-1.46,0.7-2.19
	c-0.64-0.23-1.55-0.03-1.88,0.6c-0.01,0.04-0.09,0.02-0.16,0.03c-0.01,0-0.03,0-0.06,0c-0.6,0.02-1.2,0.04-1.8,0.06
	c-1.69,0.06-3.39,0.12-5.08,0.17c-2.63,0.09-5.27,0.18-7.9,0.27c-1.66,0.06-3.32,0.12-4.98,0.17c-0.81,0.03-1.61,0.05-2.43,0.09
	c-1.75-0.4-3.51-0.33-5.23,0.7c-0.56,0.27-1.1,0.58-1.65,0.91c-1.59,0.96-3.12,2.05-4.89,2.64c-0.71,0.14-1.45,0.22-2.16,0.03
	c-0.33-0.11-0.63-0.29-0.92-0.49c0.21,0.01,0.43,0.02,0.64,0.03c0.23,0.01,0.46,0.01,0.69,0c0.11,0,0.22-0.01,0.34-0.01
	c0.07,0,0.26-0.02,0.26-0.02s0.05,0.1,0.1,0.17c0.04,0.06,0.1,0.1,0.16,0.13c0.73,0.35,1.38-0.53,0.59-0.96
	c-0.16-0.08-0.33-0.07-0.48,0.01c-0.07,0.04-0.14,0.09-0.2,0.15c-0.04,0.04-0.11,0.16-0.17,0.16c-0.04,0-0.2,0-0.24,0
	c-0.11,0-0.21,0.01-0.32,0.01c-0.22,0-0.43,0.01-0.65,0c-0.21,0-0.43-0.01-0.64-0.02c-0.11-0.01-0.21-0.01-0.32-0.02
	c-0.06,0-0.11-0.01-0.17-0.02c-0.03,0-0.13,0-0.15-0.02c-0.04-0.03-0.08-0.06-0.11-0.08c-0.33-0.26-0.66-0.5-0.99-0.75
	c1.13,0.11,2.26,0.16,3.39,0.19c0.49,0.01,0.99,0,1.48-0.03c0,0.09,0.02,0.18,0.07,0.27c0.1,0.18,0.28,0.29,0.48,0.35
	c0.1,0.03,0.21,0.04,0.32,0.04c0.19,0,0.38-0.05,0.54-0.14c0.2-0.11,0.35-0.28,0.4-0.51c0.05-0.26-0.09-0.51-0.31-0.65
	c-0.22-0.13-0.49-0.18-0.74-0.13c-0.14,0.03-0.27,0.08-0.39,0.16c-0.06,0.04-0.12,0.08-0.17,0.13c-0.04,0.04-0.08,0.1-0.13,0.12
	c-0.04,0.01-0.09-0.01-0.12-0.01c-0.05,0-0.1,0.01-0.14,0.01c-0.12,0-0.23,0.01-0.35,0.01c-0.23,0-0.46,0.01-0.69,0.01
	c-0.46,0-0.93-0.01-1.39-0.03c-0.45-0.02-0.89-0.05-1.34-0.08c-0.23-0.02-0.46-0.04-0.69-0.06c-0.27-0.02-0.63,0.01-0.85-0.16
	c-0.09-0.07-0.19-0.14-0.28-0.21c-0.18-0.14-0.37-0.27-0.55-0.41c1.26-0.05,2.52,0.02,3.79,0.01c0.01,0,0.03-0.01,0.04-0.01
	c0.05,0.18,0.14,0.35,0.28,0.47c0.17,0.14,0.38,0.24,0.6,0.24c0.06,0,0.13-0.01,0.19-0.02c0.23-0.06,0.43-0.23,0.51-0.46
	c0.1-0.31,0-0.66-0.23-0.88c-0.19-0.19-0.45-0.32-0.72-0.29c-0.16,0.01-0.32,0.07-0.44,0.18c-0.09,0.08-0.16,0.18-0.2,0.29
	c-0.01,0.04-0.02,0.08-0.03,0.12c-0.08-0.01-0.15-0.01-0.22-0.01c-0.68-0.01-1.36-0.01-2.04-0.02c-0.34-0.01-0.69-0.01-1.03,0
	c-0.22,0-0.43,0.02-0.65,0.03c-0.12,0.01-0.24,0.01-0.35-0.03c-0.12-0.04-0.21-0.13-0.31-0.21c-0.27-0.2-0.54-0.4-0.81-0.59
	c2.56-0.17,5.11-0.26,7.67-0.2c0,0,0.12,0.32,0.13,0.35c0.06,0.12,0.14,0.22,0.23,0.32c0.27,0.27,0.61,0.36,0.98,0.31
	c0.29-0.04,0.61-0.16,0.8-0.4c0.07-0.09,0.12-0.2,0.14-0.32c0.06-0.38-0.14-0.76-0.44-0.99c-0.36-0.28-0.83-0.3-1.22-0.08
	c-0.18,0.1-0.34,0.24-0.48,0.4c-0.04,0.05-0.06,0.08-0.14,0.06c-1.61-0.04-3.23-0.03-4.85,0.02c-0.55,0.02-1.1,0.06-1.64,0.1
	c-0.28,0.02-0.55,0.04-0.83,0.06c-0.22,0.01-0.46,0.04-0.69,0.03c-0.21,0-0.38-0.12-0.57-0.21c-0.19-0.09-0.38-0.17-0.58-0.24
	c-0.4-0.14-0.82-0.23-1.24-0.23c-4.16,0.29-6.07,5.06-9.99,5.82c-1.11,0.05-2.08-0.5-3-1.11c0.32,0,0.63,0.01,0.93,0.01
	c0.2-0.04,1.26,0.07,1.71-0.05c0.01,0.11,0.04,0.22,0.1,0.31c0.13,0.22,0.37,0.36,0.62,0.39c0.06,0.01,0.12,0.01,0.18,0.01
	c0.22,0,0.43-0.06,0.61-0.19c0.2-0.14,0.34-0.37,0.34-0.62c0-0.26-0.14-0.49-0.35-0.63c-0.22-0.15-0.51-0.2-0.77-0.15
	c-0.3,0.06-0.57,0.26-0.68,0.55c-0.56-0.07-1.15,0.04-1.73,0c-0.48-0.01-1-0.02-1.5-0.02c-0.32-0.22-0.63-0.43-0.95-0.62
	c-0.05-0.04-0.1-0.07-0.15-0.1c0.19,0,0.37-0.01,0.56-0.01c1.05-0.02,2.1-0.04,3.15-0.06c0.99-0.02,1.97-0.04,2.97-0.04
	c0.05,0.11,0.13,0.2,0.23,0.27c0.13,0.08,0.28,0.12,0.43,0.12c0.11,0,0.22-0.02,0.32-0.06c0.21-0.08,0.4-0.22,0.52-0.41
	c0.14-0.21,0.22-0.5,0.13-0.75c-0.05-0.13-0.13-0.24-0.24-0.32c-0.1-0.07-0.21-0.11-0.33-0.12c-0.25-0.03-0.5,0.05-0.7,0.2
	c-0.22,0.17-0.38,0.42-0.41,0.69c-0.03,0-0.06,0-0.08,0c-0.11,0-0.23,0.01-0.34,0.01c-0.22,0-0.43,0.01-0.65,0.01
	c-0.33,0.01-0.66,0.01-0.99,0.02c-1.02,0.02-2.04,0.04-3.05,0.06c-0.68,0.01-1.36,0.02-2.05,0.04c-0.54-0.34-1.08-0.63-1.61-0.86
	c1.17-0.09,2.33-0.24,3.51-0.23c0.02,0.01,0.03,0,0.05,0c0.04,0.07,0.09,0.13,0.16,0.17c0.29,0.27,0.69,0.39,1.08,0.44
	c1.42,0.03,1.23-1.73,0.02-1.96c-0.41-0.09-0.95-0.05-1.2,0.34c-0.11,0.17-0.18,0.44-0.17,0.68c-1.41-0.07-2.84,0.24-4.28,0.27
	c-0.21,0-0.5-0.14-0.71-0.19c-0.25-0.05-0.5-0.09-0.75-0.12c-0.5-0.05-1.01-0.04-1.51,0.02c-0.53,0.07-1.06,0.2-1.56,0.38
	c-0.35,0.12-0.67,0.29-1,0.45c-0.21,0.1-1.06,0.27-0.95,0.63c0.04,0.14,0.17,0.13,0.27,0.09c0.19-0.08,0.37-0.03,0.56-0.02
	c0.24,0.02,0.49,0.03,0.73,0.03c0.14,0,1.37-0.04,1.4,0.03c0.08,0.22,0.21,0.42,0.44,0.49c0.48,0.18,1.18-0.1,1.18-0.67
	c-0.02-0.55-0.55-1.14-1.12-0.85c-0.23,0.1-0.55,0.38-0.53,0.66c-0.59-0.02-1.31-0.03-1.92-0.06c0.05,0,0.16-0.08,0.21-0.1
	c0.08-0.04,0.16-0.07,0.24-0.11c0.15-0.06,0.3-0.13,0.45-0.18c0.28-0.11,0.56-0.2,0.85-0.28c0.5-0.13,1.02-0.22,1.54-0.23
	c2.15-0.04,3.98,1.28,5.72,2.37c0.72,0.45,1.46,0.87,2.23,1.24c0.27,0.13,0.54,0.29,0.83,0.37c0.3,0.09,0.58,0.07,0.88,0.05
	c1.63-0.2,3.27-0.18,4.89-0.43c0.53-0.07,1.07-0.09,1.61-0.08c0,0.07,0.01,0.14,0.03,0.2c0.06,0.22,0.19,0.42,0.38,0.56
	c0.19,0.14,0.41,0.21,0.63,0.21c0.07,0,0.15-0.01,0.22-0.02c0.27-0.06,0.52-0.23,0.67-0.48c0.18-0.3,0.21-0.68,0.05-0.99
	c-0.13-0.27-0.37-0.48-0.67-0.56c-0.27-0.07-0.57-0.04-0.81,0.11c-0.23,0.14-0.4,0.37-0.47,0.63c-0.02,0-0.03-0.02-0.05-0.02
	c-0.8-0.03-1.63,0.08-2.42,0.18c-0.72,0.1-1.45,0.13-2.18,0.17c0.52-0.27,1.02-0.62,1.49-1c0.01,0,0.02,0.01,0.03,0
	c1.79-0.35,3.63-0.24,5.45-0.45c0.01,0.16,0.04,0.31,0.11,0.45c0.14,0.26,0.37,0.47,0.66,0.57c0.12,0.04,0.24,0.06,0.37,0.06
	c0.18,0,0.35-0.04,0.51-0.12c0.26-0.14,0.47-0.36,0.57-0.64c0.09-0.27,0.08-0.56-0.02-0.81c-0.13-0.32-0.39-0.56-0.72-0.66
	c-0.3-0.1-0.64-0.07-0.91,0.09c-0.27,0.15-0.47,0.41-0.54,0.71c-0.05,0-0.1,0-0.15,0c-1.19,0.11-2.39,0.17-3.59,0.22
	c-0.42,0.03-0.84,0.08-1.25,0.14c0.62-0.55,1.22-1.14,1.81-1.65c0.02,0.01,0.04,0.03,0.08,0.03c0.08-0.01,0.16-0.01,0.24-0.02
	c0.26-0.02,0.51-0.05,0.77-0.07c0.29-0.03,0.58-0.05,0.87-0.08c0.21-0.02,0.43-0.04,0.64-0.06c0.01,0.04,0.02,0.08,0.04,0.11
	c0.08,0.16,0.19,0.29,0.34,0.39c0.17,0.11,0.36,0.17,0.56,0.17c0.08,0,0.16-0.01,0.24-0.03c0.29-0.08,0.54-0.28,0.66-0.56
	c0.1-0.24,0.12-0.52,0.02-0.76c-0.1-0.26-0.31-0.48-0.58-0.58c-0.29-0.11-0.61-0.08-0.87,0.08c-0.27,0.16-0.44,0.45-0.48,0.76
	c0,0.02,0,0.04,0,0.06c-0.1,0.01-0.2,0.02-0.31,0.03c-0.17,0.01-0.34,0.03-0.51,0.05c-0.41,0.04-0.82,0.08-1.23,0.11
	c1.32-0.89,2.79-1.96,4.43-1.73c0.78,0.1,1.49,0.52,2.11,1.01c0.16,0.13,0.34,0.23,0.51,0.35c0.17,0.12,0.34,0.25,0.51,0.37
	c0.34,0.25,0.67,0.51,1.01,0.77c0.66,0.52,1.32,1.04,2.01,1.53c0.33,0.23,0.66,0.45,1,0.66c0.19,0.11,0.36,0.23,0.57,0.29
	c0.28,0.08,0.56,0.16,0.85,0.2c0.35,0.04,0.69,0,1.04-0.01c0.37-0.01,0.74,0,1.1-0.02c0.46-0.02,0.92-0.02,1.38-0.03
	c0.45-0.01,0.89-0.02,1.34-0.03c1.15-0.02,2.3-0.04,3.45-0.07c1.33-0.03,2.66-0.05,4-0.08c0.64-0.01,1.27-0.03,1.91-0.04
	c0.34-0.01,0.67-0.01,1.01-0.02c0.27-0.01,0.55-0.02,0.82-0.02c0.04,0,0.04,0,0.11-0.01c0.11,0.53,0.55,0.99,1.12,1.01
	c1.4,0.1,1.37-1.66,0.18-1.98c-0.54-0.16-1.02,0.13-1.27,0.6c-0.11,0.02-0.11,0.02-0.15,0.02c-0.18,0-0.36,0.01-0.55,0.01
	c-1.3,0.02-2.6,0.05-3.89,0.08c-1.32,0.03-2.64,0.05-3.96,0.08c-1.15,0.02-2.3,0.04-3.44,0.07c-0.69,0.02-1.38,0.03-2.07,0.04
	c0.54-0.19,1.06-0.45,1.58-0.75c0.44-0.07,0.89-0.13,1.34-0.18c0.45-0.05,0.9-0.08,1.36-0.11c0.46-0.03,0.91-0.05,1.37-0.07
	c0.46-0.02,0.91-0.04,1.37-0.06c0.45-0.02,0.9-0.05,1.34-0.08c0.08-0.01,0.15-0.02,0.19,0.06c0.03,0.05,0.05,0.11,0.08,0.16
	c0.03,0.05,0.07,0.1,0.12,0.15c0.12,0.12,0.27,0.22,0.43,0.26c0.03,0.01,0.06,0.01,0.09,0.01c1.01,0.15,1.89-0.87,0.76-1.48
	c-0.27-0.1-0.58-0.08-0.85,0c-0.24,0.08-0.48,0.21-0.64,0.42c-0.02,0.02-0.04,0.05-0.06,0.06c-0.03,0.01-0.06,0.01-0.09,0
	c-0.07-0.01-0.15,0-0.22,0c-0.22,0-0.45,0.02-0.67,0.04c-0.23,0.01-0.46,0.03-0.69,0.04c-0.47,0.03-0.94,0.05-1.41,0.08
	c-0.99,0.06-1.99,0.07-2.98,0.19c0.67-0.42,1.34-0.87,2.01-1.25c1.01-0.05,2.02-0.04,3.02-0.06c0.25-0.02,3.08-0.01,3.6-0.31
	c0.05,0.36,0.16,0.82,0.55,0.97c0.24,0.07,0.5-0.02,0.69-0.18c0.2-0.16,0.37-0.42,0.33-0.7c-0.04-0.27-0.27-0.5-0.5-0.62
	c-0.32-0.18-0.79-0.06-1,0.22c-0.04,0-0.04,0-0.17,0.03c-1.92,0.28-3.86,0.22-5.79,0.27c0.07-0.03,0.14-0.07,0.21-0.1
	c1.12-0.63,2.29-1.38,3.63-1.3c3.16,0.15,5.93,1.67,8.71,3.16c0.02,0.02,0.04,0.02,0.06,0.03c2.32,1.24,4.65,2.45,7.23,2.82
	c1.23-0.01,2.42-0.25,3.61-0.6c0.26-0.02,0.51-0.03,0.77-0.05c1-0.07,2.01-0.12,3.01-0.19c1.88-0.12,3.76-0.24,5.63-0.36
	c2.42-0.16,4.83-0.31,7.24-0.47c1.37-0.09,2.75-0.18,4.12-0.27c0.03,0,0.06-0.02,0.09-0.04c0.04,0.16,0.1,0.31,0.19,0.45
	c0.16,0.24,0.4,0.44,0.68,0.53c0.1,0.03,0.21,0.05,0.32,0.05c0.18,0,0.36-0.05,0.52-0.15c0.27-0.18,0.44-0.48,0.48-0.8
	c0.03-0.3-0.04-0.62-0.19-0.88c-0.15-0.25-0.38-0.46-0.65-0.57c-0.27-0.11-0.59-0.11-0.85,0.04c-0.29,0.16-0.48,0.45-0.53,0.78
	c-0.01,0.09,0,0.18,0,0.27c-0.02-0.01-0.04-0.03-0.07-0.02c-1.29,0.09-2.58,0.17-3.87,0.25c-2.38,0.15-4.75,0.31-7.13,0.46
	c-1.95,0.12-3.91,0.25-5.87,0.38c-0.91,0.06-1.81,0.12-2.72,0.18c0.44-0.17,0.88-0.36,1.32-0.57c0.22-0.1,0.44-0.21,0.66-0.32
	c0.19-0.1,0.39-0.23,0.6-0.28c0.85-0.2,1.76-0.18,2.62-0.23c0.91-0.05,1.81-0.1,2.72-0.15c1.51-0.08,3.03-0.19,4.53-0.37
	c0.1-0.01,0.12,0.05,0.13,0.14c0.02,0.1,0.1,0.19,0.17,0.26c0.15,0.15,0.36,0.25,0.56,0.27c1.54,0.14,1.24-1.63-0.11-1.54
	c-0.25,0.01-0.63,0.24-0.71,0.53c-0.1,0.04-0.2,0.02-0.29,0.04c-1.35,0.12-2.7,0.17-4.05,0.26c-1.57,0.16-3.17,0.21-4.74,0.32
	c0.15-0.08,0.3-0.16,0.45-0.24c0.58-0.3,1.15-0.6,1.73-0.9c3.49-0.48,7.08-0.23,10.6-0.56c0.31-0.04,0.66-0.04,0.95-0.12
	c0.03,0.31,0.17,0.6,0.41,0.8c0.22,0.19,0.5,0.3,0.79,0.3c0.01,0,0.02,0,0.03,0c0.31-0.01,0.61-0.13,0.83-0.36
	c0.22-0.22,0.36-0.53,0.35-0.85c0-0.29-0.1-0.57-0.28-0.79c-0.16-0.19-0.39-0.34-0.64-0.4c-0.27-0.07-0.56-0.04-0.81,0.08
	c-0.3,0.14-0.53,0.41-0.63,0.73c-0.02,0.05-0.03,0.11-0.04,0.17c-0.51-0.05-1.05,0.12-1.58,0.11c-2.75,0.15-5.51,0.21-8.26,0.3
	c-0.25,0.01-0.49,0.04-0.74,0.07c0.67-0.34,1.33-0.69,2-1.03c0.66-0.05,1.32-0.1,1.98-0.15c0.61-0.05,1.22-0.09,1.83-0.14
	c0.3-0.02,0.61-0.05,0.91-0.07c0.15-0.01,0.31-0.02,0.46-0.04C84.92,9.61,85,9.59,85.07,9.6c0.14,0.02,0.12,0.19,0.17,0.29
	c0.04,0.08,0.1,0.14,0.17,0.19c0.66,0.48,1.7-0.48,1.32-1.18c-0.25-0.46-0.9-0.51-1.28-0.19c-0.07,0.06-0.13,0.14-0.17,0.22
	c-0.03,0.05-0.03,0.12-0.05,0.17c-0.02,0.05-0.06,0.07-0.1,0.1c-0.04,0.03-0.06,0.03-0.1,0.04c-0.12,0.01-0.24,0.02-0.37,0.03
	c-1.16,0.09-2.32,0.18-3.47,0.27c-0.22,0.02-0.44,0.03-0.66,0.05c0.1-0.01,0.25-0.13,0.34-0.18C81,9.34,81.13,9.27,81.27,9.2z
	 M91.73,6.93c0.02-0.07,0.05-0.13,0.09-0.19c0.22-0.31,0.64-0.56,1.03-0.45c0.36,0.1,0.64,0.47,0.76,0.82
	c0.05,0.15,0.07,0.32,0.02,0.47c-0.08,0.3-0.36,0.48-0.66,0.52c-0.35,0.05-0.66-0.12-0.88-0.38c-0.17-0.19-0.41-0.48-0.37-0.75
	C91.73,6.96,91.73,6.94,91.73,6.93z M67.98,13.54c0-0.01,0-0.03,0-0.05c0-0.04,0-0.08,0.01-0.11c0-0.01,0.01-0.03,0.01-0.06
	c0.01-0.02,0.02-0.06,0.03-0.09c0.01-0.02,0.02-0.04,0.03-0.06c0.01-0.02,0.03-0.05,0.05-0.07c0,0,0,0,0,0c0,0,0.01-0.01,0.01-0.01
	c0,0,0-0.01,0.01-0.01c0,0,0,0,0,0c0.01-0.02,0.03-0.03,0.04-0.05c0.02-0.02,0.04-0.03,0.05-0.05c0,0,0,0,0,0c0,0,0,0,0,0
	c0,0,0.01-0.01,0.01-0.01c0.01,0,0.03-0.02,0.05-0.03c0,0,0,0,0,0c0,0,0.01,0,0.01-0.01c0.02-0.01,0.05-0.02,0.07-0.03l0.01,0
	c0,0,0,0,0,0c0,0,0,0,0,0c0.02-0.01,0.04-0.01,0.06-0.02c0.03-0.01,0.05-0.01,0.08-0.01c0,0,0,0,0,0c0,0,0.01,0,0.01,0
	c0,0,0.01,0,0.01,0c0,0,0,0,0,0c0.02,0,0.04,0,0.06,0c0.03,0,0.07,0,0.1,0.01c0.02,0,0.06,0.01,0.1,0.03c0.01,0,0.04,0.01,0.06,0.02
	c0.02,0.01,0.05,0.02,0.07,0.04c0.01,0.01,0.04,0.02,0.06,0.05c0,0,0,0,0,0c0.02,0.01,0.03,0.03,0.05,0.05
	c0.02,0.02,0.04,0.04,0.05,0.06c0.01,0.02,0.03,0.05,0.05,0.07c0,0,0,0,0,0c0.02,0.03,0.03,0.07,0.05,0.1
	c0,0.01,0.01,0.04,0.02,0.06c0.01,0.03,0.01,0.05,0.02,0.08l0,0c0,0,0,0.01,0,0.01c0,0.01,0,0.04,0,0.06c0,0.03,0,0.06-0.01,0.09
	c0,0.03-0.01,0.05-0.02,0.08c-0.01,0.04-0.02,0.07-0.04,0.11c0,0-0.01,0.02-0.03,0.05c0,0,0,0,0,0c-0.01,0.02-0.03,0.05-0.05,0.07
	l0,0c0,0,0,0.01-0.01,0.01c-0.02,0.02-0.04,0.04-0.06,0.06C69.02,13.98,69,14,68.98,14.01c0,0,0,0,0,0c0,0-0.01,0.01-0.01,0.01
	c-0.02,0.01-0.04,0.02-0.06,0.03c0,0,0,0-0.01,0.01c0,0,0,0,0,0c0,0,0,0,0,0c-0.02,0.01-0.04,0.02-0.06,0.03c0,0,0,0,0,0
	c-0.03,0.01-0.06,0.02-0.08,0.03c0,0,0,0,0,0c-0.03,0.01-0.05,0.01-0.08,0.01c-0.03,0-0.07,0.01-0.1,0l0.02,0
	c-0.03,0-0.07-0.01-0.1-0.01c0,0-0.03-0.01-0.05-0.01c0,0,0,0,0,0c0,0-0.01,0-0.01,0c-0.02-0.01-0.05-0.02-0.07-0.03
	c-0.02-0.01-0.05-0.03-0.08-0.04c-0.01,0-0.03-0.02-0.06-0.04c-0.02-0.02-0.04-0.03-0.05-0.05c-0.02-0.03-0.05-0.05-0.07-0.08
	c-0.01,0-0.02-0.03-0.03-0.05c-0.01-0.02-0.03-0.05-0.04-0.08C68.01,13.7,68,13.68,68,13.66c0,0,0,0,0,0c0,0,0-0.01,0-0.01
	c0-0.01,0-0.01,0-0.01c0-0.02-0.01-0.04-0.01-0.07C67.98,13.56,67.98,13.55,67.98,13.54C67.98,13.55,67.98,13.54,67.98,13.54z
	 M71.96,11.34c0.33,0.1,0.6,0.48,0.51,0.84c-0.1,0.29-0.46,0.4-0.77,0.39c-0.4-0.02-0.74-0.62-0.64-0.81
	C71.24,11.48,71.62,11.27,71.96,11.34z M64.67,10.35c0.03-0.04,0.07-0.07,0.11-0.1c0.18-0.13,0.43-0.17,0.64-0.09
	c0.2,0.07,0.43,0.26,0.42,0.49c-0.02,0.27-0.4,0.31-0.6,0.32c-0.21,0.01-0.46-0.1-0.59-0.25c-0.03-0.04-0.06-0.08-0.07-0.13
	C64.56,10.5,64.62,10.41,64.67,10.35z M76.05,8.1c0.16-0.01,0.35,0,0.51,0.06c0.36,0.13,0.62,0.58,0.6,0.96
	c-0.03,0.38-0.48,0.61-0.82,0.58c-0.5-0.04-0.99-0.43-1.12-0.92C75.08,8.28,75.67,8.12,76.05,8.1z M40.1,12.65
	c0.06-0.01,0.16,0.01,0.21,0.07c0.12,0.14,0.07,0.27-0.1,0.28c-0.1,0.01-0.24,0.02-0.3-0.08C39.85,12.79,39.98,12.67,40.1,12.65z
	 M41.16,11.89L41.16,11.89c0-0.02,0-0.03,0-0.05c0-0.01,0-0.02,0.01-0.03c0,0,0.01-0.02,0.01-0.03c0,0,0-0.01,0.01-0.01
	c0-0.01,0.01-0.02,0.01-0.02c0,0,0,0,0,0c0.01-0.02,0.03-0.04,0.04-0.06c0.01-0.01,0.02-0.02,0.03-0.03
	c0.02-0.01,0.03-0.03,0.05-0.04c0.03-0.02,0.06-0.03,0.08-0.05c0.02-0.01,0.05-0.02,0.08-0.03c0.03-0.01,0.06-0.02,0.09-0.02
	c0,0,0,0,0,0c0.04-0.01,0.07-0.01,0.11-0.02c0.04,0,0.08,0,0.12,0l0.01,0c0,0,0.01,0,0.01,0c0.03,0,0.06,0.01,0.09,0.01
	c0.01,0,0.04,0.01,0.08,0.02c0.02,0.01,0.05,0.02,0.08,0.03c0.02,0.01,0.03,0.02,0.05,0.03c0,0,0.02,0.02,0.04,0.04
	c0.01,0.01,0.01,0.01,0.02,0.02c0.01,0.01,0.01,0.02,0.02,0.03c0.01,0.02,0.02,0.03,0.02,0.05c0,0,0.01,0.02,0.01,0.04l0,0.01
	c0,0.01,0,0.03,0,0.04c0,0.01,0,0.02,0,0.03l0,0.01c0,0.02-0.01,0.04-0.01,0.06c0,0-0.01,0.02-0.02,0.03
	c-0.01,0.01-0.01,0.02-0.02,0.03l0,0c0,0,0,0,0,0c-0.01,0.01-0.02,0.02-0.03,0.04c0,0.01-0.02,0.03-0.05,0.04
	c0,0-0.02,0.02-0.05,0.03c-0.01,0.01-0.04,0.03-0.07,0.04c-0.01,0.01-0.04,0.02-0.07,0.03c-0.04,0.01-0.08,0.02-0.12,0.03
	c-0.02,0-0.05,0.01-0.1,0.01c-0.03,0-0.07,0-0.11,0l0.01,0c-0.01,0-0.01,0-0.02,0c0,0,0,0-0.01,0c-0.03,0-0.07-0.01-0.1-0.02
	c0,0,0,0,0,0c-0.03-0.01-0.05-0.01-0.08-0.02c-0.02-0.01-0.05-0.02-0.08-0.04c0,0,0,0,0,0c-0.02-0.01-0.04-0.03-0.06-0.04
	c0,0,0,0,0,0c-0.01-0.01-0.02-0.02-0.03-0.03c-0.01-0.01-0.02-0.02-0.03-0.03c-0.01-0.01-0.02-0.03-0.03-0.04
	c-0.01-0.02-0.02-0.04-0.03-0.06c0,0,0-0.01,0-0.01c0,0,0,0,0,0c0-0.01,0-0.01,0-0.02C41.17,11.92,41.16,11.9,41.16,11.89z
	 M38.6,10.37c0,0,0-0.01,0-0.01c0,0,0-0.01,0-0.01c0-0.02,0.01-0.04,0.01-0.05c0,0,0.01-0.02,0.01-0.04c0,0,0.01-0.01,0.01-0.03
	c0,0,0,0,0-0.01c0,0,0-0.01,0.01-0.01c0-0.01,0.01-0.02,0.02-0.03c0.01-0.01,0.02-0.02,0.03-0.03c0,0,0.01-0.01,0.03-0.02
	c0.01-0.01,0.02-0.01,0.03-0.02c0.02-0.01,0.03-0.02,0.05-0.03c0.02-0.01,0.03-0.01,0.05-0.02l0,0c0,0,0.01,0,0.01,0
	c0.01,0,0.04-0.01,0.06-0.01c0.02,0,0.03,0,0.05,0c0.02,0,0.04,0,0.06,0c0,0,0,0,0,0c0.01,0,0.01,0,0.02,0
	c0.01,0,0.03,0.01,0.05,0.01c0.01,0,0.05,0.01,0.08,0.03c0,0,0.03,0.01,0.05,0.03c0.02,0.01,0.04,0.03,0.06,0.04
	c0.03,0.02,0.05,0.04,0.07,0.06c0,0,0.03,0.03,0.05,0.05c0,0,0,0,0.01,0.01c0,0,0,0,0,0c0,0,0,0,0,0c0.01,0.02,0.03,0.04,0.04,0.06
	c0,0,0.01,0.02,0.02,0.05c0,0,0,0,0,0c0.02,0.03,0.03,0.06,0.04,0.1l0,0.01c0,0,0,0,0,0c0,0,0,0,0,0c0,0.01,0.01,0.03,0.01,0.04
	c0,0.02,0,0.05,0.01,0.07c0,0.02,0,0.04,0,0.06c0,0.02-0.01,0.04-0.01,0.06c-0.01,0.02-0.01,0.04-0.02,0.06c0,0-0.01,0.02-0.02,0.03
	c0,0.01-0.01,0.01-0.02,0.02c-0.01,0.02-0.03,0.03-0.04,0.05c0,0-0.01,0.01-0.02,0.02L39.4,10.9c0,0,0,0,0,0c0,0,0,0,0,0
	c-0.01,0-0.01,0.01-0.02,0.01c-0.02,0.01-0.04,0.02-0.07,0.03c-0.02,0.01-0.03,0.01-0.05,0.02c0,0-0.02,0-0.04,0.01l-0.01,0
	c0,0,0,0-0.01,0c0,0,0,0,0,0c-0.02,0-0.04,0-0.05,0c-0.02,0-0.04,0-0.05,0c-0.02,0-0.04-0.01-0.06-0.01
	c-0.03-0.01-0.06-0.02-0.09-0.03c-0.01,0-0.05-0.02-0.08-0.04c-0.02-0.01-0.04-0.03-0.06-0.05c0,0-0.02-0.02-0.05-0.04
	c-0.01-0.01-0.03-0.03-0.05-0.05c-0.02-0.02-0.04-0.05-0.05-0.08c-0.01-0.02-0.02-0.03-0.03-0.05c-0.01-0.03-0.02-0.05-0.03-0.08
	c-0.01-0.02-0.01-0.04-0.01-0.06c0,0,0,0,0,0c0,0,0,0,0-0.01c0,0,0,0,0,0c0,0,0,0,0,0c0-0.02,0-0.05,0-0.07
	C38.6,10.39,38.6,10.38,38.6,10.37z M41.03,8.95c0.04-0.03,0.07-0.06,0.11-0.09c0.07-0.06,0.15-0.1,0.24-0.14
	c0.18-0.07,0.37-0.08,0.55-0.02c0.02,0.01,0.04,0.01,0.06,0.02c0.29,0.06,0.45,0.38,0.46,0.67c0.01,0.18-0.2,0.32-0.34,0.39
	c-0.19,0.09-0.43,0.14-0.63,0.07c-0.21-0.06-0.41-0.21-0.53-0.39C40.82,9.28,40.87,9.1,41.03,8.95z M20.13,12.99l0-0.02
	c0,0,0-0.01,0-0.01c0,0,0,0,0,0c0,0,0,0,0,0c0,0,0-0.01,0-0.01c0,0,0.01-0.01,0.01-0.02c0.01-0.02,0.02-0.04,0.03-0.05
	c0.01-0.02,0.02-0.04,0.04-0.06c0.01-0.01,0.02-0.03,0.04-0.05c0,0,0.02-0.02,0.04-0.03c0.02-0.02,0.04-0.03,0.07-0.05l0,0
	c0,0,0,0,0.01,0c0.02-0.01,0.05-0.02,0.08-0.04c0.03-0.01,0.06-0.02,0.09-0.03c0,0,0,0,0,0c0.03-0.01,0.05-0.01,0.08-0.02
	c0.03,0,0.06-0.01,0.09-0.01c0.03,0,0.06,0,0.09,0c0.03,0,0.06,0.01,0.09,0.02c0,0,0,0,0,0c0.03,0.01,0.06,0.02,0.09,0.03
	c0.02,0.01,0.04,0.02,0.05,0.03c0.03,0.02,0.05,0.03,0.07,0.05c0,0,0.02,0.02,0.05,0.04c0.01,0.01,0.02,0.02,0.03,0.04
	c0,0,0.02,0.03,0.03,0.05l0.02,0.03c0,0.01,0.01,0.03,0.02,0.04l0,0c0,0,0,0,0,0.01c0,0.01,0.01,0.03,0.01,0.05c0,0,0,0,0,0
	c0,0.01,0,0.02,0,0.03c0,0.01,0,0.03,0,0.04l0,0c0,0,0,0.01,0,0.01c0,0,0,0.02-0.01,0.03c-0.01,0.02-0.01,0.04-0.02,0.06
	c0,0-0.01,0.01-0.02,0.03c-0.01,0.02-0.02,0.03-0.03,0.05c-0.02,0.03-0.04,0.04-0.06,0.06c-0.01,0.01-0.03,0.03-0.05,0.04
	c-0.01,0.01-0.03,0.02-0.06,0.04c0,0,0,0,0,0c-0.02,0.01-0.03,0.02-0.05,0.03c0,0,0,0,0,0c-0.04,0.02-0.08,0.03-0.12,0.04
	c-0.03,0.01-0.06,0.02-0.09,0.02c-0.01,0-0.05,0-0.09,0.01c-0.03,0-0.06,0-0.08-0.01c0,0,0,0,0,0c-0.03-0.01-0.07-0.01-0.1-0.02
	c-0.03-0.01-0.06-0.02-0.09-0.03c-0.02-0.01-0.04-0.02-0.07-0.03c0,0-0.02-0.01-0.05-0.03c0,0,0,0,0,0
	c-0.02-0.02-0.05-0.03-0.07-0.06c-0.01-0.01-0.02-0.03-0.03-0.04c0-0.01-0.01-0.01-0.02-0.02c0,0,0,0,0,0c0,0,0-0.01,0-0.01
	c0-0.01-0.01-0.02-0.02-0.03c-0.01-0.02-0.02-0.04-0.02-0.06c0-0.01-0.01-0.03-0.01-0.04c0-0.02,0-0.03-0.01-0.05
	C20.12,13.02,20.13,13.01,20.13,12.99z M22.47,11.6C22.47,11.6,22.47,11.59,22.47,11.6c0-0.01,0-0.02,0-0.03
	c0.01-0.02,0.01-0.04,0.02-0.07c0.01-0.02,0.02-0.04,0.03-0.07c0-0.01,0.02-0.03,0.03-0.06c0,0,0-0.01,0.01-0.01
	c0.01-0.02,0.03-0.04,0.04-0.06c0.02-0.02,0.04-0.04,0.06-0.07c0.03-0.02,0.05-0.04,0.08-0.06c0,0,0,0,0,0
	c0.03-0.02,0.06-0.04,0.09-0.05c0,0,0,0,0,0c0.03-0.01,0.05-0.03,0.08-0.04c0.02-0.01,0.05-0.02,0.07-0.02c0,0,0.01,0,0.02,0
	c0,0,0,0,0,0c0,0,0,0,0,0c0.02,0,0.04-0.01,0.06-0.01c0,0,0,0,0,0c0,0,0.01,0,0.01,0c0.01,0,0.03,0,0.05,0c0.02,0,0.05,0,0.07,0
	c0,0,0,0,0,0c0,0,0,0,0,0c0,0,0.01,0,0.01,0c0.01,0,0.03,0.01,0.05,0.01c0.01,0.01,0.03,0.01,0.04,0.02
	c0.02,0.01,0.03,0.02,0.04,0.02c0,0,0,0,0,0c0,0,0.01,0.01,0.01,0.01c0.01,0.01,0.02,0.02,0.03,0.03c0.01,0.01,0.02,0.02,0.02,0.03
	c0.01,0.01,0.01,0.02,0.02,0.03c0,0,0,0,0,0c0,0,0,0.01,0.01,0.01c0,0,0,0,0,0c0,0.01,0.01,0.02,0.01,0.03
	c0,0.01,0.01,0.02,0.01,0.04l0,0c0,0,0,0,0,0c0,0,0,0,0,0c0,0.01,0,0.02,0.01,0.03c0,0,0,0,0,0.01c0,0,0,0.01,0,0.01
	c0,0.01,0,0.02,0,0.04c0,0.02,0,0.03,0,0.05c0,0.03-0.01,0.06-0.02,0.09c0,0-0.01,0.03-0.02,0.06c-0.01,0.02-0.02,0.05-0.03,0.07
	c-0.02,0.03-0.04,0.06-0.06,0.08c0,0,0,0-0.01,0.01c0,0,0,0,0,0c0,0,0,0,0,0c-0.02,0.02-0.04,0.04-0.06,0.06
	c-0.01,0.01-0.04,0.04-0.08,0.07c-0.01,0.01-0.04,0.03-0.08,0.05c-0.02,0.01-0.05,0.02-0.08,0.04c-0.03,0.01-0.06,0.02-0.09,0.03
	c-0.02,0.01-0.04,0.01-0.07,0.01c-0.03,0-0.05,0-0.08,0.01c-0.02,0-0.03,0-0.05,0c0,0,0,0,0,0c0,0,0,0,0,0c-0.01,0-0.01,0-0.02,0
	c0,0-0.02-0.01-0.03-0.01c-0.01,0-0.03-0.01-0.04-0.01c-0.02-0.01-0.04-0.02-0.06-0.03c-0.01-0.01-0.02-0.01-0.02-0.02
	c0,0,0,0-0.01,0c-0.01-0.01-0.02-0.02-0.03-0.03l-0.02-0.02c0-0.01-0.01-0.01-0.01-0.02c-0.01-0.02-0.02-0.04-0.03-0.05
	c0-0.01-0.01-0.02-0.01-0.03c0-0.02-0.01-0.04-0.01-0.06c0,0,0-0.01,0-0.01c0-0.01,0-0.02,0-0.02
	C22.46,11.63,22.47,11.61,22.47,11.6C22.47,11.6,22.47,11.6,22.47,11.6z M17.66,9.58c0.31-0.05,0.62,0.06,0.88,0.24
	c0.27,0.27,0.4,0.74-0.01,0.95c-0.07,0.03-0.18,0.08-0.27,0.08c-0.38-0.03-0.83-0.14-1.06-0.5C17.04,10.03,17.29,9.57,17.66,9.58z
	 M9.26,11.43c0.14-0.31,0.45-0.39,0.71-0.29l0,0c0.17,0.11,0.32,0.36,0.3,0.59c-0.06,0.22-0.31,0.31-0.53,0.31
	C9.39,12.06,9.17,11.75,9.26,11.43z M26.88,13.97c0,0,0-0.01,0-0.01c0,0,0,0,0-0.01c0,0,0,0,0,0c0,0,0-0.01,0-0.01
	c0-0.03,0.01-0.06,0.01-0.09c0-0.01,0.01-0.05,0.03-0.09c0-0.01,0.02-0.05,0.03-0.08c0.01-0.02,0.03-0.05,0.05-0.08
	c0.01-0.01,0.03-0.05,0.06-0.07c0,0,0.02-0.02,0.04-0.04c0,0,0,0,0.01-0.01c0,0,0,0,0,0c0,0,0,0,0,0c0.02-0.02,0.04-0.04,0.07-0.05
	c0.02-0.01,0.04-0.03,0.06-0.04c0,0,0,0,0,0c0.03-0.02,0.06-0.03,0.1-0.04c0.03-0.01,0.07-0.02,0.1-0.03c0.02,0,0.06-0.01,0.09-0.01
	c0.02,0,0.06,0,0.1,0c0.02,0,0.05,0.01,0.08,0.01c0.02,0,0.05,0.01,0.09,0.02c0.02,0.01,0.04,0.02,0.05,0.02
	c0.02,0.01,0.05,0.03,0.07,0.04c0.03,0.02,0.05,0.04,0.08,0.06c0.03,0.02,0.05,0.05,0.07,0.07c0.01,0.01,0.03,0.04,0.05,0.07
	c0.02,0.03,0.04,0.06,0.05,0.09c0.01,0.02,0.02,0.05,0.03,0.08c0.01,0.01,0.01,0.04,0.02,0.06c0.01,0.03,0.01,0.06,0.01,0.09
	c0,0,0,0,0,0c0,0,0,0,0,0c0,0.01,0,0.01,0,0.02c0,0.02,0,0.06,0,0.09c0,0,0,0,0,0c0,0.03-0.01,0.06-0.01,0.09
	c-0.01,0.03-0.02,0.06-0.03,0.09c-0.01,0.02-0.02,0.05-0.03,0.07c-0.02,0.03-0.03,0.06-0.05,0.09c-0.01,0.01-0.03,0.03-0.05,0.06
	c0,0,0,0,0,0c-0.02,0.03-0.04,0.05-0.07,0.07c-0.01,0.01-0.04,0.03-0.07,0.05c-0.01,0.01-0.05,0.03-0.08,0.05
	c-0.02,0.01-0.04,0.02-0.06,0.03c-0.03,0.01-0.06,0.02-0.09,0.03c0,0,0,0,0,0c-0.03,0.01-0.07,0.01-0.1,0.01c-0.01,0-0.05,0-0.08,0
	l0.01,0c-0.04,0-0.07-0.01-0.11-0.01c-0.01,0-0.04-0.01-0.07-0.02c-0.03-0.01-0.05-0.02-0.08-0.03c-0.02-0.01-0.06-0.03-0.09-0.05
	c0,0,0,0,0,0c-0.03-0.02-0.05-0.04-0.08-0.06c-0.01-0.01-0.03-0.03-0.05-0.06c0,0,0,0,0,0c-0.02-0.02-0.04-0.05-0.06-0.07
	c-0.01-0.01-0.03-0.04-0.04-0.07c-0.01-0.01-0.02-0.04-0.03-0.07c0,0,0,0,0,0c0,0,0-0.01,0-0.01c0,0,0-0.01,0-0.01c0,0,0,0,0,0
	c-0.01-0.02-0.01-0.04-0.02-0.06c0,0,0,0,0,0c0,0,0,0,0,0c0-0.01,0-0.01-0.01-0.02c0-0.03-0.01-0.06-0.01-0.09
	C26.88,14.01,26.88,13.99,26.88,13.97z M29.24,12.5c0-0.03,0-0.06,0.01-0.08c0,0,0,0,0-0.01c0,0,0,0,0,0c0-0.01,0-0.02,0.01-0.03
	c0,0,0,0,0,0c0.01-0.04,0.02-0.07,0.03-0.1c0,0,0,0,0,0c0.01-0.03,0.02-0.06,0.04-0.09c0.01-0.02,0.03-0.06,0.05-0.1
	c0.01-0.02,0.03-0.04,0.04-0.06c0,0,0,0,0,0c0.03-0.03,0.05-0.06,0.08-0.09c0.02-0.02,0.05-0.04,0.07-0.06c0,0,0,0,0,0
	c0.03-0.02,0.06-0.04,0.08-0.05c0.03-0.02,0.07-0.03,0.1-0.05c0.02-0.01,0.06-0.02,0.09-0.03c0,0,0,0,0,0
	c0.03-0.01,0.07-0.01,0.1-0.02c0.03,0,0.07,0,0.1,0c0.04,0,0.07,0.01,0.11,0.01c0.03,0,0.06,0.01,0.08,0.02c0,0,0,0,0,0c0,0,0,0,0,0
	c0.01,0,0.01,0,0.02,0.01c0.03,0.01,0.07,0.03,0.1,0.04c0.03,0.02,0.06,0.03,0.09,0.05c0.01,0.01,0.05,0.03,0.08,0.06
	c0.02,0.02,0.05,0.04,0.07,0.07c0.02,0.03,0.04,0.05,0.06,0.08c0,0,0,0,0,0c0.02,0.02,0.03,0.05,0.04,0.07
	c0.02,0.04,0.04,0.08,0.05,0.12c0.01,0.01,0.01,0.05,0.02,0.08l0,0.01c0,0,0,0,0,0.01c0,0.02,0.01,0.05,0.01,0.08c0,0,0,0,0,0
	c0,0.01,0,0.01,0,0.02c0,0.03,0,0.07,0,0.11c0,0.03-0.01,0.08-0.01,0.12c0,0,0,0,0,0c-0.01,0.02-0.01,0.05-0.02,0.07c0,0,0,0,0,0
	c-0.01,0.03-0.02,0.06-0.03,0.09c-0.02,0.03-0.04,0.07-0.05,0.1c-0.02,0.03-0.05,0.07-0.07,0.1c-0.02,0.02-0.05,0.05-0.07,0.07
	c0,0,0,0,0,0c-0.02,0.02-0.04,0.03-0.06,0.05c-0.02,0.02-0.06,0.04-0.09,0.06c0,0,0,0,0,0c-0.03,0.02-0.07,0.03-0.1,0.05
	c-0.02,0.01-0.05,0.02-0.07,0.02c-0.05,0.01-0.09,0.02-0.14,0.02c-0.03,0-0.07,0-0.1,0c-0.03,0-0.07-0.01-0.11-0.01
	c-0.01-0.01-0.05-0.01-0.09-0.03c-0.02-0.01-0.05-0.02-0.08-0.03c-0.04-0.02-0.07-0.04-0.11-0.06c-0.02-0.02-0.05-0.04-0.08-0.06
	c-0.01-0.01-0.05-0.04-0.07-0.07c-0.01-0.01-0.03-0.04-0.06-0.07c-0.01-0.01-0.03-0.04-0.05-0.08c-0.01-0.02-0.03-0.06-0.04-0.1
	c-0.01-0.03-0.02-0.06-0.03-0.09c0,0,0,0,0,0c0,0,0,0,0-0.01c0,0,0,0,0-0.01c0,0,0,0,0,0c-0.01-0.03-0.01-0.07-0.02-0.1c0,0,0,0,0,0
	c0,0,0,0,0,0c0-0.01,0-0.01,0-0.02C29.24,12.56,29.24,12.53,29.24,12.5z M28.64,10.34C28.64,10.34,28.64,10.34,28.64,10.34
	c0-0.01,0-0.01,0-0.02c0-0.02,0.01-0.05,0.01-0.07c0,0,0,0,0,0c0.01-0.03,0.02-0.06,0.03-0.08c0.01-0.03,0.02-0.05,0.03-0.07
	c0.02-0.03,0.03-0.05,0.05-0.07c0.02-0.02,0.04-0.05,0.06-0.07c0.01-0.01,0.03-0.02,0.05-0.04c0.02-0.02,0.04-0.03,0.07-0.05
	c0.02-0.01,0.04-0.02,0.07-0.04c0,0,0,0,0,0c0,0,0,0,0,0c0.01,0,0.01-0.01,0.02-0.01c0.02-0.01,0.05-0.02,0.08-0.03
	c0.03-0.01,0.05-0.01,0.08-0.02c0.01,0,0.05-0.01,0.09-0.01c0.02,0,0.04,0,0.06,0c0,0,0,0,0,0c0.03,0,0.06,0.01,0.09,0.01
	c0,0,0,0,0.01,0c0,0,0.01,0,0.01,0c0.02,0.01,0.04,0.01,0.06,0.02c0.03,0.01,0.06,0.03,0.09,0.04c0,0,0,0,0,0c0,0,0.01,0,0.01,0.01
	c0.01,0.01,0.03,0.02,0.04,0.03c0,0,0,0,0,0c0,0,0.01,0,0.01,0.01c0,0,0.01,0,0.01,0.01c0.01,0.01,0.03,0.03,0.05,0.05
	c0.02,0.02,0.04,0.04,0.05,0.06c0.02,0.03,0.04,0.06,0.06,0.09l0.02,0.04c0.01,0.03,0.03,0.07,0.04,0.1c0,0.02,0.01,0.04,0.01,0.06
	c0.01,0.04,0.01,0.08,0.01,0.11c0,0.02,0,0.04,0,0.06c0,0,0,0,0,0c0,0.04-0.01,0.07-0.02,0.11c-0.01,0.03-0.02,0.06-0.03,0.09
	c-0.01,0.01-0.01,0.03-0.02,0.05c0,0,0,0,0,0.01c0,0,0,0,0,0.01c-0.01,0.01-0.02,0.03-0.03,0.05c0,0,0,0,0,0c0,0,0,0.01-0.01,0.01
	c0,0-0.01,0.01-0.01,0.01c0,0,0,0,0,0c-0.02,0.02-0.04,0.05-0.06,0.07c-0.02,0.02-0.04,0.04-0.07,0.06
	c-0.01,0.01-0.04,0.03-0.07,0.05c-0.02,0.01-0.04,0.02-0.06,0.03c-0.02,0.01-0.05,0.02-0.08,0.03c-0.01,0-0.05,0.01-0.09,0.02
	c-0.03,0-0.05,0-0.08,0.01c-0.02,0-0.05,0-0.07,0c0,0,0,0-0.01,0c0,0-0.01,0-0.01,0c-0.02,0-0.04-0.01-0.07-0.01c0,0,0,0,0,0
	c0,0-0.01,0-0.01,0C29.08,11.01,29.06,11,29.04,11c-0.02,0-0.04-0.02-0.07-0.03c0,0,0,0,0,0c0,0-0.01-0.01-0.01-0.01c0,0,0,0-0.01,0
	c0,0,0,0,0,0c-0.02-0.01-0.04-0.02-0.06-0.03c-0.02-0.02-0.05-0.04-0.07-0.06c-0.02-0.02-0.04-0.04-0.05-0.06
	c-0.01-0.01-0.03-0.04-0.05-0.06c-0.01-0.02-0.02-0.04-0.03-0.06c0,0,0,0,0,0c0-0.01-0.01-0.01-0.01-0.02
	c-0.01-0.02-0.02-0.04-0.02-0.07c0,0,0-0.01,0-0.01c0,0,0,0,0,0c0,0,0,0,0,0c-0.01-0.02-0.01-0.05-0.01-0.07c0,0,0,0,0,0
	c0,0,0,0,0-0.01c0,0,0,0,0-0.01c0,0,0,0.01,0,0.01c0,0,0,0.01,0,0.01c-0.01-0.04-0.01-0.07-0.01-0.11
	C28.64,10.39,28.64,10.37,28.64,10.34z M55.71,13.53c0-0.21,0.32-0.44,0.59-0.45c0.43-0.05,0.87,0.31,0.9,0.74
	c0.01,0.2-0.1,0.4-0.29,0.49c-0.11,0.03-0.25,0.06-0.38,0.05C56.07,14.35,55.8,13.96,55.71,13.53
	C55.71,13.53,55.71,13.53,55.71,13.53z M51.27,11.92c0.19,0.09,0.32,0.3,0.21,0.5c-0.16,0.22-0.49,0.24-0.75,0.26
	c-0.3,0.02-0.62-0.2-0.56-0.51C50.17,11.92,50.9,11.75,51.27,11.92z M52.89,10.56c0.07-0.03,0.14-0.04,0.21-0.04
	c0.11,0,0.21,0.05,0.3,0.12c0.1,0.08,0.17,0.2,0.16,0.33c0,0.06-0.02,0.11-0.06,0.17c-0.1,0.14-0.27,0.31-0.46,0.25
	c-0.18-0.05-0.26-0.28-0.29-0.44C52.73,10.79,52.72,10.63,52.89,10.56z M91.11,12.91c0.01-0.03,0.01-0.07,0.02-0.1
	c0.01-0.04,0.02-0.07,0.03-0.11c0.01-0.03,0.03-0.06,0.05-0.09c0,0,0,0,0,0c0.01-0.02,0.03-0.04,0.04-0.06c0,0,0,0,0,0
	c0,0,0,0,0-0.01c0,0,0.01-0.01,0.01-0.01c0.02-0.02,0.04-0.05,0.07-0.07c0,0,0.02-0.02,0.04-0.03c0.02-0.02,0.04-0.03,0.07-0.05
	c0,0,0,0,0,0c0,0,0.01,0,0.01-0.01c0,0,0.01,0,0.01-0.01c0.01-0.01,0.03-0.02,0.06-0.03c0.02-0.01,0.05-0.02,0.07-0.03
	c0.01,0,0.05-0.01,0.08-0.02c0.01,0,0.05,0,0.08,0c0.02,0,0.05,0,0.07,0c0.03,0.01,0.07,0.01,0.1,0.02c0.03,0.01,0.07,0.02,0.1,0.03
	c0.02,0.01,0.05,0.02,0.08,0.04c0,0,0,0,0.01,0c0,0,0.01,0,0.01,0.01c0.03,0.02,0.06,0.04,0.1,0.07c0.03,0.02,0.06,0.05,0.09,0.08
	c0.03,0.03,0.06,0.06,0.08,0.09c0.03,0.04,0.06,0.08,0.09,0.13c0,0,0,0,0.01,0.01c0,0,0,0,0,0.01c0,0,0,0,0,0
	c0.02,0.04,0.04,0.08,0.06,0.11c0.01,0.03,0.03,0.08,0.04,0.12c0.01,0.05,0.02,0.1,0.03,0.16c0,0,0,0,0,0
	c0,0.04,0.01,0.08,0.01,0.12c0,0.05,0,0.09-0.01,0.13c0,0,0,0,0,0c0,0.04-0.01,0.07-0.02,0.1c0,0,0,0,0,0
	c-0.01,0.04-0.02,0.08-0.04,0.12c-0.01,0.03-0.03,0.06-0.04,0.08c-0.02,0.03-0.04,0.06-0.06,0.08c-0.01,0.02-0.03,0.03-0.04,0.05
	c-0.02,0.02-0.05,0.04-0.07,0.06c-0.01,0.01-0.03,0.02-0.05,0.03c0,0,0,0,0,0c0,0-0.01,0.01-0.01,0.01
	c-0.02,0.01-0.04,0.02-0.07,0.03c-0.01,0.01-0.05,0.02-0.08,0.03c-0.01,0-0.04,0.01-0.07,0.01c-0.03,0-0.06,0-0.09,0.01
	c-0.03,0-0.06,0-0.09-0.01c0,0,0,0-0.01,0c0,0-0.01,0-0.01,0c-0.02,0-0.04-0.01-0.06-0.02c-0.04-0.01-0.07-0.02-0.1-0.03
	c-0.04-0.02-0.08-0.04-0.12-0.06c-0.02-0.01-0.06-0.04-0.1-0.07c-0.03-0.02-0.06-0.05-0.09-0.08c-0.02-0.02-0.06-0.06-0.09-0.11
	c-0.03-0.03-0.05-0.07-0.08-0.11v0c-0.02-0.04-0.05-0.08-0.07-0.13c-0.01-0.03-0.03-0.09-0.05-0.14c0-0.02-0.01-0.06-0.02-0.1
	c0,0,0,0,0,0c0,0,0-0.01,0-0.01c0,0,0,0,0,0c0,0,0,0,0,0c0,0,0,0,0-0.01c0,0,0-0.01,0-0.01c0-0.04-0.01-0.08-0.01-0.12
	C91.1,12.99,91.11,12.95,91.11,12.91z M84.28,11.93c0.16-0.05,0.34-0.03,0.5,0.05c0.41,0.19,0.48,0.66-0.05,0.73
	c-0.24,0.04-0.5-0.03-0.66-0.22c-0.07-0.08-0.14-0.22-0.1-0.33C84.01,12.04,84.17,11.96,84.28,11.93z M88.62,10.68
	C88.62,10.68,88.62,10.68,88.62,10.68C88.62,10.68,88.62,10.68,88.62,10.68c0-0.02,0-0.03,0.01-0.05c0,0,0,0,0,0v0
	c0-0.02,0.01-0.05,0.01-0.07c0.01-0.02,0.02-0.06,0.03-0.1c0.02-0.04,0.03-0.07,0.05-0.11c0.01-0.02,0.03-0.05,0.06-0.09
	c0.01-0.02,0.03-0.05,0.06-0.07c0.03-0.03,0.06-0.06,0.1-0.09c0.02-0.01,0.05-0.04,0.09-0.07c0.02-0.01,0.06-0.03,0.1-0.05
	c0.02-0.01,0.05-0.02,0.09-0.04c0.03-0.01,0.07-0.02,0.12-0.03c0.02,0,0.06-0.01,0.11-0.01c0.02,0,0.07,0,0.12,0
	c0.01,0,0.05,0.01,0.09,0.02c0,0,0,0,0,0c0.04,0.01,0.08,0.02,0.12,0.03c0.03,0.01,0.06,0.02,0.08,0.04c0,0,0.01,0,0.01,0.01h0
	c0.04,0.02,0.07,0.04,0.11,0.07c0.01,0.01,0.04,0.03,0.06,0.05c0.03,0.03,0.05,0.06,0.08,0.09c0.03,0.03,0.05,0.07,0.08,0.1
	c0.01,0.02,0.02,0.04,0.04,0.06c0,0,0,0,0,0.01c0,0,0,0.01,0.01,0.01c0.01,0.02,0.02,0.05,0.03,0.08c0.01,0.04,0.03,0.09,0.04,0.14
	c0,0.03,0.01,0.07,0.01,0.12c0,0.04,0,0.07-0.01,0.11c0,0,0,0,0,0c0,0.03-0.01,0.06-0.01,0.09c0,0,0,0,0,0.01c0,0,0,0,0,0.01
	c0,0,0,0,0,0c-0.01,0.03-0.02,0.07-0.03,0.1c-0.02,0.04-0.03,0.08-0.05,0.12c-0.01,0.02-0.03,0.05-0.05,0.08
	c-0.01,0.02-0.05,0.06-0.08,0.1c-0.01,0.01-0.04,0.04-0.07,0.06c-0.03,0.02-0.05,0.04-0.08,0.06c-0.03,0.02-0.07,0.04-0.11,0.06
	c-0.02,0.01-0.06,0.03-0.1,0.04c-0.03,0.01-0.07,0.02-0.11,0.03c-0.03,0.01-0.07,0.01-0.12,0.01c-0.04,0-0.08,0-0.12,0
	c-0.02,0-0.06-0.01-0.1-0.02c-0.04-0.01-0.07-0.02-0.11-0.03c-0.03-0.01-0.06-0.03-0.09-0.04c-0.02-0.01-0.06-0.04-0.1-0.06
	c-0.01-0.01-0.04-0.04-0.08-0.06c-0.03-0.03-0.05-0.05-0.08-0.08c0,0,0,0,0,0c0,0-0.01-0.01-0.01-0.01
	c-0.01-0.02-0.03-0.04-0.05-0.07c0,0,0,0,0,0c-0.02-0.03-0.04-0.06-0.06-0.1c-0.02-0.04-0.03-0.07-0.04-0.11
	c-0.01-0.04-0.02-0.07-0.03-0.11c-0.01-0.03-0.01-0.07-0.01-0.12l0-0.01C88.61,10.74,88.62,10.71,88.62,10.68z M85.53,9.27
	c0.08-0.19,0.27-0.35,0.49-0.37c0.08-0.01,0.21,0,0.29,0.07c0.12,0.1,0.16,0.27,0.1,0.42c-0.09,0.23-0.36,0.47-0.62,0.47
	c-0.09,0-0.21-0.06-0.26-0.15C85.47,9.55,85.48,9.4,85.53,9.27z"/>
</svg>
