<?xml version="1.0" encoding="utf-8"?>
<!-- Generator: Adobe Illustrator 23.0.0, SVG Export Plug-In . SVG Version: 6.00 Build 0)  -->
<svg version="1.1" id="Слой_1" xmlns="http://www.w3.org/2000/svg" xmlns:xlink="http://www.w3.org/1999/xlink" x="0px" y="0px"
	 viewBox="0 0 100 21.28" style="enable-background:new 0 0 100 21.28;" xml:space="preserve">
<g>
	<path d="M15.62,9.76c-0.48-0.13-0.97,0.24-1.07,0.7c-0.1,0.51,0.23,0.94,0.7,1.07c0.48,0.13,0.97-0.24,1.07-0.7
		C16.42,10.32,16.09,9.88,15.62,9.76z"/>
	<path d="M42.79,9.76c-0.48-0.13-0.97,0.24-1.07,0.7c-0.1,0.51,0.23,0.94,0.7,1.07c0.48,0.13,0.97-0.24,1.07-0.7
		C43.59,10.32,43.26,9.88,42.79,9.76z"/>
	<path d="M19.65,9.54c-0.6-0.16-1.21,0.3-1.33,0.88c-0.13,0.63,0.28,1.17,0.88,1.33c0.6,0.16,1.21-0.3,1.33-0.88
		C20.65,10.24,20.24,9.7,19.65,9.54z"/>
	<path d="M39.28,11.76c-0.02,0-0.05,0-0.07,0c-0.03,0-0.06,0.01-0.1,0.01C39.17,11.77,39.22,11.76,39.28,11.76z"/>
	<path d="M39.19,9.51c-1.14-0.1-1.69,1.46-0.73,2.08c0.22,0.15,0.49,0.2,0.75,0.17c0.05-0.01,0.1-0.01,0.15-0.02
		c0.25-0.07,0.47-0.22,0.65-0.43c-0.08,0.11-0.17,0.2-0.28,0.27C40.62,11.05,40.24,9.55,39.19,9.51z"/>
	<path d="M24.15,9.32c-0.72-0.19-1.46,0.36-1.6,1.05c-0.07,0.35,0,0.72,0.19,1.02c0.21,0.32,0.51,0.49,0.86,0.58
		c0.72,0.19,1.46-0.36,1.6-1.05c0.07-0.35,0-0.72-0.19-1.02C24.8,9.58,24.5,9.41,24.15,9.32z"/>
	<path d="M34.8,9.32c-0.72-0.19-1.46,0.36-1.6,1.05c-0.07,0.35,0,0.72,0.19,1.02c0.21,0.32,0.51,0.49,0.86,0.58
		c0.72,0.19,1.46-0.36,1.6-1.05c0.07-0.35,0-0.72-0.19-1.02C35.45,9.58,35.15,9.41,34.8,9.32z"/>
	<path d="M29.34,8.87c-0.95-0.26-1.94,0.48-2.13,1.41c-0.1,0.47,0,0.96,0.26,1.36c0.27,0.42,0.68,0.65,1.15,0.78
		c0.95,0.26,1.94-0.48,2.13-1.41c0.1-0.47,0-0.96-0.26-1.36C30.21,9.23,29.81,9,29.34,8.87z"/>
	<path d="M9.05,10.4c-0.92-0.01-1.85,0.04-2.77,0.04c-0.12,0-0.23,0.1-0.23,0.22c0,0.09,0.05,0.17,0.13,0.2
		c0.97,0.06,1.96-0.04,2.95-0.01C9.43,10.81,9.35,10.35,9.05,10.4z"/>
	<path d="M51.37,10.4c-0.92-0.01-1.85,0.04-2.77,0.04c-0.12,0-0.23,0.1-0.23,0.22c0,0.09,0.05,0.17,0.13,0.2
		c0.97,0.06,1.96-0.04,2.95-0.01C51.74,10.81,51.67,10.35,51.37,10.4z"/>
	<path d="M57.93,9.76c-0.48-0.13-0.97,0.24-1.07,0.7c-0.1,0.51,0.23,0.94,0.7,1.07c0.48,0.13,0.97-0.24,1.07-0.7
		C58.74,10.32,58.41,9.88,57.93,9.76z"/>
	<path d="M85.11,9.76c-0.48-0.13-0.97,0.24-1.07,0.7c-0.1,0.51,0.23,0.94,0.7,1.07c0.48,0.13,0.97-0.24,1.07-0.7
		C85.91,10.32,85.58,9.88,85.11,9.76z"/>
	<path d="M61.96,9.54c-0.6-0.16-1.21,0.3-1.33,0.88c-0.13,0.63,0.28,1.17,0.88,1.33c0.6,0.16,1.21-0.3,1.33-0.88
		C62.97,10.24,62.56,9.7,61.96,9.54z"/>
	<path d="M81.51,9.51c-1.14-0.1-1.69,1.46-0.73,2.08c0.22,0.15,0.49,0.2,0.75,0.17c0.05-0.01,0.1-0.01,0.15-0.02
		c0.25-0.07,0.47-0.22,0.65-0.43c-0.08,0.11-0.17,0.2-0.28,0.27C82.94,11.05,82.55,9.55,81.51,9.51z"/>
	<path d="M81.6,11.76c-0.02,0-0.05,0-0.07,0c-0.03,0-0.06,0.01-0.1,0.01C81.49,11.77,81.54,11.76,81.6,11.76z"/>
	<path d="M66.47,9.32c-0.72-0.19-1.46,0.36-1.6,1.05c-0.07,0.35,0,0.72,0.19,1.02c0.21,0.32,0.51,0.49,0.86,0.58
		c0.72,0.19,1.46-0.36,1.6-1.05c0.07-0.35,0-0.72-0.19-1.02C67.12,9.58,66.82,9.41,66.47,9.32z"/>
	<path d="M77.11,9.32c-0.72-0.19-1.46,0.36-1.6,1.05c-0.07,0.35,0,0.72,0.19,1.02c0.21,0.32,0.51,0.49,0.86,0.58
		c0.72,0.19,1.46-0.36,1.6-1.05c0.07-0.35,0-0.72-0.19-1.02C77.76,9.58,77.46,9.41,77.11,9.32z"/>
	<path d="M71.65,8.87c-0.95-0.26-1.94,0.48-2.13,1.41c-0.1,0.47,0,0.96,0.26,1.36c0.27,0.42,0.68,0.65,1.15,0.78
		c0.95,0.26,1.94-0.48,2.13-1.41c0.1-0.47,0-0.96-0.26-1.36C72.53,9.23,72.12,9,71.65,8.87z"/>
	<path d="M93.68,10.4c-0.92-0.01-1.85,0.04-2.77,0.04c-0.12,0-0.23,0.1-0.23,0.22c0,0.09,0.05,0.17,0.13,0.2
		c0.97,0.06,1.96-0.04,2.95-0.01C94.06,10.81,93.98,10.35,93.68,10.4z"/>
</g>
</svg>
