<?xml version="1.0" encoding="utf-8"?>
<!-- Generator: Adobe Illustrator 23.0.0, SVG Export Plug-In . SVG Version: 6.00 Build 0)  -->
<svg version="1.1" id="Слой_1" xmlns="http://www.w3.org/2000/svg" xmlns:xlink="http://www.w3.org/1999/xlink" x="0px" y="0px"
	 viewBox="0 0 150 90" style="enable-background:new 0 0 150 90;" xml:space="preserve">
<g>
	<path d="M22.04,66.6c-1.2-0.38-2.38-0.24-3.31,0.35c-0.46,0.3-0.86,0.7-1.16,1.2c-0.3,0.5-0.41,1.09-0.44,1.74
		c-0.03,1.09,0.23,2.21,0.87,3.07c0.97,1.32,2.76,1.8,4.31,1.13c1.45-0.63,2.23-1.98,2.33-3.37c0.08-0.75-0.13-1.53-0.36-2.21
		C23.9,67.6,23.06,66.93,22.04,66.6z M23.63,70.83c-0.05,0.38-0.16,0.75-0.34,1.1c-0.56,1.03-1.8,1.84-3.06,1.43
		c-1.14-0.37-1.92-1.55-2.04-2.75c-0.02-0.23-0.07-0.4-0.05-0.71c0.03-0.55,0.15-1.09,0.44-1.53c0.31-0.44,0.74-0.77,1.3-0.92
		c1.08-0.29,2.42-0.01,3.1,0.83C23.51,68.99,23.75,69.97,23.63,70.83z"/>
	<path d="M24.03,54.78c-0.76-0.29-1.63,0.1-1.91,0.87c-0.24,0.65,0.03,1.36,0.6,1.71c-0.28,1.21-0.54,2.48-0.92,3.66
		c-0.6,0.07-1.14,0.5-1.29,1.1c-0.23,0.78,0.36,1.58,1.16,1.73c0.8,0.15,1.55-0.35,1.76-1.08c0.15-0.58-0.14-1.19-0.65-1.52
		c0.07-0.24,0.11-0.5,0.2-0.73c0.33-0.96,0.45-1.98,0.71-2.96c0.56-0.07,1.06-0.41,1.25-0.92C25.21,55.92,24.79,55.08,24.03,54.78z"
		/>
	<path d="M26.24,45.11c-0.54,0.09-1.06,0.31-1.53,0.65c-0.49,0.33-0.87,0.81-1.12,1.41c-0.45,1-0.65,2.13-0.4,3.18
		c0.38,1.59,1.84,2.74,3.52,2.73c1.58-0.01,2.82-0.95,3.45-2.18c0.17-0.34,0.3-0.7,0.38-1.07c0.11-0.36,0.17-0.72,0.18-1.09
		c0.02-1-0.49-1.95-1.31-2.66C28.45,45.26,27.32,44.93,26.24,45.11z M29.64,49.33c-0.07,0.45-0.22,0.88-0.44,1.26
		c-0.19,0.33-0.44,0.63-0.74,0.87c-0.91,0.73-2.37,0.99-3.37,0.12c-0.91-0.79-1.17-2.19-0.81-3.34c0.07-0.22,0.09-0.39,0.23-0.68
		c0.44-1.01,1.46-1.71,2.59-1.55c1.1,0.16,2.22,0.95,2.52,1.99C29.75,48.45,29.74,48.9,29.64,49.33z"/>
	<path d="M33.8,36.05c-0.47,0.51-0.49,1.28-0.1,1.82c-0.78,0.96-1.51,2.03-2.31,2.99c-0.58-0.17-1.23,0.01-1.61,0.52
		c-0.48,0.65-0.32,1.57,0.36,2.03c0.68,0.45,1.63,0.33,2.08-0.28c0.36-0.48,0.33-1.15-0.02-1.66c0.15-0.2,0.29-0.42,0.46-0.6
		c0.33-0.39,0.63-0.8,0.92-1.21l0.93-1.2c0.54,0.16,1.13,0.04,1.5-0.37c0.51-0.56,0.45-1.51-0.14-2.08
		C35.29,35.43,34.34,35.45,33.8,36.05z"/>
	<path d="M38.44,28.81c-0.8,0.75-1.41,1.73-1.58,2.8c-0.26,1.63,0.64,3.27,2.18,3.91c1.45,0.6,2.94,0.2,3.99-0.71
		c0.6-0.47,1.11-1.04,1.39-1.72c0.4-0.93,0.29-2.01-0.19-2.98C43.15,27.81,40.51,27.16,38.44,28.81z M43.71,31.97
		c-0.1,0.94-0.75,1.66-1.43,2.18c-0.3,0.24-0.64,0.42-1.01,0.53c-1.12,0.33-2.54,0.01-3.13-1.19c-0.53-1.09-0.24-2.49,0.53-3.43
		c0.15-0.18,0.22-0.34,0.48-0.53c0.88-0.66,2.03-0.99,3.01-0.39C43.1,29.71,43.83,30.88,43.71,31.97z"/>
	<path d="M52.21,22.58c-0.62,0.3-0.94,1.01-0.79,1.66c-1.06,0.65-2.24,1.18-3.31,1.82c-0.46-0.38-1.13-0.46-1.67-0.13
		c-0.69,0.42-0.9,1.35-0.45,2.03c0.45,0.68,1.36,0.93,2.01,0.53c0.51-0.31,0.74-0.95,0.62-1.56c0.22-0.13,0.43-0.28,0.65-0.38
		c0.88-0.5,1.81-0.91,2.67-1.46c0.43,0.35,1.02,0.46,1.51,0.22c0.69-0.33,1-1.24,0.68-1.99C53.82,22.57,52.94,22.23,52.21,22.58z"/>
	<path d="M59.34,17.78c-1.07,0.26-1.99,1-2.56,1.92c-0.87,1.42-0.68,3.28,0.48,4.47c0.54,0.56,1.2,0.88,1.88,1.01
		c0.69,0.15,1.37,0.03,2.06-0.1c0.74-0.17,1.42-0.53,1.96-1.05c0.73-0.71,1.05-1.76,1-2.84C64.05,18.66,61.88,17.05,59.34,17.78z
		 M62.93,22.73c-0.46,0.82-1.32,1.29-2.18,1.44c-0.38,0.05-0.76,0.1-1.14,0.06c-1.15-0.12-2.33-0.96-2.4-2.29
		c-0.06-1.2,0.74-2.44,1.83-2.95c0.21-0.09,0.35-0.18,0.66-0.26c1.07-0.28,2.25-0.14,2.92,0.79C63.26,20.41,63.47,21.77,62.93,22.73
		z"/>
	<path d="M73.19,17.47c-0.69,0.03-1.26,0.56-1.38,1.22c-0.61,0.09-1.24,0.15-1.87,0.2l-0.95,0.05c-0.31,0.04-0.62,0.07-0.93,0.11
		c-0.27-0.53-0.86-0.86-1.48-0.76c-0.8,0.12-1.35,0.9-1.21,1.7c0.14,0.8,0.89,1.38,1.64,1.27c0.59-0.09,1.05-0.6,1.18-1.2
		c0.25-0.04,0.5-0.09,0.75-0.1c1.01-0.02,2.02-0.11,3.03-0.27c0.26,0.49,0.75,0.82,1.3,0.79c0.76-0.04,1.4-0.76,1.41-1.57
		C74.67,18.08,74,17.43,73.19,17.47z"/>
	<path d="M82.17,16.04c-0.5-0.3-1.09-0.41-1.74-0.44c-1.09-0.03-2.21,0.23-3.07,0.87c-1.32,0.97-1.8,2.76-1.13,4.31
		c0.63,1.45,1.98,2.23,3.37,2.33c0.75,0.08,1.53-0.13,2.21-0.36c0.92-0.37,1.6-1.21,1.92-2.23c0.38-1.2,0.24-2.38-0.35-3.31
		C83.07,16.74,82.66,16.34,82.17,16.04z M82.04,21.45c-0.71,0.54-1.69,0.78-2.55,0.66c-0.38-0.05-0.75-0.16-1.1-0.34
		c-1.03-0.56-1.84-1.8-1.43-3.06c0.37-1.14,1.55-1.92,2.75-2.04c0.23-0.02,0.4-0.07,0.71-0.05c0.55,0.03,1.09,0.15,1.53,0.44
		c0.44,0.31,0.77,0.74,0.92,1.3C83.17,19.42,82.88,20.77,82.04,21.45z"/>
	<path d="M94.67,20.59c-0.65-0.24-1.36,0.03-1.71,0.6c-1.21-0.28-2.48-0.54-3.66-0.92c-0.07-0.6-0.5-1.14-1.1-1.29
		c-0.78-0.23-1.58,0.36-1.73,1.16c-0.15,0.8,0.35,1.55,1.08,1.76c0.58,0.15,1.18-0.14,1.52-0.65c0.24,0.07,0.5,0.11,0.73,0.2
		c0.96,0.33,1.98,0.45,2.96,0.71c0.07,0.56,0.41,1.06,0.92,1.25c0.72,0.26,1.56-0.16,1.85-0.92S95.43,20.87,94.67,20.59z"/>
	<path d="M104.56,23.19c-0.33-0.49-0.81-0.87-1.41-1.12c-1-0.45-2.13-0.65-3.18-0.4c-1.59,0.38-2.74,1.84-2.73,3.52
		c0.01,1.58,0.95,2.82,2.18,3.45c0.34,0.17,0.7,0.3,1.07,0.38c0.36,0.11,0.72,0.17,1.09,0.18c1,0.02,1.95-0.49,2.66-1.31
		c0.83-0.95,1.16-2.09,0.98-3.17C105.12,24.18,104.9,23.65,104.56,23.19z M104.31,25.58c-0.16,1.1-0.95,2.22-1.99,2.52
		c-0.45,0.13-0.9,0.12-1.33,0.02c-0.45-0.07-0.88-0.22-1.26-0.44c-0.33-0.19-0.63-0.44-0.87-0.74c-0.73-0.91-0.99-2.37-0.12-3.37
		c0.79-0.91,2.19-1.17,3.34-0.81c0.22,0.07,0.39,0.09,0.68,0.23C103.77,23.43,104.46,24.46,104.31,25.58z"/>
	<path d="M114.26,32.27c-0.51-0.47-1.28-0.49-1.82-0.1c-0.96-0.78-2.03-1.51-2.99-2.31c0.17-0.58-0.01-1.23-0.52-1.61
		c-0.65-0.48-1.57-0.32-2.03,0.36s-0.33,1.63,0.28,2.08c0.48,0.36,1.15,0.33,1.66-0.02c0.2,0.15,0.42,0.29,0.6,0.46
		c0.39,0.33,0.8,0.63,1.21,0.92l1.2,0.93c-0.16,0.54-0.04,1.13,0.37,1.5c0.56,0.51,1.51,0.45,2.08-0.14
		C114.89,33.77,114.87,32.82,114.26,32.27z"/>
	<path d="M121.51,36.92c-0.75-0.8-1.73-1.41-2.8-1.58c-1.63-0.26-3.27,0.64-3.91,2.18c-0.6,1.45-0.2,2.94,0.71,3.99
		c0.47,0.6,1.04,1.11,1.72,1.39c0.93,0.4,2.01,0.29,2.98-0.19C122.51,41.63,123.16,38.99,121.51,36.92z M121.17,40.64
		c-0.57,0.95-1.73,1.67-2.82,1.55c-0.94-0.1-1.66-0.75-2.18-1.43c-0.24-0.3-0.42-0.64-0.53-1.01c-0.33-1.12-0.01-2.54,1.19-3.13
		c1.09-0.53,2.49-0.24,3.43,0.53c0.18,0.15,0.34,0.22,0.53,0.48C121.44,38.5,121.77,39.65,121.17,40.64z"/>
	<path d="M127,52.61c0.75-0.32,1.09-1.2,0.74-1.93c-0.3-0.62-1.01-0.94-1.66-0.79c-0.65-1.06-1.18-2.24-1.82-3.31
		c0.38-0.46,0.46-1.13,0.13-1.67c-0.42-0.69-1.35-0.9-2.03-0.45c-0.68,0.45-0.93,1.36-0.53,2.01c0.31,0.51,0.95,0.74,1.56,0.62
		c0.13,0.22,0.28,0.43,0.38,0.65c0.5,0.88,0.91,1.81,1.46,2.67c-0.35,0.43-0.46,1.02-0.22,1.51C125.34,52.62,126.25,52.93,127,52.61
		z"/>
	<path d="M132.54,57.81c-0.26-1.07-1-1.99-1.92-2.56c-1.42-0.87-3.28-0.68-4.47,0.48c-0.56,0.54-0.88,1.2-1.01,1.88
		c-0.15,0.69-0.03,1.37,0.1,2.06c0.17,0.74,0.53,1.42,1.05,1.96c0.71,0.73,1.76,1.05,2.84,1C131.66,62.53,133.27,60.36,132.54,57.81
		z M127.59,61.41c-0.82-0.46-1.29-1.32-1.44-2.18c-0.05-0.38-0.1-0.76-0.06-1.14c0.12-1.15,0.96-2.33,2.29-2.4
		c1.2-0.06,2.44,0.74,2.95,1.83c0.09,0.21,0.18,0.35,0.26,0.66c0.28,1.07,0.14,2.25-0.79,2.92
		C129.91,61.74,128.55,61.95,127.59,61.41z"/>
	<path d="M131.65,71.53c-0.09-0.61-0.15-1.24-0.2-1.87l-0.05-0.95c-0.04-0.31-0.07-0.62-0.11-0.93c0.53-0.27,0.86-0.86,0.76-1.48
		c-0.12-0.8-0.9-1.35-1.7-1.21s-1.38,0.89-1.27,1.64c0.09,0.59,0.6,1.05,1.2,1.18c0.04,0.25,0.09,0.5,0.1,0.75
		c0.02,1.01,0.11,2.02,0.27,3.03c-0.49,0.26-0.82,0.75-0.79,1.3c0.04,0.76,0.76,1.4,1.57,1.41c0.82,0,1.47-0.67,1.43-1.48
		C132.84,72.22,132.31,71.65,131.65,71.53z"/>
</g>
</svg>
