<?xml version="1.0" encoding="utf-8"?>
<!-- Generator: Adobe Illustrator 23.0.0, SVG Export Plug-In . SVG Version: 6.00 Build 0)  -->
<svg version="1.1" id="Слой_1" xmlns="http://www.w3.org/2000/svg" xmlns:xlink="http://www.w3.org/1999/xlink" x="0px" y="0px"
	 viewBox="0 0 100 21.28" width="100" height="21.28" style="enable-background:new 0 0 100 21.28;" xml:space="preserve">
<g>
	<path d="M9.31,0.89C9.05,0.68,8.74,0.81,8.59,1.03C8.56,1.05,8.52,1.05,8.48,1.08c-1.8,2.18-2.19,5.2-2.42,7.94
		c-0.42,3.6,0.36,7.29,3,9.9c0.15,0.23,0.48,0.28,0.7,0.13c0.13-0.09,0.26-0.16,0.38-0.26c0.37-0.32,0.66-0.74,0.93-1.15
		c0.3-0.43,0.45-0.92,0.6-1.42c0.12-0.4,0.22-0.8,0.31-1.21c0.19-0.88,0.33-1.77,0.41-2.67c0.09-0.94,0.12-1.89,0.09-2.84
		c-0.03-0.94-0.12-1.89-0.29-2.82c-0.16-0.89-0.39-1.76-0.73-2.6c-0.31-0.78-0.71-1.53-1.23-2.19C9.96,1.52,9.65,1.18,9.31,0.89z
		 M11.02,14.72c-0.32,1.08-0.52,2.42-1.26,3.38c0,0.01,0,0.01-0.01,0.02c-0.35-0.02-1.29-1.25-1.47-1.76
		C6.12,12.35,6.72,5.88,9.01,1.99C11.76,4.81,11.87,11.13,11.02,14.72z"/>
	<path d="M17.47,0.89c-0.26-0.21-0.56-0.08-0.71,0.14c-0.04,0.01-0.07,0.02-0.11,0.04c-1.8,2.18-2.19,5.2-2.42,7.94
		c-0.42,3.6,0.36,7.29,3,9.9c0.15,0.23,0.48,0.28,0.7,0.13c0.13-0.09,0.26-0.16,0.38-0.26c0.37-0.32,0.66-0.74,0.93-1.15
		c0.3-0.43,0.45-0.92,0.6-1.42c0.12-0.4,0.22-0.8,0.31-1.21c0.19-0.88,0.33-1.77,0.41-2.67c0.09-0.94,0.12-1.89,0.09-2.84
		c-0.03-0.94-0.12-1.89-0.29-2.82c-0.16-0.89-0.39-1.76-0.73-2.6c-0.31-0.78-0.71-1.53-1.23-2.19C18.12,1.52,17.81,1.18,17.47,0.89z
		 M19.18,14.72c-0.32,1.08-0.52,2.42-1.26,3.38c0,0.01,0,0.01-0.01,0.02c-0.35-0.02-1.29-1.25-1.47-1.76
		c-2.16-4.01-1.57-10.48,0.72-14.37C19.92,4.81,20.03,11.13,19.18,14.72z"/>
	<path d="M25.62,0.89c-0.26-0.21-0.56-0.08-0.71,0.14c-0.04,0.01-0.07,0.02-0.11,0.04c-1.8,2.18-2.19,5.2-2.42,7.94
		c-0.42,3.6,0.36,7.29,3,9.9c0.15,0.23,0.48,0.28,0.7,0.13c0.13-0.09,0.26-0.16,0.38-0.26c0.37-0.32,0.66-0.74,0.93-1.15
		c0.3-0.43,0.45-0.92,0.6-1.42c0.12-0.4,0.22-0.8,0.31-1.21c0.19-0.88,0.33-1.77,0.41-2.67c0.09-0.94,0.12-1.89,0.09-2.84
		c-0.03-0.94-0.12-1.89-0.29-2.82c-0.16-0.89-0.39-1.76-0.73-2.6c-0.31-0.78-0.71-1.53-1.23-2.19C26.28,1.52,25.97,1.18,25.62,0.89z
		 M27.34,14.72c-0.32,1.08-0.52,2.42-1.26,3.38c0,0.01,0,0.01-0.01,0.02c-0.35-0.02-1.29-1.25-1.47-1.76
		c-2.16-4.01-1.57-10.48,0.72-14.37C28.08,4.81,28.19,11.13,27.34,14.72z"/>
	<path d="M33.78,0.89c-0.26-0.21-0.56-0.08-0.71,0.14C33.03,1.05,33,1.05,32.96,1.08c-1.8,2.18-2.19,5.2-2.42,7.94
		c-0.42,3.6,0.36,7.29,3,9.9c0.15,0.23,0.48,0.28,0.7,0.13c0.13-0.09,0.26-0.16,0.38-0.26c0.37-0.32,0.66-0.74,0.93-1.15
		c0.3-0.43,0.45-0.92,0.6-1.42c0.12-0.4,0.22-0.8,0.31-1.21c0.19-0.88,0.33-1.77,0.41-2.67c0.09-0.94,0.12-1.89,0.09-2.84
		c-0.03-0.94-0.12-1.89-0.29-2.82c-0.16-0.89-0.39-1.76-0.73-2.6c-0.31-0.78-0.71-1.53-1.23-2.19C34.44,1.52,34.13,1.18,33.78,0.89z
		 M35.5,14.72c-0.32,1.08-0.52,2.42-1.26,3.38c0,0.01,0,0.01-0.01,0.02c-0.35-0.02-1.29-1.25-1.47-1.76
		C30.6,12.35,31.2,5.88,33.49,1.99C36.24,4.81,36.35,11.13,35.5,14.72z"/>
	<path d="M41.94,0.89c-0.26-0.21-0.56-0.08-0.71,0.14c-0.04,0.01-0.07,0.02-0.11,0.04c-1.8,2.18-2.19,5.2-2.42,7.94
		c-0.42,3.6,0.36,7.29,3,9.9c0.15,0.23,0.48,0.28,0.7,0.13c0.13-0.09,0.26-0.16,0.38-0.26c0.37-0.32,0.66-0.74,0.93-1.15
		c0.3-0.43,0.45-0.92,0.6-1.42c0.12-0.4,0.22-0.8,0.31-1.21c0.19-0.88,0.33-1.77,0.41-2.67c0.09-0.94,0.12-1.89,0.09-2.84
		C45.09,8.55,45,7.6,44.83,6.67c-0.16-0.89-0.39-1.76-0.73-2.6c-0.31-0.78-0.71-1.53-1.23-2.19C42.6,1.52,42.29,1.18,41.94,0.89z
		 M43.66,14.72c-0.32,1.08-0.52,2.42-1.26,3.38c0,0.01,0,0.01-0.01,0.02c-0.35-0.02-1.29-1.25-1.47-1.76
		c-2.16-4.01-1.57-10.48,0.72-14.37C44.4,4.81,44.51,11.13,43.66,14.72z"/>
	<path d="M50.1,0.89c-0.26-0.21-0.56-0.08-0.71,0.14c-0.04,0.01-0.07,0.02-0.11,0.04c-1.8,2.18-2.19,5.2-2.42,7.94
		c-0.42,3.6,0.36,7.29,3,9.9c0.15,0.23,0.48,0.28,0.7,0.13c0.13-0.09,0.26-0.16,0.38-0.26c0.37-0.32,0.66-0.74,0.93-1.15
		c0.3-0.43,0.45-0.92,0.6-1.42c0.12-0.4,0.22-0.8,0.31-1.21c0.19-0.88,0.33-1.77,0.41-2.67c0.09-0.94,0.12-1.89,0.09-2.84
		c-0.03-0.94-0.12-1.89-0.29-2.82c-0.16-0.89-0.39-1.76-0.73-2.6c-0.31-0.78-0.71-1.53-1.23-2.19C50.76,1.52,50.45,1.18,50.1,0.89z
		 M51.82,14.72c-0.32,1.08-0.52,2.42-1.26,3.38c0,0.01,0,0.01-0.01,0.02c-0.35-0.02-1.29-1.25-1.47-1.76
		c-2.16-4.01-1.57-10.48,0.72-14.37C52.56,4.81,52.67,11.13,51.82,14.72z"/>
	<path d="M58.26,0.89C58,0.68,57.7,0.81,57.55,1.03c-0.04,0.01-0.07,0.02-0.11,0.04c-1.8,2.18-2.19,5.2-2.42,7.94
		c-0.42,3.6,0.36,7.29,3,9.9c0.15,0.23,0.48,0.28,0.7,0.13c0.13-0.09,0.26-0.16,0.38-0.26c0.37-0.32,0.66-0.74,0.93-1.15
		c0.3-0.43,0.45-0.92,0.6-1.42c0.12-0.4,0.22-0.8,0.31-1.21c0.19-0.88,0.33-1.77,0.41-2.67c0.09-0.94,0.12-1.89,0.09-2.84
		c-0.03-0.94-0.12-1.89-0.29-2.82c-0.16-0.89-0.39-1.76-0.73-2.6c-0.31-0.78-0.71-1.53-1.23-2.19C58.92,1.52,58.61,1.18,58.26,0.89z
		 M59.98,14.72c-0.32,1.08-0.52,2.42-1.26,3.38c0,0.01,0,0.01-0.01,0.02c-0.35-0.02-1.29-1.25-1.47-1.76
		c-2.16-4.01-1.57-10.48,0.72-14.37C60.71,4.81,60.83,11.13,59.98,14.72z"/>
	<path d="M66.42,0.89c-0.26-0.21-0.56-0.08-0.71,0.14c-0.04,0.01-0.07,0.02-0.11,0.04c-1.8,2.18-2.19,5.2-2.42,7.94
		c-0.42,3.6,0.36,7.29,3,9.9c0.15,0.23,0.48,0.28,0.7,0.13c0.13-0.09,0.26-0.16,0.38-0.26c0.37-0.32,0.66-0.74,0.93-1.15
		c0.3-0.43,0.45-0.92,0.6-1.42c0.12-0.4,0.22-0.8,0.31-1.21c0.19-0.88,0.33-1.77,0.41-2.67c0.09-0.94,0.12-1.89,0.09-2.84
		c-0.03-0.94-0.12-1.89-0.29-2.82c-0.16-0.89-0.39-1.76-0.73-2.6c-0.31-0.78-0.71-1.53-1.23-2.19C67.08,1.52,66.77,1.18,66.42,0.89z
		 M68.14,14.72c-0.32,1.08-0.52,2.42-1.26,3.38c0,0.01,0,0.01-0.01,0.02c-0.35-0.02-1.29-1.25-1.47-1.76
		c-2.16-4.01-1.57-10.48,0.72-14.37C68.87,4.81,68.98,11.13,68.14,14.72z"/>
	<path d="M74.58,0.89c-0.26-0.21-0.56-0.08-0.71,0.14c-0.04,0.01-0.07,0.02-0.11,0.04c-1.8,2.18-2.19,5.2-2.42,7.94
		c-0.42,3.6,0.36,7.29,3,9.9c0.15,0.23,0.48,0.28,0.7,0.13c0.13-0.09,0.26-0.16,0.38-0.26c0.37-0.32,0.66-0.74,0.93-1.15
		c0.3-0.43,0.45-0.92,0.6-1.42c0.12-0.4,0.22-0.8,0.31-1.21c0.19-0.88,0.33-1.77,0.41-2.67c0.09-0.94,0.12-1.89,0.09-2.84
		c-0.03-0.94-0.12-1.89-0.29-2.82c-0.16-0.89-0.39-1.76-0.73-2.6c-0.31-0.78-0.71-1.53-1.23-2.19C75.24,1.52,74.93,1.18,74.58,0.89z
		 M76.3,14.72c-0.32,1.08-0.52,2.42-1.26,3.38c0,0.01,0,0.01-0.01,0.02c-0.35-0.02-1.29-1.25-1.47-1.76
		c-2.16-4.01-1.57-10.48,0.72-14.37C77.03,4.81,77.14,11.13,76.3,14.72z"/>
	<path d="M82.74,0.89c-0.26-0.21-0.56-0.08-0.71,0.14c-0.04,0.01-0.07,0.02-0.11,0.04c-1.8,2.18-2.19,5.2-2.42,7.94
		c-0.42,3.6,0.36,7.29,3,9.9c0.15,0.23,0.48,0.28,0.7,0.13c0.13-0.09,0.26-0.16,0.38-0.26c0.37-0.32,0.66-0.74,0.93-1.15
		c0.3-0.43,0.45-0.92,0.6-1.42c0.12-0.4,0.22-0.8,0.31-1.21c0.19-0.88,0.33-1.77,0.41-2.67c0.09-0.94,0.12-1.89,0.09-2.84
		c-0.03-0.94-0.12-1.89-0.29-2.82c-0.16-0.89-0.39-1.76-0.73-2.6c-0.31-0.78-0.71-1.53-1.23-2.19C83.4,1.52,83.08,1.18,82.74,0.89z
		 M84.46,14.72c-0.32,1.08-0.52,2.42-1.26,3.38c0,0.01,0,0.01-0.01,0.02c-0.35-0.02-1.29-1.25-1.47-1.76
		c-2.16-4.01-1.57-10.48,0.72-14.37C85.19,4.81,85.3,11.13,84.46,14.72z"/>
	<path d="M90.9,0.89c-0.26-0.21-0.56-0.08-0.71,0.14c-0.04,0.01-0.07,0.02-0.11,0.04c-1.8,2.18-2.19,5.2-2.42,7.94
		c-0.42,3.6,0.36,7.29,3,9.9c0.15,0.23,0.48,0.28,0.7,0.13c0.13-0.09,0.26-0.16,0.38-0.26c0.37-0.32,0.66-0.74,0.93-1.15
		c0.3-0.43,0.45-0.92,0.6-1.42c0.12-0.4,0.22-0.8,0.31-1.21c0.19-0.88,0.33-1.77,0.41-2.67c0.09-0.94,0.12-1.89,0.09-2.84
		c-0.03-0.94-0.12-1.89-0.29-2.82c-0.16-0.89-0.39-1.76-0.73-2.6c-0.31-0.78-0.71-1.53-1.23-2.19C91.56,1.52,91.24,1.18,90.9,0.89z
		 M92.62,14.72c-0.32,1.08-0.52,2.42-1.26,3.38c0,0.01,0,0.01-0.01,0.02c-0.35-0.02-1.29-1.25-1.47-1.76
		c-2.16-4.01-1.57-10.48,0.72-14.37C93.35,4.81,93.46,11.13,92.62,14.72z"/>
	<g>
		<rect x="5" y="20" width="90" height="1"/>
	</g>
</g>
</svg>
