<?xml version="1.0" encoding="utf-8"?>
<!-- Generator: Adobe Illustrator 23.0.0, SVG Export Plug-In . SVG Version: 6.00 Build 0)  -->
<svg version="1.1" id="Слой_1" xmlns="http://www.w3.org/2000/svg" xmlns:xlink="http://www.w3.org/1999/xlink" x="0px" y="0px"
	 viewBox="0 0 100 21.28" style="enable-background:new 0 0 100 21.28;" xml:space="preserve">
<g>
	<path d="M9.06,16.08c0.15,0.19,0.48,0.24,0.7,0.11c0.13-0.08,0.26-0.14,0.38-0.23c0.37-0.28,0.66-0.64,0.93-0.98
		c0.3-0.37,0.45-0.79,0.6-1.22c0.12-0.34,0.22-0.69,0.31-1.04c0.19-0.75,0.33-1.52,0.41-2.29c0.09-0.81,0.12-1.62,0.09-2.44
		c-0.03-0.81-0.12-1.62-0.29-2.42c-0.16-0.76-0.39-1.51-0.73-2.23c-0.31-0.67-0.71-1.31-1.23-1.88C9.96,1.16,9.65,0.88,9.31,0.62
		C9.05,0.44,8.74,0.55,8.59,0.75C8.56,0.76,8.52,0.76,8.48,0.79c-1.8,1.87-2.19,4.46-2.42,6.81C5.64,10.68,6.42,13.85,9.06,16.08z
		 M9.01,1.57c2.75,2.42,2.86,7.84,2.02,10.91c-0.32,0.93-0.52,2.08-1.26,2.9c0,0.01,0,0.01-0.01,0.02
		c-0.35-0.02-1.29-1.07-1.47-1.51C6.12,10.45,6.72,4.9,9.01,1.57z"/>
	<path d="M17.97,16.22c0.19-0.1,0.28-0.13,0.4-0.22c0.39-0.28,0.69-0.61,0.99-0.95s0.51-0.8,0.66-1.19
		c0.15-0.38,0.25-0.68,0.34-1.04c0.18-0.78,0.26-1.53,0.3-2.33c0.04-0.8,0.05-1.64,0.01-2.44s-0.14-1.64-0.31-2.4
		c-0.16-0.76-0.4-1.51-0.71-2.18c-0.31-0.67-0.68-1.12-1.15-1.63c-0.26-0.28-0.62-0.5-0.88-0.73s-0.58-0.07-0.7,0.04
		c-0.12,0.1-0.1,0.02-0.13,0.05c-1.77,1.85-2.31,3.58-2.69,6.13c-0.51,3.36,0.74,6.39,3.16,8.77
		C17.45,16.26,17.79,16.32,17.97,16.22z M17.31,1.99c2.65,2.78,2.72,6.96,2.12,10.56c-0.19,1.11-0.82,1.96-1.4,2.86
		c-0.01,0.01,0,0.02-0.02,0.01c-0.58-0.17-1.25-1.04-1.49-1.52C14.42,9.82,14.55,5.67,17.31,1.99z"/>
	<path d="M25.38,16.08c0.15,0.19,0.48,0.24,0.7,0.11c0.13-0.08,0.26-0.14,0.38-0.23c0.37-0.28,0.66-0.64,0.93-0.98
		c0.3-0.37,0.45-0.79,0.6-1.22c0.12-0.34,0.22-0.69,0.31-1.04c0.19-0.75,0.33-1.52,0.41-2.29C28.8,9.63,28.83,8.81,28.8,8
		c-0.03-0.81-0.12-1.62-0.29-2.42c-0.16-0.76-0.39-1.51-0.73-2.23c-0.31-0.67-0.71-1.31-1.23-1.88c-0.28-0.31-0.59-0.59-0.93-0.84
		c-0.26-0.18-0.56-0.07-0.71,0.12c-0.04,0.01-0.07,0.02-0.11,0.04c-1.8,1.87-2.19,4.46-2.42,6.81
		C21.96,10.68,22.74,13.85,25.38,16.08z M25.33,1.57c2.75,2.42,2.86,7.84,2.02,10.91c-0.32,0.93-0.52,2.08-1.26,2.9
		c0,0.01,0,0.01-0.01,0.02c-0.35-0.02-1.29-1.07-1.47-1.51C22.44,10.45,23.04,4.9,25.33,1.57z"/>
	<path d="M33.58,16.34c0.2,0.18,0.53,0.2,0.72,0.09c0.19-0.1,0.28-0.14,0.41-0.24c0.39-0.29,0.69-0.64,0.99-0.99
		c0.3-0.35,0.52-0.82,0.67-1.22c0.15-0.39,0.25-0.69,0.36-1.06c0.22-0.8,0.38-1.59,0.47-2.41s0.09-1.66-0.01-2.46
		s-0.24-1.55-0.42-2.29c-0.18-0.74-0.39-1.43-0.67-2.11c-0.39-0.92-0.94-1.83-1.73-2.47c-0.39-0.32-0.69-0.41-1.13-0.12
		c-0.34,0.22-0.6,0.55-0.85,0.86c-0.37,0.46-0.72,0.95-1,1.47c-0.61,1.13-0.87,2.4-0.99,3.68c-0.02,0.2-0.04,0.41-0.05,0.61
		C30.1,11.41,30.77,13.84,33.58,16.34z M33.37,2.41c0.2-0.25,0.61-0.23,0.79,0.03c2.02,2.99,2.4,6.75,1.61,10.23
		c-0.17,0.76-0.53,1.45-0.95,2.11c-0.09,0.13-0.18,0.27-0.26,0.4c-0.07,0.1-0.11,0.22-0.2,0.31c-0.09,0.09-0.28,0.16-0.4,0.12
		c-0.1-0.03-0.19-0.09-0.27-0.15c-0.13-0.09-0.25-0.21-0.36-0.33c-0.22-0.25-0.39-0.52-0.56-0.8c-0.02-0.04-0.05-0.08-0.07-0.12
		C30.41,10.47,30.72,5.73,33.37,2.41z"/>
	<path d="M42.26,16.13c0.19-0.1,0.26-0.13,0.38-0.22c0.4-0.31,0.67-0.64,1.01-1.02c0.35-0.38,0.71-1.01,0.94-1.43
		c0.22-0.42,0.41-0.82,0.53-1.18c0.26-0.77,0.31-1.38,0.34-2.15c0.03-0.77,0-1.5,0-2.27s-0.01-1.63-0.08-2.4
		c-0.07-0.77-0.27-1.47-0.62-2.1c-0.28-0.48-0.68-0.88-1.11-1.22c-0.38-0.3-0.89-0.71-1.37-0.82c-0.64-0.15-1.17,0.55-1.58,0.94
		c-0.44,0.42-0.83,0.89-1.14,1.42c-0.62,1.05-0.84,2.26-0.95,3.46c-0.02,0.17-0.03,0.34-0.04,0.51c-0.24,3.62,0.32,5.88,3.01,8.37
		C41.76,16.21,42.07,16.23,42.26,16.13z M40.78,13.9c-2.19-3.68-1.86-8.38,1.04-11.42c0.15-0.15,0.4-0.16,0.56-0.03
		c2.59,2.09,2.6,3.66,1.89,9.43c-0.15,0.9-1.04,1.99-1.67,2.91c-0.24,0.36-0.74,0.41-1.05,0.1C41.23,14.58,40.94,14.17,40.78,13.9z"
		/>
	<path d="M49.86,16.08c0.15,0.19,0.48,0.24,0.7,0.11c0.13-0.08,0.26-0.14,0.38-0.23c0.37-0.28,0.66-0.64,0.93-0.98
		c0.3-0.37,0.45-0.79,0.6-1.22c0.12-0.34,0.22-0.69,0.31-1.04c0.19-0.75,0.33-1.52,0.41-2.29c0.09-0.81,0.12-1.62,0.09-2.44
		c-0.03-0.81-0.12-1.62-0.29-2.42c-0.16-0.76-0.39-1.51-0.73-2.23c-0.31-0.67-0.71-1.31-1.23-1.88c-0.28-0.31-0.59-0.59-0.93-0.84
		c-0.26-0.18-0.56-0.07-0.71,0.12c-0.04,0.01-0.07,0.02-0.11,0.04c-1.8,1.87-2.19,4.46-2.42,6.81
		C46.43,10.68,47.22,13.85,49.86,16.08z M49.8,1.57c2.75,2.42,2.86,7.84,2.02,10.91c-0.32,0.93-0.52,2.08-1.26,2.9
		c0,0.01,0,0.01-0.01,0.02c-0.35-0.02-1.29-1.07-1.47-1.51C46.92,10.45,47.51,4.9,49.8,1.57z"/>
	<path d="M58.39,16.25c0.19-0.09,0.28-0.14,0.41-0.23c0.41-0.28,0.76-0.64,1.09-0.99c0.33-0.35,0.6-0.84,0.79-1.22
		c0.19-0.39,0.31-0.7,0.42-1.06c0.25-0.77,0.36-1.47,0.41-2.26c0.05-0.8,0.06-1.61,0.07-2.4c0-0.8-0.02-1.64-0.12-2.41
		c-0.1-0.77-0.26-1.51-0.54-2.2c-0.21-0.5-0.49-0.97-0.82-1.4c-0.32-0.41-0.67-0.98-1.17-1.18c-0.43-0.17-0.86,0.03-1.2,0.29
		c-0.36,0.28-0.69,0.59-1,0.93c-0.57,0.63-1.04,1.35-1.36,2.13c-0.43,1.03-0.6,2.15-0.64,3.27c-0.12,3.73,0.5,5.92,2.98,8.6
		C57.88,16.32,58.2,16.34,58.39,16.25z M57,13.92c-2.16-4.16-1.99-8.64,1.27-11.91c0.11-0.11,0.32-0.1,0.41,0.03
		c2.23,2.95,2.27,6.83,1.5,10.4c-0.21,0.97-0.85,1.82-1.45,2.61c-0.2,0.26-0.57,0.3-0.82,0.09C57.53,14.8,57.19,14.28,57,13.92z"/>
	<path d="M66.18,16.08c0.15,0.19,0.48,0.24,0.7,0.11c0.13-0.08,0.26-0.14,0.38-0.23c0.37-0.28,0.66-0.64,0.93-0.98
		c0.3-0.37,0.45-0.79,0.6-1.22c0.12-0.34,0.22-0.69,0.31-1.04c0.19-0.75,0.33-1.52,0.41-2.29C69.59,9.63,69.63,8.81,69.6,8
		c-0.03-0.81-0.12-1.62-0.29-2.42c-0.16-0.76-0.39-1.51-0.73-2.23c-0.31-0.67-0.71-1.31-1.23-1.88c-0.28-0.31-0.59-0.59-0.93-0.84
		c-0.26-0.18-0.56-0.07-0.71,0.12c-0.04,0.01-0.07,0.02-0.11,0.04c-1.8,1.87-2.19,4.46-2.42,6.81
		C62.75,10.68,63.53,13.85,66.18,16.08z M66.12,1.57c2.75,2.42,2.86,7.84,2.02,10.91c-0.32,0.93-0.52,2.08-1.26,2.9
		c0,0.01,0,0.01-0.01,0.02c-0.35-0.02-1.29-1.07-1.47-1.51C63.24,10.45,63.83,4.9,66.12,1.57z"/>
	<path d="M74.4,15.89c0.21,0.17,0.54,0.17,0.72,0.06c0.18-0.11,0.27-0.14,0.39-0.23c0.35-0.28,0.62-0.58,0.89-0.91
		c0.27-0.33,0.43-0.76,0.56-1.13c0.13-0.37,0.21-0.65,0.3-1.01c0.19-0.78,0.33-1.52,0.42-2.33s0.14-1.68,0.14-2.51
		c0.01-0.83-0.04-1.8-0.14-2.6c-0.1-0.8-0.29-1.59-0.6-2.24c-0.39-0.81-1.12-1.46-1.84-1.97C75.12,0.94,75,0.86,74.87,0.83
		c-0.17-0.04-0.35,0.01-0.51,0.1c-0.57,0.31-1.01,0.89-1.43,1.38c-0.48,0.57-0.88,1.2-1.16,1.89c-0.43,1.05-0.65,2.28-0.65,3.42
		C70.91,11.33,71.5,13.53,74.4,15.89z M74.5,2.06c0.11-0.12,0.31-0.12,0.43-0.01c2.65,2.59,2.12,7.04,1.35,10.41
		c-0.19,0.84-0.45,1.5-0.83,2.17c-0.2,0.36-0.67,0.49-1.01,0.26c-0.42-0.28-0.83-0.7-1.01-0.99C71.06,10.08,71.52,5.21,74.5,2.06z"
		/>
	<path d="M82.49,16.08c0.15,0.19,0.48,0.24,0.7,0.11c0.13-0.08,0.26-0.14,0.38-0.23c0.37-0.28,0.66-0.64,0.93-0.98
		c0.3-0.37,0.45-0.79,0.6-1.22c0.12-0.34,0.22-0.69,0.31-1.04c0.19-0.75,0.33-1.52,0.41-2.29c0.09-0.81,0.12-1.62,0.09-2.44
		c-0.03-0.81-0.12-1.62-0.29-2.42c-0.16-0.76-0.39-1.51-0.73-2.23c-0.31-0.67-0.71-1.31-1.23-1.88c-0.28-0.31-0.59-0.59-0.93-0.84
		c-0.26-0.18-0.56-0.07-0.71,0.12c-0.04,0.01-0.07,0.02-0.11,0.04c-1.8,1.87-2.19,4.46-2.42,6.81
		C79.07,10.68,79.85,13.85,82.49,16.08z M82.44,1.57c2.75,2.42,2.86,7.84,2.02,10.91c-0.32,0.93-0.52,2.08-1.26,2.9
		c0,0.01,0,0.01-0.01,0.02c-0.35-0.02-1.29-1.07-1.47-1.51C79.55,10.45,80.15,4.9,82.44,1.57z"/>
	<path d="M90.94,16.06c0.2,0.16,0.49,0.23,0.68,0.13c0.19-0.1,0.26-0.12,0.37-0.21c0.37-0.26,0.66-0.57,0.95-0.89
		s0.5-0.75,0.66-1.11c0.15-0.36,0.28-0.64,0.37-0.98c0.21-0.74,0.29-1.46,0.36-2.23s0.11-1.57,0.1-2.34
		c-0.01-0.77-0.05-1.54-0.15-2.29s-0.23-1.37-0.5-2.11c-0.29-0.82-0.84-1.51-1.45-2.13c-0.52-0.52-1.35-1.35-2.08-0.69
		c-0.31,0.28-0.47,0.68-0.7,1.02c-0.26,0.4-0.5,0.81-0.72,1.24c-0.43,0.86-0.74,1.77-0.94,2.7c-0.11,0.49-0.18,0.98-0.24,1.47
		C87.26,11.12,88.09,13.79,90.94,16.06z M90.75,2.33c0.1-0.18,0.36-0.22,0.5-0.06c2.57,2.91,2.5,6.73,1.69,10.4
		c-0.26,1.17-0.95,2.73-1.31,2.74c-0.01,0.01,0,0.01-0.02,0.01c-0.59-0.19-1.41-0.95-1.69-1.46C87.57,9.81,88.7,6.2,90.75,2.33z"/>
	<path d="M5,17.87h90c0.28,0,0.5-0.19,0.5-0.43c0-0.24-0.22-0.43-0.5-0.43H5c-0.28,0-0.5,0.19-0.5,0.43
		C4.5,17.68,4.72,17.87,5,17.87z"/>
	<path d="M95,19.19H5c-0.28,0-0.5,0.19-0.5,0.43c0,0.24,0.22,0.43,0.5,0.43h90c0.28,0,0.5-0.19,0.5-0.43
		C95.5,19.38,95.28,19.19,95,19.19z"/>
</g>
</svg>
