<?xml version="1.0" encoding="utf-8"?>
<!-- Generator: Adobe Illustrator 23.0.0, SVG Export Plug-In . SVG Version: 6.00 Build 0)  -->
<svg version="1.1" id="Слой_1" xmlns="http://www.w3.org/2000/svg" xmlns:xlink="http://www.w3.org/1999/xlink" x="0px" y="0px"
	 viewBox="0 0 100 21.28" style="enable-background:new 0 0 100 21.28;" xml:space="preserve">
<g>
	<path d="M6.23,2.98C6.16,2.95,6.09,2.93,6.02,2.94C5.74,2.94,5.55,3.17,5.54,3.45c0,0.34-0.01,0.68-0.01,1.02
		C5.51,6.14,5.5,7.82,5.49,9.49c-0.01,1.61-0.03,3.21-0.04,4.82c-0.01,1.17-0.03,2.34-0.03,3.51c0,0,0,0,0,0c0,0,0,0,0,0
		c0,0.01,0,0.02,0,0.03c0,0.27,0.24,0.49,0.5,0.49c0,0,0,0,0.01,0c0.27-0.01,0.48-0.24,0.48-0.51c0-0.01,0-0.02,0-0.04
		c0-0.16,0-0.32,0-0.48c0.01-1.37,0.02-2.75,0.03-4.12c0.02-1.71,0.03-3.43,0.04-5.14C6.5,6.58,6.52,5.1,6.53,3.62
		c0.02-0.05,0.03-0.11,0.03-0.17C6.56,3.23,6.42,3.05,6.23,2.98z"/>
	<path d="M10.36,10.4c-0.27,0-0.49,0.23-0.49,0.5c0,0.03,0,0.05,0,0.08c0,0.02,0,0.04,0,0.06c0,0.21,0,0.42-0.01,0.63
		c0,0.33,0,0.66,0,0.98c0,0.69,0,1.38,0,2.06c0,0.99-0.01,1.98-0.01,2.97c0,0.27,0.22,0.5,0.49,0.5c0.27,0,0.49-0.23,0.49-0.5
		c0-0.67,0-1.34,0-2c0-0.84,0-1.68,0.01-2.52c0-0.42,0-0.83,0-1.25c0-0.17,0-0.34,0-0.52c0-0.17,0.01-0.34,0-0.5
		C10.84,10.63,10.64,10.4,10.36,10.4z"/>
	<path d="M15.53,2.98c-0.06-0.03-0.13-0.05-0.21-0.05c-0.28,0.01-0.47,0.24-0.48,0.51c0,0.34-0.01,0.68-0.01,1.02
		c-0.02,1.68-0.03,3.36-0.04,5.03c-0.01,1.61-0.03,3.21-0.04,4.82c-0.01,1.17-0.03,2.34-0.03,3.51c0,0,0,0,0,0c0,0,0,0,0,0
		c0,0.01,0,0.02,0,0.03c0,0.27,0.24,0.49,0.5,0.49c0,0,0,0,0.01,0c0.27-0.01,0.48-0.24,0.48-0.51c0-0.01,0-0.02,0-0.04
		c0-0.16,0-0.32,0-0.48c0.01-1.37,0.02-2.75,0.03-4.12c0.02-1.71,0.03-3.43,0.04-5.14c0.01-1.49,0.04-2.97,0.04-4.45
		c0.02-0.05,0.03-0.11,0.03-0.17C15.86,3.23,15.72,3.05,15.53,2.98z"/>
	<path d="M19.66,10.4c-0.27,0-0.49,0.23-0.49,0.5c0,0.03,0,0.05,0,0.08c0,0.02,0,0.04,0,0.06c0,0.21,0,0.42-0.01,0.63
		c0,0.33,0,0.66,0,0.98c0,0.69,0,1.38,0,2.06c0,0.99-0.01,1.98-0.01,2.97c0,0.27,0.22,0.5,0.49,0.5c0.27,0,0.49-0.23,0.49-0.5
		c0-0.67,0-1.34,0-2c0-0.84,0-1.68,0.01-2.52c0-0.42,0-0.83,0-1.25c0-0.17,0-0.34,0-0.52c0-0.17,0.01-0.34,0-0.5
		C20.14,10.63,19.94,10.4,19.66,10.4z"/>
	<path d="M24.83,2.98c-0.06-0.03-0.13-0.05-0.21-0.05c-0.28,0.01-0.47,0.24-0.48,0.51c0,0.34-0.01,0.68-0.01,1.02
		c-0.02,1.68-0.03,3.36-0.04,5.03c-0.01,1.61-0.03,3.21-0.04,4.82c-0.01,1.17-0.03,2.34-0.03,3.51c0,0,0,0,0,0c0,0,0,0,0,0
		c0,0.01,0,0.02,0,0.03c0,0.27,0.24,0.49,0.5,0.49c0,0,0,0,0.01,0c0.27-0.01,0.48-0.24,0.48-0.51c0-0.01,0-0.02,0-0.04
		c0-0.16,0-0.32,0-0.48c0.01-1.37,0.02-2.75,0.03-4.12c0.02-1.71,0.03-3.43,0.04-5.14c0.01-1.49,0.03-2.97,0.04-4.45
		c0.02-0.05,0.03-0.11,0.03-0.17C25.17,3.23,25.02,3.05,24.83,2.98z"/>
	<path d="M28.96,10.4c-0.27,0-0.49,0.23-0.49,0.5c0,0.03,0,0.05,0,0.08c0,0.02,0,0.04,0,0.06c0,0.21,0,0.42-0.01,0.63
		c0,0.33,0,0.66,0,0.98c0,0.69,0,1.38,0,2.06c0,0.99-0.01,1.98-0.01,2.97c0,0.27,0.22,0.5,0.49,0.5c0.27,0,0.49-0.23,0.49-0.5
		c0-0.67,0-1.34,0-2c0-0.84,0-1.68,0.01-2.52c0-0.42,0-0.83,0-1.25c0-0.17,0-0.34,0-0.52c0-0.17,0.01-0.34,0-0.5
		C29.44,10.63,29.24,10.4,28.96,10.4z"/>
	<path d="M34.14,2.98C34.07,2.95,34,2.93,33.93,2.94c-0.28,0.01-0.47,0.24-0.48,0.51c0,0.34-0.01,0.68-0.01,1.02
		c-0.02,1.68-0.03,3.36-0.04,5.03c-0.01,1.61-0.03,3.21-0.04,4.82c-0.01,1.17-0.03,2.34-0.03,3.51c0,0,0,0,0,0c0,0,0,0,0,0
		c0,0.01,0,0.02,0,0.03c0,0.27,0.24,0.49,0.5,0.49c0,0,0,0,0.01,0c0.27-0.01,0.48-0.24,0.48-0.51c0-0.01,0-0.02,0-0.04
		c0-0.16,0-0.32,0-0.48c0.01-1.37,0.02-2.75,0.03-4.12c0.02-1.71,0.03-3.43,0.04-5.14c0.01-1.49,0.04-2.97,0.04-4.45
		c0.02-0.05,0.03-0.11,0.03-0.17C34.47,3.23,34.33,3.05,34.14,2.98z"/>
	<path d="M38.27,10.4c-0.27,0-0.49,0.23-0.49,0.5c0,0.03,0,0.05,0,0.08c0,0.02,0,0.04,0,0.06c0,0.21,0,0.42-0.01,0.63
		c0,0.33,0,0.66,0,0.98c0,0.69,0,1.38,0,2.06c0,0.99-0.01,1.98-0.01,2.97c0,0.27,0.22,0.5,0.49,0.5c0.27,0,0.49-0.23,0.49-0.5
		c0-0.67,0-1.34,0-2c0-0.84,0-1.68,0.01-2.52c0-0.42,0-0.83,0-1.25c0-0.17,0-0.34,0-0.52c0-0.17,0.01-0.34,0-0.5
		C38.75,10.63,38.55,10.4,38.27,10.4z"/>
	<path d="M43.44,2.98c-0.06-0.03-0.13-0.05-0.21-0.05c-0.28,0.01-0.47,0.24-0.48,0.51c0,0.34-0.01,0.68-0.01,1.02
		c-0.02,1.68-0.03,3.36-0.04,5.03c-0.01,1.61-0.03,3.21-0.04,4.82c-0.01,1.17-0.03,2.34-0.03,3.51c0,0,0,0,0,0c0,0,0,0,0,0
		c0,0.01,0,0.02,0,0.03c0,0.27,0.24,0.49,0.5,0.49c0,0,0,0,0.01,0c0.27-0.01,0.48-0.24,0.48-0.51c0-0.01,0-0.02,0-0.04
		c0-0.16,0-0.32,0-0.48c0.01-1.37,0.02-2.75,0.03-4.12c0.02-1.71,0.03-3.43,0.04-5.14c0.01-1.49,0.03-2.97,0.04-4.45
		c0.02-0.05,0.03-0.11,0.03-0.17C43.77,3.23,43.63,3.05,43.44,2.98z"/>
	<path d="M47.57,10.4c-0.27,0-0.49,0.23-0.49,0.5c0,0.03,0,0.05,0,0.08c0,0.02,0,0.04,0,0.06c0,0.21,0,0.42-0.01,0.63
		c0,0.33,0,0.66,0,0.98c0,0.69,0,1.38,0,2.06c0,0.99-0.01,1.98-0.01,2.97c0,0.27,0.22,0.5,0.49,0.5c0.27,0,0.49-0.23,0.49-0.5
		c0-0.67,0-1.34,0-2c0-0.84,0-1.68,0.01-2.52c0-0.42,0-0.83,0-1.25c0-0.17,0-0.34,0-0.52c0-0.17,0.01-0.34,0-0.5
		C48.05,10.63,47.85,10.4,47.57,10.4z"/>
	<path d="M52.74,2.98c-0.06-0.03-0.13-0.05-0.21-0.05c-0.28,0.01-0.47,0.24-0.48,0.51c0,0.34-0.01,0.68-0.01,1.02
		C52.03,6.14,52.01,7.82,52,9.49c-0.01,1.61-0.03,3.21-0.04,4.82c-0.01,1.17-0.03,2.34-0.03,3.51c0,0,0,0,0,0c0,0,0,0,0,0
		c0,0.01,0,0.02,0,0.03c0,0.27,0.24,0.49,0.5,0.49c0,0,0,0,0.01,0c0.27-0.01,0.48-0.24,0.48-0.51c0-0.01,0-0.02,0-0.04
		c0-0.16,0-0.32,0-0.48c0.01-1.37,0.02-2.75,0.03-4.12c0.02-1.71,0.03-3.43,0.04-5.14c0.01-1.49,0.04-2.97,0.04-4.45
		c0.02-0.05,0.03-0.11,0.03-0.17C53.07,3.23,52.93,3.05,52.74,2.98z"/>
	<path d="M56.87,10.4c-0.27,0-0.49,0.23-0.49,0.5c0,0.03,0,0.05,0,0.08c0,0.02,0,0.04,0,0.06c0,0.21,0,0.42-0.01,0.63
		c0,0.33,0,0.66,0,0.98c0,0.69,0,1.38,0,2.06c0,0.99-0.01,1.98-0.01,2.97c0,0.27,0.22,0.5,0.49,0.5s0.49-0.23,0.49-0.5
		c0-0.67,0-1.34,0-2c0-0.84,0-1.68,0.01-2.52c0-0.42,0-0.83,0-1.25c0-0.17,0-0.34,0-0.52c0-0.17,0.01-0.34,0-0.5
		C57.35,10.63,57.15,10.4,56.87,10.4z"/>
	<path d="M62.05,2.98c-0.06-0.03-0.13-0.05-0.21-0.05c-0.28,0.01-0.47,0.24-0.48,0.51c0,0.34-0.01,0.68-0.01,1.02
		c-0.02,1.68-0.03,3.36-0.04,5.03c-0.01,1.61-0.03,3.21-0.04,4.82c-0.01,1.17-0.03,2.34-0.03,3.51c0,0,0,0,0,0c0,0,0,0,0,0
		c0,0.01,0,0.02,0,0.03c0,0.27,0.24,0.49,0.5,0.49c0,0,0,0,0.01,0c0.27-0.01,0.48-0.24,0.48-0.51c0-0.01,0-0.02,0-0.04
		c0-0.16,0-0.32,0-0.48c0.01-1.37,0.02-2.75,0.03-4.12c0.02-1.71,0.03-3.43,0.04-5.14c0.01-1.49,0.03-2.97,0.04-4.45
		c0.02-0.05,0.03-0.11,0.03-0.17C62.38,3.23,62.24,3.05,62.05,2.98z"/>
	<path d="M66.18,10.4c-0.27,0-0.49,0.23-0.49,0.5c0,0.03,0,0.05,0,0.08c0,0.02,0,0.04,0,0.06c0,0.21,0,0.42-0.01,0.63
		c0,0.33,0,0.66,0,0.98c0,0.69,0,1.38,0,2.06c0,0.99-0.01,1.98-0.01,2.97c0,0.27,0.22,0.5,0.49,0.5c0.27,0,0.49-0.23,0.49-0.5
		c0-0.67,0-1.34,0-2c0-0.84,0-1.68,0.01-2.52c0-0.42,0-0.83,0-1.25c0-0.17,0-0.34,0-0.52c0-0.17,0.01-0.34,0-0.5
		C66.65,10.63,66.45,10.4,66.18,10.4z"/>
	<path d="M71.35,2.98c-0.06-0.03-0.13-0.05-0.21-0.05c-0.28,0.01-0.47,0.24-0.48,0.51c0,0.34-0.01,0.68-0.01,1.02
		c-0.02,1.68-0.03,3.36-0.04,5.03c-0.01,1.61-0.03,3.21-0.04,4.82c-0.01,1.17-0.03,2.34-0.03,3.51c0,0,0,0,0,0c0,0,0,0,0,0
		c0,0.01,0,0.02,0,0.03c0,0.27,0.24,0.49,0.5,0.49c0,0,0,0,0.01,0c0.27-0.01,0.48-0.24,0.48-0.51c0-0.01,0-0.02,0-0.04
		c0-0.16,0-0.32,0-0.48c0.01-1.37,0.02-2.75,0.03-4.12c0.02-1.71,0.03-3.43,0.04-5.14c0.01-1.49,0.04-2.97,0.04-4.45
		c0.02-0.05,0.03-0.11,0.03-0.17C71.68,3.23,71.54,3.05,71.35,2.98z"/>
	<path d="M75.48,10.4c-0.27,0-0.49,0.23-0.49,0.5c0,0.03,0,0.05,0,0.08c0,0.02,0,0.04,0,0.06c0,0.21,0,0.42-0.01,0.63
		c0,0.33,0,0.66,0,0.98c0,0.69,0,1.38,0,2.06c0,0.99-0.01,1.98-0.01,2.97c0,0.27,0.22,0.5,0.49,0.5c0.27,0,0.49-0.23,0.49-0.5
		c0-0.67,0-1.34,0-2c0-0.84,0-1.68,0.01-2.52c0-0.42,0-0.83,0-1.25c0-0.17,0-0.34,0-0.52c0-0.17,0.01-0.34,0-0.5
		C75.96,10.63,75.76,10.4,75.48,10.4z"/>
	<path d="M80.65,2.98c-0.06-0.03-0.13-0.05-0.21-0.05c-0.28,0.01-0.47,0.24-0.48,0.51c0,0.34-0.01,0.68-0.01,1.02
		c-0.02,1.68-0.03,3.36-0.04,5.03c-0.01,1.61-0.03,3.21-0.04,4.82c-0.01,1.17-0.03,2.34-0.03,3.51c0,0,0,0,0,0c0,0,0,0,0,0
		c0,0.01,0,0.02,0,0.03c0,0.27,0.24,0.49,0.5,0.49c0,0,0,0,0.01,0c0.27-0.01,0.48-0.24,0.48-0.51c0-0.01,0-0.02,0-0.04
		c0-0.16,0-0.32,0-0.48c0.01-1.37,0.02-2.75,0.03-4.12c0.02-1.71,0.03-3.43,0.04-5.14c0.01-1.49,0.03-2.97,0.04-4.45
		c0.02-0.05,0.03-0.11,0.03-0.17C80.98,3.23,80.84,3.05,80.65,2.98z"/>
	<path d="M84.78,10.4c-0.27,0-0.49,0.23-0.49,0.5c0,0.03,0,0.05,0,0.08c0,0.02,0,0.04,0,0.06c0,0.21,0,0.42-0.01,0.63
		c0,0.33,0,0.66,0,0.98c0,0.69,0,1.38,0,2.06c0,0.99-0.01,1.98-0.01,2.97c0,0.27,0.22,0.5,0.49,0.5c0.27,0,0.49-0.23,0.49-0.5
		c0-0.67,0-1.34,0-2c0-0.84,0-1.68,0.01-2.52c0-0.42,0-0.83,0-1.25c0-0.17,0-0.34,0-0.52c0-0.17,0.01-0.34,0-0.5
		C85.26,10.63,85.06,10.4,84.78,10.4z"/>
	<path d="M89.95,2.98c-0.06-0.03-0.13-0.05-0.21-0.05c-0.28,0.01-0.47,0.24-0.48,0.51c0,0.34-0.01,0.68-0.01,1.02
		c-0.02,1.68-0.03,3.36-0.04,5.03c-0.01,1.61-0.03,3.21-0.04,4.82c-0.01,1.17-0.03,2.34-0.03,3.51c0,0,0,0,0,0c0,0,0,0,0,0
		c0,0.01,0,0.02,0,0.03c0,0.27,0.24,0.49,0.5,0.49c0,0,0,0,0.01,0c0.27-0.01,0.48-0.24,0.48-0.51c0-0.01,0-0.02,0-0.04
		c0-0.16,0-0.32,0-0.48c0.01-1.37,0.02-2.75,0.03-4.12c0.02-1.71,0.03-3.43,0.04-5.14c0.01-1.49,0.04-2.97,0.04-4.45
		c0.02-0.05,0.03-0.11,0.03-0.17C90.29,3.23,90.15,3.05,89.95,2.98z"/>
	<path d="M94.08,10.4c-0.27,0-0.49,0.23-0.49,0.5c0,0.03,0,0.05,0,0.08c0,0.02,0,0.04,0,0.06c0,0.21,0,0.42-0.01,0.63
		c0,0.33,0,0.66,0,0.98c0,0.69,0,1.38,0,2.06c0,0.99-0.01,1.98-0.01,2.97c0,0.27,0.22,0.5,0.49,0.5c0.27,0,0.49-0.23,0.49-0.5
		c0-0.67,0-1.34,0-2c0-0.84,0-1.68,0.01-2.52c0-0.42,0-0.83,0-1.25c0-0.17,0-0.34,0-0.52c0-0.17,0.01-0.34,0-0.5
		C94.56,10.63,94.36,10.4,94.08,10.4z"/>
</g>
</svg>
