<?xml version="1.0" encoding="utf-8"?>
<!-- Generator: Adobe Illustrator 23.0.0, SVG Export Plug-In . SVG Version: 6.00 Build 0)  -->
<svg version="1.1" id="Слой_1" xmlns="http://www.w3.org/2000/svg" xmlns:xlink="http://www.w3.org/1999/xlink" x="0px" y="0px"
	 viewBox="0 0 100 21.28" style="enable-background:new 0 0 100 21.28;" xml:space="preserve">
<g>
	<path d="M6.61,17.4c0,0,0.01,0,0.01,0c3.19-0.01,6.39-0.03,9.58-0.04c3.85-0.02,7.7-0.04,11.55-0.05c3.85-0.02,7.7-0.04,11.55-0.05
		c3.94-0.02,7.87-0.04,11.81-0.06c3.92-0.02,7.85-0.04,11.77-0.05c3.97-0.02,7.94-0.04,11.92-0.06c3.88-0.02,7.77-0.03,11.66-0.05
		c2.65-0.01,4.82-0.03,7.47-0.03c0.27,0,0.5-0.19,0.5-0.43s-0.22-4.25-0.2-4.84c0-0.07-0.02-0.13-0.05-0.19v0
		c-0.05-0.16-0.17-0.28-0.4-0.35c-0.45-0.06-0.56,0.33-0.64,0.63c-0.33,0.73-0.93,1.43-1.71,1.85c-2.46,1.33-5.56,2.19-8.41,1.17
		c-1.59-0.58-4.02-1.63-4.17-3.3c-0.2-0.67-0.73-0.49-1.01,0.28c-0.49,1.36-2.34,2.19-3.74,2.89c-2.91,1.4-7.65,0.69-8.57-2.27
		c-0.1-0.32-0.06-1.3-0.44-1.4c-0.17-0.05-0.43,0.32-0.47,0.48c-0.14,1.36-1.23,2.74-2.55,3.36c-4.91,2.3-9.93,0.47-12.2-2.74
		c-0.36-0.46-0.72-0.25-1.03,0.35c-1.67,3.21-8.05,3.76-11.35,2.04c-1.04-0.71-1.62-1.79-1.74-2.93c0-0.05-0.02-0.29-0.04-0.39
		c-0.09-0.47-0.7-0.54-0.9-0.12c-0.43,0.89-1.26,1.69-2.07,2.39c-3.76,2.94-10.43,2.54-11.22-2.46c-0.17-0.37-0.84-0.33-0.94,0.05
		c-0.04,2.28-2.79,3.8-5.2,4.28c-2.9,0.47-5.89-0.83-7.78-2.74c-1.37-1.39-1.93-1.13-1.97,0.13c-0.04,1.43,0.04,4.66,0.15,4.66
		C5.77,17.4,6.59,17.4,6.61,17.4z"/>
	<path d="M93.91,18.28c-0.67,0.01-0.8,0.06-1.47,0.07c-2.8,0.03-5.6,0.05-8.4,0.07c-3.95,0.03-7.89,0.06-11.84,0.1
		c-3.95,0.03-7.91,0.07-11.86,0.1c-3.99,0.03-7.98,0.07-11.96,0.1c-3.96,0.03-7.92,0.07-11.89,0.1c-3.85,0.03-7.69,0.06-11.54,0.1
		c-3.77,0.03-7.55,0.06-11.32,0.1c-1.73,0.01-3.47,0.03-5.19,0.04c-0.77,0.01-1.54,0.01-2.31,0.02c-0.27,0.01-0.5,0.19-0.5,0.43
		c0,0.23,0.22,0.43,0.49,0.43c0,0,0,0,0.01,0c0.01,0,0.02,0,0.02,0c0.01,0,0.01,0,0.02,0c0.69-0.01,1.38-0.01,2.08-0.02
		c3.63-0.03,7.26-0.06,10.88-0.09c3.78-0.03,7.55-0.06,11.32-0.1c3.9-0.03,7.8-0.06,11.7-0.1c3.98-0.03,7.96-0.07,11.95-0.1
		c3.95-0.03,7.91-0.07,11.87-0.1c3.99-0.03,7.98-0.07,11.98-0.1c3.72-0.03,7.44-0.06,11.16-0.09c1.78-0.02,3.02-0.08,4.8-0.1
		c0.27,0,0.5-0.19,0.5-0.43C94.41,18.48,94.18,18.28,93.91,18.28z"/>
	<path d="M12.89,13.43c4.01,0.33,4.72-2.34,4.29-5.17c-0.33-1.79-0.82-3.65-1.97-5.19c-0.11-0.13-0.24-0.29-0.38-0.43
		c-0.01-0.02,0-0.04-0.01-0.05c-0.12-0.43-0.69-0.56-1.1-0.42c-0.89,0.16-1.97,2.6-2.27,3.1C10.27,7.76,8.42,12.72,12.89,13.43z
		 M13.94,3.08c0.01,0.02,0.03,0.03,0.05,0.04c0.05,0.04,0.1,0.08,0.14,0.12c1.74,2.26,2.61,5.43,1.87,8.14
		c-0.27,0.89-1.45,1.16-2.41,1.22C8.49,12.59,12.32,5.03,13.94,3.08z"/>
	<path d="M27.27,13.51c6.83-0.67,3.44-8.45,1.06-11.61c0-0.01-0.01-0.01-0.01-0.02c0-0.06-0.02-0.13-0.06-0.19
		c-0.14-0.33-0.51-0.4-0.84-0.3c-0.4-0.06-0.72,0.45-0.92,0.74c-1.53,1.9-2.09,4.23-2.5,6.47C23.47,10.68,24.38,13.39,27.27,13.51z
		 M27.48,2.38C27.48,2.38,27.49,2.38,27.48,2.38c1.52,2.29,3.05,4.72,2.77,7.45c-0.05,0.55-0.17,1.24-0.56,1.74
		c-0.51,0.52-1.28,0.96-2.09,1.08C22.57,12.72,25.73,4.37,27.48,2.38z"/>
	<path d="M41.78,13.7c2.79,0.43,3.64-1.93,3.64-3.86c0.22-2.69-1.18-5.17-2.8-7.39c-0.15-0.14-0.28-0.38-0.45-0.54
		c-0.01-0.04-0.03-0.09-0.06-0.13c-0.3-0.43-1.11-0.31-1.3,0.12c-1.36,1.14-2.01,7.52-1.97,8.46C38.68,11.97,39.86,13.45,41.78,13.7
		z M39.85,9.39c0.27-2.28,0.5-4.72,1.6-6.87C43.2,4.7,44.68,7.27,44.41,10c-0.09,1.22-0.33,3.01-2.21,2.88
		C39.97,12.71,39.64,11.01,39.85,9.39z"/>
	<path d="M58.57,12.65c2.38-1.27,1.83-4.25,1.31-6.26c-0.47-1.59-1.44-3-2.27-4.44c-0.06-0.22-0.48-0.53-0.77-0.47
		c-1.01,0.2-0.98,1.23-1.39,1.7c-1.35,2.7-3.5,6.46-0.91,9.06C55.56,13.15,57.3,13.24,58.57,12.65z M56.84,2.62
		c1.6,1.93,4.68,9.12,0.17,9.55C51.77,11.84,55.53,4.93,56.84,2.62z"/>
	<path d="M70.7,13.33c3.02,0.28,3.46-0.6,3.78-2.98c0.34-2.44-0.76-4.81-1.86-7.02c-0.3-0.38-0.39-1.08-1.02-1.31
		c-2.14-0.79-3.45,6.51-3.37,7.6C68.14,11.14,68.6,13.1,70.7,13.33z M71.28,2.92c0.03,0.05,0.06,0.1,0.09,0.15
		c0.82,1.48,1.6,3.02,1.96,4.69c0.18,0.8,0.25,1.63,0.17,2.45c-0.04,0.42-0.12,0.83-0.24,1.23c-0.1,0.32-0.24,0.67-0.53,0.87
		c-0.15,0.1-0.31,0.15-0.49,0.17c-0.16,0.02-0.33,0.02-0.49,0.03c-0.93,0.03-2.21-0.19-2.38-1.3C68.95,8.4,69.75,5.44,71.28,2.92z"
		/>
	<path d="M84.79,12.96c0.31,0.11,0.64,0.18,0.97,0.2c0.87,0.05,1.77-0.12,2.36-0.81c0.53-0.62,0.7-1.46,0.73-2.25
		c0.07-1.67-0.33-3.61-1.03-5.14c-0.33-0.72-0.57-1.48-0.9-2.2c-0.24-0.53-0.54-0.87-1.18-0.83c-0.26,0.02-0.45,0.2-0.6,0.4
		c-0.3,0.4-0.55,0.95-0.76,1.4c-0.62,1.34-1.27,2.68-1.62,4.12c-0.26,1.05-0.36,2.21,0.07,3.23C83.2,11.96,83.92,12.64,84.79,12.96z
		 M84.1,6.73c0.26-0.69,0.58-1.35,0.91-2.01c0.16-0.32,0.33-0.63,0.49-0.95c0.06-0.12,0.48-0.75,0.44-0.86
		c0.64,1.47,1.28,2.97,1.63,4.54c0.17,0.77,0.28,1.56,0.27,2.36c-0.01,0.88,0.04,1.91-0.92,2.3c-0.3,0.12-0.64,0.19-0.98,0.2
		c-0.24,0-0.48-0.03-0.69-0.09c-0.72-0.21-1.17-0.79-1.43-1.47C83.3,9.44,83.62,8,84.1,6.73z"/>
</g>
</svg>
