<?xml version="1.0" encoding="utf-8"?>
<!-- Generator: Adobe Illustrator 23.0.0, SVG Export Plug-In . SVG Version: 6.00 Build 0)  -->
<svg version="1.1" id="Слой_1" xmlns="http://www.w3.org/2000/svg" xmlns:xlink="http://www.w3.org/1999/xlink" x="0px" y="0px"
	 viewBox="0 0 100 21.28" style="enable-background:new 0 0 100 21.28;" xml:space="preserve">
<g>
	<path d="M19.76,4.07c-1.49-1.67-3.52-2.42-5.67-2.35c-1.63,0.06-3.3,0.2-4.75,1.04C8.2,3.42,7.28,4.41,6.64,5.6
		C6.01,6.77,5.66,8.11,5.58,9.46c-0.08,1.37,0.11,2.75,0.58,4.03c0.48,1.28,1.24,2.45,2.26,3.32c1.12,0.96,2.51,1.54,3.94,1.72
		c3.34,0.43,7.42-0.82,8.89-4.3c0.64-1.54,0.9-3.25,0.74-4.92C21.78,7.38,21.03,5.49,19.76,4.07z M14.35,17.4
		C8.13,18,4.7,11.29,7.81,5.78c1.06-1.49,2.65-2.5,4.42-2.77c0.58-0.15,0.98-0.12,1.78-0.11c3.14,0.05,6.28,2.2,6.69,5.63
		C21.67,13.2,18.95,17.23,14.35,17.4z"/>
	<path d="M13.65,6.85c-4.36,0.64-5.09,6.31-0.44,7.07c2.04,0.22,4.01-1.52,4.32-3.63C17.74,8.16,15.46,6.73,13.65,6.85z
		 M16.22,10.83c-0.23,0.54-0.6,1.01-1.06,1.35c-0.42,0.31-1.05,0.63-1.58,0.59c-0.81-0.06-1.64-0.42-2.08-1.17
		c-0.37-0.63-0.41-1.44-0.09-2.11c0.42-0.87,1.35-1.33,2.24-1.43c0.56-0.06,1.18,0.07,1.68,0.35c0.41,0.23,0.74,0.58,0.95,1.01
		C16.5,9.89,16.41,10.36,16.22,10.83z"/>
	<path d="M37.86,4.31c-1.49-1.67-3.52-2.42-5.67-2.35c-1.63,0.06-3.3,0.2-4.75,1.04c-1.13,0.65-2.05,1.65-2.69,2.83
		c-0.63,1.18-0.99,2.52-1.07,3.87c-0.08,1.37,0.11,2.75,0.58,4.03c0.48,1.28,1.24,2.45,2.26,3.32c1.12,0.96,2.51,1.54,3.94,1.72
		c3.34,0.43,7.42-0.82,8.89-4.3c0.64-1.54,0.9-3.25,0.74-4.92C39.89,7.62,39.14,5.73,37.86,4.31z M32.46,17.64
		c-6.22,0.59-9.65-6.11-6.54-11.62c1.06-1.49,2.65-2.5,4.42-2.77c0.58-0.15,0.98-0.12,1.78-0.11c3.14,0.05,6.28,2.2,6.69,5.63
		C39.77,13.44,37.06,17.47,32.46,17.64z"/>
	<path d="M31.76,7.08c-4.36,0.64-5.09,6.31-0.44,7.07c2.04,0.22,4.01-1.52,4.32-3.63C35.84,8.39,33.56,6.97,31.76,7.08z
		 M34.32,11.06c-0.23,0.54-0.6,1.01-1.06,1.35c-0.42,0.31-1.05,0.63-1.58,0.59c-0.81-0.06-1.64-0.42-2.08-1.17
		c-0.37-0.63-0.41-1.44-0.09-2.11c0.42-0.87,1.35-1.33,2.24-1.43c0.56-0.06,1.18,0.07,1.68,0.35c0.41,0.23,0.74,0.58,0.95,1.01
		C34.61,10.12,34.51,10.6,34.32,11.06z"/>
	<path d="M55.97,4.54c-1.49-1.67-3.52-2.42-5.67-2.35c-1.63,0.06-3.3,0.2-4.75,1.04c-1.13,0.65-2.05,1.65-2.69,2.83
		c-0.63,1.18-0.99,2.52-1.07,3.87c-0.08,1.37,0.11,2.75,0.58,4.03c0.48,1.28,1.24,2.45,2.26,3.32c1.12,0.96,2.51,1.54,3.94,1.72
		c3.34,0.43,7.42-0.82,8.89-4.3c0.64-1.54,0.9-3.25,0.74-4.92C57.99,7.85,57.24,5.96,55.97,4.54z M50.56,17.88
		c-6.22,0.59-9.65-6.11-6.54-11.62c1.06-1.49,2.65-2.5,4.42-2.77c0.58-0.15,0.98-0.12,1.78-0.11c3.14,0.05,6.28,2.2,6.69,5.63
		C57.88,13.68,55.16,17.71,50.56,17.88z"/>
	<path d="M49.87,7.32c-4.36,0.64-5.09,6.31-0.44,7.07c2.04,0.22,4.01-1.52,4.32-3.63C53.95,8.63,51.67,7.2,49.87,7.32z M52.43,11.3
		c-0.23,0.54-0.6,1.01-1.06,1.35c-0.42,0.31-1.05,0.63-1.58,0.59c-0.81-0.06-1.64-0.42-2.08-1.17c-0.37-0.63-0.41-1.44-0.09-2.11
		c0.42-0.87,1.35-1.33,2.24-1.43c0.56-0.06,1.18,0.07,1.68,0.35c0.41,0.23,0.74,0.58,0.95,1.01C52.72,10.36,52.62,10.84,52.43,11.3z
		"/>
	<path d="M74.08,4.78c-1.49-1.67-3.52-2.42-5.67-2.35c-1.63,0.06-3.3,0.2-4.75,1.04c-1.13,0.65-2.05,1.65-2.69,2.83
		c-0.63,1.18-0.99,2.52-1.07,3.87c-0.08,1.37,0.11,2.75,0.58,4.03c0.48,1.28,1.24,2.45,2.26,3.32c1.12,0.96,2.51,1.54,3.94,1.72
		c3.34,0.43,7.42-0.82,8.89-4.3c0.64-1.54,0.9-3.25,0.74-4.92C76.1,8.09,75.35,6.2,74.08,4.78z M68.67,18.12
		c-6.22,0.59-9.65-6.11-6.54-11.62c1.06-1.49,2.65-2.5,4.42-2.77c0.58-0.15,0.98-0.12,1.78-0.11c3.14,0.05,6.28,2.2,6.69,5.63
		C75.99,13.91,73.27,17.95,68.67,18.12z"/>
	<path d="M67.97,7.56c-4.36,0.64-5.09,6.31-0.44,7.07c2.04,0.22,4.01-1.52,4.32-3.63C72.05,8.87,69.78,7.44,67.97,7.56z
		 M70.53,11.54c-0.23,0.54-0.6,1.01-1.06,1.35c-0.42,0.31-1.05,0.63-1.58,0.59c-0.81-0.06-1.64-0.42-2.08-1.17
		c-0.37-0.63-0.41-1.44-0.09-2.11c0.42-0.87,1.35-1.33,2.24-1.43c0.56-0.06,1.18,0.07,1.68,0.35c0.41,0.23,0.74,0.58,0.95,1.01
		C70.82,10.6,70.72,11.07,70.53,11.54z"/>
	<path d="M94.39,10.27c-0.19-1.94-0.94-3.83-2.21-5.25c-1.49-1.67-3.52-2.42-5.67-2.35c-1.63,0.06-3.3,0.2-4.75,1.04
		c-1.13,0.65-2.05,1.65-2.69,2.83c-0.63,1.18-0.99,2.52-1.07,3.87c-0.08,1.37,0.11,2.75,0.58,4.03c0.48,1.28,1.24,2.45,2.26,3.32
		c1.12,0.96,2.51,1.54,3.94,1.72c3.34,0.43,7.42-0.82,8.89-4.3C94.3,13.65,94.56,11.94,94.39,10.27z M86.77,18.35
		c-6.22,0.59-9.65-6.11-6.54-11.62c1.06-1.49,2.65-2.5,4.42-2.77c0.58-0.15,0.98-0.12,1.78-0.11c3.14,0.05,6.28,2.2,6.69,5.63
		C94.09,14.15,91.37,18.18,86.77,18.35z"/>
	<path d="M86.08,7.8c-4.36,0.64-5.09,6.31-0.44,7.07c2.04,0.22,4.01-1.52,4.32-3.63C90.16,9.11,87.88,7.68,86.08,7.8z M88.64,11.78
		c-0.23,0.54-0.6,1.01-1.06,1.35c-0.42,0.31-1.05,0.63-1.58,0.59c-0.81-0.06-1.64-0.42-2.08-1.17c-0.37-0.63-0.41-1.44-0.09-2.11
		c0.42-0.87,1.35-1.33,2.24-1.43c0.56-0.06,1.18,0.07,1.68,0.35c0.41,0.23,0.74,0.58,0.95,1.01C88.93,10.84,88.83,11.31,88.64,11.78
		z"/>
</g>
</svg>
