<?xml version="1.0" encoding="utf-8"?>
<!-- Generator: Adobe Illustrator 23.0.0, SVG Export Plug-In . SVG Version: 6.00 Build 0)  -->
<svg version="1.1" id="Слой_1" xmlns="http://www.w3.org/2000/svg" xmlns:xlink="http://www.w3.org/1999/xlink" x="0px" y="0px"
	 viewBox="0 0 100 21.28" style="enable-background:new 0 0 100 21.28;" xml:space="preserve">
<g>
	<path d="M94.33,15.24c-0.12-2.28,0.15-4.78-0.83-6.79c-1.04-2.31-3.14-1.78-4.28-0.02c-0.99-1.87-3.06-2.16-4.37-0.29
		c-0.14,0.2-0.25,0.42-0.37,0.64c-0.05-0.11-0.08-0.23-0.13-0.33c-1.04-2.31-3.14-1.78-4.28-0.02c-0.99-1.87-3.06-2.16-4.37-0.29
		c-0.14,0.2-0.25,0.42-0.37,0.64c-0.05-0.11-0.08-0.23-0.13-0.33c-1.04-2.31-3.14-1.78-4.28-0.02c-0.99-1.87-3.06-2.16-4.37-0.29
		c-0.14,0.2-0.25,0.42-0.37,0.64c-0.05-0.11-0.08-0.23-0.13-0.33c-1.04-2.31-3.14-1.78-4.28-0.02c-0.99-1.87-3.06-2.16-4.37-0.29
		c-0.14,0.2-0.25,0.42-0.37,0.64c-0.05-0.11-0.08-0.23-0.13-0.33c-1.04-2.31-3.14-1.78-4.28-0.02c-0.99-1.87-3.06-2.16-4.37-0.29
		c-0.14,0.2-0.25,0.42-0.37,0.64c-0.05-0.11-0.08-0.23-0.13-0.33c-1.04-2.31-3.14-1.78-4.28-0.02c-0.99-1.87-3.06-2.16-4.37-0.29
		c-0.14,0.2-0.25,0.42-0.37,0.64c-0.05-0.11-0.08-0.23-0.13-0.33c-1.04-2.31-3.14-1.78-4.28-0.02c-0.99-1.87-3.06-2.16-4.37-0.29
		c-0.14,0.2-0.25,0.42-0.37,0.64c-0.05-0.11-0.08-0.23-0.13-0.33c-1.04-2.31-3.14-1.78-4.28-0.02c-0.99-1.87-3.06-2.16-4.37-0.29
		c-0.14,0.2-0.25,0.42-0.37,0.64c-0.05-0.11-0.08-0.23-0.13-0.33c-1.04-2.31-3.14-1.78-4.28-0.02C15.07,6.56,13,6.27,11.69,8.15
		c-0.14,0.2-0.25,0.42-0.37,0.64c-0.05-0.11-0.08-0.23-0.13-0.33C10.02,5.87,7.54,6.83,6.54,9.1c-0.84,1.87-0.88,4.16-0.87,6.28
		c0.06,1.21-0.42,3.36,0.96,3.47c0.54,0,0.98-0.59,0.98-1.29c0.05-2.03-0.08-4.08,0.28-6.08c0.2-1.12,1.33-3.18,1.86-1.11
		c0.41,2.16,0.22,4.54,0.32,6.78c-0.02,0.82,0.13,1.55,0.95,1.61c0.3-0.01,0.51-0.15,0.66-0.36c0.21-0.21,0.36-0.53,0.36-0.98
		c0-0.04,0-0.07,0-0.11c0.06-0.44,0.07-0.91,0.1-1.3c0.09-1.83-0.03-3.7,0.63-5.41c0.46-1.39,1.64-1.63,1.91,0.06
		c0.15,0.77,0.19,1.56,0.2,2.35c-0.05,0.8-0.05,1.6-0.05,2.37c0,0.04,0,0.09,0,0.14c-0.01,0.23-0.01,0.45-0.01,0.68
		c-0.05,1.18-0.14,2.57,0.97,2.65c0.15,0,0.3-0.06,0.43-0.14c0.33-0.16,0.6-0.55,0.6-1.17c-0.02-0.52-0.01-1.04-0.01-1.56
		c-0.02-0.68,0-1.36,0.02-2.05c0.03-0.82,0.08-1.64,0.23-2.45c0.2-1.12,1.33-3.18,1.86-1.11c0.41,2.16,0.22,4.54,0.32,6.78
		c-0.02,0.82,0.13,1.55,0.95,1.61c0.3-0.01,0.51-0.15,0.66-0.36c0.21-0.21,0.36-0.53,0.36-0.98c0-0.04,0-0.07,0-0.11
		c0.06-0.44,0.07-0.91,0.1-1.3c0.09-1.83-0.03-3.7,0.63-5.41c0.46-1.39,1.64-1.63,1.91,0.06c0.15,0.77,0.19,1.56,0.2,2.35
		c-0.05,0.8-0.05,1.6-0.05,2.37c0,0.04,0,0.09,0,0.13c-0.01,0.23-0.01,0.45-0.01,0.68c-0.05,1.18-0.14,2.57,0.97,2.65
		c0.15,0,0.3-0.06,0.43-0.14c0.33-0.16,0.6-0.55,0.6-1.17c-0.02-0.52-0.01-1.04-0.01-1.56c-0.02-0.68,0-1.36,0.02-2.05
		c0.03-0.82,0.08-1.64,0.23-2.45c0.2-1.12,1.33-3.18,1.86-1.11c0.41,2.16,0.22,4.54,0.32,6.78c-0.02,0.82,0.13,1.55,0.95,1.61
		c0.3-0.01,0.51-0.15,0.66-0.36c0.21-0.21,0.36-0.53,0.36-0.98c0-0.04,0-0.07,0-0.11c0.06-0.44,0.07-0.91,0.1-1.3
		c0.09-1.83-0.03-3.7,0.63-5.41c0.46-1.39,1.64-1.63,1.91,0.06c0.15,0.77,0.19,1.56,0.2,2.35c-0.05,0.8-0.05,1.6-0.05,2.37
		c0,0.04,0,0.09,0,0.14c-0.01,0.23-0.01,0.45-0.01,0.68c-0.05,1.18-0.14,2.57,0.97,2.65c0.15,0,0.3-0.06,0.43-0.14
		c0.33-0.16,0.6-0.55,0.6-1.17c-0.02-0.52-0.01-1.04-0.01-1.56c-0.02-0.68,0-1.36,0.02-2.05c0.03-0.82,0.08-1.64,0.23-2.45
		c0.2-1.12,1.33-3.18,1.86-1.11c0.41,2.16,0.22,4.54,0.32,6.78c-0.02,0.82,0.13,1.55,0.95,1.61c0.3-0.01,0.51-0.15,0.66-0.36
		c0.21-0.21,0.36-0.53,0.36-0.98c0-0.04,0-0.07,0-0.11c0.06-0.44,0.07-0.91,0.1-1.3c0.09-1.83-0.03-3.7,0.63-5.41
		c0.46-1.39,1.64-1.63,1.91,0.06c0.15,0.77,0.19,1.56,0.2,2.35c-0.05,0.8-0.05,1.6-0.05,2.37c0,0.04,0,0.09,0,0.13
		c-0.01,0.23-0.01,0.46-0.01,0.68c-0.05,1.18-0.14,2.57,0.97,2.65c0.15,0,0.3-0.06,0.43-0.14c0.33-0.16,0.6-0.55,0.6-1.17
		c-0.02-0.52-0.01-1.04-0.01-1.56c-0.02-0.68,0-1.36,0.02-2.05c0.03-0.82,0.08-1.64,0.23-2.45c0.2-1.12,1.33-3.18,1.86-1.11
		c0.41,2.16,0.22,4.54,0.32,6.78c-0.02,0.82,0.13,1.55,0.95,1.61c0.3-0.01,0.51-0.15,0.66-0.36c0.21-0.21,0.36-0.53,0.36-0.98
		c0-0.04,0-0.07,0-0.11c0.06-0.44,0.07-0.91,0.1-1.3c0.09-1.83-0.03-3.7,0.63-5.41c0.46-1.39,1.64-1.63,1.91,0.06
		c0.15,0.77,0.19,1.56,0.2,2.35c-0.05,0.8-0.05,1.6-0.05,2.37c0,0.04,0,0.09,0,0.14c-0.01,0.23-0.01,0.45-0.01,0.68
		c-0.05,1.18-0.14,2.57,0.97,2.65c0.15,0,0.3-0.06,0.43-0.14c0.33-0.16,0.6-0.55,0.6-1.17c-0.02-0.52-0.01-1.04-0.01-1.56
		c-0.02-0.68,0-1.36,0.02-2.05c0.03-0.82,0.08-1.64,0.23-2.45c0.2-1.12,1.33-3.18,1.86-1.11c0.41,2.16,0.22,4.54,0.32,6.78
		c-0.02,0.82,0.13,1.55,0.95,1.61c0.3-0.01,0.51-0.15,0.66-0.36c0.21-0.21,0.36-0.53,0.36-0.98c0-0.04,0-0.07,0-0.11
		c0.06-0.44,0.07-0.91,0.1-1.3c0.09-1.83-0.03-3.7,0.63-5.41c0.46-1.39,1.64-1.63,1.91,0.06c0.15,0.77,0.19,1.56,0.2,2.35
		c-0.05,0.8-0.05,1.6-0.05,2.37c0,0.04,0,0.09,0,0.14c-0.01,0.23-0.01,0.45-0.01,0.68c-0.05,1.18-0.14,2.57,0.97,2.65
		c0.15,0,0.3-0.06,0.43-0.14c0.33-0.16,0.6-0.55,0.6-1.17c-0.02-0.52-0.01-1.04-0.01-1.56c-0.02-0.68,0-1.36,0.02-2.05
		c0.03-0.82,0.08-1.64,0.23-2.45c0.2-1.12,1.33-3.18,1.86-1.11c0.41,2.16,0.22,4.54,0.32,6.78c-0.02,0.82,0.13,1.55,0.95,1.61
		c0.3-0.01,0.51-0.15,0.66-0.36c0.21-0.21,0.36-0.53,0.36-0.98c0-0.04,0-0.07,0-0.11c0.06-0.44,0.07-0.91,0.1-1.3
		c0.09-1.83-0.03-3.7,0.63-5.41c0.46-1.39,1.64-1.63,1.91,0.06c0.15,0.77,0.19,1.56,0.2,2.35c-0.05,0.8-0.05,1.6-0.05,2.37
		c0,0.04,0,0.09,0,0.13c-0.01,0.23-0.01,0.45-0.01,0.68c-0.05,1.18-0.14,2.57,0.97,2.65c0.15,0,0.3-0.06,0.43-0.14
		c0.33-0.16,0.6-0.55,0.6-1.17c-0.02-0.52-0.01-1.04-0.01-1.56c-0.02-0.68,0-1.36,0.02-2.05c0.03-0.82,0.08-1.64,0.23-2.45
		c0.2-1.12,1.33-3.18,1.86-1.11c0.41,2.16,0.22,4.54,0.32,6.78c-0.02,0.82,0.13,1.55,0.95,1.61c0.3-0.01,0.51-0.15,0.66-0.36
		c0.21-0.21,0.36-0.53,0.36-0.98c0-0.04,0-0.07,0-0.11c0.06-0.44,0.07-0.91,0.1-1.3c0.09-1.83-0.03-3.7,0.63-5.41
		c0.46-1.39,1.64-1.63,1.91,0.06c0.15,0.77,0.19,1.56,0.2,2.35c-0.05,0.8-0.05,1.6-0.05,2.37c0,0.04,0,0.09,0,0.14
		c-0.01,0.23-0.01,0.45-0.01,0.68c-0.05,1.18-0.14,2.57,0.97,2.65c0.15,0,0.3-0.06,0.43-0.14c0.33-0.16,0.6-0.55,0.6-1.17
		c-0.02-0.52-0.01-1.04-0.01-1.56c-0.02-0.68,0-1.36,0.02-2.05c0.03-0.82,0.08-1.64,0.23-2.45c0.2-1.12,1.33-3.18,1.86-1.11
		c0.41,2.16,0.22,4.54,0.32,6.78c-0.02,0.82,0.13,1.55,0.95,1.61c0.3-0.01,0.51-0.15,0.66-0.36c0.21-0.21,0.36-0.53,0.36-0.98
		c0-0.04,0-0.07,0-0.11c0.06-0.44,0.07-0.91,0.1-1.3c0.09-1.83-0.03-3.7,0.63-5.41c0.46-1.39,1.64-1.63,1.91,0.06
		c0.15,0.77,0.19,1.56,0.2,2.35c-0.05,0.8-0.05,1.6-0.05,2.37c0,0.04,0,0.09,0,0.13c-0.01,0.23-0.01,0.46-0.01,0.68
		c-0.05,1.18-0.14,2.57,0.97,2.65c0.15,0,0.3-0.06,0.43-0.14c0.33-0.16,0.6-0.55,0.6-1.17c-0.02-0.52-0.01-1.04-0.01-1.56
		c-0.02-0.68,0-1.36,0.02-2.05c0.03-0.82,0.08-1.64,0.23-2.45c0.2-1.12,1.33-3.18,1.86-1.11c0.43,2.25,0.2,4.75,0.34,7.08
		c0.03,1.65,1.96,1.63,1.96-0.03C94.31,16.69,94.34,16,94.33,15.24z"/>
	<path d="M6.83,5.3c0.59-1.23,0.89-1.55,1.84-1.64c0.63-0.06,1.06,0.26,1.6,0.66c0.61,0.49,0.96,2.22,1.61,0.63
		c0.96-1.71,2.58-1.68,3.55,0.1c0.14,0.26,0.24,0.55,0.38,0.64c0,0.01,0,0.02,0,0.03c0.23,0.3,0.47-0.06,0.64-0.42
		c0.56-1.23,0.86-1.55,1.76-1.64c0.61-0.06,1.02,0.26,1.54,0.66c0.58,0.49,0.92,2.22,1.55,0.63c0.92-1.71,2.48-1.68,3.42,0.1
		c0.13,0.24,0.22,0.51,0.34,0.62c0,0.02,0,0.03,0,0.05c0.23,0.3,0.47-0.06,0.64-0.42c0.56-1.23,0.86-1.55,1.76-1.64
		c0.61-0.06,1.02,0.26,1.54,0.66c0.58,0.49,0.92,2.22,1.55,0.63c0.92-1.71,2.48-1.68,3.42,0.1c0.14,0.26,0.23,0.55,0.37,0.64
		c0,0.01,0,0.02,0,0.03c0.22,0.3,0.46-0.06,0.61-0.42c0.54-1.23,0.83-1.55,1.7-1.64c0.59-0.06,0.98,0.26,1.48,0.66
		c0.56,0.49,0.88,2.22,1.49,0.63c0.89-1.71,2.38-1.68,3.28,0.1c0.11,0.21,0.19,0.44,0.28,0.57c0,0,0,0,0,0c0,0,0,0,0,0
		c0.02,0.03,0.05,0.06,0.08,0.07c0.01,0.01,0.02,0.01,0.02,0.01c0.01,0.01,0.03,0.01,0.04,0.01c0.19,0.05,0.38-0.24,0.51-0.52
		c0.58-1.23,0.89-1.55,1.82-1.64c0.63-0.06,1.06,0.26,1.59,0.66c0.6,0.49,0.95,2.22,1.6,0.63c0.95-1.71,2.56-1.68,3.53,0.1
		c0.14,0.26,0.24,0.55,0.38,0.64c0,0.01,0,0.02,0,0.03c0.22,0.3,0.47-0.06,0.63-0.42c0.56-1.23,0.85-1.55,1.75-1.64
		c0.6-0.06,1.01,0.26,1.53,0.66c0.58,0.49,0.91,2.22,1.54,0.63c0.91-1.71,2.46-1.68,3.39,0.1c0.13,0.24,0.22,0.51,0.34,0.62
		c0,0.02,0,0.03,0,0.05c0.22,0.3,0.47-0.06,0.63-0.42c0.56-1.23,0.85-1.55,1.75-1.64c0.6-0.06,1.02,0.26,1.53,0.66
		c0.58,0.49,0.91,2.22,1.54,0.63c0.91-1.71,2.46-1.68,3.39,0.1c0.13,0.26,0.23,0.55,0.37,0.64c0,0.01,0,0.02,0,0.03
		c0.22,0.3,0.45-0.06,0.61-0.42c0.54-1.23,0.82-1.55,1.68-1.64c0.58-0.06,0.98,0.26,1.47,0.66c0.56,0.49,0.88,2.22,1.48,0.63
		c0.88-1.71,2.36-1.68,3.26,0.1c0.12,0.23,0.2,0.49,0.31,0.61c0,0.02,0,0.04,0.01,0.07c0.22,0.3,0.47-0.06,0.63-0.42
		c0.56-1.23,0.85-1.55,1.75-1.64c0.6-0.06,1.02,0.26,1.53,0.66c0.58,0.49,0.91,2.22,1.54,0.63c0.91-1.71,2.46-1.68,3.39,0.1
		c0.13,0.26,0.23,0.55,0.37,0.64c0,0.01,0,0.02,0,0.03c0.22,0.3,0.45-0.06,0.61-0.42c0.54-1.23,0.82-1.55,1.68-1.64
		c0.58-0.06,0.98,0.26,1.47,0.66c0.47,0.41,0.77,1.71,1.22,1.13c0,0,0.2-0.33-0.26-1.43c-1.1-2.08-2.96-1.79-4.18-0.32
		c-0.07,0.08-0.16,0.22-0.25,0.38C89.3,3.54,89,3.16,88.8,2.99c-1.04-0.93-3-0.71-3.91,0.94c-1.15-2.08-3.08-1.79-4.35-0.32
		c-0.07,0.08-0.16,0.21-0.25,0.37c-0.18-0.45-0.47-0.83-0.66-1c-1-0.93-2.88-0.71-3.75,0.94c-1.1-2.08-2.96-1.79-4.18-0.32
		c-0.07,0.08-0.16,0.22-0.25,0.38c-0.19-0.46-0.5-0.84-0.69-1.01c-1.04-0.93-3-0.71-3.91,0.94c-1.15-2.08-3.08-1.79-4.35-0.32
		c-0.07,0.08-0.16,0.21-0.25,0.37c-0.19-0.45-0.49-0.83-0.68-1c-1.04-0.93-3-0.71-3.9,0.94c-1.15-2.08-3.08-1.79-4.34-0.32
		c-0.07,0.08-0.16,0.22-0.26,0.38c-0.2-0.46-0.52-0.84-0.72-1.01c-1.08-0.93-3.12-0.71-4.06,0.94c-1.19-2.08-3.2-1.79-4.52-0.32
		C43.72,3.7,43.62,3.83,43.53,4c-0.19-0.41-0.45-0.75-0.62-0.91C41.89,2.16,40,2.38,39.12,4.03C38,1.95,36.13,2.24,34.91,3.71
		c-0.07,0.08-0.16,0.22-0.25,0.38c-0.19-0.46-0.5-0.84-0.7-1.01c-1.05-0.93-3.02-0.71-3.94,0.94c-1.16-2.08-3.11-1.79-4.38-0.32
		c-0.07,0.08-0.16,0.21-0.25,0.37c-0.19-0.45-0.5-0.83-0.69-1c-1.05-0.93-3.02-0.71-3.93,0.94c-1.16-2.08-3.1-1.79-4.38-0.32
		c-0.07,0.08-0.17,0.22-0.26,0.38c-0.2-0.46-0.52-0.84-0.72-1.01c-1.09-0.93-3.14-0.71-4.1,0.94c-1.2-2.08-3.23-1.79-4.56-0.32
		C6.5,4,5.99,4.82,6.16,5.72C6.4,6.02,6.66,5.66,6.83,5.3z"/>
</g>
</svg>
