<?xml version="1.0" encoding="utf-8"?>
<!-- Generator: Adobe Illustrator 23.0.0, SVG Export Plug-In . SVG Version: 6.00 Build 0)  -->
<svg version="1.1" id="Слой_1" xmlns="http://www.w3.org/2000/svg" xmlns:xlink="http://www.w3.org/1999/xlink" x="0px" y="0px"
	 viewBox="0 0 100 21.28" style="enable-background:new 0 0 100 21.28;" xml:space="preserve">
<g>
	<path d="M6.99,7.66C7,7.68,7.01,7.7,7.03,7.72c0,0,0,0,0,0C7,7.67,6.97,7.63,6.95,7.59C6.97,7.62,6.97,7.64,6.99,7.66z"/>
	<path d="M23.13,7.01c0.21-0.19,0.28-0.52,0.09-0.78c-0.91-0.77-1.59,0.99-2.2,1.5c-2.23,2.52-4.25,5.32-5.69,8.39
		c-0.09-4.63-0.19-9.27-0.18-13.9c0-0.31-0.26-0.57-0.56-0.57c-0.82,0.06-0.5,1.1-0.57,1.66c0.06,4.18,0.12,8.37,0.2,12.55
		C12.38,12.82,9.85,10.26,8,7.2C7.71,6.38,6.54,7,7.02,7.71c2.09,3.82,5.79,6.68,7.15,10.89c0.03,0.17,0.04,0.39,0.11,0.57
		c0.1,0.69,1.19,0.56,1.09-0.17c0.6-1.83,1.49-3.68,2.53-5.32C19.45,11.34,21.22,9.06,23.13,7.01z"/>
	<path d="M21.91,14.37c1.41,0.99,2.92-1.17,1.96-2.4C22.51,10.45,20.47,13.23,21.91,14.37z"/>
	<path d="M6.97,12.97c-1.55-0.67-2.7,2.17-1.02,2.66C7.61,16.24,8.51,13.68,6.97,12.97z"/>
	<path d="M40.8,7.01c0.21-0.19,0.28-0.52,0.09-0.78c-0.91-0.77-1.59,0.99-2.2,1.5c-2.23,2.52-4.25,5.32-5.69,8.39
		c-0.09-4.63-0.19-9.27-0.18-13.9c0-0.31-0.26-0.57-0.56-0.57c-0.82,0.06-0.5,1.1-0.57,1.66c0.06,4.18,0.12,8.37,0.2,12.55
		c-1.83-3.05-4.36-5.62-6.21-8.68C25.38,6.38,24.21,7,24.7,7.71c2.09,3.82,5.79,6.68,7.15,10.89c0.03,0.17,0.04,0.39,0.11,0.57
		c0.1,0.69,1.19,0.56,1.09-0.17c0.6-1.83,1.49-3.68,2.53-5.32C37.12,11.34,38.89,9.06,40.8,7.01z"/>
	<path d="M24.66,7.66c0.01,0.02,0.03,0.04,0.04,0.06c0,0,0,0,0,0c-0.02-0.04-0.05-0.08-0.07-0.12C24.64,7.62,24.65,7.64,24.66,7.66z
		"/>
	<path d="M39.59,14.37c1.41,0.99,2.92-1.17,1.96-2.4C40.18,10.45,38.14,13.23,39.59,14.37z"/>
	<path d="M58.47,7.01c0.21-0.19,0.28-0.52,0.09-0.78c-0.91-0.77-1.59,0.99-2.2,1.5c-2.23,2.52-4.25,5.32-5.69,8.39
		c-0.09-4.63-0.19-9.27-0.18-13.9c0-0.31-0.26-0.57-0.56-0.57c-0.82,0.06-0.5,1.1-0.57,1.66c0.06,4.18,0.12,8.37,0.2,12.55
		c-1.83-3.05-4.36-5.62-6.21-8.68C43.06,6.38,41.89,7,42.37,7.71c2.09,3.82,5.79,6.68,7.15,10.89c0.03,0.17,0.04,0.39,0.11,0.57
		c0.1,0.69,1.19,0.56,1.09-0.17c0.6-1.83,1.49-3.68,2.53-5.32C54.79,11.34,56.57,9.06,58.47,7.01z"/>
	<path d="M42.34,7.66c0.01,0.02,0.03,0.04,0.04,0.06c0,0,0,0,0,0c-0.02-0.04-0.05-0.08-0.07-0.12C42.31,7.62,42.32,7.64,42.34,7.66z
		"/>
	<path d="M57.26,14.37c1.41,0.99,2.92-1.17,1.96-2.4C57.86,10.45,55.82,13.23,57.26,14.37z"/>
	<path d="M76.15,7.01c0.21-0.19,0.28-0.52,0.09-0.78c-0.91-0.77-1.59,0.99-2.2,1.5c-2.23,2.52-4.25,5.32-5.69,8.39
		c-0.09-4.63-0.19-9.27-0.18-13.9c0-0.31-0.26-0.57-0.56-0.57c-0.82,0.06-0.5,1.1-0.57,1.66c0.06,4.18,0.12,8.37,0.2,12.55
		c-1.83-3.05-4.36-5.62-6.21-8.68C60.73,6.38,59.56,7,60.05,7.71c2.09,3.82,5.79,6.68,7.15,10.89c0.03,0.17,0.04,0.39,0.11,0.57
		c0.1,0.69,1.19,0.56,1.09-0.17c0.6-1.83,1.49-3.68,2.53-5.32C72.47,11.34,74.24,9.06,76.15,7.01z"/>
	<path d="M60.01,7.66c0.01,0.02,0.03,0.04,0.04,0.06c0,0,0,0,0,0C60.03,7.67,60,7.63,59.98,7.59C59.99,7.62,60,7.64,60.01,7.66z"/>
	<path d="M74.94,14.37c1.41,0.99,2.92-1.17,1.96-2.4C75.53,10.45,73.49,13.23,74.94,14.37z"/>
	<path d="M93.82,7.01c0.21-0.19,0.28-0.52,0.09-0.78c-0.91-0.77-1.59,0.99-2.2,1.5c-2.23,2.52-4.25,5.32-5.69,8.39
		c-0.09-4.63-0.19-9.27-0.18-13.9c0-0.31-0.26-0.57-0.56-0.57c-0.82,0.06-0.5,1.1-0.57,1.66c0.06,4.18,0.12,8.37,0.2,12.55
		c-1.83-3.05-4.36-5.62-6.21-8.68C78.41,6.38,77.24,7,77.72,7.71c2.09,3.82,5.79,6.68,7.15,10.89c0.03,0.17,0.04,0.39,0.11,0.57
		c0.1,0.69,1.19,0.56,1.09-0.17c0.6-1.83,1.49-3.68,2.53-5.32C90.14,11.34,91.92,9.06,93.82,7.01z"/>
	<path d="M77.69,7.66c0.01,0.02,0.03,0.04,0.04,0.06c0,0,0,0,0,0c-0.02-0.04-0.05-0.08-0.07-0.12C77.66,7.62,77.67,7.64,77.69,7.66z
		"/>
	<path d="M94.58,11.97c-1.37-1.52-3.41,1.25-1.96,2.4C94.02,15.36,95.53,13.2,94.58,11.97z"/>
</g>
</svg>
