<?xml version="1.0" encoding="utf-8"?>
<!-- Generator: Adobe Illustrator 23.0.0, SVG Export Plug-In . SVG Version: 6.00 Build 0)  -->
<svg version="1.1" id="Слой_1" xmlns="http://www.w3.org/2000/svg" xmlns:xlink="http://www.w3.org/1999/xlink" x="0px" y="0px"
	 viewBox="0 0 100 21.28" style="enable-background:new 0 0 100 21.28;" xml:space="preserve">
<g>
	<path d="M14.25,9.75c-3.04-1.84-5.85-4.09-8.6-6.29C5.49,3.04,4.81,3.08,4.7,3.52C4.53,5.37,4.55,7.23,4.47,9.09
		c-0.09,2.81,0.32,5.6,0.19,8.41c-0.03,0.3-0.06,0.65,0.24,0.83c0.3,0.2,0.64-0.02,0.87-0.22c2.24-1.71,4.28-3.63,6.47-5.45
		C12.88,11.84,16,10.91,14.25,9.75z"/>
	<path d="M25.43,6.37c-0.76-0.57-4.41-4.79-5.09-3.34c-0.13,0.06-0.23,0.18-0.27,0.32c-0.03,1.11,0.06,2.24,0.08,3.37
		c0.28,3.61-0.13,7.35,0.17,10.89c0.13,0.14,0.33,0.19,0.52,0.15c1.25-0.68,2.28-1.74,3.38-2.63c1.83-1.41,3.46-3.08,5.34-4.44
		c0.34-0.18,0.7-0.52,0.52-0.94C28.8,8.36,26.81,7.72,25.43,6.37z"/>
	<path d="M17.83,8.99c-1.5-0.34-2.5,1.97-0.72,2.33C18.56,11.76,19.42,9.28,17.83,8.99z"/>
	<path d="M33.08,8.58c-1.38-0.56-2.18,1.53-0.98,2.2C33.68,11.5,34.69,9.24,33.08,8.58z"/>
	<path d="M45.07,9.91c-3.04-1.84-5.85-4.09-8.6-6.29c-0.16-0.43-0.83-0.39-0.94,0.06c-0.17,1.84-0.15,3.71-0.23,5.57
		c-0.09,2.81,0.32,5.6,0.19,8.41c-0.03,0.3-0.06,0.65,0.24,0.83c0.3,0.2,0.64-0.02,0.87-0.22c2.24-1.71,4.28-3.63,6.47-5.45
		C43.7,11.99,46.83,11.06,45.07,9.91z"/>
	<path d="M56.26,6.52c-0.75-0.57-4.41-4.79-5.09-3.34c-0.13,0.06-0.23,0.18-0.27,0.32c-0.03,1.11,0.06,2.24,0.08,3.37
		c0.28,3.61-0.13,7.35,0.17,10.89c0.13,0.14,0.33,0.19,0.52,0.15c1.25-0.68,2.28-1.74,3.38-2.63c1.83-1.41,3.46-3.08,5.34-4.44
		c0.34-0.18,0.7-0.52,0.52-0.94C59.62,8.51,57.63,7.88,56.26,6.52z"/>
	<path d="M48.65,9.14c-1.5-0.34-2.5,1.97-0.72,2.33C49.39,11.91,50.25,9.44,48.65,9.14z"/>
	<path d="M63.91,8.73c-1.38-0.56-2.18,1.53-0.98,2.2C64.5,11.65,65.52,9.39,63.91,8.73z"/>
	<path d="M75.89,9.91c-3.04-1.84-5.85-4.09-8.6-6.29c-0.16-0.43-0.83-0.39-0.94,0.06c-0.17,1.84-0.15,3.71-0.23,5.57
		c-0.09,2.81,0.32,5.6,0.19,8.41c-0.03,0.3-0.06,0.65,0.24,0.83c0.3,0.2,0.64-0.02,0.87-0.22c2.24-1.71,4.28-3.63,6.47-5.45
		C74.53,11.99,77.65,11.06,75.89,9.91z"/>
	<path d="M87.08,6.52C86.33,5.95,82.68,1.73,82,3.18c-0.13,0.06-0.23,0.18-0.27,0.32c-0.03,1.11,0.06,2.24,0.08,3.37
		c0.28,3.61-0.13,7.35,0.17,10.89c0.13,0.14,0.33,0.19,0.52,0.15c1.25-0.68,2.28-1.74,3.38-2.63c1.83-1.41,3.46-3.08,5.34-4.44
		c0.34-0.18,0.7-0.52,0.52-0.94C90.45,8.51,88.46,7.88,87.08,6.52z"/>
	<path d="M79.48,9.14c-1.5-0.34-2.5,1.97-0.72,2.33C80.21,11.91,81.07,9.44,79.48,9.14z"/>
	<path d="M94.73,8.73c-1.38-0.56-2.18,1.53-0.98,2.2C95.33,11.65,96.34,9.39,94.73,8.73z"/>
</g>
</svg>
