<?xml version="1.0" encoding="utf-8"?>
<!-- Generator: Adobe Illustrator 23.0.0, SVG Export Plug-In . SVG Version: 6.00 Build 0)  -->
<svg version="1.1" id="Слой_1" xmlns="http://www.w3.org/2000/svg" xmlns:xlink="http://www.w3.org/1999/xlink" x="0px" y="0px"
	 viewBox="0 0 100 21.28" style="enable-background:new 0 0 100 21.28;" xml:space="preserve">
<g>
	<path d="M14.76,9.83c-1.08-0.07-2,0.7-2.68,1.44c-0.36,0.45-0.65,0.95-0.89,1.48c-0.25-0.73-0.63-1.41-1.22-1.96
		c-2.18-2.16-6.25,2.1-3.81,4.15c0.88,0.72,2.21,1.06,3.12,0.22c0.41-0.34,0.82-1.06,0.23-1.44c-0.38-0.23-0.74,0.06-0.93,0.4
		c-0.61,0.63-1.61,0.05-2-0.59c0,0,0,0,0,0c-0.25-0.84,0.99-2.43,2.1-2.05c1.38,0.63,1.73,2.25,1.75,3.92c0.01,1-0.07,1.55-0.13,2.4
		c-0.02,0.24-0.05,0.49-0.07,0.7c0,0.68,0.84,0.78,1.11,0.32c0-0.01,0.01-0.01,0.01-0.02c0.01-0.02,0.02-0.03,0.02-0.05
		c0.05-0.09,0.09-0.2,0.09-0.33c0.01-0.12,0.01-0.24,0.01-0.36c0.05-0.77,0.05-1.55,0.15-2.44c0.06-0.49,0.14-0.98,0.28-1.45
		c0.59-2.04,1.8-3.23,2.72-3.19c0.57,0.14,0.7,0.62,0.66,1.2c-0.04,0.99-0.93,1.57-1.81,1.63c-0.84-0.2-1.13,1.08-0.28,1.25
		c1,0.09,1.97-0.39,2.67-1.12C17.03,12.55,16.51,10.28,14.76,9.83z"/>
	<path d="M9.51,9.05c0.44,0.1,0.67,0.61,0.89,1.01c0.18,0.35,0.14,0.82,0.46,1.09c0.63,0.47,1.03-0.31,1.28-0.81
		c0.46-0.6,1.03-1.48,1.82-1.61c0.7-0.25,0.47-1.08-0.08-1.35c-0.37-0.38-0.64-0.95-0.88-1.45c-0.41-0.85-0.56-1.76-0.72-2.75
		c-0.08-0.42-0.18-0.94-0.67-1c-0.26-0.03-0.54,0.12-0.66,0.37c-0.46,1.19-0.61,2.36-1.19,3.55C9.55,6.56,9.19,7.15,8.78,7.54
		C8.36,7.79,7.99,8.35,8.44,8.77C8.64,8.86,9,8.83,9.51,9.05z M10.98,6.35c0.18-0.42,0.32-0.84,0.46-1.27
		c0.26,1.01,0.72,1.97,1.3,2.82c-0.51,0.4-0.97,0.89-1.37,1.41C11.05,8.76,10.62,8.26,10,8.02C10.4,7.53,10.72,6.95,10.98,6.35z"/>
	<path d="M27.63,10.03c-1.08-0.07-2.08,0.51-2.77,1.24c-0.36,0.45-0.65,0.95-0.89,1.48c-0.25-0.73-0.63-1.41-1.22-1.96
		c-2.18-2.16-5.92,1.94-3.52,4.02c0.32,0.27,0.67,0.48,1.09,0.53c0.25,0.03,0.51,0.02,0.76-0.01c0.16-0.02,0.33-0.05,0.49-0.08
		c0.36-0.07,0.71-0.26,0.88-0.6c0.16-0.32,0.17-0.73-0.17-0.94c-0.23-0.14-0.48-0.09-0.67,0.08c-0.16,0.14-0.31,0.33-0.5,0.43
		c-0.24,0.12-0.57,0.15-0.83,0.09c-0.4-0.1-0.7-0.45-0.77-0.84c-0.25-0.84,0.83-2.37,1.94-2c1.38,0.63,1.73,2.25,1.75,3.92
		c0.01,1-0.07,1.55-0.13,2.4c-0.02,0.24-0.05,0.49-0.07,0.7c0,0.68,0.84,0.78,1.12,0.3c0.01-0.02,0.02-0.03,0.02-0.05
		c0.05-0.09,0.09-0.2,0.09-0.33c0.01-0.12,0.01-0.24,0.01-0.36c0.05-0.77,0.05-1.55,0.15-2.44c0.06-0.49,0.14-0.98,0.28-1.45
		c0.59-2.04,1.88-3.08,2.79-3.04c0.57,0.14,0.88,0.77,0.84,1.35c-0.04,0.99-0.63,1.95-1.53,1.66c-0.85-0.38-1.3,1.05-0.45,1.22
		c1.72-0.19,1.95-0.51,2.65-1.24C29.98,12.71,29.38,10.48,27.63,10.03z"/>
	<path d="M23.09,9.94c0.03,0.03,0.05,0.07,0.07,0.11c0.11,0.2,0.19,0.42,0.25,0.64c0.05,0.18,0.1,0.35,0.25,0.46
		c0.63,0.47,1.03-0.31,1.28-0.81c0.46-0.6,1.03-1.48,1.82-1.61c0.22-0.08,0.46-0.22,0.48-0.47c0.02-0.23-0.13-0.45-0.28-0.61
		c-0.29-0.3-0.48-0.62-0.66-0.98c-0.29-0.57-0.58-1.16-0.8-1.76c-0.21-0.56-0.32-1.14-0.42-1.72c-0.08-0.42-0.18-0.94-0.67-1
		c-0.26-0.03-0.54,0.12-0.66,0.37c-0.38,0.81-0.51,1.73-0.79,2.57c-0.24,0.71-0.56,1.46-1.04,2.04c-0.26,0.31-0.67,0.37-0.83,0.76
		c-0.1,0.25-0.05,0.51,0.15,0.69C21.31,8.69,22.04,8.69,23.09,9.94z M23.76,6.36c0.18-0.42,0.32-0.84,0.46-1.27
		c0.26,1.01,0.87,1.99,1.46,2.84c-0.51,0.4-1.18,1.1-1.57,1.62c-0.42-0.52-0.88-1.04-1.5-1.45C23.02,7.6,23.51,6.96,23.76,6.36z"/>
	<path d="M40.8,9.83c-1.08-0.07-2,0.7-2.68,1.44c-0.36,0.45-0.65,0.95-0.89,1.48c-0.25-0.73-0.63-1.41-1.22-1.96
		c-2.18-2.16-6.25,2.1-3.81,4.15c0.88,0.72,2.21,1.06,3.12,0.22c0.41-0.34,0.82-1.06,0.23-1.44c-0.38-0.23-0.74,0.06-0.93,0.4
		c-0.61,0.63-1.61,0.05-2-0.59c0,0,0,0,0,0c-0.25-0.84,0.99-2.43,2.1-2.05c1.38,0.63,1.73,2.25,1.75,3.92c0.01,1-0.07,1.55-0.13,2.4
		c-0.02,0.24-0.05,0.49-0.07,0.7c0,0.68,0.84,0.78,1.11,0.32c0-0.01,0.01-0.01,0.01-0.02c0.01-0.02,0.02-0.03,0.02-0.05
		c0.05-0.09,0.09-0.2,0.09-0.33c0.01-0.12,0.01-0.24,0.01-0.36c0.05-0.77,0.05-1.55,0.15-2.44c0.06-0.49,0.14-0.98,0.28-1.45
		c0.59-2.04,1.8-3.23,2.72-3.19c0.57,0.14,0.7,0.62,0.66,1.2c-0.04,0.99-0.93,1.57-1.81,1.63c-0.84-0.2-1.13,1.08-0.28,1.25
		c1,0.09,1.97-0.39,2.67-1.12C43.07,12.55,42.55,10.28,40.8,9.83z"/>
	<path d="M35.56,9.05c0.44,0.1,0.67,0.61,0.89,1.01c0.18,0.35,0.14,0.82,0.46,1.09c0.63,0.47,1.03-0.31,1.28-0.81
		c0.46-0.6,1.03-1.48,1.82-1.61c0.7-0.25,0.47-1.08-0.08-1.35c-0.37-0.38-0.64-0.95-0.88-1.45c-0.41-0.85-0.56-1.76-0.72-2.75
		c-0.08-0.42-0.18-0.94-0.67-1C37.4,2.14,37.12,2.29,37,2.54c-0.46,1.19-0.61,2.36-1.19,3.55c-0.22,0.47-0.58,1.06-0.99,1.45
		c-0.42,0.25-0.78,0.81-0.34,1.23C34.68,8.86,35.04,8.83,35.56,9.05z M37.02,6.35c0.18-0.42,0.32-0.84,0.46-1.27
		c0.26,1.01,0.72,1.97,1.3,2.82c-0.51,0.4-0.97,0.89-1.37,1.41c-0.32-0.55-0.76-1.06-1.38-1.29C36.44,7.53,36.76,6.95,37.02,6.35z"
		/>
	<path d="M53.67,10.03c-1.08-0.07-2.08,0.51-2.77,1.24c-0.36,0.45-0.65,0.95-0.89,1.48c-0.25-0.73-0.63-1.41-1.22-1.96
		c-2.18-2.16-5.92,1.94-3.52,4.02c0.32,0.27,0.67,0.48,1.09,0.53c0.25,0.03,0.51,0.02,0.76-0.01c0.16-0.02,0.33-0.05,0.49-0.08
		c0.36-0.07,0.71-0.26,0.88-0.6c0.16-0.32,0.17-0.73-0.17-0.94c-0.23-0.14-0.48-0.09-0.67,0.08c-0.16,0.14-0.31,0.33-0.5,0.43
		c-0.24,0.12-0.57,0.15-0.83,0.09c-0.4-0.1-0.7-0.45-0.77-0.84c-0.25-0.84,0.83-2.37,1.94-2c1.38,0.63,1.73,2.25,1.75,3.92
		c0.01,1-0.07,1.55-0.13,2.4c-0.02,0.24-0.05,0.49-0.07,0.7c0,0.68,0.84,0.78,1.12,0.3c0.01-0.02,0.02-0.03,0.02-0.05
		c0.05-0.09,0.09-0.2,0.09-0.33c0.01-0.12,0.01-0.24,0.01-0.36c0.05-0.77,0.05-1.55,0.15-2.44c0.06-0.49,0.14-0.98,0.28-1.45
		c0.59-2.04,1.88-3.08,2.79-3.04c0.57,0.14,0.88,0.77,0.84,1.35c-0.04,0.99-0.63,1.95-1.53,1.66c-0.85-0.38-1.3,1.05-0.45,1.22
		c1.72-0.19,1.95-0.51,2.66-1.24C56.02,12.71,55.42,10.48,53.67,10.03z"/>
	<path d="M49.13,9.94c0.03,0.03,0.05,0.07,0.07,0.11c0.11,0.2,0.19,0.42,0.25,0.64c0.05,0.18,0.1,0.35,0.25,0.46
		c0.63,0.47,1.03-0.31,1.28-0.81c0.46-0.6,1.03-1.48,1.82-1.61c0.22-0.08,0.46-0.22,0.48-0.47c0.02-0.23-0.13-0.45-0.28-0.61
		c-0.29-0.3-0.48-0.62-0.66-0.98c-0.29-0.57-0.58-1.16-0.8-1.76c-0.21-0.56-0.32-1.14-0.42-1.72c-0.08-0.42-0.18-0.94-0.67-1
		c-0.26-0.03-0.54,0.12-0.66,0.37c-0.38,0.81-0.51,1.73-0.79,2.57c-0.24,0.71-0.56,1.46-1.04,2.04c-0.26,0.31-0.67,0.37-0.83,0.76
		c-0.1,0.25-0.05,0.51,0.15,0.69C47.35,8.69,48.08,8.69,49.13,9.94z M49.81,6.36c0.18-0.42,0.32-0.84,0.46-1.27
		c0.26,1.01,0.87,1.99,1.46,2.84c-0.51,0.4-1.18,1.1-1.57,1.62c-0.42-0.52-0.88-1.04-1.5-1.45C49.06,7.6,49.55,6.96,49.81,6.36z"/>
	<path d="M66.84,9.83c-1.08-0.07-2,0.7-2.68,1.44c-0.36,0.45-0.65,0.95-0.89,1.48c-0.25-0.73-0.63-1.41-1.22-1.96
		c-2.18-2.16-6.25,2.1-3.81,4.15c0.88,0.72,2.21,1.06,3.12,0.22c0.41-0.34,0.82-1.06,0.23-1.44c-0.38-0.23-0.74,0.06-0.93,0.4
		c-0.61,0.63-1.61,0.05-2-0.59c0,0,0,0,0,0c-0.25-0.84,0.99-2.43,2.1-2.05c1.38,0.63,1.73,2.25,1.75,3.92c0.01,1-0.07,1.55-0.13,2.4
		c-0.02,0.24-0.05,0.49-0.07,0.7c0,0.68,0.84,0.78,1.11,0.32c0-0.01,0.01-0.01,0.01-0.02c0.01-0.02,0.02-0.03,0.02-0.05
		c0.05-0.09,0.09-0.2,0.09-0.33c0.01-0.12,0.01-0.24,0.01-0.36c0.05-0.77,0.05-1.55,0.15-2.44c0.06-0.49,0.14-0.98,0.28-1.45
		c0.59-2.04,1.8-3.23,2.72-3.19c0.57,0.14,0.7,0.62,0.66,1.2c-0.04,0.99-0.93,1.57-1.81,1.63c-0.84-0.2-1.13,1.08-0.28,1.25
		c1,0.09,1.97-0.39,2.67-1.12C69.11,12.55,68.59,10.28,66.84,9.83z"/>
	<path d="M61.6,9.05c0.44,0.1,0.67,0.61,0.89,1.01c0.18,0.35,0.14,0.82,0.46,1.09c0.63,0.47,1.03-0.31,1.28-0.81
		c0.46-0.6,1.03-1.48,1.82-1.61c0.7-0.25,0.47-1.08-0.08-1.35c-0.37-0.38-0.64-0.95-0.88-1.45c-0.41-0.85-0.56-1.76-0.72-2.75
		c-0.08-0.42-0.18-0.94-0.67-1c-0.26-0.03-0.54,0.12-0.66,0.37c-0.46,1.19-0.61,2.36-1.19,3.55c-0.22,0.47-0.58,1.06-0.99,1.45
		c-0.42,0.25-0.78,0.81-0.34,1.23C60.72,8.86,61.08,8.83,61.6,9.05z M63.06,6.35c0.18-0.42,0.32-0.84,0.46-1.27
		c0.26,1.01,0.72,1.97,1.3,2.82c-0.51,0.4-0.97,0.89-1.37,1.41c-0.32-0.55-0.76-1.06-1.38-1.29C62.48,7.53,62.81,6.95,63.06,6.35z"
		/>
	<path d="M79.71,10.03c-1.08-0.07-2.08,0.51-2.77,1.24c-0.36,0.45-0.65,0.95-0.89,1.48c-0.25-0.73-0.63-1.41-1.22-1.96
		c-2.18-2.16-5.92,1.94-3.52,4.02c0.32,0.27,0.67,0.48,1.09,0.53c0.25,0.03,0.51,0.02,0.76-0.01c0.16-0.02,0.33-0.05,0.49-0.08
		c0.36-0.07,0.71-0.26,0.88-0.6c0.16-0.32,0.17-0.73-0.17-0.94c-0.23-0.14-0.48-0.09-0.67,0.08c-0.16,0.14-0.31,0.33-0.5,0.43
		c-0.24,0.12-0.57,0.15-0.83,0.09c-0.4-0.1-0.7-0.45-0.77-0.84c-0.25-0.84,0.83-2.37,1.94-2c1.38,0.63,1.73,2.25,1.75,3.92
		c0.01,1-0.07,1.55-0.13,2.4c-0.02,0.24-0.05,0.49-0.07,0.7c0,0.68,0.84,0.78,1.12,0.3c0.01-0.02,0.02-0.03,0.02-0.05
		c0.05-0.09,0.09-0.2,0.09-0.33c0.01-0.12,0.01-0.24,0.01-0.36c0.05-0.77,0.05-1.55,0.15-2.44c0.06-0.49,0.14-0.98,0.28-1.45
		c0.59-2.04,1.88-3.08,2.79-3.04c0.57,0.14,0.88,0.77,0.84,1.35c-0.04,0.99-0.63,1.95-1.53,1.66c-0.85-0.38-1.3,1.05-0.45,1.22
		c1.72-0.19,1.95-0.51,2.66-1.24C82.06,12.71,81.46,10.48,79.71,10.03z"/>
	<path d="M75.17,9.94c0.03,0.03,0.05,0.07,0.07,0.11c0.11,0.2,0.19,0.42,0.25,0.64c0.05,0.18,0.1,0.35,0.25,0.46
		c0.63,0.47,1.03-0.31,1.28-0.81c0.46-0.6,1.03-1.48,1.82-1.61c0.22-0.08,0.46-0.22,0.48-0.47c0.02-0.23-0.13-0.45-0.28-0.61
		c-0.29-0.3-0.48-0.62-0.66-0.98c-0.29-0.57-0.58-1.16-0.8-1.76c-0.21-0.56-0.32-1.14-0.42-1.72c-0.08-0.42-0.18-0.94-0.67-1
		c-0.26-0.03-0.54,0.12-0.66,0.37c-0.38,0.81-0.51,1.73-0.79,2.57c-0.24,0.71-0.56,1.46-1.04,2.04c-0.26,0.31-0.67,0.37-0.83,0.76
		c-0.1,0.25-0.05,0.51,0.15,0.69C73.39,8.69,74.12,8.69,75.17,9.94z M75.85,6.36c0.18-0.42,0.32-0.84,0.46-1.27
		c0.26,1.01,0.87,1.99,1.46,2.84c-0.51,0.4-1.18,1.1-1.57,1.62c-0.42-0.52-0.88-1.04-1.5-1.45C75.1,7.6,75.59,6.96,75.85,6.36z"/>
	<path d="M92.88,9.83c-1.08-0.07-2,0.7-2.68,1.44c-0.36,0.45-0.65,0.95-0.89,1.48c-0.25-0.73-0.63-1.41-1.22-1.96
		c-2.18-2.16-6.25,2.1-3.81,4.15c0.88,0.72,2.21,1.06,3.12,0.22c0.41-0.34,0.82-1.06,0.23-1.44c-0.38-0.23-0.74,0.06-0.93,0.4
		c-0.61,0.63-1.61,0.05-2-0.59c0,0,0,0,0,0c-0.25-0.84,0.99-2.43,2.1-2.05c1.38,0.63,1.73,2.25,1.75,3.92c0.01,1-0.07,1.55-0.13,2.4
		c-0.02,0.24-0.05,0.49-0.07,0.7c0,0.68,0.84,0.78,1.11,0.32c0-0.01,0.01-0.01,0.01-0.02c0.01-0.02,0.02-0.03,0.02-0.05
		c0.05-0.09,0.09-0.2,0.09-0.33c0.01-0.12,0.01-0.24,0.01-0.36c0.05-0.77,0.05-1.55,0.15-2.44c0.06-0.49,0.14-0.98,0.28-1.45
		c0.59-2.04,1.8-3.23,2.72-3.19c0.57,0.14,0.7,0.62,0.66,1.2c-0.04,0.99-0.93,1.57-1.81,1.63c-0.84-0.2-1.13,1.08-0.28,1.25
		c1,0.09,1.97-0.39,2.67-1.12C95.15,12.55,94.63,10.28,92.88,9.83z"/>
	<path d="M87.64,9.05c0.44,0.1,0.67,0.61,0.89,1.01c0.18,0.35,0.14,0.82,0.46,1.09c0.63,0.47,1.03-0.31,1.28-0.81
		c0.46-0.6,1.03-1.48,1.82-1.61c0.7-0.25,0.47-1.08-0.08-1.35c-0.37-0.38-0.64-0.95-0.88-1.45c-0.41-0.85-0.56-1.76-0.72-2.75
		c-0.08-0.42-0.18-0.94-0.67-1c-0.26-0.03-0.54,0.12-0.66,0.37c-0.46,1.19-0.61,2.36-1.19,3.55c-0.22,0.47-0.58,1.06-0.99,1.45
		c-0.42,0.25-0.78,0.81-0.34,1.23C86.76,8.86,87.12,8.83,87.64,9.05z M89.1,6.35c0.18-0.42,0.32-0.84,0.46-1.27
		c0.26,1.01,0.72,1.97,1.3,2.82c-0.51,0.4-0.97,0.89-1.37,1.41c-0.32-0.55-0.76-1.06-1.38-1.29C88.52,7.53,88.85,6.95,89.1,6.35z"/>
</g>
</svg>
