<?xml version="1.0" encoding="utf-8"?>
<!-- Generator: Adobe Illustrator 23.0.0, SVG Export Plug-In . SVG Version: 6.00 Build 0)  -->
<svg version="1.1" id="Слой_1" xmlns="http://www.w3.org/2000/svg" xmlns:xlink="http://www.w3.org/1999/xlink" x="0px" y="0px"
	 viewBox="0 0 100 21.28" style="enable-background:new 0 0 100 21.28;" xml:space="preserve">
<g>
	<path d="M93.84,12.74c-0.51-0.15-1.35-0.32-1.9-0.51c-2.4-0.82-4.05-1.15-6.36-2.76c-4.99-2.43-9.95-0.28-14.66,1.8
		c0.25-0.3,0.45-0.64,0.54-1.03c0.19-1.3-1.25-2.42-2.43-1.72c-0.18-2.61-2.5-3.34-3.47-0.68c-0.39-0.67-1.07-1.22-1.83-1.4
		c-1.1-0.05-2.01,1.19-1.91,2.23c-1.11-0.68-2.88-0.66-3.22,0.86c0,0.64,0.24,1.31,0.62,1.91c-1.37-0.62-2.71-1.33-4.01-1.94
		c-2.34-1.05-4.92-1.26-7.46-1.2c-2.84-0.01-5.43,1.01-7.97,2.16c0.13-0.29,0.2-0.6,0.17-0.93c-0.15-1.08-1.36-1.33-2.25-1.06
		c0.59-1.29-0.5-3-1.94-2.15c-0.56,0.38-0.99,0.92-1.39,1.47c-0.22-1.08-1.21-2.71-2.5-2.28c-1.12,0.6-0.97,1.9-1.18,2.89
		c-1.06-1.68-3.33-0.85-3.89,0.81c-0.19,0.74,0,1.59,0.45,2.24c-5.6-1.82-10.14-5.54-16.73-2.63c-1.52,0.7-3.07,1.38-4.57,2.09
		c-0.34,0.28-0.09,0.89,0.34,0.87c0.9-0.32,1.78-0.73,2.65-1.15c-0.31,0.4-0.56,0.85-0.72,1.32c-0.17,0.48-0.3,1.04-0.12,1.55
		c0.18,0.48,0.64,0.8,1.12,0.95c0.44,0.13,0.93,0.15,1.36,0.01c0.15-0.05,0.3-0.11,0.44-0.19c0.06-0.03,0.39-0.21,0.38-0.28
		c0.07,0.85,0.87,1.57,1.7,1.67c0.85,0.09,1.76-0.25,2.33-0.88c0.96,1.62,4.16,0.63,3.8-1.35c2.07,1.39,4.11-0.63,3.43-2.67
		c0.81,0.37,1.62,0.75,2.41,1.11c2.48,0.86,5.09,1.43,7.72,1.46c3.63,0.05,6.71-1.81,10-3.02c-1.75,1.83-0.84,3.97,2.35,3.38
		c-0.27,1.18,0.89,1.95,1.9,2.17c0.96,0.13,1.66-0.67,2.07-1.44c0.44,1.01,1.69,1.5,2.73,1.14c0.77-0.3,0.97-1.25,1.09-1.99
		c2.66,0.99,3.52-1.07,2.71-2.72c4.1,1.9,8.38,4.4,12.9,2.53c2.24-0.88,4.52-2.04,6.85-2.88c-1.84,1.56-0.07,3.54,2.15,2.87
		c0.01,1.6,2.21,2.02,3.16,0.93c0.23,0.68,0.73,1.26,1.46,1.39c1.14,0.33,2.11-0.62,2.1-1.75c1.83,1.28,3.91-0.36,2.81-2.39
		c-0.02-0.04-0.05-0.1-0.08-0.15c1,0.44,2.04,0.76,3.15,1.18c2.12,0.8,1.95,0.77,3.41,1.12C94.21,13.88,94.44,12.9,93.84,12.74z
		 M11.83,12.09c-0.07,0.15-0.16,0.29-0.26,0.43c-0.36,0.48-0.88,0.86-1.45,0.99c-0.55,0.13-1.28-0.15-1.32-0.82
		c-0.02-0.24,0.34-0.81,0.47-1c0.26-0.37,0.47-0.54,0.81-0.83c0.05-0.04,0.59-0.51,0.61-0.48c0.09,0.14,0.2,0.27,0.32,0.39
		c-0.17,0.14-0.32,0.31-0.46,0.42c-0.25,0.17-0.32,0.56-0.09,0.79c0.18,0.18,0.53,0.2,0.71,0c0.17-0.19,0.46-0.37,0.64-0.59
		c0.11,0.06,0.22,0.13,0.34,0.18C12.04,11.78,11.85,12.04,11.83,12.09z M15.21,12.73c-0.02,0.55-0.24,1.14-0.65,1.52
		c-0.54,0.41-1.47,0.66-1.96,0.02c-0.59-0.75,0.27-1.47,0.51-2.18c0.02-0.05,0.04-0.09,0.05-0.14c0.18,0.05,0.36,0.1,0.54,0.14
		c-0.22,0.52-0.62,1.18,0.12,1.35c0.63,0.02,0.68-0.71,0.88-1.18c0.17,0.01,0.35,0.02,0.53,0.03C15.21,12.45,15.21,12.6,15.21,12.73
		z M18.23,13.91c-0.03,0.07-0.06,0.13-0.09,0.18c-0.26,0.42-0.79,0.58-1.28,0.52c-0.71-0.08-0.64-0.98-0.63-1.51
		c0-0.08,0-0.86,0.03-0.86c0.17-0.02,0.33-0.05,0.49-0.09c0.06,0.36,0.23,0.75,0.31,1.01c0.09,0.31,0.54,0.28,0.74,0.13
		c0.22-0.18,0.19-0.38,0.12-0.63c-0.08-0.28-0.11-0.57-0.19-0.85c0.07-0.03,0.14-0.07,0.2-0.1c-0.02,0.01,0.23,0.62,0.25,0.69
		C18.3,12.86,18.41,13.42,18.23,13.91z M13.12,10.91c-0.58-0.23-1.12-0.53-1.58-0.97c-0.1-0.08-0.32-0.31-0.33-0.34
		c0.14-0.06,0.5-0.18,0.64-0.24c0.14-0.06,0.28-0.1,0.41-0.15c1.3,1.43,2.93,1.43,3.17,1.45c1.06-0.03,2.44-0.4,2.97-1.4
		c0-0.01,0.01-0.01,0.01-0.02c0.02-0.03,0.04-0.06,0.05-0.1c0.25,0.07,0.5,0.14,0.75,0.22C17.62,11.17,15.48,11.77,13.12,10.91z
		 M21.37,12.66c-0.44,0.41-1.13,0.21-1.58-0.07c-0.24-0.15-0.46-0.34-0.62-0.58c-0.07-0.11-0.5-0.86-0.38-0.95
		c0.19-0.14,0.41-0.3,0.62-0.47c0.28,0.35,0.88,0.71,1.19,0.89c0.26,0.15,0.59-0.12,0.65-0.29c0.13-0.32-0.1-0.52-0.33-0.7
		c-0.07-0.05-0.79-0.65-0.82-0.6c0.04-0.06,0.06-0.12,0.09-0.18c0.03-0.08,0.77,0.44,0.83,0.47c0.19,0.13,0.34,0.27,0.47,0.43
		c0.15,0.19,0.25,0.42,0.3,0.69C21.87,11.79,21.74,12.31,21.37,12.66z M36.25,7.1c0.15-0.05,0.36-0.07,0.47,0.08
		c0.44,0.71-0.26,1.61-0.49,2.32c-0.14,0.26-0.18,0.36-0.4,0.57c-0.1-0.06-0.2-0.12-0.3-0.18c0.18-0.18,0.31-0.48,0.47-0.68
		c0.22-0.52,0.22-1.11-0.39-0.98c-0.17,0.04-0.29,0.15-0.36,0.3c-0.16,0.27-0.3,0.57-0.55,0.96c-0.06-0.02-0.12-0.04-0.17-0.06
		C34.87,8.34,35.47,7.38,36.25,7.1z M31.74,8.28c0.07-0.43,0.18-0.85,0.33-1.26c0.06-0.15,0.12-0.31,0.2-0.46
		c0.02-0.05,0.06-0.1,0.12-0.11c0.03,0,0.05,0.02,0.07,0.03c0.61,0.39,0.91,1.1,1,1.8c0.01,0.11,0.02,0.23,0.03,0.34
		c0.01,0.22,0.02,0.48-0.03,0.7c-0.13,0.01-0.27,0-0.41,0c-0.03,0,0.02-0.54,0.02-0.59c0.02-0.31-0.03-0.76-0.41-0.84
		c-0.06-0.01-0.12-0.01-0.18-0.01c-0.13,0.02-0.24,0.09-0.3,0.2c-0.11,0.19-0.12,0.43-0.13,0.65c-0.01,0.24-0.01,0.49,0.02,0.73
		c0,0.01-0.39,0.12-0.43,0.12C31.61,9.15,31.67,8.71,31.74,8.28z M28.64,11.37c-0.49-0.32-0.78-0.78-0.9-1.41
		C27.6,9.2,28.53,8.28,29.3,8.47c0.64,0.22,0.88,1.04,1.21,1.6c-0.06,0.03-0.41,0.22-0.65,0.37c0-0.05-0.24-0.65-0.35-0.93
		c-0.2-0.35-0.76-0.31-0.9,0.07c-0.11,0.35,0,0.41,0.12,0.76c0.18,0.31,0.18,0.31,0.34,0.62C28.9,11.08,28.75,11.22,28.64,11.37z
		 M35.18,12.07c-0.01-0.02-0.01-0.03-0.02-0.05c-0.12-0.16-0.27-0.3-0.41-0.44c-0.67-0.64-1.5-0.83-2.43-0.58
		c-0.67,0.18-1.24,0.43-1.72,0.9c-0.03,0.03-0.25,0.27-0.27,0.26c-0.15-0.02-0.29-0.05-0.44-0.07c-0.06-0.01-0.43-0.13-0.46-0.1
		c1.97-2.08,4.91-2.49,6.86-0.26c0.02,0.02,0.03,0.05,0.05,0.08C35.97,11.91,35.57,12.04,35.18,12.07z M38.2,10.84
		c-0.14,0.12-0.41,0.44-0.54,0.38c-0.14-0.07,0.2-0.29,0.31-0.42c0.36-0.27,0.15-0.9-0.31-0.89c-0.31,0.03-0.74,0.46-0.89,0.87
		c-0.05-0.05-0.11-0.1-0.17-0.15c0.35-0.49,0.77-1.14,1.33-1.21C39.49,9.05,39.04,10.19,38.2,10.84z M45.76,12.02
		c-0.08,0.1-0.17,0.2-0.26,0.28c-0.59,0.52-1.84,0.77-2.45,0.14c-0.26-0.27-0.07-0.66,0.09-0.92c0.25-0.43,0.64-0.8,1.06-1.05
		c0.06-0.03,0.77-0.43,0.79-0.38c0.04,0.12,0.09,0.24,0.15,0.35c-0.09,0.09-0.17,0.17-0.26,0.24c-0.34,0.38-1.35,0.68-0.92,1.34
		c0.61,0.53,1.27-0.34,1.8-0.81c0.11,0.1,0.23,0.2,0.36,0.29C46.16,11.52,45.79,11.98,45.76,12.02z M48.5,13.45
		c-0.14,0.4-0.36,0.8-0.66,1.09c-0.14,0.14-0.32,0.26-0.52,0.29c-0.2,0.03-0.39-0.03-0.57-0.11c-0.22-0.1-0.44-0.25-0.54-0.46
		c-0.01-0.02-0.02-0.04-0.03-0.06c-0.09-0.25-0.03-0.52,0.06-0.77c0.1-0.26,0.22-0.52,0.38-0.75c0.04-0.06,0.45-0.65,0.43-0.66
		c0.11,0.05,0.23,0.1,0.34,0.14c-0.2,0.49-0.84,1.2-0.17,1.55c0.7,0.18,0.87-0.71,1.13-1.29c0.1,0.01,0.2,0.03,0.31,0.04
		C48.7,12.45,48.52,13.4,48.5,13.45z M51.2,14.66c-1.13,0-1.56-1.27-1.53-2.3c0.14-0.03,0.28-0.06,0.42-0.1
		c0.09,0.34,0.24,0.7,0.3,0.92c0.17,0.63,1.14,0.35,0.96-0.27c-0.15-0.3-0.2-0.69-0.31-1.03c0.07-0.03,0.13-0.07,0.2-0.11
		c0.29,0.24,0.45,0.47,0.66,1.16C52.04,13.44,51.9,14.74,51.2,14.66z M48.9,11.48c-0.98,0-2.29-0.53-2.78-1.43
		c-0.04-0.07-0.32-0.59-0.2-0.61c0.32-0.05,0.65-0.09,0.98-0.12c0.02,0,0.04,0,0.06,0c-0.12,0,0.02,0.51,0.04,0.57
		c0.29,0.7,1.04,1.02,1.75,1.09c0.37,0.04,0.75,0.02,1.12-0.06c0.42-0.1,0.8-0.33,1.07-0.68c0.05-0.06,0.4-0.81,0.45-0.8
		c0.28,0.04,0.55,0.08,0.82,0.14c0.02,0-0.15,0.28-0.17,0.3C51.42,10.82,50.81,11.48,48.9,11.48z M54.91,12.56
		c-0.59,0.49-1.49,0.18-2.11-0.19c-0.59-0.59-0.65-0.91-0.65-1.17c0.07-0.05,0.14-0.11,0.21-0.17c0.3,0.21,0.6,0.42,0.87,0.69
		c0.45,0.46,1.16-0.25,0.71-0.71c-0.22-0.17-0.56-0.52-0.91-0.77c0.06-0.14,0.1-0.29,0.11-0.42c0.02,0.01,0.04,0.01,0.06,0.02
		C54.46,10.64,55.13,11.8,54.91,12.56z M67.99,8.35c0.06,0.49,0.1,0.86-0.16,1.49c-0.1,0.24-0.32,0.47-0.48,0.47
		c0.02-0.22,0.05-0.79,0.1-0.96c-0.01,0.02-0.01,0.04-0.01,0.05c0,0.01-0.01,0.02-0.01,0.04c0.25-0.6-0.68-0.99-0.92-0.39
		c-0.03,0.34-0.22,0.86-0.17,1.26c-0.03,0-0.06-0.01-0.1-0.01c-0.06-0.32-0.06-0.59-0.06-1.01C66.6,7.15,67.72,6.31,67.99,8.35z
		 M62.88,8.23c0.01-0.06,0.03-0.11,0.05-0.16c0.19-0.45,0.67-0.82,1.12-0.46c0.28,0.23,0.5,0.59,0.65,0.91
		c0.26,0.56,0.36,1.2,0.36,1.81c-0.16,0.03-0.33,0.06-0.49,0.1c-0.15-0.56-0.02-1.5-0.74-1.57c-0.39-0.01-0.56,0.24-0.42,0.77
		c0.09,0.35,0.11,0.72,0.21,1.12c-0.01,0.01-0.03,0.01-0.04,0.02c-0.05,0.15-0.44-0.46-0.67-1.35C62.82,9.07,62.78,8.61,62.88,8.23z
		 M62.3,11.54c-0.36-0.56-0.68-1.44-1.33-1.17c-0.21,0.12-0.31,0.4-0.21,0.62c0.24,0.44,0.54,0.84,0.84,1.25
		c-0.51-0.22-0.92-0.6-1.25-1.04c-0.25-0.33-0.5-0.72-0.66-1.11c-0.06-0.14-0.07-0.29-0.04-0.42c0.05-0.23,0.23-0.42,0.5-0.46
		c0.5-0.09,1.16,0.27,1.57,0.53c0.54,0.34,0.93,0.9,0.93,1.55C62.52,11.36,62.4,11.45,62.3,11.54z M67.28,12.74
		c-0.07-0.2-0.2-0.41-0.43-0.61c-0.55-0.51-1.36-0.63-2.08-0.47c-0.36,0.08-0.71,0.23-1,0.45c-0.14,0.11-0.26,0.23-0.37,0.37
		c-0.03,0.04-0.22,0.33-0.26,0.32c-0.16-0.03-0.33-0.08-0.49-0.12c0.1-0.15,0.23-0.26,0.34-0.39c0.97-1.19,2.37-1.25,3.55-0.93
		c0.47,0.18,0.9,0.48,1.25,0.88c0.07,0.08,0.14,0.19,0.21,0.29C67.76,12.6,67.52,12.68,67.28,12.74z M69.88,11
		c-0.12,0.15-0.23,0.31-0.38,0.44c-0.07,0.06-0.14,0.11-0.23,0.15c-0.04,0.02-0.24,0.04-0.25,0.06c0.26-0.37,0.79-0.79,0.3-1.23
		c-0.47-0.35-0.81,0.21-1.05,0.55c-0.05,0.06-0.1,0.13-0.14,0.2c-0.03-0.03-0.06-0.05-0.09-0.08c-0.13-0.13,0.56-0.89,0.64-0.98
		c0.1-0.12,0.2-0.24,0.31-0.36c0.27-0.29,0.59-0.52,1.04-0.43c0.34,0.07,0.45,0.41,0.42,0.72C70.4,10.46,70.12,10.69,69.88,11z
		 M77.63,12.3c-0.66,0.25-1.39,0.29-1.95-0.18c-0.06-0.13-0.04-0.29,0.02-0.43c0.34-0.44,0.91-0.93,1.5-1.2
		c-0.22,0.13-0.4,0.29-0.43,0.56c0.16,0.98,1.11,0.22,1.62-0.07c0.07,0.07,0.14,0.13,0.22,0.19C78.31,11.59,78.03,12.2,77.63,12.3z
		 M80.18,13.43c-0.31,0.41-1,0.66-1.44,0.31c-0.43-0.58,0.08-1.05,0.49-1.55c-0.04,0.2-0.02,0.39,0.1,0.52
		c0.44,0.43,0.96-0.17,1.04-0.69c0.11,0.03,0.22,0.05,0.33,0.07C80.56,12.56,80.55,13.06,80.18,13.43z M83.16,14.47
		c-0.03,0.09-0.12,0.16-0.2,0.19c-0.73,0.32-1.28-0.34-1.38-1.04c-0.15-0.48,0.08-0.94,0.1-1.4c0.07,0,0.13,0.01,0.2,0.01
		c0,0.24,0.09,0.51,0.07,0.74c-0.01,0.65,1.01,0.65,1,0c-0.01-0.25-0.01-0.6-0.11-0.87c0.03-0.01,0.05-0.01,0.07-0.02
		c0,0.01,0,0.03,0,0.04C83.26,12.88,83.46,13.63,83.16,14.47z M78.76,9.92c0.01-0.14-0.03-0.25-0.1-0.33
		c0.23-0.04,0.47-0.07,0.7-0.1c0.29,0.74,1.07,1.38,1.83,1.55c0.91,0.06,2.11-0.32,2.45-1.24c0.19,0.05,0.37,0.11,0.56,0.17
		c-0.15,0.19-0.3,0.4-0.48,0.5C82.37,11.8,79.96,11.24,78.76,9.92z M85.86,13.37c-0.61,0.08-1.21-0.3-1.63-0.74
		c-0.15-0.28-0.21-0.71-0.41-0.98c0.08-0.05,0.17-0.1,0.25-0.16c0.02,0.04,0.04,0.08,0.08,0.12c0.16,0.14,0.31,0.27,0.48,0.4
		c0.31,0.3,0.88,0.09,0.88-0.36c0-0.39-0.43-0.51-0.64-0.75c-0.03-0.03-0.05-0.03-0.08-0.05c0.01-0.02,0.03-0.03,0.05-0.05
		c0.06-0.06,0.13-0.13,0.19-0.2c0.05,0.03,0.1,0.06,0.16,0.08c0.29,0.18,0.49,0.45,0.7,0.72C86.25,11.93,86.84,13.17,85.86,13.37z"
		/>
	<path d="M35.57,8.22c0.01,0,0.02,0,0.03,0c0.01,0,0.02-0.01,0.03-0.01C35.61,8.21,35.59,8.22,35.57,8.22z"/>
</g>
</svg>
