<?xml version="1.0" encoding="utf-8"?>
<!-- Generator: Adobe Illustrator 23.0.0, SVG Export Plug-In . SVG Version: 6.00 Build 0)  -->
<svg version="1.1" id="Слой_1" xmlns="http://www.w3.org/2000/svg" xmlns:xlink="http://www.w3.org/1999/xlink" x="0px" y="0px"
	 viewBox="0 0 100 21.28" style="enable-background:new 0 0 100 21.28;" xml:space="preserve">
<g>
	<path d="M17.15,12.77c-1-0.25-2.03,0.21-2.83,0.82c-0.7,0.53-1.36,1.3-1.41,2.27c-0.03,0.71,0.65,0.65,1.13,0.67
		c1.61,0.06,3.22,0.14,4.83,0.18c0.34,0.01,0.94-0.03,0.93-0.55c-0.01-0.43-0.29-0.96-0.49-1.32
		C18.83,13.93,18.13,13.02,17.15,12.77z"/>
	<path d="M9.85,14.84c-0.11,0.49-0.51,1.14-0.1,1.57c0.18,0.16,0.48,0.13,0.63-0.07c0.21-0.49,0.26-1.08,0.47-1.59
		c1.76-4.82,8.5-7.12,10.05-0.84c0.2,0.67,0.5,1.29,0.5,2.02c-0.06,0.28,0.14,0.56,0.39,0.59c0.83,0.01,0.5-1.24,0.36-1.78
		C20.57,6.42,12.16,8,9.85,14.84z"/>
	<path d="M24.65,11.58c0.98-1.51-0.13-4.37-2.02-3.46c0.26-2.59-2.36-3.81-3.94-1.84c-0.24-1.61-2-2.18-3.27-1.6
		c-0.74,0.35-1.06,1.24-1.3,2.02c-1.32-1.39-3.69-0.01-3.59,1.9C9.51,8.21,8.31,9.02,7.78,9.97c-0.29,0.7-0.31,1.55-0.11,2.28
		c-2.52-0.07-3.22,3.77-0.66,4.46c0.26,0.14,0.65,0.25,0.95,0.16c0.24,0.06,0.45-0.06,0.55-0.29c0.02-3.46,2.52-6.64,5.49-7.8
		c5.36-1.82,8.71,1.95,8.9,7.66c0.03,1.01,1.88-0.2,2.18-0.46C26.33,14.89,26.37,12.14,24.65,11.58z M7.61,15.65
		c-0.01,0.07-0.01,0.15-0.02,0.23c0-0.01-0.67-0.28-0.73-0.32c-0.08-0.05-0.15-0.1-0.21-0.15c-0.11-0.1-0.2-0.23-0.25-0.41
		c-0.17-0.59-0.05-1.06,0.4-1.44c0.25-0.21,1.04-0.57,1.3-0.17c0.03,0.04,0.06,0.07,0.1,0.1C7.92,14.19,7.72,14.91,7.61,15.65z
		 M8.7,12.4c-0.35-0.93-0.4-2.1,0.53-2.6c0.25-0.18,0.65-0.39,0.99-0.26c0.17,0.05,0.28,0.17,0.39,0.3
		C9.86,10.57,9.21,11.44,8.7,12.4z M11.51,9.1c-0.07-0.46-0.03-0.97,0.19-1.37c0.37-0.41,1.01-0.78,1.55-0.5
		c0.26,0.09,0.4,0.35,0.53,0.61C13.03,8.13,12.27,8.55,11.51,9.1z M17.83,7.42c-0.91-0.18-1.89-0.17-2.89,0.06
		c0.07-0.45,0.19-0.87,0.4-1.32c0.33-0.85,1.37-0.83,2.03-0.46C17.85,6.08,17.88,6.79,17.83,7.42z M21.61,8.43
		c-0.11,0.3-0.32,0.52-0.52,0.75c-0.67-0.66-1.44-1.16-2.29-1.48c0.02-0.04,0.04-0.09,0.07-0.13c0.53-0.83,1.69-1.88,2.52-0.88
		C21.7,7.21,21.85,7.85,21.61,8.43z M23.06,11.69c-0.08,0.01-0.14,0.05-0.2,0.09c-0.31-0.7-0.69-1.33-1.13-1.88
		c0.59-0.41,1.27-1.23,1.98-0.81C24.43,9.96,24.09,11.31,23.06,11.69z M23.77,15.6c-0.08-1.05-0.26-2.02-0.55-2.89
		c0.18-0.06,0.34-0.18,0.55-0.2c0.69-0.19,1.31,0.37,1.3,1.15C25.11,14.56,24.58,15.37,23.77,15.6z"/>
	<path d="M32.32,16.6c-0.01,0.01-0.03,0.02-0.04,0.03c-0.01,0.01-0.02,0.02-0.03,0.03C32.27,16.64,32.29,16.62,32.32,16.6z"/>
	<path d="M43.2,11.55c-1.26-1.44-3.11-2.08-4.91-1.93c-2.02,0.17-3.63,1.27-4.99,2.83c-0.6,0.69-2.4,3.45-1.55,4.21
		c0.15,0.13,0.38,0.07,0.53-0.05c0.19-0.17,0.18-0.47,0.23-0.71c0.06-0.31,0.15-0.62,0.26-0.91c0.24-0.6,0.57-1.16,0.97-1.65
		c0.76-0.96,1.74-1.74,2.82-2.22c1.45-0.64,3.14-0.75,4.58-0.01c1.74,0.91,2.59,2.82,2.86,4.79c0.04,0.3,0.16,0.62,0.48,0.61
		c1.04-0.02,0.07-2.56-0.13-3.07C44.07,12.75,43.69,12.1,43.2,11.55z"/>
	<path d="M39.81,12.15c-0.76-0.23-1.62-0.09-2.35,0.17c-1.14,0.41-2.05,1.28-2.68,2.37c-0.24,0.42-0.71,1.11-0.59,1.63
		c0.02,0.47,0.44,0.51,0.79,0.48c1.89-0.16,3.81-0.09,5.68,0c0.48,0.02,1.28,0.3,1.64-0.17c0.2-0.27,0.21-0.65,0.15-0.97
		C42.18,14.24,41.16,12.55,39.81,12.15z"/>
	<path d="M48.46,11.94c-0.1-0.11-0.21-0.2-0.33-0.28c-0.04-0.03-0.37-0.25-0.4-0.22c2.34-2.03-0.4-4.87-2.6-4.1
		c0.27-2.62-2.73-3.98-4.05-1.56c-0.88-2.2-4.01-1.68-4.21,0.71c-0.52-0.65-0.99-1.69-1.9-1.69c-1.3,0.16-2.44,1.67-2.44,3.07
		c-2.02-0.89-3.65,1.55-2.82,3.55c-3.08,0.06-2.58,4.44-0.25,5.39c0.26,0.11,0.58,0.11,0.81-0.06c0.17-0.07,0.3-0.26,0.3-0.46
		c0.33-4.66,4.68-7.92,8.8-8.02c3.07-0.14,5.89,2.49,6.42,5.75c0.13,0.71,0.22,1.57,0.1,2.32c-0.05,0.31,0.18,0.53,0.45,0.51
		c0.38-0.02,0.79,0.02,1.16-0.09c0.32-0.09,0.61-0.26,0.85-0.49c0.44-0.43,0.7-1.05,0.81-1.68c0.1-0.64,0.05-1.33-0.21-1.92
		C48.83,12.4,48.66,12.15,48.46,11.94z M29.66,15.78c-0.62-0.33-0.99-0.98-1.13-1.75c-0.2-0.82,0.09-1.29,0.84-1.59
		c0.3-0.1,0.64,0.02,0.93,0.15c0.08,0.1,0.17,0.21,0.27,0.29C30.27,13.54,29.74,14.85,29.66,15.78z M31.1,11.94
		c-0.06-0.06-0.12-0.11-0.19-0.14c-0.39-0.64-0.57-1.45-0.41-2.21c0.26-0.71,1.22-1.23,1.86-0.68c0.25,0.25,0.38,0.6,0.58,0.89
		C32.23,10.42,31.61,11.14,31.1,11.94z M33.71,9.19c-0.48-1.46-0.22-2.6,1.14-3.39c0.71,0.1,1.24,1.16,1.69,1.97
		C35.54,8.1,34.58,8.57,33.71,9.19z M37.73,7.47c0.01-0.41,0.03-0.82,0.12-1.22c0.27-0.69,0.98-1.07,1.65-0.82
		c0.69,0.3,1.01,1.18,0.92,1.97C39.54,7.27,38.63,7.3,37.73,7.47z M43.68,8.44c-0.06,0.05-0.09,0.11-0.13,0.17
		c-0.68-0.48-1.42-0.83-2.2-1.03c0.07-0.31,0.17-0.59,0.31-0.9c0.26-0.6,0.81-1.24,1.48-1.2C44.35,5.89,44.57,7.53,43.68,8.44z
		 M45.99,11.58c-0.15-0.35-0.28-0.63-0.4-0.78c-0.38-0.62-0.82-1.13-1.29-1.58c0.02-0.02,0.04-0.03,0.06-0.06
		c0.38-0.44,0.78-0.8,1.34-0.98c0.78-0.03,1.81,0.53,2.02,1.4c-0.04,0.81-0.86,1.35-1.41,1.85C46.21,11.47,46.1,11.52,45.99,11.58z
		 M47.94,15.34c-0.26,0.32-0.6,0.46-1,0.48c-0.01,0-0.01,0-0.02,0c0.05-0.9-0.23-2.2-0.57-3.27c0.22-0.1,0.44-0.25,0.66-0.24
		C48.3,12.3,48.63,14.37,47.94,15.34z"/>
	<path d="M62.54,12.77c-1-0.25-2.03,0.21-2.83,0.82c-0.7,0.53-1.36,1.3-1.41,2.27c-0.03,0.71,0.65,0.65,1.13,0.67
		c1.61,0.06,3.22,0.14,4.83,0.18c0.34,0.01,0.94-0.03,0.93-0.55c-0.01-0.43-0.29-0.96-0.49-1.32
		C64.21,13.93,63.52,13.02,62.54,12.77z"/>
	<path d="M55.24,14.84c-0.11,0.49-0.51,1.14-0.1,1.57c0.18,0.16,0.48,0.13,0.63-0.07c0.21-0.49,0.26-1.08,0.47-1.59
		c1.76-4.82,8.5-7.12,10.05-0.84c0.2,0.67,0.5,1.29,0.5,2.02c-0.06,0.28,0.14,0.56,0.39,0.59c0.83,0.01,0.5-1.24,0.36-1.78
		C65.96,6.42,57.55,8,55.24,14.84z"/>
	<path d="M70.04,11.58c0.98-1.51-0.13-4.37-2.02-3.46c0.26-2.59-2.36-3.81-3.94-1.84c-0.24-1.61-2-2.18-3.27-1.6
		c-0.74,0.35-1.06,1.24-1.3,2.02c-1.32-1.39-3.69-0.01-3.59,1.9c-1.04-0.39-2.23,0.42-2.76,1.37c-0.29,0.7-0.31,1.55-0.11,2.28
		c-2.52-0.07-3.22,3.77-0.66,4.46c0.26,0.14,0.65,0.25,0.95,0.16c0.24,0.06,0.45-0.06,0.55-0.29c0.02-3.46,2.52-6.64,5.49-7.8
		c5.36-1.82,8.71,1.95,8.9,7.66c0.03,1.01,1.88-0.2,2.18-0.46C71.71,14.89,71.76,12.14,70.04,11.58z M53,15.65
		c-0.01,0.07-0.01,0.15-0.02,0.23c0-0.01-0.67-0.28-0.73-0.32c-0.08-0.05-0.15-0.1-0.21-0.15c-0.11-0.1-0.2-0.23-0.25-0.41
		c-0.17-0.59-0.05-1.06,0.4-1.44c0.25-0.21,1.04-0.57,1.3-0.17c0.03,0.04,0.06,0.07,0.1,0.1C53.31,14.19,53.1,14.91,53,15.65z
		 M54.09,12.4c-0.35-0.93-0.4-2.1,0.53-2.6c0.25-0.18,0.65-0.39,0.99-0.26c0.17,0.05,0.28,0.17,0.39,0.3
		C55.25,10.57,54.6,11.44,54.09,12.4z M56.89,9.1c-0.07-0.46-0.03-0.97,0.19-1.37c0.37-0.41,1.01-0.78,1.55-0.5
		c0.26,0.09,0.4,0.35,0.53,0.61C58.41,8.13,57.65,8.55,56.89,9.1z M63.21,7.42c-0.91-0.18-1.89-0.17-2.89,0.06
		c0.07-0.45,0.19-0.87,0.4-1.32c0.33-0.85,1.37-0.83,2.03-0.46C63.24,6.08,63.27,6.79,63.21,7.42z M67,8.43
		c-0.11,0.3-0.32,0.52-0.52,0.75c-0.68-0.66-1.44-1.16-2.29-1.48c0.02-0.04,0.04-0.09,0.07-0.13c0.53-0.83,1.69-1.88,2.52-0.88
		C67.09,7.21,67.24,7.85,67,8.43z M68.45,11.69c-0.08,0.01-0.14,0.05-0.2,0.09c-0.31-0.7-0.69-1.33-1.13-1.88
		c0.59-0.41,1.27-1.23,1.98-0.81C69.82,9.96,69.48,11.31,68.45,11.69z M69.16,15.6c-0.08-1.05-0.26-2.02-0.55-2.89
		c0.18-0.06,0.34-0.18,0.55-0.2c0.69-0.19,1.31,0.37,1.3,1.15C70.5,14.56,69.97,15.37,69.16,15.6z"/>
	<path d="M77.7,16.6c-0.01,0.01-0.03,0.02-0.04,0.03c-0.01,0.01-0.02,0.02-0.03,0.03C77.66,16.64,77.68,16.62,77.7,16.6z"/>
	<path d="M88.59,11.55c-1.26-1.44-3.11-2.08-4.91-1.93c-2.02,0.17-3.63,1.27-4.99,2.83c-0.6,0.69-2.4,3.45-1.55,4.21
		c0.15,0.13,0.38,0.07,0.53-0.05c0.19-0.17,0.18-0.47,0.23-0.71c0.06-0.31,0.15-0.62,0.26-0.91c0.24-0.6,0.57-1.16,0.97-1.65
		c0.76-0.96,1.74-1.74,2.82-2.22c1.45-0.64,3.14-0.75,4.58-0.01c1.74,0.91,2.59,2.82,2.86,4.79c0.04,0.3,0.16,0.62,0.48,0.61
		c1.04-0.02,0.07-2.56-0.13-3.07C89.46,12.75,89.08,12.1,88.59,11.55z"/>
	<path d="M85.2,12.15c-0.76-0.23-1.62-0.09-2.35,0.17c-1.14,0.41-2.05,1.28-2.68,2.37c-0.24,0.42-0.71,1.11-0.59,1.63
		c0.02,0.47,0.44,0.51,0.79,0.48c1.89-0.16,3.81-0.09,5.68,0c0.48,0.02,1.28,0.3,1.64-0.17c0.2-0.27,0.21-0.65,0.15-0.97
		C87.57,14.24,86.55,12.55,85.2,12.15z"/>
	<path d="M94.33,12.67c-0.12-0.27-0.28-0.52-0.48-0.73c-0.1-0.11-0.21-0.2-0.33-0.28c-0.04-0.03-0.37-0.25-0.4-0.22
		c2.34-2.03-0.4-4.87-2.6-4.1c0.27-2.62-2.73-3.98-4.05-1.56c-0.88-2.2-4.01-1.68-4.21,0.71c-0.52-0.65-0.99-1.69-1.9-1.69
		c-1.3,0.16-2.44,1.67-2.44,3.07c-2.02-0.89-3.65,1.55-2.82,3.55c-3.08,0.06-2.58,4.44-0.25,5.39c0.26,0.11,0.58,0.11,0.81-0.06
		c0.17-0.07,0.3-0.26,0.3-0.46c0.33-4.66,4.68-7.92,8.8-8.02c3.07-0.14,5.89,2.49,6.42,5.75c0.13,0.71,0.22,1.57,0.1,2.32
		c-0.05,0.31,0.18,0.53,0.45,0.51c0.38-0.02,0.79,0.02,1.16-0.09c0.32-0.09,0.61-0.26,0.85-0.49c0.44-0.43,0.7-1.05,0.81-1.68
		C94.65,13.95,94.59,13.26,94.33,12.67z M75.05,15.78c-0.62-0.33-0.99-0.98-1.13-1.75c-0.2-0.82,0.09-1.29,0.84-1.59
		c0.3-0.1,0.64,0.02,0.93,0.15c0.08,0.1,0.17,0.21,0.27,0.29C75.66,13.54,75.12,14.85,75.05,15.78z M76.49,11.94
		c-0.06-0.06-0.12-0.11-0.19-0.14c-0.39-0.64-0.57-1.45-0.41-2.21c0.26-0.71,1.22-1.23,1.86-0.68c0.25,0.25,0.38,0.6,0.58,0.89
		C77.62,10.42,77,11.14,76.49,11.94z M79.1,9.19c-0.48-1.46-0.22-2.6,1.14-3.39c0.71,0.1,1.24,1.16,1.69,1.97
		C80.93,8.1,79.97,8.57,79.1,9.19z M83.12,7.47c0.01-0.41,0.03-0.82,0.12-1.22c0.27-0.69,0.98-1.07,1.65-0.82
		c0.69,0.3,1.01,1.18,0.92,1.97C84.93,7.27,84.02,7.3,83.12,7.47z M89.06,8.44c-0.06,0.05-0.09,0.11-0.13,0.17
		c-0.68-0.48-1.42-0.83-2.2-1.03c0.07-0.31,0.17-0.59,0.31-0.9c0.26-0.6,0.81-1.24,1.48-1.2C89.74,5.89,89.96,7.53,89.06,8.44z
		 M91.38,11.58c-0.15-0.35-0.28-0.63-0.4-0.78c-0.38-0.62-0.82-1.13-1.29-1.58c0.02-0.02,0.04-0.03,0.06-0.06
		c0.38-0.44,0.78-0.8,1.34-0.98c0.78-0.03,1.81,0.53,2.02,1.4c-0.04,0.81-0.86,1.35-1.41,1.85C91.6,11.47,91.48,11.52,91.38,11.58z
		 M93.33,15.34c-0.26,0.32-0.6,0.46-1,0.48c-0.01,0-0.01,0-0.02,0c0.05-0.9-0.23-2.2-0.57-3.27c0.22-0.1,0.44-0.25,0.66-0.24
		C93.69,12.3,94.02,14.37,93.33,15.34z"/>
</g>
</svg>
