<?xml version="1.0" encoding="utf-8"?>
<!-- Generator: Adobe Illustrator 23.0.0, SVG Export Plug-In . SVG Version: 6.00 Build 0)  -->
<svg version="1.1" id="Слой_1" xmlns="http://www.w3.org/2000/svg" xmlns:xlink="http://www.w3.org/1999/xlink" x="0px" y="0px"
	 viewBox="0 0 100 21.28" style="enable-background:new 0 0 100 21.28;" xml:space="preserve">
<g>
	<path d="M11.92,14.84c-1.42,0.45-2.66,1.38-3.19,2.73c-0.21,0.54-0.67,1.35-0.15,1.84c0.45,0.33,1.16-0.16,0.85-0.65
		c0.36-1.97,2.39-3.24,4.43-3.32c1.55,0.45,2.23,2.18,2.27,3.63c0.09,0.64,1.15,0.51,1.05-0.14C17.17,16.32,14.77,13.44,11.92,14.84
		z"/>
	<path d="M15.91,13.36c-1.04-0.64-2.07-0.97-3.04-1.07c0-0.62,0-1.24,0-1.87c0.01-1.33,0.01-2.66,0.01-3.99
		c0-0.04-0.02-0.08-0.03-0.12c0.07-0.02,0.15-0.01,0.22-0.04c0.42-0.14,0.78-0.39,1.04-0.72c0.52-0.65,0.69-1.55,0.43-2.33
		c-0.23-0.65-0.73-1.19-1.43-1.39c-0.24-0.07-0.5-0.09-0.76-0.06c-0.02,0-0.03,0.01-0.05,0.01c-0.26,0.03-0.52,0.13-0.74,0.25
		c-0.79,0.45-1.23,1.33-1.2,2.18c0.02,0.85,0.51,1.72,1.38,2.04c0.04,0.01,0.08,0.02,0.12,0.03c-0.02,0.05-0.03,0.1-0.03,0.16
		c0,0.63,0,1.27,0,1.9c0,1.31-0.01,2.62-0.01,3.93C8.57,12.52,6.09,15.46,5.77,19c-0.01,0.65,1.07,0.64,1.06,0
		c0.26-1.33,0.37-2.1,1.12-3.29c1.13-1.66,3.35-2.66,5.44-2.32c2.26,0.59,4.47,2.48,4.88,4.8c0.05,0.24,0.15,0.45,0.15,0.7
		c-0.11,0.64,0.96,0.78,1.05,0.14C19.4,16.84,17.98,14.4,15.91,13.36z M11.38,4.58C11.22,4,11.42,3.3,11.9,2.92
		c0.52-0.41,1.25-0.27,1.6,0.3c0.25,0.4,0.26,0.92,0.09,1.35c-0.1,0.26-0.27,0.51-0.5,0.68c-0.2,0.15-0.45,0.23-0.7,0.22
		c-0.04,0-0.07-0.01-0.11-0.01C11.85,5.39,11.51,5,11.38,4.58z"/>
	<path d="M31.09,13.24c-1.07-0.94-2.3-1.33-3.52-1.32c-0.01-0.38-0.02-0.76-0.02-1.13c-0.01-0.55-0.02-1.1-0.03-1.65
		C27.49,8,27.48,6.86,27.45,5.72c2.03-0.51,2.46-3.3-0.24-3.92c-2.71-0.47-3.71,3.72-0.82,3.97c0.02,0.62,0.02,1.24,0.04,1.87
		c0.02,0.82,0.03,1.64,0.05,2.46c0.01,0.64,0.03,1.28,0.04,1.92c-2.02,0.4-3.88,1.84-4.79,3.75c-0.41,0.98-1.15,2.41-0.92,3.47
		c0.29,0.49,1.13,0.18,0.99-0.36c1.8-7.86,10.01-7.69,11.32,0.13c0-0.03,0-0.03,0-0.03c0.01,0.27,0.23,0.5,0.53,0.5
		c0.67-0.03,0.54-0.74,0.41-1.17C33.62,16.42,32.7,14.52,31.09,13.24z M26.68,2.77l0.01,0c1.59,0.07,1.91,1.66,0.24,2.05
		c-0.34-0.09-0.75,0.04-1.02-0.24C25.36,3.87,25.84,2.99,26.68,2.77z"/>
	<path d="M30.46,16.8c-0.5-1.17-1.72-2.31-3.15-2.14c-1.9-0.07-3.44,1.86-4.09,3.43c-0.08,0.31-0.15,0.59-0.21,0.91
		c-0.02,0.54,0.83,0.68,1.02,0.18c0.11-0.9,0.64-2.08,1.32-2.74c0.57-0.66,1.55-0.84,2.45-0.79c1.59,0.38,1.97,2.23,2.43,3.53
		c0.1,0.26,0.44,0.37,0.7,0.27c0.26-0.11,0.37-0.38,0.29-0.62C31.05,18.14,30.73,17.46,30.46,16.8z"/>
	<path d="M41.95,14.84c-1.42,0.45-2.66,1.38-3.19,2.73c-0.21,0.54-0.67,1.35-0.15,1.84c0.45,0.33,1.16-0.16,0.85-0.65
		c0.36-1.97,2.39-3.24,4.43-3.32c1.55,0.45,2.23,2.18,2.27,3.63c0.09,0.64,1.15,0.51,1.05-0.14C47.2,16.32,44.8,13.44,41.95,14.84z"
		/>
	<path d="M45.94,13.36c-1.04-0.64-2.07-0.97-3.04-1.07c0-0.62,0-1.24,0-1.87c0.01-1.33,0.01-2.66,0.01-3.99
		c0-0.04-0.02-0.08-0.03-0.12c0.07-0.01,0.14-0.01,0.21-0.03c0.41-0.13,0.77-0.36,1.03-0.67c0.52-0.6,0.63-1.24,0.37-1.95
		c-0.22-0.6-0.72-1.1-1.42-1.28c-0.24-0.06-0.5-0.08-0.75-0.05c-0.02,0-0.03,0-0.05,0.01c-0.26,0.03-0.51,0.12-0.73,0.23
		c-0.78,0.41-1.17,1.03-1.14,1.81c0.02,0.78,0.51,1.59,1.37,1.88c0.04,0.01,0.07,0.02,0.11,0.03c-0.02,0.05-0.03,0.1-0.03,0.16
		c0,0.63,0,1.27,0,1.9c0,1.31-0.01,2.62-0.01,3.93c-3.24,0.25-5.73,3.19-6.04,6.73c-0.01,0.65,1.07,0.64,1.06,0
		c0.26-1.33,0.37-2.1,1.12-3.29c1.13-1.66,3.35-2.66,5.44-2.32c2.26,0.59,4.47,2.48,4.88,4.8c0.05,0.24,0.15,0.45,0.15,0.7
		c-0.11,0.64,0.96,0.78,1.05,0.14C49.43,16.84,48.01,14.4,45.94,13.36z M41.42,4.71c-0.38-1.22,1.41-2.18,2.11-0.94
		c0.2,0.35,0.22,0.6,0.06,0.97c-0.2,0.44-0.67,0.81-1.17,0.79c-0.03,0-0.07,0-0.1-0.01C41.88,5.46,41.54,5.1,41.42,4.71z"/>
	<path d="M61.12,13.24c-1.07-0.94-2.3-1.33-3.52-1.32c-0.01-0.38-0.02-0.76-0.02-1.13c-0.01-0.55-0.02-1.1-0.03-1.65
		C57.52,8,57.51,6.86,57.48,5.72c2.03-0.51,2.46-3.3-0.24-3.92c-2.71-0.47-3.71,3.72-0.82,3.97c0.02,0.62,0.02,1.24,0.04,1.87
		c0.02,0.82,0.03,1.64,0.05,2.46c0.01,0.64,0.03,1.28,0.04,1.92c-2.02,0.4-3.88,1.84-4.79,3.75c-0.41,0.98-1.15,2.41-0.92,3.47
		c0.29,0.49,1.13,0.18,0.99-0.36c1.8-7.86,10.01-7.69,11.32,0.13c0-0.03,0-0.03,0-0.03c0.01,0.27,0.23,0.5,0.53,0.5
		c0.67-0.03,0.54-0.74,0.41-1.17C63.65,16.42,62.73,14.52,61.12,13.24z M56.71,2.77l0.01,0c1.59,0.07,1.91,1.66,0.24,2.05
		c-0.34-0.09-0.75,0.04-1.02-0.24C55.39,3.87,55.87,2.99,56.71,2.77z"/>
	<path d="M60.49,16.8c-0.5-1.17-1.72-2.31-3.15-2.14c-1.9-0.07-3.44,1.86-4.09,3.43c-0.08,0.31-0.15,0.59-0.21,0.91
		c-0.02,0.54,0.83,0.68,1.02,0.18c0.11-0.9,0.64-2.08,1.32-2.74c0.57-0.66,1.55-0.84,2.45-0.79c1.59,0.38,1.97,2.23,2.43,3.53
		c0.1,0.26,0.44,0.37,0.7,0.27c0.26-0.11,0.37-0.38,0.29-0.62C61.08,18.14,60.76,17.46,60.49,16.8z"/>
	<path d="M71.41,14.64c-1.42,0.45-2.09,1.58-2.62,2.93c-0.21,0.54-0.67,1.35-0.15,1.84c0.45,0.33,1.16-0.16,0.85-0.65
		c0.36-1.97,1.22-3.38,3.83-3.32c1.61,0.04,2.83,2.19,2.87,3.63c0.09,0.64,1.15,0.51,1.05-0.14C77.23,16.32,74.26,13.24,71.41,14.64
		z"/>
	<path d="M76.23,13.16c-0.94-0.55-1.93-0.8-2.92-0.84c0-0.63,0-1.27,0-1.9c0.01-1.29,0.01-2.58,0.01-3.86
		c0.08-0.02,0.17-0.03,0.25-0.06c0.46-0.15,0.85-0.43,1.15-0.8c0.58-0.71,0.72-1.28,0.43-2.13c-0.25-0.71-0.8-1.31-1.58-1.53
		c-0.27-0.07-0.56-0.09-0.83-0.06c-0.02,0-0.04,0.01-0.05,0.01c-0.29,0.04-0.57,0.14-0.82,0.28c-0.87,0.49-1.32,1.03-1.29,1.97
		c0.02,0.93,0.56,1.9,1.52,2.24c0.05,0.02,0.11,0.03,0.16,0.04c0,0.61,0,1.22,0,1.82c0,1.34-0.01,2.68-0.01,4.03
		c-3.21,0.41-6.1,3.15-6.41,6.64c-0.01,0.65,1.07,0.64,1.06,0c0.26-1.33,0.37-2.1,1.12-3.29c1.13-1.66,3.32-2.41,5.44-2.32
		c2.57,0.12,4.47,2.48,4.88,4.8c0.05,0.24,0.15,0.45,0.15,0.7c-0.11,0.64,0.96,0.78,1.05,0.14C79.46,16.84,78.23,14.33,76.23,13.16z
		 M71.78,4.83c-0.26-0.59-0.19-1.03,0.29-1.49c0.55-0.52,1.43-0.48,1.88,0.15c0.39,0.54,0.36,0.92,0,1.46
		c-0.24,0.37-0.69,0.66-1.14,0.65c-0.09,0-0.19-0.02-0.28-0.05C72.19,5.46,71.92,5.16,71.78,4.83z"/>
	<path d="M94.12,18.32c-0.44-1.9-1.37-3.79-2.97-5.08c-1.07-0.94-2.3-1.33-3.52-1.32c-0.01-0.38-0.02-0.76-0.02-1.13
		c-0.01-0.55-0.02-1.1-0.03-1.65C87.55,8,87.54,6.86,87.51,5.72c2.03-0.51,2.46-3.3-0.24-3.92c-2.71-0.47-3.71,3.72-0.82,3.97
		c0.02,0.62,0.02,1.24,0.04,1.87c0.02,0.82,0.03,1.64,0.05,2.46c0.01,0.64,0.03,1.28,0.04,1.92c-2.02,0.4-3.88,1.84-4.79,3.75
		c-0.41,0.98-1.15,2.41-0.92,3.47c0.29,0.49,1.13,0.18,0.99-0.36c1.8-7.86,10.01-7.69,11.32,0.13c0-0.03,0-0.03,0-0.03
		c0.01,0.27,0.23,0.5,0.53,0.5C94.38,19.46,94.25,18.75,94.12,18.32z M86.74,2.77l0.01,0c1.59,0.07,1.91,1.66,0.24,2.05
		c-0.34-0.09-0.75,0.04-1.02-0.24C85.42,3.87,85.9,2.99,86.74,2.77z"/>
	<path d="M90.52,16.8c-0.5-1.17-1.72-2.31-3.15-2.14c-1.9-0.07-3.44,1.86-4.09,3.43c-0.08,0.31-0.15,0.59-0.21,0.91
		c-0.02,0.54,0.83,0.68,1.02,0.18c0.11-0.9,0.64-2.08,1.32-2.74c0.57-0.66,1.55-0.84,2.45-0.79c1.59,0.38,1.97,2.23,2.43,3.53
		c0.1,0.26,0.44,0.37,0.7,0.27c0.26-0.11,0.37-0.38,0.29-0.62C91.11,18.14,90.79,17.46,90.52,16.8z"/>
</g>
</svg>
