<?xml version="1.0" encoding="utf-8"?>
<!-- Generator: Adobe Illustrator 23.0.0, SVG Export Plug-In . SVG Version: 6.00 Build 0)  -->
<svg version="1.1" id="Слой_1" xmlns="http://www.w3.org/2000/svg" xmlns:xlink="http://www.w3.org/1999/xlink" x="0px" y="0px"
	 viewBox="0 0 100 21.28" style="enable-background:new 0 0 100 21.28;" xml:space="preserve">
<g>
	<path d="M14.13,11.11c0.21-0.74,0.39-1.5,0.52-2.27c0.36-2.02,0.33-5.24-2.02-5.98c-0.78-0.14-1.68-0.08-2.18,0.61
		c-1.31,2.2-1.91,4.76-1.9,7.33c-0.05-0.1-0.09-0.2-0.15-0.3C7.97,9.85,7.46,8.98,6.6,8.93c-1.54,0.02-2.09,1.86-2.12,3.14
		c0.35,2.99,3.4,4.27,5.65,5.79c0.13,0.25,0.31,0.48,0.56,0.49c0.2,0.19,0.41,0.17,0.57,0.05c0.16-0.05,0.3-0.16,0.39-0.31
		c0.26-0.23,0.48-0.36,0.8-0.54c2.81-0.88,7.52-5.58,5.29-8.56C16.74,8.42,15.34,9.6,14.13,11.11z M5.55,11.43
		c0.15-0.54,0.33-1.47,1.05-1.5c1.82,1.52,1.83,4.23,2.79,6.27C7.76,15.14,5.17,13.75,5.55,11.43z M11.12,16.35
		c-0.08,0.2-0.16,0.4-0.23,0.6c-0.05-0.08-0.1-0.15-0.15-0.23c-1.62-3.85-1.61-8.36,0.19-12.15c0.28-0.99,1.73-1.04,2.23-0.19
		C14.99,8.3,12.51,12.55,11.12,16.35z M12.13,16.59c0.08-0.19,0.15-0.39,0.23-0.58c1.04-2.37,2.43-4.63,4.6-6.15
		c0.19-0.17,0.27-0.04,0.33,0.19C17.45,13.07,14.75,15.53,12.13,16.59z"/>
	<path d="M29.57,11.11c0.21-0.74,0.39-1.5,0.52-2.27c0.36-2.02,0.33-5.24-2.02-5.98c-0.78-0.14-1.68-0.08-2.18,0.61
		c-1.31,2.2-1.91,4.76-1.9,7.33c-0.05-0.1-0.09-0.2-0.15-0.3c-0.43-0.64-0.93-1.52-1.79-1.57c-1.54,0.02-2.09,1.86-2.12,3.14
		c0.35,2.99,3.4,4.27,5.65,5.79c0.13,0.25,0.31,0.48,0.56,0.49c0.2,0.19,0.41,0.17,0.57,0.05c0.16-0.05,0.3-0.16,0.39-0.31
		c0.26-0.23,0.48-0.36,0.8-0.54c2.81-0.88,7.52-5.58,5.29-8.56C32.17,8.42,30.78,9.6,29.57,11.11z M20.99,11.43
		c0.15-0.54,0.33-1.47,1.05-1.5c1.82,1.52,1.83,4.23,2.79,6.27C23.2,15.14,20.61,13.75,20.99,11.43z M26.56,16.35
		c-0.08,0.2-0.16,0.4-0.23,0.6c-0.05-0.08-0.1-0.15-0.15-0.23c-1.62-3.85-1.61-8.36,0.19-12.15c0.28-0.99,1.73-1.04,2.23-0.19
		C30.43,8.3,27.95,12.55,26.56,16.35z M27.57,16.59c0.08-0.19,0.15-0.39,0.23-0.58c1.04-2.37,2.43-4.63,4.6-6.15
		c0.19-0.17,0.27-0.04,0.33,0.19C32.88,13.07,30.19,15.53,27.57,16.59z"/>
	<path d="M45.01,11.11c0.21-0.74,0.39-1.5,0.52-2.27c0.36-2.02,0.33-5.24-2.02-5.98c-0.78-0.14-1.68-0.08-2.18,0.61
		c-1.31,2.2-1.91,4.76-1.9,7.33c-0.05-0.1-0.09-0.2-0.15-0.3c-0.43-0.64-0.93-1.52-1.79-1.57c-1.54,0.02-2.09,1.86-2.12,3.14
		c0.35,2.99,3.4,4.27,5.65,5.79c0.13,0.25,0.31,0.48,0.56,0.49c0.2,0.19,0.41,0.17,0.57,0.05c0.16-0.05,0.3-0.16,0.39-0.31
		c0.26-0.23,0.48-0.36,0.8-0.54c2.81-0.88,7.52-5.58,5.29-8.56C47.61,8.42,46.22,9.6,45.01,11.11z M36.43,11.43
		c0.15-0.54,0.33-1.47,1.05-1.5c1.82,1.52,1.83,4.23,2.79,6.27C38.64,15.14,36.05,13.75,36.43,11.43z M42,16.35
		c-0.08,0.2-0.16,0.4-0.23,0.6c-0.05-0.08-0.1-0.15-0.15-0.23C40,12.88,40.01,8.36,41.81,4.57c0.28-0.99,1.73-1.04,2.23-0.19
		C45.87,8.3,43.38,12.55,42,16.35z M43.01,16.59c0.08-0.19,0.15-0.39,0.23-0.58c1.04-2.37,2.43-4.63,4.6-6.15
		c0.19-0.17,0.27-0.04,0.33,0.19C48.32,13.07,45.62,15.53,43.01,16.59z"/>
	<path d="M60.45,11.11c0.21-0.74,0.39-1.5,0.52-2.27c0.36-2.02,0.33-5.24-2.02-5.98c-0.78-0.14-1.68-0.08-2.18,0.61
		c-1.31,2.2-1.91,4.76-1.9,7.33c-0.05-0.1-0.09-0.2-0.15-0.3c-0.43-0.64-0.93-1.52-1.79-1.57c-1.54,0.02-2.09,1.86-2.12,3.14
		c0.35,2.99,3.4,4.27,5.65,5.79c0.13,0.25,0.31,0.48,0.56,0.49c0.2,0.19,0.41,0.17,0.57,0.05c0.16-0.05,0.3-0.16,0.39-0.31
		c0.26-0.23,0.48-0.36,0.8-0.54c2.81-0.88,7.52-5.58,5.29-8.56C63.05,8.42,61.66,9.6,60.45,11.11z M51.87,11.43
		c0.15-0.54,0.33-1.47,1.05-1.5c1.82,1.52,1.83,4.23,2.79,6.27C54.07,15.14,51.48,13.75,51.87,11.43z M57.44,16.35
		c-0.08,0.2-0.16,0.4-0.23,0.6c-0.05-0.08-0.1-0.15-0.15-0.23c-1.62-3.85-1.61-8.36,0.19-12.15c0.28-0.99,1.73-1.04,2.23-0.19
		C61.3,8.3,58.82,12.55,57.44,16.35z M58.44,16.59c0.08-0.19,0.15-0.39,0.23-0.58c1.04-2.37,2.43-4.63,4.6-6.15
		c0.19-0.17,0.27-0.04,0.33,0.19C63.76,13.07,61.06,15.53,58.44,16.59z"/>
	<path d="M75.88,11.11c0.21-0.74,0.39-1.5,0.52-2.27c0.36-2.02,0.33-5.24-2.02-5.98C73.6,2.71,72.7,2.78,72.2,3.47
		c-1.31,2.2-1.91,4.76-1.9,7.33c-0.05-0.1-0.09-0.2-0.15-0.3c-0.43-0.64-0.93-1.52-1.79-1.57c-1.54,0.02-2.09,1.86-2.12,3.14
		c0.35,2.99,3.4,4.27,5.65,5.79c0.13,0.25,0.31,0.48,0.56,0.49c0.2,0.19,0.41,0.17,0.57,0.05c0.16-0.05,0.3-0.16,0.39-0.31
		c0.26-0.23,0.48-0.36,0.8-0.54c2.81-0.88,7.52-5.58,5.29-8.56C78.49,8.42,77.09,9.6,75.88,11.11z M67.3,11.43
		c0.15-0.54,0.33-1.47,1.05-1.5c1.82,1.52,1.83,4.23,2.79,6.27C69.51,15.14,66.92,13.75,67.3,11.43z M72.87,16.35
		c-0.08,0.2-0.16,0.4-0.23,0.6c-0.05-0.08-0.1-0.15-0.15-0.23c-1.62-3.85-1.61-8.36,0.19-12.15c0.28-0.99,1.73-1.04,2.23-0.19
		C76.74,8.3,74.26,12.55,72.87,16.35z M73.88,16.59c0.08-0.19,0.15-0.39,0.23-0.58c1.04-2.37,2.43-4.63,4.6-6.15
		c0.19-0.17,0.27-0.04,0.33,0.19C79.19,13.07,76.5,15.53,73.88,16.59z"/>
	<path d="M94.94,8.98c-1.01-0.56-2.4,0.61-3.61,2.13c0.21-0.74,0.39-1.5,0.52-2.27c0.36-2.02,0.33-5.24-2.02-5.98
		c-0.78-0.14-1.68-0.08-2.18,0.61c-1.31,2.2-1.91,4.76-1.9,7.33c-0.05-0.1-0.09-0.2-0.15-0.3c-0.43-0.64-0.93-1.52-1.79-1.57
		c-1.54,0.02-2.09,1.86-2.12,3.14c0.35,2.99,3.4,4.27,5.65,5.79c0.13,0.25,0.31,0.48,0.56,0.49c0.2,0.19,0.41,0.17,0.57,0.05
		c0.16-0.05,0.3-0.16,0.39-0.31c0.26-0.23,0.48-0.36,0.8-0.54C92.46,16.66,97.16,11.96,94.94,8.98z M82.74,11.43
		c0.15-0.54,0.33-1.47,1.05-1.5c1.82,1.52,1.83,4.23,2.79,6.27C84.95,15.14,82.36,13.75,82.74,11.43z M88.31,16.35
		c-0.08,0.2-0.16,0.4-0.23,0.6c-0.05-0.08-0.1-0.15-0.15-0.23c-1.62-3.85-1.61-8.36,0.19-12.15c0.28-0.99,1.73-1.04,2.23-0.19
		C92.18,8.3,89.7,12.55,88.31,16.35z M89.32,16.59c0.08-0.19,0.15-0.39,0.23-0.58c1.04-2.37,2.43-4.63,4.6-6.15
		c0.19-0.17,0.27-0.04,0.33,0.19C94.63,13.07,91.94,15.53,89.32,16.59z"/>
</g>
</svg>
