<?xml version="1.0" encoding="utf-8"?>
<!-- Generator: Adobe Illustrator 23.0.0, SVG Export Plug-In . SVG Version: 6.00 Build 0)  -->
<svg version="1.1" id="Слой_1" xmlns="http://www.w3.org/2000/svg" xmlns:xlink="http://www.w3.org/1999/xlink" x="0px" y="0px"
	 viewBox="0 0 100 21.28" style="enable-background:new 0 0 100 21.28;" xml:space="preserve">
<g>
	<path d="M8.68,9.62c0.06,0,0.12,0.01,0.17,0.01c0,0.11,0.01,0.22,0.02,0.32c0.06,1.42-0.17,2.86-0.16,4.3H5.98
		c-0.28,0-0.5,0.22-0.5,0.5s0.22,0.5,0.5,0.5h88.04c0.28,0,0.5-0.22,0.5-0.5s-0.22-0.5-0.5-0.5h-2.97c0-1.55,0.22-3.13,0.14-4.69
		c0.03-0.02,0.07-0.02,0.1-0.05c4.51-0.58,4.19-7.35-0.5-7.05c-3.89,0.6-5.95,6.85-0.74,7.15c0.06,0,0.12,0.01,0.17,0.01
		c0,0.11,0.01,0.22,0.02,0.32c0.06,1.42-0.17,2.86-0.16,4.3h-9.05c0-0.08,0-0.17,0.01-0.25c0.04-1.49,0.08-2.98,0.13-4.47
		c0,0,0-0.01,0-0.01c1.21-0.38,2.35-1.33,2.67-2.62c0.32-1.83-0.99-3.88-2.85-3.9c-1.89-0.05-4.12,1.63-3.75,3.78
		c0.14,2.05,1.26,2.47,2.99,2.56c0,0.01-0.01,0.02-0.01,0.03c-0.01,0.43-0.03,0.87-0.04,1.3c-0.04,1.19-0.07,2.39-0.1,3.58h-9.37
		c0-1.55,0.22-3.13,0.14-4.69c0.03-0.02,0.07-0.02,0.1-0.05c4.51-0.58,4.19-7.35-0.5-7.05c-3.89,0.6-5.95,6.85-0.74,7.15
		c0.06,0,0.12,0.01,0.17,0.01c0,0.11,0.01,0.22,0.02,0.32c0.06,1.42-0.17,2.86-0.16,4.3H60.7c0-0.08,0-0.17,0.01-0.25
		c0.04-1.49,0.08-2.98,0.13-4.47c0,0,0-0.01,0-0.01c1.21-0.38,2.35-1.33,2.67-2.62c0.32-1.83-0.99-3.88-2.85-3.9
		c-1.89-0.05-4.12,1.63-3.75,3.78c0.14,2.05,1.26,2.47,2.99,2.56c0,0.01-0.01,0.02-0.01,0.03c-0.01,0.43-0.03,0.87-0.04,1.3
		c-0.04,1.19-0.07,2.39-0.1,3.58h-9.37c0-1.55,0.22-3.13,0.14-4.69c0.03-0.02,0.07-0.02,0.1-0.05c4.51-0.58,4.19-7.35-0.5-7.05
		c-3.89,0.6-5.95,6.85-0.74,7.15c0.06,0,0.12,0.01,0.17,0.01c0,0.11,0.01,0.22,0.02,0.32c0.06,1.42-0.17,2.86-0.16,4.3h-9.05
		c0-0.08,0-0.17,0.01-0.25c0.04-1.49,0.08-2.98,0.13-4.47c0,0,0-0.01,0-0.01c1.21-0.38,2.35-1.33,2.67-2.62
		c0.32-1.83-0.99-3.88-2.85-3.9c-1.89-0.05-4.12,1.63-3.75,3.78c0.14,2.05,1.26,2.47,2.99,2.56c0,0.01-0.01,0.02-0.01,0.03
		c-0.01,0.43-0.03,0.87-0.04,1.3c-0.04,1.19-0.07,2.39-0.1,3.58h-9.37c0-1.55,0.22-3.13,0.14-4.69c0.03-0.02,0.07-0.02,0.1-0.05
		c4.51-0.58,4.19-7.35-0.5-7.05c-3.89,0.6-5.95,6.85-0.74,7.15c0.06,0,0.12,0.01,0.17,0.01c0,0.11,0.01,0.22,0.02,0.32
		c0.06,1.42-0.17,2.86-0.16,4.3h-9.05c0-0.08,0-0.17,0.01-0.25c0.04-1.49,0.08-2.98,0.13-4.47c0,0,0-0.01,0-0.01
		c1.21-0.38,2.35-1.33,2.67-2.62c0.32-1.83-0.99-3.88-2.85-3.9c-1.89-0.05-4.12,1.63-3.75,3.78c0.14,2.05,1.26,2.47,2.99,2.56
		c0,0.01-0.01,0.02-0.01,0.03c-0.01,0.43-0.03,0.87-0.04,1.3c-0.04,1.19-0.07,2.39-0.1,3.58H9.68c0-1.55,0.22-3.13,0.14-4.69
		c0.03-0.02,0.07-0.02,0.1-0.05c4.51-0.58,4.19-7.35-0.5-7.05C4.87,2.45,3.48,9.31,8.68,9.62z M87.91,7.29
		c-0.26-0.98,0.51-2.25,1.17-2.88c0.95-0.89,2.38-1.31,3.52-0.5c1.51,1,1.14,3.48-0.35,4.27C91.07,8.81,88.37,9.05,87.91,7.29z
		 M78.77,8.03C78.75,8.02,78.74,8,78.72,7.99c-0.55-0.42-0.64-1.39-0.5-2.02c0.12-0.56,0.49-1.02,0.94-1.36
		c0.27-0.2,0.58-0.37,0.9-0.48c0.86-0.3,1.83-0.08,2.38,0.67c0.5,0.68,0.61,1.64,0.25,2.41c-0.23,0.47-0.68,0.98-1.21,1.09
		C80.63,8.46,79.51,8.54,78.77,8.03z M69.29,8.55c-0.66-0.12-1.42-0.46-1.68-1.14c-0.02-0.04-0.03-0.08-0.04-0.12
		c-0.2-0.7,0.16-1.53,0.53-2.1c0.86-1.35,2.7-2.32,4.16-1.27c0.98,0.7,1.2,1.97,0.71,3.06C72.34,8.37,70.72,8.81,69.29,8.55z
		 M58.5,7.94c-0.62-0.54-0.9-1.4-0.52-2.31c0.3-0.72,1.02-1.24,1.73-1.49c1.21-0.43,2.42,0.22,2.76,1.46
		c0.15,0.56,0.1,1.18-0.18,1.7c-0.4,0.74-1.25,1.2-2.08,1.23C59.55,8.54,58.94,8.32,58.5,7.94z M48.54,8.45
		c-0.61-0.18-1.13-0.54-1.34-1.16c-0.25-2.33,2.62-4.88,4.72-3.38c1.07,0.71,1.2,2.21,0.62,3.28C51.81,8.54,49.92,8.86,48.54,8.45z
		 M38.08,8.03c-0.2-0.12-0.37-0.3-0.46-0.56c-0.2-0.54-0.21-1.26,0.01-1.81c0.29-0.73,1.02-1.27,1.75-1.53
		c1.22-0.43,2.44,0.23,2.76,1.48c0.15,0.57,0.09,1.19-0.2,1.7c-0.43,0.78-1.04,0.98-1.88,0.99C39.4,8.31,38.66,8.39,38.08,8.03z
		 M28.28,8.48C27.94,8.38,27.6,8.23,27.33,8c-0.24-0.21-0.38-0.45-0.45-0.71c-0.26-0.98,0.5-2.24,1.16-2.87
		c0.95-0.9,2.39-1.32,3.53-0.51c1.08,0.71,1.2,2.22,0.61,3.29C31.48,8.49,29.62,8.85,28.28,8.48z M18.22,8.25
		c-0.18-0.06-0.34-0.14-0.47-0.24C17.14,7.54,17,6.64,17.21,5.87c0.35-1.28,1.9-2.17,3.19-1.77c1.44,0.45,1.96,2.61,0.89,3.68
		c-0.17,0.17-0.38,0.3-0.59,0.4C19.97,8.52,18.98,8.48,18.22,8.25z M11.23,3.91c0.88,0.63,1.15,1.74,0.84,2.75
		c-0.53,1.74-2.5,2.23-4.09,1.82C7.63,8.39,7.29,8.26,7.02,8.03c-0.26-0.21-0.4-0.47-0.47-0.75C5.89,4.51,9.23,2.48,11.23,3.91z"/>
	<path d="M94.02,17.83H5.98c-0.28,0-0.5,0.22-0.5,0.5s0.22,0.5,0.5,0.5h88.04c0.28,0,0.5-0.22,0.5-0.5S94.3,17.83,94.02,17.83z"/>
</g>
</svg>
