<?xml version="1.0" encoding="utf-8"?>
<!-- Generator: Adobe Illustrator 23.0.0, SVG Export Plug-In . SVG Version: 6.00 Build 0)  -->
<svg version="1.1" id="Слой_1" xmlns="http://www.w3.org/2000/svg" xmlns:xlink="http://www.w3.org/1999/xlink" x="0px" y="0px"
	 viewBox="0 0 100 21.28" style="enable-background:new 0 0 100 21.28;" xml:space="preserve">
<g>
	<path d="M12.63,4.95C8.65,4.34,8.92,18.12,9.08,18.21c0.06,0.03,0.13,0.04,0.18,0.05c0.13,0.1,2.21,0.14,3.04,0.11
		c0.65-0.11,2.29,0.13,2.32-0.67c0.03-0.05,0.04-0.11,0.04-0.17c0-1-0.01-2,0.02-3.01C14.52,11.35,15.17,5.94,12.63,4.95z"/>
	<path d="M22.18,5.38c-0.32-0.41-0.83-0.73-1.4-0.76c-0.74-0.04-1.42,0.42-1.79,0.99c-0.43,0.66-0.53,1.45-0.67,2.19
		c-0.63,3.21-0.49,6.43-0.6,9.67c-0.03,0.52,0.42,0.8,0.95,0.87c0.79,0.11,1.66,0.05,2.46,0.03c0.34-0.01,0.75,0.02,1.08-0.06
		c0.49-0.1,0.52-0.71,0.53-1.06c0.01-0.64,0.02-1.29,0.03-1.93c0.02-1.27,0.04-2.54,0.05-3.82c0.01-0.88,0.02-1.77,0.02-2.65
		c0-0.44,0.02-0.9,0-1.36C22.79,6.75,22.66,6,22.18,5.38z"/>
	<path d="M29.55,4.95C25.57,4.34,25.84,18.12,26,18.21c0.06,0.03,0.13,0.04,0.18,0.05c0.13,0.1,2.21,0.14,3.04,0.11
		c0.65-0.11,2.29,0.13,2.32-0.67c0.03-0.05,0.04-0.11,0.04-0.17c0-1-0.01-2,0.02-3.01C31.44,11.35,32.09,5.94,29.55,4.95z"/>
	<path d="M39.1,5.38c-0.32-0.41-0.83-0.73-1.4-0.76c-0.74-0.04-1.42,0.42-1.79,0.99c-0.43,0.66-0.53,1.45-0.67,2.19
		c-0.63,3.21-0.49,6.43-0.6,9.67c-0.03,0.52,0.42,0.8,0.95,0.87c0.79,0.11,1.66,0.05,2.46,0.03c0.34-0.01,0.75,0.02,1.08-0.06
		c0.49-0.1,0.52-0.71,0.53-1.06c0.01-0.64,0.02-1.29,0.03-1.93c0.02-1.27,0.04-2.54,0.05-3.82c0.01-0.88,0.02-1.77,0.02-2.65
		c0-0.44,0.02-0.9,0-1.36C39.71,6.75,39.58,6,39.1,5.38z"/>
	<path d="M46.56,4.95c-3.98-0.61-3.71,13.17-3.55,13.25c0.06,0.03,0.13,0.04,0.18,0.05c0.13,0.1,2.21,0.14,3.04,0.11
		c0.65-0.11,2.29,0.13,2.32-0.67c0.03-0.05,0.04-0.11,0.04-0.17c0-1-0.01-2,0.02-3.01C48.45,11.35,49.1,5.94,46.56,4.95z"/>
	<path d="M56.11,5.38c-0.32-0.41-0.83-0.73-1.4-0.76c-0.74-0.04-1.42,0.42-1.79,0.99c-0.43,0.66-0.53,1.45-0.67,2.19
		c-0.63,3.21-0.49,6.43-0.6,9.67c-0.03,0.52,0.42,0.8,0.95,0.87c0.79,0.11,1.66,0.05,2.46,0.03c0.34-0.01,0.75,0.02,1.08-0.06
		c0.49-0.1,0.52-0.71,0.53-1.06c0.01-0.64,0.02-1.29,0.03-1.93c0.02-1.27,0.04-2.54,0.05-3.82c0.01-0.88,0.02-1.77,0.02-2.65
		c0-0.44,0.02-0.9,0-1.36C56.72,6.75,56.59,6,56.11,5.38z"/>
	<path d="M63.48,4.95c-3.98-0.61-3.71,13.17-3.55,13.25c0.06,0.03,0.13,0.04,0.18,0.05c0.13,0.1,2.21,0.14,3.04,0.11
		c0.65-0.11,2.29,0.13,2.32-0.67c0.03-0.05,0.04-0.11,0.04-0.17c0-1-0.01-2,0.02-3.01C65.37,11.35,66.02,5.94,63.48,4.95z"/>
	<path d="M73.03,5.38c-0.32-0.41-0.83-0.73-1.4-0.76c-0.74-0.04-1.42,0.42-1.79,0.99c-0.43,0.66-0.53,1.45-0.67,2.19
		c-0.63,3.21-0.49,6.43-0.6,9.67c-0.03,0.52,0.42,0.8,0.95,0.87c0.79,0.11,1.66,0.05,2.46,0.03c0.34-0.01,0.75,0.02,1.08-0.06
		c0.49-0.1,0.52-0.71,0.53-1.06c0.01-0.64,0.02-1.29,0.03-1.93c0.02-1.27,0.04-2.54,0.05-3.82c0.01-0.88,0.02-1.77,0.02-2.65
		c0-0.44,0.02-0.9,0-1.36C73.64,6.75,73.51,6,73.03,5.38z"/>
	<path d="M80.44,4.95c-3.98-0.61-3.71,13.17-3.55,13.25c0.06,0.03,0.13,0.04,0.18,0.05c0.13,0.1,2.21,0.14,3.04,0.11
		c0.65-0.11,2.29,0.13,2.32-0.67c0.03-0.05,0.04-0.11,0.04-0.17c0-1-0.01-2,0.02-3.01C82.33,11.35,82.98,5.94,80.44,4.95z"/>
	<path d="M89.99,5.38c-0.32-0.41-0.83-0.73-1.4-0.76c-0.74-0.04-1.42,0.42-1.79,0.99c-0.43,0.66-0.53,1.45-0.67,2.19
		c-0.63,3.21-0.49,6.43-0.6,9.67c-0.03,0.52,0.42,0.8,0.95,0.87c0.79,0.11,1.66,0.05,2.46,0.03c0.34-0.01,0.75,0.02,1.08-0.06
		c0.49-0.1,0.52-0.71,0.53-1.06c0.01-0.64,0.02-1.29,0.03-1.93c0.02-1.27,0.04-2.54,0.05-3.82c0.01-0.88,0.02-1.77,0.02-2.65
		c0-0.44,0.02-0.9,0-1.36C90.6,6.75,90.47,6,89.99,5.38z"/>
	<path d="M92.89,11.29c-0.01-0.87-0.03-1.74-0.09-2.6c-0.09-1.45-0.4-2.79-1.11-4.11C90.96,3.22,89.53,2.57,87.86,3
		c-0.58,0.15-1.11,0.42-1.57,0.77c-0.48,0.37-0.74,0.81-1.06,1.29c-0.6,0.91-0.97,1.87-1.21,2.86c-0.22-1.18-0.6-2.31-1.37-3.28
		c-1.49-1.3-4.19-1.95-5.56-0.16c-0.65,0.83-1.08,1.74-1.4,2.69c-0.24-1.01-0.64-2.01-1.15-2.9c-0.09-0.16-0.2-0.32-0.32-0.46
		C73.47,2.92,72.04,2.71,70.9,3c-0.58,0.15-1.11,0.42-1.57,0.77c-0.48,0.37-0.74,0.81-1.06,1.29c-0.6,0.91-0.97,1.87-1.21,2.86
		c-0.22-1.18-0.6-2.31-1.37-3.28c-1.49-1.3-4.19-1.95-5.56-0.16c-0.63,0.81-1.06,1.69-1.37,2.6c-0.24-0.98-0.64-1.96-1.14-2.82
		c-0.09-0.16-0.2-0.32-0.32-0.46c-0.76-0.88-2.18-1.09-3.33-0.8c-0.58,0.15-1.11,0.42-1.57,0.77c-0.48,0.37-0.74,0.81-1.06,1.29
		c-0.6,0.91-0.97,1.87-1.21,2.86c-0.22-1.18-0.6-2.31-1.37-3.28c-1.49-1.3-4.19-1.95-5.56-0.16c-0.71,0.91-1.16,1.91-1.48,2.95
		c-0.24-1.09-0.57-2.2-1.12-3.16c-0.09-0.16-0.2-0.32-0.32-0.46c-0.76-0.88-2.18-1.09-3.33-0.8c-0.58,0.15-1.11,0.42-1.57,0.77
		c-0.48,0.37-0.74,0.81-1.06,1.29c-0.6,0.91-0.97,1.87-1.21,2.86c-0.22-1.18-0.6-2.31-1.37-3.28c-1.49-1.3-4.19-1.95-5.56-0.16
		c-0.63,0.81-1.06,1.69-1.37,2.6c-0.24-0.98-0.64-1.96-1.14-2.82c-0.09-0.16-0.2-0.32-0.32-0.46c-0.76-0.88-2.18-1.09-3.33-0.8
		c-0.58,0.15-1.11,0.42-1.57,0.77C18,4.14,17.74,4.58,17.42,5.06c-0.6,0.91-0.97,1.87-1.21,2.86c-0.22-1.18-0.6-2.31-1.37-3.28
		c-1.49-1.3-4.19-1.95-5.56-0.16c-2.21,2.85-2.14,6.55-2.18,9.88c0.04,1.21,0.04,2.41,0.07,3.62c0.02,0.16,0.14,0.29,0.3,0.36
		c0.35,0.15,0.77-0.16,0.69-0.5c0,0.01,0,0.02,0,0.03c0,0,0,0.01,0,0.01c-0.06-2.71-0.89-16,4.98-13.21
		c0.66,0.27,1.25,0.7,1.46,1.36c1.2,3.66,1.43,8.03,1.07,11.83c-0.07,0.23,0.08,0.48,0.35,0.55c0.1,0.03,0.18,0.01,0.25-0.02
		c0.01,0,0.02,0.01,0.03,0.01c0.26,0,0.52-0.2,0.5-0.44c0.06-2.73,0.03-5.48,0.11-8.2c0.04-1.26,0.43-2.57,1.03-3.72
		c0.4-0.76,0.95-1.56,1.79-2c0.72-0.37,1.8-0.4,2.49,0.03c0.61,0.39,0.91,1.22,1.14,1.81c0.3,0.78,0.48,1.6,0.62,2.41
		c0.09,0.5,0.13,1.29,0.16,2.22c-0.11,1.29-0.11,2.6-0.13,3.85c0.04,1.16,0.04,2.32,0.07,3.49c0,0.08,0,0.13,0,0.14
		c0.03,0.1,0.03,0.11,0.05,0.1c0.05,0.11,0.13,0.2,0.25,0.25c0.35,0.15,0.77-0.16,0.69-0.5c0,0.01,0,0.02,0,0.03c0,0,0,0.01,0,0.01
		c-0.06-2.71-0.89-16,4.98-13.21c0.66,0.27,1.25,0.7,1.46,1.36c1.2,3.66,1.43,8.03,1.07,11.83c-0.07,0.23,0.08,0.48,0.35,0.55
		c0.1,0.03,0.18,0.01,0.25-0.02c0.01,0,0.02,0.01,0.03,0.01c0.26,0,0.52-0.2,0.5-0.44c0.06-2.73,0.03-5.48,0.11-8.2
		c0.04-1.26,0.43-2.57,1.03-3.72c0.4-0.76,0.95-1.56,1.79-2c0.72-0.37,1.8-0.4,2.49,0.03c0.61,0.39,0.91,1.22,1.14,1.81
		c0.3,0.78,0.48,1.6,0.62,2.41c0.11,0.65,0.17,1.8,0.2,3.08c-0.05,1.01-0.06,2.01-0.07,2.99c0.03,1.07,0.04,2.14,0.07,3.21
		c0,0.12,0,0.21,0,0.22c0,0,0,0,0,0.01c0,0.06,0,0.11,0,0.17c-0.01,0.04,0,0.07,0.03,0.08c0.04,0.13,0.13,0.24,0.27,0.29
		c0.35,0.15,0.77-0.16,0.69-0.5c0,0.01,0,0.02,0,0.03c0,0,0,0.01,0,0.01c-0.06-2.71-0.89-16,4.98-13.21
		c0.66,0.27,1.25,0.7,1.46,1.36c1.2,3.66,1.43,8.03,1.07,11.83c-0.07,0.23,0.08,0.48,0.35,0.55c0.1,0.03,0.18,0.01,0.25-0.02
		c0.01,0,0.02,0.01,0.03,0.01c0.26,0,0.52-0.2,0.5-0.44c0.06-2.73,0.03-5.48,0.11-8.2c0.04-1.26,0.43-2.57,1.03-3.72
		c0.4-0.76,0.95-1.56,1.79-2c0.72-0.37,1.8-0.4,2.49,0.03c0.61,0.39,0.91,1.22,1.14,1.81c0.3,0.78,0.48,1.6,0.62,2.41
		c0.09,0.5,0.13,1.29,0.16,2.22c-0.11,1.29-0.11,2.6-0.13,3.85c0.04,1.16,0.04,2.32,0.07,3.49c0,0.08,0,0.13,0,0.14
		c0.03,0.1,0.03,0.11,0.05,0.1c0.05,0.11,0.13,0.2,0.25,0.25c0.35,0.15,0.77-0.16,0.69-0.5c0,0.01,0,0.02,0,0.03c0,0,0,0.01,0,0.01
		c-0.06-2.71-0.89-16,4.98-13.21c0.66,0.27,1.25,0.7,1.46,1.36c1.2,3.66,1.43,8.03,1.07,11.83c-0.07,0.23,0.08,0.48,0.35,0.55
		c0.1,0.03,0.18,0.01,0.25-0.02c0.01,0,0.02,0.01,0.03,0.01c0.26,0,0.52-0.2,0.5-0.44c0.06-2.73,0.03-5.48,0.11-8.2
		c0.04-1.26,0.43-2.57,1.03-3.72c0.4-0.76,0.95-1.56,1.79-2c0.72-0.37,1.8-0.4,2.49,0.03C73.7,4.45,74,5.28,74.22,5.88
		c0.3,0.78,0.48,1.6,0.62,2.41c0.1,0.57,0.15,1.52,0.18,2.59c-0.08,1.17-0.09,2.34-0.1,3.47c0.03,1.08,0.04,2.17,0.07,3.25
		c0,0.09,0,0.16,0,0.17c0,0,0,0,0,0c0,0.07,0,0.13,0,0.2c0.02,0.16,0.14,0.29,0.3,0.36c0.35,0.15,0.77-0.16,0.69-0.5
		c0,0.01,0,0.02,0,0.04c-0.06-2.71-0.89-16,4.98-13.21c0.66,0.27,1.25,0.7,1.46,1.36c1.2,3.66,1.43,8.03,1.07,11.83
		c-0.07,0.23,0.08,0.48,0.35,0.55c0.1,0.03,0.18,0.01,0.25-0.02c0.01,0,0.02,0.01,0.03,0.01c0.26,0,0.52-0.2,0.5-0.44
		c0.06-2.73,0.03-5.48,0.11-8.2c0.04-1.26,0.43-2.57,1.03-3.72c0.4-0.76,0.95-1.56,1.79-2c0.72-0.37,1.8-0.4,2.49,0.03
		c0.61,0.39,0.91,1.22,1.14,1.81c0.98,2.59,0.72,5.25,0.67,7.93c-0.03,1.27,0.02,2.55,0.06,3.82c0.01,0.17,0.01,0.34,0.09,0.49
		c0.08,0.15,0.25,0.28,0.43,0.27c0.18-0.01,0.33-0.14,0.4-0.29c0.07-0.15,0.06-0.32,0.06-0.48C92.85,15.51,92.91,13.4,92.89,11.29z"
		/>
</g>
</svg>
