<?xml version="1.0" encoding="utf-8"?>
<!-- Generator: Adobe Illustrator 23.0.0, SVG Export Plug-In . SVG Version: 6.00 Build 0)  -->
<svg version="1.1" id="Слой_1" xmlns="http://www.w3.org/2000/svg" xmlns:xlink="http://www.w3.org/1999/xlink" x="0px" y="0px"
	 viewBox="0 0 100 21.28" style="enable-background:new 0 0 100 21.28;" xml:space="preserve">
<g>
	<path d="M12.99,9.71c-0.2-0.22-0.53,0.21-0.56,0.48c-0.35,2.91-0.29,5.57-0.35,8.11c0.05,0.27,0.37,0.43,0.65,0.38
		c0.46-0.09,0.41-0.53,0.38-0.86C13.19,16.72,13.83,10.64,12.99,9.71z"/>
	<path d="M13.17,6.77c-0.68-0.02-0.85,0.79-0.3,1.1C13.86,8.48,14.28,6.82,13.17,6.77z"/>
	<path d="M25.63,10.15c-0.49,2.72-0.43,5.51-0.4,8.26c0.12,0.75,1.24,0.48,1.06-0.23c-0.01-2.61-0.06-5.29,0.39-7.85
		C26.74,9.77,25.8,9.59,25.63,10.15z"/>
	<path d="M25.71,7.72c0.1,0.96,1.56,0.39,1.05-0.38C26.43,6.89,25.59,7.19,25.71,7.72z"/>
	<path d="M37.92,9.71c-0.3-0.04-0.54,0.21-0.56,0.48c0.12,2.59,0.14,5.57,0.08,8.11c0.05,0.27,0.37,0.43,0.65,0.38
		c0.46-0.09,0.41-0.53,0.38-0.86C38.55,16.72,38.75,9.81,37.92,9.71z"/>
	<path d="M38.11,6.77c-0.68-0.02-0.85,0.79-0.3,1.1C38.79,8.48,39.21,6.82,38.11,6.77z"/>
	<path d="M50.56,10.15c-0.49,2.72-0.43,5.51-0.4,8.26c0.12,0.75,1.24,0.48,1.06-0.23c-0.01-2.61-0.06-5.29,0.39-7.85
		C51.67,9.77,50.73,9.59,50.56,10.15z"/>
	<path d="M50.64,7.72c0.1,0.96,1.56,0.39,1.05-0.38C51.36,6.89,50.52,7.19,50.64,7.72z"/>
	<path d="M62.85,9.71c-0.3-0.04-0.54,0.21-0.56,0.48c0.12,2.59-0.35,5.57-0.41,8.11c0.05,0.27,0.37,0.43,0.65,0.38
		c0.46-0.09,0.41-0.53,0.38-0.86C62.99,16.72,63.69,9.81,62.85,9.71z"/>
	<path d="M63.04,6.77c-0.68-0.02-0.85,0.79-0.3,1.1C63.72,8.48,64.15,6.82,63.04,6.77z"/>
	<path d="M75.49,10.15c-0.49,2.72-0.43,5.51-0.4,8.26c0.12,0.75,1.24,0.48,1.06-0.23c-0.01-2.61-0.06-5.29,0.39-7.85
		C76.6,9.77,75.66,9.59,75.49,10.15z"/>
	<path d="M75.57,7.72c0.1,0.96,1.56,0.39,1.05-0.38C76.29,6.89,75.46,7.19,75.57,7.72z"/>
	<path d="M94.55,15.98c0.01-0.88,0.02-1.75,0.03-2.63c0.02-2,0.04-4.01-0.4-5.96c-0.28-1.22-0.75-2.43-1.62-3.34
		c-1.72-1.8-4.71-1.98-6.91-0.81S82,6.67,81.29,9.06c-0.22-1.79-0.51-3.68-1.68-5.05c-1.11-1.3-3.04-1.92-4.63-1.3
		c-0.88,0.34-1.6,0.99-2.19,1.72c-1.75,2.16-2.49,4.95-3.17,7.65c-0.04-1.11,0-2.26-0.13-3.36c-0.05-0.42-0.11-0.65-0.18-1.05
		c0-0.01-0.01-0.05-0.02-0.08c-0.38-1.81-1.09-3.43-2.76-4.41c-1.63-0.95-3.7-0.93-5.39-0.13c-0.94,0.44-1.75,1.04-2.47,1.77
		c-0.34,0.35-0.64,0.72-0.91,1.13s-0.54,0.85-0.73,1.3c-0.25,0.6-0.46,1.23-0.65,1.85c-0.03-0.15-0.04-0.3-0.07-0.45
		c-0.23-1.89-0.62-3.94-2.25-5.25c-1.44-1.22-3.56-1.26-5.07-0.11c-2.46,2.04-3.36,5.26-4.15,8.13c-0.05,0.23-0.1,0.45-0.15,0.68
		c0-0.08,0-0.16,0-0.23c0.02-2.46-0.04-5.68-1.79-7.64c-1.62-1.82-4.7-2.24-6.84-1.14c-2.28,1.17-4.01,3.48-4.61,5.96
		c-0.13-1.35-0.36-2.71-0.97-3.91s-1.67-2.24-2.99-2.55c-1.46-0.34-3.04,0.27-4.13,1.3c-1.1,1.03-1.78,2.43-2.27,3.85
		s-0.83,2.89-1.37,4.3c0.03-1.56,0.05-3.14-0.29-4.66s-1.1-3-2.36-3.92c-2.15-1.57-5.33-1.07-7.39,0.61s-3.16,4.28-3.73,6.88
		c-0.49,2.23-0.64,4.53-0.45,6.8c0.02,0.29,0.1,0.65,0.39,0.73c0.46,0.14,0.67-0.57,0.64-1.05c-0.15-2.49,0.13-5.01,0.82-7.41
		c0.55-1.93,1.42-3.86,2.95-5.17s3.84-1.85,5.6-0.89c1.23,0.67,2.03,1.97,2.41,3.32s0.4,2.78,0.41,4.19
		c0.02,2.1,0.04,4.19,0.06,6.29c0,0.25,0.01,0.52,0.13,0.74c0.12,0.22,0.41,0.38,0.64,0.27c0.23-0.11,0.29-0.4,0.33-0.65
		c0.59-4.31,1.05-8.83,3.48-12.44c0.78-1.17,1.96-2.29,3.36-2.22c1.48,0.07,2.57,1.46,3.11,2.84c1.43,3.72,0.36,7.87,0.51,11.86
		c0.01,0.21,0.04,0.45,0.21,0.57c0.37,0.25,0.73-0.34,0.79-0.78c0.27-1.95,0.3-3.92,0.55-5.87s0.74-3.92,1.82-5.55
		c1.09-1.64,2.85-2.92,4.81-3.04c1.17-0.07,2.37,0.34,3.26,1.1c0.99,0.85,1.3,2.01,1.54,3.24c0.01,0.03,0-0.02,0.04,0.18
		c0.04,0.2,0.14,0.78,0.17,1.15c0.05,0.73,0.09,1.85,0.09,2.56c0,0.72-0.02,1.53-0.02,2.09c0,0.56,0,0.79,0.01,1.22
		s0.07,0.9,0.11,1.25c0.03,0.25,0.07,0.48,0.11,0.69c-0.04,0.52-0.05,1.04-0.02,1.56c0.22,0.48,1.03,0.35,1.05-0.18
		c-0.11-1,0.22-2.02,0.28-3.03c0.73-3.55,1.66-10.06,5.53-11.76c5.19-0.96,4.99,7.22,4.72,10.37c-0.06,0.74-0.65,4.8,0.33,4.84
		c0.46,0,0.56-0.34,0.59-0.71c0-0.05,0.05-0.54,0.05-0.56c0.2-2.53,0.15-5.02,0.87-7.48c0.19-0.65,0.42-1.44,0.69-2.11
		c0.14-0.34,0.3-0.68,0.5-1.02c0.86-1.44,2.23-2.68,3.83-3.21c1.18-0.39,2.53-0.36,3.62,0.25c1.14,0.64,1.88,1.84,2.24,3.09
		c0.36,1.25,0.39,2.58,0.42,3.88c0.05,2.29,0.1,4.58,0.14,6.87c0.01,0.48,0.26,1.15,0.72,1.01c0.29-0.09,0.37-0.46,0.4-0.76
		c0.38-3.85,1.03-7.74,2.73-11.21c0.45-0.92,1-1.83,1.79-2.49s1.88-1.03,2.87-0.77c1.26,0.33,2.07,1.56,2.52,2.78
		c1.31,3.57,0.5,7.51,0.38,11.31c-0.01,0.49,0.18,1.17,0.67,1.09c0.35-0.06,0.48-0.49,0.52-0.84c0.23-1.79,0.26-3.6,0.45-5.4
		c0.19-1.8,0.55-3.6,1.38-5.2s2.19-2.99,3.9-3.56s3.78-0.18,4.97,1.18c0.76,0.86,1.1,2.01,1.28,3.15c0.54,3.28-0.09,6.69,0.59,9.94
		c0.05,0.26,0.25,0.59,0.49,0.48c0.16-0.07,0.19-0.28,0.19-0.45C94.53,17.36,94.54,16.67,94.55,15.98z M93.81,17.71
		C93.81,17.71,93.81,17.71,93.81,17.71c0,0.02,0.01,0.03,0.01,0.06C93.82,17.77,93.81,17.69,93.81,17.71z"/>
	<path d="M87.78,9.71c-0.3-0.01-0.54,0.21-0.56,0.48c0.12,2.59-0.8,5.13-0.86,7.67c0.05,0.27,0.37,0.43,0.65,0.38
		c0.46-0.09,0.41-0.53,0.38-0.86C87.47,16.28,89.15,9.76,87.78,9.71z"/>
	<path d="M87.97,6.77c-0.68-0.02-0.85,0.79-0.3,1.1C88.65,8.48,89.08,6.82,87.97,6.77z"/>
</g>
</svg>
