<?xml version="1.0" encoding="utf-8"?>
<!-- Generator: Adobe Illustrator 23.0.0, SVG Export Plug-In . SVG Version: 6.00 Build 0)  -->
<svg version="1.1" id="Слой_1" xmlns="http://www.w3.org/2000/svg" xmlns:xlink="http://www.w3.org/1999/xlink" x="0px" y="0px"
	 viewBox="0 0 100 21.28" style="enable-background:new 0 0 100 21.28;" xml:space="preserve">
<g>
	<path d="M5.92,18.03c29.34,0.32,59.06-0.19,88.25-0.02c0.37,0.01,0.51-0.2,0.53-0.48c0.02-0.27-0.09-0.47-0.47-0.5
		s-1.16-0.03-1.61-0.06c0.16-0.26,0.39-0.58,0.55-0.83c1.39-2.14,1.11-4.65,0.57-6.98C93.26,7.11,91.63,6,90.5,4.51
		c-0.71-0.94-0.42-1.95-0.77-2.96c-0.19-0.54-0.84-0.54-0.99,0.12c-1.29,5.74-6.89,6.5-4.97,13.56c0.19,0.71,0.54,1.21,0.93,1.8
		c-1.09-0.05-2.2-0.08-3.29-0.1c0.14-0.26,0.37-0.63,0.51-0.87c1.13-2.01,0.85-4.46,0.44-6.62c-0.36-1.88-2.3-2.62-3.41-3.98
		c-0.7-0.86-0.53-2.01-0.54-3.08c-0.01-0.58-0.79-0.72-0.96-0.15c-1.6,5.42-6.27,6.82-4.74,13.28c0.15,0.65,0.56,1.11,0.91,1.64
		c-1.12,0-2.26,0.11-3.39,0.1c0.17-0.25,0.32-0.58,0.49-0.82c1.46-2.08,1.23-4.42,0.64-6.7c-0.51-1.98-1.78-3.06-2.94-4.57
		c-0.74-0.96-0.67-2.29-0.72-3.45c-0.03-0.62-0.83-0.71-0.98-0.11c-1.34,5.6-6.65,7.43-5.08,13.67c0.16,0.63,0.52,1.24,0.86,1.79
		c-1.12-0.03-2.26-0.03-3.39-0.05c0.16-0.26,0.34-0.61,0.49-0.86c1.24-2.1,1.27-4.17,0.7-6.44c-0.5-1.98-2.2-2.97-3.25-4.48
		c-0.67-0.96-0.68-1.87-0.84-2.95c-0.09-0.58-0.86-0.7-0.98-0.08c-1.12,5.84-6.38,6.08-4.74,13c0.17,0.7,0.51,1.2,0.88,1.78
		c-1.12-0.01-2.27-0.01-3.4-0.04c0.16-0.26,0.34-0.6,0.49-0.86c1.28-2.13,1.31-4.32,0.66-6.59c-0.57-1.98-2.18-2.69-3.18-4.29
		c-0.63-1.02-0.74-2.05-0.75-3.18c0-0.61-0.74-0.84-0.93-0.27c-1.75,5.4-6.44,6.96-4.96,13.21c0.15,0.63,0.53,1.24,0.87,1.79
		c-1.09-0.02-2.21-0.05-3.31-0.06c0.15-0.27,0.32-0.61,0.46-0.87c1.18-2.17,1.28-4.19,0.84-6.6c-0.38-2.1-2.06-3.03-3.28-4.56
		c-0.78-0.97-1.01-1.87-1.09-3.01c-0.12-1.06-0.86-0.89-1.05-0.33c-1.78,5.3-5.88,7.62-4.28,13.7c0.16,0.61,0.53,1.21,0.88,1.74
		c-1.1,0.02-2.22,0.05-3.32,0.07c0.15-0.26,0.32-0.62,0.46-0.87c1.16-2.09,1.21-4.13,0.64-6.36c-0.5-1.95-1.82-3.06-3.1-4.4
		c-0.81-0.85-0.9-2-1.02-3.11C22.97,1.51,22.17,1.43,22.06,2c-1.08,5.39-6.28,7.02-4.64,13.21c0.17,0.62,0.55,1.22,0.91,1.75
		c-1.11,0.01-2.25,0.03-3.36,0.03c0.15-0.26,0.32-0.62,0.46-0.87c1.15-2.13,1.21-4.18,0.6-6.45c-0.53-1.98-2.29-2.84-3.34-4.44
		c-0.67-1.01-0.86-2.27-0.92-3.42c-0.03-0.62-0.79-0.63-0.95-0.05c-1.44,5.5-6.14,7.35-4.46,13.5c0.17,0.62,0.56,1.24,0.91,1.77
		c-0.39,0.01-1.01,0-1.36,0.02s-0.52,0.2-0.5,0.48C5.42,17.83,5.55,18.03,5.92,18.03z M84.68,10.64c1.07-2.26,3.97-5.62,4.59-6.05
		c1.16,1.5,1.54,2.5,2.52,3.69c1.31,1.67,1.49,4.24,0.85,6.23c-0.36,0.76-0.74,1.66-1.08,2.48c0,0.01-0.01,0.02-0.01,0.02h-5.56
		c-0.03-0.03-0.06-0.05-0.1-0.08C84.02,15.85,84.1,12.61,84.68,10.64z M73.57,10.64c1.07-2.26,2.99-3.72,4-6.05
		c0.21,1.61,2.17,2.5,3.15,3.69c1.31,1.67,1.49,4.24,0.85,6.23c-0.36,0.76-0.74,1.66-1.08,2.48c0,0.01-0.01,0.02-0.01,0.02h-5.56
		c-0.03-0.03-0.06-0.05-0.1-0.08C72.95,15.85,72.99,12.61,73.57,10.64z M62.34,10.6c1.07-2.26,3.62-4.59,4.63-6.92
		c0.21,1.61,1.7,3.41,2.68,4.6c1.31,1.67,1.49,4.24,0.85,6.23c-0.36,0.76-0.74,1.66-1.08,2.48c0,0.01-0.01,0.02-0.01,0.02h-5.56
		c-0.03-0.03-0.06-0.05-0.1-0.08C61.87,15.85,61.76,12.57,62.34,10.6z M51.27,10.6c1.07-2.26,3.25-3.47,4.25-5.8
		c0.21,1.61,2.07,2.29,3.05,3.48c1.31,1.67,1.49,4.24,0.85,6.23c-0.36,0.76-0.74,1.66-1.08,2.48c0,0.01-0.01,0.02-0.01,0.02h-5.56
		c-0.03-0.03-0.06-0.05-0.1-0.08C50.8,15.85,50.69,12.57,51.27,10.6z M40.2,10.6c1.07-2.26,3.09-4.14,4.1-6.47
		c0.53,1.14,2.23,2.96,3.2,4.15c1.31,1.67,1.49,4.24,0.85,6.23c-0.36,0.76-0.74,1.66-1.08,2.48c0,0.01-0.01,0.02-0.01,0.02h-5.56
		c-0.03-0.03-0.06-0.05-0.1-0.08C39.72,15.85,39.61,12.57,40.2,10.6z M29.12,10.6c1.07-2.26,2.29-4.09,3.79-6.47
		c1.01,0.94,2.53,2.96,3.51,4.15c1.31,1.67,1.49,4.24,0.85,6.23c-0.36,0.76-0.74,1.66-1.08,2.48c0,0.01-0.01,0.02-0.01,0.02h-5.56
		c-0.03-0.03-0.06-0.05-0.1-0.08C28.65,15.85,28.54,12.57,29.12,10.6z M18.12,10.67c0.99-2.42,3.06-3.93,4.41-6.06
		c0.49,1.55,2.11,2.32,2.92,3.69c1.12,1.89,1.31,4.01,0.75,6.03c-0.23,0.82-0.87,1.98-1,2.39c-0.06,0.19-0.04,0.18-0.06,0.19
		c-3.04,0.18-3.03,0.11-5.55,0.05c-0.06-0.02-0.07-0.05-0.12-0.09C17.69,15.44,17.31,12.66,18.12,10.67z M6.97,10.6
		c1.07-2.26,3.09-3.66,4.1-6c0.95,1.66,2.23,2.49,3.2,3.67c1.31,1.67,1.49,4.24,0.85,6.23c-0.36,0.76-0.74,1.66-1.08,2.48
		c0,0.01-0.01,0.02-0.01,0.02H8.47c-0.03-0.03-0.06-0.05-0.1-0.08C6.5,15.85,6.39,12.57,6.97,10.6z"/>
	<path d="M94.27,19.29H5.68c-0.28,0-0.5,0.22-0.5,0.5s0.22,0.5,0.5,0.5h88.59c0.28,0,0.5-0.22,0.5-0.5S94.55,19.29,94.27,19.29z"/>
</g>
</svg>
