<?xml version="1.0" encoding="utf-8"?>
<!-- Generator: Adobe Illustrator 23.0.0, SVG Export Plug-In . SVG Version: 6.00 Build 0)  -->
<svg version="1.1" id="Слой_1" xmlns="http://www.w3.org/2000/svg" xmlns:xlink="http://www.w3.org/1999/xlink" x="0px" y="0px"
	 viewBox="0 0 100 21.28" width="100" height="21.28" style="enable-background:new 0 0 100 21.28;" xml:space="preserve">
<path d="M94.17,18.37h-1.72c0.18-0.32,0.34-0.66,0.48-0.91c1.25-2.01,1.32-4.51,0.66-6.73c-0.33-2-2.22-3.06-3.32-4.61
	c-0.45-1.13-0.45-2.44-0.34-3.64c0.09-0.64-0.91-0.77-0.99-0.14c-0.63,6.01-7.94,7.23-5.11,14.2c0.29,0.7,0.46,1.31,0.91,1.84h-3.36
	c0.18-0.32,0.34-0.66,0.48-0.91c1.25-2.01,1.32-4.51,0.66-6.73c-0.33-2-2.23-3.06-3.32-4.61c-0.45-1.13-0.45-2.44-0.34-3.64
	c0.09-0.64-0.91-0.77-0.99-0.14c-0.63,6.01-7.94,7.23-5.11,14.2c0.29,0.7,0.46,1.31,0.91,1.84H70.3c0.18-0.32,0.34-0.66,0.48-0.91
	c1.25-2.01,1.32-4.51,0.66-6.73c-0.33-2-2.22-3.06-3.32-4.61c-0.45-1.13-0.45-2.44-0.34-3.64c0.09-0.64-0.91-0.77-0.99-0.14
	c-0.63,6.01-7.94,7.23-5.11,14.2c0.29,0.7,0.46,1.31,0.91,1.84h-3.36c0.18-0.32,0.34-0.66,0.48-0.91c1.25-2.01,1.32-4.51,0.66-6.73
	c-0.33-2-2.23-3.06-3.32-4.61c-0.45-1.13-0.45-2.44-0.34-3.64c0.09-0.64-0.91-0.77-0.99-0.14c-0.63,6.01-7.94,7.23-5.11,14.2
	c0.29,0.7,0.46,1.31,0.91,1.84h-3.36c0.18-0.32,0.34-0.66,0.48-0.91c1.25-2.01,1.32-4.51,0.66-6.73c-0.33-2-2.22-3.06-3.32-4.61
	c-0.45-1.13-0.45-2.44-0.34-3.64c0.09-0.64-0.91-0.77-0.99-0.14c-0.63,6.01-7.94,7.23-5.11,14.2c0.29,0.7,0.46,1.31,0.91,1.84h-3.36
	c0.18-0.32,0.34-0.66,0.48-0.91c1.25-2.01,1.32-4.51,0.66-6.73c-0.33-2-2.23-3.06-3.32-4.61c-0.45-1.13-0.45-2.44-0.34-3.64
	c0.09-0.64-0.91-0.77-0.99-0.14c-0.63,6.01-7.94,7.23-5.11,14.2c0.29,0.7,0.46,1.31,0.91,1.84H26c0.18-0.32,0.34-0.66,0.48-0.91
	c1.25-2.01,1.32-4.51,0.66-6.73c-0.33-2-2.22-3.06-3.32-4.61c-0.45-1.13-0.45-2.44-0.34-3.64c0.09-0.64-0.91-0.77-0.99-0.14
	c-0.63,6.01-7.94,7.23-5.11,14.2c0.29,0.7,0.46,1.31,0.91,1.84h-3.36c0.18-0.32,0.34-0.66,0.48-0.91c1.25-2.01,1.32-4.51,0.66-6.73
	c-0.33-2-2.23-3.06-3.32-4.61c-0.45-1.13-0.45-2.44-0.34-3.64c0.09-0.64-0.91-0.77-0.99-0.14c-0.63,6.01-7.94,7.23-5.11,14.2
	c0.29,0.7,0.46,1.31,0.91,1.84H5.83c-0.28,0-0.5,0.22-0.5,0.5s0.22,0.5,0.5,0.5h88.34c0.28,0,0.5-0.22,0.5-0.5
	S94.45,18.37,94.17,18.37z M85.88,18.28c-1.86-1.12-1.97-4.53-1.39-6.58c1.07-2.35,3.54-3.83,4.54-6.25
	c0.21,1.68,1.78,2.6,2.76,3.84c1.31,1.74,1.49,4.41,0.85,6.48c-0.36,0.79-0.74,1.73-1.08,2.58c0,0.01-0.01,0.02-0.01,0.03h-5.56
	C85.95,18.34,85.93,18.31,85.88,18.28z M74.81,18.28c-1.86-1.12-1.97-4.53-1.39-6.58c1.07-2.35,3.54-3.83,4.54-6.25
	c0.21,1.68,1.78,2.6,2.76,3.84c1.31,1.74,1.49,4.41,0.85,6.48c-0.36,0.79-0.74,1.73-1.08,2.58c0,0.01-0.01,0.02-0.01,0.03h-5.56
	C74.88,18.34,74.85,18.31,74.81,18.28z M63.73,18.28c-1.86-1.12-1.97-4.53-1.39-6.58c1.07-2.35,3.54-3.83,4.54-6.25
	c0.21,1.68,1.78,2.6,2.76,3.84c1.31,1.74,1.49,4.41,0.85,6.48c-0.36,0.79-0.74,1.73-1.08,2.58c0,0.01-0.01,0.02-0.01,0.03h-5.56
	C63.8,18.34,63.78,18.31,63.73,18.28z M52.66,18.28c-1.86-1.12-1.97-4.53-1.39-6.58c1.07-2.35,3.54-3.83,4.54-6.25
	c0.21,1.68,1.78,2.6,2.76,3.84c1.31,1.74,1.49,4.41,0.85,6.48c-0.36,0.79-0.74,1.73-1.08,2.58c0,0.01-0.01,0.02-0.01,0.03h-5.56
	C52.73,18.34,52.71,18.31,52.66,18.28z M41.59,18.28c-1.86-1.12-1.97-4.53-1.39-6.58c1.07-2.35,3.54-3.83,4.54-6.25
	c0.21,1.68,1.78,2.6,2.76,3.84c1.31,1.74,1.49,4.41,0.85,6.48c-0.36,0.79-0.74,1.73-1.08,2.58c0,0.01-0.01,0.02-0.01,0.03h-5.56
	C41.65,18.34,41.63,18.31,41.59,18.28z M30.51,18.28c-1.86-1.12-1.97-4.53-1.39-6.58c1.07-2.35,3.54-3.83,4.54-6.25
	c0.21,1.68,1.78,2.6,2.76,3.84c1.31,1.74,1.49,4.41,0.85,6.48c-0.36,0.79-0.74,1.73-1.08,2.58c0,0.01-0.01,0.02-0.01,0.03h-5.56
	C30.58,18.34,30.56,18.31,30.51,18.28z M19.44,18.28c-1.86-1.12-1.97-4.53-1.39-6.58c1.07-2.35,3.54-3.83,4.54-6.25
	c0.21,1.68,1.78,2.6,2.76,3.84c1.31,1.74,1.49,4.41,0.85,6.48c-0.36,0.79-0.74,1.73-1.08,2.58c0,0.01-0.01,0.02-0.01,0.03h-5.56
	C19.51,18.34,19.48,18.31,19.44,18.28z M8.36,18.28c-1.86-1.12-1.97-4.53-1.39-6.58c1.07-2.35,3.54-3.83,4.54-6.25
	c0.21,1.68,1.78,2.6,2.76,3.84c1.31,1.74,1.49,4.41,0.85,6.48c-0.36,0.79-0.74,1.73-1.08,2.58c0,0.01-0.01,0.02-0.01,0.03H8.47
	C8.43,18.34,8.41,18.31,8.36,18.28z"/>
</svg>
