<?xml version="1.0" encoding="utf-8"?>
<!-- Generator: Adobe Illustrator 23.0.0, SVG Export Plug-In . SVG Version: 6.00 Build 0)  -->
<svg version="1.1" id="Слой_1" xmlns="http://www.w3.org/2000/svg" xmlns:xlink="http://www.w3.org/1999/xlink" x="0px" y="0px"
	 viewBox="0 0 100 21.28" width="100" height="21.28" style="enable-background:new 0 0 100 21.28;" xml:space="preserve">
<path d="M87.97,4.43c-0.27-0.45-0.06-1.32-0.64-1.63c-0.2-0.09-0.48-0.03-0.62,0.12c-0.51,0.84-0.87,1.68-1.43,2.55
	c-1.7,2.92-4.31,5.65-5.57,8.8c-1.24-3.66-4.75-6.32-6.52-9.83c-0.27-0.45-0.06-1.32-0.64-1.63c-0.2-0.09-0.48-0.03-0.62,0.12
	c-0.51,0.84-0.87,1.68-1.43,2.55c-1.71,2.93-4.34,5.68-5.59,8.84c-1.23-3.68-4.76-6.35-6.53-9.87c-0.27-0.45-0.06-1.32-0.64-1.63
	c-0.2-0.09-0.48-0.03-0.62,0.12c-0.51,0.84-0.87,1.68-1.43,2.55c-1.7,2.92-4.31,5.65-5.57,8.8c-1.24-3.66-4.75-6.32-6.52-9.83
	c-0.27-0.45-0.06-1.32-0.64-1.63c-0.2-0.09-0.48-0.03-0.62,0.12c-0.51,0.84-0.87,1.68-1.43,2.55c-1.71,2.92-4.31,5.65-5.57,8.8
	c-1.24-3.66-4.75-6.32-6.52-9.83c-0.27-0.45-0.06-1.32-0.64-1.63c-0.2-0.09-0.48-0.03-0.62,0.12c-0.51,0.84-0.87,1.68-1.43,2.55
	c-1.7,2.92-4.31,5.65-5.57,8.8c-1.24-3.66-4.75-6.32-6.52-9.83c-0.27-0.45-0.06-1.32-0.64-1.63c-0.2-0.09-0.48-0.03-0.62,0.12
	c-0.51,0.84-0.87,1.68-1.43,2.55C9.02,9.47,4.95,13.14,5.06,18c0.03,0.29,0.24,0.51,0.56,0.53c0.68-0.02,0.53-0.61,0.53-1.05
	c0.37-4.94,4.69-8.43,6.86-12.74C14.94,8.96,19.9,12,19.9,16.89c-0.03,0.25-0.04,0.5-0.04,0.75c-0.06,0.39-0.06,0.89,0.51,0.9
	c0.01,0,0.01-0.01,0.02-0.01c0.01,0,0.02,0.01,0.03,0.01c0.47-0.02,0.54-0.3,0.54-0.61c0.07-0.37,0.02-0.83,0.07-1.14
	c0.7-4.57,4.71-7.94,6.78-12.04c1.92,4.22,6.89,7.27,6.88,12.16c-0.02,0.24-0.04,0.48-0.04,0.72c-0.06,0.39-0.07,0.91,0.5,0.91
	c0.01,0,0.01-0.01,0.02-0.01c0.01,0,0.02,0.01,0.03,0.01c0.47-0.02,0.54-0.3,0.54-0.62c0.07-0.35,0.03-0.76,0.06-1.07
	c0.67-4.6,4.7-7.98,6.78-12.1c1.92,4.22,6.88,7.26,6.88,12.14c-0.03,0.25-0.04,0.5-0.04,0.75c-0.06,0.39-0.06,0.89,0.51,0.9
	c0.01,0,0.01-0.01,0.02-0.01c0.01,0,0.02,0.01,0.03,0.01c0.47-0.02,0.54-0.3,0.54-0.61c0.07-0.37,0.02-0.82,0.07-1.14
	c0.7-4.57,4.71-7.94,6.78-12.04c1.96,4.31,7.11,7.39,6.87,12.47c-0.01,0.07,0,0.15-0.01,0.22c-0.08,0.38-0.19,1.09,0.47,1.09
	c0.01,0,0.02-0.01,0.03-0.01c0.02,0,0.03,0.01,0.04,0.01c0.54-0.02,0.56-0.39,0.54-0.76c0.02-0.18,0.02-0.37,0.02-0.56
	c0.51-4.79,4.69-8.24,6.83-12.47c1.92,4.22,6.88,7.26,6.88,12.14c-0.03,0.25-0.04,0.5-0.04,0.75c-0.06,0.39-0.06,0.89,0.51,0.9
	c0.01,0,0.01-0.01,0.02-0.01c0.01,0,0.02,0.01,0.03,0.01c0.47-0.02,0.54-0.3,0.54-0.61c0.07-0.37,0.02-0.83,0.07-1.14
	c0.7-4.57,4.71-7.94,6.78-12.04c1.99,4.37,7.26,7.47,6.87,12.67c-0.08,0.37-0.21,1.11,0.47,1.12c0.84-0.1,0.56-1.2,0.66-1.77
	C94.84,11.7,90.11,8.69,87.97,4.43z"/>
</svg>
