<?xml version="1.0" encoding="utf-8"?>
<!-- Generator: Adobe Illustrator 23.0.0, SVG Export Plug-In . SVG Version: 6.00 Build 0)  -->
<svg version="1.1" id="Слой_1" xmlns="http://www.w3.org/2000/svg" xmlns:xlink="http://www.w3.org/1999/xlink" x="0px" y="0px"
	 viewBox="0 0 100 21.28" style="enable-background:new 0 0 100 21.28;" xml:space="preserve">
<path d="M94.06,8.45c0-0.09,0-0.19,0.01-0.29c0.03-0.66,0.12-1.51-0.56-1.79c-0.56-0.23-1.26-0.07-1.85-0.05
	c-0.77,0.03-1.54,0.05-2.31,0.07c-3.5,0.09-7,0.01-10.5,0.01c-4.91,0-9.82-0.15-14.72-0.12c-4.89,0.03-9.78,0.17-14.67,0.12
	c-2.53-0.02-5.06,0.02-7.59,0.02c-4.87,0-32.61-0.37-34.22-0.47C7.49,5.95,7.41,5.99,7.26,5.99C6.36,6,5.91,6.34,5.93,7.33
	c0.02,1.07-0.02,5.54-0.02,6.52c0,1.63,1.2,1.31,2.47,1.31c3.83-0.02,20.03-0.6,24.47-0.49c5.35,0.13,10.65,0.2,15.99,0.13
	c10.53-0.15,21.16,0.15,31.66,0.37c2.22,0.05,4.43,0.14,6.64,0.16c1.11,0.01,2.22,0.01,3.34-0.03c0.87-0.03,2.08,0.12,2.86-0.35
	c0.58-0.35,0.76-0.95,0.76-1.59c0-0.72-0.01-1.44-0.01-2.16C94.07,10.28,94.07,9.37,94.06,8.45z M11.54,9.33
	c-0.06,1.25-0.06,2.48-0.05,3.73c-1.26-0.01-2.55,0-3.8-0.06c-0.04,0-0.01-0.07,0-0.11c0.18-1.63,0.26-3.27,0.27-4.92
	c1.21,0.1,2.42,0.25,3.63,0.36C11.58,8.66,11.55,9.01,11.54,9.33z M13.52,12.97c-0.03-1.52,0.01-3.04,0.08-4.55
	c1.54,0.02,3.08-0.01,4.62-0.05c0,1.46-0.03,2.92,0.02,4.39C16.67,12.78,15.09,12.87,13.52,12.97z M21.36,12.84
	c-0.37-0.02-0.75-0.02-1.13-0.08c-0.06-1.11-0.03-3.46-0.02-4.27c0-0.06,0-0.1,0-0.14c0,0,0,0.01,0,0.01
	c1.32-0.14,2.65-0.09,3.98-0.14c0.04,1.56,0.07,3.11,0.16,4.66C23.36,12.89,22.36,12.9,21.36,12.84z M26.34,12.82
	c-0.04-0.55-0.06-1.09-0.08-1.64c-0.04-0.99-0.05-1.98-0.07-2.97c1.35-0.01,2.7-0.01,4.05,0.02c-0.06,1.48,0.05,2.95,0.15,4.43
	C29.04,12.7,27.69,12.76,26.34,12.82z M36.19,12.76c-0.8-0.03-1.6-0.07-2.41-0.11c-0.46-0.02-0.93-0.01-1.39-0.02
	c-0.05-0.39-0.1-0.88-0.11-1.25c-0.04-1.07-0.07-2.06-0.06-3.11c1.42,0.04,2.84,0.06,4.27,0.1C36.35,9.83,36.23,11.29,36.19,12.76z
	 M42.93,11.96c-0.01,0.27-0.04,0.61-0.03,0.89c-1.57,0.01-3.14,0-4.71-0.03c0.03-1.47,0.15-2.94,0.3-4.4c0.79,0,1.77,0.06,2.52,0.05
	c0.75-0.01,1.26-0.08,1.96-0.1C42.91,9.56,42.97,10.75,42.93,11.96z M44.89,12.84c0.06-1.53,0.02-3.05,0.07-4.58
	c1.03-0.04,2.07-0.07,3.1-0.09c0.01,1.55,0,3.09,0.07,4.64C47.06,12.83,45.98,12.83,44.89,12.84z M54.9,12.82
	c-0.75,0-1.33,0.03-2.12,0.02s-1.8-0.03-2.63-0.03c-0.09-1.55-0.07-3.1-0.07-4.65c1.72,0,3.44,0.08,5.16,0.18
	C55.14,9.84,54.91,11.32,54.9,12.82z M60.59,11.34c-0.04,0.49-0.13,1.18-0.24,1.7c-1.15-0.1-2.31-0.21-3.46-0.24
	c0.02-1.46,0.26-2.9,0.35-4.36c1.26,0.06,2.5,0,3.76-0.07C60.87,9.4,60.67,10.3,60.59,11.34z M67.16,8.27
	c-0.16,1.7-0.5,3.39-0.64,5.11c-1.35-0.03-2.7-0.1-4.04-0.16c-0.02-0.76,0.03-1.2,0.11-2.01s0.32-2.02,0.45-2.91
	c1.37-0.06,2.76-0.09,4.12-0.1C67.19,8.19,67.17,8.25,67.16,8.27z M68.55,13.42c0.14-1.71,0.44-3.41,0.63-5.11
	c0-0.04-0.03-0.12,0.01-0.12c1.46-0.01,2.95,0.03,4.42,0.1c-0.04,0.29-0.02,0.69-0.02,0.96c0.03,1.38,0.02,2.71,0.08,4.07
	C71.97,13.41,70.26,13.44,68.55,13.42z M78.99,13.17c-0.25,0-0.49-0.02-0.74-0.02c-0.85-0.01-1.7,0.03-2.55,0.07
	c-0.08-1.61-0.1-3.21-0.08-4.82c1.06,0.1,2.13,0.21,3.19,0.25c-0.04,0.15,0.01,0.27,0.03,0.41c0.14,0.87,0.16,1.67,0.19,2.57
	C79.06,12.09,78.98,12.69,78.99,13.17z M84.72,13.39c-1.25,0.02-2.5-0.02-3.75-0.08c0.03-0.22,0.04-0.47,0.04-0.69
	c-0.03-1.35,0.11-2.65-0.24-3.97c1-0.01,2-0.04,3-0.04c0.38,0,0.76-0.02,1.14-0.03C84.72,10.18,84.78,11.79,84.72,13.39z
	 M86.68,13.35c0.07-1.56,0.14-3.13,0.15-4.7c-0.01,0.03-0.02,0.1-0.02,0.12c0,0.02,0,0,0,0c0,0-0.01,0.03-0.01,0.02
	c0.02-0.08,0.02-0.18,0.02-0.26c1.68-0.05,3.36-0.15,5.04-0.2c0.04,1.61,0.1,3.22,0.21,4.83C90.28,13.23,88.48,13.3,86.68,13.35z"/>
</svg>
