<?xml version="1.0" encoding="utf-8"?>
<!-- Generator: Adobe Illustrator 23.0.0, SVG Export Plug-In . SVG Version: 6.00 Build 0)  -->
<svg version="1.1" id="Слой_1" xmlns="http://www.w3.org/2000/svg" xmlns:xlink="http://www.w3.org/1999/xlink" x="0px" y="0px"
	 viewBox="0 0 100 21.28" style="enable-background:new 0 0 100 21.28;" xml:space="preserve">
<g>
	<path d="M93.74,9.44c-0.24-0.31-0.73-0.4-1.04-0.13c-0.57,0.48-1.21,0.89-1.91,1.19c-0.02-0.49-0.18-1.05-0.27-1.37
		c-0.49-2.07-2.66-1.86-3.75-0.39c-0.16-1.61-1.92-3.08-3.37-1.91c0-2.89-3.1-3.69-4.27-0.96c-0.28-0.62-0.86-1.01-1.51-1.17
		c-0.84-0.2-1.7-0.11-2.33,0.52c-0.31,0.31-0.56,0.69-0.73,1.1c-0.07,0.17-0.49,1.16-0.34,1.31c-2-2.01-4.26,0.68-4.87,2.66
		c-0.65-1.48-2.5-2.11-3.83-1.14c0.65-3.56-2.75-4.5-4.65-1.78c-0.04,0.07-0.08,0.14-0.14,0.23c-0.06-0.57-0.2-1.11-0.29-1.38
		c-0.98-2.1-3.4-1.2-4,0.73C54.9,4.55,52,5.63,51.86,8.39c-1.23-1.21-2.98-0.44-3.6,1.04c-0.39-1.5-2.28-1.59-3.33-0.75
		c0.56-2.74-2.33-3.54-3.96-1.63c-0.2-0.96-0.51-2.35-1.58-2.63c-1.66-0.45-2.99,1-3.31,2.53c-1.38-2.12-4.34-1.29-4.1,1.38
		c-0.64-0.74-1.74-0.83-2.6-0.48c-1.08,0.52-1.54,1.82-1.74,2.94c-0.81-1.15-2.43-1.65-3.6-0.74c-0.18,0.13-0.39,0.26-0.6,0.4
		c0.16-2.31-2.02-5.22-4.31-3.49c-0.37-2.99-3.18-3.63-4.19-0.56c-1.78-3.52-4.46-1.2-4.54,1.83c-2.89-2.85-4.74,0.72-3.74,3.55
		c0.06,0.17,0.15,0.38,0.28,0.56c-0.07,0.06-0.14,0.11-0.21,0.17c-0.27,0.28-0.57,0.63-0.57,1.05c-0.04,0.84,0.69,0.87,1.45,0.21
		c2.05-1.84,4.34-3.52,6.95-4.46c0.86-0.34,1.92-0.37,2.74,0.17c2.84,1.55,5.32,4.36,8.68,4.66c3.14,0.07,5.53-2.31,8.16-3.7
		c2.06-1.03,4.82-0.96,6.86,0.14c1.08,0.46,2.02,1.18,2.96,1.86c0.46,0.33,0.92,0.66,1.41,0.94c1.11,0.64,2.76,0.29,3.91-0.07
		c1.21-0.38,2.35-0.97,3.49-1.54c2.23-1.11,4.66-2.26,7.19-1.51c0.16,0.05,0.31,0.1,0.47,0.16c1.63,0.65,2.76,2.09,4.51,2.69
		c2.82,1.02,5.8-0.11,8.26-1.55c2.27-1.32,4.76-3.28,7.51-2.31c0.62,0.31,1.08,0.83,1.55,1.31c1.21,1.22,2.88,1.8,4.56,2
		c0.75,0.09,1.51,0.09,2.26-0.02C90.03,12.41,94.72,11.11,93.74,9.44z M7.79,11.62c-0.15,0.12-0.13,0.04-0.18-0.06
		C7.36,11,7.3,10.37,7.38,9.77C7.46,9.24,7.55,8.35,8.2,8.19c0.86-0.2,1.63,0.92,1.98,1.54c0.02,0.03,0.03,0.07,0.05,0.11
		C9.39,10.4,8.58,11,7.79,11.62z M11.35,9.12c-0.02-0.29-0.03-0.56,0-0.74c0.11-0.62,0.12-1.23,0.42-1.81
		c0.23-0.46,0.74-1.16,1.35-0.9C13.71,5.93,14,6.75,14.25,7.3c0.07,0.16,0.07,0.33,0.08,0.5C13.29,8.11,12.28,8.65,11.35,9.12z
		 M18.03,8.2c-0.2-0.11-0.41-0.21-0.62-0.29c-0.63-0.3-1.27-0.37-1.92-0.31c0.08-0.01,0.53-1.24,0.61-1.38
		c0.19-0.34,0.43-0.86,0.89-0.84c0.54,0.02,0.87,0.64,1,1.09C18.19,6.99,18.15,7.63,18.03,8.2z M22.3,11.11
		c-1.14-0.76-2.23-1.66-3.36-2.38c0.28-0.42,0.56-0.88,1.02-1.14C21.81,6.84,22.75,9.64,22.3,11.11z M27.21,12.49
		c-0.13,0.03-0.25,0.08-0.38,0.11c-1.25,0.09-2.37-0.27-3.42-0.83c0.01,0,0.53-0.49,0.59-0.53c0.23-0.17,0.47-0.32,0.73-0.44
		c0.51-0.25,0.99-0.31,1.5,0.02c0.28,0.18,0.51,0.44,0.7,0.72C26.99,11.64,27.31,12.47,27.21,12.49z M28.41,12.07
		c0.16-1.2,0.29-2.52,1.3-3.28c0.9-0.38,1.66,0.07,2.04,0.95c0.03,0.09,0.08,0.2,0.13,0.3C30.75,10.76,29.64,11.53,28.41,12.07z
		 M34.2,8.77c-0.41,0.17-0.81,0.37-1.19,0.59c-0.02-1.03-0.35-2.23,0.76-2.61c0.74-0.05,1.39,0.36,1.68,1.09
		c0.06,0.15,0.14,0.37,0.25,0.55C35.18,8.48,34.68,8.6,34.2,8.77z M39.89,8.56c-1.04-0.29-2.13-0.38-3.21-0.3
		c0.3-0.68,0.36-1.48,0.78-2.16c0.4-0.68,1.78-1.22,2.1-0.21C40.02,6.69,40.07,7.65,39.89,8.56z M43.42,10.01
		c-0.04,0.05-0.09,0.12-0.14,0.18c-0.48-0.29-0.96-0.58-1.46-0.83c-0.31-0.18-0.64-0.33-0.97-0.46c0.07-0.17,0.13-0.33,0.22-0.45
		c0.6-0.84,1.91-2.16,2.84-0.98C44.18,8.29,43.82,9.22,43.42,10.01z M47.22,12.26c0,0.1-0.61-0.04-0.66-0.05
		c-0.59-0.12-0.99-0.45-1.46-0.8c-0.06-0.04-0.92-0.68-0.93-0.66c0.52-0.68,1.33-1.65,2.27-1.67c1.48-0.03,1,2.28,0.78,3.12
		C47.21,12.23,47.22,12.24,47.22,12.26z M48.29,12.04c0.32-1.07,0.65-2.14,1.44-2.98c0.84-0.79,1.84,0.27,2.24,1.06
		c0.03,0.09,0.04,0.2,0.07,0.3C50.81,11.02,49.57,11.63,48.29,12.04z M55.92,8.84c-1.01,0.26-1.98,0.67-2.94,1.12
		c-0.06-0.36-0.17-0.72-0.15-1.09c-0.01-0.82,0.26-1.93,1.11-2.24c0.95-0.17,1.8,0.67,1.96,1.6C55.97,8.42,55.93,8.64,55.92,8.84z
		 M59.77,8.46c-0.02,0.08-0.04,0.16-0.06,0.24c-0.13-0.02-0.26-0.05-0.39-0.06c-0.81-0.13-1.58-0.13-2.33-0.02
		c0.19-0.92,0.48-1.88,1.23-2.48C59.66,5.51,59.82,7.45,59.77,8.46z M64.25,10.1c-0.06,0.26-0.23,0.5-0.36,0.75
		c-0.94-0.61-1.83-1.33-2.83-1.77c-0.05-0.02,0.54-0.98,0.59-1.06c0.45-0.68,1.74-1.77,2.54-0.95C64.92,7.81,64.6,9.25,64.25,10.1z
		 M65.93,11.84c-0.42-0.11-0.8-0.29-1.18-0.48c0.11-0.19,0.22-0.39,0.38-0.55c1.55-1.92,3.41-1.2,3.6,1.02
		C67.83,12.03,66.91,12.07,65.93,11.84z M70.02,11.43c0.39-1.09,1.83-4.83,3.52-3.09c0.24,0.24,0.37,0.6,0.5,0.94
		C72.71,10.06,71.39,10.89,70.02,11.43z M75.15,8.67c0.05-0.03,0.04-0.82,0.05-0.92c0.04-0.32,0.1-0.64,0.22-0.94
		c0.14-0.37,0.36-0.73,0.69-0.95c0.49-0.33,1.5-0.39,1.9,0.12c0.32,0.41,0.58,0.97,0.58,1.53C77.4,7.63,76.27,8.09,75.15,8.67z
		 M81.98,8.26c-0.19-0.14-0.38-0.26-0.61-0.35c-0.6-0.24-1.18-0.36-1.74-0.41c0.05-0.21,0.1-0.42,0.18-0.63
		c0.53-1.95,2.37-2.52,2.61-0.07C82.48,7.39,82.25,7.79,81.98,8.26z M85.78,9.77c-0.02,0.1-0.04,0.21-0.07,0.31
		c-0.04,0.12-0.09,0.24-0.14,0.36c-0.02,0.05-0.13,0.3-0.16,0.29c-0.54-0.17-1.06-0.41-1.55-0.73c-0.46-0.28-0.81-0.7-1.18-1.09
		c0.49-0.52,0.93-1.14,1.63-1.43c0.34-0.08,0.67-0.01,0.93,0.23c0.26,0.24,0.41,0.59,0.49,0.93C85.82,9,85.84,9.4,85.78,9.77z
		 M89.75,10.87c-0.78,0.22-1.6,0.3-2.42,0.21c-0.32-0.01-0.63-0.05-0.95-0.11c0.67-0.92,1.32-2.37,2.54-2.37
		c0.72,0.22,0.84,1.39,0.86,2.07C89.77,10.73,89.76,10.8,89.75,10.87z"/>
	<path d="M9.34,13.43c-0.54,0-0.99,0.45-0.99,1c0,0.55,0.45,1,0.99,1c0.54,0,0.99-0.45,0.99-1C10.32,13.89,9.88,13.43,9.34,13.43z"
		/>
	<ellipse cx="12.31" cy="12.5" rx="0.99" ry="1"/>
	<path d="M15.54,9.88c-0.54,0-0.99,0.45-0.99,1c0,0.55,0.45,1,0.99,1c0.54,0,0.99-0.45,0.99-1C16.53,10.33,16.08,9.88,15.54,9.88z"
		/>
	<path d="M18.92,11.63c-0.54,0-0.99,0.45-0.99,1c0,0.55,0.45,1,0.99,1c0.54,0,0.99-0.45,0.99-1C19.9,12.08,19.46,11.63,18.92,11.63z
		"/>
	<ellipse cx="22.23" cy="14.7" rx="0.99" ry="1"/>
	<ellipse cx="26.17" cy="15.96" rx="0.99" ry="1"/>
	<ellipse cx="30.31" cy="14.94" rx="0.99" ry="1"/>
	<path d="M33.69,11.78c-0.54,0-0.99,0.45-0.99,1c0,0.55,0.45,1,0.99,1s0.99-0.45,0.99-1C34.68,12.24,34.23,11.78,33.69,11.78z"/>
	<ellipse cx="37.15" cy="11.34" rx="0.99" ry="1"/>
	<ellipse cx="40.28" cy="12.71" rx="0.99" ry="1"/>
	<ellipse cx="43.02" cy="14.78" rx="0.99" ry="1"/>
	<path d="M46.75,15.09c-0.54,0-0.99,0.45-0.99,1c0,0.55,0.45,1,0.99,1c0.54,0,0.99-0.45,0.99-1C47.74,15.54,47.29,15.09,46.75,15.09
		z"/>
	<path d="M50.42,14.24c-0.54,0-0.99,0.45-0.99,1c0,0.55,0.45,1,0.99,1c0.54,0,0.99-0.45,0.99-1C51.41,14.7,50.96,14.24,50.42,14.24z
		"/>
	<ellipse cx="54.03" cy="13.37" rx="0.99" ry="1"/>
	<path d="M57.31,11.1c-0.54,0-0.99,0.45-0.99,1c0,0.55,0.45,1,0.99,1c0.54,0,0.99-0.45,0.99-1C58.3,11.55,57.85,11.1,57.31,11.1z"/>
	<path d="M60.91,11.93c-0.54,0-0.99,0.45-0.99,1c0,0.55,0.45,1,0.99,1s0.99-0.45,0.99-1C61.9,12.38,61.45,11.93,60.91,11.93z"/>
	<ellipse cx="63.53" cy="14.53" rx="0.99" ry="1"/>
	<path d="M67.28,14.7c-0.54,0-0.99,0.45-0.99,1c0,0.55,0.45,1,0.99,1s0.99-0.45,0.99-1C68.26,15.15,67.82,14.7,67.28,14.7z"/>
	<path d="M70.69,13.81c-0.54,0-0.99,0.45-0.99,1c0,0.55,0.45,1,0.99,1s0.99-0.45,0.99-1C71.67,14.27,71.23,13.81,70.69,13.81z"/>
	<ellipse cx="74.02" cy="13.16" rx="0.99" ry="1"/>
	<path d="M77.43,10.24c-0.54,0-0.99,0.45-0.99,1c0,0.55,0.45,1,0.99,1s0.99-0.45,0.99-1C78.42,10.69,77.97,10.24,77.43,10.24z"/>
	<path d="M80.09,11.91c0.83,0.68,2.06-0.43,1.51-1.35C80.76,9.22,78.89,10.9,80.09,11.91z"/>
	<ellipse cx="83.41" cy="13.53" rx="0.99" ry="1"/>
	<ellipse cx="86.73" cy="13.97" rx="0.99" ry="1"/>
	<ellipse cx="90.3" cy="13.78" rx="0.99" ry="1"/>
</g>
</svg>
