<?xml version="1.0" encoding="utf-8"?>
<!-- Generator: Adobe Illustrator 23.0.0, SVG Export Plug-In . SVG Version: 6.00 Build 0)  -->
<svg version="1.1" id="Слой_1" xmlns="http://www.w3.org/2000/svg" xmlns:xlink="http://www.w3.org/1999/xlink" x="0px" y="0px"
	 viewBox="0 0 100 21.28" style="enable-background:new 0 0 100 21.28;" xml:space="preserve">
<g>
	<path d="M95.38,19.06H4.63c-0.28,0-0.5,0.22-0.5,0.5s0.22,0.5,0.5,0.5h90.75c0.28,0,0.5-0.22,0.5-0.5S95.65,19.06,95.38,19.06z"/>
	<path d="M4.67,17.56h90.66c0.28,0,0.5-0.22,0.5-0.49s-0.22-0.49-0.5-0.49h-1.64c0.26-0.66,0.44-1.32,0.62-2
		c0.05-0.2,0.09-0.32,0.14-0.52c0.37-1.63,0.57-3.07,0.5-4.79C94.9,8.3,94.77,7.1,94.58,6.12c-0.11-0.56-0.28-1.19-0.47-1.7
		c-0.18-0.51-0.42-0.99-0.7-1.38c-0.28-0.38-0.49-0.6-0.86-0.83c-0.38-0.23-0.81-0.33-1.25-0.27c-0.98,0.13-1.74,0.75-2.35,1.46
		c-0.61,0.71-1.05,1.44-1.45,2.23c-0.4,0.79-0.64,1.46-0.85,2.33c-0.1,0.4-0.18,0.79-0.25,1.27c-0.33,2.37-0.29,4.81-0.07,7.22
		c0,0.02-0.01-0.01,0,0.05c0.01,0.04,0,0.02,0.01,0.08h-1.59c0.27-0.79,0.44-1.61,0.57-2.43c0.04-0.22,0.07-0.45,0.1-0.68
		c0.26-1.78,0.33-3.6,0.21-5.39c-0.07-1-0.21-2.01-0.45-2.99c-0.14-0.56-0.32-1.11-0.55-1.64c-0.21-0.46-0.46-0.92-0.79-1.31
		c-0.26-0.3-0.55-0.56-0.91-0.73c-0.39-0.19-0.85-0.24-1.27-0.14C80.71,1.49,80,2.3,79.52,3.07c-0.48,0.77-0.85,1.61-1.14,2.46
		c-0.27,0.79-0.48,1.6-0.65,2.42c-0.08,0.37-0.16,0.81-0.23,1.26c-0.33,2.18-0.38,5.06-0.11,7.25c0,0.01,0,0.03,0,0.04
		c0,0.02,0.01,0.04,0.01,0.07H75.8c0.22-0.75,0.34-1.48,0.42-2.25c0.02-0.21,0.04-0.38,0.05-0.61c0.09-1.78,0.2-3.52,0.25-5.34
		c0.03-1.02-0.04-2.16-0.19-3.2C76.25,4.6,76.11,4,75.93,3.44c-0.19-0.56-0.45-0.97-0.9-1.29s-0.83-0.47-1.34-0.61
		s-1.21-0.11-1.67,0.03c-1.01,0.3-1.52,0.95-1.93,1.76c-0.41,0.81-0.56,1.5-0.77,2.31c-0.21,0.82-0.35,1.52-0.55,2.37
		c-0.09,0.39-0.17,0.79-0.24,1.27c-0.33,2.36-0.31,4.78-0.06,7.18c0,0.02-0.01-0.01,0,0.05c0.01,0.04,0,0.03,0.01,0.06h-1.6
		c0.27-0.79,0.44-1.61,0.57-2.43c0.04-0.22,0.07-0.45,0.1-0.68c0.26-1.78,0.33-3.6,0.21-5.39c-0.07-1-0.21-2.01-0.45-2.99
		c-0.14-0.56-0.32-1.11-0.55-1.64c-0.21-0.46-0.46-0.92-0.79-1.31c-0.26-0.3-0.55-0.56-0.91-0.73c-0.39-0.19-0.85-0.24-1.27-0.14
		c-0.93,0.21-1.64,1.03-2.12,1.8c-0.48,0.77-0.85,1.61-1.14,2.46c-0.27,0.79-0.48,1.6-0.65,2.42c-0.08,0.37-0.16,0.81-0.23,1.26
		c-0.33,2.18-0.38,5.06-0.11,7.25c0,0.01,0,0.03,0,0.04c0,0.02,0.01,0.04,0.01,0.07h-1.62c0.17-0.91,0.14-1.82,0.35-2.7
		c0.05-0.24,0.1-0.44,0.14-0.67c0.34-1.81,0.58-3.57,0.49-5.42c-0.05-1.03-0.22-2.14-0.49-3.12c-0.15-0.55-0.47-0.98-0.76-1.39
		c-0.29-0.41-0.64-0.71-1-0.96c-0.36-0.25-0.64-0.37-1.05-0.46c-0.4-0.09-0.89-0.1-1.28,0.04c-0.85,0.31-1.44,0.93-1.89,1.65
		s-0.7,1.4-0.95,2.17c-0.25,0.78-0.38,1.47-0.5,2.31c-0.06,0.39-0.11,0.79-0.15,1.27c-0.19,2.33-0.12,4.77-0.22,7.15
		c0,0.02-0.01-0.01,0,0.05c0,0.04-0.01,0.02,0,0.08h-1.6c0.27-0.79,0.44-1.61,0.57-2.43c0.04-0.22,0.07-0.45,0.1-0.68
		c0.26-1.78,0.33-3.6,0.21-5.39c-0.07-1-0.21-2.01-0.45-2.99c-0.14-0.56-0.32-1.11-0.55-1.64c-0.21-0.46-0.46-0.92-0.79-1.31
		c-0.26-0.3-0.55-0.56-0.91-0.73c-0.39-0.19-0.85-0.24-1.27-0.14c-0.93,0.21-1.64,1.03-2.12,1.8c-0.48,0.77-0.85,1.61-1.14,2.46
		c-0.27,0.79-0.48,1.6-0.65,2.42c-0.08,0.37-0.16,0.81-0.23,1.26c-0.33,2.18-0.38,5.06-0.11,7.25c0,0.01,0,0.03,0,0.04
		c0,0.02,0.01,0.04,0.01,0.07h-1.58c0.29-0.86,0.52-1.71,0.71-2.59c0.05-0.24,0.1-0.49,0.15-0.74c0.33-1.99,0.41-4.07,0.27-6.05
		c-0.08-1.11-0.22-2.2-0.62-3.14c-0.22-0.53-0.48-0.8-0.8-1.16s-0.67-0.6-1.05-0.8c-0.37-0.2-0.67-0.28-1.08-0.35
		c-0.4-0.07-0.88-0.02-1.26,0.12c-0.82,0.32-1.38,0.99-1.81,1.69c-0.43,0.7-0.7,1.32-0.94,2.1c-0.23,0.78-0.31,1.55-0.42,2.4
		c-0.05,0.39-0.1,0.79-0.14,1.27c-0.19,2.33-0.19,4.76-0.36,7.13c0,0.02-0.01-0.01,0,0.05c0,0.04-0.01,0.02,0,0.08h-1.61
		c0.27-0.79,0.44-1.61,0.57-2.43c0.04-0.22,0.07-0.45,0.1-0.68c0.26-1.78,0.33-3.6,0.21-5.39c-0.07-1-0.21-2.01-0.45-2.99
		c-0.14-0.56-0.32-1.11-0.55-1.64c-0.21-0.46-0.46-0.92-0.79-1.31c-0.26-0.3-0.55-0.56-0.91-0.73c-0.39-0.19-0.85-0.24-1.27-0.14
		c-0.93,0.21-1.64,1.03-2.12,1.8c-0.48,0.77-0.85,1.61-1.14,2.46c-0.27,0.79-0.48,1.6-0.65,2.42c-0.08,0.37-0.16,0.81-0.23,1.26
		c-0.33,2.18-0.38,5.06-0.11,7.25c0,0.01,0,0.03,0,0.04c0,0.02,0.01,0.04,0.01,0.07h-1.6c0.26-0.81,0.42-1.6,0.55-2.43
		c0.04-0.23,0.07-0.45,0.1-0.67c0.2-1.79,0.27-3.58,0.16-5.38c-0.06-1.01-0.21-2.01-0.43-2.99c-0.12-0.55-0.31-1.15-0.51-1.63
		c-0.2-0.48-0.44-0.92-0.79-1.21s-0.58-0.4-0.98-0.53c-0.4-0.13-0.87-0.2-1.29-0.12c-0.93,0.18-1.81,0.71-2.34,1.48
		c-0.53,0.76-0.78,1.64-1.05,2.48c-0.27,0.84-0.41,1.58-0.58,2.45c-0.08,0.4-0.14,0.78-0.19,1.26c-0.25,2.36-0.26,4.79,0.01,7.18
		c0,0.02-0.01-0.01,0.01,0.05c0.01,0.03,0,0.03,0,0.05H13.3c0.27-0.79,0.44-1.61,0.57-2.43c0.04-0.22,0.07-0.45,0.1-0.68
		c0.26-1.78,0.33-3.6,0.21-5.39c-0.07-1-0.21-2.01-0.45-2.99c-0.14-0.56-0.32-1.11-0.55-1.64c-0.21-0.46-0.46-0.92-0.79-1.31
		c-0.26-0.3-0.55-0.56-0.91-0.73c-0.39-0.19-0.85-0.24-1.27-0.14C9.27,1.49,8.57,2.3,8.08,3.07C7.6,3.84,7.23,4.68,6.94,5.54
		c-0.27,0.79-0.48,1.6-0.65,2.42C6.21,8.33,6.13,8.77,6.06,9.21c-0.33,2.18-0.38,5.06-0.11,7.25c0,0.01,0,0.03,0,0.04
		c0,0.02,0.01,0.04,0.01,0.07h-1.3c-0.28,0-0.5,0.22-0.5,0.49S4.39,17.56,4.67,17.56z M87.17,11.43c0.07-1.11,0.23-2.15,0.46-3.22
		c0-0.02,0.02-0.07,0.02-0.1c0.15-0.69,0.55-1.63,0.82-2.18c0.27-0.55,0.57-0.99,0.81-1.34c0.24-0.36,0.4-0.5,0.58-0.72
		c0.18-0.21,0.3-0.29,0.45-0.42c0.14-0.13,0.27-0.2,0.38-0.27c0.11-0.07,0.17-0.09,0.26-0.14c0.08-0.04,0.14-0.05,0.2-0.08
		c0.06-0.02,0.09-0.03,0.14-0.04s0.08-0.01,0.13-0.02c0.05,0,0.12-0.01,0.17,0c0.05,0,0.1,0.01,0.14,0.02s0.05,0.01,0.09,0.02
		c0.04,0.01,0.08,0.03,0.13,0.05c0.05,0.02,0.11,0.06,0.16,0.09c0.05,0.03,0.07,0.04,0.11,0.08c0.05,0.04,0.1,0.08,0.16,0.15
		c0.06,0.07,0.09,0.09,0.16,0.19c0.07,0.1,0.14,0.18,0.24,0.36c0.09,0.17,0.19,0.32,0.29,0.59c0.1,0.27,0.19,0.46,0.31,0.89
		c0.11,0.42,0.23,0.92,0.33,1.55s0.22,1.7,0.24,2.45c0.01,0.36,0.03,0.9,0.02,1.24c-0.07,1.55-0.38,2.91-0.81,4.4
		c-0.14,0.49-0.38,1.03-0.39,1.59h-5.43c0-0.01,0.01-0.02,0.01-0.03c0-0.16-0.01-0.07-0.01-0.12c0-0.05,0-0.03,0-0.05
		c-0.04-0.46-0.09-1.29-0.12-1.67C87.12,13.52,87.1,12.54,87.17,11.43z M78.27,11.34c0.08-1.07,0.22-2.14,0.44-3.21l0.02-0.09
		c0.16-0.75,0.38-1.56,0.65-2.35c0.18-0.49,0.39-1,0.64-1.48c0.12-0.24,0.29-0.52,0.47-0.8c0.1-0.15,0.24-0.32,0.38-0.49
		c0.09-0.1,0.21-0.22,0.34-0.33c0.04-0.03,0.13-0.11,0.23-0.17c0.06-0.04,0.12-0.07,0.18-0.1c0,0,0.06-0.03,0.13-0.05
		c0.04-0.01,0.08-0.02,0.12-0.03c0.05-0.01,0.11-0.02,0.16-0.02c0.05,0,0.09,0,0.14,0c0.03,0,0.06,0.01,0.08,0.01
		c0.04,0.01,0.09,0.02,0.13,0.03c0.06,0.02,0.11,0.04,0.17,0.07c0.03,0.02,0.07,0.04,0.12,0.07c0.06,0.04,0.11,0.09,0.17,0.13
		c0.06,0.05,0.12,0.11,0.17,0.17c0.09,0.11,0.18,0.21,0.26,0.33c0.12,0.18,0.23,0.37,0.32,0.56c0.12,0.23,0.24,0.53,0.35,0.84
		c0.15,0.44,0.29,0.96,0.39,1.48c0.15,0.73,0.25,1.53,0.3,2.33c0.03,0.39,0.04,0.79,0.05,1.18c0.03,1.79-0.14,3.59-0.5,5.34
		c-0.12,0.58-0.38,1.21-0.36,1.81H78.4c0-0.02,0.01-0.04,0-0.07c0-0.03-0.01-0.07-0.01-0.1c0-0.01,0-0.02,0-0.03
		c-0.05-0.38-0.1-1.38-0.12-1.73C78.19,13.54,78.2,12.44,78.27,11.34z M69.28,11.41c0.07-1.12,0.25-2.16,0.47-3.25
		c0-0.02,0.02-0.08,0.02-0.1c0.16-0.66,0.4-1.67,0.54-2.24c0.14-0.57,0.29-1.01,0.41-1.38c0.13-0.38,0.22-0.52,0.33-0.76
		c0.11-0.23,0.19-0.32,0.29-0.47c0.1-0.15,0.19-0.23,0.28-0.32c0.09-0.09,0.16-0.13,0.24-0.18C71.94,2.66,72,2.63,72.07,2.6
		c0.06-0.04,0.1-0.04,0.15-0.07c0.06-0.02,0.09-0.03,0.15-0.05c0.06-0.02,0.15-0.04,0.22-0.05s0.13-0.02,0.19-0.02s0.07,0,0.12,0
		s0.11,0.01,0.18,0.01c0.07,0.01,0.17,0.02,0.24,0.04c0.07,0.02,0.1,0.02,0.18,0.05c0.08,0.03,0.16,0.05,0.25,0.1
		c0.09,0.05,0.15,0.06,0.27,0.15c0.12,0.08,0.25,0.14,0.39,0.29s0.3,0.27,0.42,0.55c0.12,0.27,0.23,0.46,0.34,0.89
		c0.11,0.43,0.22,0.94,0.28,1.58c0.06,0.64,0.11,1.7,0.08,2.46c-0.02,0.37-0.04,0.88-0.06,1.26c-0.13,1.71-0.11,3.37-0.33,5.07
		c-0.07,0.56-0.27,1.12-0.25,1.7h-5.43c0-0.01,0-0.02,0-0.02c-0.01-0.16-0.01-0.08-0.01-0.13s0-0.03,0-0.05
		c-0.05-0.46-0.11-1.29-0.14-1.67C69.23,13.51,69.2,12.52,69.28,11.41z M60.41,11.34c0.08-1.07,0.22-2.14,0.44-3.21l0.02-0.09
		c0.16-0.75,0.38-1.56,0.65-2.35c0.18-0.49,0.39-1,0.64-1.48c0.12-0.24,0.29-0.52,0.47-0.8c0.1-0.15,0.24-0.32,0.38-0.49
		c0.09-0.1,0.21-0.22,0.34-0.33c0.04-0.03,0.13-0.11,0.23-0.17c0.06-0.04,0.12-0.07,0.18-0.1c0,0,0.06-0.03,0.13-0.05
		c0.04-0.01,0.08-0.02,0.12-0.03c0.05-0.01,0.11-0.02,0.16-0.02c0.05,0,0.09,0,0.14,0c0.03,0,0.06,0.01,0.08,0.01
		c0.04,0.01,0.09,0.02,0.13,0.03c0.06,0.02,0.11,0.04,0.17,0.07c0.03,0.02,0.07,0.04,0.12,0.07c0.06,0.04,0.11,0.09,0.17,0.13
		c0.06,0.05,0.12,0.11,0.17,0.17c0.09,0.11,0.18,0.21,0.26,0.33c0.12,0.18,0.23,0.37,0.32,0.56c0.12,0.23,0.24,0.53,0.35,0.84
		c0.15,0.44,0.29,0.96,0.39,1.48c0.15,0.73,0.25,1.53,0.3,2.33c0.03,0.39,0.04,0.79,0.05,1.18c0.03,1.79-0.14,3.59-0.5,5.34
		c-0.12,0.58-0.38,1.21-0.36,1.81h-5.42c0-0.02,0.01-0.04,0-0.07c0-0.03-0.01-0.07-0.01-0.1c0-0.01,0-0.02,0-0.03
		c-0.05-0.38-0.1-1.38-0.12-1.73C60.33,13.54,60.34,12.44,60.41,11.34z M51.62,16.56c0.01-0.16,0-0.08,0-0.13s0-0.03,0-0.05
		c0.01-0.47,0.08-1.31,0.09-1.7c0.03-1.2-0.04-2.2-0.01-3.31c0.04-1.11,0.14-2.15,0.28-3.25c0-0.02,0.01-0.08,0.02-0.1
		c0.08-0.65,0.32-1.63,0.49-2.17c0.17-0.54,0.36-0.95,0.52-1.3c0.16-0.35,0.27-0.48,0.4-0.69c0.13-0.21,0.22-0.29,0.32-0.42
		s0.2-0.21,0.29-0.28s0.14-0.1,0.21-0.14c0.07-0.05,0.12-0.07,0.17-0.1c0.05-0.03,0.08-0.04,0.12-0.06s0.07-0.03,0.12-0.04
		c0.05-0.01,0.11-0.04,0.16-0.05s0.1-0.02,0.14-0.02s0.05,0,0.09-0.01c0.04,0,0.08,0,0.13,0c0.05,0,0.12,0.01,0.18,0.02
		c0.05,0.01,0.08,0.01,0.13,0.03s0.12,0.04,0.19,0.07c0.07,0.04,0.11,0.04,0.21,0.1c0.1,0.06,0.19,0.1,0.32,0.22
		c0.13,0.11,0.26,0.19,0.42,0.4c0.16,0.2,0.3,0.29,0.49,0.65c0.2,0.36,0.4,0.77,0.52,1.38c0.12,0.61,0.28,1.63,0.3,2.37
		c0.01,0.36,0.03,0.8,0.01,1.2c-0.08,1.83-0.53,3.51-0.79,5.35c-0.09,0.61-0.17,1.36-0.11,2.03L51.62,16.56
		C51.62,16.57,51.62,16.57,51.62,16.56z M42.55,11.34c0.08-1.07,0.22-2.14,0.44-3.21l0.02-0.09c0.16-0.75,0.38-1.56,0.65-2.35
		c0.18-0.49,0.39-1,0.64-1.48c0.12-0.24,0.29-0.52,0.47-0.8c0.1-0.15,0.24-0.32,0.38-0.49c0.09-0.1,0.21-0.22,0.34-0.33
		c0.04-0.03,0.13-0.11,0.23-0.17c0.06-0.04,0.12-0.07,0.18-0.1c0,0,0.06-0.03,0.13-0.05c0.04-0.01,0.08-0.02,0.12-0.03
		c0.05-0.01,0.11-0.02,0.16-0.02c0.05,0,0.09,0,0.14,0c0.03,0,0.06,0.01,0.08,0.01c0.04,0.01,0.09,0.02,0.13,0.03
		c0.06,0.02,0.11,0.04,0.17,0.07c0.03,0.02,0.07,0.04,0.12,0.07c0.06,0.04,0.11,0.09,0.17,0.13c0.06,0.05,0.12,0.11,0.17,0.17
		c0.09,0.11,0.18,0.21,0.26,0.33c0.12,0.18,0.23,0.37,0.32,0.56c0.12,0.23,0.24,0.53,0.35,0.84c0.15,0.44,0.29,0.96,0.39,1.48
		c0.15,0.73,0.25,1.53,0.3,2.33c0.03,0.39,0.04,0.79,0.05,1.18c0.03,1.79-0.14,3.59-0.5,5.34c-0.12,0.58-0.38,1.21-0.36,1.81h-5.42
		c0-0.02,0.01-0.04,0-0.07c0-0.03-0.01-0.07-0.01-0.1c0-0.01,0-0.02,0-0.03c-0.05-0.38-0.1-1.38-0.12-1.73
		C42.47,13.54,42.48,12.44,42.55,11.34z M33.77,16.57c0.01-0.16,0-0.08,0-0.13c0-0.05,0-0.03,0-0.05c0.02-0.47,0.12-1.32,0.14-1.71
		c0.06-1.2,0.01-2.19,0.06-3.31c0.05-1.11,0.16-2.15,0.28-3.25c0-0.02,0.01-0.08,0.01-0.1c0.07-0.67,0.25-1.73,0.42-2.28
		c0.17-0.55,0.36-0.93,0.52-1.27c0.16-0.35,0.27-0.46,0.39-0.67c0.13-0.21,0.21-0.28,0.32-0.41s0.19-0.21,0.28-0.29
		c0.09-0.08,0.14-0.1,0.2-0.15c0.07-0.05,0.11-0.06,0.16-0.09c0.05-0.03,0.07-0.03,0.12-0.05c0.04-0.02,0.07-0.03,0.11-0.05
		s0.11-0.04,0.15-0.05c0.05-0.01,0.1-0.03,0.14-0.04c0.04-0.01,0.05-0.01,0.09-0.02c0.04-0.01,0.08-0.01,0.13-0.01
		c0.05,0,0.12,0,0.18,0.01c0.05,0.01,0.08,0.01,0.14,0.02c0.06,0.01,0.12,0.03,0.19,0.06c0.07,0.03,0.11,0.03,0.21,0.08
		c0.1,0.05,0.19,0.07,0.33,0.16c0.13,0.09,0.26,0.14,0.43,0.31c0.17,0.17,0.29,0.21,0.5,0.53c0.21,0.32,0.41,0.56,0.57,1.15
		c0.16,0.59,0.35,1.71,0.39,2.48c0.02,0.38,0.07,0.89,0.07,1.33c0.01,1.99-0.21,3.94-0.69,5.88c-0.16,0.64-0.45,1.23-0.44,1.9
		L33.77,16.57C33.77,16.57,33.77,16.57,33.77,16.57z M24.69,11.34c0.08-1.07,0.22-2.14,0.44-3.21l0.02-0.09
		c0.16-0.75,0.38-1.56,0.65-2.35c0.18-0.49,0.39-1,0.64-1.48c0.12-0.24,0.29-0.52,0.47-0.8c0.1-0.15,0.24-0.32,0.38-0.49
		c0.09-0.1,0.21-0.22,0.34-0.33c0.04-0.03,0.13-0.11,0.23-0.17c0.06-0.04,0.12-0.07,0.18-0.1c0,0,0.06-0.03,0.13-0.05
		c0.04-0.01,0.08-0.02,0.12-0.03c0.05-0.01,0.11-0.02,0.16-0.02c0.05,0,0.09,0,0.14,0c0.03,0,0.06,0.01,0.08,0.01
		c0.04,0.01,0.09,0.02,0.13,0.03c0.06,0.02,0.11,0.04,0.17,0.07c0.03,0.02,0.07,0.04,0.12,0.07c0.06,0.04,0.11,0.09,0.17,0.13
		c0.06,0.05,0.12,0.11,0.17,0.17c0.09,0.11,0.18,0.21,0.26,0.33C29.8,3.21,29.91,3.4,30,3.59c0.12,0.23,0.24,0.53,0.35,0.84
		c0.15,0.44,0.29,0.96,0.39,1.48c0.15,0.73,0.25,1.53,0.3,2.33c0.03,0.39,0.04,0.79,0.05,1.18c0.03,1.79-0.14,3.59-0.5,5.34
		c-0.12,0.58-0.38,1.21-0.36,1.81h-5.42c0-0.02,0.01-0.04,0-0.07c0-0.03-0.01-0.07-0.01-0.1c0-0.01,0-0.02,0-0.03
		c-0.05-0.38-0.1-1.38-0.12-1.73C24.61,13.54,24.62,12.44,24.69,11.34z M15.69,11.39c0.05-1.11,0.19-2.13,0.36-3.21
		c0-0.02,0.01-0.07,0.02-0.09c0.12-0.7,0.38-1.72,0.56-2.32c0.18-0.6,0.4-1.1,0.56-1.51s0.29-0.57,0.46-0.79
		c0.18-0.22,0.3-0.28,0.45-0.41c0.15-0.13,0.28-0.18,0.39-0.25c0.12-0.07,0.18-0.09,0.27-0.13c0.08-0.04,0.14-0.05,0.21-0.07
		c0.06-0.02,0.09-0.02,0.15-0.03c0.05-0.01,0.08-0.01,0.13-0.02c0.05-0.01,0.12-0.01,0.17-0.01c0.05,0,0.1,0.01,0.15,0.01
		s0.05,0,0.09,0.01s0.08,0.01,0.13,0.02c0.05,0.01,0.12,0.02,0.17,0.04s0.07,0.02,0.13,0.04c0.06,0.02,0.11,0.04,0.18,0.08
		c0.07,0.04,0.1,0.04,0.19,0.11s0.17,0.1,0.28,0.24c0.11,0.14,0.21,0.27,0.32,0.52c0.11,0.25,0.2,0.45,0.32,0.86
		c0.12,0.41,0.26,0.89,0.37,1.49c0.11,0.6,0.25,1.58,0.29,2.3c0.02,0.35,0.05,0.78,0.05,1.18c0.01,1.79-0.11,3.55-0.44,5.33
		c-0.11,0.59-0.34,1.18-0.33,1.81h-5.43c0-0.01,0.01-0.02,0.01-0.03c-0.01-0.16-0.01-0.08-0.01-0.13c0-0.05,0-0.03-0.01-0.05
		c-0.05-0.46-0.12-1.3-0.14-1.68C15.66,13.5,15.64,12.5,15.69,11.39z M6.83,11.34c0.08-1.07,0.22-2.14,0.44-3.21l0.02-0.09
		C7.45,7.29,7.67,6.48,7.94,5.7c0.18-0.49,0.39-1,0.64-1.48c0.12-0.24,0.29-0.52,0.47-0.8c0.1-0.15,0.24-0.32,0.38-0.49
		c0.09-0.1,0.21-0.22,0.34-0.33C9.8,2.57,9.9,2.5,9.99,2.43c0.06-0.04,0.12-0.07,0.18-0.1c0,0,0.06-0.03,0.13-0.05
		c0.04-0.01,0.08-0.02,0.12-0.03c0.05-0.01,0.11-0.02,0.16-0.02c0.05,0,0.09,0,0.14,0c0.03,0,0.06,0.01,0.08,0.01
		c0.04,0.01,0.09,0.02,0.13,0.03c0.06,0.02,0.11,0.04,0.17,0.07c0.03,0.02,0.07,0.04,0.12,0.07c0.06,0.04,0.11,0.09,0.17,0.13
		c0.06,0.05,0.12,0.11,0.17,0.17c0.09,0.11,0.18,0.21,0.26,0.33c0.12,0.18,0.23,0.37,0.32,0.56c0.12,0.23,0.24,0.53,0.35,0.84
		c0.15,0.44,0.29,0.96,0.39,1.48c0.15,0.73,0.25,1.53,0.3,2.33c0.03,0.39,0.04,0.79,0.05,1.18c0.03,1.79-0.14,3.59-0.5,5.34
		c-0.12,0.58-0.38,1.21-0.36,1.81H6.96c0-0.02,0.01-0.04,0-0.07c0-0.03-0.01-0.07-0.01-0.1c0-0.01,0-0.02,0-0.03
		c-0.05-0.38-0.1-1.38-0.12-1.73C6.76,13.54,6.76,12.44,6.83,11.34z"/>
</g>
</svg>
