<?xml version="1.0" encoding="utf-8"?>
<!-- Generator: Adobe Illustrator 23.0.0, SVG Export Plug-In . SVG Version: 6.00 Build 0)  -->
<svg version="1.1" id="Слой_1" xmlns="http://www.w3.org/2000/svg" xmlns:xlink="http://www.w3.org/1999/xlink" x="0px" y="0px"
	 viewBox="0 0 100 21.28" width="100" height="21.28" style="enable-background:new 0 0 100 21.28;" xml:space="preserve">
<path d="M95.33,17.91h-1.66c0.27-0.8,0.44-1.63,0.57-2.46c0.04-0.23,0.07-0.46,0.1-0.68c0.26-1.8,0.33-3.65,0.21-5.46
	c-0.07-1.02-0.21-2.04-0.45-3.02c-0.14-0.56-0.32-1.12-0.55-1.66c-0.21-0.47-0.46-0.93-0.79-1.32C92.5,3,92.21,2.74,91.85,2.56
	C91.45,2.37,91,2.32,90.57,2.42c-0.93,0.21-1.64,1.04-2.12,1.82c-0.48,0.78-0.85,1.63-1.14,2.5c-0.27,0.8-0.48,1.62-0.65,2.45
	c-0.08,0.38-0.16,0.82-0.23,1.27c-0.33,2.21-0.38,5.13-0.11,7.34c0,0.01,0,0.03,0,0.04c0,0.02,0.01,0.04,0.01,0.07h-1.6
	c0.27-0.8,0.44-1.63,0.57-2.46c0.04-0.23,0.07-0.46,0.1-0.68c0.26-1.8,0.33-3.65,0.21-5.46c-0.07-1.02-0.21-2.04-0.45-3.02
	c-0.14-0.56-0.32-1.12-0.55-1.66c-0.21-0.47-0.46-0.93-0.79-1.32c-0.26-0.3-0.55-0.56-0.91-0.74c-0.39-0.19-0.85-0.24-1.27-0.14
	c-0.93,0.21-1.64,1.04-2.12,1.82c-0.48,0.78-0.85,1.63-1.14,2.5c-0.27,0.8-0.48,1.62-0.65,2.45c-0.08,0.38-0.16,0.82-0.23,1.27
	c-0.33,2.21-0.38,5.13-0.11,7.34c0,0.01,0,0.03,0,0.04c0,0.02,0.01,0.04,0.01,0.07h-1.6c0.27-0.8,0.44-1.63,0.57-2.46
	c0.04-0.23,0.07-0.46,0.1-0.68c0.26-1.8,0.33-3.65,0.21-5.46c-0.07-1.02-0.21-2.04-0.45-3.02c-0.14-0.56-0.32-1.12-0.55-1.66
	C75.48,4.16,75.23,3.7,74.9,3.3c-0.26-0.3-0.55-0.56-0.91-0.74c-0.39-0.19-0.85-0.24-1.27-0.14c-0.93,0.21-1.64,1.04-2.12,1.82
	c-0.48,0.78-0.85,1.63-1.14,2.5c-0.27,0.8-0.48,1.62-0.65,2.45c-0.08,0.38-0.16,0.82-0.23,1.27c-0.33,2.21-0.38,5.13-0.11,7.34
	c0,0.01,0,0.03,0,0.04c0,0.02,0.01,0.04,0.01,0.07h-1.6c0.27-0.8,0.44-1.63,0.57-2.46c0.04-0.23,0.07-0.46,0.1-0.68
	c0.26-1.8,0.33-3.65,0.21-5.46c-0.07-1.02-0.21-2.04-0.45-3.02c-0.14-0.56-0.32-1.12-0.55-1.66C66.55,4.16,66.3,3.7,65.97,3.3
	c-0.26-0.3-0.55-0.56-0.91-0.74c-0.39-0.19-0.85-0.24-1.27-0.14c-0.93,0.21-1.64,1.04-2.12,1.82c-0.48,0.78-0.85,1.63-1.14,2.5
	c-0.27,0.8-0.48,1.62-0.65,2.45c-0.08,0.38-0.16,0.82-0.23,1.27c-0.33,2.21-0.38,5.13-0.11,7.34c0,0.01,0,0.03,0,0.04
	c0,0.02,0.01,0.04,0.01,0.07h-1.6c0.27-0.8,0.44-1.63,0.57-2.46c0.04-0.23,0.07-0.46,0.1-0.68c0.26-1.8,0.33-3.65,0.21-5.46
	c-0.07-1.02-0.21-2.04-0.45-3.02c-0.14-0.56-0.32-1.12-0.55-1.66c-0.21-0.47-0.46-0.93-0.79-1.32c-0.26-0.3-0.55-0.56-0.91-0.74
	c-0.39-0.19-0.85-0.24-1.27-0.14c-0.93,0.21-1.64,1.04-2.12,1.82c-0.48,0.78-0.85,1.63-1.14,2.5c-0.27,0.8-0.48,1.62-0.65,2.45
	c-0.08,0.38-0.16,0.82-0.23,1.27c-0.33,2.21-0.38,5.13-0.11,7.34c0,0.01,0,0.03,0,0.04c0,0.02,0.01,0.04,0.01,0.07h-1.6
	c0.27-0.8,0.44-1.63,0.57-2.46c0.04-0.23,0.07-0.46,0.1-0.68c0.26-1.8,0.33-3.65,0.21-5.46c-0.07-1.02-0.21-2.04-0.45-3.02
	c-0.14-0.56-0.32-1.12-0.55-1.66C48.7,4.16,48.45,3.7,48.11,3.3C47.86,3,47.56,2.74,47.2,2.56c-0.39-0.19-0.85-0.24-1.27-0.14
	c-0.93,0.21-1.64,1.04-2.12,1.82c-0.48,0.78-0.85,1.63-1.14,2.5c-0.27,0.8-0.48,1.62-0.65,2.45c-0.08,0.38-0.16,0.82-0.23,1.27
	c-0.33,2.21-0.38,5.13-0.11,7.34c0,0.01,0,0.03,0,0.04c0,0.02,0.01,0.04,0.01,0.07h-1.6c0.27-0.8,0.44-1.63,0.57-2.46
	c0.04-0.23,0.07-0.46,0.1-0.68c0.26-1.8,0.33-3.65,0.21-5.46c-0.07-1.02-0.21-2.04-0.45-3.02c-0.14-0.56-0.32-1.12-0.55-1.66
	c-0.21-0.47-0.46-0.93-0.79-1.32c-0.26-0.3-0.55-0.56-0.91-0.74C37.88,2.37,37.42,2.32,37,2.42c-0.93,0.21-1.64,1.04-2.12,1.82
	c-0.48,0.78-0.85,1.63-1.14,2.5c-0.27,0.8-0.48,1.62-0.65,2.45c-0.08,0.38-0.16,0.82-0.23,1.27c-0.33,2.21-0.38,5.13-0.11,7.34
	c0,0.01,0,0.03,0,0.04c0,0.02,0.01,0.04,0.01,0.07h-1.6c0.27-0.8,0.44-1.63,0.57-2.46c0.04-0.23,0.07-0.46,0.1-0.68
	c0.26-1.8,0.33-3.65,0.21-5.46c-0.07-1.02-0.21-2.04-0.45-3.02c-0.14-0.56-0.32-1.12-0.55-1.66c-0.21-0.47-0.46-0.93-0.79-1.32
	C30,3,29.7,2.74,29.34,2.56c-0.39-0.19-0.85-0.24-1.27-0.14c-0.93,0.21-1.64,1.04-2.12,1.82c-0.48,0.78-0.85,1.63-1.14,2.5
	c-0.27,0.8-0.48,1.62-0.65,2.45c-0.08,0.38-0.16,0.82-0.23,1.27c-0.33,2.21-0.38,5.13-0.11,7.34c0,0.01,0,0.03,0,0.04
	c0,0.02,0.01,0.04,0.01,0.07h-1.6c0.27-0.8,0.44-1.63,0.57-2.46c0.04-0.23,0.07-0.46,0.1-0.68c0.26-1.8,0.33-3.65,0.21-5.46
	c-0.07-1.02-0.21-2.04-0.45-3.02c-0.14-0.56-0.32-1.12-0.55-1.66c-0.21-0.47-0.46-0.93-0.79-1.32c-0.26-0.3-0.55-0.56-0.91-0.74
	c-0.39-0.19-0.85-0.24-1.27-0.14c-0.93,0.21-1.64,1.04-2.12,1.82c-0.48,0.78-0.85,1.63-1.14,2.5c-0.27,0.8-0.48,1.62-0.65,2.45
	c-0.08,0.38-0.16,0.82-0.23,1.27c-0.33,2.21-0.38,5.13-0.11,7.34c0,0.01,0,0.03,0,0.04c0,0.02,0.01,0.04,0.01,0.07h-1.6
	c0.27-0.8,0.44-1.63,0.57-2.46c0.04-0.23,0.07-0.46,0.1-0.68c0.26-1.8,0.33-3.65,0.21-5.46c-0.07-1.02-0.21-2.04-0.45-3.02
	c-0.14-0.56-0.32-1.12-0.55-1.66C12.98,4.16,12.73,3.7,12.4,3.3c-0.26-0.3-0.55-0.56-0.91-0.74c-0.39-0.19-0.85-0.24-1.27-0.14
	C9.28,2.63,8.57,3.46,8.09,4.24C7.6,5.02,7.24,5.87,6.95,6.74C6.68,7.54,6.46,8.36,6.3,9.18c-0.08,0.38-0.16,0.82-0.23,1.27
	c-0.33,2.21-0.38,5.13-0.11,7.34c0,0.01,0,0.03,0,0.04c0,0.02,0.01,0.04,0.01,0.07h-1.3c-0.28,0-0.5,0.22-0.5,0.5s0.22,0.5,0.5,0.5
	h90.66c0.28,0,0.5-0.22,0.5-0.5S95.61,17.91,95.33,17.91z M87.32,17.74c0-0.01,0-0.02,0-0.03c-0.05-0.38-0.1-1.4-0.12-1.76
	c-0.07-1.11-0.07-2.23,0.01-3.34c0.08-1.08,0.22-2.17,0.44-3.25l0.02-0.09c0.16-0.76,0.38-1.58,0.65-2.38
	c0.18-0.5,0.39-1.01,0.64-1.5c0.12-0.24,0.29-0.53,0.47-0.81c0.1-0.15,0.24-0.33,0.38-0.49c0.09-0.1,0.21-0.22,0.34-0.33
	c0.04-0.03,0.13-0.11,0.23-0.17c0.06-0.04,0.12-0.07,0.18-0.11c0,0,0.06-0.03,0.13-0.05c0.04-0.01,0.08-0.02,0.12-0.03
	c0.05-0.01,0.11-0.02,0.16-0.02c0.05,0,0.09,0,0.14,0c0.03,0,0.06,0.01,0.08,0.01c0.04,0.01,0.09,0.02,0.13,0.03
	c0.06,0.02,0.11,0.04,0.17,0.07c0.03,0.02,0.07,0.04,0.12,0.07c0.06,0.04,0.11,0.09,0.17,0.13c0.06,0.06,0.12,0.11,0.17,0.17
	c0.09,0.11,0.18,0.22,0.26,0.33c0.12,0.18,0.23,0.37,0.32,0.57c0.12,0.23,0.24,0.54,0.35,0.85c0.15,0.45,0.29,0.97,0.39,1.5
	c0.15,0.73,0.25,1.55,0.3,2.36c0.03,0.4,0.04,0.8,0.05,1.19c0.03,1.81-0.14,3.63-0.5,5.41c-0.12,0.59-0.38,1.23-0.36,1.84h-5.42
	c0-0.02,0.01-0.04,0-0.07C87.33,17.81,87.33,17.78,87.32,17.74z M78.39,17.74c0-0.01,0-0.02,0-0.03c-0.05-0.38-0.1-1.4-0.12-1.76
	c-0.07-1.11-0.07-2.23,0.01-3.34c0.08-1.08,0.22-2.17,0.44-3.25l0.02-0.09c0.16-0.76,0.38-1.58,0.65-2.38
	c0.18-0.5,0.39-1.01,0.64-1.5c0.12-0.24,0.29-0.53,0.47-0.81c0.1-0.15,0.24-0.33,0.38-0.49c0.09-0.1,0.21-0.22,0.34-0.33
	c0.04-0.03,0.13-0.11,0.23-0.17c0.06-0.04,0.12-0.07,0.18-0.11c0,0,0.06-0.03,0.13-0.05c0.04-0.01,0.08-0.02,0.12-0.03
	c0.05-0.01,0.11-0.02,0.16-0.02c0.05,0,0.09,0,0.14,0c0.03,0,0.06,0.01,0.08,0.01c0.04,0.01,0.09,0.02,0.13,0.03
	c0.06,0.02,0.11,0.04,0.17,0.07c0.03,0.02,0.07,0.04,0.12,0.07c0.06,0.04,0.11,0.09,0.17,0.13c0.06,0.06,0.12,0.11,0.17,0.17
	c0.09,0.11,0.18,0.22,0.26,0.33c0.12,0.18,0.23,0.37,0.32,0.57C83.7,5,83.82,5.31,83.93,5.61c0.15,0.45,0.29,0.97,0.39,1.5
	c0.15,0.73,0.25,1.55,0.3,2.36c0.03,0.4,0.04,0.8,0.05,1.19c0.03,1.81-0.14,3.63-0.5,5.41c-0.12,0.59-0.38,1.23-0.36,1.84H78.4
	c0-0.02,0.01-0.04,0-0.07C78.4,17.81,78.4,17.78,78.39,17.74z M69.46,17.74c0-0.01,0-0.02,0-0.03c-0.05-0.38-0.1-1.4-0.12-1.76
	c-0.07-1.11-0.07-2.23,0.01-3.34c0.08-1.08,0.22-2.17,0.44-3.25l0.02-0.09c0.16-0.76,0.38-1.58,0.65-2.38
	c0.18-0.5,0.39-1.01,0.64-1.5c0.12-0.24,0.29-0.53,0.47-0.81c0.1-0.15,0.24-0.33,0.38-0.49c0.09-0.1,0.21-0.22,0.34-0.33
	c0.04-0.03,0.13-0.11,0.23-0.17c0.06-0.04,0.12-0.07,0.18-0.11c0,0,0.06-0.03,0.13-0.05c0.04-0.01,0.08-0.02,0.12-0.03
	c0.05-0.01,0.11-0.02,0.16-0.02c0.05,0,0.09,0,0.14,0c0.03,0,0.06,0.01,0.08,0.01c0.04,0.01,0.09,0.02,0.13,0.03
	c0.06,0.02,0.11,0.04,0.17,0.07c0.03,0.02,0.07,0.04,0.12,0.07c0.06,0.04,0.11,0.09,0.17,0.13c0.06,0.06,0.12,0.11,0.17,0.17
	c0.09,0.11,0.18,0.22,0.26,0.33c0.12,0.18,0.23,0.37,0.32,0.57C74.77,5,74.89,5.31,75,5.61c0.15,0.45,0.29,0.97,0.39,1.5
	c0.15,0.73,0.25,1.55,0.3,2.36c0.03,0.4,0.04,0.8,0.05,1.19c0.03,1.81-0.14,3.63-0.5,5.41c-0.12,0.59-0.38,1.23-0.36,1.84h-5.42
	c0-0.02,0.01-0.04,0-0.07C69.47,17.81,69.47,17.78,69.46,17.74z M60.53,17.74c0-0.01,0-0.02,0-0.03c-0.05-0.38-0.1-1.4-0.12-1.76
	c-0.07-1.11-0.07-2.23,0.01-3.34c0.08-1.08,0.22-2.17,0.44-3.25l0.02-0.09c0.16-0.76,0.38-1.58,0.65-2.38
	c0.18-0.5,0.39-1.01,0.64-1.5c0.12-0.24,0.29-0.53,0.47-0.81c0.1-0.15,0.24-0.33,0.38-0.49c0.09-0.1,0.21-0.22,0.34-0.33
	c0.04-0.03,0.13-0.11,0.23-0.17c0.06-0.04,0.12-0.07,0.18-0.11c0,0,0.06-0.03,0.13-0.05C63.93,3.42,63.97,3.41,64,3.4
	c0.05-0.01,0.11-0.02,0.16-0.02c0.05,0,0.09,0,0.14,0c0.03,0,0.06,0.01,0.08,0.01c0.04,0.01,0.09,0.02,0.13,0.03
	c0.06,0.02,0.11,0.04,0.17,0.07c0.03,0.02,0.07,0.04,0.12,0.07c0.06,0.04,0.11,0.09,0.17,0.13c0.06,0.06,0.12,0.11,0.17,0.17
	c0.09,0.11,0.18,0.22,0.26,0.33c0.12,0.18,0.23,0.37,0.32,0.57c0.12,0.23,0.24,0.54,0.35,0.85c0.15,0.45,0.29,0.97,0.39,1.5
	c0.15,0.73,0.25,1.55,0.3,2.36c0.03,0.4,0.04,0.8,0.05,1.19c0.03,1.81-0.14,3.63-0.5,5.41c-0.12,0.59-0.38,1.23-0.36,1.84h-5.42
	c0-0.02,0.01-0.04,0-0.07C60.54,17.81,60.54,17.78,60.53,17.74z M51.61,17.74c0-0.01,0-0.02,0-0.03c-0.05-0.38-0.1-1.4-0.12-1.76
	c-0.07-1.11-0.07-2.23,0.01-3.34c0.08-1.08,0.22-2.17,0.44-3.25l0.02-0.09c0.16-0.76,0.38-1.58,0.65-2.38
	c0.18-0.5,0.39-1.01,0.64-1.5c0.12-0.24,0.29-0.53,0.47-0.81c0.1-0.15,0.24-0.33,0.38-0.49c0.09-0.1,0.21-0.22,0.34-0.33
	c0.04-0.03,0.13-0.11,0.23-0.17c0.06-0.04,0.12-0.07,0.18-0.11c0,0,0.06-0.03,0.13-0.05C55,3.42,55.04,3.41,55.08,3.4
	c0.05-0.01,0.11-0.02,0.16-0.02c0.05,0,0.09,0,0.14,0c0.03,0,0.06,0.01,0.08,0.01c0.04,0.01,0.09,0.02,0.13,0.03
	c0.06,0.02,0.11,0.04,0.17,0.07c0.03,0.02,0.07,0.04,0.12,0.07c0.06,0.04,0.11,0.09,0.17,0.13c0.06,0.06,0.12,0.11,0.17,0.17
	c0.09,0.11,0.18,0.22,0.26,0.33c0.12,0.18,0.23,0.37,0.32,0.57c0.12,0.23,0.24,0.54,0.35,0.85c0.15,0.45,0.29,0.97,0.39,1.5
	c0.15,0.73,0.25,1.55,0.3,2.36c0.03,0.4,0.04,0.8,0.05,1.19c0.03,1.81-0.14,3.63-0.5,5.41c-0.12,0.59-0.38,1.23-0.36,1.84h-5.42
	c0-0.02,0.01-0.04,0-0.07C51.61,17.81,51.61,17.78,51.61,17.74z M42.68,17.74c0-0.01,0-0.02,0-0.03c-0.05-0.38-0.1-1.4-0.12-1.76
	c-0.07-1.11-0.07-2.23,0.01-3.34c0.08-1.08,0.22-2.17,0.44-3.25l0.02-0.09c0.16-0.76,0.38-1.58,0.65-2.38
	c0.18-0.5,0.39-1.01,0.64-1.5c0.12-0.24,0.29-0.53,0.47-0.81c0.1-0.15,0.24-0.33,0.38-0.49c0.09-0.1,0.21-0.22,0.34-0.33
	c0.04-0.03,0.13-0.11,0.23-0.17c0.06-0.04,0.12-0.07,0.18-0.11c0,0,0.06-0.03,0.13-0.05c0.04-0.01,0.08-0.02,0.12-0.03
	c0.05-0.01,0.11-0.02,0.16-0.02c0.05,0,0.09,0,0.14,0c0.03,0,0.06,0.01,0.08,0.01c0.04,0.01,0.09,0.02,0.13,0.03
	c0.06,0.02,0.11,0.04,0.17,0.07c0.03,0.02,0.07,0.04,0.12,0.07C47,3.6,47.06,3.65,47.11,3.7c0.06,0.06,0.12,0.11,0.17,0.17
	c0.09,0.11,0.18,0.22,0.26,0.33c0.12,0.18,0.23,0.37,0.32,0.57c0.12,0.23,0.24,0.54,0.35,0.85c0.15,0.45,0.29,0.97,0.39,1.5
	c0.15,0.73,0.25,1.55,0.3,2.36c0.03,0.4,0.04,0.8,0.05,1.19c0.03,1.81-0.14,3.63-0.5,5.41c-0.12,0.59-0.38,1.23-0.36,1.84h-5.42
	c0-0.02,0.01-0.04,0-0.07C42.69,17.81,42.68,17.78,42.68,17.74z M33.75,17.74c0-0.01,0-0.02,0-0.03c-0.05-0.38-0.1-1.4-0.12-1.76
	c-0.07-1.11-0.07-2.23,0.01-3.34c0.08-1.08,0.22-2.17,0.44-3.25l0.02-0.09c0.16-0.76,0.38-1.58,0.65-2.38
	c0.18-0.5,0.39-1.01,0.64-1.5c0.12-0.24,0.29-0.53,0.47-0.81c0.1-0.15,0.24-0.33,0.38-0.49c0.09-0.1,0.21-0.22,0.34-0.33
	c0.04-0.03,0.13-0.11,0.23-0.17c0.06-0.04,0.12-0.07,0.18-0.11c0,0,0.06-0.03,0.13-0.05c0.04-0.01,0.08-0.02,0.12-0.03
	c0.05-0.01,0.11-0.02,0.16-0.02c0.05,0,0.09,0,0.14,0c0.03,0,0.06,0.01,0.08,0.01c0.04,0.01,0.09,0.02,0.13,0.03
	c0.06,0.02,0.11,0.04,0.17,0.07c0.03,0.02,0.07,0.04,0.12,0.07c0.06,0.04,0.11,0.09,0.17,0.13c0.06,0.06,0.12,0.11,0.17,0.17
	c0.09,0.11,0.18,0.22,0.26,0.33c0.12,0.18,0.23,0.37,0.32,0.57c0.12,0.23,0.24,0.54,0.35,0.85c0.15,0.45,0.29,0.97,0.39,1.5
	c0.15,0.73,0.25,1.55,0.3,2.36c0.03,0.4,0.04,0.8,0.05,1.19c0.03,1.81-0.14,3.63-0.5,5.41c-0.12,0.59-0.38,1.23-0.36,1.84h-5.42
	c0-0.02,0.01-0.04,0-0.07C33.76,17.81,33.75,17.78,33.75,17.74z M24.82,17.74c0-0.01,0-0.02,0-0.03c-0.05-0.38-0.1-1.4-0.12-1.76
	c-0.07-1.11-0.07-2.23,0.01-3.34c0.08-1.08,0.22-2.17,0.44-3.25l0.02-0.09c0.16-0.76,0.38-1.58,0.65-2.38
	c0.18-0.5,0.39-1.01,0.64-1.5c0.12-0.24,0.29-0.53,0.47-0.81c0.1-0.15,0.24-0.33,0.38-0.49c0.09-0.1,0.21-0.22,0.34-0.33
	c0.04-0.03,0.13-0.11,0.23-0.17c0.06-0.04,0.12-0.07,0.18-0.11c0,0,0.06-0.03,0.13-0.05c0.04-0.01,0.08-0.02,0.12-0.03
	c0.05-0.01,0.11-0.02,0.16-0.02c0.05,0,0.09,0,0.14,0c0.03,0,0.06,0.01,0.08,0.01c0.04,0.01,0.09,0.02,0.13,0.03
	c0.06,0.02,0.11,0.04,0.17,0.07c0.03,0.02,0.07,0.04,0.12,0.07c0.06,0.04,0.11,0.09,0.17,0.13c0.06,0.06,0.12,0.11,0.17,0.17
	c0.09,0.11,0.18,0.22,0.26,0.33c0.12,0.18,0.23,0.37,0.32,0.57c0.12,0.23,0.24,0.54,0.35,0.85c0.15,0.45,0.29,0.97,0.39,1.5
	c0.15,0.73,0.25,1.55,0.3,2.36c0.03,0.4,0.04,0.8,0.05,1.19c0.03,1.81-0.14,3.63-0.5,5.41c-0.12,0.59-0.38,1.23-0.36,1.84h-5.42
	c0-0.02,0.01-0.04,0-0.07C24.83,17.81,24.82,17.78,24.82,17.74z M15.89,17.74c0-0.01,0-0.02,0-0.03c-0.05-0.38-0.1-1.4-0.12-1.76
	c-0.07-1.11-0.07-2.23,0.01-3.34c0.08-1.08,0.22-2.17,0.44-3.25l0.02-0.09c0.16-0.76,0.38-1.58,0.65-2.38
	c0.18-0.5,0.39-1.01,0.64-1.5c0.12-0.24,0.29-0.53,0.47-0.81c0.1-0.15,0.24-0.33,0.38-0.49c0.09-0.1,0.21-0.22,0.34-0.33
	c0.04-0.03,0.13-0.11,0.23-0.17c0.06-0.04,0.12-0.07,0.18-0.11c0,0,0.06-0.03,0.13-0.05c0.04-0.01,0.08-0.02,0.12-0.03
	c0.05-0.01,0.11-0.02,0.16-0.02c0.05,0,0.09,0,0.14,0c0.03,0,0.06,0.01,0.08,0.01c0.04,0.01,0.09,0.02,0.13,0.03
	c0.06,0.02,0.11,0.04,0.17,0.07c0.03,0.02,0.07,0.04,0.12,0.07c0.06,0.04,0.11,0.09,0.17,0.13c0.06,0.06,0.12,0.11,0.17,0.17
	c0.09,0.11,0.18,0.22,0.26,0.33c0.12,0.18,0.23,0.37,0.32,0.57c0.12,0.23,0.24,0.54,0.35,0.85c0.15,0.45,0.29,0.97,0.39,1.5
	c0.15,0.73,0.25,1.55,0.3,2.36c0.03,0.4,0.04,0.8,0.05,1.19c0.03,1.81-0.14,3.63-0.5,5.41c-0.12,0.59-0.38,1.23-0.36,1.84H15.9
	c0-0.02,0.01-0.04,0-0.07C15.9,17.81,15.89,17.78,15.89,17.74z M6.96,17.74c0-0.01,0-0.02,0-0.03c-0.05-0.38-0.1-1.4-0.12-1.76
	c-0.07-1.11-0.07-2.23,0.01-3.34c0.08-1.08,0.22-2.17,0.44-3.25L7.3,9.27C7.46,8.51,7.67,7.7,7.94,6.9c0.18-0.5,0.39-1.01,0.64-1.5
	C8.7,5.16,8.87,4.87,9.05,4.59c0.1-0.15,0.24-0.33,0.38-0.49c0.09-0.1,0.21-0.22,0.34-0.33C9.81,3.73,9.9,3.66,10,3.59
	c0.06-0.04,0.12-0.07,0.18-0.11c0,0,0.06-0.03,0.13-0.05c0.04-0.01,0.08-0.02,0.12-0.03c0.05-0.01,0.11-0.02,0.16-0.02
	c0.05,0,0.09,0,0.14,0c0.03,0,0.06,0.01,0.08,0.01c0.04,0.01,0.09,0.02,0.13,0.03c0.06,0.02,0.11,0.04,0.17,0.07
	c0.03,0.02,0.07,0.04,0.12,0.07c0.06,0.04,0.11,0.09,0.17,0.13c0.06,0.06,0.12,0.11,0.17,0.17c0.09,0.11,0.18,0.22,0.26,0.33
	c0.12,0.18,0.23,0.37,0.32,0.57C12.26,5,12.39,5.31,12.5,5.61c0.15,0.45,0.29,0.97,0.39,1.5c0.15,0.73,0.25,1.55,0.3,2.36
	c0.03,0.4,0.04,0.8,0.05,1.19c0.03,1.81-0.14,3.63-0.5,5.41c-0.12,0.59-0.38,1.23-0.36,1.84H6.97c0-0.02,0.01-0.04,0-0.07
	C6.97,17.81,6.96,17.78,6.96,17.74z"/>
</svg>
