<?xml version="1.0" encoding="utf-8"?>
<!-- Generator: Adobe Illustrator 23.0.0, SVG Export Plug-In . SVG Version: 6.00 Build 0)  -->
<svg version="1.1" id="Слой_1" xmlns="http://www.w3.org/2000/svg" xmlns:xlink="http://www.w3.org/1999/xlink" x="0px" y="0px"
	 viewBox="0 0 100 21.28" style="enable-background:new 0 0 100 21.28;" xml:space="preserve">
<path d="M94.48,18.22c-0.04-0.07-0.08-0.14-0.12-0.21c-0.84-1.55-1.69-3.11-2.53-4.67c-0.9-1.65-1.8-3.31-2.7-4.97
	c-0.84-1.56-1.69-3.12-2.54-4.68c-0.18-0.34-0.37-0.68-0.55-1.02c-0.08-0.14-0.15-0.3-0.25-0.43c-0.22-0.31-0.61-0.24-0.8,0.09
	c-0.05,0.09-0.09,0.17-0.14,0.26c-0.19,0.35-0.38,0.7-0.57,1.05c-1.21,2.22-2.43,4.44-3.64,6.66c-0.71,1.31-1.43,2.62-2.14,3.92
	c-0.4,0.73-0.8,1.47-1.2,2.2c-0.16,0.29-0.5,0.77-0.79,1.19c-0.78-1.43-1.56-2.87-2.33-4.3c-0.9-1.65-1.8-3.31-2.7-4.97
	c-0.84-1.56-1.69-3.12-2.54-4.68c-0.18-0.34-0.37-0.68-0.55-1.02c-0.08-0.14-0.15-0.3-0.25-0.43c-0.22-0.31-0.61-0.24-0.8,0.09
	C67.3,2.43,67.26,2.51,67.2,2.6c-0.19,0.35-0.38,0.7-0.57,1.05c-1.21,2.22-2.43,4.44-3.64,6.66c-0.71,1.31-1.43,2.62-2.14,3.92
	c-0.4,0.73-0.8,1.47-1.2,2.2c-0.16,0.29-0.5,0.77-0.79,1.19c-0.78-1.43-1.56-2.87-2.33-4.3c-0.9-1.65-1.8-3.31-2.7-4.97
	c-0.84-1.56-1.69-3.12-2.54-4.68c-0.18-0.34-0.37-0.68-0.55-1.02c-0.08-0.14-0.15-0.3-0.25-0.43c-0.22-0.31-0.61-0.24-0.8,0.09
	c-0.05,0.09-0.09,0.17-0.14,0.26c-0.19,0.35-0.38,0.7-0.57,1.05c-1.21,2.22-2.43,4.44-3.64,6.66c-0.71,1.31-1.43,2.62-2.14,3.92
	c-0.4,0.73-0.8,1.47-1.2,2.2c-0.16,0.29-0.5,0.77-0.79,1.19c-0.78-1.43-1.56-2.87-2.33-4.3c-0.9-1.65-1.8-3.31-2.7-4.97
	c-0.84-1.56-1.69-3.12-2.54-4.68c-0.18-0.34-0.37-0.68-0.55-1.02c-0.08-0.14-0.15-0.3-0.25-0.43c-0.22-0.31-0.61-0.24-0.8,0.09
	C32,2.43,31.95,2.51,31.9,2.6c-0.19,0.35-0.38,0.7-0.57,1.05c-1.21,2.22-2.43,4.44-3.64,6.66c-0.71,1.31-1.43,2.62-2.14,3.92
	c-0.4,0.73-0.8,1.47-1.2,2.2c-0.16,0.29-0.5,0.77-0.79,1.19c-0.78-1.43-1.56-2.87-2.33-4.3c-0.9-1.65-1.8-3.31-2.7-4.97
	c-0.84-1.56-1.69-3.12-2.54-4.68c-0.18-0.34-0.37-0.68-0.55-1.02c-0.08-0.14-0.15-0.3-0.25-0.43c-0.22-0.31-0.61-0.24-0.8,0.09
	c-0.05,0.09-0.09,0.17-0.14,0.26c-0.19,0.35-0.38,0.7-0.57,1.05c-1.21,2.22-2.43,4.44-3.64,6.66c-0.71,1.31-1.43,2.62-2.14,3.92
	c-0.4,0.73-0.8,1.47-1.2,2.2c-0.24,0.44-0.92,1.34-1.17,1.78c-0.16,0.28-0.13,0.68,0.09,0.89c0.21,0.21,0.54,0.17,0.7-0.11
	c0.5-0.87,1.41-2.23,1.9-3.11c1.39-2.54,2.78-5.08,4.16-7.62c0.63-1.16,1.26-2.31,1.89-3.46c0.18-0.33,0.36-0.66,0.54-0.99
	c0-0.01,0.01-0.01,0.01-0.02c0.2,0.37,0.41,0.75,0.61,1.12c0.84,1.56,1.69,3.12,2.54,4.68c0.96,1.76,1.91,3.53,2.87,5.29
	c0.75,1.38,1.49,2.76,2.24,4.13c0.09,0.17,0.24,0.25,0.39,0.25c0.02,0,0.04-0.01,0.07-0.01c0.16,0.01,0.33-0.06,0.43-0.23
	c0.5-0.87,1.41-2.23,1.9-3.11c1.39-2.54,2.78-5.08,4.16-7.62c0.63-1.16,1.26-2.31,1.89-3.46c0.18-0.33,0.36-0.66,0.54-0.99
	c0-0.01,0.01-0.01,0.01-0.02c0.2,0.37,0.41,0.75,0.61,1.12c0.84,1.56,1.69,3.12,2.54,4.68c0.96,1.76,1.91,3.53,2.87,5.29
	c0.75,1.38,1.49,2.76,2.24,4.13c0.09,0.17,0.24,0.25,0.39,0.25c0.02,0,0.04-0.01,0.07-0.01c0.16,0.01,0.33-0.06,0.43-0.23
	c0.5-0.87,1.41-2.23,1.9-3.11c1.39-2.54,2.78-5.08,4.16-7.62c0.63-1.16,1.26-2.31,1.89-3.46c0.18-0.33,0.36-0.66,0.54-0.99
	c0-0.01,0.01-0.01,0.01-0.02c0.2,0.37,0.41,0.75,0.61,1.12c0.84,1.56,1.69,3.12,2.54,4.68c0.96,1.76,1.91,3.53,2.87,5.29
	c0.75,1.38,1.49,2.76,2.24,4.13c0.09,0.17,0.24,0.25,0.39,0.25c0.02,0,0.04-0.01,0.07-0.01c0.16,0.01,0.33-0.06,0.43-0.23
	c0.5-0.87,1.41-2.23,1.9-3.11c1.39-2.54,2.78-5.08,4.16-7.62c0.63-1.16,1.26-2.31,1.89-3.46c0.18-0.33,0.36-0.66,0.54-0.99
	c0-0.01,0.01-0.01,0.01-0.02c0.2,0.37,0.41,0.75,0.61,1.12c0.84,1.56,1.69,3.12,2.54,4.68c0.96,1.76,1.91,3.53,2.87,5.29
	c0.75,1.38,1.49,2.76,2.24,4.13c0.09,0.17,0.24,0.25,0.39,0.25c0.02,0,0.04-0.01,0.07-0.01c0.16,0.01,0.33-0.06,0.43-0.23
	c0.5-0.87,1.41-2.23,1.9-3.11c1.39-2.54,2.78-5.08,4.16-7.62c0.63-1.16,1.26-2.31,1.89-3.46c0.18-0.33,0.36-0.66,0.54-0.99
	c0-0.01,0.01-0.01,0.01-0.02c0.2,0.37,0.41,0.75,0.61,1.12c0.84,1.56,1.69,3.12,2.54,4.68c0.96,1.76,1.91,3.53,2.87,5.29
	c0.75,1.38,1.49,2.76,2.24,4.13c0.09,0.17,0.24,0.25,0.39,0.25c0.11,0,0.22-0.04,0.31-0.13C94.61,18.89,94.63,18.5,94.48,18.22z"/>
</svg>
