<?xml version="1.0" encoding="utf-8"?>
<!-- Generator: Adobe Illustrator 23.0.0, SVG Export Plug-In . SVG Version: 6.00 Build 0)  -->
<svg version="1.1" id="Слой_1" xmlns="http://www.w3.org/2000/svg" xmlns:xlink="http://www.w3.org/1999/xlink" x="0px" y="0px"
	 viewBox="0 0 100 21.28" style="enable-background:new 0 0 100 21.28;" xml:space="preserve">
<g>
	<path d="M20.8,6.6c-0.82-0.49-1.84-0.72-2.76-0.49c-0.92,0.23-1.65,0.88-2.16,1.61c-0.52,0.74-0.85,1.57-1.25,2.37
		c-0.56,1.14-1.26,2.24-2.25,3.07c-0.5,0.42-1.1,0.77-1.77,0.89c-0.79,0.13-1.63-0.09-2.25-0.57c-0.62-0.48-1.01-1.2-1.08-1.95
		c-0.11-1.22,0.6-2.37,1.51-3.23C9.08,8.03,9.4,7.77,9.78,7.63c0.38-0.14,0.84-0.14,1.19,0.07c0.28,0.17,0.45,0.46,0.57,0.75
		c0.15,0.36,0.22,0.76,0.14,1.14c-0.08,0.38-0.34,0.73-0.72,0.88c-0.25,0.1-0.55,0.1-0.77-0.04c-0.24-0.15-0.36-0.45-0.63-0.55
		c-0.34-0.13-0.74,0.16-0.78,0.5c-0.04,0.34,0.18,0.67,0.46,0.89c0.87,0.7,2.32,0.52,3.08-0.26c0.76-0.78,0.87-2.01,0.42-3
		c-0.35-0.78-1.06-1.46-1.95-1.63c-1.04-0.19-2.07,0.34-2.84,1C6.75,8.42,5.93,9.91,6,11.44c0.09,1.89,1.61,3.52,3.63,3.78
		c0.13,0.02,0.26,0.03,0.38,0.03c3.12,0.14,4.93-2.89,6.06-5.15c0.59-1.19,1.02-3.02,2.82-2.86c1.21,0.11,2.42,1.05,2.68,2.17
		c0.25,1.08,0.38,2.26-0.28,3.23c-0.45,0.57-1.16,1.29-2.02,1.18c-0.69-0.12-1.36-0.74-1.4-1.41c-0.09-0.6,0.09-1.26,0.5-1.73
		c0.31-0.36,1.08-0.87,1.51-0.39c0.25,0.28,0.32,0.91-0.1,1.07c-0.11,0.04-0.29-0.04-0.42-0.02c-0.22,0.03-0.39,0.15-0.46,0.35
		c-0.17,0.42,0.19,0.9,0.67,0.91c1.8,0.02,2.43-2.61,0.92-3.45c-0.38-0.21-0.85-0.27-1.29-0.23c-1.33,0.12-2.29,1.12-2.53,2.3
		c-0.28,1.39,0.29,3.05,1.8,3.61c1.05,0.39,2.23,0.09,3.06-0.58c0.79-0.63,1.25-1.57,1.44-2.52C23.35,9.83,22.57,7.65,20.8,6.6z"/>
	<path d="M34.49,7.27c-2.39,1.72-2.72,5.23-5.76,6.27c-0.83,0.28-1.76,0.43-2.61,0.14c-0.35-0.12-0.67-0.34-0.85-0.66
		c-0.01-0.01-0.02-0.03-0.02-0.04c-0.17-0.32-0.25-0.67-0.23-1.03c0.09-1.8,1.59-3.33,3.3-3.32c0.37,0,1.19,0.29,1.38,0.66
		c0.1,0.2,0.07,0.45-0.03,0.65c-0.36,0.73-1.35,1.19-2.15,1.05c-0.24-0.04-0.47-0.15-0.72-0.14c-0.53,0.02-0.65,0.66-0.35,1.02
		c0.22,0.26,0.58,0.37,0.92,0.4c1.42,0.16,3.21-0.77,3.64-2.2c0.36-1.18-0.62-2.07-1.63-2.45c-2.89-1.1-6.04,2.31-5.53,5.12
		c0.17,0.97,0.84,1.78,1.75,2.14c0.66,0.26,1.4,0.33,2.11,0.25c0.71-0.07,1.24-0.38,1.89-0.6c3.55-1.2,3.59-6.45,7.49-6.87
		c1.43-0.15,2.06,1.37,2.07,2.54c0.01,1.17-0.46,2.51-1.48,3.17c-0.53,0.31-1.18,0.75-1.84,0.61c-0.69-0.28-1.23-1.11-1.03-1.87
		c0.05-0.93,2.14-2.29,1.84-0.68c-0.82,0.09-0.69,1.41,0.16,1.28c1.92-0.38,1.31-3.43-0.57-3.33c-2.95,0.25-3.78,4.5-1.01,5.73
		c2.89,0.86,5.31-2.35,5.19-5.05C40.42,6.58,37.19,5.42,34.49,7.27z"/>
	<path d="M56.29,6.6c-0.82-0.49-1.84-0.72-2.76-0.49c-0.92,0.23-1.65,0.88-2.16,1.61c-0.52,0.74-0.85,1.57-1.25,2.37
		c-0.56,1.14-1.26,2.24-2.25,3.07c-0.51,0.42-1.1,0.77-1.77,0.89c-0.79,0.13-1.63-0.09-2.25-0.57c-0.62-0.48-1.01-1.2-1.08-1.95
		c-0.11-1.22,0.6-2.37,1.51-3.23c0.29-0.27,0.61-0.53,0.99-0.67c0.38-0.14,0.84-0.14,1.19,0.07c0.28,0.17,0.45,0.46,0.57,0.75
		c0.15,0.36,0.22,0.76,0.14,1.14c-0.08,0.38-0.34,0.73-0.72,0.88c-0.25,0.1-0.55,0.1-0.77-0.04c-0.24-0.15-0.36-0.45-0.63-0.55
		c-0.34-0.13-0.74,0.16-0.78,0.5c-0.04,0.34,0.18,0.67,0.46,0.89c0.87,0.7,2.32,0.52,3.08-0.26c0.76-0.78,0.87-2.01,0.42-3
		c-0.35-0.78-1.06-1.46-1.95-1.63c-1.04-0.19-2.07,0.34-2.84,1c-1.2,1.04-2.01,2.53-1.94,4.07c0.09,1.89,1.61,3.52,3.63,3.78
		c0.13,0.02,0.26,0.03,0.38,0.03c3.12,0.14,4.93-2.89,6.06-5.15c0.59-1.19,1.02-3.02,2.82-2.86c1.21,0.11,2.42,1.05,2.68,2.17
		c0.25,1.08,0.38,2.26-0.28,3.23c-0.45,0.57-1.16,1.29-2.02,1.18c-0.69-0.12-1.36-0.74-1.4-1.41c-0.09-0.6,0.09-1.26,0.5-1.73
		c0.31-0.36,1.08-0.87,1.51-0.39c0.25,0.28,0.32,0.91-0.1,1.07c-0.11,0.04-0.29-0.04-0.42-0.02c-0.22,0.03-0.39,0.15-0.46,0.35
		c-0.17,0.42,0.19,0.9,0.67,0.91c1.8,0.02,2.43-2.61,0.92-3.45c-0.38-0.21-0.85-0.27-1.29-0.23c-1.33,0.12-2.29,1.12-2.53,2.3
		c-0.28,1.39,0.29,3.05,1.8,3.61c1.05,0.39,2.23,0.09,3.06-0.58c0.79-0.63,1.25-1.57,1.44-2.52C58.84,9.83,58.06,7.65,56.29,6.6z"/>
	<path d="M69.97,7.27c-2.39,1.72-2.72,5.23-5.76,6.27c-0.83,0.28-1.76,0.43-2.61,0.14c-0.35-0.12-0.67-0.34-0.85-0.66
		c-0.01-0.01-0.02-0.03-0.02-0.04c-0.17-0.32-0.25-0.67-0.23-1.03c0.09-1.8,1.59-3.33,3.3-3.32c0.37,0,1.19,0.29,1.38,0.66
		c0.1,0.2,0.07,0.45-0.03,0.65c-0.36,0.73-1.35,1.19-2.15,1.05c-0.24-0.04-0.47-0.15-0.72-0.14c-0.53,0.02-0.65,0.66-0.35,1.02
		c0.22,0.26,0.58,0.37,0.92,0.4c1.42,0.16,3.21-0.77,3.64-2.2c0.36-1.18-0.62-2.07-1.63-2.45c-2.89-1.1-6.04,2.31-5.53,5.12
		c0.17,0.97,0.84,1.78,1.75,2.14c0.66,0.26,1.4,0.33,2.11,0.25c0.71-0.07,1.24-0.38,1.89-0.6c3.55-1.2,3.59-6.45,7.49-6.87
		c1.43-0.15,2.06,1.37,2.07,2.54c0.01,1.17-0.46,2.51-1.48,3.17c-0.53,0.31-1.18,0.75-1.84,0.61c-0.69-0.28-1.23-1.11-1.03-1.87
		c0.05-0.93,2.14-2.29,1.84-0.68c-0.82,0.09-0.69,1.41,0.16,1.28c1.92-0.38,1.31-3.43-0.57-3.33c-2.95,0.25-3.78,4.5-1.01,5.73
		c2.89,0.86,5.31-2.35,5.19-5.05C75.91,6.58,72.68,5.42,69.97,7.27z"/>
	<path d="M91.74,6.6c-0.82-0.49-1.84-0.72-2.76-0.49c-0.92,0.23-1.65,0.88-2.16,1.61s-0.85,1.57-1.25,2.37
		c-0.56,1.14-1.26,2.24-2.25,3.07c-0.5,0.42-1.1,0.77-1.77,0.89c-0.79,0.13-1.63-0.09-2.25-0.57c-0.62-0.48-1.01-1.2-1.08-1.95
		c-0.11-1.22,0.6-2.37,1.51-3.23c0.29-0.27,0.61-0.53,0.99-0.67c0.38-0.14,0.84-0.14,1.19,0.07c0.28,0.17,0.45,0.46,0.57,0.75
		c0.15,0.36,0.22,0.76,0.14,1.14c-0.08,0.38-0.34,0.73-0.72,0.88c-0.25,0.1-0.55,0.1-0.77-0.04c-0.24-0.15-0.36-0.45-0.63-0.55
		c-0.34-0.13-0.74,0.16-0.78,0.5s0.18,0.67,0.46,0.89c0.87,0.7,2.32,0.52,3.08-0.26c0.76-0.78,0.87-2.01,0.42-3
		c-0.35-0.78-1.06-1.46-1.95-1.63c-1.04-0.19-2.07,0.34-2.84,1c-1.2,1.04-2.01,2.53-1.94,4.07c0.09,1.89,1.61,3.52,3.63,3.78
		c0.13,0.02,0.26,0.03,0.38,0.03c3.12,0.14,4.93-2.89,6.06-5.15c0.59-1.19,1.02-3.02,2.82-2.86c1.21,0.11,2.42,1.05,2.68,2.17
		c0.25,1.08,0.38,2.26-0.28,3.23c-0.45,0.57-1.16,1.29-2.02,1.18c-0.69-0.12-1.36-0.74-1.4-1.41c-0.09-0.6,0.09-1.26,0.5-1.73
		c0.31-0.36,1.08-0.87,1.51-0.39c0.25,0.28,0.32,0.91-0.1,1.07c-0.11,0.04-0.29-0.04-0.42-0.02c-0.22,0.03-0.39,0.15-0.46,0.35
		c-0.17,0.42,0.19,0.9,0.67,0.91c1.8,0.02,2.43-2.61,0.92-3.45c-0.38-0.21-0.85-0.27-1.29-0.23c-1.33,0.12-2.29,1.12-2.53,2.3
		c-0.28,1.39,0.29,3.05,1.8,3.61c1.05,0.39,2.23,0.09,3.06-0.58c0.79-0.63,1.25-1.57,1.44-2.52C94.29,9.83,93.51,7.65,91.74,6.6z"/>
</g>
</svg>
