<?xml version="1.0" encoding="utf-8"?>
<!-- Generator: Adobe Illustrator 23.0.0, SVG Export Plug-In . SVG Version: 6.00 Build 0)  -->
<svg version="1.1" id="Слой_1" xmlns="http://www.w3.org/2000/svg" xmlns:xlink="http://www.w3.org/1999/xlink" x="0px" y="0px"
	 viewBox="0 0 100 21.28" style="enable-background:new 0 0 100 21.28;" xml:space="preserve">
<g>
	<path d="M18.49,14.74c-0.12-0.56-0.25-1.11-0.37-1.66c-0.26-1.11-0.53-2.21-0.82-3.31c-0.26-0.99-0.55-1.96-0.85-2.94
		c-0.27-0.86-0.75-3.19-1.9-3.2c-0.34,0-0.62,0.27-0.84,0.55c-0.4,0.51-0.73,1.08-1.05,1.66c-1.8,3.22-3.59,6.47-5.8,9.37
		c-0.27,0.35-0.54,0.7-0.73,1.11C6.04,16.49,5.98,16.65,6,16.82c0.02,0.17,0.14,0.33,0.3,0.34c0.17,0,0.29-0.16,0.39-0.3
		c2.75-4.03,5.37-8.17,7.78-12.45c0.12-0.24,0.56,0.83,0.62,0.95c0.36,0.74,0.56,1.58,0.8,2.36c0.41,1.35,0.84,2.69,1.14,4.07
		c0.19,0.87,0.4,1.73,0.6,2.6c0.06,0.24,0.49,2.54,0.63,2.55c-2.97-0.09-5.89-0.25-8.87-0.03c1.59-2.48,3.41-4.85,4.86-7.45
		c0.41,1.78,0.99,3.51,1.35,5.29c-0.82,0.06-1.64,0.11-2.46,0.11c0.3-0.54,0.53-1.11,0.83-1.65c0.1-0.19,0.01-0.44-0.15-0.54
		c-0.19-0.1-0.39-0.02-0.5,0.17c-0.29,0.52-0.51,1.08-0.8,1.6c-0.43,0.56-0.76,1.38,0.27,1.24c1.07-0.05,2.14-0.06,3.2-0.17
		c0.45-0.04,0.48-0.57,0.34-0.93c-0.31-1.57-0.82-3.17-1.22-4.74c-0.13-0.59-0.46-2.36-1.2-1.3c-1.1,2.06-2.47,3.97-3.77,5.89
		c-0.33,0.71-2.41,2.71-1.18,3.22c2.4,0.12,4.49-0.26,7.1,0.04c1.19-0.12,3.72,0.79,2.77-1.49C18.64,15.74,18.59,15.23,18.49,14.74z
		"/>
	<path d="M33.94,16.76c-0.02-0.04-0.03-0.07-0.05-0.1c-0.39-0.94-0.79-1.88-1.18-2.83c-0.56-1.34-1.12-2.68-1.68-4.02
		c-0.47-1.12-0.93-2.24-1.4-3.36c-0.38-0.9-0.75-1.81-1.13-2.71c-0.06-0.15-0.25-0.27-0.45-0.19c-0.11,0.04-0.19,0.14-0.22,0.26
		c0,0,0,0,0,0c0,0,0,0,0,0.01c0,0,0,0,0,0c0,0,0,0,0,0c0,0,0,0,0,0c0,0,0,0,0,0c0,0,0,0.01-0.01,0.01c0,0,0,0,0,0
		c0,0,0,0.01-0.01,0.01c0,0,0,0.01-0.01,0.01c0,0,0-0.01,0.01-0.01c0,0,0-0.01,0.01-0.01c-0.01,0.01-0.01,0.02-0.02,0.03
		c0,0,0,0,0,0c0,0,0,0,0,0c0,0,0,0.01-0.01,0.01c-0.01,0.02-0.02,0.03-0.02,0.05c0,0.01-0.01,0.01-0.01,0.02
		c-0.01,0.02-0.03,0.05-0.04,0.08c0,0.01-0.02,0.03-0.03,0.06c-0.31,0.57-0.62,1.17-0.94,1.77c-0.15,0.28-0.31,0.6-0.48,0.92
		c-0.96,1.82-1.92,3.64-2.89,5.46c-0.85,1.6-1.69,3.2-2.54,4.8c0,0,0,0,0,0c0,0,0,0.01,0,0.01c0,0,0,0,0,0.01
		c0,0.01-0.01,0.02-0.01,0.03c0,0,0,0,0,0c0,0.01-0.01,0.02-0.01,0.02c0,0,0,0,0,0c0,0.01-0.01,0.01-0.01,0.02l0,0c0,0,0,0,0,0
		c0,0,0,0,0,0c0,0,0,0,0,0c0,0.01-0.01,0.02-0.01,0.02c-0.09,0.18-0.05,0.41,0.12,0.53c0.06,0.04,0.12,0.06,0.19,0.06
		c0.13,0.01,0.26-0.05,0.32-0.18c0-0.01,0.01-0.02,0.01-0.03c0,0,0,0,0,0c0,0,0,0,0,0c0,0,0-0.01,0.01-0.01c0,0,0,0,0,0
		c0.01-0.02,0.02-0.03,0.03-0.05l0-0.01c0,0,0,0,0,0c0.21-0.39,0.41-0.78,0.62-1.17c1-1.9,2-3.79,3.01-5.69
		c0.77-1.46,1.54-2.91,2.31-4.37c0.24-0.45,0.49-0.92,0.74-1.4c0.37,0.89,0.75,1.79,1.12,2.68c0.49,1.18,0.98,2.35,1.47,3.53
		c0.55,1.32,1.1,2.64,1.65,3.96c0.24,0.57,0.48,1.14,0.71,1.71c-0.12,0.01-0.24,0.01-0.35,0c-2.73,0.21-5.47,0.08-8.21,0.23
		c1.4-2,2.45-4.26,3.51-6.49c0.43,1.53,1.11,2.96,1.57,4.48c-0.59-0.09-1.19-0.07-1.79-0.06c0.19-0.34,0.3-0.73,0.45-1.09
		c0.21-0.47-0.46-0.82-0.66-0.35c-0.17,0.45-0.31,0.9-0.57,1.32c-0.14,0.23-0.34,0.62-0.09,0.79c0.21,0.14,0.88,0.16,1.27,0.13
		c0.54-0.03,1.12,0.02,1.66,0.03c0.26,0.01,0.4,0.07,0.56-0.07c0.17-0.15,0.09-0.36,0.01-0.56c-0.34-0.95-0.65-1.92-1.02-2.86
		c-0.4-1.05-0.68-1.93-0.94-2.95c-0.68-1.07-1.43,1.75-1.78,2.24c-0.89,1.98-1.99,3.78-3.17,5.6c-0.09,0.19-0.05,0.46,0.14,0.57
		c1.93,0.07,3.84-0.1,5.75-0.05c1.32,0.03,2.66-0.11,3.99-0.09c0.18,0.01,0.38,0,0.5-0.16c0.12-0.1,0.12-0.36,0-0.51
		C33.94,16.8,33.95,16.78,33.94,16.76z"/>
	<path d="M48.47,14.74c-0.12-0.56-0.25-1.11-0.37-1.66c-0.26-1.11-0.53-2.21-0.82-3.31c-0.26-0.99-0.55-1.96-0.85-2.94
		c-0.27-0.86-0.75-3.19-1.9-3.2c-0.34,0-0.62,0.27-0.84,0.55c-0.4,0.51-0.73,1.08-1.05,1.66c-1.8,3.22-3.59,6.47-5.8,9.37
		c-0.27,0.35-0.54,0.7-0.73,1.11c-0.07,0.15-0.13,0.32-0.11,0.49c0.02,0.17,0.14,0.33,0.3,0.34c0.17,0,0.29-0.16,0.39-0.3
		c2.75-4.03,5.37-8.17,7.78-12.45c0.12-0.24,0.56,0.83,0.62,0.95c0.36,0.74,0.56,1.58,0.8,2.36c0.41,1.35,0.84,2.69,1.14,4.07
		c0.19,0.87,0.4,1.73,0.6,2.6c0.06,0.24,0.49,2.54,0.63,2.55c-2.97-0.09-5.89-0.25-8.87-0.03c1.59-2.48,3.41-4.85,4.86-7.45
		c0.41,1.78,0.99,3.51,1.35,5.29c-0.82,0.06-1.64,0.11-2.46,0.11c0.3-0.54,0.53-1.11,0.83-1.65c0.1-0.19,0.01-0.44-0.15-0.54
		c-0.19-0.1-0.39-0.02-0.5,0.17c-0.29,0.52-0.51,1.08-0.8,1.6c-0.43,0.56-0.76,1.38,0.27,1.24c1.07-0.05,2.14-0.06,3.2-0.17
		c0.45-0.04,0.48-0.57,0.34-0.93C46,13.03,45.5,11.42,45.1,9.85c-0.13-0.59-0.46-2.36-1.2-1.3c-1.1,2.06-2.47,3.97-3.77,5.89
		c-0.33,0.71-2.41,2.71-1.18,3.22c2.4,0.12,4.49-0.26,7.1,0.04c1.19-0.12,3.72,0.79,2.77-1.49C48.63,15.74,48.58,15.23,48.47,14.74z
		"/>
	<path d="M63.92,16.76c-0.02-0.04-0.03-0.07-0.05-0.1c-0.39-0.94-0.79-1.88-1.18-2.83c-0.56-1.34-1.12-2.68-1.68-4.02
		c-0.47-1.12-0.93-2.24-1.4-3.36c-0.38-0.9-0.75-1.81-1.13-2.71c-0.06-0.15-0.25-0.27-0.45-0.19c-0.11,0.04-0.19,0.14-0.22,0.26
		c0,0,0,0,0,0c0,0,0,0,0,0.01c0,0,0,0,0,0c0,0,0,0,0,0c0,0,0,0,0,0c0,0,0,0,0,0c0,0,0,0.01-0.01,0.01c0,0,0,0,0,0
		c0,0,0,0.01-0.01,0.01c0,0,0,0.01-0.01,0.01c0,0,0-0.01,0.01-0.01c0,0,0-0.01,0.01-0.01c-0.01,0.01-0.01,0.02-0.02,0.03
		c0,0,0,0,0,0c0,0,0,0,0,0c0,0,0,0.01-0.01,0.01c-0.01,0.02-0.02,0.03-0.02,0.05c0,0.01-0.01,0.01-0.01,0.02
		c-0.01,0.02-0.03,0.05-0.04,0.08c0,0.01-0.02,0.03-0.03,0.06c-0.31,0.57-0.62,1.17-0.94,1.77c-0.15,0.28-0.31,0.6-0.48,0.92
		c-0.96,1.82-1.92,3.64-2.89,5.46c-0.85,1.6-1.69,3.2-2.54,4.8c0,0,0,0,0,0c0,0,0,0.01,0,0.01c0,0,0,0,0,0.01
		c0,0.01-0.01,0.02-0.01,0.03c0,0,0,0,0,0c0,0.01-0.01,0.02-0.01,0.02c0,0,0,0,0,0c0,0.01-0.01,0.01-0.01,0.02l0,0c0,0,0,0,0,0
		c0,0,0,0,0,0c0,0,0,0,0,0c0,0.01-0.01,0.02-0.01,0.02c-0.09,0.18-0.05,0.41,0.12,0.53c0.06,0.04,0.12,0.06,0.19,0.06
		c0.13,0.01,0.26-0.05,0.32-0.18c0-0.01,0.01-0.02,0.01-0.03c0,0,0,0,0,0c0,0,0,0,0,0c0,0,0-0.01,0.01-0.01c0,0,0,0,0,0
		c0.01-0.02,0.02-0.03,0.03-0.05l0-0.01c0,0,0,0,0,0c0,0,0,0,0-0.01c0.21-0.39,0.41-0.78,0.62-1.17c1-1.9,2-3.79,3.01-5.69
		c0.77-1.46,1.54-2.91,2.31-4.37c0.24-0.45,0.49-0.92,0.74-1.4c0.37,0.89,0.75,1.79,1.12,2.68c0.49,1.18,0.98,2.35,1.47,3.53
		c0.55,1.32,1.1,2.64,1.65,3.96c0.24,0.57,0.48,1.14,0.71,1.71c-0.12,0.01-0.24,0.01-0.35,0c-2.73,0.21-5.47,0.08-8.21,0.23
		c1.4-2,2.45-4.26,3.51-6.49c0.43,1.53,1.11,2.96,1.57,4.48c-0.59-0.09-1.19-0.07-1.79-0.06c0.19-0.34,0.3-0.73,0.45-1.09
		c0.21-0.47-0.46-0.82-0.66-0.35c-0.17,0.45-0.31,0.9-0.57,1.32c-0.14,0.23-0.34,0.62-0.09,0.79c0.21,0.14,0.88,0.16,1.27,0.13
		c0.54-0.03,1.12,0.02,1.66,0.03c0.26,0.01,0.4,0.07,0.56-0.07c0.17-0.15,0.09-0.36,0.01-0.56c-0.34-0.95-0.65-1.92-1.02-2.86
		c-0.4-1.05-0.68-1.93-0.94-2.95c-0.68-1.07-1.43,1.75-1.78,2.24c-0.89,1.98-1.99,3.78-3.17,5.6c-0.09,0.19-0.05,0.46,0.14,0.57
		c1.93,0.07,3.84-0.1,5.75-0.05c1.32,0.03,2.66-0.11,3.99-0.09c0.18,0.01,0.38,0,0.5-0.16c0.12-0.1,0.12-0.36,0-0.51
		C63.92,16.8,63.93,16.78,63.92,16.76z"/>
	<path d="M78.45,14.74c-0.12-0.56-0.25-1.11-0.37-1.66c-0.26-1.11-0.53-2.21-0.82-3.31c-0.26-0.99-0.55-1.96-0.85-2.94
		c-0.27-0.86-0.75-3.19-1.9-3.2c-0.34,0-0.62,0.27-0.84,0.55c-0.4,0.51-0.73,1.08-1.05,1.66c-1.8,3.22-3.59,6.47-5.8,9.37
		c-0.27,0.35-0.54,0.7-0.73,1.11c-0.07,0.15-0.13,0.32-0.11,0.49c0.02,0.17,0.14,0.33,0.3,0.34c0.17,0,0.29-0.16,0.39-0.3
		c2.75-4.03,5.37-8.17,7.78-12.45c0.12-0.24,0.56,0.83,0.62,0.95c0.36,0.74,0.56,1.58,0.8,2.36c0.41,1.35,0.84,2.69,1.14,4.07
		c0.19,0.87,0.4,1.73,0.6,2.6c0.06,0.24,0.49,2.54,0.63,2.55c-2.97-0.09-5.89-0.25-8.87-0.03c1.59-2.48,3.41-4.85,4.86-7.45
		c0.41,1.78,0.99,3.51,1.35,5.29c-0.82,0.06-1.64,0.11-2.46,0.11c0.3-0.54,0.53-1.11,0.83-1.65c0.1-0.19,0.01-0.44-0.15-0.54
		c-0.19-0.1-0.39-0.02-0.5,0.17c-0.29,0.52-0.51,1.08-0.8,1.6c-0.43,0.56-0.76,1.38,0.27,1.24c1.07-0.05,2.14-0.06,3.2-0.17
		c0.45-0.04,0.48-0.57,0.34-0.93c-0.31-1.57-0.82-3.17-1.22-4.74c-0.13-0.59-0.46-2.36-1.2-1.3c-1.1,2.06-2.47,3.97-3.77,5.89
		c-0.33,0.71-2.41,2.71-1.18,3.22c2.4,0.12,4.49-0.26,7.1,0.04c1.19-0.12,3.72,0.79,2.77-1.49C78.61,15.74,78.56,15.23,78.45,14.74z
		"/>
	<path d="M93.91,16.82c-0.01-0.02,0-0.04,0-0.06c-0.02-0.04-0.03-0.07-0.05-0.1c-0.39-0.94-0.79-1.88-1.18-2.83
		c-0.56-1.34-1.12-2.68-1.68-4.02c-0.47-1.12-0.93-2.24-1.4-3.36c-0.38-0.9-0.75-1.81-1.13-2.71c-0.06-0.15-0.25-0.27-0.45-0.19
		c-0.11,0.04-0.19,0.14-0.22,0.26c0,0,0,0,0,0c0,0,0,0,0,0.01c0,0,0,0,0,0c0,0,0,0,0,0c0,0,0,0,0,0c0,0,0,0,0,0
		c0,0,0,0.01-0.01,0.01c0,0,0,0,0,0c0,0,0,0.01-0.01,0.01c0,0,0,0.01-0.01,0.01c0,0,0-0.01,0.01-0.01c0,0,0-0.01,0.01-0.01
		c-0.01,0.01-0.01,0.02-0.02,0.03c0,0,0,0,0,0c0,0,0,0,0,0c0,0,0,0.01-0.01,0.01c-0.01,0.02-0.02,0.03-0.02,0.05
		c0,0.01-0.01,0.01-0.01,0.02c-0.01,0.02-0.03,0.05-0.04,0.08c0,0.01-0.02,0.03-0.03,0.06c-0.31,0.57-0.62,1.17-0.94,1.77
		c-0.15,0.28-0.31,0.6-0.48,0.92c-0.96,1.82-1.92,3.64-2.89,5.46c-0.85,1.6-1.69,3.2-2.54,4.8c0,0,0,0,0,0c0,0,0,0.01,0,0.01
		c0,0,0,0,0,0.01c0,0.01-0.01,0.02-0.01,0.03c0,0,0,0,0,0c0,0.01-0.01,0.02-0.01,0.02c0,0,0,0,0,0c0,0.01-0.01,0.01-0.01,0.02l0,0
		c0,0,0,0,0,0c0,0,0,0,0,0c0,0,0,0,0,0c0,0.01-0.01,0.02-0.01,0.02c-0.09,0.18-0.05,0.41,0.12,0.53c0.06,0.04,0.12,0.06,0.19,0.06
		c0.13,0.01,0.26-0.05,0.32-0.18c0-0.01,0.01-0.02,0.01-0.03c0,0,0,0,0,0c0,0,0,0,0,0c0,0,0-0.01,0.01-0.01c0,0,0,0,0,0
		c0.01-0.02,0.02-0.03,0.03-0.05l0-0.01c0,0,0,0,0,0c0.21-0.39,0.41-0.78,0.62-1.17c1-1.9,2-3.79,3.01-5.69
		c0.77-1.46,1.54-2.91,2.31-4.37c0.24-0.45,0.49-0.92,0.74-1.4c0.37,0.89,0.75,1.79,1.12,2.68c0.49,1.18,0.98,2.35,1.47,3.53
		c0.55,1.32,1.1,2.64,1.65,3.96c0.24,0.57,0.48,1.14,0.71,1.71c-0.12,0.01-0.24,0.01-0.35,0c-2.73,0.21-5.47,0.08-8.21,0.23
		c1.4-2,2.45-4.26,3.51-6.49c0.43,1.53,1.11,2.96,1.57,4.48c-0.59-0.09-1.19-0.07-1.79-0.06c0.19-0.34,0.3-0.73,0.45-1.09
		c0.21-0.47-0.46-0.82-0.66-0.35c-0.17,0.45-0.31,0.9-0.57,1.32c-0.14,0.23-0.34,0.62-0.09,0.79c0.21,0.14,0.88,0.16,1.27,0.13
		c0.54-0.03,1.12,0.02,1.66,0.03c0.26,0.01,0.4,0.07,0.56-0.07c0.17-0.15,0.09-0.36,0.01-0.56c-0.34-0.95-0.65-1.92-1.02-2.86
		c-0.4-1.05-0.68-1.93-0.94-2.95c-0.68-1.07-1.43,1.75-1.78,2.24c-0.89,1.98-1.99,3.78-3.17,5.6c-0.09,0.19-0.05,0.46,0.14,0.57
		c1.93,0.07,3.84-0.1,5.75-0.05c1.32,0.03,2.66-0.11,3.99-0.09c0.18,0.01,0.38,0,0.5-0.16C94.03,17.23,94.03,16.97,93.91,16.82z"/>
</g>
</svg>
