<?xml version="1.0" encoding="utf-8"?>
<!-- Generator: Adobe Illustrator 23.0.0, SVG Export Plug-In . SVG Version: 6.00 Build 0)  -->
<svg version="1.1" id="Слой_1" xmlns="http://www.w3.org/2000/svg" xmlns:xlink="http://www.w3.org/1999/xlink" x="0px" y="0px"
	 viewBox="0 0 100 21.28" style="enable-background:new 0 0 100 21.28;" xml:space="preserve">
<g>
	<path d="M22.1,6.99c-0.66-0.03-1.58,0.37-2.1,0.74c-0.66,0.53-1.12,0.86-1.81,1.33c0.01-0.51,0.05-1.03,0.22-1.53
		c0.16-0.59,0.59-1.06,0.95-1.56c0.15-0.14,0.15-0.42-0.09-0.46c-1.4,0.84-3.36,1.31-4.31,2.82c-0.37-0.93-0.85-1.83-1.35-2.67
		c-0.13-0.28-0.36-0.44-0.43-0.13c-0.25,0.85-0.68,1.67-1.1,2.49c-0.21-0.32-0.53-0.66-0.62-0.81c-0.49-0.62-1.25-0.89-1.91-1.26
		C9.41,5.88,9.25,5.92,9.19,6.04C9.11,6.39,9.49,6.63,9.51,7c0.13,0.65-0.14,1.26-0.4,1.86c-0.84-0.77-1.62-1.8-2.69-2.21
		C5.81,6.54,5.97,7.1,6.24,7.4c0.36,0.77,0.09,1.69,0.04,2.52c-0.47,2.4,0.46,5.12,2.98,5.79c0.37,0.12,0.76,0.17,1.15,0.19
		c0.52,0.03,1.03-0.03,1.54-0.07c0.29-0.03,0.59-0.05,0.88-0.09c0.15-0.02,0.3-0.05,0.44-0.09c0.1-0.03,0.27-0.14,0.37-0.09
		c0.05,0.02,0.1,0.04,0.15,0.05c0.47,0.14,0.96,0.24,1.45,0.26c0.8,0.02,1.58-0.17,2.32-0.48c0.55-0.23,1.07-0.55,1.51-0.96
		c0.74-0.67,1.28-1.55,1.49-2.53c0.3-1.1,0.06-2.35,0.75-3.32c0.29-0.47,1.1-1.02,1.24-1.42C22.54,6.95,22.27,7.01,22.1,6.99z
		 M6.84,12.86c-0.65-1.81,0.45-3.82-0.17-5.61C7.44,7.86,8.21,8.58,8.9,9.29C8.91,9.3,8.92,9.31,8.92,9.31
		C8.85,9.5,8.78,9.69,8.74,9.89c-0.54,1.99,0.49,4.59,2.33,5.55C9.29,15.58,7.44,14.68,6.84,12.86z M11.91,15.31
		c-0.01,0-0.01-0.01-0.02-0.01c0,0-0.01,0-0.01,0c-0.23-0.05-0.46-0.14-0.67-0.28c-1.66-1.14-2.65-3.34-1.95-5.35
		c0.35-0.95,1-1.97,0.62-3.02c0.86,0.36,1.5,1.05,1.93,1.87c-0.61,1.22-1.13,2.47-0.97,3.88c0.07,1.27,0.77,2.72,2.16,2.85
		c0.03,0.01,0.06,0,0.09,0C12.7,15.36,12.3,15.39,11.91,15.31z M13.46,14.83c-0.83,0.07-1.63-0.44-1.89-1.26
		c-1.05-2.55,0.83-5.01,1.83-7.26c1.43,2.14,2.38,4.98,1.24,7.47C14.44,14.29,14.05,14.79,13.46,14.83z M14.81,15.32
		c-0.27,0.02-0.53-0.05-0.79-0.14c0-0.01,0-0.02-0.01-0.04c0.83-0.4,1.27-1.53,1.46-2.44c0.3-1.37,0.13-2.56-0.32-3.83
		c0.09-0.37,0.2-0.42,0.33-0.56c0.26-0.28,0.54-0.53,0.85-0.75c0.44-0.32,0.93-0.57,1.42-0.79c0.11-0.05,0.23-0.1,0.34-0.15
		c0.07-0.03,0.29-0.08,0.33-0.14c-1.37,2.14,0,4.97-1.58,7.07C16.32,14.27,15.73,15.1,14.81,15.32z M20.23,11.29
		c-0.19,1.49-1.11,2.79-2.41,3.5c-0.59,0.35-1.28,0.47-1.96,0.54c1.07-0.72,1.77-2.21,2.14-3.36c0.24-0.81,0.19-1.65,0.18-2.48
		c2.57-1.83,3.01-2.1,3.56-2.01C20.52,8.38,20.3,9.85,20.23,11.29z"/>
	<path d="M39.96,6.99c-0.66-0.03-1.58,0.37-2.1,0.74c-0.66,0.53-1.12,0.86-1.81,1.33c0.01-0.51,0.05-1.03,0.22-1.53
		c0.16-0.59,0.59-1.06,0.95-1.56c0.15-0.14,0.15-0.42-0.09-0.46c-1.4,0.84-3.36,1.31-4.31,2.82c-0.37-0.93-0.85-1.83-1.35-2.67
		c-0.13-0.28-0.36-0.44-0.43-0.13c-0.25,0.85-0.68,1.67-1.1,2.49C29.72,7.7,29.4,7.36,29.3,7.21c-0.49-0.62-1.25-0.89-1.91-1.26
		c-0.11-0.07-0.28-0.03-0.34,0.09C26.97,6.39,27.36,6.63,27.37,7c0.13,0.65-0.14,1.26-0.4,1.86c-0.84-0.77-1.62-1.8-2.69-2.21
		c-0.61-0.11-0.45,0.45-0.18,0.75c0.36,0.77,0.09,1.69,0.04,2.52c-0.47,2.4,0.46,5.12,2.98,5.79c0.37,0.12,0.76,0.17,1.15,0.19
		c0.52,0.03,1.03-0.03,1.54-0.07c0.29-0.03,0.59-0.05,0.88-0.09c0.15-0.02,0.3-0.05,0.44-0.09c0.1-0.03,0.27-0.14,0.37-0.09
		c0.05,0.02,0.1,0.04,0.15,0.05c0.47,0.14,0.96,0.24,1.45,0.26c0.8,0.02,1.58-0.17,2.32-0.48c0.55-0.23,1.07-0.55,1.51-0.96
		c0.74-0.67,1.28-1.55,1.49-2.53c0.3-1.1,0.06-2.35,0.75-3.32c0.29-0.47,1.1-1.02,1.24-1.42C40.4,6.95,40.14,7.01,39.96,6.99z
		 M24.7,12.86c-0.65-1.81,0.45-3.82-0.17-5.61c0.77,0.61,1.54,1.33,2.23,2.05c0.01,0.01,0.02,0.01,0.03,0.02
		c-0.07,0.19-0.14,0.38-0.18,0.58c-0.54,1.99,0.49,4.59,2.33,5.55C27.16,15.58,25.3,14.68,24.7,12.86z M29.78,15.31
		c-0.01,0-0.01-0.01-0.02-0.01c0,0-0.01,0-0.01,0c-0.23-0.05-0.46-0.14-0.67-0.28c-1.66-1.14-2.65-3.34-1.95-5.35
		c0.35-0.95,1-1.97,0.62-3.02c0.86,0.36,1.5,1.05,1.93,1.87c-0.61,1.22-1.13,2.47-0.97,3.88c0.07,1.27,0.77,2.72,2.16,2.85
		c0.03,0.01,0.06,0,0.09,0C30.56,15.36,30.16,15.39,29.78,15.31z M31.32,14.83c-0.83,0.07-1.63-0.44-1.89-1.26
		c-1.05-2.55,0.83-5.01,1.83-7.26c1.43,2.14,2.38,4.98,1.24,7.47C32.3,14.29,31.91,14.79,31.32,14.83z M32.67,15.32
		c-0.27,0.02-0.53-0.05-0.79-0.14c0-0.01,0-0.02-0.01-0.04c0.83-0.4,1.27-1.53,1.46-2.44c0.3-1.37,0.13-2.56-0.32-3.83
		c0.09-0.37,0.2-0.42,0.33-0.56c0.26-0.28,0.54-0.53,0.85-0.75c0.44-0.32,0.93-0.57,1.42-0.79c0.11-0.05,0.23-0.1,0.34-0.15
		c0.07-0.03,0.29-0.08,0.33-0.14c-1.37,2.14,0,4.97-1.58,7.07C34.18,14.27,33.59,15.1,32.67,15.32z M38.09,11.29
		c-0.19,1.49-1.11,2.79-2.41,3.5c-0.59,0.35-1.28,0.47-1.96,0.54c1.07-0.72,1.77-2.21,2.14-3.36c0.24-0.81,0.19-1.65,0.18-2.48
		c2.57-1.83,3.01-2.1,3.56-2.01C38.38,8.38,38.16,9.85,38.09,11.29z"/>
	<path d="M57.82,6.99c-0.66-0.03-1.58,0.37-2.1,0.74c-0.66,0.53-1.12,0.86-1.81,1.33c0.01-0.51,0.05-1.03,0.22-1.53
		c0.16-0.59,0.59-1.06,0.95-1.56c0.15-0.14,0.15-0.42-0.09-0.46c-1.4,0.84-3.36,1.31-4.31,2.82c-0.37-0.93-0.85-1.83-1.35-2.67
		c-0.13-0.28-0.36-0.44-0.43-0.13c-0.25,0.85-0.68,1.67-1.1,2.49c-0.21-0.32-0.53-0.66-0.62-0.81c-0.49-0.62-1.25-0.89-1.91-1.26
		c-0.11-0.07-0.28-0.03-0.34,0.09C44.84,6.39,45.22,6.63,45.24,7c0.13,0.65-0.14,1.26-0.4,1.86c-0.84-0.77-1.62-1.8-2.69-2.21
		C41.53,6.54,41.7,7.1,41.97,7.4c0.36,0.77,0.09,1.69,0.04,2.52c-0.47,2.4,0.46,5.12,2.98,5.79c0.37,0.12,0.76,0.17,1.15,0.19
		c0.52,0.03,1.03-0.03,1.54-0.07c0.29-0.03,0.59-0.05,0.88-0.09c0.15-0.02,0.3-0.05,0.44-0.09c0.1-0.03,0.27-0.14,0.37-0.09
		c0.05,0.02,0.1,0.04,0.15,0.05c0.47,0.14,0.96,0.24,1.45,0.26c0.8,0.02,1.58-0.17,2.32-0.48c0.55-0.23,1.07-0.55,1.51-0.96
		c0.74-0.67,1.28-1.55,1.49-2.53c0.3-1.1,0.06-2.35,0.75-3.32c0.29-0.47,1.1-1.02,1.24-1.42C58.26,6.95,58,7.01,57.82,6.99z
		 M42.57,12.86c-0.65-1.81,0.45-3.82-0.17-5.61c0.77,0.61,1.54,1.33,2.23,2.05c0.01,0.01,0.02,0.01,0.03,0.02
		c-0.07,0.19-0.14,0.38-0.18,0.58c-0.54,1.99,0.49,4.59,2.33,5.55C45.02,15.58,43.16,14.68,42.57,12.86z M47.64,15.31
		c-0.01,0-0.01-0.01-0.02-0.01c0,0-0.01,0-0.01,0c-0.23-0.05-0.46-0.14-0.67-0.28c-1.66-1.14-2.65-3.34-1.95-5.35
		c0.35-0.95,1-1.97,0.62-3.02c0.86,0.36,1.5,1.05,1.93,1.87c-0.61,1.22-1.13,2.47-0.97,3.88c0.07,1.27,0.77,2.72,2.16,2.85
		c0.03,0.01,0.06,0,0.09,0C48.43,15.36,48.02,15.39,47.64,15.31z M49.19,14.83c-0.83,0.07-1.63-0.44-1.89-1.26
		c-1.05-2.55,0.83-5.01,1.83-7.26c1.43,2.14,2.38,4.98,1.24,7.47C50.16,14.29,49.78,14.79,49.19,14.83z M50.53,15.32
		c-0.27,0.02-0.53-0.05-0.79-0.14c0-0.01,0-0.02-0.01-0.04c0.83-0.4,1.27-1.53,1.46-2.44c0.3-1.37,0.13-2.56-0.32-3.83
		c0.09-0.37,0.2-0.42,0.33-0.56c0.26-0.28,0.54-0.53,0.85-0.75c0.44-0.32,0.93-0.57,1.42-0.79c0.11-0.05,0.23-0.1,0.34-0.15
		c0.07-0.03,0.29-0.08,0.33-0.14c-1.37,2.14,0,4.97-1.58,7.07C52.04,14.27,51.45,15.1,50.53,15.32z M55.95,11.29
		c-0.19,1.49-1.11,2.79-2.41,3.5c-0.59,0.35-1.28,0.47-1.96,0.54c1.07-0.72,1.77-2.21,2.14-3.36c0.24-0.81,0.19-1.65,0.18-2.48
		c2.57-1.83,3.01-2.1,3.56-2.01C56.25,8.38,56.02,9.85,55.95,11.29z"/>
	<path d="M75.69,6.99c-0.66-0.03-1.58,0.37-2.1,0.74c-0.66,0.53-1.12,0.86-1.81,1.33c0.01-0.51,0.05-1.03,0.22-1.53
		c0.16-0.59,0.59-1.06,0.95-1.56c0.15-0.14,0.15-0.42-0.09-0.46c-1.4,0.84-3.36,1.31-4.31,2.82c-0.37-0.93-0.85-1.83-1.35-2.67
		c-0.13-0.28-0.36-0.44-0.43-0.13c-0.25,0.85-0.68,1.67-1.1,2.49c-0.21-0.32-0.53-0.66-0.62-0.81c-0.49-0.62-1.25-0.89-1.91-1.26
		C63,5.88,62.84,5.92,62.78,6.04C62.7,6.39,63.08,6.63,63.1,7c0.13,0.65-0.14,1.26-0.4,1.86c-0.84-0.77-1.62-1.8-2.69-2.21
		C59.4,6.54,59.56,7.1,59.83,7.4c0.36,0.77,0.09,1.69,0.04,2.52c-0.47,2.4,0.46,5.12,2.98,5.79c0.37,0.12,0.76,0.17,1.15,0.19
		c0.52,0.03,1.03-0.03,1.54-0.07c0.29-0.03,0.59-0.05,0.88-0.09c0.15-0.02,0.3-0.05,0.44-0.09c0.1-0.03,0.27-0.14,0.37-0.09
		c0.05,0.02,0.1,0.04,0.15,0.05c0.47,0.14,0.96,0.24,1.45,0.26c0.8,0.02,1.58-0.17,2.32-0.48c0.55-0.23,1.07-0.55,1.51-0.96
		c0.74-0.67,1.28-1.55,1.49-2.53c0.3-1.1,0.06-2.35,0.75-3.32c0.29-0.47,1.1-1.02,1.24-1.42C76.13,6.95,75.86,7.01,75.69,6.99z
		 M60.43,12.86c-0.65-1.81,0.45-3.82-0.17-5.61c0.77,0.61,1.54,1.33,2.23,2.05c0.01,0.01,0.02,0.01,0.03,0.02
		c-0.07,0.19-0.14,0.38-0.18,0.58c-0.54,1.99,0.49,4.59,2.33,5.55C62.88,15.58,61.03,14.68,60.43,12.86z M65.5,15.31
		c-0.01,0-0.01-0.01-0.02-0.01c0,0-0.01,0-0.01,0c-0.23-0.05-0.46-0.14-0.67-0.28c-1.66-1.14-2.65-3.34-1.95-5.35
		c0.35-0.95,1-1.97,0.62-3.02c0.86,0.36,1.5,1.05,1.93,1.87c-0.61,1.22-1.13,2.47-0.97,3.88c0.07,1.27,0.77,2.72,2.16,2.85
		c0.03,0.01,0.06,0,0.09,0C66.29,15.36,65.89,15.39,65.5,15.31z M67.05,14.83c-0.83,0.07-1.63-0.44-1.89-1.26
		c-1.05-2.55,0.83-5.01,1.83-7.26c1.43,2.14,2.38,4.98,1.24,7.47C68.03,14.29,67.64,14.79,67.05,14.83z M68.4,15.32
		c-0.27,0.02-0.53-0.05-0.79-0.14c0-0.01,0-0.02-0.01-0.04c0.83-0.4,1.27-1.53,1.46-2.44c0.3-1.37,0.13-2.56-0.32-3.83
		c0.09-0.37,0.2-0.42,0.33-0.56c0.26-0.28,0.54-0.53,0.85-0.75c0.44-0.32,0.93-0.57,1.42-0.79c0.11-0.05,0.23-0.1,0.34-0.15
		c0.07-0.03,0.29-0.08,0.33-0.14c-1.37,2.14,0,4.97-1.58,7.07C69.91,14.27,69.32,15.1,68.4,15.32z M73.82,11.29
		c-0.19,1.49-1.11,2.79-2.41,3.5c-0.59,0.35-1.28,0.47-1.96,0.54c1.07-0.72,1.77-2.21,2.14-3.36c0.24-0.81,0.19-1.65,0.18-2.48
		c2.57-1.83,3.01-2.1,3.56-2.01C74.11,8.38,73.89,9.85,73.82,11.29z"/>
	<path d="M93.55,6.99c-0.66-0.03-1.58,0.37-2.1,0.74c-0.66,0.53-1.12,0.86-1.81,1.33c0.01-0.51,0.05-1.03,0.22-1.53
		c0.16-0.59,0.59-1.06,0.95-1.56c0.15-0.14,0.15-0.42-0.09-0.46c-1.4,0.84-3.36,1.31-4.31,2.82c-0.37-0.93-0.85-1.83-1.35-2.67
		c-0.13-0.28-0.36-0.44-0.43-0.13c-0.25,0.85-0.68,1.67-1.1,2.49c-0.21-0.32-0.53-0.66-0.62-0.81c-0.49-0.62-1.25-0.89-1.91-1.26
		c-0.11-0.07-0.28-0.03-0.34,0.09C80.56,6.39,80.95,6.63,80.96,7c0.13,0.65-0.14,1.26-0.4,1.86c-0.84-0.77-1.62-1.8-2.69-2.21
		C77.26,6.54,77.43,7.1,77.7,7.4c0.36,0.77,0.09,1.69,0.04,2.52c-0.47,2.4,0.46,5.12,2.98,5.79c0.37,0.12,0.76,0.17,1.15,0.19
		c0.52,0.03,1.03-0.03,1.54-0.07c0.29-0.03,0.59-0.05,0.88-0.09c0.15-0.02,0.3-0.05,0.44-0.09c0.1-0.03,0.27-0.14,0.37-0.09
		c0.05,0.02,0.1,0.04,0.15,0.05c0.47,0.14,0.96,0.24,1.45,0.26c0.8,0.02,1.58-0.17,2.32-0.48c0.55-0.23,1.07-0.55,1.51-0.96
		c0.74-0.67,1.28-1.55,1.49-2.53c0.3-1.1,0.06-2.35,0.75-3.32c0.29-0.47,1.1-1.02,1.24-1.42C93.99,6.95,93.73,7.01,93.55,6.99z
		 M78.29,12.86c-0.65-1.81,0.45-3.82-0.17-5.61c0.77,0.61,1.54,1.33,2.23,2.05c0.01,0.01,0.02,0.01,0.03,0.02
		c-0.07,0.19-0.14,0.38-0.18,0.58c-0.54,1.99,0.49,4.59,2.33,5.55C80.75,15.58,78.89,14.68,78.29,12.86z M83.37,15.31
		c-0.01,0-0.01-0.01-0.02-0.01c0,0-0.01,0-0.01,0c-0.23-0.05-0.46-0.14-0.67-0.28c-1.66-1.14-2.65-3.34-1.95-5.35
		c0.35-0.95,1-1.97,0.62-3.02c0.86,0.36,1.5,1.05,1.93,1.87c-0.61,1.22-1.13,2.47-0.97,3.88c0.07,1.27,0.77,2.72,2.16,2.85
		c0.03,0.01,0.06,0,0.09,0C84.15,15.36,83.75,15.39,83.37,15.31z M84.91,14.83c-0.83,0.07-1.63-0.44-1.89-1.26
		c-1.05-2.55,0.83-5.01,1.83-7.26c1.43,2.14,2.38,4.98,1.24,7.47C85.89,14.29,85.5,14.79,84.91,14.83z M86.26,15.32
		c-0.27,0.02-0.53-0.05-0.79-0.14c0-0.01,0-0.02-0.01-0.04c0.83-0.4,1.27-1.53,1.46-2.44c0.3-1.37,0.13-2.56-0.32-3.83
		c0.09-0.37,0.2-0.42,0.33-0.56c0.26-0.28,0.54-0.53,0.85-0.75C88.22,7.24,88.71,7,89.2,6.77c0.11-0.05,0.23-0.1,0.34-0.15
		c0.07-0.03,0.29-0.08,0.33-0.14c-1.37,2.14,0,4.97-1.58,7.07C87.77,14.27,87.18,15.1,86.26,15.32z M91.68,11.29
		c-0.19,1.49-1.11,2.79-2.41,3.5c-0.59,0.35-1.28,0.47-1.96,0.54c1.07-0.72,1.77-2.21,2.14-3.36c0.24-0.81,0.19-1.65,0.18-2.48
		c2.57-1.83,3.01-2.1,3.56-2.01C91.97,8.38,91.75,9.85,91.68,11.29z"/>
</g>
</svg>
