<?xml version="1.0" encoding="utf-8"?>
<!-- Generator: Adobe Illustrator 23.0.0, SVG Export Plug-In . SVG Version: 6.00 Build 0)  -->
<svg version="1.1" id="Слой_1" xmlns="http://www.w3.org/2000/svg" xmlns:xlink="http://www.w3.org/1999/xlink" x="0px" y="0px"
	 viewBox="0 0 100 21.28" width="100" height="21.28" style="enable-background:new 0 0 100 21.28;" xml:space="preserve">
<g>
	<path d="M15.19,2.73C5.16-1.22,0.02,15.92,10.07,19.03c1.49,0.41,2.97-0.36,4.28-0.97c0.98-0.45,1.99-0.91,2.74-1.74
		C20.74,12.48,21.11,4.47,15.19,2.73z M12.77,17.07c-2.72,0.06-5.63-2.01-5.14-5.02c0.24-2.45,1.33-6.13,4.3-6.13
		c3.22,0.41,5.13,4.96,2.87,7.49c-1.08,1.37-2.83,0.98-4.16,0.17c-0.55-0.58-0.91-1.56-0.87-2.4c0.13-1.66,2.58-3.29,3.59-1.4
		c0.2,0.41,0.23,1,0.02,1.45c-0.28,0.3-0.65,0.74-1.08,0.41c-0.23-0.14-0.76-0.44-0.59-0.8c0,0,0,0,0,0
		c0.64,0.01,0.8-0.94,0.21-1.15c-0.48-0.32-1.07,0.05-1.24,0.55c-0.88,1.69,1.81,3.61,3.11,2.25c1-0.71,1.14-2.13,0.65-3.19
		C13.39,7,10.26,7.52,9.16,9.49c-1.14,1.7-0.49,4.54,1.39,5.4c2.74,1.6,5.66,0.01,6.28-3.04c0.92-3.57-2.7-8.24-6.46-6.85
		C6.69,6.67,4.9,13.54,8.01,16.46C2.6,12.21,7.65,0.7,14.73,3.82C21.22,5.59,18.86,16.68,12.77,17.07z"/>
	<path d="M30.31,2.73c-10.02-3.95-15.16,13.19-5.12,16.3c1.49,0.41,2.97-0.36,4.28-0.97c0.98-0.45,1.99-0.91,2.74-1.74
		C35.87,12.48,36.24,4.47,30.31,2.73z M27.89,17.07c-2.72,0.06-5.63-2.01-5.14-5.02c0.24-2.45,1.33-6.13,4.3-6.13
		c3.22,0.41,5.13,4.96,2.87,7.49c-1.08,1.37-2.83,0.98-4.16,0.17c-0.55-0.58-0.91-1.56-0.87-2.4c0.13-1.66,2.58-3.29,3.59-1.4
		c0.2,0.41,0.23,1,0.02,1.45c-0.28,0.3-0.64,0.74-1.08,0.41c-0.23-0.14-0.76-0.44-0.59-0.8c0,0,0,0,0,0
		c0.64,0.01,0.8-0.94,0.21-1.15c-0.48-0.32-1.07,0.05-1.24,0.55c-0.88,1.69,1.81,3.61,3.11,2.25c1-0.71,1.14-2.13,0.65-3.19
		c-1.02-2.3-4.16-1.78-5.25,0.19c-1.14,1.7-0.49,4.54,1.39,5.4c2.74,1.6,5.66,0.01,6.28-3.04c0.92-3.57-2.7-8.24-6.46-6.85
		c-3.68,1.67-5.48,8.55-2.36,11.47c-5.41-4.25-0.36-15.76,6.72-12.64C36.34,5.59,33.99,16.68,27.89,17.07z"/>
	<path d="M45.43,2.73c-10.02-3.95-15.16,13.19-5.12,16.3c1.49,0.41,2.97-0.36,4.28-0.97c0.98-0.45,1.99-0.91,2.74-1.74
		C50.99,12.48,51.36,4.47,45.43,2.73z M43.02,17.07c-2.72,0.06-5.63-2.01-5.14-5.02c0.24-2.45,1.33-6.13,4.3-6.13
		c3.22,0.41,5.13,4.96,2.87,7.49c-1.08,1.37-2.83,0.98-4.16,0.17c-0.55-0.58-0.91-1.56-0.87-2.4c0.13-1.66,2.58-3.29,3.59-1.4
		c0.2,0.41,0.23,1,0.02,1.45c-0.28,0.3-0.64,0.74-1.08,0.41c-0.23-0.14-0.76-0.44-0.59-0.8c0,0,0,0,0,0
		c0.64,0.01,0.8-0.94,0.21-1.15c-0.48-0.32-1.07,0.05-1.24,0.55c-0.88,1.69,1.81,3.61,3.11,2.25c1-0.71,1.14-2.13,0.65-3.19
		C43.64,7,40.5,7.52,39.41,9.49c-1.14,1.7-0.49,4.54,1.39,5.4c2.74,1.6,5.66,0.01,6.28-3.04c0.92-3.57-2.7-8.24-6.46-6.85
		c-3.68,1.67-5.48,8.55-2.36,11.47C32.84,12.21,37.9,0.7,44.98,3.82C51.47,5.59,49.11,16.68,43.02,17.07z"/>
	<path d="M60.56,2.73c-10.02-3.95-15.16,13.19-5.12,16.3c1.49,0.41,2.97-0.36,4.28-0.97c0.98-0.45,1.99-0.91,2.74-1.74
		C66.11,12.48,66.48,4.47,60.56,2.73z M58.14,17.07c-2.72,0.06-5.63-2.01-5.14-5.02c0.24-2.45,1.33-6.13,4.3-6.13
		c3.22,0.41,5.13,4.96,2.87,7.49c-1.08,1.37-2.83,0.98-4.16,0.17c-0.55-0.58-0.91-1.56-0.87-2.4c0.13-1.66,2.58-3.29,3.59-1.4
		c0.2,0.41,0.23,1,0.02,1.45c-0.28,0.3-0.64,0.74-1.08,0.41c-0.23-0.14-0.76-0.44-0.59-0.8c0,0,0,0,0,0
		c0.64,0.01,0.8-0.94,0.21-1.15c-0.48-0.32-1.07,0.05-1.24,0.55c-0.88,1.69,1.81,3.61,3.11,2.25c1-0.71,1.14-2.13,0.65-3.19
		c-1.02-2.3-4.16-1.78-5.25,0.19c-1.14,1.7-0.49,4.54,1.39,5.4c2.74,1.6,5.66,0.01,6.28-3.04c0.92-3.57-2.7-8.24-6.46-6.85
		c-3.68,1.67-5.48,8.55-2.36,11.47C47.97,12.21,53.02,0.7,60.1,3.82C66.59,5.59,64.23,16.68,58.14,17.07z"/>
	<path d="M75.68,2.73c-10.02-3.95-15.16,13.19-5.12,16.3c1.49,0.41,2.97-0.36,4.28-0.97c0.98-0.45,1.99-0.91,2.74-1.74
		C81.24,12.48,81.61,4.47,75.68,2.73z M73.26,17.07c-2.72,0.06-5.63-2.01-5.14-5.02c0.24-2.45,1.33-6.13,4.3-6.13
		c3.22,0.41,5.13,4.96,2.87,7.49c-1.08,1.37-2.83,0.98-4.16,0.17c-0.55-0.58-0.91-1.56-0.87-2.4c0.13-1.66,2.58-3.29,3.59-1.4
		c0.2,0.41,0.23,1,0.02,1.45c-0.28,0.3-0.65,0.74-1.08,0.41c-0.23-0.14-0.76-0.44-0.59-0.8c0,0,0,0,0,0
		c0.64,0.01,0.8-0.94,0.21-1.15c-0.48-0.32-1.07,0.05-1.24,0.55c-0.88,1.69,1.81,3.61,3.11,2.25c1-0.71,1.14-2.13,0.65-3.19
		c-1.02-2.3-4.16-1.78-5.25,0.19c-1.14,1.7-0.49,4.54,1.39,5.4c2.74,1.6,5.66,0.01,6.28-3.04c0.92-3.57-2.7-8.24-6.46-6.85
		c-3.68,1.67-5.48,8.55-2.36,11.47c-5.41-4.25-0.36-15.76,6.72-12.64C81.72,5.59,79.36,16.68,73.26,17.07z"/>
	<path d="M90.8,2.73c-10.02-3.95-15.16,13.19-5.12,16.3c1.49,0.41,2.97-0.36,4.28-0.97c0.98-0.45,1.99-0.91,2.74-1.74
		C96.36,12.48,96.73,4.47,90.8,2.73z M88.39,17.07c-2.72,0.06-5.63-2.01-5.14-5.02c0.24-2.45,1.33-6.13,4.3-6.13
		c3.22,0.41,5.13,4.96,2.87,7.49c-1.08,1.37-2.83,0.98-4.16,0.17c-0.55-0.58-0.91-1.56-0.87-2.4c0.13-1.66,2.58-3.29,3.59-1.4
		c0.2,0.41,0.23,1,0.02,1.45c-0.28,0.3-0.65,0.74-1.08,0.41c-0.23-0.14-0.76-0.44-0.59-0.8c0,0,0,0,0,0
		c0.64,0.01,0.8-0.94,0.21-1.15c-0.48-0.32-1.07,0.05-1.24,0.55c-0.88,1.69,1.81,3.61,3.11,2.25c1-0.71,1.14-2.13,0.65-3.19
		c-1.02-2.3-4.16-1.78-5.25,0.19c-1.14,1.7-0.49,4.54,1.39,5.4c2.74,1.6,5.66,0.01,6.28-3.04c0.92-3.57-2.7-8.24-6.46-6.85
		c-3.68,1.67-5.48,8.55-2.36,11.47c-5.41-4.25-0.36-15.76,6.72-12.64C96.84,5.59,94.48,16.68,88.39,17.07z"/>
</g>
</svg>
