<?xml version="1.0" encoding="utf-8"?>
<!-- Generator: Adobe Illustrator 23.0.0, SVG Export Plug-In . SVG Version: 6.00 Build 0)  -->
<svg version="1.1" id="Слой_1" xmlns="http://www.w3.org/2000/svg" xmlns:xlink="http://www.w3.org/1999/xlink" x="0px" y="0px"
	 viewBox="0 0 100 21.28" width="100" height="21.28" style="enable-background:new 0 0 100 21.28;" xml:space="preserve">
<g>
	<path d="M13.28,2.73C3.76-1.22-1.13,15.92,8.42,19.03c1.41,0.41,2.82-0.36,4.07-0.97c0.93-0.45,1.9-0.91,2.6-1.74
		C18.57,12.48,18.92,4.47,13.28,2.73z M10.99,17.07c-2.59,0.06-5.35-2.01-4.89-5.02c0.23-2.45,1.26-6.13,4.09-6.13
		c3.06,0.41,4.87,4.96,2.73,7.49c-1.02,1.37-2.69,0.98-3.95,0.17c-0.53-0.58-0.87-1.56-0.83-2.4c0.12-1.66,2.46-3.29,3.41-1.4
		c0.19,0.41,0.22,1,0.02,1.45c-0.27,0.3-0.61,0.74-1.03,0.41c-0.22-0.14-0.72-0.44-0.56-0.8c0,0,0,0,0,0
		c0.61,0.01,0.76-0.94,0.2-1.15c-0.45-0.32-1.01,0.05-1.18,0.55c-0.84,1.69,1.72,3.61,2.96,2.25c0.95-0.71,1.08-2.13,0.62-3.19
		C11.58,7,8.6,7.52,7.56,9.49c-1.08,1.7-0.47,4.54,1.32,5.4c2.6,1.6,5.38,0.01,5.97-3.04c0.88-3.57-2.57-8.24-6.14-6.85
		c-3.5,1.67-5.2,8.55-2.24,11.47C1.32,12.21,6.12,0.7,12.85,3.82C19.02,5.59,16.78,16.68,10.99,17.07z"/>
	<path d="M29.11,2.73c-9.53-3.95-14.41,13.19-4.87,16.3c1.41,0.41,2.82-0.36,4.07-0.97c0.93-0.45,1.9-0.91,2.6-1.74
		C34.39,12.48,34.74,4.47,29.11,2.73z M26.81,17.07c-2.59,0.06-5.35-2.01-4.89-5.02c0.23-2.45,1.26-6.13,4.09-6.13
		c3.06,0.41,4.87,4.96,2.73,7.49c-1.02,1.37-2.69,0.98-3.95,0.17c-0.53-0.58-0.87-1.56-0.83-2.4c0.12-1.66,2.46-3.29,3.41-1.4
		c0.19,0.41,0.22,1,0.02,1.45c-0.27,0.3-0.61,0.74-1.03,0.41c-0.22-0.14-0.72-0.44-0.56-0.8c0,0,0,0,0,0
		c0.61,0.01,0.76-0.94,0.2-1.15c-0.45-0.32-1.01,0.05-1.18,0.55c-0.84,1.69,1.72,3.61,2.96,2.25c0.95-0.71,1.08-2.13,0.62-3.19
		c-0.97-2.3-3.95-1.78-4.99,0.19c-1.08,1.7-0.47,4.54,1.32,5.4c2.6,1.6,5.38,0.01,5.97-3.04c0.88-3.57-2.57-8.24-6.14-6.85
		c-3.5,1.67-5.2,8.55-2.24,11.47c-5.15-4.25-0.34-15.76,6.39-12.64C34.84,5.59,32.6,16.68,26.81,17.07z"/>
	<path d="M44.93,2.73c-9.53-3.95-14.41,13.19-4.87,16.3c1.41,0.41,2.82-0.36,4.07-0.97c0.93-0.45,1.9-0.91,2.6-1.74
		C50.22,12.48,50.57,4.47,44.93,2.73z M42.64,17.07c-2.59,0.06-5.35-2.01-4.89-5.02c0.23-2.45,1.26-6.13,4.09-6.13
		c3.06,0.41,4.87,4.96,2.73,7.49c-1.02,1.37-2.69,0.98-3.95,0.17c-0.53-0.58-0.87-1.56-0.83-2.4c0.12-1.66,2.46-3.29,3.41-1.4
		c0.19,0.41,0.22,1,0.02,1.45c-0.27,0.3-0.61,0.74-1.03,0.41c-0.22-0.14-0.72-0.44-0.56-0.8c0,0,0,0,0,0
		c0.61,0.01,0.76-0.94,0.2-1.15c-0.45-0.32-1.01,0.05-1.18,0.55c-0.84,1.69,1.72,3.61,2.96,2.25c0.95-0.71,1.08-2.13,0.62-3.19
		c-0.97-2.3-3.95-1.78-4.99,0.19c-1.08,1.7-0.47,4.54,1.32,5.4c2.6,1.6,5.38,0.01,5.97-3.04c0.88-3.57-2.57-8.24-6.14-6.85
		c-3.5,1.67-5.2,8.55-2.24,11.47C32.97,12.21,37.77,0.7,44.5,3.82C50.67,5.59,48.43,16.68,42.64,17.07z"/>
	<path d="M60.76,2.73c-9.53-3.95-14.41,13.19-4.87,16.3c1.41,0.41,2.82-0.36,4.07-0.97c0.93-0.45,1.9-0.91,2.6-1.74
		C66.04,12.48,66.39,4.47,60.76,2.73z M58.46,17.07c-2.59,0.06-5.35-2.01-4.89-5.02c0.23-2.45,1.26-6.13,4.09-6.13
		c3.06,0.41,4.87,4.96,2.73,7.49c-1.02,1.37-2.69,0.98-3.95,0.17c-0.53-0.58-0.87-1.56-0.83-2.4c0.12-1.66,2.46-3.29,3.41-1.4
		c0.19,0.41,0.22,1,0.02,1.45c-0.27,0.3-0.61,0.74-1.03,0.41c-0.22-0.14-0.72-0.44-0.56-0.8c0,0,0,0,0,0
		c0.61,0.01,0.76-0.94,0.2-1.15c-0.45-0.32-1.01,0.05-1.18,0.55c-0.84,1.69,1.72,3.61,2.96,2.25c0.95-0.71,1.08-2.13,0.62-3.19
		c-0.97-2.3-3.95-1.78-4.99,0.19c-1.08,1.7-0.47,4.54,1.32,5.4c2.6,1.6,5.38,0.01,5.97-3.04c0.88-3.57-2.57-8.24-6.14-6.85
		c-3.5,1.67-5.2,8.55-2.24,11.47C48.79,12.21,53.6,0.7,60.33,3.82C66.5,5.59,64.25,16.68,58.46,17.07z"/>
	<path d="M76.58,2.73c-9.53-3.95-14.41,13.19-4.87,16.3c1.41,0.41,2.82-0.36,4.07-0.97c0.93-0.45,1.9-0.91,2.6-1.74
		C81.87,12.48,82.22,4.47,76.58,2.73z M74.29,17.07c-2.59,0.06-5.35-2.01-4.89-5.02c0.23-2.45,1.26-6.13,4.09-6.13
		c3.06,0.41,4.87,4.96,2.73,7.49c-1.02,1.37-2.69,0.98-3.95,0.17c-0.53-0.58-0.87-1.56-0.83-2.4c0.12-1.66,2.46-3.29,3.41-1.4
		c0.19,0.41,0.22,1,0.02,1.45c-0.27,0.3-0.61,0.74-1.03,0.41c-0.22-0.14-0.72-0.44-0.56-0.8c0,0,0,0,0,0
		c0.61,0.01,0.76-0.94,0.2-1.15c-0.45-0.32-1.01,0.05-1.18,0.55c-0.84,1.69,1.72,3.61,2.96,2.25c0.95-0.71,1.08-2.13,0.62-3.19
		C74.88,7,71.9,7.52,70.86,9.49c-1.08,1.7-0.47,4.54,1.32,5.4c2.6,1.6,5.38,0.01,5.97-3.04c0.88-3.57-2.57-8.24-6.14-6.85
		c-3.5,1.67-5.2,8.55-2.24,11.47c-5.15-4.25-0.34-15.76,6.39-12.64C82.32,5.59,80.08,16.68,74.29,17.07z"/>
	<path d="M92.41,2.73C82.88-1.22,78,15.92,87.54,19.03c1.41,0.41,2.82-0.36,4.07-0.97c0.93-0.45,1.9-0.91,2.6-1.74
		C97.69,12.48,98.04,4.47,92.41,2.73z M90.11,17.07c-2.59,0.06-5.35-2.01-4.89-5.02c0.23-2.45,1.26-6.13,4.09-6.13
		c3.06,0.41,4.87,4.96,2.73,7.49c-1.02,1.37-2.69,0.98-3.95,0.17c-0.53-0.58-0.87-1.56-0.83-2.4c0.12-1.66,2.46-3.29,3.41-1.4
		c0.19,0.41,0.22,1,0.02,1.45c-0.27,0.3-0.61,0.74-1.03,0.41c-0.22-0.14-0.72-0.44-0.56-0.8c0,0,0,0,0,0
		c0.61,0.01,0.76-0.94,0.2-1.15c-0.45-0.32-1.01,0.05-1.18,0.55c-0.84,1.69,1.72,3.61,2.96,2.25c0.95-0.71,1.08-2.13,0.62-3.19
		c-0.97-2.3-3.95-1.78-4.99,0.19c-1.08,1.7-0.47,4.54,1.32,5.4c2.6,1.6,5.38,0.01,5.97-3.04c0.88-3.57-2.57-8.24-6.14-6.85
		c-3.5,1.67-5.2,8.55-2.24,11.47c-5.15-4.25-0.34-15.76,6.39-12.64C98.15,5.59,95.91,16.68,90.11,17.07z"/>
</g>
</svg>
