<?xml version="1.0" encoding="utf-8"?>
<!-- Generator: Adobe Illustrator 23.0.0, SVG Export Plug-In . SVG Version: 6.00 Build 0)  -->
<svg version="1.1" id="Слой_1" xmlns="http://www.w3.org/2000/svg" xmlns:xlink="http://www.w3.org/1999/xlink" x="0px" y="0px"
	 viewBox="0 0 100 21.28" style="enable-background:new 0 0 100 21.28;" xml:space="preserve">
<g>
	<path d="M8.22,5.77c-3.88,3.79-2.38,8.77,2.21,11.09c0.44,0.25,0.83-0.46,0.38-0.69c-3.72-1.9-5.38-5.62-2.68-9.21
		c0.29-0.34,0.63-0.64,1-0.89c1.13-0.79,2.69-1.18,4.01-0.66c1.24,0.49,1.95,1.64,2.25,2.88c0.52,2.06-1.24,4.72-3.53,3.53
		c-0.16-0.08-0.31-0.19-0.41-0.34c-0.12-0.18-0.14-0.42-0.08-0.63c0.05-0.21,0.17-0.4,0.32-0.56c0.21,0.5,0.99,0.74,1.43,0.38
		c0.45-0.37,0.54-1.06,0.15-1.51C12.82,8.69,12.08,9,11.63,9.32c-0.34,0.19-0.62,0.48-0.81,0.81c-0.56,1,0.04,2.12,1.04,2.54
		c0.98,0.41,2.2,0.3,3.02-0.38c0.81-0.67,1.25-1.72,1.36-2.75c0.14-1.31-0.32-2.72-1.16-3.73C13.4,3.79,10.01,4.02,8.22,5.77z"/>
	<path d="M23.87,4.97c-0.99-0.43-1.99-0.38-3.03-0.23c-3.82,0.54-6.19,6.46-2.24,8.51c1.04,0.54,2.57,0.64,3.4-0.34
		c0.66-0.77,0.84-2.33-0.01-3.03c-0.55-0.46-1.34-0.33-1.82,0.17c-0.37,0.38-0.75,1.06-0.06,1.32c0.44,0.17,1.33,0.01,1.51-0.48
		c0.16,0.67,0.11,1.4-0.54,1.76c-1.83,1.02-3.78-1.05-3.73-2.84c0.06-2.1,1.62-3.8,3.58-4.28c1.38-0.34,2.9,0.06,3.92,1.06
		c0.74,0.73,0.95,1.89,1.07,2.9c0.12,1.08,0.02,2.21-0.45,3.21c-0.7,1.45-2.07,2.44-3.47,3.22c-0.2,0.08-0.28,0.33-0.2,0.52
		c0.36,0.8,2.13-0.8,2.43-1.06c1.02-0.88,1.83-1.84,2.23-3.14c0.56-1.8,0.42-3.91-0.59-5.52C25.39,5.95,24.7,5.33,23.87,4.97z"/>
	<path d="M36.89,5.03c-0.61-0.28-1.27-0.47-1.94-0.54c-1.59-0.17-3.15,0.35-4.26,1.5c-0.07,0.07-0.13,0.14-0.19,0.21
		c-0.54,0.62-0.93,1.36-1.12,2.16c-0.03,0.13-0.06,0.26-0.07,0.4c-0.42,3.02,2.11,6.17,4.65,7.47c0.35,0.18,0.72,0.3,1.07,0.46
		c0.08,0.04,0.17,0.08,0.27,0.1c0.2,0.06,0.4,0.07,0.55-0.09c0.14-0.16,0.09-0.37-0.07-0.48c-0.38-0.27-0.93-0.32-1.35-0.51
		c-0.96-0.46-1.76-1.2-2.44-2.02c-0.91-1.11-1.93-2.7-1.96-4.18C30,8.02,30.9,6.62,32.12,5.85c1.59-1,3.78-0.63,5.28,0.38
		c0.74,0.5,1.46,1.23,1.45,2.18c-0.01,1.45-1.56,2.34-2.87,2.26c-0.49-0.03-0.99-0.2-1.31-0.56c-0.11-0.12-0.19-0.27-0.19-0.44
		c0.01-0.22,0.19-0.4,0.36-0.54c0.05,0.37,0.4,0.67,0.77,0.69c0.37,0.01,0.73-0.26,0.84-0.62c0.1-0.36-0.05-0.78-0.35-0.99
		c-0.42-0.29-1-0.19-1.44,0.06c-0.18,0.11-0.35,0.24-0.49,0.4c-1.04,1.18,0.07,2.51,1.34,2.76c1.17,0.23,2.49-0.24,3.29-1.11
		c0.6-0.65,0.93-1.55,0.78-2.43C39.33,6.56,38.04,5.55,36.89,5.03z"/>
	<path d="M44.45,4.94c-1.19-0.3-2.52-0.03-3.4,0.86c-0.87,0.88-1.35,2.2-1.28,3.44c0.05,0.87,0.4,1.76,1.14,2.27
		c0.85,0.59,2.12,0.56,3.05,0.17c1.18-0.49,2.06-2.94,0.31-3.24c-0.48-0.08-1.1,0.01-1.43,0.39c-0.15,0.18-0.24,0.42-0.19,0.66
		c0.07,0.29,0.28,0.35,0.49,0.5c0.49,0.34,0.98-0.14,1.17-0.58c0.06,0.02,0.12,0.04,0.17,0.07c0.02,0.44-0.09,0.86-0.4,1.18
		c-0.64,0.64-1.84,0.65-2.63,0.27c-0.67-0.44-0.92-1.36-0.93-2.12c-0.01-0.47,0.16-0.94,0.37-1.36c0.63-1.24,1.7-2.12,3.14-1.8
		c1.19,0.26,2.32,1.12,3,2.12c0.48,0.7,0.7,1.55,0.71,2.4c0.01,0.74-0.07,1.63-0.45,2.27c-0.96,1.6-2.43,3.08-4.3,3.51
		c-0.29,0.07-0.84,0.09-0.77,0.54c0.04,0.21,0.24,0.36,0.45,0.32c2.57-0.5,4.91-2.44,5.65-5C49.11,8.99,47.36,5.68,44.45,4.94z"/>
	<path d="M53.73,5.77c-3.88,3.79-2.38,8.77,2.21,11.09c0.44,0.25,0.83-0.46,0.38-0.69c-3.72-1.9-5.38-5.62-2.67-9.21
		c0.29-0.34,0.63-0.64,1-0.89c1.13-0.79,2.69-1.18,4.01-0.66c1.24,0.49,1.95,1.64,2.25,2.88c0.52,2.06-1.24,4.72-3.53,3.53
		c-0.16-0.08-0.31-0.19-0.41-0.34c-0.12-0.18-0.14-0.42-0.08-0.63c0.05-0.21,0.17-0.4,0.32-0.56c0.21,0.5,0.99,0.74,1.43,0.38
		c0.45-0.37,0.54-1.06,0.15-1.51C58.33,8.69,57.59,9,57.14,9.32c-0.34,0.19-0.62,0.48-0.81,0.81c-0.56,1,0.04,2.12,1.04,2.54
		c0.98,0.41,2.2,0.3,3.02-0.38c0.81-0.67,1.25-1.72,1.36-2.75c0.14-1.31-0.32-2.72-1.16-3.73C58.91,3.79,55.52,4.02,53.73,5.77z"/>
	<path d="M69.38,4.97c-0.99-0.43-1.99-0.38-3.03-0.23c-3.82,0.54-6.19,6.46-2.24,8.51c1.04,0.54,2.57,0.64,3.4-0.34
		c0.66-0.77,0.84-2.33-0.01-3.03c-0.55-0.46-1.34-0.33-1.82,0.17c-0.37,0.38-0.75,1.06-0.06,1.32c0.44,0.17,1.33,0.01,1.51-0.48
		c0.16,0.67,0.11,1.4-0.54,1.76c-1.83,1.02-3.78-1.05-3.73-2.84c0.06-2.1,1.62-3.8,3.58-4.28c1.38-0.34,2.9,0.06,3.92,1.06
		c0.74,0.73,0.95,1.89,1.07,2.9c0.12,1.08,0.02,2.21-0.45,3.21c-0.7,1.45-2.07,2.44-3.47,3.22c-0.2,0.08-0.28,0.33-0.2,0.52
		c0.36,0.8,2.13-0.8,2.43-1.06c1.02-0.88,1.83-1.84,2.23-3.14c0.56-1.8,0.42-3.91-0.59-5.52C70.9,5.95,70.21,5.33,69.38,4.97z"/>
	<path d="M82.4,5.03c-0.61-0.28-1.27-0.47-1.94-0.54c-1.59-0.17-3.15,0.35-4.26,1.5c-0.07,0.07-0.13,0.14-0.19,0.21
		c-0.54,0.62-0.93,1.36-1.12,2.16c-0.03,0.13-0.06,0.26-0.07,0.4c-0.42,3.02,2.11,6.17,4.65,7.47c0.35,0.18,0.72,0.3,1.07,0.46
		c0.08,0.04,0.17,0.08,0.27,0.1c0.2,0.06,0.4,0.07,0.55-0.09c0.14-0.16,0.09-0.37-0.07-0.48c-0.38-0.27-0.93-0.32-1.35-0.51
		c-0.96-0.46-1.76-1.2-2.44-2.02c-0.91-1.11-1.93-2.7-1.96-4.18c-0.04-1.48,0.86-2.88,2.09-3.65c1.59-1,3.78-0.63,5.28,0.38
		c0.74,0.5,1.46,1.23,1.45,2.18c-0.01,1.45-1.56,2.34-2.87,2.26c-0.49-0.03-0.99-0.2-1.31-0.56C80.07,9.98,79.99,9.83,80,9.66
		c0.01-0.22,0.19-0.4,0.36-0.54c0.05,0.37,0.4,0.67,0.77,0.69c0.37,0.01,0.73-0.26,0.84-0.62c0.1-0.36-0.05-0.78-0.35-0.99
		c-0.42-0.29-1-0.19-1.44,0.06c-0.18,0.11-0.35,0.24-0.49,0.4c-1.04,1.18,0.07,2.51,1.34,2.76c1.17,0.23,2.49-0.24,3.29-1.11
		c0.6-0.65,0.93-1.55,0.78-2.43C84.84,6.56,83.55,5.55,82.4,5.03z"/>
	<path d="M89.96,4.94c-1.19-0.3-2.52-0.03-3.4,0.86c-0.87,0.88-1.35,2.2-1.28,3.44c0.05,0.87,0.4,1.76,1.14,2.27
		c0.85,0.59,2.12,0.56,3.05,0.17c1.18-0.49,2.06-2.94,0.31-3.24c-0.48-0.08-1.1,0.01-1.43,0.39c-0.15,0.18-0.24,0.42-0.19,0.66
		c0.07,0.29,0.28,0.35,0.49,0.5c0.49,0.34,0.98-0.14,1.17-0.58c0.06,0.02,0.12,0.04,0.17,0.07c0.02,0.44-0.09,0.86-0.4,1.18
		c-0.64,0.64-1.84,0.65-2.63,0.27c-0.67-0.44-0.92-1.36-0.93-2.12c-0.01-0.47,0.16-0.94,0.37-1.36c0.63-1.24,1.7-2.12,3.14-1.8
		c1.19,0.26,2.32,1.12,3,2.12c0.48,0.7,0.7,1.55,0.71,2.4c0.01,0.74-0.07,1.63-0.45,2.27c-0.96,1.6-2.43,3.08-4.3,3.51
		c-0.29,0.07-0.84,0.09-0.77,0.54c0.04,0.21,0.24,0.36,0.45,0.32c2.57-0.5,4.91-2.44,5.65-5C94.62,8.99,92.87,5.68,89.96,4.94z"/>
</g>
</svg>
