<?xml version="1.0" encoding="utf-8"?>
<!-- Generator: Adobe Illustrator 23.0.0, SVG Export Plug-In . SVG Version: 6.00 Build 0)  -->
<svg version="1.1" id="Слой_1" xmlns="http://www.w3.org/2000/svg" xmlns:xlink="http://www.w3.org/1999/xlink" x="0px" y="0px"
	 viewBox="0 0 100 21.28" style="enable-background:new 0 0 100 21.28;" xml:space="preserve">
<g>
	<path d="M21.86,16.54c-1.77-1.61-3.45-3.53-4.56-5.67c-0.5-0.96-0.92-2.04-0.91-3.15c0.01-1.11,0.51-2.4,1.69-2.65
		c0.69-0.15,1.44,0.02,1.99,0.46c0.55,0.44,0.88,1.16,0.82,1.87c-0.05,0.71-0.5,1.38-1.14,1.67c-0.29,0.13-0.62,0.18-0.93,0.1
		c-0.56-0.15-0.97-0.78-0.85-1.36c0.1-0.47,0.57-0.94,1.08-0.8c0.68,0.04-0.04,1.15,0.53,1.23c0.58-0.08,0.33-1.32-0.03-1.58
		c-1.1-0.81-2.61,0.78-2.01,1.92c0.49,0.93,1.27,1.42,2.31,1.02c1.13-0.43,1.77-1.6,1.49-2.8c-0.41-1.76-2.24-2.94-3.92-2.04
		c-0.24,0.13-0.46,0.3-0.66,0.49c-0.08,0.09-0.54,0.55-0.5,0.68c-0.17-0.43-0.52-0.82-1.1-1.14c-1.86-0.54-4.09,0.83-4.56,2.71
		c-0.2,0.82,0.05,1.7,0.86,2.02c0.8,0.41,1.73,0.05,2.34-0.54c0.39-0.38,0.81-1,0.68-1.58c-0.13-0.62-0.88-0.9-1.44-0.79
		C12.29,6.77,12,7.71,12.43,8.34c0.11,0.15,0.31,0.29,0.47,0.19c0.14-0.09,0.13-0.31,0.05-0.46s-0.18-0.3-0.19-0.47
		c-0.03-0.56,1.06-0.52,1.17-0.05c0.11,0.45-0.51,1.22-0.88,1.4c-0.47,0.24-1.13,0.28-1.58-0.04c-0.74-0.53-0.3-1.67,0.12-2.26
		c0.53-0.73,1.44-1.26,2.32-1.41c0.68-0.12,1.7,0.07,1.87,0.87c0.32,2.9-3.9,5.82-5.79,7.73c-1.23,1.01-2.42,2.11-3.81,2.9
		c-0.12,0.05-0.2,0.18-0.17,0.31c0.03,0.15,0.21,0.26,0.35,0.19c1.45-0.77,2.69-1.95,3.97-2.98c1.12-1.08,4.32-3.65,5.56-5.97
		c0.24,2.17,1.84,5.2,5.98,8.98c0.27,0.23,0.61-0.19,0.35-0.41C22.1,16.76,21.98,16.65,21.86,16.54z"/>
	<path d="M38.02,15.43c-0.56-0.59-1.05-1.25-1.48-1.94c-0.91-1.44-1.59-3.01-2.27-4.58c-0.16-0.37-0.32-0.74-0.48-1.12
		C33.4,6.54,34.1,5.08,35.3,4.54c1.08-0.2,2.35,0.11,3,1.09c0.55,0.83,0.53,2.1-0.13,2.86c-0.39,0.46-1.05,0.73-1.64,0.61
		c-0.74-0.14-1.17-0.9-0.78-1.58c0.24-0.25,0.54-0.45,0.86-0.61c0.47-0.06,0.51,0.74,0.14,1.02c-0.45,0.36,0.22,0.76,0.47,0.29
		c0.72-0.67,0.12-2.29-0.91-1.75c-1.6,0.7-1.65,2.43-0.07,3.19c2.67,0.51,3.94-2.86,2.22-4.7c-1.58-1.62-4.09-1.23-4.98,0.73
		c-0.54-1.03-1.95-1.41-3.42-0.78c-1.2,0.55-2.29,1.98-2.2,3.36c0.11,0.67,0.64,1.23,1.29,1.37c0.88,0.19,1.86-0.25,2.47-0.88
		c0.39-0.4,0.71-1.05,0.68-1.62c-0.04-0.76-0.87-1.02-1.51-0.94c-0.47,0.06-0.92,0.31-1.22,0.69c-0.14,0.18-0.25,0.39-0.24,0.62
		c0.01,0.28,0.2,0.53,0.42,0.71c0.21,0.19,0.47,0.34,0.75,0.38c0.17,0.03,0.35,0.01,0.48-0.11c0.12-0.12,0.14-0.35,0-0.45
		c-0.17-0.11-0.39,0.04-0.59,0.01c-0.15-0.02-0.27-0.14-0.33-0.28c-0.23-0.5,0.17-0.9,0.63-1.01c0.23-0.05,0.62-0.09,0.84,0.02
		c0.46,0.22,0.2,0.9,0.01,1.21c-0.23,0.38-0.58,0.68-0.97,0.89c-0.67,0.35-1.85,0.43-2.12-0.5c-0.3-0.99,0.56-1.91,1.19-2.6
		c0.88-0.71,2.51-0.98,3.31-0.02c0.4,0.9,0.05,1.94-0.36,2.77c-0.56,1.16-1.37,2.19-2.2,3.16c-0.72,0.84-1.48,1.64-2.26,2.42
		c-0.6,0.61-1.18,1.25-1.81,1.82c-0.3,0.27-0.64,0.49-0.91,0.77c-0.09,0.09-0.26,0.24-0.25,0.39c0,0.06,0.14,0.33,0.23,0.26
		c3.13-2.47,6.14-5.65,7.98-9.26c0.33,1.14,1.05,2.2,1.47,3.29c1.06,2.38,2.5,4.71,4.86,5.93c0.12,0.09,0.29,0.05,0.37-0.07
		c0.09-0.13,0.05-0.29-0.07-0.38C39.35,16.35,38.59,16.04,38.02,15.43z M36.37,9.13C36.37,9.13,36.37,9.13,36.37,9.13
		c0,0-0.01-0.01-0.01-0.01C36.36,9.12,36.36,9.12,36.37,9.13C36.37,9.13,36.37,9.12,36.37,9.13C36.37,9.12,36.37,9.13,36.37,9.13
		C36.37,9.13,36.37,9.13,36.37,9.13z"/>
	<path d="M58.93,16.54c-1.77-1.61-3.45-3.53-4.56-5.67c-0.5-0.96-0.92-2.04-0.91-3.15c0.01-1.11,0.51-2.4,1.69-2.65
		c0.69-0.15,1.44,0.02,1.99,0.46c0.55,0.44,0.88,1.16,0.82,1.87c-0.05,0.71-0.5,1.38-1.14,1.67c-0.29,0.13-0.62,0.18-0.93,0.1
		c-0.56-0.15-0.97-0.78-0.85-1.36c0.1-0.47,0.57-0.94,1.08-0.8c0.68,0.04-0.04,1.15,0.53,1.23c0.58-0.08,0.33-1.32-0.03-1.58
		c-1.1-0.81-2.61,0.78-2.01,1.92c0.49,0.93,1.27,1.42,2.31,1.02c1.13-0.43,1.77-1.6,1.49-2.8C58,5.05,56.17,3.86,54.49,4.76
		c-0.24,0.13-0.46,0.3-0.66,0.49c-0.08,0.09-0.54,0.55-0.5,0.68c-0.17-0.43-0.52-0.82-1.1-1.14c-1.86-0.54-4.09,0.83-4.56,2.71
		c-0.2,0.82,0.05,1.7,0.86,2.02c0.8,0.41,1.73,0.05,2.34-0.54c0.39-0.38,0.81-1,0.68-1.58c-0.13-0.62-0.88-0.9-1.44-0.79
		c-0.76,0.15-1.05,1.09-0.62,1.71c0.11,0.15,0.31,0.29,0.47,0.19c0.14-0.09,0.13-0.31,0.05-0.46s-0.18-0.3-0.19-0.47
		C49.8,7.03,50.89,7.07,51,7.54c0.11,0.45-0.51,1.22-0.88,1.4c-0.47,0.24-1.13,0.28-1.58-0.04c-0.74-0.53-0.3-1.67,0.12-2.26
		c0.53-0.73,1.44-1.26,2.32-1.41c0.68-0.12,1.7,0.07,1.87,0.87c0.32,2.9-3.9,5.82-5.79,7.73c-1.23,1.01-2.42,2.11-3.81,2.9
		c-0.12,0.05-0.2,0.18-0.17,0.31c0.03,0.15,0.21,0.26,0.35,0.19c1.45-0.77,2.69-1.95,3.97-2.98c1.12-1.08,4.32-3.65,5.56-5.97
		c0.24,2.17,1.84,5.2,5.98,8.98c0.27,0.23,0.61-0.19,0.35-0.41C59.17,16.76,59.05,16.65,58.93,16.54z"/>
	<path d="M75.1,15.43c-0.56-0.59-1.05-1.25-1.48-1.94c-0.91-1.44-1.59-3.01-2.27-4.58c-0.16-0.37-0.32-0.74-0.48-1.12
		c-0.39-1.26,0.31-2.72,1.51-3.25c1.08-0.2,2.35,0.11,3,1.09c0.55,0.83,0.53,2.1-0.13,2.86c-0.39,0.46-1.05,0.73-1.64,0.61
		c-0.74-0.14-1.17-0.9-0.78-1.58c0.24-0.25,0.54-0.45,0.86-0.61c0.47-0.06,0.51,0.74,0.14,1.02c-0.45,0.36,0.22,0.76,0.47,0.29
		c0.72-0.67,0.12-2.29-0.91-1.75c-1.6,0.7-1.65,2.43-0.07,3.19c2.67,0.51,3.94-2.86,2.22-4.7c-1.58-1.62-4.09-1.23-4.98,0.73
		c-0.54-1.03-1.95-1.41-3.42-0.78c-1.2,0.55-2.29,1.98-2.2,3.36c0.11,0.67,0.64,1.23,1.29,1.37c0.88,0.19,1.86-0.25,2.47-0.88
		c0.39-0.4,0.71-1.05,0.68-1.62c-0.04-0.76-0.87-1.02-1.51-0.94c-0.47,0.06-0.92,0.31-1.22,0.69c-0.14,0.18-0.25,0.39-0.24,0.62
		c0.01,0.28,0.2,0.53,0.42,0.71c0.21,0.19,0.47,0.34,0.75,0.38c0.17,0.03,0.35,0.01,0.48-0.11c0.12-0.12,0.14-0.35,0-0.45
		c-0.17-0.11-0.39,0.04-0.59,0.01c-0.15-0.02-0.27-0.14-0.33-0.28c-0.23-0.5,0.17-0.9,0.63-1.01c0.23-0.05,0.62-0.09,0.84,0.02
		c0.46,0.22,0.2,0.9,0.01,1.21C68.35,8.36,68,8.66,67.61,8.87c-0.67,0.35-1.85,0.43-2.12-0.5c-0.3-0.99,0.56-1.91,1.19-2.6
		c0.88-0.71,2.51-0.98,3.31-0.02c0.4,0.9,0.05,1.94-0.36,2.77c-0.56,1.16-1.37,2.19-2.2,3.16c-0.72,0.84-1.48,1.64-2.26,2.42
		c-0.6,0.61-1.18,1.25-1.81,1.82c-0.3,0.27-0.64,0.49-0.91,0.77c-0.09,0.09-0.26,0.24-0.25,0.39c0,0.06,0.14,0.33,0.23,0.26
		c3.13-2.47,6.14-5.65,7.98-9.26c0.33,1.14,1.05,2.2,1.47,3.29c1.06,2.38,2.5,4.71,4.86,5.93c0.12,0.09,0.29,0.05,0.37-0.07
		c0.09-0.13,0.05-0.29-0.07-0.38C76.42,16.35,75.66,16.04,75.1,15.43z M73.44,9.13C73.45,9.13,73.44,9.13,73.44,9.13
		c0,0-0.01-0.01-0.01-0.01C73.43,9.12,73.44,9.12,73.44,9.13C73.44,9.13,73.44,9.12,73.44,9.13C73.44,9.12,73.44,9.13,73.44,9.13
		C73.44,9.13,73.44,9.13,73.44,9.13z"/>
	<path d="M93.89,16.84c-0.63-0.5-1.38-0.81-1.95-1.41c-0.56-0.59-1.05-1.25-1.48-1.94c-0.91-1.44-1.59-3.01-2.27-4.58
		c-0.16-0.37-0.32-0.74-0.48-1.12c-0.39-1.26,0.31-2.72,1.51-3.25c1.08-0.2,2.35,0.11,3,1.09c0.55,0.83,0.53,2.1-0.13,2.86
		c-0.39,0.46-1.05,0.73-1.64,0.61c-0.74-0.14-1.17-0.9-0.78-1.58c0.24-0.25,0.54-0.45,0.86-0.61c0.47-0.06,0.51,0.74,0.14,1.02
		c-0.45,0.36,0.22,0.76,0.47,0.29c0.72-0.67,0.12-2.29-0.91-1.75c-1.6,0.7-1.65,2.43-0.07,3.19c2.67,0.51,3.94-2.86,2.22-4.7
		c-1.58-1.62-4.09-1.23-4.98,0.73c-0.54-1.03-1.95-1.41-3.42-0.78c-1.2,0.55-2.29,1.98-2.2,3.36c0.11,0.67,0.64,1.23,1.29,1.37
		c0.88,0.19,1.86-0.25,2.47-0.88c0.39-0.4,0.71-1.05,0.68-1.62c-0.04-0.76-0.87-1.02-1.51-0.94c-0.47,0.06-0.92,0.31-1.22,0.69
		c-0.14,0.18-0.25,0.39-0.24,0.62c0.01,0.28,0.2,0.53,0.42,0.71c0.21,0.19,0.47,0.34,0.75,0.38c0.17,0.03,0.35,0.01,0.48-0.11
		c0.12-0.12,0.14-0.35,0-0.45c-0.17-0.11-0.39,0.04-0.59,0.01C84.12,8.02,84,7.9,83.94,7.76c-0.23-0.5,0.17-0.9,0.63-1.01
		c0.23-0.05,0.62-0.09,0.84,0.02c0.46,0.22,0.2,0.9,0.01,1.21c-0.23,0.38-0.58,0.68-0.97,0.89c-0.67,0.35-1.85,0.43-2.12-0.5
		c-0.3-0.99,0.56-1.91,1.19-2.6c0.88-0.71,2.51-0.98,3.31-0.02c0.4,0.9,0.05,1.94-0.36,2.77c-0.56,1.16-1.37,2.19-2.2,3.16
		c-0.72,0.84-1.48,1.64-2.26,2.42c-0.6,0.61-1.18,1.25-1.81,1.82c-0.3,0.27-0.64,0.49-0.91,0.77c-0.09,0.09-0.26,0.24-0.25,0.39
		c0,0.06,0.14,0.33,0.23,0.26c3.13-2.47,6.14-5.65,7.98-9.26c0.33,1.14,1.05,2.2,1.47,3.29c1.06,2.38,2.5,4.71,4.86,5.93
		c0.12,0.09,0.29,0.05,0.37-0.07C94.04,17.09,94,16.93,93.89,16.84z M90.28,9.13C90.28,9.13,90.28,9.13,90.28,9.13
		c0,0-0.01-0.01-0.01-0.01C90.27,9.12,90.27,9.12,90.28,9.13C90.28,9.13,90.28,9.12,90.28,9.13C90.28,9.12,90.28,9.13,90.28,9.13
		C90.28,9.13,90.28,9.13,90.28,9.13z"/>
</g>
</svg>
