<?xml version="1.0" encoding="utf-8"?>
<!-- Generator: Adobe Illustrator 23.0.0, SVG Export Plug-In . SVG Version: 6.00 Build 0)  -->
<svg version="1.1" id="Слой_1" xmlns="http://www.w3.org/2000/svg" xmlns:xlink="http://www.w3.org/1999/xlink" x="0px" y="0px"
	 viewBox="0 0 100 21.28" style="enable-background:new 0 0 100 21.28;" xml:space="preserve">
<path d="M89.58,10.94c-0.01-2.5-2.47-3.92-3.03-6.21c-0.03-0.19-0.06-0.49-0.33-0.44c-0.14,0.02-0.2,0.16-0.21,0.29
	c-0.13,0.57-0.55,1.04-0.89,1.51c-1.25,1.74-3.79,2.66-4.06,5c-0.06-0.07-0.13-0.14-0.2-0.21c-1.51-1.42-3.72-0.23-4.55,1.34
	c-0.09,0.18-0.15,0.36-0.2,0.55c0-0.05,0.01-0.11,0.01-0.16c-0.16-2.05-2.98-3.36-4.41-1.66c-0.01-2.5-2.47-3.92-3.03-6.21
	c-0.03-0.19-0.06-0.49-0.33-0.44c-0.14,0.02-0.2,0.16-0.21,0.29c-0.13,0.57-0.55,1.04-0.89,1.51c-1.25,1.74-3.79,2.66-4.06,5
	c-0.06-0.07-0.13-0.14-0.2-0.21c-1.51-1.42-3.72-0.23-4.55,1.34c-0.2,0.39-0.28,0.79-0.28,1.2c-0.22-1.95-2.3-3.91-4.17-2.61
	c0.11-2.63-2.31-4.24-3.3-6.4c-0.05-0.18-0.16-0.42-0.39-0.35c-1.61,2.27-4.81,3.8-4.97,6.94c-0.67-0.57-1.55-0.73-2.37-0.41
	c-0.76,0.29-1.38,0.91-1.71,1.64c-0.06,0.13-0.1,0.27-0.13,0.4c0,0,0-0.01,0-0.01c-0.16-2.05-2.98-3.36-4.41-1.66
	c-0.01-2.5-2.47-3.92-3.03-6.21c-0.03-0.19-0.06-0.49-0.33-0.44c-0.14,0.02-0.2,0.16-0.21,0.29c-0.13,0.57-0.55,1.04-0.89,1.51
	c-1.25,1.74-3.79,2.66-4.06,5c-0.06-0.07-0.13-0.14-0.2-0.21c-1.51-1.42-3.72-0.23-4.55,1.34c-0.2,0.39-0.28,0.79-0.28,1.2
	c-0.22-1.95-2.3-3.91-4.17-2.61c0.11-2.63-2.31-4.24-3.3-6.4c-0.05-0.18-0.16-0.42-0.39-0.35c-1.61,2.27-4.81,3.8-4.97,6.94
	c-0.67-0.57-1.55-0.73-2.37-0.41c-0.76,0.29-1.38,0.91-1.71,1.64c-0.31,0.68-0.31,1.48-0.13,2.19C6.3,15.07,6.51,15.78,7,16.3
	c0.17,0.18,0.38,0.34,0.63,0.41c0.12,0.03,0.25,0.04,0.36-0.02c0.11-0.06,0.17-0.21,0.1-0.32c-0.06-0.09-0.18-0.11-0.28-0.14
	c-0.28-0.09-0.48-0.32-0.65-0.55c-0.58-0.83-0.78-1.9-0.55-2.89c0.21-0.88,0.8-1.61,1.71-1.82c0.79-0.2,1.69,0.09,2.06,0.88
	c0.03,0.17,0.09,0.36,0.2,0.5c0.09,0.11,0.3,0.22,0.4,0.04c0.06-0.12-0.08-0.44-0.1-0.57c-0.03-0.19-0.05-0.38-0.05-0.58
	c0-0.36,0.05-0.73,0.15-1.08c0.2-0.7,0.59-1.34,1.05-1.91c0.51-0.64,1.09-1.2,1.68-1.76c0.29-0.28,0.59-0.56,0.87-0.85
	c0.08-0.08,0.82-0.76,0.78-0.83c1.06,2.07,3.43,3.69,3.15,6.26c-0.1,0.57-0.66,0.91-0.82,1.45c-0.08,0.29,0.19,0.53,0.44,0.31
	c0.6-0.53,0.62-1.43,1.38-1.78c1.43-0.72,3.04,0.79,3.17,2.45c0.15,1.33-0.83,2.65-1.93,3.3c-0.12,0.05-0.17,0.21-0.11,0.33
	c0.22,0.33,0.62-0.05,0.84-0.2c0.75-0.74,1.53-1.6,1.67-2.68c0.04-0.21,0.05-0.44,0.04-0.66c0.04,0.41,0.16,0.81,0.37,1.19
	c0.59,1.07,1.47,1.96,2.59,2.45c0.18,0.08,0.39-0.08,0.35-0.27c-0.04-0.24-0.53-0.33-0.71-0.43c-0.25-0.15-0.46-0.35-0.66-0.56
	c-0.3-0.32-0.61-0.63-0.87-0.98c-0.42-0.56-0.72-1.26-0.59-1.97c0.1-0.52,0.44-0.96,0.79-1.35c0.35-0.39,0.77-0.75,1.29-0.9
	c1.35-0.41,2.49,0.79,2.76,2.02c0.07,0.32,0.57,0.73,0.72,0.25c0.03-0.77-0.77-1.31-0.5-2.1c0.68-2.42,3.6-3.33,4.66-5.59
	c0.81,2.37,4.15,4.5,2.31,7.17c-0.1,0.24-0.07,0.71,0.29,0.62c0.55-0.38,0.46-1.21,0.92-1.67c0.49-0.65,1.32-1.02,2.14-0.72
	c2.22,0.75,1.8,3.11,0.51,4.56c-0.38,0.49-0.9,0.84-1.38,1.25c-0.1,0.09-0.11,0.24-0.02,0.34c0.08,0.1,0.24,0.11,0.34,0.03
	c1.13-0.84,2.21-2.02,2.54-3.41c0.01,0.3,0.04,0.6,0.11,0.89c0.17,0.67,0.39,1.38,0.88,1.9c0.17,0.18,0.38,0.34,0.63,0.41
	c0.12,0.03,0.25,0.04,0.36-0.02c0.11-0.06,0.17-0.21,0.1-0.32c-0.06-0.09-0.18-0.11-0.28-0.14c-0.28-0.09-0.48-0.32-0.65-0.55
	c-0.58-0.83-0.78-1.9-0.55-2.89c0.21-0.88,0.8-1.61,1.71-1.82c0.79-0.2,1.69,0.09,2.06,0.88c0.03,0.17,0.09,0.36,0.2,0.5
	c0.09,0.11,0.3,0.22,0.4,0.04c0.06-0.12-0.08-0.44-0.1-0.57c-0.03-0.19-0.05-0.38-0.05-0.58c0-0.36,0.05-0.73,0.15-1.08
	c0.2-0.7,0.59-1.34,1.05-1.91c0.51-0.64,1.09-1.2,1.68-1.76c0.29-0.28,0.59-0.56,0.87-0.85c0.08-0.08,0.82-0.76,0.78-0.83
	c1.06,2.07,3.43,3.69,3.15,6.26c-0.1,0.57-0.66,0.91-0.82,1.45c-0.08,0.29,0.19,0.53,0.44,0.31c0.6-0.53,0.62-1.43,1.38-1.78
	c1.43-0.72,3.04,0.79,3.17,2.45c0.15,1.33-0.83,2.65-1.93,3.3c-0.12,0.05-0.17,0.21-0.11,0.33c0.22,0.33,0.62-0.05,0.84-0.2
	c0.75-0.74,1.53-1.6,1.67-2.68c0.04-0.21,0.05-0.44,0.04-0.66c0.04,0.41,0.16,0.81,0.37,1.19c0.59,1.07,1.47,1.96,2.59,2.45
	c0.18,0.08,0.39-0.08,0.35-0.27c-0.04-0.24-0.53-0.33-0.71-0.43c-0.25-0.15-0.46-0.35-0.66-0.56c-0.3-0.32-0.61-0.63-0.87-0.98
	c-0.42-0.56-0.72-1.26-0.59-1.97c0.1-0.52,0.44-0.96,0.79-1.35c0.35-0.39,0.77-0.75,1.29-0.9c1.35-0.41,2.49,0.79,2.76,2.02
	c0.07,0.32,0.57,0.73,0.72,0.25c0.03-0.77-0.77-1.31-0.5-2.1c0.68-2.42,3.6-3.33,4.66-5.59c0.81,2.37,4.15,4.5,2.31,7.17
	c-0.1,0.24-0.07,0.71,0.29,0.62c0.55-0.38,0.46-1.21,0.92-1.67c0.49-0.65,1.32-1.02,2.14-0.72c2.22,0.75,1.8,3.11,0.51,4.56
	c-0.38,0.49-0.9,0.84-1.38,1.25c-0.1,0.09-0.11,0.24-0.02,0.34c0.08,0.1,0.24,0.11,0.34,0.03c1.15-0.86,2.26-2.07,2.56-3.5
	c0.01,0.46,0.14,0.92,0.38,1.36c0.59,1.07,1.47,1.96,2.59,2.45c0.18,0.08,0.39-0.08,0.35-0.27c-0.04-0.24-0.53-0.33-0.71-0.43
	c-0.25-0.15-0.46-0.35-0.66-0.56c-0.3-0.32-0.61-0.63-0.87-0.98c-0.42-0.56-0.72-1.26-0.59-1.97c0.1-0.52,0.44-0.96,0.79-1.35
	c0.35-0.39,0.77-0.75,1.29-0.9c1.35-0.41,2.49,0.79,2.76,2.02c0.07,0.32,0.57,0.73,0.72,0.25c0.03-0.77-0.77-1.31-0.5-2.1
	c0.68-2.42,3.6-3.33,4.66-5.59c0.81,2.37,4.15,4.5,2.31,7.17c-0.1,0.24-0.07,0.71,0.29,0.62c0.55-0.38,0.46-1.21,0.92-1.67
	c0.49-0.65,1.32-1.02,2.14-0.72c2.22,0.75,1.8,3.11,0.51,4.56c-0.38,0.49-0.9,0.84-1.38,1.25c-0.1,0.09-0.11,0.24-0.02,0.34
	c0.08,0.1,0.24,0.11,0.34,0.03c1.37-1.02,2.69-2.53,2.65-4.32C93.84,10.55,91.02,9.24,89.58,10.94z"/>
</svg>
