<?xml version="1.0" encoding="utf-8"?>
<!-- Generator: Adobe Illustrator 23.0.0, SVG Export Plug-In . SVG Version: 6.00 Build 0)  -->
<svg version="1.1" id="Слой_1" xmlns="http://www.w3.org/2000/svg" xmlns:xlink="http://www.w3.org/1999/xlink" x="0px" y="0px"
	 viewBox="0 0 100 21.28" width="100" height="21.28" style="enable-background:new 0 0 100 21.28;" xml:space="preserve">
<g>
	<path d="M12.04,19.21c-0.03,0-0.06-0.01-0.08-0.01c0,0-0.01,0-0.01,0L12.04,19.21z"/>
	<path d="M13.08,2.1c-0.02,0-0.03,0-0.05,0c-0.01,0-0.04-0.01-0.06-0.01c0,0-0.01,0-0.01,0h0c-0.52-0.03-1.04-0.01-1.55,0.08
		c-0.63,0.11-1.22,0.3-1.79,0.57C7.69,3.62,6.3,5.38,5.57,7.31c-0.51,1.36-0.7,2.83-0.57,4.28c0.25,2.82,1.81,5.7,4.63,7
		c0.68,0.32,1.49,0.53,2.34,0.6c0.15,0.01,0.29,0.01,0.44,0.01c0.75,0,1.48-0.12,2.19-0.36c2.55-0.86,4.29-3.13,4.98-5.48
		c0.91-3.11,0.29-6.77-2.12-9.18C16.3,3.05,14.76,2.23,13.08,2.1z M18.13,7.67c0.11,0.3,0.22,0.69,0.31,1.08
		c0.08,0.35,0.14,0.79,0.18,1.24c0.03,0.44,0.02,0.87-0.01,1.31c-0.03,0.33-0.09,0.76-0.18,1.17c-0.08,0.34-0.19,0.73-0.33,1.1
		c-0.12,0.33-0.3,0.7-0.49,1.05c-0.12,0.22-0.3,0.51-0.5,0.78c-0.17,0.23-0.38,0.49-0.61,0.73c-0.15,0.15-0.37,0.36-0.6,0.55
		c-0.16,0.13-0.4,0.3-0.65,0.46c-0.21,0.12-0.43,0.24-0.65,0.34c-0.15,0.07-0.39,0.16-0.63,0.24c-0.16,0.05-0.4,0.11-0.65,0.16
		c-0.14,0.03-0.37,0.05-0.59,0.07l-0.01,0c-0.01,0-0.03,0-0.04,0l0.02,0c-0.21,0.01-0.42,0.01-0.63,0c0,0-0.01,0-0.01,0
		c-0.22-0.02-0.45-0.05-0.69-0.09l-0.03-0.01c0,0,0,0,0,0c0,0,0,0,0,0c-0.19-0.04-0.39-0.09-0.58-0.15
		c-0.16-0.05-0.39-0.15-0.62-0.25l-0.03-0.01c-0.21-0.1-0.41-0.21-0.61-0.34c-0.2-0.13-0.42-0.29-0.63-0.46
		c-0.19-0.16-0.41-0.37-0.62-0.58c-0.16-0.18-0.34-0.4-0.51-0.63c-0.18-0.24-0.36-0.54-0.53-0.85C7.1,14.34,6.94,14,6.81,13.64
		c-0.12-0.32-0.23-0.71-0.33-1.12c-0.08-0.37-0.14-0.79-0.17-1.21c-0.03-0.44-0.03-0.87,0.01-1.31c0.03-0.34,0.09-0.77,0.18-1.19
		C6.57,8.5,6.68,8.11,6.82,7.73l0.02-0.07c0.12-0.3,0.27-0.64,0.46-0.98c0.12-0.22,0.3-0.51,0.5-0.79C8,5.63,8.21,5.37,8.44,5.13
		c0.19-0.19,0.39-0.38,0.62-0.56c0.14-0.11,0.34-0.26,0.56-0.4c0.19-0.12,0.41-0.24,0.64-0.35c0.23-0.1,0.46-0.19,0.7-0.27
		c0.14-0.04,0.36-0.1,0.59-0.15c0.17-0.03,0.4-0.06,0.64-0.08l0.05,0c0,0,0,0,0.01,0c0,0,0,0,0,0c0.18-0.01,0.37-0.01,0.56,0
		c0.02,0,0.04,0,0.07,0.01c0.01,0,0.02,0,0.03,0c0.21,0.01,0.42,0.04,0.63,0.08c0.18,0.03,0.41,0.1,0.64,0.17
		c0.17,0.05,0.41,0.15,0.64,0.26c0.17,0.09,0.38,0.2,0.58,0.32c0.23,0.15,0.44,0.31,0.66,0.48c0.2,0.17,0.4,0.36,0.59,0.56
		c0.2,0.22,0.38,0.44,0.55,0.67c0.16,0.22,0.34,0.51,0.51,0.82C17.83,6.96,17.99,7.31,18.13,7.67z"/>
	<path d="M13.19,9.15c-1.04-0.32-2.17,0.52-2.28,1.49c-0.33,0.88-0.06,1.9,0.97,2.22C14.04,13.76,14.98,9.91,13.19,9.15z"/>
	<path d="M27.06,19.21c-0.03,0-0.06-0.01-0.08-0.01c0,0-0.01,0-0.01,0L27.06,19.21z"/>
	<path d="M28.09,2.1c-0.02,0-0.03,0-0.05,0c-0.01,0-0.04-0.01-0.06-0.01c0,0-0.01,0-0.01,0h0c-0.52-0.03-1.04-0.01-1.55,0.08
		c-0.63,0.11-1.22,0.3-1.79,0.57c-1.93,0.89-3.32,2.64-4.05,4.58c-0.51,1.36-0.7,2.83-0.57,4.28c0.25,2.82,1.81,5.7,4.63,7
		c0.68,0.32,1.49,0.53,2.34,0.6c0.15,0.01,0.29,0.01,0.44,0.01c0.75,0,1.48-0.12,2.19-0.36c2.55-0.86,4.29-3.13,4.98-5.48
		c0.91-3.11,0.29-6.77-2.12-9.18C31.32,3.05,29.78,2.23,28.09,2.1z M33.14,7.67c0.11,0.3,0.22,0.69,0.31,1.08
		c0.08,0.35,0.14,0.79,0.18,1.24c0.03,0.44,0.02,0.87-0.01,1.31c-0.03,0.33-0.09,0.76-0.18,1.17c-0.08,0.34-0.19,0.73-0.33,1.1
		c-0.12,0.33-0.3,0.7-0.49,1.05c-0.12,0.22-0.3,0.51-0.5,0.78c-0.17,0.23-0.38,0.49-0.61,0.73c-0.15,0.15-0.37,0.36-0.6,0.55
		c-0.16,0.13-0.4,0.3-0.65,0.46c-0.21,0.12-0.43,0.24-0.65,0.34c-0.15,0.07-0.39,0.16-0.63,0.24c-0.16,0.05-0.4,0.11-0.65,0.16
		c-0.14,0.03-0.37,0.05-0.59,0.07l-0.01,0c-0.01,0-0.03,0-0.04,0l0.02,0c-0.21,0.01-0.42,0.01-0.63,0c0,0-0.01,0-0.01,0
		c-0.22-0.02-0.45-0.05-0.69-0.09l-0.03-0.01c0,0,0,0,0,0c0,0,0,0,0,0c-0.19-0.04-0.39-0.09-0.58-0.15
		c-0.16-0.05-0.39-0.15-0.62-0.25l-0.03-0.01c-0.21-0.1-0.41-0.21-0.61-0.34c-0.2-0.13-0.42-0.29-0.63-0.46
		c-0.19-0.16-0.41-0.37-0.62-0.58c-0.16-0.18-0.34-0.4-0.51-0.63c-0.18-0.24-0.36-0.54-0.53-0.85c-0.14-0.27-0.3-0.61-0.44-0.97
		c-0.12-0.32-0.23-0.71-0.33-1.12c-0.08-0.37-0.14-0.79-0.17-1.21c-0.03-0.44-0.03-0.87,0.01-1.31c0.03-0.34,0.09-0.77,0.18-1.19
		c0.07-0.31,0.19-0.71,0.33-1.09l0.02-0.07c0.12-0.3,0.27-0.64,0.46-0.98c0.12-0.22,0.3-0.51,0.5-0.79c0.2-0.26,0.41-0.51,0.64-0.75
		c0.19-0.19,0.39-0.38,0.62-0.56c0.14-0.11,0.34-0.26,0.56-0.4c0.19-0.12,0.41-0.24,0.64-0.35c0.23-0.1,0.46-0.19,0.7-0.27
		c0.14-0.04,0.36-0.1,0.59-0.15c0.17-0.03,0.4-0.06,0.64-0.08l0.05,0c0,0,0,0,0.01,0c0,0,0,0,0,0c0.18-0.01,0.37-0.01,0.56,0
		c0.02,0,0.04,0,0.07,0.01c0.01,0,0.02,0,0.03,0c0.21,0.01,0.42,0.04,0.63,0.08c0.18,0.03,0.41,0.1,0.64,0.17
		c0.17,0.05,0.41,0.15,0.64,0.26c0.17,0.09,0.38,0.2,0.58,0.32c0.23,0.15,0.44,0.31,0.66,0.48c0.2,0.17,0.4,0.36,0.59,0.56
		c0.2,0.22,0.38,0.44,0.55,0.67c0.16,0.22,0.34,0.51,0.51,0.82C32.85,6.96,33.01,7.31,33.14,7.67z"/>
	<path d="M28.2,9.15c-1.04-0.32-2.17,0.52-2.28,1.49c-0.33,0.88-0.06,1.9,0.97,2.22C29.05,13.76,29.99,9.91,28.2,9.15z"/>
	<path d="M42.07,19.21c-0.03,0-0.06-0.01-0.08-0.01c0,0-0.01,0-0.01,0L42.07,19.21z"/>
	<path d="M43.11,2.1c-0.02,0-0.03,0-0.05,0c-0.01,0-0.04-0.01-0.06-0.01c0,0-0.01,0-0.01,0h0c-0.52-0.03-1.04-0.01-1.55,0.08
		c-0.63,0.11-1.22,0.3-1.79,0.57c-1.93,0.89-3.32,2.64-4.05,4.58c-0.51,1.36-0.7,2.83-0.57,4.28c0.25,2.82,1.81,5.7,4.63,7
		c0.68,0.32,1.49,0.53,2.34,0.6c0.15,0.01,0.29,0.01,0.44,0.01c0.75,0,1.48-0.12,2.19-0.36c2.55-0.86,4.29-3.13,4.98-5.48
		c0.91-3.11,0.29-6.77-2.12-9.18C46.33,3.05,44.79,2.23,43.11,2.1z M48.16,7.67c0.11,0.3,0.22,0.69,0.31,1.08
		c0.08,0.35,0.14,0.79,0.18,1.24c0.03,0.44,0.02,0.87-0.01,1.31c-0.03,0.33-0.09,0.76-0.18,1.17c-0.08,0.34-0.19,0.73-0.33,1.1
		c-0.12,0.33-0.3,0.7-0.49,1.05c-0.12,0.22-0.3,0.51-0.5,0.78c-0.17,0.23-0.38,0.49-0.61,0.73c-0.15,0.15-0.37,0.36-0.6,0.55
		c-0.16,0.13-0.4,0.3-0.65,0.46c-0.21,0.12-0.43,0.24-0.65,0.34c-0.15,0.07-0.39,0.16-0.63,0.24c-0.16,0.05-0.4,0.11-0.65,0.16
		c-0.14,0.03-0.37,0.05-0.59,0.07l-0.01,0c-0.01,0-0.03,0-0.04,0l0.02,0c-0.21,0.01-0.42,0.01-0.63,0c0,0-0.01,0-0.01,0
		c-0.22-0.02-0.45-0.05-0.69-0.09l-0.03-0.01c0,0,0,0,0,0c0,0,0,0,0,0c-0.19-0.04-0.39-0.09-0.58-0.15
		c-0.16-0.05-0.39-0.15-0.62-0.25l-0.03-0.01c-0.21-0.1-0.41-0.21-0.61-0.34c-0.2-0.13-0.42-0.29-0.63-0.46
		c-0.19-0.16-0.41-0.37-0.62-0.58c-0.16-0.18-0.34-0.4-0.51-0.63c-0.18-0.24-0.36-0.54-0.53-0.85c-0.14-0.27-0.3-0.61-0.44-0.97
		c-0.12-0.32-0.23-0.71-0.33-1.12c-0.08-0.37-0.14-0.79-0.17-1.21c-0.03-0.44-0.03-0.87,0.01-1.31c0.03-0.34,0.09-0.77,0.18-1.19
		c0.07-0.31,0.19-0.71,0.33-1.09l0.02-0.07c0.12-0.3,0.27-0.64,0.46-0.98c0.12-0.22,0.3-0.51,0.5-0.79c0.2-0.26,0.41-0.51,0.64-0.75
		c0.19-0.19,0.39-0.38,0.62-0.56c0.14-0.11,0.34-0.26,0.56-0.4c0.19-0.12,0.41-0.24,0.64-0.35c0.23-0.1,0.46-0.19,0.7-0.27
		c0.14-0.04,0.36-0.1,0.59-0.15c0.17-0.03,0.4-0.06,0.64-0.08l0.05,0c0,0,0,0,0.01,0c0,0,0,0,0,0c0.18-0.01,0.37-0.01,0.55,0
		c0.02,0,0.04,0,0.07,0.01c0.01,0,0.02,0,0.03,0c0.21,0.01,0.42,0.04,0.63,0.08c0.18,0.03,0.41,0.1,0.64,0.17
		c0.17,0.05,0.41,0.15,0.64,0.26c0.17,0.09,0.38,0.2,0.58,0.32c0.23,0.15,0.44,0.31,0.65,0.48c0.2,0.17,0.4,0.36,0.59,0.56
		c0.2,0.22,0.38,0.44,0.55,0.67c0.16,0.22,0.34,0.51,0.51,0.82C47.86,6.96,48.02,7.31,48.16,7.67z"/>
	<path d="M43.22,9.15c-1.04-0.32-2.17,0.52-2.28,1.49c-0.33,0.88-0.06,1.9,0.97,2.22C44.07,13.76,45.01,9.91,43.22,9.15z"/>
	<path d="M57.09,19.21c-0.03,0-0.06-0.01-0.08-0.01c0,0-0.01,0-0.01,0L57.09,19.21z"/>
	<path d="M58.12,2.1c-0.02,0-0.03,0-0.05,0c-0.01,0-0.04-0.01-0.06-0.01c0,0-0.01,0-0.01,0h0c-0.52-0.03-1.04-0.01-1.55,0.08
		c-0.63,0.11-1.22,0.3-1.79,0.57c-1.93,0.89-3.32,2.64-4.05,4.58c-0.51,1.36-0.7,2.83-0.57,4.28c0.25,2.82,1.81,5.7,4.63,7
		c0.68,0.32,1.49,0.53,2.34,0.6c0.15,0.01,0.29,0.01,0.44,0.01c0.75,0,1.48-0.12,2.19-0.36c2.55-0.86,4.29-3.13,4.98-5.48
		c0.91-3.11,0.29-6.77-2.12-9.18C61.35,3.05,59.81,2.23,58.12,2.1z M63.17,7.67c0.11,0.3,0.22,0.69,0.31,1.08
		c0.08,0.35,0.14,0.79,0.18,1.24c0.03,0.44,0.02,0.87-0.01,1.31c-0.03,0.33-0.09,0.76-0.18,1.17c-0.08,0.34-0.19,0.73-0.33,1.1
		c-0.12,0.33-0.3,0.7-0.49,1.05c-0.12,0.22-0.3,0.51-0.5,0.78c-0.17,0.23-0.38,0.49-0.61,0.73c-0.15,0.15-0.37,0.36-0.6,0.55
		c-0.16,0.13-0.4,0.3-0.65,0.46c-0.21,0.12-0.43,0.24-0.65,0.34c-0.15,0.07-0.39,0.16-0.63,0.24c-0.16,0.05-0.4,0.11-0.65,0.16
		c-0.14,0.03-0.37,0.05-0.59,0.07l-0.01,0c-0.01,0-0.03,0-0.04,0l0.02,0c-0.21,0.01-0.42,0.01-0.63,0c0,0-0.01,0-0.01,0
		c-0.22-0.02-0.45-0.05-0.69-0.09l-0.03-0.01c0,0,0,0,0,0c0,0,0,0,0,0c-0.19-0.04-0.39-0.09-0.58-0.15
		c-0.16-0.05-0.39-0.15-0.62-0.25l-0.03-0.01c-0.21-0.1-0.41-0.21-0.61-0.34c-0.2-0.13-0.42-0.29-0.63-0.46
		c-0.19-0.16-0.41-0.37-0.62-0.58c-0.16-0.18-0.34-0.4-0.51-0.63c-0.18-0.24-0.36-0.54-0.53-0.85c-0.14-0.27-0.3-0.61-0.44-0.97
		c-0.12-0.32-0.23-0.71-0.33-1.12c-0.08-0.37-0.14-0.79-0.17-1.21c-0.03-0.44-0.03-0.87,0.01-1.31c0.03-0.34,0.09-0.77,0.18-1.19
		c0.07-0.31,0.19-0.71,0.33-1.09l0.02-0.07c0.12-0.3,0.27-0.64,0.46-0.98c0.12-0.22,0.3-0.51,0.5-0.79c0.2-0.26,0.41-0.51,0.64-0.75
		c0.19-0.19,0.39-0.38,0.62-0.56c0.14-0.11,0.34-0.26,0.56-0.4c0.19-0.12,0.41-0.24,0.64-0.35c0.23-0.1,0.46-0.19,0.7-0.27
		c0.14-0.04,0.36-0.1,0.59-0.15c0.17-0.03,0.4-0.06,0.64-0.08l0.05,0c0,0,0,0,0.01,0c0,0,0,0,0,0c0.18-0.01,0.37-0.01,0.55,0
		c0.02,0,0.04,0,0.07,0.01c0.01,0,0.02,0,0.03,0c0.21,0.01,0.42,0.04,0.63,0.08c0.18,0.03,0.41,0.1,0.64,0.17
		c0.17,0.05,0.41,0.15,0.64,0.26c0.17,0.09,0.38,0.2,0.58,0.32c0.23,0.15,0.44,0.31,0.66,0.48c0.2,0.17,0.4,0.36,0.59,0.56
		c0.2,0.22,0.38,0.44,0.55,0.67c0.16,0.22,0.34,0.51,0.51,0.82C62.88,6.96,63.04,7.31,63.17,7.67z"/>
	<path d="M58.23,9.15c-1.04-0.32-2.17,0.52-2.28,1.49c-0.33,0.88-0.06,1.9,0.97,2.22C59.08,13.76,60.02,9.91,58.23,9.15z"/>
	<path d="M73.14,2.1c-0.02,0-0.03,0-0.05,0c-0.01,0-0.04-0.01-0.06-0.01c0,0-0.01,0-0.01,0h0c-0.52-0.03-1.04-0.01-1.55,0.08
		c-0.63,0.11-1.22,0.3-1.79,0.57c-1.93,0.89-3.32,2.64-4.05,4.58c-0.51,1.36-0.7,2.83-0.57,4.28c0.25,2.82,1.81,5.7,4.63,7
		c0.68,0.32,1.49,0.53,2.34,0.6c0.15,0.01,0.29,0.01,0.44,0.01c0.75,0,1.48-0.12,2.19-0.36c2.55-0.86,4.29-3.13,4.98-5.48
		c0.91-3.11,0.29-6.77-2.12-9.18C76.36,3.05,74.82,2.23,73.14,2.1z M78.19,7.67c0.11,0.3,0.22,0.69,0.31,1.08
		c0.08,0.35,0.14,0.79,0.18,1.24c0.03,0.44,0.02,0.87-0.01,1.31c-0.03,0.33-0.09,0.76-0.18,1.17c-0.08,0.34-0.19,0.73-0.33,1.1
		c-0.12,0.33-0.3,0.7-0.49,1.05c-0.12,0.22-0.3,0.51-0.5,0.78c-0.17,0.23-0.38,0.49-0.61,0.73c-0.15,0.15-0.37,0.36-0.6,0.55
		c-0.16,0.13-0.4,0.3-0.65,0.46c-0.21,0.12-0.43,0.24-0.65,0.34c-0.15,0.07-0.39,0.16-0.63,0.24c-0.16,0.05-0.4,0.11-0.65,0.16
		c-0.14,0.03-0.37,0.05-0.59,0.07l-0.01,0c-0.01,0-0.03,0-0.04,0l0.02,0c-0.21,0.01-0.42,0.01-0.63,0c0,0-0.01,0-0.01,0
		c-0.22-0.02-0.45-0.05-0.69-0.09l-0.03-0.01c0,0,0,0,0,0c0,0,0,0,0,0c-0.19-0.04-0.39-0.09-0.58-0.15
		c-0.16-0.05-0.39-0.15-0.62-0.25l-0.03-0.01c-0.21-0.1-0.41-0.21-0.61-0.34c-0.2-0.13-0.42-0.29-0.63-0.46
		c-0.19-0.16-0.41-0.37-0.62-0.58c-0.16-0.18-0.34-0.4-0.51-0.63c-0.18-0.24-0.36-0.54-0.53-0.85c-0.14-0.27-0.3-0.61-0.44-0.97
		c-0.12-0.32-0.23-0.71-0.33-1.12c-0.08-0.37-0.14-0.79-0.17-1.21c-0.03-0.44-0.03-0.87,0.01-1.31c0.03-0.34,0.09-0.77,0.18-1.19
		c0.07-0.31,0.19-0.71,0.33-1.09l0.02-0.07c0.12-0.3,0.27-0.64,0.46-0.98c0.12-0.22,0.3-0.51,0.5-0.79c0.2-0.26,0.41-0.51,0.64-0.75
		c0.19-0.19,0.39-0.38,0.62-0.56c0.14-0.11,0.34-0.26,0.56-0.4c0.19-0.12,0.41-0.24,0.64-0.35c0.23-0.1,0.46-0.19,0.7-0.27
		c0.14-0.04,0.36-0.1,0.59-0.15c0.17-0.03,0.4-0.06,0.64-0.08l0.05,0c0,0,0,0,0.01,0c0,0,0,0,0,0c0.18-0.01,0.37-0.01,0.56,0
		c0.02,0,0.04,0,0.07,0.01c0.01,0,0.02,0,0.03,0c0.21,0.01,0.42,0.04,0.63,0.08c0.18,0.03,0.41,0.1,0.64,0.17
		c0.17,0.05,0.41,0.15,0.64,0.26c0.17,0.09,0.38,0.2,0.58,0.32c0.23,0.15,0.44,0.31,0.66,0.48c0.2,0.17,0.4,0.36,0.59,0.56
		c0.2,0.22,0.38,0.44,0.55,0.67c0.16,0.22,0.34,0.51,0.51,0.82C77.89,6.96,78.05,7.31,78.19,7.67z"/>
	<path d="M72.1,19.21c-0.03,0-0.06-0.01-0.08-0.01c0,0-0.01,0-0.01,0L72.1,19.21z"/>
	<path d="M73.25,9.15c-1.04-0.32-2.17,0.52-2.28,1.49c-0.33,0.88-0.06,1.9,0.97,2.22C74.1,13.76,75.04,9.91,73.25,9.15z"/>
	<path d="M92.52,4.19c-1.14-1.14-2.69-1.96-4.37-2.09c-0.02,0-0.03,0-0.05,0c-0.01,0-0.04-0.01-0.06-0.01c0,0-0.01,0-0.01,0h0
		c-0.52-0.03-1.04-0.01-1.55,0.08c-0.63,0.11-1.22,0.3-1.79,0.57c-1.93,0.89-3.32,2.64-4.05,4.58c-0.51,1.36-0.7,2.83-0.57,4.28
		c0.25,2.82,1.81,5.7,4.63,7c0.68,0.32,1.49,0.53,2.34,0.6c0.15,0.01,0.29,0.01,0.44,0.01c0.75,0,1.48-0.12,2.19-0.36
		c2.55-0.86,4.29-3.13,4.98-5.48C95.56,10.26,94.94,6.6,92.52,4.19z M93.68,11.3c-0.03,0.33-0.09,0.76-0.18,1.17
		c-0.08,0.34-0.19,0.73-0.33,1.1c-0.12,0.33-0.3,0.7-0.49,1.05c-0.12,0.22-0.3,0.51-0.5,0.78c-0.17,0.23-0.38,0.49-0.61,0.73
		c-0.15,0.15-0.37,0.36-0.6,0.55c-0.16,0.13-0.4,0.3-0.65,0.46c-0.21,0.12-0.43,0.24-0.65,0.34c-0.15,0.07-0.39,0.16-0.63,0.24
		c-0.16,0.05-0.4,0.11-0.65,0.16c-0.14,0.03-0.37,0.05-0.59,0.07l-0.01,0c-0.01,0-0.03,0-0.04,0l0.02,0c-0.21,0.01-0.42,0.01-0.63,0
		c0,0-0.01,0-0.01,0c-0.22-0.02-0.45-0.05-0.69-0.09l-0.03-0.01c0,0,0,0,0,0c0,0,0,0,0,0c-0.19-0.04-0.39-0.09-0.58-0.15
		c-0.16-0.05-0.39-0.15-0.62-0.25l-0.03-0.01c-0.21-0.1-0.41-0.21-0.61-0.34c-0.2-0.13-0.42-0.29-0.63-0.46
		c-0.19-0.16-0.41-0.37-0.62-0.58c-0.16-0.18-0.34-0.4-0.51-0.63c-0.18-0.24-0.36-0.54-0.53-0.85c-0.14-0.27-0.3-0.61-0.44-0.97
		c-0.12-0.32-0.23-0.71-0.33-1.12c-0.08-0.37-0.14-0.79-0.17-1.21c-0.03-0.44-0.03-0.87,0.01-1.31c0.03-0.34,0.09-0.77,0.18-1.19
		c0.07-0.31,0.19-0.71,0.33-1.09l0.02-0.07c0.12-0.3,0.27-0.64,0.46-0.98c0.12-0.22,0.3-0.51,0.5-0.79c0.2-0.26,0.41-0.51,0.64-0.75
		c0.19-0.19,0.39-0.38,0.62-0.56c0.14-0.11,0.34-0.26,0.56-0.4c0.19-0.12,0.41-0.24,0.64-0.35c0.23-0.1,0.46-0.19,0.7-0.27
		c0.14-0.04,0.36-0.1,0.59-0.15c0.17-0.03,0.4-0.06,0.64-0.08l0.05,0c0,0,0,0,0.01,0c0,0,0,0,0,0c0.18-0.01,0.37-0.01,0.56,0
		c0.02,0,0.04,0,0.07,0.01c0.01,0,0.02,0,0.03,0c0.21,0.01,0.42,0.04,0.63,0.08c0.18,0.03,0.41,0.1,0.64,0.17
		c0.17,0.05,0.41,0.15,0.64,0.26c0.17,0.09,0.38,0.2,0.58,0.32c0.23,0.15,0.44,0.31,0.66,0.48c0.2,0.17,0.4,0.36,0.59,0.56
		c0.2,0.22,0.38,0.44,0.55,0.67c0.16,0.22,0.34,0.51,0.51,0.82c0.15,0.28,0.31,0.63,0.44,0.99c0.11,0.3,0.22,0.69,0.31,1.08
		c0.08,0.35,0.14,0.79,0.18,1.24C93.72,10.43,93.72,10.86,93.68,11.3z"/>
	<path d="M87.12,19.21c-0.03,0-0.06-0.01-0.08-0.01c0,0-0.01,0-0.01,0L87.12,19.21z"/>
	<path d="M88.26,9.15c-1.04-0.32-2.17,0.52-2.28,1.49c-0.33,0.88-0.06,1.9,0.97,2.22C89.11,13.76,90.05,9.91,88.26,9.15z"/>
</g>
</svg>
