<?xml version="1.0" encoding="utf-8"?>
<!-- Generator: Adobe Illustrator 23.0.0, SVG Export Plug-In . SVG Version: 6.00 Build 0)  -->
<svg version="1.1" id="Слой_1" xmlns="http://www.w3.org/2000/svg" xmlns:xlink="http://www.w3.org/1999/xlink" x="0px" y="0px"
	 viewBox="0 0 100 21.28" style="enable-background:new 0 0 100 21.28;" xml:space="preserve">
<g>
	<path d="M13.37,8.96c-2.81-0.64-3.42,3.82-3.08,5.75c0.18,0.21,0.53,0.01,0.47-0.25c-0.09-0.63-0.01-1.26,0.09-1.92
		c0.17-2.18,1.54-4.33,3.68-2.32c0.94,1.1,1.05,2.73,1.33,4.09c0-0.01,0-0.01,0-0.02c-0.06,0.41,0.53,0.53,0.55,0.1
		C16.07,12.35,15.79,9.5,13.37,8.96z"/>
	<path d="M6.16,7.69c0.07,0.63,0.45,0.92,0.86,0.98c-0.04,1.27,0.01,2.55,0.03,3.82c0.02,0.67,0.04,1.33,0.02,2.01
		c0,0.15,0.09,0.28,0.25,0.29c0.14,0.01,0.29-0.1,0.29-0.24c0.02-1.33-0.05-2.67-0.07-4c-0.01-0.64-0.01-1.28,0-1.92
		c0.59-0.18,1.04-0.79,0.59-1.59C7.56,6.14,6.09,6.63,6.16,7.69z"/>
	<path d="M18.42,6.49c-0.58,0-1.05,0.56-1.02,1.12c0.03,0.54,0.45,0.91,0.96,0.99c-0.01,0.03-0.01,0.07-0.01,0.1
		c0.13,2.09,0,3.96,0.15,5.84c0.01,0.15,0.14,0.26,0.28,0.25c0.36-0.13,0.27-0.59,0.26-0.89c-0.03-0.88-0.11-4.41-0.16-5.3
		c0-0.02-0.02-0.03-0.03-0.05c0.41-0.16,0.71-0.6,0.69-1.05C19.52,6.9,19.01,6.49,18.42,6.49z"/>
	<path d="M14.14,12.31c-0.16-0.22-0.4-0.37-0.66-0.42c-0.14-0.03-0.27-0.03-0.41,0.01c-0.13,0.04-0.25,0.11-0.35,0.18
		c-0.22,0.16-0.4,0.38-0.49,0.65c-0.1,0.31-0.11,0.64-0.1,0.96c0.01,0.17,0.01,0.35,0.02,0.52c0,0.08,0.01,0.17,0.01,0.26
		c0,0.02-0.01,0.04-0.01,0.06c0.01,0.15,0.13,0.26,0.28,0.26c0.03,0,0.07-0.01,0.1-0.02c0.04,0,0.07,0,0.1,0
		c0.09,0,0.18,0,0.27-0.01c0.24-0.01,0.47-0.01,0.71-0.02c0.14-0.01,0.28-0.01,0.42-0.01c0.03,0,0.08,0,0.11,0
		c0.07-0.01,0.14-0.03,0.18-0.08c0.07-0.05,0.12-0.14,0.12-0.23c-0.01-0.32,0.02-0.64,0-0.96c0-0.18-0.02-0.36-0.05-0.54
		C14.36,12.71,14.27,12.49,14.14,12.31z"/>
	<path d="M23.98,8.96c-2.81-0.64-3.42,3.82-3.08,5.75c0.18,0.21,0.53,0.01,0.47-0.25c-0.09-0.63-0.01-1.26,0.09-1.92
		c0.17-2.18,1.54-4.33,3.68-2.32c0.94,1.1,1.05,2.73,1.33,4.09c0-0.01,0-0.01,0-0.02c-0.06,0.41,0.53,0.53,0.55,0.1
		C26.68,12.35,26.4,9.5,23.98,8.96z"/>
	<path d="M29.03,6.49c-0.58,0-1.05,0.56-1.02,1.12c0.03,0.54,0.45,0.91,0.96,0.99c-0.01,0.03-0.01,0.07-0.01,0.1
		c0.13,2.09,0,3.96,0.15,5.84c0.01,0.15,0.14,0.26,0.28,0.25c0.36-0.13,0.27-0.59,0.26-0.89c-0.03-0.88-0.11-4.41-0.16-5.3
		c0-0.02-0.02-0.03-0.03-0.05c0.41-0.16,0.71-0.6,0.69-1.05C30.13,6.9,29.62,6.49,29.03,6.49z"/>
	<path d="M24.75,12.31c-0.16-0.22-0.4-0.37-0.66-0.42c-0.14-0.03-0.27-0.03-0.41,0.01c-0.13,0.04-0.25,0.11-0.35,0.18
		c-0.22,0.16-0.4,0.38-0.49,0.65c-0.1,0.31-0.11,0.64-0.1,0.96c0.01,0.17,0.01,0.35,0.02,0.52c0,0.08,0.01,0.17,0.01,0.26
		c0,0.02-0.01,0.04-0.01,0.06c0.01,0.15,0.13,0.26,0.28,0.26c0.03,0,0.07-0.01,0.1-0.02c0.04,0,0.07,0,0.1,0
		c0.09,0,0.18,0,0.27-0.01c0.24-0.01,0.47-0.01,0.71-0.02c0.14-0.01,0.28-0.01,0.42-0.01c0.03,0,0.08,0,0.11,0
		c0.07-0.01,0.14-0.03,0.18-0.08c0.07-0.05,0.12-0.14,0.12-0.23c-0.01-0.32,0.02-0.64,0-0.96c0-0.18-0.02-0.36-0.05-0.54
		C24.97,12.71,24.89,12.49,24.75,12.31z"/>
	<path d="M34.6,8.96c-2.81-0.64-3.42,3.82-3.08,5.75c0.18,0.21,0.53,0.01,0.47-0.25c-0.09-0.63-0.01-1.26,0.09-1.92
		c0.17-2.18,1.54-4.33,3.68-2.32c0.94,1.1,1.05,2.73,1.33,4.09c0-0.01,0-0.01,0-0.02c-0.06,0.41,0.53,0.53,0.55,0.1
		C37.29,12.35,37.02,9.5,34.6,8.96z"/>
	<path d="M39.65,6.49c-0.58,0-1.05,0.56-1.02,1.12c0.03,0.54,0.45,0.91,0.96,0.99c-0.01,0.03-0.01,0.07-0.01,0.1
		c0.13,2.09,0,3.96,0.15,5.84c0.01,0.15,0.14,0.26,0.28,0.25c0.36-0.13,0.27-0.59,0.26-0.89c-0.03-0.88-0.11-4.41-0.16-5.3
		c0-0.02-0.02-0.03-0.03-0.05c0.41-0.16,0.71-0.6,0.69-1.05C40.74,6.9,40.23,6.49,39.65,6.49z"/>
	<path d="M35.36,12.31c-0.16-0.22-0.4-0.37-0.66-0.42c-0.14-0.03-0.27-0.03-0.41,0.01c-0.13,0.04-0.25,0.11-0.35,0.18
		c-0.22,0.16-0.4,0.38-0.49,0.65c-0.1,0.31-0.11,0.64-0.1,0.96c0.01,0.17,0.01,0.35,0.02,0.52c0,0.08,0.01,0.17,0.01,0.26
		c0,0.02-0.01,0.04-0.01,0.06c0.01,0.15,0.13,0.26,0.28,0.26c0.03,0,0.07-0.01,0.1-0.02c0.04,0,0.07,0,0.1,0
		c0.09,0,0.18,0,0.27-0.01c0.24-0.01,0.47-0.01,0.71-0.02c0.14-0.01,0.28-0.01,0.42-0.01c0.03,0,0.08,0,0.11,0
		c0.07-0.01,0.14-0.03,0.18-0.08c0.07-0.05,0.12-0.14,0.12-0.23c-0.01-0.32,0.02-0.64,0-0.96c0-0.18-0.02-0.36-0.05-0.54
		C35.58,12.71,35.5,12.49,35.36,12.31z"/>
	<path d="M45.21,8.96c-2.81-0.64-3.42,3.82-3.08,5.75c0.18,0.21,0.53,0.01,0.47-0.25c-0.09-0.63-0.01-1.26,0.09-1.92
		c0.17-2.18,1.54-4.33,3.68-2.32c0.94,1.1,1.05,2.73,1.33,4.09c0-0.01,0-0.01,0-0.02c-0.06,0.41,0.53,0.53,0.55,0.1
		C47.9,12.35,47.63,9.5,45.21,8.96z"/>
	<path d="M50.26,6.49c-0.58,0-1.05,0.56-1.02,1.12c0.03,0.54,0.45,0.91,0.96,0.99c-0.01,0.03-0.01,0.07-0.01,0.1
		c0.13,2.09,0,3.96,0.15,5.84c0.01,0.15,0.14,0.26,0.28,0.25c0.36-0.13,0.27-0.59,0.26-0.89c-0.03-0.88-0.11-4.41-0.16-5.3
		c0-0.02-0.02-0.03-0.03-0.05c0.41-0.16,0.71-0.6,0.69-1.05C51.36,6.9,50.85,6.49,50.26,6.49z"/>
	<path d="M45.98,12.31c-0.16-0.22-0.4-0.37-0.66-0.42c-0.14-0.03-0.27-0.03-0.41,0.01c-0.13,0.04-0.25,0.11-0.35,0.18
		c-0.22,0.16-0.4,0.38-0.49,0.65c-0.1,0.31-0.11,0.64-0.1,0.96c0.01,0.17,0.01,0.35,0.02,0.52c0,0.08,0.01,0.17,0.01,0.26
		c0,0.02-0.01,0.04-0.01,0.06c0.01,0.15,0.13,0.26,0.28,0.26c0.03,0,0.07-0.01,0.1-0.02c0.04,0,0.07,0,0.1,0
		c0.09,0,0.18,0,0.27-0.01c0.24-0.01,0.47-0.01,0.71-0.02c0.14-0.01,0.28-0.01,0.42-0.01c0.03,0,0.08,0,0.11,0
		c0.07-0.01,0.14-0.03,0.18-0.08c0.07-0.05,0.12-0.14,0.12-0.23c-0.01-0.32,0.02-0.64,0-0.96c0-0.18-0.02-0.36-0.05-0.54
		C46.19,12.71,46.11,12.49,45.98,12.31z"/>
	<path d="M55.82,8.96c-2.81-0.64-3.42,3.82-3.08,5.75c0.18,0.21,0.53,0.01,0.47-0.25c-0.09-0.63-0.01-1.26,0.09-1.92
		c0.17-2.18,1.54-4.33,3.68-2.32c0.94,1.1,1.05,2.73,1.33,4.09c0-0.01,0-0.01,0-0.02c-0.06,0.41,0.53,0.53,0.55,0.1
		C58.52,12.35,58.24,9.5,55.82,8.96z"/>
	<path d="M60.87,6.49c-0.58,0-1.05,0.56-1.02,1.12c0.03,0.54,0.45,0.91,0.96,0.99C60.8,8.63,60.8,8.67,60.8,8.7
		c0.13,2.09,0,3.96,0.15,5.84c0.01,0.15,0.14,0.26,0.28,0.25c0.36-0.13,0.27-0.59,0.26-0.89c-0.03-0.88-0.11-4.41-0.16-5.3
		c0-0.02-0.02-0.03-0.03-0.05c0.41-0.16,0.71-0.6,0.69-1.05C61.97,6.9,61.46,6.49,60.87,6.49z"/>
	<path d="M56.59,12.31c-0.16-0.22-0.4-0.37-0.66-0.42c-0.14-0.03-0.27-0.03-0.41,0.01c-0.13,0.04-0.25,0.11-0.35,0.18
		c-0.22,0.16-0.4,0.38-0.49,0.65c-0.1,0.31-0.11,0.64-0.1,0.96c0.01,0.17,0.01,0.35,0.02,0.52c0,0.08,0.01,0.17,0.01,0.26
		c0,0.02-0.01,0.04-0.01,0.06c0.01,0.15,0.13,0.26,0.28,0.26c0.03,0,0.07-0.01,0.1-0.02c0.04,0,0.07,0,0.1,0
		c0.09,0,0.18,0,0.27-0.01c0.24-0.01,0.47-0.01,0.71-0.02c0.14-0.01,0.28-0.01,0.42-0.01c0.03,0,0.08,0,0.11,0
		c0.07-0.01,0.14-0.03,0.18-0.08c0.07-0.05,0.12-0.14,0.12-0.23c-0.01-0.32,0.02-0.64,0-0.96c0-0.18-0.02-0.36-0.05-0.54
		C56.81,12.71,56.72,12.49,56.59,12.31z"/>
	<path d="M66.43,8.96c-2.81-0.64-3.42,3.82-3.08,5.75c0.18,0.21,0.53,0.01,0.47-0.25c-0.09-0.63-0.01-1.26,0.09-1.92
		c0.17-2.18,1.54-4.33,3.68-2.32c0.94,1.1,1.05,2.73,1.33,4.09c0-0.01,0-0.01,0-0.02c-0.06,0.41,0.53,0.53,0.55,0.1
		C69.13,12.35,68.85,9.5,66.43,8.96z"/>
	<path d="M71.48,6.49c-0.58,0-1.05,0.56-1.02,1.12c0.03,0.54,0.45,0.91,0.96,0.99c-0.01,0.03-0.01,0.07-0.01,0.1
		c0.13,2.09,0,3.96,0.15,5.84c0.01,0.15,0.14,0.26,0.28,0.25c0.36-0.13,0.27-0.59,0.26-0.89c-0.03-0.88-0.11-4.41-0.16-5.3
		c0-0.02-0.02-0.03-0.03-0.05c0.41-0.16,0.71-0.6,0.69-1.05C72.58,6.9,72.07,6.49,71.48,6.49z"/>
	<path d="M67.2,12.31c-0.16-0.22-0.4-0.37-0.66-0.42c-0.14-0.03-0.27-0.03-0.41,0.01c-0.13,0.04-0.25,0.11-0.35,0.18
		c-0.22,0.16-0.4,0.38-0.49,0.65c-0.1,0.31-0.11,0.64-0.1,0.96c0.01,0.17,0.01,0.35,0.02,0.52c0,0.08,0.01,0.17,0.01,0.26
		c0,0.02-0.01,0.04-0.01,0.06c0.01,0.15,0.13,0.26,0.28,0.26c0.03,0,0.07-0.01,0.1-0.02c0.04,0,0.07,0,0.1,0
		c0.09,0,0.18,0,0.27-0.01c0.24-0.01,0.47-0.01,0.71-0.02c0.14-0.01,0.28-0.01,0.42-0.01c0.03,0,0.08,0,0.11,0
		c0.07-0.01,0.14-0.03,0.18-0.08c0.07-0.05,0.12-0.14,0.12-0.23c-0.01-0.32,0.02-0.64,0-0.96c0-0.18-0.02-0.36-0.05-0.54
		C67.42,12.71,67.34,12.49,67.2,12.31z"/>
	<path d="M77.05,8.96c-2.81-0.64-3.42,3.82-3.08,5.75c0.18,0.21,0.53,0.01,0.47-0.25c-0.09-0.63-0.01-1.26,0.09-1.92
		c0.17-2.18,1.54-4.33,3.68-2.32c0.94,1.1,1.05,2.73,1.33,4.09c0-0.01,0-0.01,0-0.02c-0.06,0.41,0.53,0.53,0.55,0.1
		C79.74,12.35,79.47,9.5,77.05,8.96z"/>
	<path d="M82.1,6.49c-0.58,0-1.05,0.56-1.02,1.12c0.03,0.54,0.45,0.91,0.96,0.99c-0.01,0.03-0.01,0.07-0.01,0.1
		c0.13,2.09,0,3.96,0.15,5.84c0.01,0.15,0.14,0.26,0.28,0.25c0.36-0.13,0.27-0.59,0.26-0.89c-0.03-0.88-0.11-4.41-0.16-5.3
		c0-0.02-0.02-0.03-0.03-0.05c0.41-0.16,0.71-0.6,0.69-1.05C83.19,6.9,82.68,6.49,82.1,6.49z"/>
	<path d="M77.81,12.31c-0.16-0.22-0.4-0.37-0.66-0.42c-0.14-0.03-0.27-0.03-0.41,0.01c-0.13,0.04-0.25,0.11-0.35,0.18
		c-0.22,0.16-0.4,0.38-0.49,0.65c-0.1,0.31-0.11,0.64-0.1,0.96c0.01,0.17,0.01,0.35,0.02,0.52c0,0.08,0.01,0.17,0.01,0.26
		c0,0.02-0.01,0.04-0.01,0.06c0.01,0.15,0.13,0.26,0.28,0.26c0.03,0,0.07-0.01,0.1-0.02c0.04,0,0.07,0,0.1,0
		c0.09,0,0.18,0,0.27-0.01c0.24-0.01,0.47-0.01,0.71-0.02c0.14-0.01,0.28-0.01,0.42-0.01c0.03,0,0.08,0,0.11,0
		c0.07-0.01,0.14-0.03,0.18-0.08c0.07-0.05,0.12-0.14,0.12-0.23c-0.01-0.32,0.02-0.64,0-0.96c0-0.18-0.02-0.36-0.05-0.54
		C78.03,12.71,77.95,12.49,77.81,12.31z"/>
	<path d="M87.66,8.96c-2.81-0.64-3.42,3.82-3.08,5.75c0.18,0.21,0.53,0.01,0.47-0.25c-0.09-0.63-0.01-1.26,0.09-1.92
		c0.17-2.18,1.54-4.33,3.68-2.32c0.94,1.1,1.05,2.73,1.33,4.09c0-0.01,0-0.01,0-0.02c-0.06,0.41,0.53,0.53,0.55,0.1
		C90.35,12.35,90.08,9.5,87.66,8.96z"/>
	<path d="M93.84,7.51c-0.03-0.6-0.54-1.02-1.13-1.02c-0.58,0-1.05,0.56-1.02,1.12c0.03,0.54,0.45,0.91,0.96,0.99
		c-0.01,0.03-0.01,0.07-0.01,0.1c0.13,2.09,0,3.96,0.15,5.84c0.01,0.15,0.14,0.26,0.28,0.25c0.36-0.13,0.27-0.59,0.26-0.89
		c-0.03-0.88-0.11-4.41-0.16-5.3c0-0.02-0.02-0.03-0.03-0.05C93.57,8.39,93.86,7.96,93.84,7.51z"/>
	<path d="M88.43,12.31c-0.16-0.22-0.4-0.37-0.66-0.42c-0.14-0.03-0.27-0.03-0.41,0.01c-0.13,0.04-0.25,0.11-0.35,0.18
		c-0.22,0.16-0.4,0.38-0.49,0.65c-0.1,0.31-0.11,0.64-0.1,0.96c0.01,0.17,0.01,0.35,0.02,0.52c0,0.08,0.01,0.17,0.01,0.26
		c0,0.02-0.01,0.04-0.01,0.06c0.01,0.15,0.13,0.26,0.28,0.26c0.03,0,0.07-0.01,0.1-0.02c0.04,0,0.07,0,0.1,0
		c0.09,0,0.18,0,0.27-0.01c0.24-0.01,0.47-0.01,0.71-0.02c0.14-0.01,0.28-0.01,0.42-0.01c0.03,0,0.08,0,0.11,0
		c0.07-0.01,0.14-0.03,0.18-0.08c0.07-0.05,0.12-0.14,0.12-0.23c-0.01-0.32,0.02-0.64,0-0.96c0-0.18-0.02-0.36-0.05-0.54
		C88.64,12.71,88.56,12.49,88.43,12.31z"/>
</g>
</svg>
