<?xml version="1.0" encoding="utf-8"?>
<!-- Generator: Adobe Illustrator 23.0.0, SVG Export Plug-In . SVG Version: 6.00 Build 0)  -->
<svg version="1.1" id="Слой_1" xmlns="http://www.w3.org/2000/svg" xmlns:xlink="http://www.w3.org/1999/xlink" x="0px" y="0px"
	 viewBox="0 0 100 21.28" style="enable-background:new 0 0 100 21.28;" xml:space="preserve">
<g>
	<path d="M11.03,12.22c-0.89,0.06-0.95,1.5-0.03,1.61C12.21,14.14,12.23,12.02,11.03,12.22z M11.36,13.17
		c-0.04,0.09-0.12,0.14-0.2,0.14c-0.05,0-0.1-0.02-0.15-0.05c-0.08-0.05-0.14-0.12-0.15-0.21c0-0.05,0.02-0.11,0.06-0.15
		c0.05-0.06,0.13-0.12,0.22-0.13C11.35,12.74,11.43,13.02,11.36,13.17z"/>
	<path d="M20.61,12.38C20.61,12.38,20.61,12.38,20.61,12.38c0.01,0,0.02-0.01,0.03-0.01C20.63,12.38,20.62,12.38,20.61,12.38z"/>
	<path d="M20.61,12.38c-0.04,0.01-0.08,0.02-0.12,0.03c-0.24,0.08-0.43,0.27-0.51,0.51c-0.08,0.23-0.06,0.49,0.07,0.71
		c0.12,0.2,0.33,0.35,0.57,0.39c0.05,0.01,0.09,0.01,0.14,0.01c0.2,0,0.4-0.07,0.56-0.21c0.31-0.27,0.36-0.76,0.12-1.1
		C21.26,12.45,20.93,12.33,20.61,12.38z M21.04,13.24c0,0,0,0.01,0,0.01c0,0.01,0,0.01,0,0.02l-0.01,0.01
		c-0.01,0.01-0.01,0.03-0.02,0.04c-0.01,0.02-0.02,0.03-0.03,0.05c-0.01,0.01-0.02,0.02-0.03,0.03c0,0-0.01,0.01-0.01,0.01
		c0,0-0.01,0.01-0.01,0.01c0,0-0.01,0.01-0.02,0.01c-0.01,0.01-0.02,0.01-0.03,0.01l-0.02,0.01c-0.01,0-0.02,0.01-0.03,0.01
		c-0.01,0-0.02,0.01-0.03,0.01c-0.01,0-0.02,0-0.04,0c-0.01,0-0.03,0-0.04,0c0,0-0.01,0-0.01-0.01c-0.01,0-0.01,0-0.02,0
		c0.01,0-0.01-0.01-0.02-0.01c-0.01-0.01-0.02-0.01-0.04-0.02c-0.01-0.01-0.03-0.02-0.04-0.02l-0.02-0.02
		c-0.01-0.01-0.01-0.01-0.02-0.02c-0.01-0.02-0.02-0.03-0.03-0.05c0,0,0,0,0,0c0,0.01,0,0,0,0c0-0.01-0.01-0.02-0.01-0.02
		c0.01,0,0-0.02-0.01-0.04c0,0,0-0.01,0-0.02l0,0c0-0.01,0-0.01,0-0.02c0,0,0-0.01,0-0.02c0-0.01,0-0.03,0-0.04
		c0-0.01,0-0.03,0.01-0.04c0-0.01,0-0.01,0.01-0.02c0-0.01,0-0.01,0.01-0.02l0.01-0.01c0.01-0.02,0.02-0.03,0.03-0.05l0.01-0.01
		c0.01-0.01,0.03-0.02,0.04-0.04c0.01-0.01,0.02-0.02,0.04-0.02c0,0,0.02-0.01,0.03-0.02c0,0,0.02,0,0.03-0.01c0,0,0,0,0,0
		c0,0,0.01,0,0.01,0c0,0,0,0,0.01,0c0,0,0,0,0,0c0,0,0,0,0,0c0,0,0.01,0,0.01,0c0.01,0,0.03,0,0.04,0c0.01,0,0.03,0,0.04,0
		c0,0,0.01,0,0.03,0c0.01,0,0.03,0.01,0.04,0.02c0.01,0,0.01,0,0.02,0.01c0,0,0,0,0,0c0,0,0.01,0,0.01,0c0,0,0.01,0,0.01,0
		c0,0,0,0,0,0c0.01,0.01,0.03,0.02,0.04,0.03c0,0,0,0,0.01,0.01c0,0,0.01,0.01,0.01,0.01c0,0.01,0.01,0.02,0.02,0.03l0.02,0.03
		c0,0,0,0,0,0c0.01,0.01,0.01,0.03,0.02,0.04c0.01,0.02,0.01,0.05,0.02,0.07c0,0.02,0,0.03,0,0.05L21.04,13.24z"/>
	<path d="M28.14,10.85C28.14,10.85,28.14,10.85,28.14,10.85c-0.02,0.01-0.03,0.03-0.05,0.04C28.11,10.88,28.13,10.87,28.14,10.85z"
		/>
	<path d="M31.23,12.32c-0.15-0.1-0.32-0.15-0.5-0.15c-0.06,0-0.16,0.02-0.25,0.06c-0.05,0-0.1,0.02-0.15,0.04
		c-0.14,0.07-0.25,0.2-0.34,0.33c-0.12,0.17-0.18,0.39-0.16,0.6c0.02,0.22,0.14,0.42,0.31,0.55c0.18,0.14,0.39,0.21,0.61,0.22
		c0.02,0,0.04,0,0.05,0c0.25,0,0.5-0.11,0.66-0.3c0.09-0.11,0.15-0.24,0.17-0.38c0.03-0.12,0.04-0.27,0-0.39
		C31.57,12.67,31.44,12.46,31.23,12.32z M31.11,13.14c0,0.02-0.01,0.04-0.01,0.06l0,0c0,0,0,0.01,0,0.01
		c-0.01,0.01-0.01,0.03-0.02,0.05c0,0.01-0.01,0.02-0.01,0.02c0,0.01-0.01,0.01-0.01,0.02c-0.01,0.01-0.02,0.02-0.03,0.03
		c-0.01,0.01-0.01,0.01-0.02,0.02c-0.01,0.01-0.02,0.01-0.03,0.02c-0.01,0.01-0.02,0.01-0.03,0.02c0,0,0,0,0,0
		c-0.01,0-0.01,0.01-0.02,0.01c0,0-0.02,0-0.03,0.01c0,0-0.01,0-0.02,0c0,0-0.01,0-0.01,0c0,0,0,0-0.01,0c-0.01,0-0.01,0-0.02,0
		c0,0,0.01,0,0.01,0c-0.03,0-0.07,0-0.11,0c0,0,0,0,0,0c-0.03,0-0.06-0.01-0.09-0.01c0,0,0,0,0,0c0,0,0,0-0.01,0
		c-0.01,0-0.02,0-0.03-0.01l-0.01-0.01c-0.03-0.01-0.06-0.03-0.08-0.04c0,0,0,0,0,0c-0.01-0.01-0.02-0.01-0.03-0.02
		c0,0-0.01-0.01-0.02-0.01c0,0,0,0,0,0c0,0,0,0,0,0c-0.01-0.01-0.01-0.01-0.02-0.02c-0.02-0.02-0.03-0.04-0.05-0.06l0,0
		c-0.01-0.02-0.02-0.03-0.03-0.05l0-0.01c0,0,0-0.01,0-0.01c0-0.01-0.01-0.03-0.01-0.04c0-0.01,0-0.02,0-0.02c0-0.01,0-0.02,0-0.03
		c0-0.02,0-0.04,0.01-0.06c0,0,0-0.02,0.01-0.03c0.01-0.02,0.01-0.03,0.02-0.05c0,0,0,0,0,0c0-0.01,0.01-0.01,0.01-0.02
		c0,0,0.01-0.02,0.03-0.03c0.01-0.02,0.04-0.05,0.06-0.07c0.01-0.01,0.03-0.03,0.05-0.05c0,0,0,0,0,0c0,0,0,0,0,0c0,0,0,0,0.01,0
		c0,0,0.01,0,0.01,0c0.05,0,0.09-0.01,0.13-0.03c0,0,0,0,0,0c0,0,0.01,0,0.01,0c0,0,0,0,0,0c0,0,0,0,0,0c0,0,0,0,0,0
		c0,0,0.01,0,0.02,0c0,0,0.02,0,0.04,0l0,0c0.02,0,0.03,0,0.05,0.01c0,0,0,0,0,0c0,0,0,0,0.01,0c0.01,0,0.02,0.01,0.04,0.02
		c0.02,0.01,0.04,0.02,0.06,0.03c0.01,0.01,0.02,0.02,0.03,0.03c0.02,0.02,0.03,0.03,0.05,0.05l0.01,0.01c0,0,0,0,0.01,0.01
		c0.01,0.01,0.02,0.03,0.03,0.05c0.01,0.02,0.02,0.04,0.03,0.05c0,0,0.01,0.03,0.02,0.05c0,0.02,0.01,0.05,0.01,0.07
		C31.12,13.11,31.12,13.13,31.11,13.14z"/>
	<polygon points="30.33,12.27 30.33,12.27 30.33,12.27 	"/>
	<path d="M40.57,12.35c-0.06-0.01-0.11-0.02-0.17-0.02c-0.01,0-0.02,0-0.03,0c-0.09,0-0.18,0.02-0.28,0.05
		c-0.24,0.09-0.43,0.28-0.51,0.52c-0.07,0.21-0.06,0.43,0.04,0.64c0.14,0.29,0.45,0.47,0.76,0.47c0.14,0,0.27-0.03,0.4-0.11
		c0.32-0.18,0.49-0.56,0.4-0.92C41.1,12.67,40.87,12.44,40.57,12.35z M40.65,13.22C40.65,13.21,40.65,13.22,40.65,13.22
		c0,0.02-0.01,0.04-0.02,0.06c-0.01,0.01-0.01,0.02-0.02,0.04c0,0,0,0,0,0.01c0,0,0,0,0,0.01c0,0-0.01,0.01-0.01,0.01
		c0,0-0.01,0-0.01,0.01c-0.01,0-0.02,0.02-0.04,0.03c-0.01,0.01-0.02,0.02-0.03,0.02c-0.01,0-0.01,0.01-0.02,0.01
		c-0.02,0.01-0.04,0.01-0.06,0.02h0c-0.02,0-0.04,0.01-0.07,0.01c-0.01,0-0.02,0-0.02,0c-0.02,0-0.03-0.01-0.05-0.01c0.01,0,0,0,0,0
		c-0.01,0-0.02,0-0.02,0l-0.01-0.01c-0.01-0.01-0.03-0.01-0.04-0.02c-0.01-0.01-0.02-0.02-0.03-0.02c0,0-0.01,0-0.01-0.01
		c-0.01-0.01-0.02-0.03-0.04-0.04c0,0-0.01-0.01-0.01-0.01c0,0-0.01-0.01-0.01-0.02c0,0,0,0,0,0c0,0,0,0,0,0
		c0-0.01-0.01-0.02-0.01-0.03c0-0.01,0-0.01-0.01-0.02c-0.01-0.02-0.01-0.04-0.01-0.06c0-0.01,0-0.02,0-0.02c0,0,0-0.01,0-0.02
		c0-0.01,0-0.03,0-0.05c0,0.01,0,0,0,0c0-0.01,0-0.01,0-0.02c0,0,0,0,0.01-0.01c0.01-0.02,0.02-0.04,0.03-0.06c0,0,0-0.01,0.01-0.01
		c0.01-0.01,0.02-0.03,0.04-0.04l0.02-0.02c0.02-0.01,0.03-0.02,0.05-0.03c0,0,0,0,0,0c0.01,0,0.02-0.01,0.02-0.01
		c0.01,0,0.02-0.01,0.03-0.01c0,0,0.02,0,0.03-0.01c0.02,0,0.04,0,0.05,0c0,0,0.01,0,0.01,0c0.02,0,0.03,0.01,0.05,0.01
		c0,0,0.01,0,0.01,0c0.01,0,0.02,0.01,0.03,0.01c0.01,0.01,0.03,0.01,0.04,0.02c0,0,0.01,0.01,0.01,0.01c0.01,0,0.02,0.01,0.03,0.02
		c0.01,0.01,0.02,0.02,0.02,0.02c0.02,0.02,0.03,0.03,0.04,0.06c0.01,0.02,0.02,0.04,0.03,0.07l0,0.03c0,0.01,0,0.02,0,0.03
		C40.65,13.18,40.65,13.2,40.65,13.22z"/>
	<path d="M49.84,12.52c-0.13-0.02-0.25,0.01-0.37,0.06c-0.03,0.01-0.06,0.03-0.1,0.05c0,0-0.02,0.01-0.03,0.02
		c-0.01,0-0.01,0.01-0.01,0.01c-0.01,0-0.01,0.01-0.02,0.01c0,0,0.01,0,0.01-0.01c0,0,0,0,0,0c0,0,0,0,0,0c0,0,0.01-0.01,0.01-0.01
		c0,0,0,0,0,0c0,0-0.01,0.01-0.01,0.01c0.01,0,0,0,0,0c0,0,0,0,0,0c0,0,0,0,0,0c-0.01,0.01-0.02,0.02-0.03,0.02
		c-0.15,0.12-0.24,0.3-0.25,0.49c-0.03,0.26,0.09,0.51,0.3,0.67c0.13,0.1,0.28,0.15,0.44,0.15c0.25,0,0.49-0.12,0.63-0.34
		c0.15-0.25,0.16-0.59-0.02-0.83C50.23,12.66,50.05,12.55,49.84,12.52z M49.94,13.3c0,0.01-0.01,0.02-0.01,0.03
		c-0.01,0.01-0.01,0.02-0.02,0.03c-0.01,0.01-0.02,0.02-0.03,0.03c-0.01,0.01-0.02,0.01-0.03,0.02c0,0,0,0,0,0
		c-0.01,0-0.02,0.01-0.03,0.01l0,0c0,0-0.01,0-0.01,0c0,0,0,0,0,0c0,0,0,0,0,0c0,0-0.01,0-0.01,0c-0.01,0-0.02,0-0.02,0.01
		c-0.01,0-0.03,0-0.04,0l0.01,0c-0.01,0-0.02,0-0.02,0c-0.01,0-0.01,0-0.02,0c-0.01,0-0.02-0.01-0.03-0.01l-0.01,0
		c-0.01,0-0.01-0.01-0.02-0.01c0,0,0,0-0.01,0c0,0,0,0,0,0c-0.01-0.01-0.03-0.02-0.04-0.03l-0.01-0.01
		c-0.01-0.01-0.01-0.02-0.02-0.03c0-0.01-0.01-0.02-0.01-0.03c0-0.01,0-0.01-0.01-0.02c0-0.01,0-0.03,0-0.04c0-0.01,0-0.03,0-0.04
		c0-0.01,0-0.01,0.01-0.02c0.01-0.02,0.02-0.03,0.03-0.05c0,0,0,0,0,0c0,0,0-0.01,0.01-0.01c0,0,0,0,0,0
		c0.01-0.01,0.02-0.02,0.03-0.03c0,0,0,0,0.01,0c0,0,0,0,0,0c0,0,0,0,0,0c0,0,0,0,0,0c0,0,0.01-0.01,0.01-0.01
		c0,0,0.01-0.01,0.01-0.01c0,0,0,0,0.01,0c0,0,0,0,0,0c0,0,0,0,0,0c0,0,0.01,0,0.01,0c0,0,0,0,0,0c0,0,0,0,0,0c0,0,0,0,0,0
		c0,0,0.01,0,0.01,0c0,0,0.01,0,0.01,0c0,0,0,0-0.01,0c0,0-0.01,0-0.01,0c0.01,0,0.02,0,0.02-0.01c0,0,0.01,0,0.01,0
		c0.01,0,0.02,0,0.04,0c0,0,0.01,0,0.01,0c0.01,0,0.03,0.01,0.04,0.01c0.01,0,0.03,0.01,0.04,0.01c0.01,0.01,0.02,0.01,0.03,0.02
		c0.01,0.01,0.02,0.01,0.02,0.02c0,0,0,0,0,0c0,0,0,0,0,0c0,0.01,0.01,0.01,0.01,0.02c0,0,0,0,0,0c0,0,0,0,0,0.01c0,0,0,0,0.01,0.01
		c0,0,0,0,0,0c0,0,0,0,0,0c0,0-0.01-0.01-0.01-0.01c0,0.01,0.01,0.01,0.01,0.02c0.01,0.01,0.01,0.02,0.02,0.04l0,0.01
		c0,0,0,0.01,0,0.01c0,0,0,0,0,0c0,0.01,0,0.03,0,0.04C49.95,13.28,49.95,13.29,49.94,13.3z"/>
	<polygon points="59.76,13.38 59.76,13.38 59.76,13.38 	"/>
	<path d="M59.58,12.39c-0.01,0-0.04,0-0.08,0.01c0,0-0.01,0-0.03,0c-0.01,0-0.03,0.01-0.04,0.01c-0.02,0-0.04,0.01-0.06,0.02
		c-0.25,0.09-0.42,0.32-0.46,0.59c-0.03,0.21,0.03,0.44,0.16,0.61c0.15,0.2,0.36,0.33,0.61,0.33c0.02,0,0.05,0,0.08,0
		c0.21-0.03,0.4-0.16,0.49-0.35c0.16-0.3,0.09-0.7-0.13-0.95C59.99,12.5,59.79,12.39,59.58,12.39z M59.54,12.95
		C59.54,12.95,59.55,12.95,59.54,12.95C59.54,12.95,59.54,12.95,59.54,12.95C59.54,12.95,59.54,12.95,59.54,12.95
		C59.54,12.95,59.54,12.95,59.54,12.95C59.54,12.95,59.54,12.95,59.54,12.95C59.54,12.95,59.54,12.95,59.54,12.95
		C59.54,12.95,59.54,12.95,59.54,12.95c-0.01,0-0.01,0.01-0.02,0.01C59.53,12.96,59.54,12.95,59.54,12.95z M59.49,13.01
		C59.49,13.01,59.49,13.01,59.49,13.01c0,0,0-0.01,0.01-0.01C59.49,13,59.49,13,59.49,13.01C59.49,13,59.49,13,59.49,13.01
		c0,0,0,0.01-0.01,0.02C59.49,13.02,59.49,13.01,59.49,13.01z M59.8,13.26C59.8,13.27,59.8,13.27,59.8,13.26
		c0,0.02-0.01,0.04-0.01,0.06c0,0.01-0.01,0.02-0.02,0.04l0,0c0,0.01-0.01,0.01-0.01,0.02c0,0,0,0,0,0c0,0,0,0,0,0
		c0,0,0,0-0.01,0.01c0,0,0,0,0,0c0,0,0,0,0,0c0,0,0,0-0.01,0.01c0,0-0.01,0-0.01,0.01c0,0,0,0,0,0c0,0-0.01,0-0.01,0.01c0,0,0,0,0,0
		c0,0,0,0,0,0c0,0,0,0,0,0c0,0,0,0,0,0c0,0,0,0,0,0c0,0,0,0,0,0c0,0-0.01,0-0.01,0c0,0,0,0-0.01,0c0,0,0,0,0,0c0,0,0,0,0,0
		c0,0,0,0,0,0c0,0,0,0,0,0c0,0,0,0,0,0s0,0,0,0c0,0,0,0,0,0c-0.01,0-0.03,0-0.04,0c0.01,0,0.01,0,0.02,0c0.01,0,0.02,0,0.03,0
		c0,0-0.01,0-0.01,0c0,0,0,0,0,0c0,0,0,0,0,0c0,0,0,0,0,0c0,0,0,0,0,0c0,0,0,0-0.01,0c0,0-0.01,0-0.01,0c0,0,0,0,0,0
		c-0.01,0-0.01,0-0.02-0.01c-0.01,0-0.02-0.01-0.03-0.01c0,0,0,0,0,0c0,0,0,0,0,0c0,0,0,0-0.01,0c0,0,0,0,0,0c0,0-0.01,0-0.01-0.01
		c0,0,0,0,0,0c0,0-0.01,0-0.01,0c0,0,0,0-0.01-0.01c0,0,0.01,0.01,0.01,0.01c0,0,0,0,0.01,0c-0.01-0.01-0.02-0.01-0.03-0.02
		c0,0-0.01-0.01-0.01-0.01c-0.01-0.01-0.02-0.03-0.04-0.04c0,0.01,0,0,0,0c0,0,0,0,0-0.01c0-0.01-0.01-0.02-0.01-0.03
		c-0.01-0.01-0.01-0.02-0.01-0.03c-0.01-0.02-0.01-0.04-0.02-0.05c0-0.01,0-0.02-0.01-0.03c0-0.01,0-0.03,0-0.04
		c0-0.02,0-0.05,0.01-0.07c0,0,0-0.01,0-0.01c0,0,0,0,0-0.01c0.01-0.02,0.02-0.03,0.02-0.05c0,0,0,0,0,0c0,0,0.01-0.01,0.01-0.01
		c0.01-0.01,0.02-0.01,0.03-0.02c0,0,0,0,0,0c0,0,0,0,0,0c0,0,0,0,0,0c0,0,0,0,0,0c0,0,0,0,0.01,0c0,0,0,0,0.01,0
		c0.01,0,0.01,0,0.02,0c0,0,0.01,0,0.01,0c0.01,0,0.02,0.01,0.03,0.01c0.01,0.01,0.02,0.01,0.04,0.02c0,0-0.01-0.01-0.01-0.01
		c0,0-0.01,0-0.01,0c0,0,0.01,0,0.01,0c0,0,0,0,0,0c0,0,0,0,0,0c0,0,0,0,0.01,0c0,0,0,0.01,0.01,0.01c0,0,0.01,0,0.01,0.01
		c0,0,0.01,0.01,0.02,0.01c0,0,0.01,0.01,0.01,0.01c0,0,0.01,0.01,0.01,0.01c0,0,0,0,0.01,0.01v0c0,0.01,0.01,0.01,0.01,0.02
		c0,0,0.01,0.01,0.01,0.01c0,0.01,0.01,0.02,0.02,0.04c0.01,0.01,0.02,0.03,0.02,0.05l0.01,0.03c0,0.01,0,0.02,0.01,0.03
		c0-0.01,0,0,0,0c0,0.01,0,0.02,0,0.02C59.8,13.23,59.8,13.24,59.8,13.26C59.8,13.26,59.8,13.26,59.8,13.26z"/>
	<path d="M67.37,10.91C67.37,10.91,67.37,10.91,67.37,10.91c0,0,0,0.01-0.01,0.01C67.37,10.92,67.37,10.92,67.37,10.91z"/>
	<path d="M69.52,12.26c-0.01,0-0.02,0-0.03,0c-0.01,0-0.01,0-0.02,0c-0.01,0-0.02,0-0.03,0.01c-0.01,0-0.02,0.01-0.04,0.01
		c-0.17,0.06-0.33,0.19-0.42,0.37c-0.1,0.21-0.1,0.46,0.02,0.66c0.12,0.21,0.33,0.34,0.57,0.37c0.02,0,0.04,0,0.06,0
		c0.18,0,0.36-0.07,0.49-0.19c0.26-0.24,0.31-0.67,0.09-0.95C70.04,12.34,69.78,12.22,69.52,12.26z M69.79,13.01
		C69.79,13.01,69.79,13.01,69.79,13.01c0,0.01,0,0.01-0.01,0.02c0,0,0,0,0,0c0,0,0,0,0,0c0,0.01,0,0.02-0.01,0.02c0,0,0,0,0,0
		c0,0,0,0,0,0c0,0,0,0,0,0c0,0,0,0,0,0c-0.01,0.01-0.02,0.02-0.03,0.04c0,0-0.01,0.01-0.01,0.01c0,0,0.01,0,0.01,0
		c0-0.01,0.01-0.01,0.01-0.02c0,0.01-0.01,0.01-0.01,0.02c0,0,0,0,0,0c0,0,0,0,0,0c0,0,0,0,0,0c0,0,0,0,0,0c0,0-0.01,0.01-0.01,0.01
		c0,0,0,0,0,0c0,0-0.01,0-0.01,0.01c0,0-0.01,0-0.01,0.01c0,0,0,0,0,0c0,0-0.01,0.01-0.01,0.01l0,0c-0.01,0-0.02,0.01-0.03,0.01
		c0,0-0.01,0-0.01,0c0,0-0.01,0-0.02,0c-0.01,0-0.02,0-0.03,0c-0.01,0-0.02,0-0.03-0.01c0,0,0,0,0,0c-0.01,0-0.02-0.01-0.03-0.01
		c-0.01-0.01-0.02-0.01-0.02-0.01c-0.01,0-0.01-0.01-0.02-0.01c0,0,0,0,0,0c0,0,0,0,0,0c0,0,0,0,0,0c0,0,0,0,0,0
		c0-0.01-0.01-0.01-0.01-0.02c0,0,0,0,0,0c0,0,0,0,0-0.01c0,0,0,0-0.01-0.01c0,0,0,0,0-0.01c0,0,0,0.01,0.01,0.01
		c0,0,0.01,0.01,0.01,0.01c-0.01-0.01-0.01-0.02-0.02-0.03c0,0,0,0,0-0.01c0,0,0,0,0,0c0,0,0,0,0,0c0,0,0,0,0-0.01
		c0-0.01-0.01-0.02-0.01-0.02c0,0,0-0.02,0-0.03c0-0.01,0-0.01,0-0.02c0-0.01,0-0.02,0-0.03c0,0,0,0,0-0.01c0,0,0,0,0,0
		c0,0,0-0.01,0-0.01c0,0,0-0.01,0-0.01c0,0,0,0,0,0c0,0,0-0.01,0-0.01c0,0,0,0,0,0c0-0.01,0.01-0.01,0.01-0.02c0,0,0,0,0,0
		c0,0,0-0.01,0-0.01c0,0.01,0,0,0,0c0,0,0-0.01,0.01-0.01c0,0,0,0,0,0c0.01-0.01,0.01-0.01,0.02-0.02c0.01-0.01,0.01-0.01,0.02-0.02
		c0,0,0.01,0,0.01-0.01c0.01,0,0.01-0.01,0.02-0.01c-0.01,0,0,0,0,0c0,0,0,0,0,0c0,0,0,0,0,0c0,0,0,0,0.01,0c0,0,0,0,0.01,0
		c0,0,0,0,0,0c0,0,0.01,0,0.01,0c0,0,0,0,0,0c0,0,0,0,0.01,0c0,0,0,0,0,0c0,0,0,0,0,0c0,0,0.01,0,0.01,0c0,0,0.01,0,0.01,0
		c0,0,0,0,0,0c0,0,0,0,0,0c0,0,0,0,0,0c0,0,0,0,0,0c0,0,0.01,0,0.01,0c0,0,0,0,0,0c0,0,0,0-0.01,0c0,0,0.01,0,0.01,0
		c0.01,0,0.02,0,0.03,0c0,0,0.01,0,0.03,0.01c0,0,0,0,0,0c0,0,0,0,0,0c0,0,0.01,0,0.01,0.01c0,0,0,0,0,0c0.01,0,0.01,0.01,0.02,0.01
		c0,0,0,0,0,0c0,0,0,0,0,0c0,0,0,0,0,0c0.01,0.01,0.02,0.02,0.02,0.02c0.01,0.01,0.01,0.02,0.02,0.03c0,0,0,0,0,0c0,0,0,0,0,0
		c0,0,0,0,0,0.01c0,0,0,0,0,0.01c0,0,0,0,0,0.01c0,0,0,0.01,0,0.01c0,0.01,0,0.03,0,0.04C69.79,12.98,69.79,12.99,69.79,13.01z"/>
	<polygon points="69.71,13.11 69.71,13.11 69.71,13.11 69.72,13.11 	"/>
	<path d="M78.76,12.23c-0.04,0.01-0.08,0.04-0.12,0.07c0,0-0.03,0.02-0.06,0.05l-0.01,0.01c0,0-0.01,0.01-0.01,0.01
		c-0.04,0.04-0.08,0.09-0.12,0.14c-0.11,0.17-0.15,0.37-0.11,0.57c0.04,0.21,0.17,0.39,0.35,0.5c0.12,0.08,0.26,0.12,0.39,0.12
		c0.26,0,0.52-0.13,0.66-0.36c0.18-0.29,0.14-0.7-0.12-0.94C79.38,12.16,79.05,12.1,78.76,12.23z M79.29,12.98
		C79.28,12.98,79.28,12.98,79.29,12.98c0,0.01-0.01,0.02-0.01,0.03c0,0.01-0.01,0.01-0.01,0.02l0,0c0,0,0,0,0,0c0,0,0,0,0,0.01
		c0,0,0,0,0,0c0,0,0,0,0,0c0,0.01-0.01,0.01-0.01,0.02l0,0c-0.01,0.01-0.02,0.02-0.02,0.02c-0.01,0.01-0.02,0.02-0.04,0.03
		c0,0,0,0,0,0c0,0,0,0,0,0c0,0-0.01,0-0.01,0c-0.01,0-0.01,0.01-0.02,0.01c0,0,0,0-0.01,0c-0.01,0-0.03,0.01-0.04,0.01
		c-0.01,0-0.02,0-0.03,0c-0.01,0-0.03,0-0.04,0c0,0-0.01,0-0.03,0L79,13.12c-0.01,0-0.01,0-0.02-0.01c0,0-0.01,0-0.01,0
		c0,0-0.01,0-0.01,0c0,0,0,0,0.01,0c0,0,0,0,0.01,0c-0.01,0-0.01-0.01-0.02-0.01c-0.01-0.01-0.03-0.02-0.04-0.03
		c0.01,0.01,0.01,0.01,0.02,0.02c0,0,0,0,0,0c-0.01-0.01-0.02-0.02-0.03-0.03c-0.01-0.01-0.02-0.02-0.03-0.03l0-0.01
		c0,0-0.01-0.01-0.01-0.03c0,0,0,0,0-0.01c0-0.01,0-0.01,0-0.02c0,0,0,0,0,0c0,0,0-0.01,0-0.01c0,0,0,0,0-0.01c0,0,0-0.01,0-0.01
		c0-0.01,0-0.03,0-0.04c0-0.01,0.01-0.03,0.01-0.04c0,0,0,0,0,0c0,0,0-0.01,0-0.01c0-0.01,0.01-0.02,0.01-0.04l0,0
		c0,0,0-0.01,0-0.01v0c0.01-0.01,0.02-0.03,0.03-0.04c0,0,0.01-0.01,0.01-0.01c0,0,0,0,0,0c0,0,0,0,0.01-0.01c0,0,0,0,0,0
		c0,0,0,0,0,0c0,0,0,0,0,0c0,0,0,0,0,0l0,0c0,0,0,0,0,0c0,0,0,0,0,0c0.01,0,0.01-0.01,0.02-0.01c0.01,0,0.01,0,0.02-0.01
		c0.01,0,0.02-0.01,0.04-0.01c0,0,0,0,0,0c0,0,0.01,0,0.01,0c0.01,0,0.02,0,0.03,0c0.01,0,0.03,0,0.05,0l0,0
		c0.01,0,0.03,0.01,0.04,0.01c0,0,0.02,0.01,0.04,0.02c0,0,0.01,0.01,0.01,0.01c0,0,0,0,0.01,0c0,0,0,0,0,0c0,0,0.01,0,0.01,0.01
		c0.01,0.01,0.02,0.03,0.04,0.04c0,0,0.01,0.01,0.01,0.01l0,0c0,0,0,0,0,0c0,0,0,0,0,0c0,0.01,0.01,0.01,0.01,0.02
		c0.01,0.01,0.01,0.03,0.01,0.04l0,0.03c0,0.01,0,0.02,0,0.02C79.29,12.94,79.29,12.96,79.29,12.98z"/>
	<path d="M93.87,9.35c-0.12-0.35-0.31-0.69-0.61-0.91c-0.46-0.34-1.09-0.36-1.64-0.23c-0.24,0.06-0.49,0.15-0.7,0.29
		c-0.06,0.04-0.12,0.08-0.17,0.13c-0.39,0.34-0.57,0.89-0.54,1.41c0.03,0.53,0.29,1.07,0.75,1.34c0.46,0.27,1.08,0.22,1.5-0.1
		c0.42-0.32,0.63-0.89,0.53-1.42c-0.05-0.27-0.19-0.54-0.42-0.7c-0.31-0.22-0.78-0.18-1.05,0.09c-0.27,0.27-0.29,0.76-0.03,1.04
		c0.11,0.13,0.29,0.21,0.45,0.17c0.16-0.05,0.27-0.27,0.16-0.4c-0.06-0.07-0.16-0.1-0.21-0.18c-0.09-0.14,0.09-0.34,0.26-0.31
		c0.17,0.03,0.28,0.2,0.31,0.36c0.08,0.36-0.09,0.77-0.42,0.95s-0.77,0.12-1.02-0.15c-0.16-0.17-0.24-0.39-0.26-0.62
		c-0.06-0.58,0.31-1.17,0.85-1.39c0.54-0.21,1.22-0.02,1.57,0.45c0.34,0.45,0.36,1.08,0.19,1.63c-0.25,0.8-0.99,1.4-1.82,1.49
		c-0.6,0.07-1.14-0.14-1.49-0.64c-0.17-0.24-0.28-0.52-0.38-0.8c-0.14-0.42-0.25-0.85-0.31-1.29c0-0.03-0.01-0.06-0.01-0.09
		c-0.02-0.15-0.03-0.3-0.04-0.44c-0.01-0.07-0.01-0.15-0.02-0.22c-0.01-0.07-0.04-0.14-0.02-0.21c0.02-0.07,0.1-0.12,0.14-0.17
		c0.05-0.07,0.1-0.13,0.16-0.2c0.22-0.28,0.45-0.55,0.66-0.84c0.39-0.54,0.76-1.18,0.72-1.87c-0.01-0.15-0.03-0.32-0.09-0.46
		c-0.24-0.55-0.94-0.42-1.26-0.02c0.42-2.92-1.71-3.2-1.52-0.15c-0.28-0.17-0.64-0.04-0.82,0.22c-0.63,1.21,0.74,2.5,1.38,3.44
		c-0.2,1.19-0.32,2.66-1.41,3.42c-1.18,0.64-2.77-0.21-2.53-1.65c0.12-0.77,0.91-1.6,1.74-1.38c0.69,0.25,0.85,1.16,0.43,1.76
		c-0.28,0.66-1.37,0.35-1.15-0.39c0.03-0.1,0.14-0.2,0.22-0.27C86,10,86.05,9.96,86.11,9.96c0.16,0.01,0.03,0.18,0,0.24
		c-0.04,0.09-0.02,0.19,0.04,0.26c0.13,0.17,0.38,0.15,0.49-0.04c0.55-1.6-1.73-1.09-1.46,0.25c0.26,1.21,1.99,1.19,2.33,0.03
		c0.67-1.21-0.57-2.87-1.92-2.25c-0.25,0.09-0.47,0.22-0.65,0.37c0.13-0.71-0.4-1.44-1.26-1.06c-0.22,0.15-0.33,0.42-0.34,0.68
		c-0.44-0.27-0.97-0.37-1.5-0.15c-1.54,0.4-1.89,3.06-0.15,3.38c1.86,0.39,2.4-2.88,0.36-2.54c-0.49,0.16-0.81,0.78-0.53,1.24
		c0.14,0.25,0.63,0.47,0.76,0.11c0.08-0.36-0.26-0.27-0.31-0.46c-0.03-0.33,0.45-0.52,0.67-0.27c0.27,0.32,0.19,0.95-0.16,1.22
		c-0.9,0.51-1.63-0.25-1.37-1.22c0.17-0.61,0.82-1.07,1.48-1.02c3.91,1.49-2.67,7.58-2.95,0.09c0.04-0.05,0.08-0.1,0.11-0.15
		C80.3,7.95,81,7.17,81.14,6.21C81.35,5.45,80.7,4.56,80,5.29c0.32-2.5-1.92-2.53-1.63,0.04c-0.76-0.35-1.38,0.62-1.16,1.3
		c0.26,0.96,1.26,1.38,1.81,2.16c-0.3,1.48-0.99,3.41-2.76,3.53c-0.84,0.1-1.39-0.76-1.42-1.56c-0.15-1.58,1.79-2.75,2.31-0.78
		c0.16,0.59-0.41,1.3-1.02,1.29c-0.27-0.01-0.35-0.33-0.35-0.55c0-0.25,0.09-0.51,0.25-0.7c0.05-0.06,0.16-0.12,0.23-0.05
		c0.05,0.04,0.06,0.22,0.03,0.29c-0.17,0.11-0.15,0.4,0.04,0.48c0.4,0.13,0.57-0.39,0.52-0.7c-0.04-0.68-0.94-0.88-1.29-0.31
		c-0.37,0.51-0.47,1.3-0.06,1.81c0.16,0.2,0.48,0.29,0.72,0.28c0.26,0,0.51-0.11,0.72-0.25c0.44-0.3,0.78-0.83,0.78-1.38
		c0-0.4-0.16-0.82-0.4-1.15c-0.19-0.26-0.46-0.45-0.76-0.55c-0.22-0.07-0.46-0.1-0.69-0.06c-0.12,0.02-0.24,0.05-0.35,0.1
		c-0.06,0.02-0.12,0.05-0.17,0.08c-0.03,0.02-0.15,0.07-0.16,0.1c0.09-0.49-0.35-1.1-0.89-0.97c-0.43,0.11-0.78,0.59-0.74,1.03
		c-0.76-0.47-1.81-0.44-2.47,0.36c-1.37,1.66,0.61,3.92,2.21,2.29c0.59-0.73,0.02-2.16-1.02-1.82c-0.62,0.09-0.94,1.66-0.09,1.29
		c0.15-0.14,0.05-0.28,0.03-0.42c0.05-0.26,0.33-0.52,0.57-0.3c0.28,0.23,0.25,0.67,0.05,0.94c-0.23,0.3-0.73,0.34-1.09,0.21
		c-0.72-0.28-0.66-1.26-0.28-1.81c1.01-1.19,2.63-0.2,2.53,1.25c-0.1,1.06-0.99,1.93-2.11,1.73c-1.19-0.15-1.72-1.37-1.94-2.41
		c-0.14-0.67,0.03-1.47,0.03-1.47s1.13-1.3,1.42-1.97c0.05-0.11,0.09-0.22,0.12-0.33c0.26-0.93-0.32-1.97-1.21-1.01
		c0.3-2.88-1.84-2.21-1.63,0.2c-0.71-0.35-1.24,0.59-1.04,1.2c0.19,0.89,1.1,1.24,1.63,1.88c-0.07,1.28-0.05,3.02-1.33,3.71
		c-1.37,0.69-3.29-0.18-2.85-1.9c0.21-0.87,1.46-2.1,2.31-1.22c0.29,0.51,0.41,1.3,0.03,1.81c-0.23,0.19-0.59,0.3-0.88,0.25
		c-0.49-0.09-0.34-0.7-0.07-0.99c0.14-0.14,0.22-0.17,0.38-0.01c0.12,0.18,0,0.35-0.04,0.53c-0.01,0.3,0.42,0.39,0.53,0.11
		c0.39-0.58-0.21-1.54-0.92-1.26c-0.54,0.26-0.89,0.98-0.7,1.56c0.33,0.92,1.77,0.73,2.23,0.02c0.75-1.19-0.12-3.38-1.73-2.79
		c-0.36,0.13-0.66,0.33-0.91,0.56c0.18-0.83-0.76-1.56-1.44-0.84c-0.18,0.2-0.28,0.47-0.29,0.74c-0.95-0.79-2.35-0.82-2.73,0.88
		c-0.52,1.55,1.01,2.68,2.38,1.89c0.71-0.47,0.53-1.7-0.2-2.06c-0.68-0.42-1.59,0.5-1.03,1.13c0.2,0.2,0.72,0.29,0.75-0.09
		c0.01-0.21-0.2-0.29-0.37-0.3c-0.05-0.17,0.19-0.37,0.39-0.25c0.31,0.15,0.43,0.67,0.28,0.98c-0.24,0.31-0.71,0.32-1.08,0.25
		c-0.73-0.11-0.77-1.07-0.51-1.65c0.39-1.07,1.17-0.92,1.88-0.23c1.45,1.14,0.01,3.86-1.76,3.35c-0.24-0.06-0.44-0.17-0.62-0.37
		c-0.52-0.91-0.84-2.06-0.89-3.14c0.03-0.19,0.06-0.39,0.09-0.58c0.01-0.01,0.02-0.03,0.02-0.04c0.68-0.8,1.38-1.78,1.36-2.9
		c0-0.31-0.09-0.71-0.44-0.77c-0.28-0.09-0.55,0.16-0.79,0.56c-0.01-0.56-0.04-1.09-0.08-1.52c-0.63-1.12-1.52,0.18-1.3,0.99
		c0.01,0.13,0.03,0.26,0.05,0.38c-0.45-0.21-0.98,0.25-0.95,0.88c-0.1,1.14,0.72,2.06,1.49,2.79c-0.36,1.62-0.82,3.65-2.73,3.86
		c-0.86,0-1.41-0.92-1.57-1.71c-0.06-0.51,0.22-1.05,0.52-1.43c0.43-0.46,1.39-0.8,1.85-0.18c0.39,0.74,0.22,1.98-0.84,1.97
		c-0.21-0.04-0.48-0.13-0.53-0.39c-0.13-0.49,0.47-1.32,0.7-0.61c0.01,0.03,0.01,0.06,0,0.08c-0.3,0.16-0.12,0.63,0.23,0.5
		c0.46-0.18,0.39-0.86,0.1-1.16c-0.77-0.77-1.73,0.36-1.57,1.2c0.3,1.5,2.52,0.95,2.65-0.38c0.32-1.73-1.25-2.65-2.58-1.72
		c0.4-0.62,0-1.52-0.91-1.28c-0.53,0.11-0.85,0.76-0.73,1.24c-1.74-1.39-3.86,0.63-2.54,2.42c1.19,1.28,3.69-0.25,2.24-1.67
		c-0.71-0.64-1.93-0.13-1.46,0.86c0.1,0.16,0.29,0.25,0.47,0.28c0.37,0.06,0.44-0.51,0.07-0.55c-0.08-0.01-0.12-0.06-0.09-0.15
		c0.08-0.32,0.4-0.15,0.59-0.05c0.43,0.2,0.31,0.77,0,1.03c-0.27,0.21-0.68,0.18-1.02,0.12c-0.8-0.19-0.82-1.34-0.31-1.88
		c0.51-0.59,1.39-0.28,1.89,0.18c1.16,1.06,0.46,2.6-0.87,3.09c-0.6,0.17-1.35,0.11-1.84-0.33c-0.74-0.8-1.18-1.91-0.99-3.03
		c0.21-1.15,1.45-1.83,1.7-3.01c0.41-0.81-0.29-2.12-1.15-1.22c0.17-2.92-1.93-2.07-1.67,0.26c-0.37-0.28-0.93,0-1.04,0.43
		c-0.24,1.19,1.03,2.01,1.68,2.85c-0.12,1.83-0.96,4.32-3.2,4.2c-0.76-0.16-0.87-1.08-0.9-1.76c-0.1-0.87,0.26-2.12,1.33-2.08
		c0.42,0.04,0.9,0.25,1.04,0.69c0.22,0.82-0.23,2.02-1.26,1.79c-0.4-0.12-0.33-1.13,0.01-1.34c0.18-0.17,0.48-0.11,0.47,0.17
		c-0.04,0.23-0.22,0.58,0.18,0.63c0.41-0.05,0.42-0.68,0.3-0.99c-0.38-0.85-1.54-0.38-1.71,0.38c-0.54,2.95,3.19,1.71,2.57-0.65
		c-0.2-1.09-1.56-1.51-2.47-1.02c0.06-0.34-0.04-0.68-0.42-0.81c-0.53-0.25-0.98,0.11-1.12,0.54c-0.68-0.46-1.63-0.43-2.53,0.43
		c-1.37,1.44,0.08,3.53,1.91,2.79c0.39-0.16,0.68-0.53,0.66-0.96c-0.02-0.36-0.22-0.71-0.49-0.94c-0.27-0.23-0.65-0.41-1-0.25
		c-0.25,0.12-0.47,0.4-0.48,0.68c-0.01,0.16,0.08,0.3,0.2,0.39c0.14,0.1,0.32,0.15,0.49,0.17c0.08,0.01,0.15,0,0.23-0.01
		c0.34-0.08,0.22-0.61-0.12-0.54c-0.07,0.01-0.17-0.01-0.24-0.05c0.05-0.15,0.24-0.18,0.37-0.11c0.32,0.12,0.65,0.59,0.41,0.91
		c-0.41,0.5-1.32,0.33-1.7-0.12c-0.39-0.47-0.18-1.19,0.21-1.61c0.49-0.53,1.4-0.68,1.97-0.23c0.45,0.41,0.52,1.07,0.52,1.69
		c0,0.74-0.46,1.46-1.06,1.91c-0.48,0.24-1.06,0.31-1.62,0.19c-0.78-0.15-1.12-1.02-1.38-1.73c-0.09-0.29-0.15-0.6-0.19-0.9
		c-0.02-0.15-0.04-0.3-0.05-0.46c-0.04-0.37-0.1-0.35,0.05-0.68c0.58-0.75,1.71-1.85,1.77-2.89c0.14-0.97-0.75-1.4-1.3-0.54
		c0.39-2.57-1.84-2.77-1.47-0.08c-0.66-0.34-1.27,0.36-1.17,1.01c0.2,0.94,0.85,1.87,1.58,2.49c-0.23,1.26-0.51,2.72-1.62,3.49
		c-0.7,0.36-1.65,0.27-2.17-0.36c-0.76-1.04,0.02-2.85,1.38-2.77c0.86,0.07,1.04,1.28,0.65,1.91c-0.44,0.57-1.28,0.37-1.14-0.42
		c0.04-0.27,0.42-0.63,0.62-0.31c0.06,0.09,0.05,0.2,0.02,0.29c-0.12,0.15-0.01,0.44,0.21,0.44c0.5-0.08,0.42-0.87,0.12-1.15
		c-0.88-0.85-1.98,0.62-1.4,1.48c0.64,1.19,2.37,0.3,2.29-0.88c0.19-1.73-1.57-2.45-2.77-1.4c0.09-0.4,0.03-0.85-0.25-1.05
		c-0.54-0.44-1.03-0.01-1.17,0.52c-1.36-1.02-3.43,0.25-2.9,2.06c0.24,1.13,1.97,1.36,2.48,0.31c0.36-0.65,0-1.67-0.81-1.67
		c-0.67-0.03-1.03,1.05-0.33,1.29c0.34,0.11,0.5-0.41,0.17-0.53c-0.01-0.07,0.03-0.16,0.1-0.2c0.41-0.07,0.53,0.5,0.41,0.8
		c-0.15,0.37-0.54,0.5-0.93,0.41c-0.89-0.25-0.72-1.64-0.08-2.08c0.61-0.43,1.55-0.21,1.94,0.46c0.38,0.6,0.34,1.44,0.11,2.11
		c-0.31,0.83-1.34,1.18-2.13,0.81c-0.65-0.3-1.14-0.85-1.5-1.46c-0.13-0.22-0.24-0.45-0.34-0.69c-0.05-0.12-0.1-0.24-0.14-0.36
		c-0.04-0.11-0.09-0.23-0.1-0.35c-0.01-0.13,0.03-0.24,0.06-0.36c0.48-1.13,1.23-2.21,1.45-3.45c0.15-0.68-0.59-1.25-1.07-0.6
		c-0.12-2.59-1.77-1.77-1.45,0.36c-0.34-0.33-1.02-0.39-1.17,0.15c-0.1,0.72,0.2,1.4,0.55,2.01c0.18,0.32,0.38,0.62,0.58,0.93
		c0.09,0.15,0.19,0.3,0.27,0.45c0.04,0.08,0.09,0.15,0.13,0.23c0.04,0.08,0.04,0.15,0.04,0.23c0,0.07-0.04,0.15-0.06,0.21
		c-0.02,0.07-0.04,0.14-0.07,0.21c-0.05,0.14-0.1,0.28-0.15,0.42c-0.11,0.28-0.23,0.56-0.37,0.83c-0.27,0.51-0.63,0.99-1.13,1.3
		c-0.17,0.1-0.35,0.19-0.54,0.24c-0.19,0.05-0.43,0.11-0.62,0.08c-0.3-0.05-0.53-0.26-0.68-0.52c-0.51-0.75-0.77-1.9-0.14-2.68
		c0.38-0.44,1.16-0.56,1.66-0.32c0.4,0.34,0.6,0.96,0.42,1.5c-0.06,0.22-0.21,0.51-0.47,0.6c-0.29,0.07-0.65-0.08-0.79-0.36
		c-0.08-0.25-0.12-0.53,0.01-0.76c0.02-0.04,0.09-0.14,0.15-0.15c0.08,0,0.19,0.14,0.21,0.22c-0.3,0.21,0.04,0.66,0.31,0.45
		c0.02-0.02,0.05-0.04,0.06-0.05c0.35-0.31,0.12-0.93-0.28-1.11c-0.55-0.27-1.02,0.31-1.07,0.82c-0.17,0.93,0.79,1.8,1.68,1.41
		c1.79-1.14,0.39-4.1-1.67-3.08c-0.09,0.04-0.17,0.09-0.25,0.14c0.05-0.59-0.35-1.12-1.13-0.88c-0.37,0.2-0.53,0.5-0.55,0.81
		c-0.7-0.4-1.57-0.45-2.11,0.26c-1.25,1.33-0.51,3.36,1.44,2.72c0.78-0.32,1.08-1.61,0.32-2.11c-0.62-0.47-1.69,0.02-1.52,0.84
		c0.1,0.51,0.89,0.66,1.06,0.12c0.1-0.31-0.35-0.5-0.5-0.22c-0.06-0.07,0-0.17,0.04-0.23c0.16-0.23,0.58-0.18,0.75,0.07
		c0.16,0.32,0.02,0.76-0.28,0.98c-0.31,0.18-0.77,0.12-1.07-0.03c-0.68-0.52-0.13-1.58,0.43-2.02c0.39-0.29,0.97-0.08,1.34,0.19
		c0.96,0.73,0.98,2.28-0.06,2.94c-2.22,1.71-3.52-0.74-3.48-2.86c0-0.04,0-0.1,0-0.15c0.58-1.24,1.81-2.42,1.47-3.86
		c-0.12-0.46-0.62-0.59-0.99-0.32c-0.07-2.58-1.81-1.67-1.59,0.38c-2.3-0.13-0.34,3,0.5,3.71c-0.23,0.88-0.46,1.83-1.09,2.52
		C19.02,12.48,18,13,17.19,12.59c-0.9-0.61-1.12-2.12-0.14-2.81c0.42-0.35,1.17-0.48,1.57-0.06c0.39,0.48,0.24,1.37-0.32,1.67
		c-0.31,0.1-0.72,0.09-0.86-0.25c-0.14-0.31,0.07-0.76,0.43-0.74c0.09,0.03,0.11,0.18,0.05,0.26c0,0-0.01,0.01-0.02,0.03
		c-0.32,0.47,0.39,0.7,0.54,0.15c0.37-1.61-1.9-1.05-1.57,0.32c0.25,1.21,2.02,1.04,2.37-0.03c0.7-1.7-0.99-2.73-2.3-1.94
		c0.04-0.17,0.05-0.34,0.01-0.51c-0.06-0.24-0.2-0.46-0.41-0.6c-0.24-0.15-0.55-0.17-0.82-0.06c-0.42,0.17-0.71,0.6-0.74,1.04
		c-0.95-0.41-2.13-0.26-2.48,0.89c-0.56,1.52,1.67,2.64,2.41,1.15c0.47-0.9-1.05-2.09-1.53-1.01c-0.12,0.33,0.03,0.71,0.34,0.88
		c0.38,0.2,0.59-0.36,0.22-0.52c-0.06-0.06-0.07-0.16-0.02-0.22c0.06-0.01,0.09,0,0.15,0.01c0.28,0.07,0.44,0.43,0.3,0.7
		c-0.17,0.34-0.77,0.38-1.07,0.17c-0.39-0.28-0.42-0.91-0.14-1.28c0.48-0.81,1.64-0.41,2.23,0.16c0.36,0.38,0.48,0.97,0.35,1.49
		c-1,2.59-4.22,0.49-4.44-1.59c0-0.02,0-0.04,0-0.06c0.08-0.24,0.15-0.48,0.2-0.71c0.66-1.12,1.93-2.45,1.26-3.83
		c-0.25-0.44-0.79-0.36-1.11-0.05c0.11-2.73-1.92-1.68-1.36,0.55C9.99,5.36,9.3,5.46,9.21,6c-0.31,1.39,0.92,2.52,1.53,3.65
		c0,0.01,0,0.02,0,0.03c-0.24,1.63-2.83,4.19-4.03,2.03c-0.7-1.4,0.66-3.45,2.21-2.22c0.38,0.52,0.23,1.6-0.41,1.89
		c-0.32,0.14-0.87,0.12-0.93-0.31c-0.03-0.32,0.19-0.82,0.55-0.83c0.01,0.01,0.01,0.01,0.02,0.02c0.08,0.17,0.02,0.37,0.02,0.56
		c0,0.32,0.55,0.32,0.55-0.02c0-0.38,0.08-0.81-0.31-1.03C8.14,9.64,7.84,9.67,7.6,9.84c-0.47,0.34-0.75,1.13-0.46,1.66
		c0.06,0.11,0.14,0.2,0.24,0.27c1.62,1.07,3.06-1.5,1.9-2.71C8.91,8.69,8.19,8.5,7.68,8.58C7.22,8.64,6.82,8.93,6.54,9.3
		c-0.59,0.78-0.74,1.96-0.25,2.82c0.47,0.82,1.39,1.14,2.26,0.87c0.88-0.27,1.58-0.92,2.07-1.69c0.12-0.2,0.24-0.4,0.34-0.61
		c0.46,1.29,1.65,2.35,3,2.56c0.43,0.05,0.83-0.04,1.18-0.23c-0.11,0.18-0.21,0.33-0.28,0.41c-0.63,0.6-1.42,3.37,0.18,2.92
		c-0.02,0.73-0.08,1.96,0.84,2.13c1.22,0.03,1.14-1.48,1.06-2.35c1.19,0.74,1.47-0.82,1.03-1.64c-0.23-0.52-0.59-0.95-0.95-1.38
		c0.22,0.11,0.47,0.18,0.75,0.19c1.53,0.01,2.51-1.19,3.02-2.52c0.21,1.27,0.78,2.5,2.14,2.8c0.53,0.09,1.07-0.03,1.55-0.27
		c-0.6,0.97-1.09,2.01-0.75,3.11c0.21,0.39,0.75,0.47,1.08,0.17c0.01,0.6-0.11,1.35,0.4,1.79c1.35,0.86,1.68-1.19,1.54-2.14
		c0.49,0.34,1.25-0.02,1.26-0.62c0.07-0.86-0.35-1.55-0.84-2.21c0.08,0.03,0.15,0.05,0.23,0.07c1.74,0.05,2.69-1.44,3.25-2.95
		c0.45,1.13,1.2,2.19,2.35,2.61c0.72,0.27,1.36,0.15,1.85-0.2c-0.16,0.45-0.3,0.91-0.42,1.06c-0.27,0.65-0.58,1.42-0.28,2.11
		c0.18,0.38,0.7,0.33,0.89-0.01c0.02,0.73-0.13,1.76,0.65,2.15c1.12,0.33,1.14-1.21,1.13-1.95c1.11,0.57,1.38-1.25,0.99-1.96
		c-0.2-0.48-0.54-0.85-0.89-1.22c0.15,0.05,0.31,0.1,0.48,0.12c1.8,0.22,2.46-1.12,2.94-2.55c0.15,0.71,0.41,1.4,0.85,1.99
		c0.81,0.94,2.06,0.93,3.03,0.36c-0.76,1.29-1.89,3.83,0.05,3.63c-0.02,0.49-0.12,1.12,0.32,1.47c1.34,1,1.99-0.4,1.8-1.63
		c0.65,0.1,0.89-0.68,0.84-1.2c-0.02-0.75-0.4-1.34-0.81-1.91c1.53,0.31,2.94-0.94,3.45-2.3c0.47,1.72,2.23,2.95,3.91,1.95
		c-0.09,0.15-0.16,0.28-0.2,0.35c-0.47,0.7-1.21,3.75,0.46,2.95c0.01,0.62-0.1,1.51,0.58,1.82c1.32,0.34,1.54-1.39,1.29-2.32
		c0.64,0.32,1.03-0.53,0.97-1.06c-0.02-0.49-0.21-0.97-0.5-1.39c0.04,0.01,0.08,0.04,0.12,0.05c1.75,0.06,2.74-1.13,3.28-2.73
		c0.25,1.32,0.83,2.62,2.22,2.69c0.58,0.04,1.1-0.18,1.52-0.55c-0.04,0.09-0.07,0.17-0.11,0.21c-0.46,0.89-1.48,3.39,0.3,3.3
		c-0.02,0.7-0.02,1.72,0.85,1.89c0.94,0.02,1.04-1.21,1-1.92c0.63,0.29,1.05-0.36,1.12-0.91c0.18-0.91-0.21-1.74-0.74-2.48
		c0.25,0.09,0.53,0.15,0.85,0.16c1.56,0.16,2.45-0.96,2.83-2.27c0.25,0.8,0.68,1.53,1.41,1.97c0.77,0.46,1.62,0.39,2.3,0
		c-0.7,1.27-1.63,3.45,0.09,3.1c-0.14,0.9-0.12,2.27,1.06,2.35c1.05-0.02,0.99-1.4,0.84-2.15c0.55,0.29,1.11-0.19,1.22-0.73
		c0.2-1.02-0.4-1.88-1.06-2.65c1.79,0.64,3.13-0.9,3.74-2.53c0.24,1.34,0.86,2.72,2.25,2.86c0.63,0.05,1.22-0.18,1.71-0.56
		c-0.58,1.06-1.11,2.31-0.57,3.23c0.22,0.25,0.61,0.15,0.76-0.12c-0.04,0.86-0.32,2.19,0.79,2.45c1.01-0.15,1.13-1.31,0.97-2.66
		c0.27,0.24,0.73,0.25,0.91-0.12c0.32-0.94-0.14-1.88-0.65-2.73c0.14,0.06,0.29,0.11,0.45,0.14c1.76,0.38,2.69-1.02,3.1-2.52
		c0.24,1.1,0.55,2.45,1.81,2.64c0.97,0.19,1.97-0.08,2.63-0.86C93.96,11.23,94.16,10.22,93.87,9.35z M89.41,7.49
		c0.15-0.72,0.14-1.61,0.69-2.17c0.07-0.04,0.16-0.14,0.24-0.07c-0.01-0.01,0.01,0.01,0.02,0.02l0,0.01
		c0.28,0.84-0.52,1.6-0.96,2.28C89.41,7.54,89.41,7.51,89.41,7.49z M88.32,7.14c-0.26-0.5-0.98-1.25-0.54-1.78
		c0.06-0.01,0.09,0.05,0.13,0.09c0.29,0.55,0.33,1.16,0.46,1.77C88.35,7.19,88.33,7.17,88.32,7.14z M79.81,7.34
		c0.1-0.6,0.2-1.34,0.68-1.75c0.02-0.01,0.03-0.01,0.05-0.02c0,0,0,0,0,0c0.27,0.75-0.33,1.56-0.77,2.18
		C79.79,7.62,79.8,7.48,79.81,7.34z M70.14,7.52c0.11-0.72,0.23-1.57,0.87-2.02c0,0,0,0,0,0c0.26,0.82-0.41,1.56-0.9,2.17
		C70.12,7.62,70.13,7.57,70.14,7.52z M68.31,6.06c0.02-0.03,0.09-0.08,0.16-0.04c0.58,0.32,0.42,1.18,0.72,1.71
		C68.7,7.35,67.88,6.73,68.31,6.06z M60.35,7.21c0.12-0.59,0.25-1.2,0.67-1.65c0,0,0,0,0,0c0,0,0,0,0,0c0,0,0,0,0,0
		c0.09,0.76-0.24,1.5-0.7,2.1C60.33,7.5,60.34,7.36,60.35,7.21z M50.85,7.2c0.07-0.59,0.01-1.45,0.57-1.79
		c0.38,0.63-0.23,1.45-0.6,2C50.83,7.34,50.84,7.27,50.85,7.2z M48.7,5.91c0.04-0.03,0.1-0.08,0.15-0.05l0-0.01
		c0.43,0.42,0.52,1.11,0.66,1.69C49.19,7.14,48.42,6.46,48.7,5.91z M41.96,5.67c0.26,0.79-0.39,1.5-0.9,2.08
		c0.01-0.01,0.01-0.01,0.02-0.02c0,0,0,0,0,0c-0.07,0.08-0.14,0.16-0.21,0.23C41.08,7.18,41.31,6.23,41.96,5.67z M39.27,6.04
		c0.73-0.4,0.77,1.67,0.88,2.15c0,0,0,0,0,0C39.79,7.6,38.9,6.78,39.27,6.04z M31.86,5.59C31.85,5.59,31.86,5.59,31.86,5.59
		c0.01-0.01,0.02-0.02,0.03-0.03c0,0,0,0,0,0c0.09,0.62-0.25,1.22-0.53,1.78C31.39,6.73,31.52,6.11,31.86,5.59z M22.12,5.7
		C22.12,5.7,22.12,5.7,22.12,5.7C22.12,5.7,22.12,5.7,22.12,5.7L22.12,5.7z M21.79,5.93c0.07-0.1,0.21-0.2,0.33-0.23c0,0,0,0,0,0
		c0,0,0,0,0,0c0.07,0.12,0.1,0.22,0.1,0.37c-0.08,0.77-0.52,1.5-0.94,2.15C21.39,7.47,21.48,6.63,21.79,5.93z M19.59,6.7
		c-0.02-0.14-0.02-0.39,0.12-0.48c0.09-0.07,0.26-0.04,0.35,0.03c0.3,0.44,0.3,1.66,0.54,2.32C20.19,8,19.78,7.41,19.59,6.7z
		 M11.49,7.5c0.03-0.71-0.04-1.63,0.75-1.97c0.03,0.01,0.05,0.06,0.08,0.07c0.33,0.93-0.37,1.81-0.85,2.58
		C11.48,7.96,11.48,7.73,11.49,7.5z M9.77,6.06c0.59,0.61,0.87,1.55,0.87,2.4C10.23,7.76,9.48,6.94,9.77,6.06z M10.93,6.47
		c-0.03-0.18-0.05-0.37-0.07-0.55c-0.03-0.54-0.25-1.3,0.1-1.73C11.25,4.84,11.13,5.76,10.93,6.47z M15.58,9.4
		c-0.07-0.13-0.08-0.31-0.03-0.45c0.05-0.15,0.14-0.28,0.28-0.37c0.11-0.07,0.25-0.11,0.37-0.07c0.09,0.03,0.15,0.1,0.19,0.19
		s0.05,0.18,0.04,0.27c-0.01,0.18-0.1,0.36-0.24,0.48C16.11,9.52,16,9.58,15.89,9.59C15.74,9.6,15.64,9.52,15.58,9.4z M14.74,15.86
		C14.74,15.86,14.74,15.86,14.74,15.86c-0.32-0.77,0.2-1.64,0.65-2.26C15.16,14.34,15.34,15.32,14.74,15.86z M16.33,17.6
		c-0.02,0.1-0.07,0.18-0.16,0.24c-0.04,0.03-0.12,0.05-0.18,0.06c-0.14,0.04-0.21-0.07-0.27-0.19c-0.4-1.21,0.03-2.56,0.22-3.79
		C16.21,15.13,16.61,16.36,16.33,17.6z M17.55,15.74c-0.03,0.01-0.06,0.01-0.08,0.01c-0.95-0.3-0.65-1.62-0.97-2.39
		C17.06,13.98,17.82,14.84,17.55,15.74z M20.9,6.68C20.6,5.92,20.5,5,20.93,4.27C21.3,4.99,21.17,5.93,20.9,6.68z M25.4,9.14
		c-0.06-0.16,0.08-0.41,0.24-0.48c0.11-0.05,0.25,0,0.33,0.09c0.1,0.12,0.08,0.28,0.02,0.41c-0.03,0.07-0.08,0.13-0.13,0.19
		c-0.03,0.04-0.08,0.14-0.14,0.15c-0.08,0.02-0.11-0.08-0.16-0.13C25.49,9.3,25.43,9.23,25.4,9.14z M24.52,16.04
		c-0.04,0.07-0.08,0.14-0.16,0.16c0,0-0.03,0.01-0.05,0.01l0.01,0c-0.1,0.01-0.14-0.1-0.17-0.18c-0.08-1.03,0.51-2.06,1.08-2.93
		C24.99,14.09,24.91,15.11,24.52,16.04z M25.97,17.89c-0.06,0.06-0.15,0.13-0.25,0.12c-0.15-0.02-0.23-0.11-0.3-0.25
		c-0.26-1.44,0.06-2.96,0.33-4.39C26.05,14.83,26.51,16.47,25.97,17.89z M27.38,15.73c-0.02,0.02-0.11,0.06-0.17,0.07
		c-0.05,0.01-0.1,0-0.15-0.03c-0.55-0.68-0.52-1.8-0.8-2.66C26.77,13.88,27.72,14.74,27.38,15.73z M30.37,8.46
		c-0.11-0.2-0.22-0.4-0.33-0.59c-0.29-0.61-0.87-1.23-0.72-1.94c0.12,0.01,0.25,0.08,0.34,0.19c0.46,0.69,0.51,1.67,0.79,2.47
		C30.42,8.55,30.39,8.51,30.37,8.46z M30.81,7.27c-0.02-0.12-0.04-0.24-0.07-0.36c-0.15-0.86-0.46-1.78-0.11-2.63
		C31.02,5.19,30.8,6.28,30.81,7.27z M34.6,15.74C34.6,15.75,34.6,15.75,34.6,15.74c-0.12-0.61,0.2-1.26,0.45-1.82
		C34.93,14.53,34.91,15.19,34.6,15.74z M35.53,8.81c0.02-0.05,0.04-0.1,0.08-0.13c0.05-0.05,0.11-0.05,0.15-0.03
		C35.9,8.71,35.99,9,35.95,9.12c-0.04,0.15-0.25,0.22-0.38,0.14C35.44,9.17,35.49,8.93,35.53,8.81z M35.97,17.74
		C35.97,17.73,35.97,17.73,35.97,17.74C35.97,17.74,35.97,17.73,35.97,17.74C35.97,17.73,35.97,17.74,35.97,17.74z M36.02,17.72
		C36.03,17.72,36.03,17.72,36.02,17.72c0,0,0.01,0,0.01,0C36.03,17.72,36.03,17.72,36.02,17.72z M36,17.72
		c-0.01,0-0.02,0.01-0.02,0.01c-0.18,0.01-0.26-0.17-0.31-0.32c-0.21-1.17-0.03-2.48,0.07-3.64C36.07,15,36.63,16.58,36,17.72z
		 M37.41,15.26c-0.03,0.19-0.03,0.49-0.24,0.59c-0.01,0-0.01,0-0.02,0c-0.57-0.75-0.78-1.8-0.98-2.73
		C36.7,13.77,37.51,14.34,37.41,15.26z M40.49,4.11c0.01,0,0.07,0.02,0.05,0.02c0.4,0.68,0.13,1.68-0.01,2.45
		C40.42,5.8,40.09,4.85,40.49,4.11z M45.64,8.5C45.64,8.5,45.64,8.5,45.64,8.5C45.64,8.5,45.64,8.5,45.64,8.5
		C45.64,8.5,45.64,8.5,45.64,8.5z M45.15,8.57c0.02-0.04,0.04-0.08,0.08-0.11c0.05-0.04,0.12-0.07,0.19-0.07
		c0.13-0.01,0.25,0.09,0.24,0.23c-0.01,0.12-0.09,0.3-0.24,0.29C45.25,8.9,45.08,8.76,45.15,8.57z M45.17,8.8
		C45.17,8.8,45.17,8.8,45.17,8.8C45.17,8.8,45.17,8.8,45.17,8.8C45.17,8.8,45.17,8.8,45.17,8.8z M43.99,16.17
		c-0.09-0.01-0.17-0.08-0.2-0.18c-0.14-1.02,0.52-1.98,1-2.85C44.47,14.11,44.72,15.43,43.99,16.17z M45.69,17.79
		c-0.07,0.09-0.21,0.11-0.32,0.11c-0.2-0.04-0.47-0.14-0.55-0.36c-0.19-1.29,0.45-2.53,0.49-3.82
		C45.45,15.05,46.15,16.48,45.69,17.79z M46.49,15.95c-0.07,0-0.12-0.02-0.16-0.07l0,0c-0.08-0.74-0.21-1.46-0.35-2.19
		C46.36,14.25,46.99,15.34,46.49,15.95z M50.06,7.38c-0.12-1.08-0.81-2.68,0.07-3.53c0.29,1.18,0.26,2.5-0.03,3.7
		C50.08,7.49,50.07,7.43,50.06,7.38z M54.89,8.36c0.04-0.02,0.09-0.02,0.13-0.03c0.05,0,0.1,0.01,0.15,0.02
		c0.34,0.09,0.21,0.5-0.02,0.64c-0.13,0.08-0.34,0.13-0.46,0C54.55,8.82,54.69,8.44,54.89,8.36z M54.89,11.84
		C54.89,11.84,54.89,11.83,54.89,11.84C54.89,11.83,54.89,11.83,54.89,11.84C54.89,11.83,54.89,11.83,54.89,11.84z M53.62,15.95
		c-0.31-0.97,0.28-2.1,0.79-2.92C54.07,13.98,54.09,15.09,53.62,15.95z M55.3,17.33c-0.06,0.12-0.17,0.24-0.3,0.3
		c-0.02,0-0.06,0.02-0.1,0.02c-0.12,0.02-0.21-0.06-0.26-0.18c-0.24-1.21-0.02-2.57,0.18-3.78C55.09,14.87,55.63,16.13,55.3,17.33z
		 M56.29,14.94c-0.02,0.12-0.02,0.31-0.14,0.4c0,0,0,0,0,0c0,0,0,0,0,0c0,0,0,0,0,0c0,0,0,0,0,0c-0.59-0.64-0.68-1.55-0.91-2.36
		C55.78,13.49,56.37,14.13,56.29,14.94z M59.35,8.05c-0.47-0.52-1.01-1.42-0.6-2.16c0.02,0,0.03,0.01,0.05,0.01
		c0.42,0.64,0.52,1.58,0.72,2.35C59.46,8.18,59.41,8.12,59.35,8.05z M59.81,6.76c-0.09-0.77-0.55-1.95-0.1-2.61c0,0,0,0,0,0
		c0.01,0,0.01,0.01,0.02,0.01c-0.02-0.02,0.01,0.01,0.02,0.03c0,0,0,0,0,0c0,0,0,0,0,0C59.95,4.98,59.78,5.91,59.81,6.76z
		 M63.46,15.83c-0.1-0.05-0.16-0.14-0.2-0.25c-0.15-0.9,0.42-1.71,0.73-2.53C63.79,13.97,63.85,15,63.46,15.83z M64.17,9.03
		c-0.08-0.19,0.07-0.48,0.24-0.57c0.13-0.07,0.29-0.02,0.37,0.1c0.11,0.18,0.05,0.45-0.09,0.6c-0.13,0.13-0.38,0.07-0.48-0.06
		C64.19,9.07,64.18,9.05,64.17,9.03z M64.95,17.22c-0.07,0.15-0.13,0.43-0.32,0.48c-0.01,0-0.03-0.01-0.02,0
		c-0.14-0.05-0.25-0.17-0.29-0.32c-0.23-1.39,0.2-2.86,0.24-4.28C64.64,14.48,65.13,15.86,64.95,17.22z M65.89,15.84
		c-0.11-0.01-0.21-0.04-0.28-0.13c-0.31-0.95-0.42-1.98-0.53-2.98C65.75,13.56,66.64,14.85,65.89,15.84z M69.59,6.9
		c-0.28-0.89-0.64-2.16,0.09-2.93C69.98,4.88,69.76,5.97,69.59,6.9z M74.2,8.46c0.1-0.22,0.35-0.23,0.44-0.02
		c0.04,0.1,0.04,0.22,0.02,0.32C74.55,9.16,73.99,8.84,74.2,8.46z M73.07,15.43c-0.02-0.01-0.03,0-0.04-0.03
		c-0.1-0.9,0.43-1.72,0.86-2.49C73.65,13.72,73.82,14.95,73.07,15.43z M74.75,17.46c-0.04,0.11-0.12,0.23-0.25,0.22
		c-1.23-0.16-0.24-3.1-0.18-3.98C74.43,14.93,75.04,16.25,74.75,17.46z M75.87,15.51c-0.05,0.06-0.13,0.12-0.22,0.12
		c-0.75-0.53-0.67-1.98-0.87-2.86C75.39,13.52,76.42,14.52,75.87,15.51z M78.72,7.67c-0.45-0.42-1.18-0.9-0.95-1.61
		c0.03-0.06,0.08-0.13,0.13-0.18c0.11-0.1,0.25-0.07,0.34,0.04c0.38,0.58,0.61,1.34,0.76,2.03C78.91,7.85,78.82,7.76,78.72,7.67z
		 M79.3,6.66c-0.03-0.09-0.07-0.17-0.12-0.26c-0.37-0.64-0.42-1.87-0.03-2.45c0.01,0,0.01,0,0.02-0.01c0,0,0,0,0,0
		C79.84,4.64,79.24,5.79,79.3,6.66z M82.94,15.24c-0.11-0.83,0.31-1.68,0.69-2.43C83.46,13.63,83.44,14.52,82.94,15.24z M83.99,8.23
		c0.04-0.03,0.1-0.04,0.16-0.01c0.21,0.09,0.32,0.43,0.07,0.55C83.9,8.93,83.75,8.41,83.99,8.23z M84.31,9.78
		c0,0.01,0,0.01-0.01,0.02c0-0.01,0-0.01,0-0.02C84.3,9.78,84.3,9.79,84.31,9.78z M84.51,17.16c-0.03,0.12-0.12,0.3-0.23,0.33
		c0,0-0.03,0.01-0.05,0.01c-0.13-0.05-0.26-0.16-0.31-0.29c-0.13-1.31,0.04-2.77,0.25-4.09C84.4,14.45,84.77,15.81,84.51,17.16z
		 M85.55,15c0,0.01,0,0.01-0.01,0.02c0,0-0.01,0.01-0.01,0.01c-0.55-0.62-0.62-1.59-0.71-2.39C85.19,13.32,85.74,14.19,85.55,15z
		 M88.87,6.65c-0.03-0.12-0.05-0.24-0.07-0.36c-0.14-0.92-0.28-1.87-0.03-2.79c0.03-0.05,0.07-0.17,0.14-0.23c0,0,0,0,0,0
		C89.32,4.32,88.95,5.54,88.87,6.65z"/>
	<path d="M88.68,12.09C88.67,12.1,88.67,12.1,88.68,12.09c-0.02,0-0.04,0.01-0.06,0.01c-0.03,0.01-0.06,0.02-0.1,0.04
		c-0.03,0.01-0.08,0.04-0.12,0.07c-0.18,0.14-0.3,0.34-0.33,0.57c-0.03,0.23,0.01,0.49,0.16,0.68c0.14,0.17,0.34,0.29,0.56,0.29
		c0.05,0,0.1-0.01,0.14-0.02c0.2-0.05,0.38-0.18,0.48-0.36c0.11-0.2,0.15-0.41,0.12-0.64c-0.03-0.18-0.12-0.36-0.26-0.49
		C89.12,12.12,88.88,12.04,88.68,12.09z M89,12.9c0,0.01,0,0.02,0,0.04c0,0.02,0,0.03-0.01,0.05c-0.01,0.02-0.02,0.05-0.02,0.07
		l-0.01,0.01c-0.01,0.02-0.02,0.03-0.03,0.05c0,0.01-0.01,0.01-0.01,0.02c-0.01,0.01-0.02,0.01-0.02,0.02c0,0,0,0,0.01,0
		c0,0,0,0,0,0c0,0,0,0,0,0c0,0,0,0,0.01,0c-0.01,0.01-0.02,0.01-0.02,0.02c0,0,0,0-0.01,0.01c0,0,0,0,0,0c0,0,0,0,0,0
		c0,0-0.01,0-0.01,0.01c-0.01,0-0.02,0.01-0.02,0.01c0,0,0,0,0,0c0,0,0,0,0,0c0,0,0,0,0,0c0,0,0,0,0,0c-0.01,0-0.01,0-0.02,0
		c0,0,0,0,0.01,0c-0.01,0-0.01,0-0.02,0c-0.01,0-0.02,0-0.04,0c-0.01,0-0.02-0.01-0.03-0.01l0,0c0,0,0,0,0,0c0,0,0,0,0,0
		c0,0,0,0,0,0c0,0,0,0,0,0c-0.01,0-0.01-0.01-0.02-0.01c0.01,0,0-0.01-0.01-0.01c-0.01-0.01-0.02-0.01-0.02-0.02c0,0,0,0,0.01,0.01
		c0.01,0,0.01,0.01,0.02,0.01c0,0,0,0,0,0c0,0-0.01-0.01-0.01-0.01c0,0,0,0,0,0c0,0,0,0,0,0c0,0,0,0-0.01-0.01c0,0,0,0,0,0
		c-0.01-0.01-0.01-0.01-0.02-0.02c0,0-0.01-0.01-0.01-0.02c-0.01-0.01-0.01-0.02-0.02-0.03c-0.01-0.02-0.01-0.03-0.02-0.05l0-0.05
		c0,0,0-0.02,0-0.03c0-0.01,0-0.03,0-0.04c0,0,0,0,0,0c0-0.02,0.01-0.04,0.01-0.06l0,0c0,0,0-0.01,0-0.01c0,0,0.01-0.02,0.01-0.03
		c0-0.01,0.01-0.02,0.01-0.03c0.01-0.01,0.02-0.03,0.03-0.04l0,0c0,0,0.01-0.01,0.01-0.01c0,0,0.01-0.01,0.03-0.03
		c0.01-0.01,0.02-0.02,0.03-0.02c0.01-0.01,0.02-0.01,0.03-0.02c0,0,0.01,0,0.01-0.01c0.01,0,0.01,0,0.02,0c0,0,0.01,0,0.01,0
		c0,0,0.01,0,0.01,0c0,0,0.01,0,0.01,0c0.01,0,0.02,0,0.02,0c0.01,0,0.01,0.01,0.02,0.01c0,0,0.01,0,0.01,0c0,0,0.01,0,0.01,0.01
		c0,0,0,0,0,0c0,0,0.01,0,0.01,0.01c0,0,0,0,0,0c0.01,0.01,0.02,0.01,0.02,0.02l0.01,0.02c0.01,0.01,0.01,0.02,0.02,0.03
		c0.01,0.01,0.02,0.03,0.02,0.04l0.01,0.03c0,0.01,0.01,0.03,0.01,0.04l0,0c0,0.01,0,0.01,0,0.02C89,12.87,89,12.88,89,12.9z"/>
</g>
</svg>
