<?xml version="1.0" encoding="utf-8"?>
<!-- Generator: Adobe Illustrator 23.0.0, SVG Export Plug-In . SVG Version: 6.00 Build 0)  -->
<svg version="1.1" id="Слой_1" xmlns="http://www.w3.org/2000/svg" xmlns:xlink="http://www.w3.org/1999/xlink" x="0px" y="0px"
	 viewBox="0 0 100 21.28" style="enable-background:new 0 0 100 21.28;" xml:space="preserve">
<g>
	<path d="M7.15,10.96c-0.14-0.05-0.3-0.06-0.43-0.02c-0.49,0.15-0.5,0.82-0.19,1.15c0.17,0.18,0.42,0.24,0.66,0.18
		c0.26-0.07,0.46-0.33,0.49-0.59C7.73,11.35,7.46,11.07,7.15,10.96z M7.19,11.77c-0.04,0.09-0.1,0.11-0.16,0.1
		c-0.12-0.02-0.25-0.22-0.26-0.33c-0.01-0.13,0.11-0.18,0.22-0.16C7.17,11.41,7.27,11.6,7.19,11.77z"/>
	<path d="M9.12,10.98c-0.14-0.05-0.3-0.06-0.43-0.02c-0.49,0.15-0.5,0.82-0.19,1.15c0.17,0.18,0.42,0.24,0.66,0.18
		c0.26-0.07,0.46-0.33,0.49-0.59C9.7,11.37,9.43,11.08,9.12,10.98z M9.15,11.78c-0.04,0.09-0.1,0.11-0.16,0.1
		c-0.12-0.02-0.25-0.22-0.26-0.33c-0.01-0.13,0.11-0.18,0.22-0.16C9.14,11.42,9.24,11.61,9.15,11.78z"/>
	<path d="M10.97,12.28c0.26-0.07,0.46-0.33,0.49-0.59c0.04-0.32-0.22-0.61-0.53-0.71c-0.14-0.05-0.3-0.06-0.43-0.02
		c-0.49,0.15-0.5,0.82-0.19,1.15C10.48,12.29,10.73,12.35,10.97,12.28z M10.77,11.39c0.18,0.03,0.28,0.22,0.19,0.39
		c-0.04,0.09-0.1,0.11-0.16,0.1c-0.12-0.02-0.25-0.22-0.26-0.33C10.53,11.42,10.66,11.37,10.77,11.39z"/>
	<path d="M13.59,9.85c0.26-0.07,0.46-0.33,0.49-0.59c0.04-0.32-0.22-0.61-0.53-0.71c-0.14-0.05-0.3-0.06-0.43-0.02
		c-0.49,0.15-0.5,0.82-0.19,1.15C13.1,9.85,13.35,9.91,13.59,9.85z M13.39,8.96c0.18,0.03,0.28,0.22,0.19,0.39
		c-0.04,0.09-0.1,0.11-0.16,0.1c-0.12-0.02-0.25-0.22-0.26-0.33C13.16,8.98,13.28,8.94,13.39,8.96z"/>
	<path d="M11.42,9.62c0.26-0.07,0.46-0.33,0.49-0.59c0.04-0.32-0.22-0.61-0.53-0.71c-0.14-0.05-0.3-0.06-0.43-0.02
		c-0.49,0.15-0.5,0.82-0.19,1.15C10.92,9.62,11.17,9.68,11.42,9.62z M11.21,8.72c0.18,0.03,0.28,0.22,0.19,0.39
		c-0.04,0.09-0.1,0.11-0.16,0.1C11.13,9.19,11,9,10.99,8.88C10.98,8.75,11.1,8.7,11.21,8.72z"/>
	<path d="M15.87,9.04c-0.3-0.7-1.59-0.39-1.07,0.4C15.11,9.96,16.1,9.68,15.87,9.04z M15.45,9.21c-0.02,0.03-0.05,0.04-0.08,0.05
		c0.01,0-0.01,0-0.02,0.01c0,0,0.01,0,0.01,0C15.28,9.29,15.1,9.2,15.14,9.1C15.2,8.98,15.45,8.98,15.45,9.21z"/>
	<path d="M23.31,9.73c0.2,0.03,0.39-0.01,0.54-0.15c0.48-0.46-0.03-1.19-0.63-1.02C22.63,8.72,22.71,9.65,23.31,9.73z M23.31,9
		C23.31,9,23.31,9,23.31,9C23.31,9,23.31,9,23.31,9C23.31,9,23.31,9,23.31,9z M23.31,9c0.26-0.21,0.34,0.47,0.01,0.26
		C23.24,9.2,23.23,9.07,23.31,9z"/>
	<path d="M26.94,9.73c0.2,0.03,0.39-0.01,0.54-0.15c0.48-0.46-0.03-1.19-0.63-1.02C26.26,8.72,26.34,9.65,26.94,9.73z M26.94,9
		C26.94,9,26.94,9,26.94,9C26.95,9,26.94,9,26.94,9C26.94,9,26.94,9,26.94,9z M26.95,9c0.26-0.21,0.34,0.47,0.01,0.26
		C26.87,9.2,26.86,9.07,26.95,9z"/>
	<path d="M25.14,9.73c0.2,0.03,0.39-0.01,0.54-0.15c0.48-0.46-0.03-1.19-0.63-1.02C24.46,8.72,24.54,9.65,25.14,9.73z M25.08,8.9
		c0.46-0.37,0.59,0.84,0.02,0.45C24.95,9.26,24.93,9.03,25.08,8.9z"/>
	<polygon points="25.14,9 25.14,9 25.14,9 	"/>
	<path d="M18.97,11.09c-0.74,0.21-0.64,1.37,0.11,1.47c0.25,0.03,0.49-0.01,0.68-0.19C20.37,11.79,19.73,10.88,18.97,11.09z
		 M19.04,12.1c-0.19-0.13-0.22-0.42-0.03-0.57C19.59,11.06,19.76,12.58,19.04,12.1z"/>
	<polygon points="19.09,11.65 19.09,11.65 19.09,11.65 	"/>
	<polygon points="21.22,11.66 21.22,11.66 21.22,11.66 	"/>
	<path d="M21.1,11.1c-0.74,0.21-0.64,1.37,0.11,1.47c0.25,0.03,0.49-0.01,0.68-0.19C22.5,11.8,21.86,10.89,21.1,11.1z M21.17,12.11
		c-0.19-0.13-0.22-0.42-0.03-0.57C21.72,11.07,21.89,12.59,21.17,12.11z"/>
	<polygon points="23.35,11.67 23.35,11.67 23.35,11.67 	"/>
	<path d="M24.03,12.39c0.61-0.58-0.04-1.49-0.8-1.28c-0.74,0.21-0.64,1.37,0.11,1.47C23.6,12.62,23.84,12.57,24.03,12.39z
		 M23.27,11.55c0.58-0.47,0.75,1.05,0.03,0.57C23.11,11.99,23.08,11.7,23.27,11.55z"/>
	<path d="M30.25,11.16c-0.7,0.33-0.26,1.41,0.44,1.39C32.14,12.42,31.42,10.79,30.25,11.16z M31.02,11.9
		c-0.24,0.44-0.92-0.08-0.64-0.29C30.55,11.48,31.17,11.63,31.02,11.9z"/>
	<path d="M32.39,12.14c0.56,0.59,1.62-0.26,1.08-0.91C32.78,10.5,31.63,11.32,32.39,12.14z M32.88,11.88
		c-0.04,0.01-0.1-0.02-0.13-0.03c-0.28-0.25-0.14-0.55,0.23-0.42c0.08,0.02,0.16,0.1,0.19,0.2C33.17,11.77,33.01,11.88,32.88,11.88z
		"/>
	<path d="M35.16,10.87c-0.86-0.18-1.32,1.01-0.45,1.36C35.88,12.71,36.44,11.14,35.16,10.87z M34.73,11.72
		c-0.11-0.14-0.02-0.31,0.13-0.37c0.16-0.06,0.37-0.01,0.5,0.12c0.15,0.15,0.05,0.32-0.12,0.37C35.09,11.89,34.84,11.86,34.73,11.72
		z"/>
	<polygon points="43.84,11.63 43.84,11.63 43.84,11.63 43.84,11.63 43.85,11.63 43.84,11.63 43.84,11.63 43.84,11.63 43.84,11.63 
		43.84,11.64 43.84,11.64 43.84,11.64 43.84,11.63 43.85,11.63 43.84,11.63 	"/>
	<path d="M44.07,11.04c-0.82-0.54-1.29,0.75-0.44,1.04C44.23,12.31,44.59,11.3,44.07,11.04z M43.9,11.73
		c-0.01,0.01-0.02,0.01-0.03,0.02c-0.08,0.03-0.18-0.03-0.24-0.08c-0.08-0.07-0.12-0.2-0.1-0.3c0.01-0.11,0.12-0.12,0.21-0.09
		C43.93,11.34,44.01,11.58,43.9,11.73z"/>
	<path d="M38.08,9.58c0.61,0.23,0.96-0.77,0.44-1.04C37.7,8,37.24,9.29,38.08,9.58z M38.2,8.78c0.18,0.06,0.27,0.3,0.16,0.46
		c-0.01,0.01-0.02,0.01-0.03,0.02c-0.08,0.03-0.18-0.03-0.24-0.08c-0.08-0.07-0.12-0.2-0.1-0.3C38,8.77,38.11,8.75,38.2,8.78z"/>
	<polygon points="38.3,9.14 38.31,9.13 38.3,9.14 38.3,9.13 38.3,9.14 38.3,9.14 38.3,9.13 38.31,9.13 38.3,9.13 38.3,9.13 
		38.3,9.13 38.3,9.14 38.3,9.14 38.3,9.14 38.3,9.14 	"/>
	<polygon points="40.02,9.14 40.03,9.13 40.02,9.14 40.03,9.13 40.02,9.14 40.02,9.14 40.03,9.13 40.03,9.13 40.02,9.13 40.03,9.13 
		40.03,9.13 40.02,9.14 40.02,9.14 40.02,9.14 40.02,9.14 	"/>
	<path d="M39.8,9.58c0.61,0.23,0.96-0.77,0.44-1.04C39.42,8,38.96,9.29,39.8,9.58z M39.92,8.78c0.18,0.06,0.27,0.3,0.16,0.46
		c-0.01,0.01-0.02,0.01-0.03,0.02c-0.08,0.03-0.18-0.03-0.24-0.08c-0.08-0.07-0.12-0.2-0.1-0.3C39.73,8.77,39.83,8.75,39.92,8.78z"
		/>
	<polygon points="36.63,9.14 36.64,9.13 36.63,9.14 36.63,9.13 36.63,9.14 36.63,9.14 36.63,9.13 36.63,9.13 36.63,9.13 36.63,9.13 
		36.63,9.13 36.63,9.14 36.63,9.14 36.63,9.14 36.63,9.14 	"/>
	<path d="M36.41,9.58c0.61,0.23,0.96-0.77,0.44-1.04C36.03,8,35.57,9.29,36.41,9.58z M36.53,8.78c0.18,0.06,0.27,0.3,0.16,0.46
		c-0.01,0.01-0.02,0.01-0.03,0.02c-0.08,0.03-0.18-0.03-0.24-0.08c-0.08-0.07-0.12-0.2-0.1-0.3C36.33,8.77,36.44,8.75,36.53,8.78z"
		/>
	<path d="M45.63,10.93c-0.82-0.54-1.29,0.75-0.44,1.04C45.79,12.21,46.14,11.2,45.63,10.93z M45.46,11.63
		c-0.01,0.01-0.02,0.01-0.03,0.02c-0.08,0.03-0.18-0.03-0.24-0.08c-0.08-0.07-0.12-0.2-0.1-0.3c0.01-0.11,0.12-0.12,0.21-0.09
		C45.48,11.23,45.57,11.47,45.46,11.63z"/>
	<polygon points="45.4,11.53 45.4,11.53 45.4,11.53 45.4,11.53 45.4,11.53 45.4,11.53 45.4,11.53 45.4,11.53 45.4,11.53 45.4,11.53 
		45.4,11.53 45.4,11.53 45.4,11.53 45.41,11.53 45.4,11.53 	"/>
	<path d="M46.93,11.95c1.01,0.05,0.65-1.46-0.25-1.15C46.13,11.05,46.37,11.91,46.93,11.95z M46.85,11.23
		c0.19-0.06,0.33,0.27,0.18,0.28C46.89,11.51,46.75,11.36,46.85,11.23z"/>
	<path d="M52.08,7.93c-0.86-0.66-1.66,0.76-0.56,1.04C52.06,9.1,52.59,8.28,52.08,7.93z M51.46,8.28c0.1-0.08,0.24-0.07,0.34,0
		c0.05,0.11-0.02,0.22-0.14,0.24C51.54,8.55,51.36,8.41,51.46,8.28z"/>
	<path d="M61.11,8.71c0.03-0.1,0.04-0.19,0.03-0.28c-0.05-0.36-0.46-0.61-0.84-0.47c-0.36,0.13-0.46,0.5-0.32,0.84
		C60.2,9.34,60.94,9.23,61.11,8.71z M60.39,8.41C60.39,8.41,60.39,8.41,60.39,8.41C60.39,8.4,60.39,8.4,60.39,8.41
		C60.39,8.41,60.39,8.41,60.39,8.41z M60.39,8.4c0.07-0.12,0.25-0.03,0.29,0.07c0.04,0.11-0.04,0.27-0.17,0.24
		C60.38,8.7,60.33,8.51,60.39,8.4z"/>
	<path d="M54.68,10.9c-0.36,0.13-0.46,0.5-0.32,0.84c0.22,0.54,0.96,0.43,1.13-0.08c0.03-0.1,0.04-0.19,0.03-0.28
		C55.46,11,55.06,10.76,54.68,10.9z M54.77,11.34C54.77,11.34,54.77,11.34,54.77,11.34C54.77,11.34,54.77,11.34,54.77,11.34
		C54.76,11.34,54.77,11.34,54.77,11.34z M54.89,11.66c-0.13-0.02-0.18-0.21-0.12-0.31c0.07-0.12,0.25-0.03,0.29,0.07
		C55.09,11.52,55.02,11.68,54.89,11.66z"/>
	<path d="M50.36,8.91c0.03-0.1,0.04-0.19,0.03-0.28c-0.05-0.36-0.46-0.61-0.84-0.47c-0.36,0.13-0.46,0.5-0.32,0.84
		C49.44,9.54,50.18,9.43,50.36,8.91z M49.64,8.61C49.64,8.61,49.64,8.61,49.64,8.61C49.64,8.6,49.64,8.61,49.64,8.61
		C49.63,8.61,49.64,8.61,49.64,8.61z M49.64,8.61c0.07-0.12,0.25-0.03,0.29,0.07c0.04,0.11-0.04,0.27-0.17,0.24
		C49.62,8.9,49.58,8.71,49.64,8.61z"/>
	<path d="M48.73,8.91c0.03-0.1,0.04-0.19,0.03-0.28c-0.05-0.36-0.46-0.61-0.84-0.47C47.56,8.29,47.46,8.66,47.6,9
		C47.82,9.54,48.56,9.43,48.73,8.91z M48.02,8.61C48.02,8.61,48.02,8.61,48.02,8.61C48.02,8.6,48.01,8.61,48.02,8.61
		C48.01,8.61,48.01,8.61,48.02,8.61z M48.02,8.61c0.07-0.12,0.25-0.03,0.29,0.07c0.04,0.11-0.04,0.27-0.17,0.24
		C48,8.9,47.96,8.71,48.02,8.61z"/>
	<path d="M56.64,10.9c-0.36,0.13-0.46,0.5-0.32,0.84c0.22,0.54,0.96,0.43,1.13-0.08c0.03-0.1,0.04-0.19,0.03-0.28
		C57.42,11,57.02,10.76,56.64,10.9z M56.73,11.34C56.73,11.34,56.73,11.34,56.73,11.34C56.73,11.34,56.73,11.34,56.73,11.34
		C56.73,11.34,56.73,11.34,56.73,11.34z M56.85,11.66c-0.13-0.02-0.18-0.21-0.12-0.31c0.07-0.12,0.25-0.03,0.29,0.07
		C57.06,11.52,56.98,11.68,56.85,11.66z"/>
	<path d="M59.22,11.65c0.03-0.1,0.04-0.19,0.03-0.28c-0.05-0.36-0.46-0.61-0.84-0.47c-0.36,0.13-0.46,0.5-0.32,0.84
		C58.31,12.27,59.05,12.17,59.22,11.65z M58.5,11.34C58.5,11.34,58.5,11.34,58.5,11.34C58.5,11.34,58.5,11.34,58.5,11.34
		C58.5,11.34,58.5,11.34,58.5,11.34z M58.5,11.34c0.07-0.12,0.25-0.03,0.29,0.07c0.04,0.11-0.04,0.27-0.17,0.24
		C58.49,11.63,58.44,11.45,58.5,11.34z"/>
	<path d="M63.15,8.71c0.03-0.1,0.04-0.19,0.03-0.28c-0.05-0.36-0.46-0.61-0.84-0.47c-0.36,0.13-0.46,0.5-0.32,0.84
		C62.24,9.34,62.98,9.23,63.15,8.71z M62.43,8.41C62.43,8.41,62.43,8.41,62.43,8.41C62.43,8.4,62.43,8.4,62.43,8.41
		C62.43,8.41,62.43,8.41,62.43,8.41z M62.43,8.4c0.07-0.12,0.25-0.03,0.29,0.07c0.04,0.11-0.04,0.27-0.17,0.24
		C62.42,8.7,62.37,8.51,62.43,8.4z"/>
	<path d="M65.19,8.71c0.03-0.1,0.04-0.19,0.03-0.28c-0.05-0.36-0.46-0.61-0.84-0.47c-0.36,0.13-0.46,0.5-0.32,0.84
		C64.28,9.34,65.02,9.23,65.19,8.71z M64.47,8.41C64.47,8.41,64.47,8.41,64.47,8.41C64.47,8.4,64.47,8.4,64.47,8.41
		C64.47,8.41,64.47,8.41,64.47,8.41z M64.47,8.4c0.07-0.12,0.25-0.03,0.29,0.07c0.04,0.11-0.04,0.27-0.17,0.24
		C64.46,8.7,64.41,8.51,64.47,8.4z"/>
	<path d="M65.38,9.93c0,0-0.01,0-0.01,0C65.37,9.94,65.38,9.94,65.38,9.93C65.38,9.93,65.38,9.93,65.38,9.93z"/>
	<path d="M67.77,11.26c-0.03,0-0.05-0.01-0.08-0.01c-0.28-0.02-0.59,0.12-0.67,0.41c-0.07,0.25,0.01,0.52,0.19,0.7
		c0.19,0.2,0.47,0.27,0.73,0.18c0.23-0.08,0.45-0.26,0.51-0.5c0.03-0.13,0.01-0.27-0.06-0.39C68.26,11.45,68.01,11.3,67.77,11.26z
		 M67.68,12.14c-0.17-0.02-0.34-0.35-0.13-0.43c0.14-0.05,0.35,0.02,0.44,0.14C68.13,12.04,67.83,12.16,67.68,12.14z"/>
	<path d="M70.18,11.49c-0.17-0.07-0.35-0.03-0.5,0.06c-0.15,0.1-0.27,0.26-0.29,0.45c-0.03,0.23,0.08,0.43,0.24,0.58
		c0.06,0.06,0.13,0.1,0.19,0.15c0.15,0.09,0.34,0.07,0.49-0.03c0.16-0.11,0.23-0.31,0.25-0.5c0-0.03,0-0.06,0-0.1
		c-0.01-0.16-0.07-0.3-0.16-0.43C70.35,11.6,70.27,11.53,70.18,11.49z M70.17,12.25c-0.03,0.07-0.06,0.11-0.1,0.12
		c-0.12,0.03-0.27-0.17-0.28-0.31c-0.01-0.1,0.08-0.27,0.2-0.24C70.12,11.87,70.21,12.12,70.17,12.25z"/>
	<path d="M71.74,11.73c-0.69,0.08-0.69,1.15,0,1.24C72.79,13.09,72.81,11.63,71.74,11.73z M71.86,12.53
		c-0.12,0.01-0.24-0.11-0.2-0.24c0.01,0,0.01-0.02,0.02-0.03c0.08-0.14,0.31-0.07,0.4,0.02c0,0.03,0.01,0.05,0.02,0.07
		C72.09,12.47,71.98,12.52,71.86,12.53z"/>
	<path d="M73.57,9.62c0.5,0.2,1.13-0.48,0.76-0.94C73.58,7.87,72.6,9.1,73.57,9.62z M73.64,8.92c0.06-0.11,0.25-0.05,0.31,0.03
		c0.07,0.1-0.05,0.26-0.16,0.26C73.65,9.22,73.58,9.03,73.64,8.92z"/>
	<path d="M76.54,8.93c-0.34-0.71-1.57-0.44-1.22,0.41C75.65,10.1,76.87,9.78,76.54,8.93z M75.73,9.01c0.07-0.07,0.18-0.04,0.26,0
		c0.05,0.02,0.09,0.06,0.12,0.09c0.04,0.05,0.04,0.12,0.01,0.17c-0.04,0.06-0.11,0.07-0.18,0.06C75.86,9.3,75.61,9.12,75.73,9.01z"
		/>
	<path d="M78.43,8.93c-0.34-0.71-1.57-0.44-1.22,0.41C77.54,10.1,78.76,9.78,78.43,8.93z M77.62,9.01c0.07-0.07,0.18-0.04,0.26,0
		C77.93,9.03,77.97,9.06,78,9.1c0.04,0.05,0.04,0.12,0.01,0.17c-0.04,0.06-0.11,0.07-0.18,0.06C77.75,9.3,77.5,9.12,77.62,9.01z"/>
	<path d="M79.02,9.96c0.01,0,0.02,0,0.03,0c0,0,0,0,0,0C79.04,9.96,79.03,9.96,79.02,9.96z"/>
	<path d="M79.96,12.45c0.38,0.65,1.39,0.37,1.19-0.42C80.87,11.37,79.48,11.65,79.96,12.45z M80.65,12.32
		c-0.04,0.06-0.13,0.06-0.2,0.03c-0.1-0.04-0.27-0.2-0.14-0.3c0.07-0.06,0.21-0.06,0.29,0c0.06,0.05,0.08,0.14,0.07,0.22
		C80.67,12.29,80.66,12.31,80.65,12.32z"/>
	<path d="M82.81,11.4c-0.92-0.13-0.94,1.2-0.12,1.32C83.56,12.79,83.63,11.53,82.81,11.4z M82.76,12.26
		c-0.15-0.01-0.28-0.2-0.22-0.35c0,0,0,0,0,0c0,0,0,0.01-0.01,0.01c0,0,0.01-0.01,0.01-0.02c0,0,0,0,0,0c0,0,0,0,0,0l0,0
		c0.05-0.07,0.17-0.08,0.25-0.05c0.04,0.02,0.11,0.07,0.14,0.12C82.99,12.12,82.91,12.27,82.76,12.26z"/>
	<path d="M85.13,12.22c0.19-0.79-1.22-1.09-1.23-0.17C83.89,12.79,84.97,12.95,85.13,12.22z M84.35,12.04
		C84.35,12.04,84.35,12.04,84.35,12.04C84.35,12.04,84.35,12.04,84.35,12.04C84.35,12.04,84.35,12.04,84.35,12.04z M84.62,11.98
		c0.13,0.1-0.01,0.3-0.16,0.26c-0.06-0.02-0.09-0.06-0.1-0.1C84.32,12.01,84.45,11.84,84.62,11.98z"/>
	<path d="M87.21,9.79c0.76,0.11,0.96-1.06,0.17-1.15C86.48,8.49,86.31,9.66,87.21,9.79z M87.1,9.11c0.14-0.1,0.48,0.06,0.26,0.2
		c-0.09,0.06-0.31,0.01-0.3-0.13C87.06,9.15,87.08,9.13,87.1,9.11z"/>
	<path d="M89.12,9.64c0.75,0.09,0.81-1.05,0.11-1.16C88.32,8.26,88.27,9.56,89.12,9.64z M89.27,9.14c-0.05,0.08-0.18,0.04-0.24-0.01
		C89,9.11,88.96,9.07,88.96,9.02c0-0.01,0-0.02,0-0.03C88.96,8.78,89.39,8.96,89.27,9.14z"/>
	<path d="M90.7,9.62c0.33,0.1,0.86-0.15,0.9-0.52c0.04-0.38-0.53-0.82-0.88-0.67C90.18,8.6,90.13,9.46,90.7,9.62z M90.84,8.87
		c0.21-0.12,0.41,0.47-0.03,0.31C90.68,9.11,90.74,8.93,90.84,8.87z"/>
	<path d="M93.25,6.06c-1.06-0.57-3.48-0.06-2.36,1.5c0.29,0.35,0.8,0.53,1.24,0.4c0.75-0.21,0.62-1.14-0.11-1.25
		c-0.28-0.05-0.36,0.39-0.08,0.45c0.15,0.03,0.36,0.17,0.18,0.31c-0.13,0.1-0.33,0.11-0.48,0.06c-0.3-0.09-0.71-0.49-0.55-0.84
		c0.14-0.31,0.56-0.37,0.87-0.39c0.32-0.03,0.66-0.01,0.96,0.12c0.37,0.16,0.53,0.48,0.59,0.87c0.07,0.47,0.08,1.02-0.16,1.46
		c-0.23,0.43-0.65,0.71-1.1,0.89c-0.78,0.31-1.63,0.38-2.46,0.4c-0.89,0.01-1.78,0-2.68,0c-0.19,0-0.39,0-0.58,0
		c-2.04,0-4.08,0-6.12,0c-0.15,0-0.29,0-0.44,0c0.68-0.58,0.99-1.69,0.84-2.53c-0.23-1.75-3.6-1.89-2.99,0.18
		c0.21,0.61,1.1,1.06,1.62,0.57c0.19-0.18,0.31-0.73-0.08-0.72c-0.28,0.03-0.11,0.34-0.29,0.45c-0.44,0.15-0.9-0.3-0.88-0.74
		c-0.04-0.55,0.66-0.64,1.08-0.62c1.07,0.1,1.39,1.38,0.95,2.26c-0.15,0.3-0.24,0.59-0.5,0.82c-0.24,0.21-0.64,0.35-0.96,0.35
		c-1.8,0-3.61,0-5.41,0c-1.85,0-3.69,0-5.54,0c-0.43,0-0.86,0-1.29,0c0.54-0.24,1.03-0.57,1.38-1.06c0.65-0.98,0.51-2.64-0.78-2.97
		c-1.34-0.38-2.3,1.34-0.95,2.02c0.55,0.26,1.34-0.35,0.8-0.88c-0.2-0.21-0.53,0.11-0.32,0.31c0.02,0.03,0.05,0.06,0.05,0.1
		c-0.07,0.06-0.21,0.07-0.32,0.07c-0.43-0.16-0.55-0.7-0.2-1.03c0.27-0.21,0.72-0.22,1.04-0.07c0.73,0.38,0.74,1.35,0.4,2.03
		c-0.3,0.6-0.88,0.9-1.48,1.13c-0.24,0.09-0.48,0.2-0.73,0.28c-0.27,0.09-0.51,0.07-0.79,0.07c-0.23,0-0.47,0-0.7,0
		c-1.02,0-2.05,0-3.07,0.01c-0.61,0-1.23,0-1.86,0c-2.47,0-4.94,0-7.41,0.01c1.33-0.41,2.52-1.22,2.35-2.71
		c-0.17-1.02-1.19-2.14-2.28-1.7c-0.78,0.25-0.67,1.34,0.02,1.64c0.45,0.24,1.21-0.18,0.88-0.72c-0.19-0.33-0.67-0.01-0.37,0.27
		c-0.08,0.1-0.22,0.07-0.32,0.04c-0.16-0.07-0.28-0.24-0.3-0.43C51.47,6.05,52,5.93,52.29,6.01c0.7,0.16,1.13,0.9,1.2,1.61
		c-0.03,1.28-1.5,1.88-2.57,2.16c-0.5,0.09-1,0.15-1.5,0.22c-0.89,0.12-1.79,0.06-2.69,0.06c-0.94,0-1.87,0-2.81,0
		c-0.72,0-1.44,0-2.16,0c0.53-0.27,1.02-0.68,1.3-1.19c0.7-1.13-0.1-2.9-1.52-2.66c-1.28,0-1.24,2.04-0.08,2.24
		c0.64,0.15,1.17-0.65,0.61-1.11c-0.27-0.24-0.55,0.21-0.25,0.39c0.07,0.09,0.04,0.18-0.03,0.23c-0.58,0.25-0.93-0.64-0.67-1.08
		c0.18-0.25,0.59-0.25,0.92-0.2c1.12,0.28,1.03,1.93,0.19,2.53c-0.22,0.21-0.48,0.38-0.75,0.51c-0.48,0.23-0.94,0.35-1.46,0.35
		c-0.23,0-0.47,0-0.7,0c-0.47,0-0.94,0-1.41,0c-0.94,0-1.87,0-2.81,0c-0.04,0-0.07,0-0.11,0c-1.57,0-3.14,0-4.71,0
		c-0.26,0-0.52,0-0.77,0c1.33-0.79,2.25-2.64,1.1-3.9c-0.93-0.8-3.26-0.78-3.16,0.86c0,0.86,1.11,1.76,1.86,1.1
		c0.46-0.4,0.12-1.14-0.44-1.2c-0.31-0.04-0.35,0.45-0.04,0.45c0.17,0.03,0.36,0.3,0.15,0.43c-0.5,0.32-1.1-0.33-1.09-0.84
		c-0.04-1.12,1.6-0.97,2.29-0.57c1.04,0.89,0.27,2.42-0.62,3.09c-0.44,0.33-1.1,0.57-1.65,0.59c-0.27,0.01-0.54-0.03-0.81-0.03
		c-0.47,0-0.94,0-1.41,0c-0.94,0-1.87,0.01-2.81,0.01c-0.07,0-0.13,0-0.2,0c-0.79,0-1.57,0-2.36,0c-0.86,0-1.72,0-2.58,0
		c0.08,0,0.24-0.18,0.3-0.23c0.09-0.08,0.17-0.18,0.23-0.28c0.13-0.19,0.21-0.41,0.25-0.64c0.08-0.44-0.01-0.91-0.23-1.3
		c-0.45-0.81-1.63-1.14-2.35-0.45c-0.43,0.41-0.31,1.15,0.25,1.39c0.65,0.41,1.64-0.55,0.75-0.96c-0.31-0.08-0.4,0.38-0.1,0.45
		c-0.21,0.35-0.8,0.01-0.72-0.36c0.02-0.08,0.06-0.13,0.13-0.19c0.4-0.25,1.03-0.27,1.45,0.01c0.44,0.29,0.58,0.91,0.42,1.39
		c-0.12,0.38-0.41,0.65-0.75,0.85c-0.17,0.1-0.35,0.19-0.53,0.27c-0.22,0.1-0.43,0.05-0.66,0.05c-0.24,0-0.48-0.01-0.72-0.01
		c-0.47,0-0.94,0-1.41,0c-1.84,0-3.67,0-5.51,0c-0.07,0-0.15,0-0.22,0c-0.7,0-1.4,0-2.11,0C6.09,10.07,6,10.18,6,10.3
		c0,0.12,0.11,0.22,0.23,0.22c0.96,0,1.93,0,2.89,0c0.49,0,0.98,0,1.47,0c0.76,0.23,1.51,0.51,2.12,1.04
		c1.28,1.05,0.37,2.84-1.14,2.87c-0.45,0.01-1.09-0.01-1.28-0.52c-0.12-0.45,0.53-0.96,0.84-0.54c-0.01,0.02-0.02,0.03-0.03,0.04
		c-0.17-0.05-0.35,0.13-0.27,0.3c0.34,0.5,1.03-0.27,0.64-0.66c-0.47-0.57-1.4-0.22-1.58,0.45c-0.29,0.79,0.57,1.38,1.27,1.38
		c1.31,0.21,2.61-0.82,2.64-2.17c-0.11-1.08-0.95-1.75-1.9-2.18c2.31,0,4.61-0.01,6.92-0.01c1.51,0,3.01,0,4.52,0
		c0.03,0.02,0.05,0.04,0.08,0.04c0.54,0.21,1.09,0.48,1.57,0.81c0.62,0.45,1.16,1.15,1.19,1.96c-0.05,0.82-0.87,1.65-1.72,1.58
		c-0.39-0.04-0.87-0.25-0.95-0.69c-0.03-0.31,0.43-0.5,0.67-0.28c-0.21,0.05-0.22,0.38,0,0.43c0.73,0.06,0.5-0.94-0.09-0.96
		c-0.88-0.19-1.38,0.94-0.69,1.5c0.94,0.91,2.46,0.33,3-0.75c0.74-1.54-0.54-2.93-1.93-3.64c1.42,0,2.85,0,4.27,0
		c2.24,0,4.48,0,6.72,0c0.06,0.04,0.13,0.08,0.22,0.1c0.46,0.19,0.9,0.47,1.24,0.86c0.28,0.36,0.56,0.79,0.53,1.28
		c-0.09,0.71-0.69,1.32-1.42,1.37c-0.35,0.02-0.81-0.15-0.86-0.58c-0.03-0.3,0.47-0.65,0.68-0.35c0.06,0.09-0.04,0.18-0.13,0.16
		c-0.29-0.01-0.3,0.45-0.01,0.45c0.76,0.01,0.8-0.98,0.09-1.14c-1.07-0.23-1.5,1.27-0.53,1.73c1.09,0.58,2.44-0.35,2.61-1.51
		c0.08-0.98-0.58-1.85-1.41-2.37c0.77,0,1.55,0,2.32,0c3.1,0,6.2-0.01,9.3-0.01c0.05,0.01,0.09,0.03,0.13,0.04
		c0.44,0.16,0.87,0.48,1.09,0.9c0.23,0.43,0.22,0.95,0.06,1.4c-0.14,0.39-0.38,0.76-0.74,0.98c-0.42,0.26-0.89,0.11-1.29-0.12
		c-0.25-0.15-0.44-0.5-0.28-0.8c0.16-0.23,0.51-0.32,0.75-0.09c-0.03,0.24,0.34,0.35,0.43,0.11c0.06-0.17-0.02-0.36-0.15-0.48
		c-0.47-0.44-1.32-0.2-1.5,0.42c-0.22,0.84,0.63,1.47,1.38,1.53c1.78,0.16,2.62-2.63,1.31-3.72c-0.05-0.04-0.12-0.1-0.2-0.16
		c0.03-0.01,0.05-0.01,0.07-0.02c3.26,0,6.52,0,9.78-0.01c0.23,0.03,0.42,0.1,0.63,0.21c0.57,0.31,1.17,0.86,1.18,1.58
		c0.01,0.4,0,0.93-0.37,1.2c-0.39,0.3-1.16,0.37-1.44-0.15c-0.22-0.47,0.3-0.77,0.57-0.37c-0.33,0.17,0.03,0.62,0.28,0.35
		c0.49-0.42-0.18-1.08-0.68-0.99c-1.18,0.22-0.66,1.81,0.36,1.83c1.42,0.23,2.09-1.46,1.55-2.6c-0.22-0.43-0.56-0.8-0.96-1.07
		c3.05,0,6.1-0.01,9.14-0.01c0.33,0,0.65,0,0.98,0c0.29,0,0.61-0.04,0.9,0.03c1.01,0.26,2.04,0.63,2.63,1.55
		c0.66,0.88,0.49,2.67-0.89,2.54c-0.34-0.06-0.73-0.44-0.61-0.8c0.1-0.16,0.49-0.2,0.59,0.01c0,0.01,0.01,0.02,0.01,0.04
		c-0.25,0.14-0.04,0.54,0.21,0.4c0.65-0.41-0.17-1.29-0.77-0.99c-0.91,0.26-0.45,1.51,0.27,1.71c1.54,0.53,2.46-1.43,1.82-2.69
		c-0.36-0.85-1.07-1.44-1.89-1.82c2.09,0,4.18,0,6.27,0c0.92,0,1.85,0,2.77,0c0.47,0,0.93,0,1.4,0c0.51,0,1.05-0.03,1.56,0.04
		c0.53,0.07,1.04,0.27,1.52,0.5c0.76,0.36,1.31,0.98,1.67,1.76c0.21,0.47,0.39,1.04,0.14,1.55c-0.46,0.93-1.53,1.23-2.45,0.71
		c-0.36-0.15-0.68-0.8-0.33-1.12c0.28-0.23,0.9-0.35,1.03,0.07c0,0.01-0.03,0.04-0.02,0.03c-0.16,0.02-0.31-0.06-0.38,0.16
		c-0.06,0.39,0.53,0.37,0.71,0.15c0.58-0.76-0.69-1.35-1.29-0.95c-0.72,0.23-0.78,1.14-0.36,1.68c0.35,0.48,1.01,0.63,1.58,0.69
		c3.45-0.38,2.05-4.3-0.32-5.28c0.14,0.06,0.43,0,0.58,0c0.21,0,0.42,0,0.63,0c0.42,0,0.85,0,1.27,0c1.08,0,2.15-0.02,3.22-0.2
		c1.03-0.12,2.01-0.8,2.28-1.84C94.09,7.64,94.02,6.5,93.25,6.06z M92.14,7.26C92.14,7.26,92.14,7.26,92.14,7.26
		C92.14,7.26,92.14,7.26,92.14,7.26C92.14,7.26,92.14,7.26,92.14,7.26C92.14,7.26,92.14,7.26,92.14,7.26
		C92.14,7.26,92.14,7.26,92.14,7.26z"/>
</g>
</svg>
