<?xml version="1.0" encoding="utf-8"?>
<!-- Generator: Adobe Illustrator 23.0.0, SVG Export Plug-In . SVG Version: 6.00 Build 0)  -->
<svg version="1.1" id="Слой_1" xmlns="http://www.w3.org/2000/svg" xmlns:xlink="http://www.w3.org/1999/xlink" x="0px" y="0px"
	 viewBox="0 0 100 21.28" style="enable-background:new 0 0 100 21.28;" xml:space="preserve">
<g>
	<path d="M93.38,13c-0.97-0.63-2.36,0.42-2.06,1.53c-0.48-0.39-1.06-0.72-1.55-1.12c0.62-0.12,1.14-0.84,0.94-1.56
		c-0.1-0.68-0.76-1.17-1.45-1.3c0.21-0.12,0.4-0.27,0.56-0.48c0.35-0.37,0.3-1.12-0.26-1.25c0.34-0.59-0.01-1.66-0.81-1.36
		c-0.08,0.06-0.16,0.13-0.23,0.21c0.06-0.54,0.06-1.07-0.07-1.6c-0.34-0.89-1.19-0.82-1.51,0.05c-0.16,0.52-0.21,1.05-0.2,1.57
		C86.22,7.33,85.69,8,85.9,8.83c-0.31-0.14-0.65,0.11-0.8,0.38c-0.18,0.42,0.19,0.86,0.68,1.2c-0.65,0.19-1.19,0.7-1.22,1.47
		c-0.06,0.73,0.72,1.54,1.45,1.45c-0.47,0.54-1.18,0.98-1.87,1.29c0.32-0.66,0.13-1.51-0.86-1.81c-1.22-0.25-2.07,1-1.79,1.86
		c-0.55-0.31-1.04-0.76-1.54-1.16c0.85-0.27,1.33-1.73,0.76-2.59c-0.22-0.35-0.56-0.49-0.93-0.5c0.36-0.27,0.66-0.59,0.76-1.04
		c0.07-0.34-0.19-0.75-0.56-0.7C80,8.43,80,8.17,79.93,7.93c-0.1-0.4-0.54-0.62-0.87-0.31c0.15-1.05-0.95-2.84-1.61-1.15
		c-0.13,0.45-0.15,0.91-0.13,1.37c-0.4-0.48-0.89-0.61-1.17,0.43c-0.01,0.21,0,0.43,0.04,0.63C76.1,8.86,76,8.84,75.92,8.83
		c-0.62-0.09-0.82,0.75-0.47,1.15c0.15,0.23,0.34,0.39,0.56,0.51c-0.95,0.2-1.09,1.49-0.79,2.25c0.2,0.41,0.6,0.52,1.02,0.56
		c-0.36,0.58-0.85,1.08-1.42,1.47c0.23-0.46,0.07-1.05-0.29-1.43c-0.5-0.52-1.38-0.64-1.97-0.23c-0.59,0.41-0.77,1.34-0.33,1.91
		c-0.76-0.28-1.43-0.79-1.92-1.44c0.45,0.09,0.91-0.2,1.16-0.59c0.27-0.41,0.36-0.95,0.24-1.43c-0.12-0.48-0.45-0.91-0.89-1.14
		c0.26-0.24,0.44-0.62,0.35-0.97c-0.09-0.35-0.49-0.62-0.82-0.48c0.05-0.29,0.1-0.61-0.03-0.88c-0.13-0.27-0.51-0.43-0.73-0.23
		c0.09-0.72,0.07-1.58-0.51-2.02c-0.2-0.15-0.48-0.23-0.7-0.12c-0.16,0.08-0.26,0.24-0.34,0.4c-0.21,0.42-0.31,0.9-0.28,1.37
		c-0.27-0.18-0.66-0.03-0.83,0.25c-0.17,0.28-0.17,0.63-0.13,0.95c-0.36-0.09-0.73,0.27-0.74,0.65s0.26,0.72,0.59,0.9
		c-0.59,0.36-1.11,0.92-1.22,1.6s0.34,1.47,1.02,1.55c-0.38,0.42-0.85,0.69-1.35,0.94c0.05-0.43-0.13-0.92-0.6-1.35
		c-0.97-0.63-2.36,0.42-2.06,1.53c-0.48-0.39-1.06-0.72-1.55-1.12c0.62-0.12,1.14-0.84,0.94-1.56c-0.1-0.68-0.76-1.17-1.45-1.3
		c0.21-0.12,0.4-0.27,0.56-0.48c0.35-0.37,0.3-1.12-0.26-1.25c0.34-0.59-0.01-1.66-0.81-1.36c-0.08,0.06-0.16,0.13-0.23,0.21
		c0.06-0.54,0.06-1.07-0.07-1.6c-0.34-0.89-1.19-0.82-1.51,0.05c-0.16,0.52-0.21,1.05-0.2,1.57C57.34,7.33,56.81,8,57.02,8.83
		c-0.31-0.14-0.65,0.11-0.8,0.38c-0.18,0.42,0.19,0.86,0.68,1.2c-0.65,0.19-1.19,0.7-1.22,1.47c-0.06,0.73,0.72,1.54,1.45,1.45
		c-0.47,0.54-1.18,0.98-1.87,1.29c0.32-0.66,0.13-1.51-0.86-1.81c-1.22-0.25-2.07,1-1.8,1.86c-0.55-0.31-1.04-0.76-1.54-1.16
		c0.85-0.27,1.33-1.73,0.76-2.59c-0.22-0.35-0.56-0.49-0.93-0.5c0.36-0.27,0.66-0.59,0.76-1.04c0.07-0.34-0.19-0.75-0.56-0.7
		c0.03-0.25,0.02-0.51-0.05-0.75c-0.1-0.4-0.54-0.62-0.87-0.31c0.15-1.05-0.95-2.84-1.61-1.15c-0.13,0.45-0.15,0.91-0.13,1.37
		c-0.4-0.48-0.89-0.61-1.17,0.43c-0.01,0.21,0,0.43,0.04,0.63c-0.09-0.04-0.19-0.06-0.27-0.07c-0.62-0.09-0.82,0.75-0.47,1.15
		c0.15,0.23,0.34,0.39,0.56,0.51c-0.95,0.2-1.09,1.49-0.79,2.25c0.2,0.41,0.6,0.52,1.02,0.56c-0.36,0.58-0.85,1.08-1.42,1.47
		c0.23-0.46,0.07-1.05-0.29-1.43c-0.5-0.52-1.38-0.64-1.97-0.23c-0.59,0.41-0.77,1.34-0.33,1.91c-0.76-0.28-1.43-0.79-1.92-1.44
		c0.45,0.09,0.91-0.2,1.16-0.59c0.27-0.41,0.36-0.95,0.24-1.43c-0.12-0.48-0.45-0.91-0.89-1.14c0.26-0.24,0.44-0.62,0.35-0.97
		c-0.09-0.35-0.49-0.62-0.82-0.48c0.05-0.29,0.1-0.61-0.03-0.88c-0.13-0.27-0.51-0.43-0.73-0.23c0.09-0.72,0.07-1.58-0.51-2.02
		c-0.2-0.15-0.48-0.23-0.7-0.12c-0.16,0.08-0.26,0.24-0.34,0.4c-0.21,0.42-0.31,0.9-0.28,1.37c-0.27-0.18-0.66-0.03-0.83,0.25
		c-0.17,0.28-0.17,0.63-0.13,0.95c-0.36-0.09-0.73,0.27-0.74,0.65c-0.01,0.38,0.26,0.72,0.59,0.9c-0.59,0.36-1.11,0.92-1.22,1.6
		s0.34,1.47,1.02,1.55c-0.46,0.52-1.07,0.8-1.67,1.11c0.04-0.42-0.14-0.91-0.6-1.33c-0.97-0.63-2.36,0.42-2.06,1.53
		c-0.48-0.39-1.06-0.72-1.55-1.12c0.62-0.12,1.14-0.84,0.94-1.56c-0.1-0.68-0.76-1.17-1.45-1.3c0.21-0.12,0.4-0.27,0.56-0.48
		c0.35-0.37,0.3-1.12-0.26-1.25c0.34-0.59-0.01-1.66-0.81-1.36c-0.08,0.06-0.16,0.13-0.23,0.21c0.06-0.54,0.06-1.07-0.07-1.6
		c-0.34-0.89-1.19-0.82-1.51,0.05c-0.16,0.52-0.21,1.05-0.2,1.57c-0.53-0.36-1.06,0.31-0.85,1.13c-0.31-0.14-0.65,0.11-0.8,0.38
		c-0.18,0.42,0.19,0.86,0.68,1.2c-0.65,0.19-1.19,0.7-1.22,1.47c-0.06,0.73,0.72,1.54,1.45,1.45c-0.47,0.54-1.18,0.98-1.87,1.29
		c0.32-0.66,0.13-1.51-0.86-1.81c-1.22-0.25-2.07,1-1.79,1.86c-0.55-0.31-1.04-0.76-1.54-1.16c0.85-0.27,1.33-1.73,0.76-2.59
		c-0.22-0.35-0.56-0.49-0.93-0.5c0.36-0.27,0.66-0.59,0.76-1.04c0.07-0.34-0.19-0.75-0.56-0.7c0.03-0.25,0.02-0.51-0.05-0.75
		c-0.1-0.4-0.54-0.62-0.87-0.31c0.15-1.05-0.95-2.84-1.61-1.15c-0.13,0.45-0.15,0.91-0.13,1.37c-0.4-0.48-0.89-0.61-1.17,0.43
		c-0.01,0.21,0,0.43,0.04,0.63c-0.09-0.04-0.19-0.06-0.27-0.07c-0.62-0.09-0.82,0.75-0.47,1.15c0.15,0.23,0.34,0.39,0.56,0.51
		c-0.95,0.2-1.09,1.49-0.79,2.25c0.2,0.41,0.6,0.52,1.02,0.56c-0.36,0.58-0.85,1.08-1.42,1.47c0.23-0.46,0.07-1.05-0.29-1.43
		c-0.5-0.52-1.38-0.64-1.97-0.23c-0.59,0.41-0.77,1.34-0.33,1.91c-0.76-0.28-1.43-0.79-1.92-1.44c0.45,0.09,0.91-0.2,1.16-0.59
		c0.27-0.41,0.36-0.95,0.24-1.43c-0.12-0.48-0.45-0.91-0.89-1.14c0.26-0.24,0.44-0.62,0.35-0.97c-0.09-0.35-0.49-0.62-0.82-0.48
		c0.05-0.29,0.1-0.61-0.03-0.88c-0.13-0.27-0.51-0.43-0.73-0.23c0.09-0.72,0.07-1.58-0.51-2.02c-0.2-0.15-0.48-0.23-0.7-0.12
		C10.14,6,10.04,6.16,9.96,6.32c-0.21,0.42-0.31,0.9-0.28,1.37C9.41,7.51,9.01,7.67,8.84,7.94C8.67,8.22,8.67,8.57,8.71,8.89
		C8.35,8.8,7.98,9.17,7.97,9.54c-0.01,0.38,0.26,0.72,0.59,0.9c-0.59,0.36-1.11,0.92-1.22,1.6c-0.11,0.68,0.34,1.47,1.02,1.55
		c-0.62,0.7-1.34,1.3-2.14,1.79c-0.12,0.07-0.25,0.18-0.22,0.31c0.03,0.1,0.14,0.15,0.24,0.14c0.1-0.01,0.19-0.07,0.27-0.13
		c1.2-0.84,2.46-1.76,3-3.12c0.15-0.37,0.21-0.85-0.09-1.11c-0.22-0.19-0.57-0.17-0.82-0.01c-0.26,0.18-0.42,0.52-0.33,0.83
		c0.09,0.3,0.45,0.51,0.75,0.4C8.92,12.84,8.81,13,8.7,13.15c-0.34,0.09-0.73-0.1-0.87-0.42c-0.12-0.27-0.08-0.59,0.02-0.88
		c0.17-0.47,0.51-0.91,0.99-1.06c0.48-0.15,1.08,0.07,1.24,0.54c0.09,0.25,0.05,0.54-0.02,0.8c-0.2,0.73-0.64,1.36-1.16,1.91
		c-0.27,0.29-0.56,0.55-0.85,0.8c-0.16,0.13-0.97,0.54-0.79,0.82c0.06,0.09,0.19,0.13,0.35,0.14c0.39,0.02,4.14-0.19,4.95-0.13
		c0.06,0,0.13,0.01,0.18-0.03c0.09-0.05,0.07-0.05,0.02-0.14c-0.05-0.09-0.14-0.15-0.22-0.21c-0.59-0.43-1.07-1.02-1.36-1.69
		c-0.26-0.6-0.36-1.32-0.06-1.9s1.11-0.91,1.65-0.54c0.39,0.27,0.52,0.79,0.45,1.26c-0.06,0.4-0.29,0.82-0.68,0.92
		c-0.29,0.07-0.61-0.07-0.76-0.32s-0.11-0.6,0.09-0.82c0.08-0.08,0.27-0.09,0.25,0.02c-0.01,0.05-0.06,0.07-0.09,0.1
		c-0.09,0.09-0.04,0.27,0.08,0.32c0.12,0.05,0.26,0,0.35-0.1c0.25-0.28-0.02-0.8-0.4-0.83c-0.38-0.03-0.71,0.31-0.79,0.69
		c-0.07,0.38,0.06,0.76,0.25,1.09c0.29,0.53,0.72,0.98,1.19,1.36c0.55,0.45,1.18,0.83,1.88,0.95c1.4,0.25,2.81-0.57,3.67-1.7
		c0.3-0.4,0.56-0.84,0.7-1.33c0.07-0.26,0.11-0.55,0.01-0.8s-0.38-0.45-0.65-0.37c-0.21,0.06-0.35,0.28-0.38,0.49
		c-0.02,0.13,0,0.27,0.09,0.36c0.09,0.09,0.27,0.09,0.33-0.02c0.03-0.06-0.06-0.51,0.14-0.37c0.04,0.02,0.06,0.06,0.07,0.1
		c0.03,0.1,0.05,0.2,0.05,0.31c0,0.16-0.05,0.33-0.18,0.44c-0.25,0.23-0.69,0.19-0.89-0.09c-0.2-0.28-0.16-0.72-0.12-1.05
		c0.04-0.3,0.21-0.53,0.49-0.65c0.33-0.14,0.67-0.13,1-0.01c0.28,0.1,0.57,0.23,0.71,0.51c0.12,0.25,0.06,0.58,0,0.84
		c-0.14,0.61-0.42,1.22-0.78,1.73c-0.14,0.19-0.28,0.37-0.45,0.54c-0.08,0.08-0.16,0.17-0.25,0.24c-0.1,0.09-0.34,0.22-0.31,0.38
		c0.02,0.12,0.16,0.14,0.25,0.15c0.13,0.02,0.27,0.03,0.4,0.03c0.56,0.02,1.11,0,1.67-0.02c0.74-0.03,1.45-0.02,2.21-0.01
		c0.26-0.01,0.39-0.23,0.19-0.37c-0.43-0.23-0.87-0.51-1.29-0.76c-0.39-0.27-0.69-0.67-0.92-1.12c-0.23-0.48-0.17-1.1,0.01-1.58
		c0.1-0.26,0.37-0.44,0.63-0.53c0.29-0.1,0.65-0.2,0.94-0.07c0.26,0.11,0.41,0.39,0.45,0.65c0.08,0.49-0.02,1.12-0.45,1.42
		c-0.22,0.16-0.56,0.21-0.79,0.02c-0.16-0.14-0.22-0.37-0.27-0.56c-0.07-0.27-0.09-0.63,0.19-0.79c0.06-0.04,0.15-0.05,0.21,0.01
		c0.07,0.08,0.1,0.2,0.07,0.31c-0.08,0.08-0.15,0.24-0.03,0.34c0.37,0.26,0.56-0.41,0.43-0.68c-0.14-0.52-0.8-0.55-1.11-0.17
		c-0.29,0.36-0.27,0.93-0.12,1.34c0.21,0.56,0.78,0.83,1.22,1.2c0.3,0.25,0.6,0.51,0.93,0.74c0.52,0.36,1.09,0.63,1.73,0.71
		c0.58,0.07,1.23-0.15,1.76-0.37c0.53-0.22,1.04-0.52,1.49-0.89c0.42-0.34,0.79-0.76,1.03-1.25c0.23-0.47,0.26-0.92,0.18-1.43
		c-0.13-0.82-1.31-0.62-1.35,0.13c-0.01,0.2,0.09,0.4,0.25,0.52c0.24,0.18,0.48-0.21,0.23-0.37c-0.09-0.1-0.06-0.23,0.04-0.31
		c0.11-0.1,0.3-0.15,0.37,0c0.16,0.31,0.11,0.74,0,1.06c-0.08,0.24-0.3,0.39-0.55,0.38c-0.47-0.02-0.89-0.43-0.96-0.89
		c-0.01-0.4,0.22-0.8,0.53-1.07c0.28-0.19,0.6-0.21,0.93-0.18c0.24,0.1,0.47,0.17,0.66,0.2c0.28,0.21,0.5,0.55,0.41,0.91
		c-0.23,1.35-1.23,2.37-2.4,3.06c-0.26,0.57,0.58,0.42,0.89,0.39c1.39-0.09,2.78,0.01,4.17,0.11c0.79,0.06,0.35-0.57-0.1-0.72
		c-0.01-0.01-0.02-0.01-0.03-0.02c-0.41-0.29-0.83-0.56-1.18-0.94c-0.12-0.12-0.23-0.25-0.34-0.38c-0.29-0.47-0.52-0.97-0.56-1.54
		c0-0.03,0-0.05-0.01-0.08c0.01-0.04,0.01-0.08,0.02-0.12c0.06-0.24,0.2-0.49,0.44-0.59c0.81-0.36,2.17,0.3,1.85,1.37
		c-0.05,0.33-0.42,0.62-0.76,0.56c-0.17-0.05-0.33-0.17-0.45-0.33c0-0.01-0.01-0.02-0.02-0.03c-0.15-0.22-0.23-0.49-0.15-0.74
		c0.12-0.2,0.36-0.13,0.33,0.11c-0.17,0.22,0.17,0.48,0.34,0.26c0.21-0.29,0.04-0.75-0.28-0.87c-0.94-0.22-1,0.92-0.57,1.52
		c0.15,0.34,0.46,0.58,0.76,0.77c0.92,0.62,1.75,1.57,2.93,1.65c0.58,0.06,1.02-0.09,1.29-0.35c1.26-0.67,2.59-1.42,3.14-2.77
		c0.15-0.37,0.21-0.85-0.09-1.11c-0.22-0.19-0.57-0.17-0.82-0.01c-0.26,0.18-0.42,0.52-0.33,0.83c0.09,0.31,0.45,0.51,0.75,0.4
		c-0.11,0.15-0.22,0.31-0.33,0.46c-0.34,0.09-0.73-0.1-0.87-0.42c-0.12-0.27-0.08-0.59,0.02-0.88c0.17-0.47,0.51-0.91,0.99-1.06
		c0.48-0.15,1.08,0.07,1.24,0.54c0.09,0.25,0.05,0.54-0.02,0.8c-0.2,0.73-0.64,1.36-1.16,1.91c-0.27,0.29-0.56,0.55-0.85,0.8
		c-0.16,0.13-0.97,0.54-0.79,0.82c0.06,0.09,0.19,0.13,0.35,0.14c0.39,0.02,4.14-0.19,4.95-0.13c0.06,0,0.13,0.01,0.18-0.03
		c0.09-0.05,0.07-0.05,0.02-0.14c-0.05-0.09-0.14-0.15-0.22-0.21c-0.59-0.43-1.07-1.02-1.36-1.69c-0.26-0.6-0.36-1.32-0.06-1.9
		s1.11-0.91,1.65-0.54c0.39,0.27,0.52,0.79,0.45,1.26c-0.06,0.4-0.29,0.82-0.68,0.92c-0.29,0.07-0.61-0.07-0.76-0.32
		c-0.15-0.25-0.11-0.6,0.09-0.82c0.08-0.08,0.27-0.09,0.25,0.02c-0.01,0.05-0.06,0.07-0.09,0.1c-0.09,0.09-0.04,0.27,0.08,0.32
		c0.12,0.05,0.26,0,0.35-0.1c0.25-0.28-0.02-0.8-0.4-0.83c-0.38-0.03-0.71,0.31-0.79,0.69c-0.07,0.38,0.06,0.76,0.25,1.09
		c0.29,0.53,0.72,0.98,1.19,1.36c0.55,0.45,1.18,0.83,1.88,0.95c1.4,0.25,2.81-0.57,3.67-1.7c0.3-0.4,0.56-0.84,0.7-1.33
		c0.07-0.26,0.11-0.55,0.01-0.8c-0.1-0.25-0.38-0.45-0.65-0.37c-0.21,0.06-0.35,0.28-0.38,0.49c-0.02,0.13,0,0.27,0.09,0.36
		c0.09,0.09,0.27,0.09,0.33-0.02c0.03-0.06-0.06-0.51,0.14-0.37c0.04,0.02,0.06,0.06,0.07,0.1c0.03,0.1,0.05,0.2,0.05,0.31
		c0,0.16-0.05,0.33-0.18,0.44c-0.25,0.23-0.69,0.19-0.89-0.09c-0.2-0.28-0.16-0.72-0.12-1.05c0.04-0.3,0.21-0.53,0.49-0.65
		c0.33-0.14,0.67-0.13,1-0.01c0.28,0.1,0.57,0.23,0.71,0.51c0.12,0.25,0.06,0.58,0,0.84c-0.14,0.61-0.42,1.22-0.78,1.73
		c-0.14,0.19-0.28,0.37-0.45,0.54c-0.08,0.08-0.16,0.17-0.25,0.24c-0.1,0.09-0.34,0.22-0.31,0.38c0.02,0.12,0.16,0.14,0.25,0.15
		c0.13,0.02,0.27,0.03,0.4,0.03c0.56,0.02,1.11,0,1.67-0.02c0.74-0.03,1.45-0.02,2.21-0.01c0.26-0.01,0.39-0.23,0.19-0.37
		c-0.43-0.23-0.87-0.51-1.29-0.76c-0.39-0.27-0.69-0.67-0.92-1.12c-0.23-0.48-0.17-1.1,0.01-1.58c0.1-0.26,0.37-0.44,0.63-0.53
		c0.29-0.1,0.65-0.2,0.94-0.07c0.26,0.11,0.41,0.39,0.45,0.65c0.08,0.49-0.02,1.12-0.45,1.42c-0.22,0.16-0.56,0.21-0.79,0.03
		c-0.16-0.14-0.22-0.37-0.27-0.56c-0.07-0.27-0.09-0.63,0.19-0.79c0.06-0.04,0.15-0.05,0.21,0.01c0.07,0.08,0.1,0.2,0.07,0.31
		c-0.08,0.08-0.15,0.24-0.03,0.34c0.37,0.26,0.56-0.41,0.43-0.68c-0.14-0.52-0.8-0.55-1.11-0.17c-0.29,0.36-0.27,0.93-0.12,1.34
		c0.21,0.56,0.78,0.83,1.22,1.2c0.3,0.25,0.6,0.51,0.93,0.74c0.52,0.36,1.09,0.63,1.73,0.71c0.58,0.07,1.23-0.15,1.76-0.37
		c0.53-0.22,1.04-0.52,1.49-0.89c0.42-0.34,0.79-0.76,1.03-1.25c0.23-0.47,0.26-0.92,0.18-1.43c-0.13-0.82-1.31-0.62-1.35,0.13
		c-0.01,0.2,0.09,0.4,0.25,0.52c0.24,0.18,0.48-0.21,0.23-0.37c-0.09-0.1-0.06-0.23,0.04-0.31c0.11-0.1,0.3-0.15,0.37,0
		c0.16,0.31,0.11,0.74,0,1.06c-0.08,0.24-0.3,0.39-0.55,0.38c-0.47-0.02-0.89-0.43-0.96-0.89c-0.01-0.4,0.22-0.8,0.53-1.07
		c0.28-0.19,0.6-0.21,0.93-0.18c0.24,0.1,0.47,0.17,0.66,0.2c0.28,0.21,0.5,0.55,0.41,0.91c-0.23,1.35-1.14,2.37-2.4,3.06
		c-0.26,0.57,0.58,0.42,0.89,0.39c1.39-0.09,2.78,0.01,4.17,0.11c0.79,0.06,0.35-0.57-0.1-0.72c-0.01-0.01-0.02-0.01-0.03-0.02
		c-0.41-0.29-0.83-0.56-1.18-0.94c-0.12-0.12-0.23-0.25-0.34-0.38c-0.29-0.47-0.52-0.97-0.56-1.54c0-0.03,0-0.05-0.01-0.08
		c0.01-0.04,0.01-0.08,0.02-0.12c0.06-0.24,0.2-0.49,0.44-0.59c0.81-0.36,2.17,0.3,1.85,1.37c-0.05,0.33-0.42,0.62-0.76,0.56
		c-0.17-0.05-0.33-0.17-0.45-0.33c0-0.01-0.01-0.02-0.02-0.03c-0.15-0.22-0.23-0.49-0.15-0.74c0.12-0.2,0.36-0.13,0.33,0.11
		c-0.17,0.22,0.17,0.48,0.34,0.26c0.21-0.29,0.04-0.75-0.28-0.87c-0.94-0.22-1,0.92-0.57,1.52c0.15,0.34,0.46,0.58,0.76,0.77
		c0.92,0.62,1.75,1.57,2.93,1.65c0.23,0.03,0.43,0.01,0.61-0.02c0.01,0,0.03,0.01,0.04,0.01c0.06-0.01,0.12-0.04,0.18-0.07
		c0.16-0.05,0.29-0.13,0.4-0.22c1.17-0.63,2.36-1.37,2.86-2.62c0.15-0.37,0.21-0.85-0.09-1.11c-0.22-0.19-0.57-0.17-0.82-0.01
		c-0.26,0.18-0.42,0.52-0.33,0.83c0.09,0.31,0.45,0.51,0.75,0.4c-0.11,0.15-0.22,0.31-0.33,0.46c-0.34,0.09-0.73-0.1-0.87-0.42
		c-0.12-0.27-0.08-0.59,0.02-0.88c0.17-0.47,0.51-0.91,0.99-1.06c0.48-0.15,1.08,0.07,1.24,0.54c0.09,0.25,0.05,0.54-0.02,0.8
		c-0.2,0.73-0.64,1.36-1.16,1.91c-0.27,0.29-0.56,0.55-0.85,0.8c-0.16,0.13-0.97,0.54-0.79,0.82c0.06,0.09,0.19,0.13,0.35,0.14
		c0.39,0.02,4.14-0.19,4.95-0.13c0.06,0,0.13,0.01,0.18-0.03c0.09-0.05,0.07-0.05,0.02-0.14c-0.05-0.09-0.14-0.15-0.22-0.21
		c-0.59-0.43-1.07-1.02-1.35-1.69c-0.26-0.6-0.36-1.32-0.06-1.9c0.3-0.58,1.11-0.91,1.65-0.54c0.39,0.27,0.52,0.79,0.45,1.26
		c-0.06,0.4-0.29,0.82-0.68,0.92c-0.29,0.07-0.61-0.07-0.76-0.32c-0.15-0.25-0.11-0.6,0.09-0.82c0.08-0.08,0.27-0.09,0.25,0.02
		c-0.01,0.05-0.06,0.07-0.09,0.1c-0.09,0.09-0.04,0.27,0.08,0.32c0.12,0.05,0.26,0,0.35-0.1c0.25-0.28-0.02-0.8-0.4-0.83
		c-0.38-0.03-0.71,0.31-0.79,0.69c-0.07,0.38,0.06,0.76,0.25,1.09c0.29,0.53,0.72,0.98,1.19,1.36c0.55,0.45,1.18,0.83,1.88,0.95
		c1.4,0.25,2.81-0.57,3.67-1.7c0.3-0.4,0.56-0.84,0.7-1.33c0.07-0.26,0.11-0.55,0.01-0.8c-0.1-0.25-0.38-0.45-0.65-0.37
		c-0.21,0.06-0.35,0.28-0.38,0.49c-0.02,0.13,0,0.27,0.09,0.36c0.09,0.09,0.27,0.09,0.33-0.02c0.03-0.06-0.06-0.51,0.14-0.37
		c0.04,0.02,0.06,0.06,0.07,0.1c0.03,0.1,0.05,0.2,0.05,0.31c0,0.16-0.05,0.33-0.18,0.44c-0.25,0.23-0.69,0.19-0.89-0.09
		c-0.2-0.28-0.16-0.72-0.12-1.05c0.04-0.3,0.21-0.53,0.49-0.65c0.33-0.14,0.67-0.13,1-0.01c0.28,0.1,0.57,0.23,0.71,0.51
		c0.12,0.25,0.06,0.58,0,0.84c-0.14,0.61-0.42,1.22-0.78,1.73c-0.14,0.19-0.28,0.37-0.45,0.54c-0.08,0.08-0.16,0.17-0.25,0.24
		c-0.1,0.09-0.34,0.22-0.31,0.38c0.02,0.12,0.16,0.14,0.25,0.15c0.13,0.02,0.27,0.03,0.4,0.03c0.56,0.02,1.11,0,1.67-0.02
		c0.74-0.03,1.45-0.02,2.21-0.01c0.26-0.01,0.39-0.23,0.19-0.37c-0.43-0.23-0.87-0.51-1.29-0.76c-0.39-0.27-0.69-0.67-0.92-1.12
		c-0.23-0.48-0.17-1.1,0.01-1.58c0.1-0.26,0.37-0.44,0.63-0.53c0.29-0.1,0.65-0.2,0.94-0.07c0.26,0.11,0.41,0.39,0.45,0.65
		c0.08,0.49-0.02,1.12-0.45,1.42c-0.22,0.16-0.56,0.21-0.79,0.03c-0.16-0.14-0.22-0.37-0.27-0.56c-0.07-0.27-0.09-0.63,0.19-0.79
		c0.06-0.04,0.15-0.05,0.21,0.01c0.07,0.08,0.1,0.2,0.07,0.31c-0.08,0.08-0.15,0.24-0.03,0.34c0.37,0.26,0.56-0.41,0.43-0.68
		c-0.14-0.52-0.8-0.55-1.11-0.17c-0.29,0.36-0.27,0.93-0.12,1.34c0.21,0.56,0.78,0.83,1.22,1.2c0.3,0.25,0.6,0.51,0.93,0.74
		c0.52,0.36,1.09,0.63,1.73,0.71c0.58,0.07,1.23-0.15,1.76-0.37c0.53-0.22,1.04-0.52,1.49-0.89c0.42-0.34,0.79-0.76,1.03-1.25
		C87,12.45,87.03,12,86.95,11.5c-0.13-0.82-1.31-0.62-1.35,0.13c-0.01,0.2,0.09,0.4,0.25,0.52c0.24,0.18,0.48-0.21,0.23-0.37
		c-0.09-0.1-0.06-0.23,0.04-0.31c0.11-0.1,0.3-0.15,0.37,0c0.16,0.31,0.11,0.74,0,1.06c-0.08,0.24-0.3,0.39-0.55,0.38
		c-0.47-0.02-0.89-0.43-0.96-0.89c-0.01-0.4,0.22-0.8,0.53-1.07c0.28-0.19,0.6-0.21,0.93-0.18c0.24,0.1,0.47,0.17,0.66,0.2
		c0.28,0.21,0.5,0.55,0.41,0.91c-0.23,1.35-1.35,2.37-2.4,3.06c-0.26,0.57,0.58,0.42,0.89,0.39c1.39-0.09,2.78,0.01,4.17,0.11
		c0.79,0.06,0.35-0.57-0.1-0.72c-0.01-0.01-0.02-0.01-0.03-0.02c-0.41-0.29-0.83-0.56-1.18-0.94c-0.12-0.12-0.23-0.25-0.34-0.38
		c-0.29-0.47-0.52-0.97-0.56-1.54c0-0.03,0-0.05-0.01-0.08c0.01-0.04,0.01-0.08,0.02-0.12c0.06-0.24,0.2-0.49,0.44-0.59
		c0.81-0.36,2.17,0.3,1.85,1.37c-0.05,0.33-0.42,0.62-0.76,0.56c-0.17-0.05-0.33-0.17-0.45-0.33c0-0.01-0.01-0.02-0.02-0.03
		c-0.15-0.22-0.23-0.49-0.15-0.74c0.12-0.2,0.36-0.13,0.33,0.11c-0.17,0.22,0.17,0.48,0.34,0.26c0.21-0.29,0.04-0.75-0.28-0.87
		c-0.94-0.22-1,0.92-0.57,1.52c0.15,0.34,0.46,0.58,0.76,0.77c0.92,0.62,1.75,1.57,2.93,1.65C94.02,15.51,94.52,14.04,93.38,13z
		 M8.97,12.25c-0.04,0.04-0.1,0.05-0.17,0.04c-0.14-0.01-0.13-0.18-0.1-0.27c0.05-0.13,0.18-0.27,0.34-0.27
		c0.07,0,0.13,0.04,0.16,0.11c0.01,0.01,0.03,0.16,0.01,0.17C9.09,12.03,9.06,12.17,8.97,12.25z M9.27,10.31
		C9,10.24,8.75,10.09,8.54,9.87c-0.1-0.11-0.19-0.29-0.12-0.46c0.05-0.06,0.14-0.1,0.23-0.12h0c0.01,0,0.01,0,0.02-0.01
		c0,0-0.01,0-0.01,0.01c0.04,0,0.09,0,0.14,0.01c0,0,0.01,0,0.01,0c0.03,0.01,0.06,0.03,0.08,0.04c0.15,0.25,0.36,0.48,0.57,0.7
		c0.06,0.11,0.13,0.22,0.2,0.32C9.54,10.33,9.41,10.31,9.27,10.31z M9.83,9.82C9.82,9.81,9.8,9.79,9.79,9.78c0,0,0,0-0.01-0.01
		c-0.06-0.1-0.12-0.2-0.18-0.3C9.53,9.3,9.39,9.16,9.24,9.07C9.07,8.72,9.03,8.34,9.33,8.02c0.01,0,0.02-0.01,0.03-0.01
		c0.03,0,0.05,0.02,0.08,0.05C9.56,8.23,9.66,8.41,9.75,8.6c0.08,0.49,0.2,0.98,0.31,1.48C9.99,9.99,9.91,9.91,9.83,9.82z
		 M10.12,7.11C10.25,6.6,10.4,6.3,10.59,6.3c0.15,0,0.32,0.21,0.52,0.66c0.17,1.03-0.27,2.08-0.53,3.08
		c-0.08-0.54-0.18-1.06-0.4-1.55C10.08,8.04,10.04,7.59,10.12,7.11z M11.01,14.53c0,0.16-0.05,0.32-0.14,0.45
		c-0.1,0.16-0.27,0.24-0.44,0.28c-0.05,0.01-0.09,0.02-0.14,0.02c-0.28,0-0.57-0.18-0.63-0.46c-0.02-0.11,0-0.23,0.04-0.34
		c0.04-0.1,0.09-0.2,0.19-0.26c0.12-0.14,0.29-0.21,0.47-0.21c0.02,0,0.03,0,0.05,0C10.69,14.03,11.01,14.22,11.01,14.53z
		 M11.24,10.38c-0.1,0.13-0.2,0.26-0.3,0.38l-0.01,0.02c-0.03-0.25,0.52-2.36,0.84-2.36c0.05,0,0.1,0.06,0.13,0.18
		c0,0.36-0.09,0.7-0.23,1.03C11.5,9.85,11.36,10.12,11.24,10.38z M11.73,10.66c-0.06,0.01-0.12,0.04-0.18,0.06
		c0.01-0.05,0.03-0.09,0.05-0.13c0,0,0,0,0.01-0.01c0.14-0.2,0.27-0.41,0.38-0.63c0.09-0.12,0.2-0.23,0.31-0.33
		c0.06-0.04,0.12-0.07,0.18-0.07c0.01,0,0.03,0,0.04,0C13.07,10.11,12.25,10.44,11.73,10.66z M16.17,14.9
		c-0.1,0.17-0.32,0.19-0.5,0.2c-0.4,0.03-0.83-0.06-1.15-0.3c-0.25-0.36,0.02-0.89,0.37-1.12c0.13-0.09,0.28-0.13,0.42-0.13
		c0.24,0,0.49,0.1,0.69,0.26C16.24,14.1,16.25,14.55,16.17,14.9z M18.47,10.48c-0.38-0.14-1.07-0.6-0.78-1.03
		c0.03-0.05,0.21,0.01,0.25,0.03c0.13,0.06,0.25,0.11,0.33,0.24c0.07,0.11,0.11,0.23,0.17,0.34c0.1,0.18,0.21,0.36,0.34,0.52
		C18.65,10.54,18.54,10.51,18.47,10.48z M18.5,8.41c0.02-0.1,0.07-0.19,0.14-0.26c0.01-0.01,0.04-0.04,0.06-0.05
		c0.78,0.57,0.79,1.83,0.88,2.75C18.94,10.22,18.39,9.36,18.5,8.41z M20.37,14.32c0.25,0.48-0.4,1.12-0.85,0.74
		c-0.3-0.26-0.17-0.73,0.14-0.91c0.08-0.04,0.17-0.07,0.26-0.07C20.1,14.09,20.28,14.16,20.37,14.32z M20.01,10.21
		c0-0.05-0.01-0.09-0.01-0.14c-0.12-1.17-0.71-2.43-0.1-3.57c0.02-0.03,0.07-0.09,0.13-0.09c0.01,0,0.01,0,0.02,0h0
		c0.11,0.03,0.17,0.11,0.24,0.21C20.88,7.75,20.32,9.06,20.01,10.21z M20.98,9.62c-0.18,0.26-0.34,0.53-0.51,0.79
		c-0.03,0.06-0.06,0.12-0.09,0.17c0.06-0.26,0.14-0.51,0.21-0.76c0.09-0.31,0.17-0.63,0.27-0.94c0.05-0.16,0.11-0.31,0.19-0.46
		c0.04-0.07,0.25-0.41,0.34-0.29c0.17,0.23,0.13,0.59,0.04,0.84C21.34,9.22,21.13,9.41,20.98,9.62z M21.22,10.42
		c-0.05,0.03-0.14,0.06-0.17,0.11c0.17-0.21,0.32-0.44,0.45-0.68c0.08-0.14,0.13-0.28,0.22-0.39c0.05-0.06,0.17-0.18,0.25-0.15
		c0.13,0.04,0.04,0.29,0.01,0.37c-0.05,0.13-0.13,0.24-0.23,0.34c-0.1,0.11-0.22,0.2-0.34,0.28C21.35,10.34,21.28,10.38,21.22,10.42
		z M25.4,14.81c-0.18,0.2-0.54,0.43-0.83,0.39c-0.33-0.05-0.64-0.32-0.68-0.66c-0.02-0.17,0.02-0.34,0.11-0.49
		c0.11-0.19,0.29-0.37,0.49-0.46c0.27-0.11,0.71,0.02,0.94,0.16C25.79,13.99,25.64,14.54,25.4,14.81z M28.43,10.52
		c-0.41-0.17-0.79-0.45-1.03-0.83c-0.01-0.02-0.02-0.05-0.02-0.06c0.04-0.11,0.15-0.19,0.26-0.23c0.42,0.25,0.68,0.76,1.01,1.15
		C28.57,10.53,28.5,10.52,28.43,10.52z M28.21,8.45c0.02-0.09,0.07-0.22,0.16-0.25c0.18,0.15,0.29,0.34,0.37,0.56
		c0.06,0.39,0.15,0.77,0.25,1.15c0.03,0.17,0.07,0.34,0.14,0.49c0,0.01,0.01,0.03,0.01,0.04C28.61,9.89,28.12,9.25,28.21,8.45z
		 M30.02,14.18c0.05,0.11,0.04,0.23,0.01,0.34c-0.02,0.09-0.05,0.18-0.11,0.25c-0.04,0.06-0.1,0.12-0.17,0.16
		c-0.09,0.06-0.22,0.11-0.33,0.11c-0.03,0-0.05,0-0.08-0.01c-0.02,0-0.05-0.01-0.07-0.02C29.25,15,29.23,15,29.21,15
		c-0.14-0.03-0.28-0.12-0.33-0.26c-0.05-0.13-0.03-0.25,0.02-0.38c0.06-0.17,0.18-0.34,0.34-0.43c0.05-0.04,0.11-0.07,0.18-0.08
		c0.03-0.01,0.07-0.01,0.1-0.01c0.09,0,0.18,0.03,0.26,0.08C29.88,13.98,29.97,14.06,30.02,14.18z M29.83,8.8
		c-0.18,0.45-0.27,0.95-0.31,1.45c-0.12-0.5-0.22-1-0.36-1.49c-0.1-0.75-0.1-1.52,0.08-2.26c0.08-0.16,0.16-0.35,0.33-0.45
		C30.3,6.27,30.08,7.61,29.83,8.8z M30,10.21c0.08-0.45,0.19-0.89,0.27-1.34c0.12-0.28,0.28-0.54,0.49-0.76
		c0.03-0.04,0.09-0.06,0.15-0.06c0.01,0,0.02,0,0.03,0c0.29,0.07,0.26,0.49,0.18,0.72C30.9,9.32,30.33,9.68,30,10.21z M30.15,10.79
		c0.36-0.45,0.71-1.1,1.26-1.35c0,0,0,0,0.01,0c0.02,0.01,0.03,0.02,0.04,0.03c0.03,0.04,0.05,0.07,0.07,0.15
		c0,0,0.01,0.03,0.01,0.07C31.4,10.31,30.66,10.5,30.15,10.79z M35.24,14.82c-0.16,0.15-0.37,0.22-0.59,0.24
		c-0.27,0.02-0.56-0.04-0.78-0.2c-0.08-0.06-0.16-0.13-0.2-0.21c-0.05-0.11-0.05-0.22-0.04-0.33c0.04-0.32,0.24-0.61,0.52-0.76
		c0.25-0.13,0.65-0.19,0.9-0.04C35.46,13.77,35.6,14.48,35.24,14.82z M38.18,12.06c-0.04,0.04-0.1,0.05-0.17,0.04
		c-0.14-0.01-0.13-0.18-0.1-0.27c0.05-0.13,0.18-0.27,0.34-0.27c0.07,0,0.13,0.04,0.16,0.11c0.01,0.01,0.03,0.16,0.01,0.17
		C38.3,11.84,38.27,11.99,38.18,12.06z M38.48,10.12c-0.27-0.07-0.52-0.22-0.74-0.44c-0.1-0.11-0.19-0.29-0.12-0.46
		c0.05-0.06,0.14-0.1,0.23-0.12h0c0.01,0,0.01,0,0.02-0.01c0,0-0.01,0-0.01,0.01c0.04,0,0.09,0,0.14,0.01c0,0,0.01,0,0.01,0
		c0.03,0.01,0.06,0.03,0.08,0.04c0.15,0.25,0.36,0.48,0.57,0.7c0.06,0.11,0.13,0.22,0.2,0.32C38.75,10.14,38.62,10.12,38.48,10.12z
		 M39.04,9.63C39.03,9.62,39.01,9.6,39,9.59c0,0,0,0-0.01-0.01c-0.06-0.1-0.12-0.2-0.18-0.3c-0.08-0.17-0.22-0.31-0.37-0.41
		c-0.17-0.35-0.21-0.72,0.09-1.04c0.01,0,0.02-0.01,0.03-0.01c0.03,0,0.05,0.02,0.08,0.05c0.13,0.17,0.23,0.35,0.32,0.54
		c0.08,0.49,0.2,0.98,0.31,1.48C39.2,9.8,39.12,9.72,39.04,9.63z M39.33,6.92c0.13-0.51,0.28-0.81,0.46-0.81
		c0.15,0,0.32,0.21,0.52,0.66c0.17,1.03-0.27,2.08-0.53,3.08c-0.08-0.54-0.18-1.06-0.4-1.55C39.29,7.85,39.25,7.4,39.33,6.92z
		 M40.22,14.34c0,0.16-0.05,0.32-0.14,0.45c-0.1,0.16-0.27,0.24-0.44,0.28c-0.05,0.01-0.09,0.02-0.14,0.02
		c-0.28,0-0.57-0.18-0.63-0.46c-0.02-0.11,0-0.23,0.04-0.34c0.04-0.1,0.09-0.2,0.19-0.26c0.12-0.14,0.29-0.21,0.47-0.21
		c0.02,0,0.03,0,0.05,0C39.9,13.84,40.21,14.03,40.22,14.34z M40.45,10.19c-0.1,0.13-0.2,0.26-0.3,0.38l-0.01,0.02
		c-0.03-0.25,0.52-2.36,0.84-2.36c0.05,0,0.1,0.06,0.13,0.18c0,0.36-0.09,0.7-0.23,1.03C40.71,9.66,40.56,9.93,40.45,10.19z
		 M40.94,10.47c-0.06,0.01-0.12,0.04-0.18,0.06c0.01-0.05,0.03-0.09,0.05-0.13c0,0,0,0,0.01-0.01c0.14-0.2,0.27-0.41,0.38-0.63
		c0.09-0.12,0.2-0.23,0.31-0.33c0.06-0.04,0.12-0.07,0.18-0.07c0.01,0,0.03,0,0.04,0C42.28,9.92,41.46,10.25,40.94,10.47z
		 M45.38,14.71c-0.1,0.17-0.32,0.19-0.5,0.2c-0.4,0.03-0.83-0.06-1.15-0.3c-0.25-0.36,0.02-0.89,0.37-1.12
		c0.13-0.09,0.28-0.13,0.42-0.13c0.24,0,0.49,0.1,0.69,0.26C45.44,13.91,45.45,14.36,45.38,14.71z M47.68,10.29
		c-0.38-0.14-1.07-0.6-0.78-1.03c0.03-0.05,0.21,0.01,0.25,0.03c0.13,0.06,0.25,0.11,0.33,0.24c0.07,0.11,0.11,0.23,0.17,0.34
		c0.1,0.18,0.21,0.36,0.34,0.52C47.85,10.35,47.75,10.32,47.68,10.29z M47.71,8.22c0.02-0.1,0.07-0.19,0.14-0.26
		c0.01-0.01,0.04-0.04,0.06-0.05c0.78,0.57,0.79,1.83,0.88,2.75C48.15,10.03,47.59,9.17,47.71,8.22z M49.57,14.13
		c0.25,0.48-0.4,1.12-0.85,0.74c-0.3-0.26-0.17-0.73,0.14-0.91c0.08-0.04,0.17-0.07,0.26-0.07C49.3,13.9,49.49,13.97,49.57,14.13z
		 M49.22,10.02c0-0.05-0.01-0.09-0.01-0.14c-0.12-1.17-0.71-2.43-0.1-3.57c0.02-0.03,0.07-0.09,0.13-0.09c0.01,0,0.01,0,0.02,0h0
		c0.11,0.03,0.17,0.11,0.24,0.21C50.09,7.56,49.53,8.87,49.22,10.02z M50.18,9.43c-0.18,0.26-0.34,0.53-0.51,0.79
		c-0.03,0.06-0.06,0.12-0.09,0.17c0.06-0.26,0.14-0.51,0.21-0.76c0.09-0.31,0.17-0.63,0.27-0.94c0.05-0.16,0.11-0.31,0.19-0.46
		c0.04-0.07,0.25-0.41,0.34-0.29c0.17,0.23,0.13,0.59,0.04,0.84C50.55,9.03,50.33,9.22,50.18,9.43z M50.43,10.23
		c-0.05,0.03-0.14,0.06-0.17,0.11c0.17-0.21,0.32-0.44,0.45-0.68c0.08-0.14,0.13-0.28,0.22-0.39c0.05-0.06,0.17-0.18,0.25-0.15
		c0.13,0.04,0.04,0.29,0.01,0.37c-0.05,0.13-0.13,0.24-0.23,0.34c-0.1,0.11-0.22,0.2-0.34,0.28C50.55,10.15,50.49,10.19,50.43,10.23
		z M54.6,14.62c-0.18,0.2-0.54,0.43-0.83,0.39c-0.33-0.05-0.64-0.32-0.68-0.66c-0.02-0.17,0.02-0.34,0.11-0.49
		c0.11-0.19,0.29-0.37,0.49-0.46c0.27-0.11,0.71,0.02,0.94,0.16C55,13.8,54.85,14.35,54.6,14.62z M57.63,10.33
		c-0.41-0.17-0.79-0.45-1.03-0.83c-0.01-0.02-0.02-0.05-0.02-0.06c0.04-0.11,0.15-0.19,0.26-0.23c0.42,0.25,0.68,0.76,1.01,1.15
		C57.77,10.35,57.7,10.34,57.63,10.33z M57.42,8.26c0.02-0.09,0.07-0.22,0.16-0.25c0.18,0.15,0.29,0.34,0.37,0.56
		c0.06,0.39,0.15,0.77,0.25,1.15c0.03,0.17,0.07,0.34,0.14,0.49c0,0.01,0.01,0.03,0.01,0.04C57.82,9.7,57.33,9.07,57.42,8.26z
		 M59.23,13.99c0.05,0.11,0.04,0.23,0.01,0.34c-0.02,0.09-0.05,0.18-0.11,0.25c-0.04,0.06-0.1,0.12-0.17,0.16
		c-0.09,0.06-0.22,0.11-0.33,0.11c-0.03,0-0.05,0-0.08-0.01c-0.02,0-0.05-0.01-0.07-0.02c-0.02,0-0.04-0.01-0.07-0.01
		c-0.14-0.03-0.28-0.12-0.33-0.26c-0.05-0.13-0.03-0.25,0.02-0.38c0.06-0.17,0.18-0.34,0.34-0.43c0.05-0.04,0.11-0.07,0.18-0.08
		c0.03-0.01,0.07-0.01,0.1-0.01c0.09,0,0.18,0.03,0.26,0.08C59.09,13.79,59.18,13.87,59.23,13.99z M59.04,8.61
		c-0.18,0.45-0.27,0.95-0.31,1.45c-0.12-0.5-0.22-1-0.36-1.49c-0.1-0.75-0.1-1.52,0.08-2.26c0.08-0.16,0.16-0.35,0.33-0.45
		C59.51,6.08,59.29,7.42,59.04,8.61z M59.2,10.02c0.08-0.45,0.19-0.89,0.27-1.34c0.12-0.28,0.28-0.54,0.49-0.76
		c0.03-0.04,0.09-0.06,0.15-0.06c0.01,0,0.02,0,0.03,0c0.29,0.07,0.26,0.49,0.18,0.72C60.1,9.14,59.53,9.49,59.2,10.02z M59.36,10.6
		c0.36-0.45,0.71-1.1,1.26-1.35c0,0,0,0,0.01,0c0.02,0.01,0.03,0.02,0.04,0.03c0.03,0.04,0.05,0.07,0.07,0.15
		c0,0,0.01,0.03,0.01,0.07C60.61,10.12,59.87,10.32,59.36,10.6z M64.45,14.63c-0.16,0.15-0.37,0.22-0.59,0.24
		c-0.27,0.02-0.56-0.04-0.78-0.2c-0.08-0.06-0.16-0.13-0.2-0.21c-0.05-0.11-0.05-0.22-0.04-0.33c0.04-0.32,0.24-0.61,0.52-0.76
		c0.25-0.13,0.65-0.19,0.9-0.04C64.67,13.58,64.81,14.29,64.45,14.63z M67.06,12.06c-0.04,0.04-0.1,0.05-0.17,0.04
		c-0.14-0.01-0.13-0.18-0.1-0.27c0.05-0.13,0.18-0.27,0.34-0.27c0.07,0,0.13,0.04,0.16,0.11c0.01,0.01,0.03,0.16,0.01,0.17
		C67.17,11.84,67.14,11.99,67.06,12.06z M67.36,10.12c-0.27-0.07-0.52-0.22-0.74-0.44c-0.1-0.11-0.19-0.29-0.12-0.46
		c0.05-0.06,0.14-0.1,0.23-0.12h0c0.01,0,0.01,0,0.02-0.01c0,0-0.01,0-0.01,0.01c0.04,0,0.09,0,0.14,0.01c0,0,0.01,0,0.01,0
		c0.03,0.01,0.06,0.03,0.08,0.04c0.15,0.25,0.36,0.48,0.57,0.7c0.06,0.11,0.13,0.22,0.2,0.32C67.63,10.14,67.5,10.12,67.36,10.12z
		 M67.92,9.63c-0.01-0.01-0.03-0.03-0.04-0.04c0,0,0,0-0.01-0.01c-0.06-0.1-0.12-0.2-0.18-0.3c-0.08-0.17-0.22-0.31-0.37-0.41
		c-0.17-0.35-0.21-0.72,0.09-1.04c0.01,0,0.02-0.01,0.03-0.01c0.03,0,0.05,0.02,0.08,0.05c0.13,0.17,0.23,0.35,0.32,0.54
		c0.08,0.49,0.2,0.98,0.31,1.48C68.07,9.8,68,9.72,67.92,9.63z M68.21,6.92c0.13-0.51,0.28-0.81,0.46-0.81
		c0.15,0,0.32,0.21,0.52,0.66c0.17,1.03-0.27,2.08-0.53,3.08c-0.08-0.54-0.18-1.06-0.4-1.55C68.17,7.85,68.12,7.4,68.21,6.92z
		 M69.1,14.34c0,0.16-0.05,0.32-0.14,0.45c-0.1,0.16-0.27,0.24-0.44,0.28c-0.05,0.01-0.09,0.02-0.14,0.02
		c-0.28,0-0.57-0.18-0.63-0.46c-0.02-0.11,0-0.23,0.04-0.34c0.04-0.1,0.09-0.2,0.19-0.26c0.12-0.14,0.29-0.21,0.47-0.21
		c0.02,0,0.03,0,0.05,0C68.78,13.84,69.09,14.03,69.1,14.34z M69.33,10.19c-0.1,0.13-0.2,0.26-0.3,0.38l-0.01,0.02
		c-0.03-0.25,0.52-2.36,0.84-2.36c0.05,0,0.1,0.06,0.13,0.18c0,0.36-0.09,0.7-0.23,1.03C69.59,9.66,69.44,9.93,69.33,10.19z
		 M69.82,10.47c-0.06,0.01-0.12,0.04-0.18,0.06c0.01-0.05,0.03-0.09,0.05-0.13c0,0,0,0,0.01-0.01c0.14-0.2,0.27-0.41,0.38-0.63
		c0.09-0.12,0.2-0.23,0.31-0.33c0.06-0.04,0.12-0.07,0.18-0.07c0.01,0,0.03,0,0.04,0C71.15,9.92,70.33,10.25,69.82,10.47z
		 M74.25,14.71c-0.01,0.03-0.03,0.06-0.06,0.08c-0.14,0.14-0.4,0.13-0.58,0.14c-0.35,0.01-0.97-0.07-1.09-0.48
		c-0.08-0.27,0.07-0.6,0.26-0.79c0.36-0.38,1.12-0.41,1.4,0.1C74.32,14.02,74.39,14.43,74.25,14.71z M76.55,10.29
		c-0.38-0.14-1.07-0.6-0.78-1.03c0.03-0.05,0.21,0.01,0.25,0.03c0.13,0.06,0.25,0.11,0.33,0.24c0.07,0.11,0.11,0.23,0.17,0.34
		c0.1,0.18,0.21,0.36,0.34,0.52C76.73,10.35,76.62,10.32,76.55,10.29z M76.59,8.22c0.02-0.1,0.07-0.19,0.14-0.26
		c0.01-0.01,0.04-0.04,0.06-0.05c0.78,0.57,0.79,1.83,0.88,2.75C77.03,10.03,76.47,9.17,76.59,8.22z M78.45,14.13
		c0.25,0.48-0.4,1.12-0.85,0.74c-0.3-0.26-0.17-0.73,0.14-0.91c0.08-0.04,0.17-0.07,0.26-0.07C78.18,13.9,78.37,13.97,78.45,14.13z
		 M78.1,10.02c0-0.05-0.01-0.09-0.01-0.14c-0.12-1.17-0.71-2.43-0.1-3.57c0.02-0.03,0.07-0.09,0.13-0.09c0.01,0,0.01,0,0.02,0h0
		c0.11,0.03,0.17,0.11,0.24,0.21C78.97,7.56,78.4,8.87,78.1,10.02z M79.06,9.43c-0.18,0.26-0.34,0.53-0.51,0.79
		c-0.03,0.06-0.06,0.12-0.09,0.17c0.06-0.26,0.14-0.51,0.21-0.76c0.09-0.31,0.17-0.63,0.27-0.94c0.05-0.16,0.11-0.31,0.19-0.46
		c0.04-0.07,0.25-0.41,0.34-0.29c0.17,0.23,0.13,0.59,0.04,0.84C79.42,9.03,79.21,9.22,79.06,9.43z M79.3,10.23
		c-0.05,0.03-0.14,0.06-0.17,0.11c0.17-0.21,0.32-0.44,0.45-0.68c0.08-0.14,0.13-0.28,0.22-0.39c0.05-0.06,0.17-0.18,0.25-0.15
		c0.13,0.04,0.04,0.29,0.01,0.37c-0.05,0.13-0.13,0.24-0.23,0.34c-0.1,0.11-0.22,0.2-0.34,0.28C79.43,10.15,79.37,10.19,79.3,10.23z
		 M83.48,14.62c-0.18,0.2-0.54,0.43-0.83,0.39c-0.33-0.05-0.64-0.32-0.68-0.66c-0.02-0.17,0.02-0.34,0.11-0.49
		c0.11-0.19,0.29-0.37,0.49-0.46c0.27-0.11,0.71,0.02,0.94,0.16C83.87,13.8,83.73,14.35,83.48,14.62z M86.51,10.33
		c-0.41-0.17-0.79-0.45-1.03-0.83c-0.01-0.02-0.02-0.05-0.02-0.06c0.04-0.11,0.15-0.19,0.26-0.23c0.42,0.25,0.68,0.76,1.01,1.15
		C86.65,10.35,86.58,10.34,86.51,10.33z M86.29,8.26c0.02-0.09,0.07-0.22,0.16-0.25c0.18,0.15,0.29,0.34,0.37,0.56
		c0.06,0.39,0.15,0.77,0.25,1.15c0.03,0.17,0.07,0.34,0.14,0.49c0,0.01,0.01,0.03,0.01,0.04C86.7,9.7,86.2,9.07,86.29,8.26z
		 M88.1,13.99c0.05,0.11,0.04,0.23,0.01,0.34c-0.02,0.09-0.05,0.18-0.11,0.25c-0.04,0.06-0.1,0.12-0.17,0.16
		c-0.09,0.06-0.22,0.11-0.33,0.11c-0.03,0-0.05,0-0.08-0.01c-0.02,0-0.05-0.01-0.07-0.02c-0.02,0-0.04-0.01-0.07-0.01
		c-0.14-0.03-0.28-0.12-0.33-0.26c-0.05-0.13-0.03-0.25,0.02-0.38c0.06-0.17,0.18-0.34,0.34-0.43c0.05-0.04,0.11-0.07,0.18-0.08
		c0.03-0.01,0.07-0.01,0.1-0.01c0.09,0,0.18,0.03,0.26,0.08C87.97,13.79,88.06,13.87,88.1,13.99z M87.91,8.61
		c-0.18,0.45-0.27,0.95-0.31,1.45c-0.12-0.5-0.22-1-0.36-1.49c-0.1-0.75-0.1-1.52,0.08-2.26c0.08-0.16,0.16-0.35,0.33-0.45
		C88.39,6.08,88.16,7.42,87.91,8.61z M88.08,10.02c0.08-0.45,0.19-0.89,0.27-1.34c0.12-0.28,0.28-0.54,0.49-0.76
		c0.03-0.04,0.09-0.06,0.15-0.06c0.01,0,0.02,0,0.03,0c0.29,0.07,0.26,0.49,0.18,0.72C88.98,9.14,88.41,9.49,88.08,10.02z
		 M88.23,10.6c0.36-0.45,0.71-1.1,1.26-1.35c0,0,0,0,0.01,0c0.02,0.01,0.03,0.02,0.04,0.03c0.03,0.04,0.05,0.07,0.07,0.15
		c0,0,0.01,0.03,0.01,0.07C89.49,10.12,88.75,10.32,88.23,10.6z M93.32,14.63c-0.16,0.15-0.37,0.22-0.59,0.24
		c-0.27,0.02-0.56-0.04-0.78-0.2c-0.08-0.06-0.16-0.13-0.2-0.21c-0.05-0.11-0.05-0.22-0.04-0.33c0.04-0.32,0.24-0.61,0.52-0.76
		c0.25-0.13,0.65-0.19,0.9-0.04C93.55,13.58,93.68,14.29,93.32,14.63z"/>
	<polygon points="10.39,14.66 10.39,14.67 10.38,14.66 	"/>
	<polygon points="10.43,14.67 10.43,14.66 10.43,14.67 	"/>
	<polygon points="10.36,14.59 10.36,14.59 10.35,14.59 	"/>
</g>
</svg>
