<?xml version="1.0" encoding="utf-8"?>
<!-- Generator: Adobe Illustrator 23.0.0, SVG Export Plug-In . SVG Version: 6.00 Build 0)  -->
<svg version="1.1" id="Слой_1" xmlns="http://www.w3.org/2000/svg" xmlns:xlink="http://www.w3.org/1999/xlink" x="0px" y="0px"
	 viewBox="0 0 100 21.28" style="enable-background:new 0 0 100 21.28;" xml:space="preserve">
<path d="M84.88,11.4c-0.66-0.47-1.11-1.21-1.86-1.56c-0.95-0.52-2.2-0.39-2.99,0.33c-0.04,0.03-0.08,0.08-0.1,0.13
	c-0.65-0.12-1.31-0.24-1.97-0.34c1.18-0.27,2.31-0.76,3.13-1.62c0.04,0.01,0.07,0.02,0.12,0.02c0.58,0.08,1.07-0.27,1.23-0.69
	c0.06,0.02,0.13,0.04,0.18,0.05c1.36,0.41,2.39-0.75,1.31-1.2c0.02-0.02,0.03-0.04,0.04-0.07c0.25-0.31,0.46-0.8,0.16-1.14
	c-0.23-0.32-0.93-0.4-1.27-0.16c-0.1-0.1-0.24-0.17-0.44-0.2c-0.75,0.04-1.07,0.86-0.9,1.5c-0.19,0.07-0.39,0.22-0.5,0.34
	c-0.38,0.29-0.56,0.9-0.33,1.27c-0.83,0.83-1.99,1.28-3.18,1.5c0.54-0.47,0.92-1.18,1.18-1.76c0.56-1.45-3,0.56-3.33,0.92
	c-0.28,0.25-0.5,0.59-0.7,0.87c-0.05,0.06-0.06,0.12-0.04,0.18c-0.16,0.01-0.32,0.03-0.47,0.04c-2.64,0.41-5.23,1.07-7.83,1.7
	c0.77-0.52,1.44-1.19,2.17-1.75c0.57-0.47,1.08-0.97,1.6-1.48c0.09,0.03,0.2,0.05,0.32,0.06c0.7,0.06,1.26-0.38,1.35-0.87
	c0.06,0.03,0.13,0.05,0.2,0.07c0.96,0.4,2.47-0.98,1.31-1.56c0.3-0.26,0.37-1,0.03-1.2c-0.25-0.19-0.86-0.25-1.18-0.04
	c-0.4-0.51-1.26-0.54-1.57,0.18c-0.2,0.26-0.26,1.18,0.01,1.56c-0.08,0.04-0.15,0.09-0.2,0.13c-0.48,0.29-0.82,0.95-0.64,1.36
	c-0.68,0.66-1.35,1.3-2.13,1.9c-0.49,0.39-0.94,0.82-1.45,1.18c0.33-0.49,0.55-1.04,0.7-1.6c0.15-0.54,0.16-1.11,0.39-1.63
	c0.03-0.06,0.06-0.13,0.05-0.19c-0.03-0.57-0.73,0.23-0.8,0.3c-0.21,0.2-0.46,0.36-0.7,0.52c-0.5,0.34-1.04,0.67-1.4,1.18
	c-0.53,0.71-0.48,1.64-0.54,2.45c-1.48,0.34-2.97,0.62-4.48,0.82c-1.58,0.4-3.07,0.62-4.49,0.7c1.07-0.41,2.07-1.05,2.99-1.69
	c0.15-0.13,0.61-0.38,0.73-0.59c0.57,0.04,1.14-0.31,1.5-0.72c0.1,0.03,0.21,0.04,0.29,0.04c0.68,0.01,1.62-0.02,1.93-0.7
	c0.08-0.32-0.07-0.6-0.32-0.79c0.28-0.26,0.37-0.93,0.14-1.18c-0.23-0.25-0.77-0.34-1.14-0.21c-0.04-0.07-0.11-0.13-0.18-0.19
	c-0.96-0.77-2.28,0.37-2,1.41c0.02,0.12,0.05,0.29,0.11,0.44c-0.49,0.37-1.08,1.18-0.71,1.66c-1.41,0.9-2.83,2.02-4.55,2.38
	c-0.06,0.03-0.14,0.05-0.23,0.06c0.37-0.19,0.71-0.42,1.02-0.7c0.21-0.26,2.23-2.24,1.44-2.27c-0.3-0.2-0.76,0.05-1.1,0.1
	c-1.62,0.33-3.16,1.33-4,2.72c-0.02,0.03-0.03,0.06-0.03,0.09c-2.43-0.3-4.68-0.95-6.89-1.7c1.13-0.18,3.38-1.09,3.96-1.63
	c0.06,0.04,0.14,0.08,0.23,0.11c0.29,0.1,0.69,0.03,0.95-0.15c0.2,0.07,0.45,0.12,0.59,0.17c0.84,0.28,2.04-0.68,1.42-1.3
	c0.45-0.39,0.68-1.28-0.04-1.51c-0.31-0.09-0.67-0.13-0.99-0.06c-0.02-0.05-0.05-0.09-0.09-0.13c-1.04-0.77-2.2,0.84-1.85,1.75
	c-0.27,0.17-0.47,0.46-0.45,0.72c-0.81,0.53-1.72,0.93-2.66,1.22c0.27-0.22,0.5-0.47,0.7-0.73c0.16-0.21,0.3-0.39,0.55-0.53
	c0.37-0.35-0.17-0.55-0.5-0.46c-1.55,0.06-3.4-0.02-4.31,1.44c-0.04,0.04-0.07,0.09-0.1,0.15c-2.67-0.97-5.34-1.94-8.25-2.48
	c1.09-0.18,2.52-0.5,2.95-0.85c0.02,0,0.03,0,0.04,0c0.09,0.11,0.23,0.19,0.38,0.21c0.25,0.05,0.5-0.03,0.67-0.18
	c0.55,0.25,1.13,0.45,1.73,0.55c1.22,0.2,1.87-0.98,1.12-1.62c0.11-0.08,0.2-0.19,0.23-0.28c0.46-0.9-0.71-1.37-1.5-1.14
	c-0.01-0.26-0.12-0.5-0.38-0.67c-1.16-0.5-2.07,1.09-1.96,2.05c0,0.01,0,0.03,0,0.04c-0.34,0.08-0.63,0.36-0.6,0.69
	c-0.75,0.26-1.54,0.52-2.35,0.69c1-0.86,1.86-2.21,0.43-1.93c-1.45,0.23-3.22,0.64-3.9,2.03c-0.01,0.01-0.02,0.03-0.02,0.05
	c-0.75-0.04-1.53-0.06-2.32-0.02c-0.89,0.09-1.78,0.18-2.66,0.29c-0.04,0-0.08,0.01-0.12,0.01c-1.05,0.13-2.09,0.28-3.13,0.46
	c1.05-0.68,1.93-1.6,2.79-2.48c0.02,0.01,0.04,0.02,0.05,0.03c0.59,0.35,1.43-0.11,1.61-0.68c0.35,0.1,0.83,0.11,1.05,0.18
	c1.82,0.28,2.3-1.07,1.41-1.57c0.17-0.15,0.24-0.48,0.25-0.66c-0.02-0.58-0.75-0.77-1.25-0.6c-0.13-0.79-1.24-1.02-1.86,0.26
	c-0.07,0.25-0.37,0.93-0.34,1.37c-0.71-0.09-1.52,0.66-1.27,1.33c-0.34,0.26-0.74,0.86-0.97,0.99c-0.13,0.13-0.27,0.26-0.41,0.39
	c0.2-0.42,0.32-0.89,0.38-1.35c0.06-0.19,0.02-0.44-0.23-0.45c-1.13,0.51-2.53,1.13-3.05,2.31c-0.09,0.38-0.51,0.95-0.25,1.3
	c0,0.02,0,0.04,0.01,0.06c-1.44,0.31-2.87,0.69-4.27,1.17c-0.05,0-0.1,0.02-0.14,0.04c-0.04,0.01-0.07,0.03-0.11,0.04
	c-0.13,0.04-0.21,0.16-0.18,0.29c0.03,0.12,0.18,0.21,0.3,0.17c0.1-0.03,0.2-0.06,0.3-0.09c0.11-0.01,0.23-0.03,0.34-0.04
	c0.2,1.07,1.13,1.74,2.24,1.75c0.4,0.04,3.11,0.39,2.11-0.44c-0.68-0.32-1.03-1.05-1.68-1.42c-0.02-0.03-0.07-0.06-0.13-0.09
	c1.36,0.03,2.74,0.32,3.88,1.03c-0.15,0.23-0.12,0.54,0.24,0.86c0.09,0.07,0.18,0.12,0.29,0.14c-0.02,0.1-0.02,0.22-0.01,0.3
	c-0.08,0.7-0.04,1.63,0.7,2.01c0.64,0.19,1.09-0.22,1.22-0.75c0.15,0.13,0.31,0.22,0.44,0.19c0.86,0.11,1.08-0.84,0.45-1.24
	c0.04-0.02,0.08-0.04,0.12-0.06c0.35-0.29,0.19-0.85-0.2-1.02c-0.21-0.22-1.1-0.4-1.7-0.34c-0.01-0.01-0.02-0.03-0.02-0.04
	c-0.28-0.38-0.73-0.45-1.09-0.34c-1.41-0.93-3.12-1.23-4.82-1.19c0.2-0.06,0.41-0.13,0.62-0.19c1.67-0.38,3.37-0.73,5.09-0.99
	c0.2,1.86,2.6,2.2,4.12,2.74c1.39,0.28-0.41-1.72-0.61-2.16c-0.21-0.23-0.47-0.49-0.77-0.71c0.03,0.01,0.05,0.01,0.07,0.02
	c1.05,0.2,2.04,0.8,2.79,1.54c-0.24,0.32-0.17,0.79,0.2,1c-0.32,0.63-0.46,1.96,0.02,2.09c0.29,0.1,0.56,0.02,0.77-0.15
	c0.07,0.06,0.16,0.12,0.24,0.19c0.88,0.69,1.93-0.12,1.48-0.98c0.54-0.23,0.77-0.84-0.04-1.36c-0.17-0.16-0.62-0.31-1-0.32
	c-0.11-0.4-0.81-0.89-1.19-0.78c-0.02,0-0.05,0.01-0.07,0.02c-0.04-0.05-0.09-0.1-0.16-0.14c-0.63-0.62-1.41-1.11-2.26-1.4
	c2.52-0.14,5.04,0.01,7.48,0.68c-0.08,0.18-0.07,0.44-0.08,0.6c0.16,1.56,1.58,2.69,2.99,3.31c0.21,0.1,0.41-0.13,0.34-0.31
	c-0.01-0.44-0.46-1.54-1.02-2.43c0.83,0.54,1.59,1.19,2.34,1.83c-0.25,0.31-0.15,0.79,0.13,1.07c-0.06,0.07-0.11,0.14-0.16,0.19
	c-0.42,0.46-0.71,1.2-0.24,1.72c0.32,0.29,0.76,0.27,1.1,0.07c0.19,0.25,0.47,0.44,0.78,0.49c0.55,0.11,1-0.44,0.95-0.94
	c0-0.04,0-0.08-0.01-0.11c0.37-0.1,0.58-0.44,0.27-1.02c-0.25-0.52-0.81-0.81-1.36-1c-0.01-0.09-0.04-0.17-0.09-0.25
	c-0.15-0.32-0.65-0.65-1-0.57c-0.02-0.02-0.04-0.03-0.05-0.05c-0.78-0.64-1.55-1.3-2.4-1.85c2.84,0.93,5.63,2.06,8.48,2.92
	c0,0.06,0.01,0.12,0.03,0.18c0.34,1.71,2.08,2.79,3.68,3.35c0.12,0.05,0.23,0.01,0.3-0.07c0.07-0.05,0.11-0.13,0.07-0.24
	c-0.25-0.47-1-1.82-1.75-2.59c0.34,0.08,0.68,0.15,1.02,0.22c0.01,0.02,0.03,0.03,0.05,0.04c0.76,0.37,1.38,0.89,1.99,1.45
	c-0.27,0.38,0.04,1.12,0.58,1.32c-0.16,0.84-0.23,1.89,0.6,2.4c0.41,0.26,0.87,0.12,1.12-0.2c0.05,0.03,0.11,0.04,0.18,0.06
	c0.36,0.15,0.82,0.15,1.12-0.12c0.21-0.23,0.33-0.7,0.2-1.03c0.33-0.23,0.52-0.65,0.31-1.05c-0.56-0.74-1.57-0.73-2.45-0.79
	c-0.09-0.39-0.64-0.81-1.02-0.82c-0.08-0.01-0.16,0-0.22,0c-0.34-0.39-0.75-0.74-1.2-1.05c0.81,0.12,1.63,0.2,2.46,0.23
	c1.26-0.03,2.52-0.13,3.77-0.28c0,0.02,0.02,0.03,0.02,0.05c0.41,1.1,1.47,1.89,2.68,2.01c1.09,0.18,2.14-0.25,3.18-0.51
	c0.13-0.01,0.23-0.12,0.23-0.24c0-0.1-0.04-0.18-0.13-0.22c-0.38-0.19-1.7-0.95-2.84-1.38c2.07-0.12,4.16,0.21,6.13,0.86
	c-0.07,0.37,0.13,0.81,0.73,1.1c0.16,0.07,0.32,0.07,0.49,0.02c0,0.53,0.14,1.09,0.5,1.49c0.56,0.47,1.52,0.19,1.53-0.43
	c0.01,0,0.02,0,0.04,0c0.61,0.08,1.46-0.39,1.07-1.04c-0.07-0.11-0.17-0.29-0.29-0.44c0.49-0.31,0.56-0.78-0.52-1.17
	c-0.53-0.1-1.08,0.01-1.58,0.18c-0.07-0.08-0.16-0.15-0.29-0.2c-0.61-0.33-1.14-0.23-1.44,0.05c-0.39-0.17-0.91-0.22-1.3-0.38
	c-1.11-0.29-2.26-0.47-3.41-0.53c2.2-0.42,4.38-0.91,6.56-1.36c0.57-0.15,1.14-0.29,1.71-0.44c0.01,0.01,0.02,0.03,0.04,0.04
	c0.66,0.94,1.76,1.4,2.93,1.4c0.38,0,0.74,0.03,1.12-0.01c0.17-0.02,0.56,0.03,0.65-0.14c0.06-0.11-0.01-0.22-0.08-0.31
	c-0.15-0.22-0.41-0.34-0.61-0.51c-0.34-0.29-0.7-0.56-1.09-0.77c1.33,0.08,2.58,0.74,3.76,1.29c-0.12,0.44,0.04,1,0.52,1.2
	c0.21,0.13,0.42,0.15,0.61,0.1c0.1,0.54,0.85,1.49,1.11,1.57c0.89,0.45,1.28-0.06,1.23-0.68c0.55,0.01,1.24-0.21,1.19-0.81
	c-0.02-0.2-0.25-0.56-0.5-0.74c0.41-0.49-0.14-1.2-1.48-1.09c-0.17,0.03-0.53,0.06-0.77,0.16c-0.31-0.18-0.82-0.3-1.03-0.32
	c-0.29-0.04-0.52,0.05-0.68,0.2c-1.14-0.63-2.43-1.21-3.77-1.34c0.7-0.13,1.41-0.23,2.13-0.29c1.83-0.08,3.66,0.31,5.46,0.61
	c1,1.17,2.98,1.03,4.43,1.12C85.19,12.03,85.32,11.58,84.88,11.4z M83.86,7.1c-0.01,0.02-0.02,0.04-0.04,0.06
	c-0.14,0.09-0.3,0.13-0.52,0.14c-0.29,0.01-0.58-0.02-0.85-0.15c0-0.01-0.01-0.02-0.02-0.03c0.02-0.03,0.03-0.06,0.04-0.09
	c0.36-0.25,1.1-0.29,1.4,0.04C83.87,7.08,83.86,7.09,83.86,7.1z M83.01,5.6c0.02-0.01,0.03-0.01,0.04-0.03c0,0,0.01,0,0.01,0v0
	c0.23-0.09,0.66-0.17,0.71,0.15c0,0.19-0.15,0.37-0.27,0.53c-0.04,0.04-0.06,0.09-0.08,0.15c-0.06-0.01-0.13-0.01-0.2-0.02
	c-0.13-0.02-0.32,0-0.52,0.05C82.89,6.16,83,5.86,83.01,5.6z M82.29,5.46c0.06-0.03,0.13-0.05,0.18-0.01c0,0,0-0.01-0.01-0.01
	c0,0,0,0,0.01,0v0c0,0,0,0,0,0v0c0,0,0,0,0,0c0.13,0.28-0.2,0.8-0.44,1C81.9,6.12,81.93,5.66,82.29,5.46z M72.3,5.22
	c0.03-0.01,0.06-0.04,0.08-0.07c0.24-0.07,0.71-0.13,0.63,0.22c-0.02,0.15-0.22,0.34-0.21,0.51c-0.2,0.01-0.42,0.06-0.63,0.13
	C72.27,5.76,72.31,5.48,72.3,5.22z M71.86,6.8c0.26-0.3,0.93-0.65,1.3-0.3c0.07,0.35-0.47,0.62-0.81,0.62
	c-0.16,0-0.36-0.04-0.5-0.14C71.88,6.92,71.88,6.86,71.86,6.8z M71.15,4.91c0.22-0.19,0.4-0.03,0.58,0.15
	c0.21,0.32-0.02,0.8-0.2,1.11c-0.11,0.14-0.22,0.24-0.38,0.35c-0.01,0.01-0.02,0.01-0.02,0.02c-0.01,0-0.02-0.01-0.03-0.01
	c-0.02-0.04-0.04-0.06-0.06-0.08c0.01-0.05,0-0.1-0.02-0.15C70.82,5.87,70.76,5.27,71.15,4.91z M61.15,8.22
	c0.11-0.03,0.23-0.03,0.36-0.02c0.32-0.03,0.29,0.31,0.18,0.52c-0.04,0.07-0.13,0.15-0.17,0.24c-0.05-0.01-0.11-0.01-0.17-0.01
	c-0.16-0.01-0.3,0.01-0.45,0.04C61.06,8.74,61.16,8.47,61.15,8.22z M61.59,9.47c0.05,0.02,0.14,0.08,0.18,0.13
	c0.02,0.05,0.07,0.14,0.06,0.21v0c-0.31,0.34-0.91,0.35-1.39,0.35c-0.09,0-0.18-0.03-0.28-0.04c0,0,0,0,0,0
	c-0.03-0.09-0.08-0.18-0.14-0.26c0.26-0.09,0.56-0.31,0.77-0.34C61.02,9.43,61.35,9.38,61.59,9.47z M59.33,8.36
	c0.12-0.26,0.43-0.54,0.73-0.57c0.21,0,0.49,0.13,0.58,0.33c0.03,0.52-0.38,1.01-0.85,1.29c-0.01,0-0.01,0-0.02,0.01
	c-0.03,0.01-0.05,0.02-0.08,0.03c-0.04,0.01-0.06,0.03-0.09,0.04c-0.02-0.01-0.04-0.02-0.05-0.03c-0.02-0.09-0.07-0.15-0.14-0.18
	C59.26,9.02,59.26,8.67,59.33,8.36z M50.67,9.38c-0.23,0.55-0.92,0.47-1.43,0.26c-0.01-0.09-0.05-0.19-0.14-0.3c0,0,0,0,0,0
	c0-0.01,0-0.01-0.01-0.02c0.04-0.04,0.09-0.07,0.13-0.11c0.1-0.04,0.2-0.08,0.32-0.09c0.34-0.04,0.8-0.07,1.09,0.13
	C50.7,9.27,50.68,9.34,50.67,9.38z M50.02,7.86c0.01,0,0.02-0.01,0.02-0.01c0.19-0.02,0.86-0.09,0.9,0.19
	c0.01,0.1-0.04,0.23-0.09,0.34c-0.04,0.1-0.17,0.2-0.25,0.31c-0.21-0.07-0.55-0.09-0.89-0.06C49.86,8.37,49.98,8.11,50.02,7.86z
	 M49.55,7.6c0.02,0.04,0.02,0.13,0,0.17c-0.14,0.35-0.31,0.73-0.6,1.02h0c-0.08,0.03-0.14,0.06-0.2,0.1
	c-0.06-0.03-0.13-0.04-0.21-0.04C48.4,8.27,48.89,7.31,49.55,7.6z M39.06,7.6c-0.6-0.04-1.21-0.27-1.77-0.51
	c0-0.06-0.01-0.13-0.04-0.2c0.13-0.06,0.27-0.14,0.39-0.23c0.56-0.19,1.2-0.16,1.75,0.03C40.06,6.98,39.68,7.61,39.06,7.6z
	 M38.54,5.53c0.13,0,0.29-0.06,0.42-0.08c0.49-0.09,1.1,0.23,0.59,0.66c0.01,0,0.02,0,0.04,0c-0.06,0.01-0.12,0.03-0.16,0.07
	c-0.02-0.01-0.04-0.01-0.05-0.02c-0.36-0.08-0.75-0.12-1.14-0.1C38.36,5.89,38.47,5.71,38.54,5.53z M37.67,4.75
	c0.09-0.04,0.27-0.09,0.36,0.02c0.31,0.52-0.17,1.11-0.7,1.48c-0.16,0.06-0.32,0.14-0.46,0.24c-0.02-0.01-0.04-0.02-0.05-0.03
	C36.75,5.79,37.03,5.1,37.67,4.75z M28.48,4.77c0.05,0.2-0.14,0.38-0.34,0.44c-0.69,0.19-1.41-0.02-2.11-0.19
	c0-0.01-0.01-0.03-0.02-0.05c0.24-0.05,0.49-0.28,0.71-0.31c0.53-0.2,1.09-0.31,1.63-0.07C28.41,4.62,28.47,4.7,28.48,4.77z
	 M27.47,3.51c0.05-0.01,0.11-0.05,0.16-0.12c0.01,0,0.01,0,0.02-0.01s0.01-0.01,0.01-0.01c0.16-0.08,0.4-0.07,0.59,0.02
	c0.19,0.18-0.1,0.41-0.12,0.61c-0.26-0.05-0.59-0.05-0.97,0.03C27.3,3.85,27.4,3.67,27.47,3.51z M26.9,2.72
	c0.52,0.61-0.49,1.48-1.04,1.8C25.93,3.87,26.1,2.87,26.9,2.72z M25.21,13.8c-0.32-0.01-0.42-0.32-0.53-0.58
	c0.26,0.02,0.58,0.11,0.72,0.35C25.48,13.69,25.37,13.79,25.21,13.8z M23.77,12.09c0.53-0.09,1.14,0,1.55,0.34
	c0.04,0.04,0.04,0.11,0.03,0.16c0,0,0,0,0,0h0c-0.04,0.01-0.09,0.03-0.16,0.03c-0.52,0-1.07-0.1-1.49-0.43
	C23.73,12.16,23.75,12.13,23.77,12.09z M23.27,12.48C23.27,12.48,23.27,12.48,23.27,12.48c0.32,0.28,0.68,0.51,0.84,0.9
	c0.17,0.38,0.16,0.91-0.36,1.01c-0.05,0-0.09,0-0.13-0.02h0v0C23.05,13.94,23.24,13.11,23.27,12.48z M31.34,13.13
	c-0.31,0.17-0.66-0.08-0.9-0.29c0.1-0.18,0.16-0.38,0.17-0.56c0.26,0.18,0.54,0.25,0.8,0.24C31.43,12.74,31.51,13.02,31.34,13.13z
	 M30.35,11.31c0.17,0.07,0.31-0.13,0.51-0.1c0.41,0.01,1.53,0.63,0.66,0.84c-0.52,0-0.95-0.31-1.21-0.73
	C30.33,11.32,30.34,11.32,30.35,11.31z M29.82,11.47c0.1,0.23,0.3,0.42,0.29,0.69c0,0.32-0.13,0.7-0.5,0.79c0,0,0,0,0,0
	C29.47,12.45,29.57,11.94,29.82,11.47z M40.55,13.11c0.15,0.04,0.3,0.08,0.38,0.15c0.34,0.17,0.75,0.51,0.72,0.92
	c-0.01,0.01-0.02,0.02-0.03,0.02c-0.14,0.04-0.36-0.06-0.5-0.15c-0.27-0.2-0.5-0.49-0.7-0.79C40.47,13.22,40.52,13.17,40.55,13.11z
	 M40.59,14.25c0.18,0.2,0.41,0.32,0.64,0.38c0,0.03,0.01,0.06,0.02,0.1c0.05,0.19-0.09,0.52-0.36,0.48
	c-0.18-0.04-0.32-0.13-0.45-0.28c-0.02-0.03-0.04-0.05-0.05-0.06C40.53,14.69,40.61,14.48,40.59,14.25z M39.76,13.45
	c0.06,0.02,0.13,0.02,0.18,0.02c0.2,0.49,0.28,1.23-0.33,1.38c0,0-0.01,0-0.01,0c-0.15,0.02-0.32,0.01-0.37-0.14
	C39.04,14.24,39.44,13.81,39.76,13.45z M53.49,18.23c0.01-0.04,0.01-0.08,0.01-0.12c0-0.22-0.06-0.42-0.15-0.62
	c0.25,0.13,0.47,0.22,0.57,0.21c0.14,0.05,0.28,0.07,0.41,0.06C54.44,18.4,54.02,18.48,53.49,18.23z M52.45,16.22
	c0.72,0.09,1.92-0.06,2.25,0.67c-0.05,0.18-0.16,0.38-0.36,0.39C53.59,17.24,52.95,16.74,52.45,16.22
	C52.45,16.22,52.45,16.22,52.45,16.22z M52.06,16.59c0.41,0.46,1.39,1.4,0.68,1.95c-0.02,0-0.07,0.01-0.12,0.01
	C51.81,18.33,51.95,17.26,52.06,16.59z M68.93,16.1c-0.05-0.01-0.1-0.01-0.14-0.01c-0.09-0.13-0.28-0.39-0.51-0.64
	c0.34,0.02,0.7-0.02,1.01-0.12c0.13,0.17,0.36,0.34,0.38,0.53C69.63,16.08,69.21,16.12,68.93,16.1z M67.77,14.59
	c0.46-0.15,0.91-0.27,1.42-0.19c0.12,0.04,0.4,0.15,0.4,0.28c-0.43,0.21-0.95,0.31-1.42,0.26c-0.11-0.04-0.3-0.12-0.47-0.15
	C67.74,14.73,67.76,14.66,67.77,14.59z M67.44,15.33c0.38,0.38,0.87,0.72,1.02,1.23c0.01,0.05,0,0.12-0.05,0.15
	c-0.07,0.04-0.13,0.05-0.22,0.06C67.48,16.82,67.43,15.84,67.44,15.33z M80.4,13.7c-0.05,0.25-0.53,0.28-0.79,0.26
	c-0.01,0-0.02,0-0.03,0c-0.11-0.24-0.28-0.47-0.51-0.61c0.38-0.01,0.68-0.07,0.9-0.16C80.11,13.36,80.35,13.45,80.4,13.7z
	 M78.22,12.52c0.04-0.03,0.07-0.06,0.1-0.09c0.04-0.01,0.07-0.02,0.1-0.03c0.5-0.15,1.22-0.23,1.63,0.15c0,0,0.01,0.01,0.01,0.02
	c-0.51,0.45-1.25,0.31-1.84,0.09c0,0-0.01,0-0.01,0C78.21,12.61,78.22,12.57,78.22,12.52z M77.99,13.11
	c0.22,0.23,0.64,0.5,0.79,0.63c0.27,0.22,0.51,0.58,0.45,0.96c-0.07,0.24-0.42,0.07-0.59-0.03c-0.38-0.34-0.64-0.8-0.8-1.29
	c-0.01-0.02-0.02-0.04-0.02-0.06C77.88,13.25,77.94,13.18,77.99,13.11z"/>
</svg>
