<?xml version="1.0" encoding="utf-8"?>
<!-- Generator: Adobe Illustrator 23.0.0, SVG Export Plug-In . SVG Version: 6.00 Build 0)  -->
<svg version="1.1" id="Слой_1" xmlns="http://www.w3.org/2000/svg" xmlns:xlink="http://www.w3.org/1999/xlink" x="0px" y="0px"
	 viewBox="0 0 100 21.28" style="enable-background:new 0 0 100 21.28;" xml:space="preserve">
<path d="M88.32,5.65c-2.95-0.95-5.36,0.21-6.99,2.24c0.17-1.45,0.43-3.46-1.02-4.33c-1.93-0.59-2.4,1.99-2.16,3.4
	c0.01,0.03,0.01,0.06,0.02,0.09c-0.23-0.21-0.48-0.41-0.75-0.57c-2.98-1.38-5.34-0.79-7.03,0.93c0.25-0.74,0.4-1.49,0.34-2.27
	c-0.29-2.08-2.49-3.09-3.29-0.66c-0.51,1.42-0.15,2.86,0.15,4.3c-1.75-3.63-7.09-3.81-9.5-0.73c0.37-1.39,0.52-2.81,0.09-4.18
	C57.64,3,56.6,2.83,55.8,3.49c-0.9,0.8-0.8,2.19-0.61,3.28c0.1,0.42,0.19,0.85,0.27,1.28c-2.12-2.31-6.24-2.62-8.44-0.23
	c2.28-6.34-5.24-7.44-3.16-0.38c0.1,0.4,0.2,0.8,0.28,1.21c-0.39-0.63-0.9-1.2-1.57-1.63C39.99,5.73,36.55,6,34.63,7.94
	c0.4-1.24,0.67-2.48,0.25-3.77c-0.32-0.58-0.6-1.34-1.3-1.53c-0.93-0.11-1.91,0.45-2.2,1.36c-0.34,0.92-0.23,1.78,0.06,2.63
	c-2.36-1.98-5.98-2.05-8.82,0.48c0.22-0.61,0.39-1.23,0.45-1.88c0.07-0.74-0.04-1.59-0.63-2.05c-0.24-0.19-0.55-0.3-0.85-0.35
	c-1.32-0.22-2.66,0.48-2.92,1.84c-0.1,0.55-0.04,1.12,0.07,1.67c0.17,0.87,0.47,1.7,0.77,2.53c-0.42-0.6-0.92-1.14-1.48-1.6
	c-1.43-1.16-3.31-1.29-5.07-1.02c-1.7,0.26-3.35,1-4.55,2.25c-0.31,0.41-1.54,1.85-0.61,2.08c0.13,0.01,0.29-0.11,0.31-0.28
	c0.32-1.14,1.31-1.97,2.32-2.53c1.67-0.82,3.69-1.29,5.53-0.81c2.51,0.65,4.47,3.73,4.3,6.25c-0.22,3.22-4.4,6.3-7.44,4.41
	c-1.32-0.82-1.87-2.9-1.05-4.23c0.41-0.66,1.11-1.13,1.87-1.31c0.51-0.12,1.07-0.12,1.55,0.12c0.47,0.23,0.84,0.72,0.83,1.25
	c-0.25-0.31-0.64-0.51-1.04-0.52c-0.4-0.01-0.8,0.17-1.06,0.47c-0.33,0.38-0.4,0.99-0.08,1.37c0.31,0.36,0.87,0.4,1.33,0.28
	c0.56-0.15,1.08-0.51,1.32-1.03c0.34-0.75,0.01-1.69-0.65-2.18c-0.66-0.49-1.56-0.58-2.35-0.38c-0.05,0.01-0.11,0.03-0.16,0.05
	c-3.39,1.05-3.36,6.05,0.05,7.03c0.54,0.15,1.12,0.2,1.7,0.15c1.77-0.15,3.51-0.99,4.64-2.38c0.94-1.16,1.26-2.52,1.14-3.87
	c0.03-0.07,0.05-0.14,0.04-0.24c-0.01-0.25,0.11-0.74,0.18-0.98c0.08-0.29,0.16-0.57,0.25-0.85c0.05-0.16,0.11-0.33,0.17-0.49
	c0.04-0.09,0.08-0.2,0.11-0.3c0.03-0.07,0.05-0.14,0.08-0.21c0.01-0.03,0.02-0.05,0.04-0.07c0.63-1.37,1.88-2.4,3.27-2.98
	c1.81-0.78,4.17-0.68,5.8,0.52c2.38,2.04,3.3,6.02,0.97,8.46c-1.64,2.36-6.67,3.9-7.34-0.04c-0.21-2.35,1.98-4.02,4.06-2.54
	c-1.21-0.33-2.29,1.25-1.16,2.07c0.74,0.53,1.98,0.43,2.27-0.55c0.56-1.71-1.54-2.8-2.99-2.71c-3.79,0.34-3.61,6.56,0.16,6.79
	c3.6,0.19,7.05-3.03,7.04-6.64c-0.01-0.19-0.05-0.37-0.07-0.56c0.21-1.09,0.61-2.31,1.5-3.04c1.84-1.2,4.28-1.53,6.38-0.8
	c3.19,1.29,3.37,5.84,1.69,8.44c-1.83,2.76-6.81,3.13-6.6-1.16c0-2.02,3.3-3.82,4.18-1.44c-0.52-0.83-1.76-0.47-2.2,0.25
	c-0.59,0.97,0.41,2.01,1.42,1.94c2.13-0.1,1.79-3.39-0.02-3.84c-4.62-1.04-5.59,6.67-0.96,6.95c3.53,0.26,5.73-2.94,5.87-6.15
	c0.03-0.04,0.05-0.08,0.08-0.12c0.46-1.61,1.38-3.05,2.65-4.14c2.1-1.99,5.85-1.42,7.55,0.84c0.25,0.42,0.42,0.89,0.56,1.36
	c0.05,0.25,0.11,0.5,0.17,0.75c0.28,1.91-0.33,3.95-1.82,5.25c-1.48,1.17-3.16,1.55-4.73,0.27c-1.44-1.18-0.96-3.85,1.06-4.08
	c0.91-0.27,2.07,0.57,2.15,1.51c-0.85-2.43-3.55,0.43-1.38,1.63c2.23,0.76,2.66-2.58,0.87-3.43c-1.18-0.86-3.04-0.26-3.72,0.96
	c-1.47,2.13,0.69,4.81,3.01,4.86c3.11-0.06,5.12-2.91,5.28-5.82c0.01-0.02,0.02-0.04,0.02-0.06c0.06-0.18,0.13-0.36,0.19-0.54
	c0.65-1.69,1.55-3.37,3.16-4.33c5.74-2.86,9.81,3.76,6.42,8.58c-1.11,1.37-3.6,2.31-5.16,1.17c-0.94-0.97-1.77-2.61-1.14-3.94
	c0.38-0.64,1.04-1.19,1.77-1.37c0.47-0.11,0.99,0.09,1.38,0.34c0.36,0.22,0.87,0.66,0.84,1.14c0,0.06-0.45-0.21-0.5-0.24
	c-0.16-0.11-0.32-0.19-0.51-0.21c-0.31-0.04-0.62,0.06-0.85,0.27c-0.6,0.52-0.39,1.35,0.13,1.84c0.67,0.5,1.88,0.57,2.29-0.3
	c1.03-2.99-3.05-4.76-4.8-2.23c-1.57,1.96,0.19,5.81,2.73,5.82c3.41,0.27,5.67-2.94,5.72-6.08c0.03-0.09,0.05-0.19,0.09-0.28
	c0.29-0.77,0.69-1.55,1.08-2.35c0.75-1.24,1.77-2.29,3.13-2.75c2.61-0.5,4.76,0.17,5.84,1.95c0.21,0.86,0.46,1.71,0.74,2.52
	c0.02,0.22,0.02,0.45,0.02,0.68c0.05,2.26-0.86,5.34-3.53,5.55c-1.32,0.04-3.19-0.16-3.55-1.69c-0.49-1.4,0.42-2.8,1.72-3.37
	c0.62-0.21,1.42,0.09,1.85,0.61c0,0,0,0,0,0c-1.5-0.63-2.83,1.89-1.03,2.39c1.26,0.53,2.36-0.8,1.94-2.01
	c-0.36-1.45-2.36-2.25-3.55-1.29c-3.13,1.9-1.73,6.25,1.96,6.03c3.24,0.18,4.9-2.92,4.89-6.03c0.73-1.68,1.72-3.84,3.32-4.89
	c1.09-0.62,2.17-1.1,3.45-0.99c1.3,0.12,2.63,0.57,3.53,1.52c0.87,0.93,1.24,2.22,1.42,3.48c0.32,2.14-0.11,4.28-1.96,5.61
	c-1.12,0.8-2.65,1.06-3.92,0.46c-1.12-0.54-1.98-1.71-1.77-2.99c0.13-0.78,0.54-1.64,1.35-1.89c0.77-0.25,1.78-0.23,2.22,0.59
	c-1.09-1.04-2.26,0.67-1.51,1.67c0.55,0.63,1.76,0.84,2.27,0.06c0.68-0.92-0.08-2.26-0.88-2.84c-0.95-0.51-2.26-0.39-3.09,0.29
	c-2.67,2.45-0.03,6.62,3.31,6.11C94.04,17.66,94.02,7.04,88.32,5.65z M19.47,4.2c0.32-0.46,0.86-0.71,1.4-0.76
	C23.21,3.21,22.4,6,21.89,7.3c-0.22,0.56-0.47,1.11-0.7,1.66c-0.14,0.33-0.61,1.15-0.51,1.51c-0.1-0.39-0.21-0.78-0.32-1.17
	c-0.13-0.45-0.28-0.9-0.43-1.34C19.58,6.79,18.93,5.38,19.47,4.2z M32.63,3.44c0.27-0.09,0.66-0.27,0.94-0.12
	c1.74,1.69,0.46,4.25-0.14,6.24c-0.03-0.08-0.06-0.15-0.09-0.23c-0.16-0.48-0.33-0.94-0.54-1.4C31.98,6.65,31.09,4.52,32.63,3.44z
	 M45,10.24c-0.11-1.01-0.25-2.01-0.53-2.99c-0.21-1.05-0.57-2.16-0.19-3.21c0.15-0.37,0.48-0.72,0.88-0.84
	c0.38-0.06,0.75,0.17,1.07,0.4C47.67,5.79,46.13,8.28,45,10.24z M57.02,3.72c1.8,0.86,0.11,5.25-0.4,6.83
	c-0.04-0.23-0.1-0.47-0.17-0.69c-0.03-0.16-0.05-0.31-0.08-0.47C56.19,7.84,54.58,3.92,57.02,3.72z M68.61,3.79
	c0.18-0.15,0.4-0.11,0.6-0.02c1.72,1.29,0.63,3.87-0.29,5.7c-0.05,0.09-0.09,0.18-0.14,0.27c-0.1,0.19-0.19,0.37-0.28,0.54
	c-0.06-0.81-0.29-1.59-0.44-2.38C67.77,6.51,67.51,4.91,68.61,3.79z M79.07,8.1c-0.32-1.09-0.84-3.66,0.77-4
	c0.11-0.04,0.21,0.04,0.31,0.11c0.21,0.16,0.41,0.43,0.48,0.7c0.5,1.85-0.05,3.71-0.77,5.44c-0.14-0.74-0.39-1.43-0.74-2.05
	C79.1,8.23,79.08,8.17,79.07,8.1z"/>
</svg>
