<?xml version="1.0" encoding="utf-8"?>
<!-- Generator: Adobe Illustrator 23.0.0, SVG Export Plug-In . SVG Version: 6.00 Build 0)  -->
<svg version="1.1" id="Слой_1" xmlns="http://www.w3.org/2000/svg" xmlns:xlink="http://www.w3.org/1999/xlink" x="0px" y="0px"
	 viewBox="0 0 100 21.28" style="enable-background:new 0 0 100 21.28;" xml:space="preserve">
<g>
	<path d="M10.46,8.53C8.81,7.97,7.42,10.2,9.5,10.68c0,0.11,0.01,0.23,0.01,0.34c0.06,1.78,0.12,3.55,0.18,5.33
		c0.02,0.39,0.03,0.79,0.04,1.19c0.01,0.38,0.01,0.77,0.04,1.15c0.02,0.27,0.26,0.49,0.52,0.47c0.23-0.01,0.4-0.18,0.45-0.4
		c0.01-0.05,0.02-0.1,0.01-0.15c0,0,0,0,0,0c0-0.02,0-0.03-0.01-0.05c0-0.04,0-0.08,0-0.13c-0.03-0.87-0.06-1.73-0.09-2.6
		c-0.03-0.82-0.06-1.63-0.08-2.45c-0.03-0.88-0.05-1.75-0.09-2.63C11.33,10.43,11.52,8.89,10.46,8.53z"/>
	<path d="M6.06,2.07C5.21,1.96,4.34,2.88,4.6,3.73c0.16,0.45,0.64,0.71,1.11,0.8c0,0.01,0,0.02,0,0.03c0,0.05,0,0.11,0,0.16
		c0,0.02,0,0.04,0.01,0.06c0,0.21,0,0.43,0,0.64c0.01,0.42,0.01,0.84,0.01,1.27c0,0.76,0.01,1.51,0.01,2.27
		c0,1.93,0.02,3.87,0.02,5.8c0.01,1.33,0.01,2.66,0.02,3.99c0,0.27,0.27,0.48,0.52,0.47c0.28-0.02,0.47-0.26,0.46-0.53
		c0-0.99-0.01-1.98-0.01-2.97c0-1.93-0.02-3.87-0.02-5.8c0-0.93-0.01-1.85-0.02-2.78c0-0.51,0-1.02,0-1.53c0-0.37,0.01-0.75,0-1.12
		c0,0,0,0,0-0.01C7.81,4.05,7.55,1.96,6.06,2.07z"/>
	<path d="M18.88,8.53c-1.65-0.56-3.04,1.66-0.95,2.14c0,0.11,0.01,0.23,0.01,0.34c0.06,1.78,0.12,3.55,0.18,5.33
		c0.02,0.39,0.03,0.79,0.04,1.19c0.01,0.38,0.01,0.77,0.04,1.15c0.02,0.27,0.26,0.49,0.52,0.47c0.23-0.01,0.4-0.18,0.45-0.4
		c0.01-0.05,0.02-0.1,0.01-0.15c0,0,0,0,0,0c0-0.02,0-0.03-0.01-0.05c0-0.04,0-0.08,0-0.13c-0.03-0.87-0.06-1.73-0.09-2.6
		c-0.03-0.82-0.06-1.63-0.08-2.45c-0.03-0.88-0.05-1.75-0.09-2.63C19.75,10.43,19.95,8.89,18.88,8.53z"/>
	<path d="M14.48,2.07c-0.85-0.12-1.71,0.8-1.46,1.65c0.16,0.45,0.64,0.71,1.11,0.8c0,0.01,0,0.02,0,0.03c0,0.05,0,0.11,0,0.16
		c0,0.02,0,0.04,0.01,0.06c0,0.21,0,0.43,0,0.64c0.01,0.42,0.01,0.84,0.01,1.27c0,0.76,0.01,1.51,0.01,2.27
		c0,1.93,0.02,3.87,0.02,5.8c0.01,1.33,0.01,2.66,0.02,3.99c0,0.27,0.27,0.48,0.52,0.47c0.28-0.02,0.47-0.26,0.46-0.53
		c0-0.99-0.01-1.98-0.01-2.97c0-1.93-0.02-3.87-0.02-5.8c0-0.93-0.01-1.85-0.02-2.78c0-0.51,0-1.02,0-1.53c0-0.37,0.01-0.75,0-1.12
		c0,0,0,0,0-0.01C16.24,4.05,15.98,1.96,14.48,2.07z"/>
	<path d="M27.31,8.53c-1.65-0.56-3.04,1.66-0.95,2.14c0,0.11,0.01,0.23,0.01,0.34c0.06,1.78,0.12,3.55,0.18,5.33
		c0.02,0.39,0.03,0.79,0.04,1.19c0.01,0.38,0.01,0.77,0.04,1.15c0.02,0.27,0.26,0.49,0.52,0.47c0.23-0.01,0.4-0.18,0.45-0.4
		c0.01-0.05,0.02-0.1,0.01-0.15c0,0,0,0,0,0c0-0.02,0-0.03-0.01-0.05c0-0.04,0-0.08,0-0.13c-0.03-0.87-0.06-1.73-0.09-2.6
		c-0.03-0.82-0.06-1.63-0.08-2.45c-0.03-0.88-0.05-1.75-0.09-2.63C28.18,10.43,28.37,8.89,27.31,8.53z"/>
	<path d="M22.91,2.07c-0.85-0.12-1.71,0.8-1.46,1.65c0.16,0.45,0.64,0.71,1.11,0.8c0,0.01,0,0.02,0,0.03c0,0.05,0,0.11,0,0.16
		c0,0.02,0,0.04,0.01,0.06c0,0.21,0,0.43,0,0.64c0.01,0.42,0.01,0.84,0.01,1.27c0,0.76,0.01,1.51,0.01,2.27
		c0,1.93,0.02,3.87,0.02,5.8c0.01,1.33,0.01,2.66,0.02,3.99c0,0.27,0.27,0.48,0.52,0.47c0.28-0.02,0.47-0.26,0.46-0.53
		c0-0.99-0.01-1.98-0.01-2.97c0-1.93-0.02-3.87-0.02-5.8c0-0.93-0.01-1.85-0.02-2.78c0-0.51,0-1.02,0-1.53c0-0.37,0.01-0.75,0-1.12
		c0,0,0,0,0-0.01C24.66,4.05,24.4,1.96,22.91,2.07z"/>
	<path d="M35.73,8.53c-1.65-0.56-3.04,1.66-0.95,2.14c0,0.11,0.01,0.23,0.01,0.34c0.06,1.78,0.12,3.55,0.18,5.33
		c0.02,0.39,0.03,0.79,0.04,1.19c0.01,0.38,0.01,0.77,0.04,1.15c0.02,0.27,0.26,0.49,0.52,0.47c0.23-0.01,0.4-0.18,0.45-0.4
		c0.01-0.05,0.02-0.1,0.01-0.15c0,0,0,0,0,0c0-0.02,0-0.03-0.01-0.05c0-0.04,0-0.08,0-0.13c-0.03-0.87-0.06-1.73-0.09-2.6
		c-0.03-0.82-0.06-1.63-0.08-2.45c-0.03-0.88-0.05-1.75-0.09-2.63C36.6,10.43,36.8,8.89,35.73,8.53z"/>
	<path d="M31.33,2.07c-0.85-0.12-1.71,0.8-1.46,1.65c0.16,0.45,0.64,0.71,1.11,0.8c0,0.01,0,0.02,0,0.03c0,0.05,0,0.11,0,0.16
		c0,0.02,0,0.04,0.01,0.06c0,0.21,0,0.43,0,0.64c0.01,0.42,0.01,0.84,0.01,1.27C30.99,7.45,31,8.2,31,8.96
		c0,1.93,0.02,3.87,0.02,5.8c0.01,1.33,0.01,2.66,0.02,3.99c0,0.27,0.27,0.48,0.52,0.47c0.28-0.02,0.47-0.26,0.46-0.53
		c0-0.99-0.01-1.98-0.01-2.97c0-1.93-0.02-3.87-0.02-5.8c0-0.93-0.01-1.85-0.02-2.78c0-0.51,0-1.02,0-1.53c0-0.37,0.01-0.75,0-1.12
		c0,0,0,0,0-0.01C33.09,4.05,32.83,1.96,31.33,2.07z"/>
	<path d="M44.16,8.53c-1.65-0.56-3.04,1.66-0.95,2.14c0,0.11,0.01,0.23,0.01,0.34c0.06,1.78,0.12,3.55,0.18,5.33
		c0.02,0.39,0.03,0.79,0.04,1.19c0.01,0.38,0.01,0.77,0.04,1.15c0.02,0.27,0.26,0.49,0.52,0.47c0.23-0.01,0.4-0.18,0.45-0.4
		c0.01-0.05,0.02-0.1,0.01-0.15c0,0,0,0,0,0c0-0.02,0-0.03-0.01-0.05c0-0.04,0-0.08,0-0.13c-0.03-0.87-0.06-1.73-0.09-2.6
		c-0.03-0.82-0.06-1.63-0.08-2.45c-0.03-0.88-0.05-1.75-0.09-2.63C45.03,10.43,45.22,8.89,44.16,8.53z"/>
	<path d="M39.76,2.07c-0.85-0.12-1.71,0.8-1.46,1.65c0.16,0.45,0.64,0.71,1.11,0.8c0,0.01,0,0.02,0,0.03c0,0.05,0,0.11,0,0.16
		c0,0.02,0,0.04,0.01,0.06c0,0.21,0,0.43,0,0.64c0.01,0.42,0.01,0.84,0.01,1.27c0,0.76,0.01,1.51,0.01,2.27
		c0,1.93,0.02,3.87,0.02,5.8c0.01,1.33,0.01,2.66,0.02,3.99c0,0.27,0.27,0.48,0.52,0.47c0.28-0.02,0.47-0.26,0.46-0.53
		c0-0.99-0.01-1.98-0.01-2.97c0-1.93-0.02-3.87-0.02-5.8c0-0.93-0.01-1.85-0.02-2.78c0-0.51,0-1.02,0-1.53c0-0.37,0.01-0.75,0-1.12
		c0,0,0,0,0-0.01C41.51,4.05,41.25,1.96,39.76,2.07z"/>
	<path d="M52.59,8.53c-1.65-0.56-3.04,1.66-0.95,2.14c0,0.11,0.01,0.23,0.01,0.34c0.06,1.78,0.12,3.55,0.18,5.33
		c0.02,0.39,0.03,0.79,0.04,1.19c0.01,0.38,0.01,0.77,0.04,1.15c0.02,0.27,0.26,0.49,0.52,0.47c0.23-0.01,0.4-0.18,0.45-0.4
		c0.01-0.05,0.02-0.1,0.01-0.15c0,0,0,0,0,0c0-0.02,0-0.03-0.01-0.05c0-0.04,0-0.08,0-0.13c-0.03-0.87-0.06-1.73-0.09-2.6
		c-0.03-0.82-0.06-1.63-0.08-2.45c-0.03-0.88-0.05-1.75-0.09-2.63C53.46,10.43,53.65,8.89,52.59,8.53z"/>
	<path d="M48.19,2.07c-0.85-0.12-1.71,0.8-1.46,1.65c0.16,0.45,0.64,0.71,1.11,0.8c0,0.01,0,0.02,0,0.03c0,0.05,0,0.11,0,0.16
		c0,0.02,0,0.04,0.01,0.06c0,0.21,0,0.43,0,0.64c0.01,0.42,0.01,0.84,0.01,1.27c0,0.76,0.01,1.51,0.01,2.27
		c0,1.93,0.02,3.87,0.02,5.8c0.01,1.33,0.01,2.66,0.02,3.99c0,0.27,0.27,0.48,0.52,0.47c0.28-0.02,0.47-0.26,0.46-0.53
		c0-0.99-0.01-1.98-0.01-2.97c0-1.93-0.02-3.87-0.02-5.8c0-0.93-0.01-1.85-0.02-2.78c0-0.51,0-1.02,0-1.53c0-0.37,0.01-0.75,0-1.12
		c0,0,0,0,0-0.01C49.94,4.05,49.68,1.96,48.19,2.07z"/>
	<path d="M61.01,8.53c-1.65-0.56-3.04,1.66-0.95,2.14c0,0.11,0.01,0.23,0.01,0.34c0.06,1.78,0.12,3.55,0.18,5.33
		c0.02,0.39,0.03,0.79,0.04,1.19c0.01,0.38,0.01,0.77,0.04,1.15c0.02,0.27,0.26,0.49,0.52,0.47c0.23-0.01,0.4-0.18,0.45-0.4
		c0.01-0.05,0.02-0.1,0.01-0.15c0,0,0,0,0,0c0-0.02,0-0.03-0.01-0.05c0-0.04,0-0.08,0-0.13c-0.03-0.87-0.06-1.73-0.09-2.6
		c-0.03-0.82-0.06-1.63-0.08-2.45c-0.03-0.88-0.05-1.75-0.09-2.63C61.88,10.43,62.08,8.89,61.01,8.53z"/>
	<path d="M56.61,2.07c-0.85-0.12-1.71,0.8-1.46,1.65c0.16,0.45,0.64,0.71,1.11,0.8c0,0.01,0,0.02,0,0.03c0,0.05,0,0.11,0,0.16
		c0,0.02,0,0.04,0.01,0.06c0,0.21,0,0.43,0,0.64c0.01,0.42,0.01,0.84,0.01,1.27c0,0.76,0.01,1.51,0.01,2.27
		c0,1.93,0.02,3.87,0.02,5.8c0.01,1.33,0.01,2.66,0.02,3.99c0,0.27,0.27,0.48,0.52,0.47c0.28-0.02,0.47-0.26,0.46-0.53
		c0-0.99-0.01-1.98-0.01-2.97c0-1.93-0.02-3.87-0.02-5.8c0-0.93-0.01-1.85-0.02-2.78c0-0.51,0-1.02,0-1.53c0-0.37,0.01-0.75,0-1.12
		c0,0,0,0,0-0.01C58.37,4.05,58.11,1.96,56.61,2.07z"/>
	<path d="M69.44,8.53c-1.65-0.56-3.04,1.66-0.95,2.14c0,0.11,0.01,0.23,0.01,0.34c0.06,1.78,0.12,3.55,0.18,5.33
		c0.02,0.39,0.03,0.79,0.04,1.19c0.01,0.38,0.01,0.77,0.04,1.15c0.02,0.27,0.26,0.49,0.52,0.47c0.23-0.01,0.4-0.18,0.45-0.4
		c0.01-0.05,0.02-0.1,0.01-0.15c0,0,0,0,0,0c0-0.02,0-0.03-0.01-0.05c0-0.04,0-0.08,0-0.13c-0.03-0.87-0.06-1.73-0.09-2.6
		c-0.03-0.82-0.06-1.63-0.08-2.45c-0.03-0.88-0.05-1.75-0.09-2.63C70.31,10.43,70.5,8.89,69.44,8.53z"/>
	<path d="M65.04,2.07c-0.85-0.12-1.71,0.8-1.46,1.65c0.16,0.45,0.64,0.71,1.11,0.8c0,0.01,0,0.02,0,0.03c0,0.05,0,0.11,0,0.16
		c0,0.02,0,0.04,0.01,0.06c0,0.21,0,0.43,0,0.64c0.01,0.42,0.01,0.84,0.01,1.27c0,0.76,0.01,1.51,0.01,2.27
		c0,1.93,0.02,3.87,0.02,5.8c0.01,1.33,0.01,2.66,0.02,3.99c0,0.27,0.27,0.48,0.52,0.47c0.28-0.02,0.47-0.26,0.46-0.53
		c0-0.99-0.01-1.98-0.01-2.97c0-1.93-0.02-3.87-0.02-5.8c0-0.93-0.01-1.85-0.02-2.78c0-0.51,0-1.02,0-1.53c0-0.37,0.01-0.75,0-1.12
		c0,0,0,0,0-0.01C66.79,4.05,66.53,1.96,65.04,2.07z"/>
	<path d="M77.86,8.53c-1.65-0.56-3.04,1.66-0.95,2.14c0,0.11,0.01,0.23,0.01,0.34c0.06,1.78,0.12,3.55,0.18,5.33
		c0.02,0.39,0.03,0.79,0.04,1.19c0.01,0.38,0.01,0.77,0.04,1.15c0.02,0.27,0.26,0.49,0.52,0.47c0.23-0.01,0.4-0.18,0.45-0.4
		c0.01-0.05,0.02-0.1,0.01-0.15c0,0,0,0,0,0c0-0.02,0-0.03-0.01-0.05c0-0.04,0-0.08,0-0.13c-0.03-0.87-0.06-1.73-0.09-2.6
		c-0.03-0.82-0.06-1.63-0.08-2.45c-0.03-0.88-0.05-1.75-0.09-2.63C78.73,10.43,78.93,8.89,77.86,8.53z"/>
	<path d="M73.46,2.07c-0.85-0.12-1.71,0.8-1.46,1.65c0.16,0.45,0.64,0.71,1.11,0.8c0,0.01,0,0.02,0,0.03c0,0.05,0,0.11,0,0.16
		c0,0.02,0,0.04,0.01,0.06c0,0.21,0,0.43,0,0.64c0.01,0.42,0.01,0.84,0.01,1.27c0,0.76,0.01,1.51,0.01,2.27
		c0,1.93,0.02,3.87,0.02,5.8c0.01,1.33,0.01,2.66,0.02,3.99c0,0.27,0.27,0.48,0.52,0.47c0.28-0.02,0.47-0.26,0.46-0.53
		c0-0.99-0.01-1.98-0.01-2.97c0-1.93-0.02-3.87-0.02-5.8c0-0.93-0.01-1.85-0.02-2.78c0-0.51,0-1.02,0-1.53c0-0.37,0.01-0.75,0-1.12
		c0,0,0,0,0-0.01C75.22,4.05,74.96,1.96,73.46,2.07z"/>
	<path d="M86.29,8.53c-1.65-0.56-3.04,1.66-0.95,2.14c0,0.11,0.01,0.23,0.01,0.34c0.06,1.78,0.12,3.55,0.18,5.33
		c0.02,0.39,0.03,0.79,0.04,1.19c0.01,0.38,0.01,0.77,0.04,1.15c0.02,0.27,0.26,0.49,0.52,0.47c0.23-0.01,0.4-0.18,0.45-0.4
		c0.01-0.05,0.02-0.1,0.01-0.15c0,0,0,0,0,0c0-0.02,0-0.03-0.01-0.05c0-0.04,0-0.08,0-0.13c-0.03-0.87-0.06-1.73-0.09-2.6
		c-0.03-0.82-0.06-1.63-0.08-2.45c-0.03-0.88-0.05-1.75-0.09-2.63C87.16,10.43,87.35,8.89,86.29,8.53z"/>
	<path d="M81.89,2.07c-0.85-0.12-1.71,0.8-1.46,1.65c0.16,0.45,0.64,0.71,1.11,0.8c0,0.01,0,0.02,0,0.03c0,0.05,0,0.11,0,0.16
		c0,0.02,0,0.04,0.01,0.06c0,0.21,0,0.43,0,0.64c0.01,0.42,0.01,0.84,0.01,1.27c0,0.76,0.01,1.51,0.01,2.27
		c0,1.93,0.02,3.87,0.02,5.8c0.01,1.33,0.01,2.66,0.02,3.99c0,0.27,0.27,0.48,0.52,0.47c0.28-0.02,0.47-0.26,0.46-0.53
		c0-0.99-0.01-1.98-0.01-2.97c0-1.93-0.02-3.87-0.02-5.8c0-0.93-0.01-1.85-0.02-2.78c0-0.51,0-1.02,0-1.53c0-0.37,0.01-0.75,0-1.12
		c0,0,0,0,0-0.01C83.64,4.05,83.38,1.96,81.89,2.07z"/>
	<path d="M94.72,8.53c-1.65-0.56-3.04,1.66-0.95,2.14c0,0.11,0.01,0.23,0.01,0.34c0.06,1.78,0.12,3.55,0.18,5.33
		c0.02,0.39,0.03,0.79,0.04,1.19c0.01,0.38,0.01,0.77,0.04,1.15c0.02,0.27,0.26,0.49,0.52,0.47c0.23-0.01,0.4-0.18,0.45-0.4
		c0.01-0.05,0.02-0.1,0.01-0.15c0,0,0,0,0,0c0-0.02,0-0.03-0.01-0.05c0-0.04,0-0.08,0-0.13c-0.03-0.87-0.06-1.73-0.09-2.6
		c-0.03-0.82-0.06-1.63-0.08-2.45c-0.03-0.88-0.05-1.75-0.09-2.63C95.59,10.43,95.78,8.89,94.72,8.53z"/>
	<path d="M90.32,2.07c-0.85-0.12-1.71,0.8-1.46,1.65c0.16,0.45,0.64,0.71,1.11,0.8c0,0.01,0,0.02,0,0.03c0,0.05,0,0.11,0,0.16
		c0,0.02,0,0.04,0.01,0.06c0,0.21,0,0.43,0,0.64c0.01,0.42,0.01,0.84,0.01,1.27c0,0.76,0.01,1.51,0.01,2.27
		c0,1.93,0.02,3.87,0.02,5.8c0.01,1.33,0.01,2.66,0.02,3.99c0,0.27,0.27,0.48,0.52,0.47c0.28-0.02,0.47-0.26,0.46-0.53
		c0-0.99-0.01-1.98-0.01-2.97c0-1.93-0.02-3.87-0.02-5.8c0-0.93-0.01-1.85-0.02-2.78c0-0.51,0-1.02,0-1.53c0-0.37,0.01-0.75,0-1.12
		c0,0,0,0,0-0.01C92.07,4.05,91.81,1.96,90.32,2.07z"/>
</g>
</svg>
