<?xml version="1.0" encoding="utf-8"?>
<!-- Generator: Adobe Illustrator 23.0.0, SVG Export Plug-In . SVG Version: 6.00 Build 0)  -->
<svg version="1.1" id="Слой_1" xmlns="http://www.w3.org/2000/svg" xmlns:xlink="http://www.w3.org/1999/xlink" x="0px" y="0px"
	 viewBox="0 0 150 90" style="enable-background:new 0 0 150 90;" xml:space="preserve">
<g>
	<path d="M29.82,56.77c-1.4-0.22-3.06-0.57-4.68-0.27c-0.81,0.15-1.61,0.46-2.37,1.03c-0.37,0.29-0.76,0.63-1.08,1.06
		c-0.3,0.44-0.58,0.95-0.84,1.56c-0.59,1.4-0.68,2.64-0.43,3.66c0.32,1.04,0.99,1.85,1.78,2.46c1.59,1.22,3.75,1.63,5.1,1.52
		c0.34-0.29,0.16-0.97-0.21-0.91c-0.88,0.01-1.72-0.27-2.58-0.61c-0.73-0.21-1.43-0.57-2.01-1.07c-0.59-0.49-1.08-1.13-1.27-1.85
		c-0.4-1.43-0.04-3.34,1.93-5.06c2.1-1.36,4.28-0.77,6.2-0.6l-0.02,0C29.84,57.98,30.37,57.03,29.82,56.77z"/>
	<path d="M26.59,72.69c-1.83-0.14-3.67-0.11-5.5-0.16c-0.88-0.03-1.76-0.08-2.63-0.14c-0.19-1.27-0.97-2.34-2.11-1.42
		c-1.31,1.21-0.79,4.61,0.67,4.41c0.87-0.16,1.31-0.96,1.44-1.85c1.74,0.14,3.5,0.08,5.26,0.11c0.93-0.01,1.84-0.01,2.77,0.05
		c0.2,0.01,0.39-0.16,0.42-0.44C26.93,72.98,26.79,72.7,26.59,72.69z"/>
	<path d="M31.3,52c-1.09-0.52-5.48-2.61-6.61-3.06c-0.03-0.01-0.06,0.02-0.09,0.02c0.19-0.9-0.06-1.77-0.61-2.02
		c-0.77-0.34-1.76,0.43-2.35,1.63c-0.58,1.2-0.32,2.45,0.41,2.71c0.71,0.24,1.57-0.37,2.13-1.31c0.03,0.03,0.07,0.06,0.11,0.08
		c2.69,1.02,4.9,2.39,7.34,3.27c0.19,0.07,0.43-0.07,0.54-0.31C32.3,52.33,31.66,52.17,31.3,52z"/>
	<path d="M28.63,60.2c-0.42-0.11-0.83-0.3-1.25-0.41c-0.24-0.07-0.48-0.12-0.74-0.13c-0.32-0.01-0.66,0.06-0.95,0.24
		c-0.36,0.22-0.68,0.61-0.87,1.1c-0.11,0.26-0.18,0.51-0.19,0.79c-0.01,0.26,0.02,0.51,0.07,0.74c0.1,0.48,0.32,0.89,0.62,1.13
		c0.37,0.28,0.8,0.4,1.24,0.48c0.23,0.04,0.47,0.08,0.71,0.12c0.11,0.02,0.23,0.04,0.35,0.06c0.03,0.01,0.05,0.03,0.08,0.03
		c0.2,0.04,0.41-0.15,0.48-0.41c0.02-0.06,0.02-0.13,0.02-0.19c0.02-0.07,0.03-0.13,0.05-0.19c0.04-0.16,0.08-0.32,0.11-0.48
		c0.1-0.43,0.2-0.85,0.29-1.28c0.06-0.25,0.12-0.51,0.17-0.76c0.01-0.06,0.03-0.14,0.05-0.2c0.02-0.13,0.01-0.26-0.01-0.36
		C28.83,60.35,28.75,60.23,28.63,60.2z"/>
	<path d="M36.33,38.29c-0.8-0.17-1.66-0.19-2.57,0.05c-0.46,0.12-0.93,0.3-1.41,0.56c-0.47,0.27-0.91,0.65-1.38,1.11
		c-1.08,1.07-1.63,2.18-1.79,3.22c-0.13,1.06,0.19,2.09,0.67,2.95c1,1.74,2.83,2.95,4.12,3.37c0.43-0.14,0.52-0.83,0.16-0.92
		c-0.82-0.33-1.48-0.91-2.15-1.56c-0.59-0.48-1.1-1.08-1.45-1.76c-0.18-0.34-0.31-0.7-0.4-1.08c-0.07-0.36-0.09-0.73-0.05-1.11
		c0.08-0.75,0.4-1.51,0.99-2.21c0.62-0.68,1.43-1.36,2.74-1.71c2.45-0.46,4.24,0.92,5.94,1.81L39.75,41
		c0.35,0.47,1.19-0.22,0.78-0.67C39.33,39.59,37.93,38.63,36.33,38.29z"/>
	<path d="M38.8,31.12c-0.02-0.02-0.06-0.01-0.09-0.02c0.5-0.79,0.66-1.61,0.23-2.07c-0.29-0.3-0.76-0.4-1.27-0.29
		c-0.5,0.12-1.05,0.43-1.55,0.87c-0.98,0.89-1.22,2.15-0.65,2.68c0.56,0.49,1.58,0.25,2.46-0.41c0.02,0.04,0.04,0.08,0.07,0.11
		c2.09,1.97,3.61,4.09,5.53,5.83c0.15,0.14,0.42,0.1,0.61-0.09c0.37-0.58-0.15-0.97-0.42-1.26C42.93,35.59,39.68,31.98,38.8,31.12z"
		/>
	<path d="M37.14,42.2c-0.19-0.15-0.4-0.3-0.63-0.4c-0.29-0.13-0.63-0.2-0.99-0.16c-0.43,0.05-0.86,0.3-1.23,0.68
		c-0.19,0.2-0.36,0.41-0.48,0.66c-0.11,0.23-0.17,0.48-0.22,0.71c-0.09,0.48-0.05,0.95,0.14,1.29c0.23,0.4,0.59,0.68,0.96,0.92
		l0.61,0.38c0.1,0.06,0.2,0.12,0.3,0.19c0.02,0.02,0.03,0.04,0.06,0.05c0.17,0.11,0.43,0.02,0.6-0.2c0.04-0.05,0.07-0.11,0.09-0.17
		c0.04-0.06,0.08-0.11,0.11-0.16c0.09-0.13,0.19-0.27,0.29-0.4c0.26-0.36,0.51-0.71,0.76-1.07c0.15-0.21,0.3-0.42,0.45-0.63
		c0.04-0.05,0.09-0.11,0.13-0.16c0.08-0.1,0.13-0.21,0.14-0.32c0.04-0.14,0.01-0.28-0.09-0.36C37.79,42.79,37.49,42.46,37.14,42.2z"
		/>
	<path d="M53.65,25.75c-0.67-0.46-1.45-0.8-2.38-0.93c-0.47-0.06-0.97-0.07-1.51-0.01c-0.27,0.03-0.56,0.07-0.84,0.14
		c-0.28,0.09-0.57,0.19-0.87,0.32c-2.81,1.2-3.71,3.23-3.39,5.27c0.26,2,1.49,3.82,2.52,4.7c0.44,0.03,0.79-0.58,0.5-0.8
		c-0.63-0.62-1.02-1.41-1.39-2.27c-0.36-0.66-0.6-1.42-0.67-2.19c-0.06-0.75,0.09-1.49,0.45-2.16c0.36-0.67,0.94-1.26,1.75-1.68
		c0.41-0.21,0.87-0.38,1.39-0.49c0.53-0.09,1.15-0.08,1.8-0.02c2.43,0.5,3.55,2.46,4.78,3.93l-0.02-0.02
		c0.14,0.56,1.18,0.24,0.98-0.33C55.91,28.09,54.99,26.68,53.65,25.75z"/>
	<path d="M58.68,20.08c-0.01-0.03-0.06-0.03-0.08-0.05c0.77-0.52,1.24-1.19,1.02-1.79c-0.3-0.78-1.58-1.06-2.83-0.56
		c-1.25,0.45-1.96,1.53-1.62,2.24c0.33,0.67,1.36,0.84,2.42,0.56c0,0.05,0.01,0.09,0.02,0.13c1.17,2.63,1.76,5.16,2.86,7.51
		c0.08,0.18,0.35,0.25,0.6,0.15c0.56-0.4,0.23-0.95,0.09-1.33C60.77,25.78,59.16,21.2,58.68,20.08z"/>
	<path d="M52.91,29.7c-0.12-0.22-0.26-0.43-0.43-0.61c-0.22-0.23-0.5-0.42-0.85-0.52c-0.43-0.14-0.94-0.11-1.41,0.12
		c-0.25,0.11-0.48,0.25-0.69,0.43c-0.19,0.18-0.34,0.38-0.47,0.58c-0.26,0.41-0.4,0.86-0.36,1.26c0.06,0.46,0.28,0.85,0.54,1.22
		l0.42,0.58c0.07,0.09,0.13,0.19,0.2,0.29c0.01,0.03,0.01,0.05,0.03,0.07c0.12,0.17,0.39,0.18,0.62,0.04
		c0.05-0.03,0.11-0.08,0.14-0.12c0.06-0.04,0.11-0.07,0.16-0.1c0.14-0.09,0.28-0.18,0.42-0.27c0.37-0.24,0.74-0.47,1.1-0.71
		c0.21-0.15,0.44-0.28,0.67-0.38c0.06-0.03,0.13-0.06,0.18-0.09c0.11-0.07,0.2-0.15,0.25-0.24c0.09-0.12,0.12-0.26,0.05-0.37
		C53.29,30.49,53.13,30.07,52.91,29.7z"/>
	<path d="M72.62,19.09c-0.41-0.24-0.87-0.44-1.39-0.6c-0.26-0.08-0.54-0.15-0.83-0.19c-0.29-0.03-0.6-0.04-0.93-0.04
		c-3.05,0.04-4.67,1.53-5.17,3.55c-0.53,1.95-0.09,4.1,0.51,5.31c0.4,0.2,0.95-0.23,0.76-0.55c-0.34-0.81-0.4-1.69-0.4-2.63
		c-0.08-0.75-0.01-1.55,0.23-2.27c0.24-0.7,0.66-1.33,1.25-1.81c0.59-0.48,1.35-0.8,2.26-0.88c0.46-0.04,0.95-0.01,1.47,0.09
		c0.53,0.12,1.09,0.37,1.67,0.68c2.05,1.41,2.33,3.64,2.9,5.48l-0.01-0.02c-0.09,0.58,1,0.68,1.03,0.08
		c-0.32-1.38-0.63-3.04-1.51-4.42C74.02,20.18,73.43,19.56,72.62,19.09z"/>
	<path d="M80.47,14.62c-1.33-0.07-2.39,0.65-2.35,1.43c0.05,0.75,0.94,1.3,2.02,1.46c-0.02,0.04-0.03,0.09-0.03,0.13
		c0.07,2.88-0.36,5.44-0.24,8.03c0.01,0.2,0.23,0.37,0.49,0.37c0.67-0.15,0.58-0.79,0.6-1.19c0.06-1.21,0.33-6.06,0.32-7.28
		c0-0.03-0.04-0.05-0.05-0.08c0.45-0.09,0.86-0.28,1.15-0.51c0.29-0.21,0.47-0.49,0.48-0.8C82.89,15.33,81.8,14.68,80.47,14.62z"/>
	<path d="M72.1,23.49c-0.11-0.3-0.3-0.58-0.59-0.81c-0.34-0.29-0.83-0.46-1.35-0.43c-0.28,0-0.54,0.04-0.8,0.13
		c-0.24,0.09-0.46,0.22-0.66,0.36c-0.4,0.28-0.71,0.64-0.81,1.02c-0.12,0.45-0.07,0.9,0.02,1.34c0.05,0.23,0.11,0.47,0.16,0.7
		c0.03,0.11,0.05,0.23,0.08,0.34c0,0.03-0.01,0.05,0,0.08c0.04,0.2,0.29,0.31,0.56,0.28c0.06-0.01,0.13-0.03,0.18-0.06
		c0.07-0.01,0.13-0.02,0.19-0.03c0.16-0.03,0.33-0.06,0.49-0.08c0.43-0.08,0.86-0.16,1.29-0.23c0.25-0.06,0.51-0.09,0.77-0.09
		c0.06,0,0.14,0,0.2-0.01c0.13-0.02,0.25-0.06,0.33-0.13c0.13-0.07,0.21-0.2,0.19-0.32c-0.05-0.43-0.04-0.88-0.1-1.31
		C72.23,23.97,72.18,23.73,72.1,23.49z"/>
	<path d="M94.54,21.96c-0.28-0.38-0.63-0.74-1.05-1.09c-0.43-0.34-0.95-0.59-1.55-0.85c-1.4-0.59-2.64-0.68-3.66-0.43
		c-1.02,0.25-1.86,0.96-2.47,1.74c-1.23,1.59-1.66,3.74-1.56,5.09c0.29,0.34,0.97,0.16,0.92-0.21c0-0.88,0.28-1.72,0.63-2.58
		c0.42-1.43,1.48-2.86,2.93-3.24c0.72-0.21,1.55-0.21,2.42,0.08c0.86,0.32,1.8,0.8,2.62,1.89c1.35,2.1,0.75,4.27,0.57,6.19l0-0.02
		c-0.3,0.5,0.65,1.02,0.91,0.47c0.23-1.4,0.59-3.05,0.3-4.67C95.41,23.52,95.11,22.72,94.54,21.96z"/>
	<path d="M103.1,23.82c0.92,0.17,1.75-0.02,2.01-0.57c0.36-0.79-0.4-1.8-1.61-2.38c-1.2-0.58-2.46-0.33-2.72,0.41
		c-0.24,0.71,0.36,1.56,1.3,2.13c-0.03,0.03-0.06,0.07-0.08,0.11c-1.04,2.68-2.43,4.88-3.32,7.32c-0.07,0.19,0.07,0.43,0.31,0.54
		c0.68,0.12,0.84-0.5,1.01-0.87c0.53-1.09,2.65-5.46,3.11-6.59C103.13,23.89,103.1,23.86,103.1,23.82z"/>
	<path d="M91.05,23.96c-0.26-0.11-0.51-0.18-0.79-0.19c-0.26-0.01-0.51,0.02-0.74,0.07c-0.48,0.1-0.9,0.32-1.14,0.62
		c-0.28,0.37-0.4,0.8-0.49,1.24c-0.04,0.23-0.08,0.47-0.12,0.71c-0.02,0.11-0.04,0.23-0.06,0.35c-0.01,0.03-0.03,0.05-0.03,0.08
		c-0.04,0.2,0.15,0.4,0.41,0.48c0.06,0.02,0.13,0.02,0.19,0.02c0.07,0.02,0.13,0.03,0.19,0.05c0.16,0.04,0.32,0.08,0.48,0.11
		c0.43,0.1,0.85,0.2,1.28,0.29c0.25,0.06,0.51,0.12,0.76,0.17c0.06,0.01,0.13,0.04,0.19,0.06c0.13,0.04,0.25,0.04,0.35,0.01
		c0.15-0.02,0.27-0.1,0.3-0.22c0.12-0.42,0.3-0.82,0.41-1.25c0.07-0.24,0.12-0.48,0.13-0.74c0.01-0.32-0.05-0.65-0.23-0.98
		C91.94,24.46,91.54,24.16,91.05,23.96z"/>
	<path d="M112.02,30.27c-1.07-1.08-2.18-1.63-3.22-1.79c-1.02-0.19-2.08,0.16-2.94,0.64c-1.75,0.99-2.97,2.82-3.41,4.1
		c0.14,0.42,0.83,0.52,0.93,0.16c0.33-0.81,0.92-1.47,1.58-2.14c0.95-1.17,2.46-2.04,3.95-1.85c0.75,0.08,1.52,0.4,2.21,1
		c0.7,0.59,1.33,1.46,1.68,2.76c0.45,2.45-0.94,4.22-1.84,5.92l0.01-0.02c-0.47,0.35,0.22,1.19,0.67,0.78
		c0.75-1.2,1.71-2.59,2.06-4.19c0.18-0.8,0.2-1.65-0.04-2.56C113.41,32.19,112.96,31.16,112.02,30.27z"/>
	<path d="M120.86,38.07c0.77,0.51,1.58,0.69,2.05,0.26c0.61-0.57,0.38-1.86-0.55-2.83c-0.89-0.99-2.16-1.23-2.68-0.65
		c-0.5,0.56-0.26,1.58,0.4,2.45c-0.04,0.02-0.08,0.04-0.12,0.07c-1.99,2.08-4.11,3.58-5.87,5.48c-0.14,0.15-0.1,0.42,0.08,0.61
		c0.58,0.37,0.97-0.15,1.27-0.42c0.9-0.8,4.53-4.03,5.39-4.9C120.87,38.14,120.85,38.1,120.86,38.07z"/>
	<path d="M109.02,33.09c-0.24-0.11-0.48-0.18-0.71-0.22c-0.48-0.09-0.95-0.05-1.3,0.14c-0.41,0.23-0.68,0.58-0.93,0.96l-0.38,0.6
		c-0.06,0.1-0.12,0.2-0.19,0.3c-0.02,0.02-0.04,0.03-0.05,0.06c-0.11,0.17-0.02,0.43,0.2,0.6c0.05,0.04,0.11,0.07,0.17,0.09
		c0.06,0.04,0.11,0.08,0.16,0.11c0.13,0.09,0.27,0.19,0.4,0.29c0.36,0.26,0.72,0.51,1.07,0.76c0.21,0.15,0.43,0.29,0.62,0.47
		c0.05,0.04,0.1,0.1,0.15,0.13c0.1,0.08,0.21,0.13,0.32,0.14c0.14,0.04,0.29,0.01,0.37-0.09c0.27-0.34,0.6-0.64,0.86-0.99
		c0.15-0.19,0.3-0.4,0.41-0.63c0.13-0.29,0.2-0.62,0.16-0.99c-0.03-0.45-0.27-0.89-0.66-1.26
		C109.48,33.37,109.27,33.21,109.02,33.09z"/>
	<path d="M126.11,53.05c0.91-1.32,1.42-3.14,0.52-5.61c-0.59-1.4-1.41-2.33-2.32-2.87c-0.45-0.27-0.93-0.45-1.41-0.54
		c-0.5-0.08-1.02-0.08-1.52-0.01c-2,0.25-3.83,1.47-4.72,2.49c-0.03,0.44,0.58,0.79,0.8,0.5c0.62-0.62,1.42-1.01,2.28-1.37
		c1.35-0.73,2.99-0.91,4.33-0.18c0.67,0.36,1.26,0.94,1.68,1.76c0.2,0.41,0.4,0.86,0.46,1.4c0.07,0.54,0.07,1.15,0.01,1.8
		c-0.51,2.42-2.47,3.53-3.95,4.75l0.02-0.02c-0.57,0.14-0.23,1.17,0.3,0.98C123.79,55.28,125.17,54.38,126.11,53.05z"/>
	<path d="M134.18,56.25c-0.45-1.25-1.54-1.96-2.24-1.63c-0.67,0.33-0.84,1.35-0.56,2.42c-0.05,0-0.09,0.01-0.14,0.02
		c-2.63,1.15-5.17,1.72-7.52,2.8c-0.18,0.08-0.25,0.35-0.15,0.59c0.37,0.57,0.92,0.25,1.31,0.11c1.15-0.4,5.75-1.98,6.89-2.45
		c0.03-0.01,0.03-0.06,0.05-0.08c0.45,0.79,1.17,1.25,1.76,1.04C134.32,58.8,134.68,57.5,134.18,56.25z"/>
	<path d="M122.77,51.86c0.23-0.22,0.42-0.5,0.53-0.85c0.12-0.41,0.14-0.96-0.09-1.43c-0.11-0.25-0.24-0.48-0.43-0.69
		c-0.18-0.19-0.38-0.34-0.58-0.47c-0.42-0.26-0.87-0.41-1.26-0.36c-0.46,0.06-0.86,0.28-1.23,0.53l-0.58,0.41
		c-0.09,0.07-0.19,0.13-0.29,0.2c-0.03,0.01-0.05,0.01-0.07,0.03c-0.17,0.12-0.18,0.39-0.04,0.62c0.03,0.05,0.08,0.11,0.12,0.14
		c0.04,0.06,0.07,0.11,0.1,0.16c0.09,0.14,0.18,0.28,0.27,0.42c0.24,0.37,0.48,0.74,0.71,1.1c0.13,0.22,0.23,0.46,0.35,0.69
		c0.03,0.06,0.06,0.13,0.09,0.18c0.07,0.11,0.15,0.2,0.24,0.25c0.12,0.09,0.26,0.12,0.37,0.06c0.38-0.21,0.8-0.37,1.18-0.59
		C122.38,52.17,122.59,52.03,122.77,51.86z"/>
	<path d="M129.99,63.73c-1.95-0.54-4.11-0.12-5.32,0.48c-0.2,0.39,0.24,0.95,0.55,0.77c0.81-0.33,1.7-0.38,2.63-0.39
		c1.53-0.15,3.08,0.32,4.04,1.51c0.48,0.59,0.8,1.35,0.88,2.27c0.03,0.46,0.04,0.95-0.11,1.47c-0.15,0.53-0.38,1.09-0.69,1.67
		c-1.41,2.04-3.64,2.31-5.48,2.86l0.02-0.01c-0.58-0.09-0.68,0.99-0.08,1.03c1.38-0.31,3.04-0.61,4.42-1.48
		c1.35-0.87,2.53-2.36,2.65-4.98c-0.01-1.51-0.41-2.69-1.04-3.55C131.83,64.52,130.99,63.99,129.99,63.73z"/>
	<path d="M127.5,71.67c0.25-0.03,0.49-0.07,0.73-0.15c0.3-0.11,0.58-0.3,0.81-0.58c0.27-0.34,0.5-0.83,0.47-1.35
		c0-0.28-0.04-0.54-0.13-0.8c-0.09-0.24-0.22-0.46-0.36-0.66c-0.28-0.4-0.64-0.71-1.02-0.82c-0.45-0.12-0.9-0.07-1.34,0.02
		c-0.23,0.05-0.47,0.1-0.7,0.15c-0.11,0.02-0.23,0.05-0.34,0.08c-0.03,0-0.05-0.01-0.08,0c-0.2,0.04-0.31,0.29-0.28,0.56
		c0.01,0.06,0.03,0.13,0.06,0.18c0.01,0.07,0.02,0.13,0.03,0.19c0.03,0.16,0.06,0.33,0.09,0.49c0.08,0.44,0.16,0.86,0.23,1.29
		c0.03,0.25,0.04,0.52,0.06,0.77c0,0.06,0,0.14,0.01,0.2c0.02,0.13,0.06,0.25,0.13,0.33c0.07,0.13,0.2,0.21,0.32,0.2
		C126.62,71.7,127.06,71.72,127.5,71.67z"/>
</g>
</svg>
